<svg xmlns="http://www.w3.org/2000/svg" width="1706.67" height="734.67" viewBox="0 0 12800000 5510000">
  <defs>
    <linearGradient id="a" x1="8829263" x2="10569068" y1="2455157" y2="4834074" gradientUnits="userSpaceOnUse">
      <stop offset="0" stop-color="#9f61ff"/>
      <stop offset="1" stop-color="#7448ff"/>
    </linearGradient>
  </defs>
  <path d="m1564399 4173802 2334003-705 241200 386099-2763002 6300M2452100 2012800l2420700-2700-246700 348800-2093600 3100-147700 344903 210052 339419 1728649-4725L4199900 3268590l-2046000 2300-175800 447500-228700-2000zm4644806-315305L5884698 4321102l2220108-2580L7855301 4565300l-2928703-1004 779803-416347 1036500-2254350zM0 0h4100L0 4100" fill="#8450ff"/>
  <path d="m6660104 1519502-419501 158305L6742900 1893589l354007-196095" fill="#d8a3ff"/>
  <path d="M6019308 4029736 7914200 4034300l190607 284222-2220108 2580m355904-2643295 502296 215782L5706401 4147950l-779803 416347zM2127100 1554900l2474200 5800 271500 449400-2420700 2700-702700 1703600 2437197 8498-288194 448199-2334003 705-187800 391694L1047300 4161800" fill="#bd85ff"/>
  <path d="m10465997 1597400 207702 411797-185802 313204-263100-438599" fill="#7448ff"/>
  <path d="M4186597 3724898 4419300 4148600l-279698 410596-241199-386099M2384800 2706903l1750250 11047 188451 323647-1728649 4725" fill="#e6b2ff"/>
  <path d="M10865303 3543699 11272300 3687900l11998 365497-403500-144195" fill="#f5c0ff"/>
  <path d="M8689634 3081912c124551 405739 517034 692081 921929 777012 364814 83192 766417 21065 1076541-187738 90168-60709 115401-81019 177199-127488l15495 365504c-334154 279326-794053 392869-1220702 309399-374568-69839-707013-245937-902334-648181-47795-103465-67991-224889-70451-332206m928075-1696888c179006-24809 360929-25934 540731-7707 110457 11197 226295 27497 309880 63782l-241200 286402c-330969-21295-791755 12584-1097828 146994-397875 174725-751976 512458-843357 949015-27783 132729-26736 230811-24237 402077 6758 68202-21755-48415-28805-125081-17227-187343-33901-380511 9045-563912 52781-225398 153762-442179 311570-615350 274228-300925 664726-481376 1064201-536219" fill="#d8a3ff"/>
  <path d="M9718586 1881026c297579-28094 442061-7497 506211 2776l263100 438599c-208834-72865-429362-102817-650530-96335-447571 13117-904758 262618-1087169 686000-135056 313470-43056 685127 187224 925171 494508 515475 1400891 523773 1943376 71966l403500 144195c-469780 507103-1235995 651145-1888191 471784-498940-137214-966563-500618-1110863-1014374-69209-246408-33861-512817 65272-743512 229367-533764 808984-833488 1368070-886270" fill="url(#a)"/>
</svg>
