<svg xmlns="http://www.w3.org/2000/svg" width="1706.67" height="734.67" viewBox="0 0 128000 55100">
  <defs>
    <linearGradient id="a" x1="88321.77" x2="105719.82" y1="24499.31" y2="48288.48" gradientUnits="userSpaceOnUse">
      <stop offset="0" stop-color="#9f61ff"/>
      <stop offset="1" stop-color="#7448ff"/>
    </linearGradient>
  </defs>
  <path d="M0 0h41L0 41zm70969 16975L58894.08 43195.31l22153.97-10.12c-2522 2455.5 34.96 186.31-2495.04 2467.81l-29238-36.5c7586-4035.5 163.5 25.5 7749-4137 962-2185 10131-22107.5 10365-22543.5 444-220 2845-1460 3540-1961zm-46448 3153c8494.4-258.3 16644.5-166.4 24207-27l-2467 3488-20936 31c-1508.6 3442.5-47.6-30.5-1477 3449 2104.1 3404.9-16.7 21.3 2100.5 3394.2 6086.3-108.9 11761.5-235.9 17286.5-47.3l-1236 2270c-20439.7 45.7 12.2-3-20460 23-1743.2 4540.2 39.3 90.9-1758 4475-762-28-1525-16-2287-20l7027-17036zm-8877 21610 23340-7c2504.5 3891.9 142.6 21.4 2412 3861-27588 10.8-33 28-27630 63 837.8-1860.9 1189.6-2651.2 1878-3917" fill="#8450ff"/>
  <path d="M66601 15195c335 47 4187 1584 4368 1780-695 501-3096 1741-3540 1961-979-427-4387-1740-5023-2158 1167-410 3938-1540 4195-1583zm29582 166c737-90 1475-200 2220-197l2296 14c847 11 1660 279 2490 413 502 77 1056.3 133.1 1529.3 320.1-849 916-1674.3 1965.9-2470.2 2926.9l-2687-173c-784-71-1564 65-2346 93-1853 139-3665 618-5398 1273-2572 1067-4976 2672-6682 4900-547 682-998 1434-1375 2221-278 547-528 1111-686 1704-239 897-360.6 1827.3-438 2749 16 340 202.2 2138 66.2 2447-330-575-528.2-2718-536.2-3354 19-1031-59-2069 114-3092 18-375 161-727 198-1098 183-290 241-630 353-949 303-817 522-1677 997-2418 600-1094 1376-2079 2226-2987 1011-988 2164-1823 3385-2532 715-464 1512-776 2291-1113 1432-560 2935-917 4453-1148zm-9337 16431c-5-299-78.4-729.8 17.6-1008.8 250.4 831.7 727.3 1665.5 1202.4 2357.8 476 678 956 1360 1571 1922 1122 1243 2628 2048 4130 2741 986 386 2013 669 3056 856 543 123 1102 97 1652 161 375 22 748 128 1125 72 522-66 1047-115 1573-149 1682-188 3316-714 4832-1462 952-507 1814-1165 2648-1845 168.6 3668.3-1.3-.3 155 3655-354 165-684 380-970 646-639 577-1429 937-2188 1324-1642 773-3442 1174-5248 1290a10025 10025 0 0 1-2005-1c-1784-84-3530-569-5163-1276-557-254-1059-606-1580-923-1626-1045-3068-2454-3900-4219-662-1270-914-2719-908-4141" fill="#d8a3ff"/>
  <path d="m21271 15549 24742 58 2715 4494c-376 18-16514 39-24207 27-624 1615-6403 15558-7027 17036 24300.3 87.3 70.9 83.8 24413 33l-41 52c-2879.1 4473.4-3.8 7.6-2882 4482-7780 7-15560-6-23340 7-2143.9 4380.8 93.8-154.2-1878 3917-1090.7-1399.4-2294.8-2730-3293-4037zm41135 1229c636 418 4044 1731 5023 2158-234 436-9365.5 20358.5-10327.5 22543.5-123 300-7767.5 4147.5-7835.5 4163.5 137-448 12882-28458 13140-28865zm-2141.92 23533.77L79142 40343l1920 2829c-918 111-12099.86 131.11-22215 39" fill="#bd85ff"/>
  <path d="m104660 15974 58-63c436 973 1875 3718 2019 4181-602 1054-1286 2061-1858 3132-732.3-894.2-1232.5-1910.5-2631-4386 796-961 1563-1948 2412-2864" fill="#7448ff"/>
  <path d="M97215 18758c782-28 1562-164 2346-93 894 73 1790 124 2687 173 161 338 2010.6 3360.6 2629.6 4383.6-855.3-245.8-1814.5-618.1-2624.6-758.6-544-108-1089-237-1646-236l-3015-1c-554 6-1090 155-1627 268-1421 269-2749 880-4008 1574-604 341-1144 781-1687 1207-728 572-1289 1316-1829 2058-747.6 1191.7-1573.6 3193.2-1595 4459-6 1422 246 2871 908 4141 832 1765 2274 3174 3900 4219 521 317 1023 669 1580 923 1633 707 3379 1192 5163 1276a10025 10025 0 0 0 2005 1c1806-116 3606-517 5248-1290 759-387 1549-747 2188-1324 286-266 616-481 970-646 4005.8 1426-1.8-4.4 3968 1421l47 16c-224 272-464 532-732 760-1490 1364-3229 2453-5096 3220-1876 782-3886 1205-5905 1387-629 59-1260 33-1890 41-1193 27-2377-162-3548-366-2880-487-5619-1716-7939-3483-642-449-1144-1056-1712-1588-1034-1017-1823-2255-2461-3550-459-1095-766-2245-1016-3403-111.9-1469.5 173-3269.1 550-4691 158-593 408-1157 686-1704 377-787 828-1539 1375-2221 1706-2228 4110-3833 6682-4900 1733-655 3545-1134 5398-1273" fill="url(#a)"/>
  <path d="M23841.1 27095.2c17625.5 117.5-998.1 136.8 17509.4 84.3 1940.2 3273.7 26.4-3 1884.5 3236.5-17624.2 35.8 398.5 29.4-17286.5 28.5-2097.3-3306.4-48.7-13.5-2107.4-3349.3zM41866 37249c2317.5 4247.4 7.9 46.2 2327 4237-2762.4 4091.8-7.6 30.3-2797 4106-2408.4-3826.9 23.8-76.5-2412-3861 2881.6-4460.6 19.7-.2 2882-4482" fill="#e6b2ff"/>
  <path d="M108653 35437c4072.2 1430.1-1-17.6 4070 1442 120.6 3656 6.4-11.7 120 3655-4022.7-1442.7-4.1 2.9-4035-1442-152.8-3632.3 7.9-2.5-155-3655" fill="#f5c0ff"/>
</svg>
