<svg xmlns="http://www.w3.org/2000/svg" width="150" height="60" viewBox="0 0 11249978 4499980">
  <defs>
    <linearGradient id="a" x1="8300288" x2="10034804" y1="1774585" y2="4102307" gradientUnits="userSpaceOnUse">
      <stop offset="0" stop-color="#9f61ff"/>
      <stop offset="1" stop-color="#7448ff"/>
    </linearGradient>
  </defs>
  <path d="m1057507 3456242 2326904-690 240466 377790-2754598 6165m1072230-2497760 2413338-2642-245950 341294-2087232 3033-147250 337480 209413 332115 1723390-4623-123225 222108-2039777 2250-175265 437870-228004-1957zm4630680-308520-1208520 2567146 2213356-2525-248746 241467-2919795-982 777430-407387L6220260 1225110zm-7075320-1660964h4088l-4088 4012" fill="#8450ff"/>
  <path d="M6137714 859064 5719490 1013962l500770 211138 352930-191875" fill="#d8a3ff"/>
  <path d="m5498867 3315277 1889130 4466 190027 278105-2213356 2525m354822-2586410 500768 211138L5186910 3430946l-777430 407387zM1618496 893700l2466675 5675 270674 439730-2413338 2642-700563 1666938L3671730 3017000l-287317 438553-2326904 690-187230 383265L541980 3444500" fill="#bd85ff"/>
  <path d="m9932032 935286 207070 402935-185237 306464-262300-429160" fill="#7448ff"/>
  <path d="m3671730 3017000 231995 414584-278847 401760-240465-377790m-1509000-1434640 1744927 10810 187878 316682-1723390 4623" fill="#e6b2ff"/>
  <path d="m10330123 2839700 405760 141098 11962 357630-402273-141092" fill="#f5c0ff"/>
  <path d="M8161070 2387850c124172 397007 515462 677187 919125 760290 363704 81402 764086 20612 1073267-183698l176660-124744 15448 357638c-333138 273315-791638 384414-1216990 302740-373430-68336-704863-240644-899590-634232-47650-101238-67784-220050-70237-325057m925252-1660370c178462-24275 359830-25376 539086-7540 110120 10956 225607 26905 308938 62410l-240467 280238c-329962-20837-789347 12313-1094490 143830-396665 170965-749690 501430-840792 928592-27698 129873-26655 225844-24163 393424 6737 66734-21690-47373-28717-122390-17175-183310-33798-372322 9018-551776 52620-220547 153294-432663 310622-602107 273394-294450 662704-471017 1060964-524680" fill="#d8a3ff"/>
  <path d="M9186894 1212808c296674-27490 440716-7336 504670 2716l262300 429160c-208200-71297-428056-100604-648552-94262-446210 12835-902006 256966-1083862 671237-134645 306724-42925 670383 186655 905260 493004 504382 1396630 512500 1937465 70417l402273 141092c-468350 496190-1232236 637132-1882450 461630-497422-134260-963623-489844-1107484-992544-68998-241105-33758-501780 65073-727510 228670-522277 806523-815550 1363910-867197" fill="url(#a)"/>
</svg>
