<?xml version="1.0" encoding="UTF-8" standalone="no"?>
<!DOCTYPE svg PUBLIC "-//W3C//DTD SVG 1.1//EN"
 "http://www.w3.org/Graphics/SVG/1.1/DTD/svg11.dtd">
<!-- Generated by graphviz version 6.0.1 (20220911.1526)
 -->
<!-- Title: elc::defs::base::iterator_n::same_base_t::handle_getter Pages: 1 -->
<svg width="514pt" height="92pt"
 viewBox="0.00 0.00 514.00 91.50" xmlns="http://www.w3.org/2000/svg" xmlns:xlink="http://www.w3.org/1999/xlink">
<g id="graph0" class="graph" transform="scale(1 1) rotate(0) translate(4 87.5)">
<title>elc::defs::base::iterator_n::same_base_t::handle_getter</title>
<!-- Node1 -->
<g id="node1" class="node">
<title>Node1</title>
<g id="a_node1"><a xlink:title=" ">
<polygon fill="#999999" stroke="#666666" points="506,-54 350,-54 350,-24 506,-24 506,-54"/>
<text text-anchor="start" x="358" y="-42" font-family="Helvetica,sans-Serif" font-size="10.00">elc::defs::base::iterator</text>
<text text-anchor="middle" x="428" y="-31" font-family="Helvetica,sans-Serif" font-size="10.00">_n::same_base_t::handle_getter</text>
</a>
</g>
</g>
<!-- Node2 -->
<g id="node2" class="node">
<title>Node2</title>
<g id="a_node2"><a xlink:href="classelc_1_1defs_1_1base_1_1iterator__n_1_1same__base__t.html#ad70baa695182c4de433370304d500c80" target="_top" xlink:title=" ">
<polygon fill="white" stroke="#666666" points="312.5,-78 170.5,-78 170.5,-48 312.5,-48 312.5,-78"/>
<text text-anchor="start" x="178.5" y="-66" font-family="Helvetica,sans-Serif" font-size="10.00">elc::defs::base::iterator</text>
<text text-anchor="middle" x="241.5" y="-55" font-family="Helvetica,sans-Serif" font-size="10.00">_n::same_base_t::operator&#45;&gt;</text>
</a>
</g>
</g>
<!-- Node1&#45;&gt;Node2 -->
<g id="edge1" class="edge">
<title>Node1&#45;&gt;Node2</title>
<path fill="none" stroke="#63b8ff" d="M339.63,-50.36C330.57,-51.54 321.44,-52.73 312.6,-53.88"/>
<polygon fill="#63b8ff" stroke="#63b8ff" points="340.36,-53.8 349.82,-49.04 339.46,-46.86 340.36,-53.8"/>
</g>
<!-- Node4 -->
<g id="node4" class="node">
<title>Node4</title>
<g id="a_node4"><a xlink:href="classelc_1_1defs_1_1base_1_1iterator__n_1_1same__base__t.html#af84e94988c8f28e61c38763fd2939ce0" target="_top" xlink:title=" ">
<polygon fill="white" stroke="#666666" points="314,-30 169,-30 169,0 314,0 314,-30"/>
<text text-anchor="start" x="177" y="-18" font-family="Helvetica,sans-Serif" font-size="10.00">elc::defs::base::iterator</text>
<text text-anchor="middle" x="241.5" y="-7" font-family="Helvetica,sans-Serif" font-size="10.00">_n::same_base_t::operator==</text>
</a>
</g>
</g>
<!-- Node1&#45;&gt;Node4 -->
<g id="edge3" class="edge">
<title>Node1&#45;&gt;Node4</title>
<path fill="none" stroke="#63b8ff" d="M339.76,-27.65C331.15,-26.53 322.49,-25.4 314.06,-24.31"/>
<polygon fill="#63b8ff" stroke="#63b8ff" points="339.46,-31.14 349.82,-28.96 340.36,-24.2 339.46,-31.14"/>
</g>
<!-- Node3 -->
<g id="node3" class="node">
<title>Node3</title>
<g id="a_node3"><a xlink:href="classelc_1_1defs_1_1base_1_1iterator__n_1_1same__base__t.html#abaf45cebfb25a52035650dbb729f5b52" target="_top" xlink:title=" ">
<polygon fill="white" stroke="#666666" points="133,-83.5 0,-83.5 0,-42.5 133,-42.5 133,-83.5"/>
<text text-anchor="start" x="8" y="-71.5" font-family="Helvetica,sans-Serif" font-size="10.00">elc::defs::base::iterator</text>
<text text-anchor="start" x="8" y="-60.5" font-family="Helvetica,sans-Serif" font-size="10.00">_n::same_base_t::operator</text>
<text text-anchor="middle" x="66.5" y="-49.5" font-family="Helvetica,sans-Serif" font-size="10.00"> value_t *</text>
</a>
</g>
</g>
<!-- Node2&#45;&gt;Node3 -->
<g id="edge2" class="edge">
<title>Node2&#45;&gt;Node3</title>
<path fill="none" stroke="#63b8ff" d="M160,-63C150.98,-63 141.86,-63 133.06,-63"/>
<polygon fill="#63b8ff" stroke="#63b8ff" points="160.13,-66.5 170.13,-63 160.13,-59.5 160.13,-66.5"/>
</g>
</g>
</svg>
