<?xml version="1.0" encoding="UTF-8" standalone="no"?>
<!DOCTYPE svg PUBLIC "-//W3C//DTD SVG 1.1//EN"
 "http://www.w3.org/Graphics/SVG/1.1/DTD/svg11.dtd">
<!-- Generated by graphviz version 6.0.1 (20220911.1526)
 -->
<!-- Title: elc::defs::memory::ptr_n::ref_able::cut_ref Pages: 1 -->
<svg width="458pt" height="290pt"
 viewBox="0.00 0.00 458.00 289.50" xmlns="http://www.w3.org/2000/svg" xmlns:xlink="http://www.w3.org/1999/xlink">
<g id="graph0" class="graph" transform="scale(1 1) rotate(0) translate(4 285.5)">
<title>elc::defs::memory::ptr_n::ref_able::cut_ref</title>
<!-- Node1 -->
<g id="node1" class="node">
<title>Node1</title>
<g id="a_node1"><a xlink:title=" ">
<polygon fill="#999999" stroke="#666666" points="113,-149.5 0,-149.5 0,-119.5 113,-119.5 113,-149.5"/>
<text text-anchor="start" x="8" y="-137.5" font-family="Helvetica,sans-Serif" font-size="10.00">elc::defs::memory::</text>
<text text-anchor="middle" x="56.5" y="-126.5" font-family="Helvetica,sans-Serif" font-size="10.00">ptr_n::ref_able::cut_ref</text>
</a>
</g>
</g>
<!-- Node2 -->
<g id="node2" class="node">
<title>Node2</title>
<g id="a_node2"><a xlink:href="namespaceelc_1_1defs_1_1memory_1_1ptr__n.html#a04aa0fdecdbdeb4345e497919faf8c58" target="_top" xlink:title=" ">
<polygon fill="white" stroke="#666666" points="272.5,-263.5 153.5,-263.5 153.5,-233.5 272.5,-233.5 272.5,-263.5"/>
<text text-anchor="start" x="161.5" y="-251.5" font-family="Helvetica,sans-Serif" font-size="10.00">elc::defs::memory::</text>
<text text-anchor="middle" x="213" y="-240.5" font-family="Helvetica,sans-Serif" font-size="10.00">ptr_n::destroy_and_free</text>
</a>
</g>
</g>
<!-- Node1&#45;&gt;Node2 -->
<g id="edge1" class="edge">
<title>Node1&#45;&gt;Node2</title>
<path fill="none" stroke="#63b8ff" d="M69.33,-149.5C85.48,-169.12 116.18,-203.44 149,-224.5 151.45,-226.07 154.01,-227.56 156.65,-228.98"/>
<polygon fill="#63b8ff" stroke="#63b8ff" points="155.31,-232.22 165.83,-233.48 158.4,-225.93 155.31,-232.22"/>
</g>
<!-- Node4 -->
<g id="node4" class="node">
<title>Node4</title>
<g id="a_node4"><a xlink:href="namespaceelc_1_1defs_1_1base.html#ac740922dcf0e8db243d073701ef678b7" target="_top" xlink:title=" ">
<polygon fill="white" stroke="#666666" points="263,-215.5 163,-215.5 163,-185.5 263,-185.5 263,-215.5"/>
<text text-anchor="start" x="171" y="-203.5" font-family="Helvetica,sans-Serif" font-size="10.00">elc::defs::base::get</text>
<text text-anchor="middle" x="213" y="-192.5" font-family="Helvetica,sans-Serif" font-size="10.00">_handle</text>
</a>
</g>
</g>
<!-- Node1&#45;&gt;Node4 -->
<g id="edge4" class="edge">
<title>Node1&#45;&gt;Node4</title>
<path fill="none" stroke="#63b8ff" d="M89.03,-149.6C106.56,-157.84 128.85,-168.05 149,-176.5 153.12,-178.23 157.41,-179.97 161.73,-181.69"/>
<polygon fill="#63b8ff" stroke="#63b8ff" points="160.59,-185.01 171.18,-185.4 163.14,-178.49 160.59,-185.01"/>
</g>
<!-- Node5 -->
<g id="node5" class="node">
<title>Node5</title>
<g id="a_node5"><a xlink:href="namespaceelc_1_1defs_1_1memory_1_1ptr__n.html#af55bbcaa85bc26ce5dc1e1119477a9d1" target="_top" xlink:title=" ">
<polygon fill="white" stroke="#666666" points="275.5,-149.5 150.5,-149.5 150.5,-119.5 275.5,-119.5 275.5,-149.5"/>
<text text-anchor="start" x="158.5" y="-137.5" font-family="Helvetica,sans-Serif" font-size="10.00">elc::defs::memory::</text>
<text text-anchor="middle" x="213" y="-126.5" font-family="Helvetica,sans-Serif" font-size="10.00">ptr_n::get_weak_ref_num</text>
</a>
</g>
</g>
<!-- Node1&#45;&gt;Node5 -->
<g id="edge5" class="edge">
<title>Node1&#45;&gt;Node5</title>
<path fill="none" stroke="#63b8ff" d="M113.28,-134.5C122.01,-134.5 131.13,-134.5 140.16,-134.5"/>
<polygon fill="#63b8ff" stroke="#63b8ff" points="140.29,-138 150.29,-134.5 140.29,-131 140.29,-138"/>
</g>
<!-- Node6 -->
<g id="node6" class="node">
<title>Node6</title>
<g id="a_node6"><a xlink:href="namespaceelc_1_1defs_1_1base.html#add5f75cca4bdd8a249b12d840b1ff116" target="_top" xlink:title="对引用移除const">
<polygon fill="white" stroke="#666666" points="271.5,-101.5 154.5,-101.5 154.5,-71.5 271.5,-71.5 271.5,-101.5"/>
<text text-anchor="start" x="162.5" y="-89.5" font-family="Helvetica,sans-Serif" font-size="10.00">elc::defs::base::remove</text>
<text text-anchor="middle" x="213" y="-78.5" font-family="Helvetica,sans-Serif" font-size="10.00">_const</text>
</a>
</g>
</g>
<!-- Node1&#45;&gt;Node6 -->
<g id="edge7" class="edge">
<title>Node1&#45;&gt;Node6</title>
<path fill="none" stroke="#63b8ff" d="M105.96,-119.44C121.2,-114.71 138.19,-109.43 154.03,-104.51"/>
<polygon fill="#63b8ff" stroke="#63b8ff" points="155.2,-107.81 163.71,-101.5 153.12,-101.13 155.2,-107.81"/>
</g>
<!-- Node7 -->
<g id="node7" class="node">
<title>Node7</title>
<g id="a_node7"><a xlink:href="namespaceelc_1_1defs_1_1memory_1_1ptr__n.html#a908227e013454dce53a6ffad5d623f23" target="_top" xlink:title=" ">
<polygon fill="white" stroke="#666666" points="277,-35.5 149,-35.5 149,-5.5 277,-5.5 277,-35.5"/>
<text text-anchor="start" x="157" y="-23.5" font-family="Helvetica,sans-Serif" font-size="10.00">elc::defs::memory::</text>
<text text-anchor="middle" x="213" y="-12.5" font-family="Helvetica,sans-Serif" font-size="10.00">ptr_n::waiting_for_destroy</text>
</a>
</g>
</g>
<!-- Node1&#45;&gt;Node7 -->
<g id="edge8" class="edge">
<title>Node1&#45;&gt;Node7</title>
<path fill="none" stroke="#63b8ff" d="M75.75,-119.45C93.98,-104.57 122.98,-81.37 149,-62.5 158.88,-55.34 169.87,-47.85 179.88,-41.21"/>
<polygon fill="#63b8ff" stroke="#63b8ff" points="181.93,-44.05 188.36,-35.63 178.09,-38.2 181.93,-44.05"/>
</g>
<!-- Node2&#45;&gt;Node2 -->
<g id="edge2" class="edge">
<title>Node2&#45;&gt;Node2</title>
<path fill="none" stroke="#63b8ff" d="M185.49,-263.78C179.38,-272.91 188.55,-281.5 213,-281.5 227.52,-281.5 236.65,-278.47 240.39,-274.1"/>
<polygon fill="#63b8ff" stroke="#63b8ff" points="243.9,-273.81 240.51,-263.78 236.9,-273.74 243.9,-273.81"/>
</g>
<!-- Node3 -->
<g id="node3" class="node">
<title>Node3</title>
<g id="a_node3"><a xlink:href="namespaceelc_1_1defs_1_1memory_1_1ptr__n.html#a446ac9dfb360dfcd92ddac11a2797f85" target="_top" xlink:title=" ">
<polygon fill="white" stroke="#666666" points="450,-263.5 313,-263.5 313,-233.5 450,-233.5 450,-263.5"/>
<text text-anchor="start" x="321" y="-251.5" font-family="Helvetica,sans-Serif" font-size="10.00">elc::defs::memory::</text>
<text text-anchor="middle" x="381.5" y="-240.5" font-family="Helvetica,sans-Serif" font-size="10.00">ptr_n::the_destroy_and_free</text>
</a>
</g>
</g>
<!-- Node2&#45;&gt;Node3 -->
<g id="edge3" class="edge">
<title>Node2&#45;&gt;Node3</title>
<path fill="none" stroke="#63b8ff" d="M272.7,-248.5C282.46,-248.5 292.72,-248.5 302.86,-248.5"/>
<polygon fill="#63b8ff" stroke="#63b8ff" points="302.94,-252 312.94,-248.5 302.94,-245 302.94,-252"/>
</g>
<!-- Node5&#45;&gt;Node5 -->
<g id="edge6" class="edge">
<title>Node5&#45;&gt;Node5</title>
<path fill="none" stroke="#63b8ff" d="M185.49,-149.78C179.38,-158.91 188.55,-167.5 213,-167.5 227.52,-167.5 236.65,-164.47 240.39,-160.1"/>
<polygon fill="#63b8ff" stroke="#63b8ff" points="243.9,-159.81 240.51,-149.78 236.9,-159.74 243.9,-159.81"/>
</g>
<!-- Node7&#45;&gt;Node7 -->
<g id="edge10" class="edge">
<title>Node7&#45;&gt;Node7</title>
<path fill="none" stroke="#63b8ff" d="M185.49,-35.78C179.38,-44.91 188.55,-53.5 213,-53.5 227.52,-53.5 236.65,-50.47 240.39,-46.1"/>
<polygon fill="#63b8ff" stroke="#63b8ff" points="243.9,-45.81 240.51,-35.78 236.9,-45.74 243.9,-45.81"/>
</g>
<!-- Node8 -->
<g id="node8" class="node">
<title>Node8</title>
<g id="a_node8"><a xlink:href="namespaceelc_1_1defs_1_1memory_1_1ptr__n.html#aa9ba109acd601da512261699c45d1276" target="_top" xlink:title=" ">
<polygon fill="white" stroke="#666666" points="436,-41 327,-41 327,0 436,0 436,-41"/>
<text text-anchor="start" x="335" y="-29" font-family="Helvetica,sans-Serif" font-size="10.00">elc::defs::memory::</text>
<text text-anchor="start" x="335" y="-18" font-family="Helvetica,sans-Serif" font-size="10.00">ptr_n::the_waiting_for</text>
<text text-anchor="middle" x="381.5" y="-7" font-family="Helvetica,sans-Serif" font-size="10.00">_destroy</text>
</a>
</g>
</g>
<!-- Node7&#45;&gt;Node8 -->
<g id="edge9" class="edge">
<title>Node7&#45;&gt;Node8</title>
<path fill="none" stroke="#63b8ff" d="M277.42,-20.5C290.26,-20.5 303.76,-20.5 316.61,-20.5"/>
<polygon fill="#63b8ff" stroke="#63b8ff" points="316.75,-24 326.75,-20.5 316.75,-17 316.75,-24"/>
</g>
</g>
</svg>
