<?xml version="1.0" encoding="UTF-8" standalone="no"?>
<!DOCTYPE svg PUBLIC "-//W3C//DTD SVG 1.1//EN"
 "http://www.w3.org/Graphics/SVG/1.1/DTD/svg11.dtd">
<!-- Generated by graphviz version 6.0.1 (20220911.1526)
 -->
<!-- Title: elc::defs::base::function_base_n::function_data_warpper_t&lt; T, Func_t &gt; Pages: 1 -->
<svg width="295pt" height="108pt"
 viewBox="0.00 0.00 295.00 108.00" xmlns="http://www.w3.org/2000/svg" xmlns:xlink="http://www.w3.org/1999/xlink">
<g id="graph0" class="graph" transform="scale(1 1) rotate(0) translate(4 104)">
<title>elc::defs::base::function_base_n::function_data_warpper_t&lt; T, Func_t &gt;</title>
<!-- Node1 -->
<g id="node1" class="node">
<title>Node1</title>
<g id="a_node1"><a xlink:title=" ">
<polygon fill="#999999" stroke="#666666" points="123,-70 0,-70 0,-29 123,-29 123,-70"/>
<text text-anchor="start" x="8" y="-58" font-family="Helvetica,sans-Serif" font-size="10.00">elc::defs::base::function</text>
<text text-anchor="start" x="8" y="-47" font-family="Helvetica,sans-Serif" font-size="10.00">_base_n::function_data</text>
<text text-anchor="middle" x="61.5" y="-36" font-family="Helvetica,sans-Serif" font-size="10.00">_warpper_t&lt; T, Func_t &gt;</text>
</a>
</g>
</g>
<!-- Node2 -->
<g id="node2" class="node">
<title>Node2</title>
<g id="a_node2"><a xlink:href="structelc_1_1defs_1_1container_1_1function__n_1_1func__data__t_3_01_t_00_01_ret__t_07_args__t_8_8_8_08_4.html" target="_top" xlink:title=" ">
<polygon fill="white" stroke="#666666" points="282,-100 164,-100 164,-59 282,-59 282,-100"/>
<text text-anchor="start" x="172" y="-88" font-family="Helvetica,sans-Serif" font-size="10.00">elc::defs::container</text>
<text text-anchor="start" x="172" y="-77" font-family="Helvetica,sans-Serif" font-size="10.00">::function_n::func_data</text>
<text text-anchor="middle" x="223" y="-66" font-family="Helvetica,sans-Serif" font-size="10.00">_t&lt; T, Ret_t(Args_t...)&gt;</text>
</a>
</g>
</g>
<!-- Node1&#45;&gt;Node2 -->
<g id="edge1" class="edge">
<title>Node1&#45;&gt;Node2</title>
<path fill="none" stroke="#63b8ff" d="M133.34,-62.82C143.52,-64.74 153.89,-66.69 163.78,-68.55"/>
<polygon fill="#63b8ff" stroke="#63b8ff" points="133.73,-59.34 123.26,-60.93 132.44,-66.22 133.73,-59.34"/>
</g>
<!-- Node3 -->
<g id="node3" class="node">
<title>Node3</title>
<g id="a_node3"><a xlink:href="structelc_1_1defs_1_1lib__loader__n_1_1symbol__t_3_01_ret__t_07_args__t_8_8_8_08_01noexcept_07nothrow_08_4.html" target="_top" xlink:title=" ">
<polygon fill="white" stroke="#666666" points="287,-41 159,-41 159,0 287,0 287,-41"/>
<text text-anchor="start" x="167" y="-29" font-family="Helvetica,sans-Serif" font-size="10.00">elc::defs::lib_loader</text>
<text text-anchor="start" x="167" y="-18" font-family="Helvetica,sans-Serif" font-size="10.00">_n::symbol_t&lt; Ret_t(Args</text>
<text text-anchor="middle" x="223" y="-7" font-family="Helvetica,sans-Serif" font-size="10.00">_t...) noexcept(nothrow)&gt;</text>
</a>
</g>
</g>
<!-- Node1&#45;&gt;Node3 -->
<g id="edge2" class="edge">
<title>Node1&#45;&gt;Node3</title>
<path fill="none" stroke="#63b8ff" d="M133.17,-36.65C141.69,-35.1 150.36,-33.53 158.76,-32"/>
<polygon fill="#63b8ff" stroke="#63b8ff" points="132.47,-33.22 123.26,-38.45 133.72,-40.11 132.47,-33.22"/>
</g>
</g>
</svg>
