<?xml version="1.0" encoding="UTF-8" standalone="no"?>
<!DOCTYPE svg PUBLIC "-//W3C//DTD SVG 1.1//EN"
 "http://www.w3.org/Graphics/SVG/1.1/DTD/svg11.dtd">
<!-- Generated by graphviz version 6.0.1 (20220911.1526)
 -->
<!-- Title: elc::defs::memory::abstract_base_n::abstract_base_vtable Pages: 1 -->
<svg width="305pt" height="108pt"
 viewBox="0.00 0.00 305.00 108.00" xmlns="http://www.w3.org/2000/svg" xmlns:xlink="http://www.w3.org/1999/xlink">
<g id="graph0" class="graph" transform="scale(1 1) rotate(0) translate(4 104)">
<title>elc::defs::memory::abstract_base_n::abstract_base_vtable</title>
<!-- Node1 -->
<g id="node1" class="node">
<title>Node1</title>
<g id="a_node1"><a xlink:title=" ">
<polygon fill="#999999" stroke="#666666" points="130,-70 0,-70 0,-29 130,-29 130,-70"/>
<text text-anchor="start" x="8" y="-58" font-family="Helvetica,sans-Serif" font-size="10.00">elc::defs::memory::</text>
<text text-anchor="start" x="8" y="-47" font-family="Helvetica,sans-Serif" font-size="10.00">abstract_base_n::abstract</text>
<text text-anchor="middle" x="65" y="-36" font-family="Helvetica,sans-Serif" font-size="10.00">_base_vtable</text>
</a>
</g>
</g>
<!-- Node2 -->
<g id="node2" class="node">
<title>Node2</title>
<g id="a_node2"><a xlink:href="classelc_1_1defs_1_1memory_1_1abstract__base__n_1_1abstract__base.html" target="_top" xlink:title=" ">
<polygon fill="white" stroke="#666666" points="296.5,-100 166.5,-100 166.5,-59 296.5,-59 296.5,-100"/>
<text text-anchor="start" x="174.5" y="-88" font-family="Helvetica,sans-Serif" font-size="10.00">elc::defs::memory::</text>
<text text-anchor="start" x="174.5" y="-77" font-family="Helvetica,sans-Serif" font-size="10.00">abstract_base_n::abstract</text>
<text text-anchor="middle" x="231.5" y="-66" font-family="Helvetica,sans-Serif" font-size="10.00">_base&lt; T &gt;</text>
</a>
</g>
</g>
<!-- Node1&#45;&gt;Node2 -->
<g id="edge1" class="edge">
<title>Node1&#45;&gt;Node2</title>
<path fill="none" stroke="#63b8ff" d="M139.94,-62.98C148.74,-64.59 157.68,-66.22 166.33,-67.8"/>
<polygon fill="#63b8ff" stroke="#63b8ff" points="140.54,-59.54 130.07,-61.18 139.28,-66.42 140.54,-59.54"/>
</g>
<!-- Node3 -->
<g id="node3" class="node">
<title>Node3</title>
<g id="a_node3"><a xlink:href="classelc_1_1defs_1_1memory_1_1abstract__base__n_1_1instance__struct.html" target="_top" xlink:title=" ">
<polygon fill="white" stroke="#666666" points="297,-41 166,-41 166,0 297,0 297,-41"/>
<text text-anchor="start" x="174" y="-29" font-family="Helvetica,sans-Serif" font-size="10.00">elc::defs::memory::</text>
<text text-anchor="start" x="174" y="-18" font-family="Helvetica,sans-Serif" font-size="10.00">abstract_base_n::instance</text>
<text text-anchor="middle" x="231.5" y="-7" font-family="Helvetica,sans-Serif" font-size="10.00">_struct&lt; T &gt;</text>
</a>
</g>
</g>
<!-- Node1&#45;&gt;Node3 -->
<g id="edge2" class="edge">
<title>Node1&#45;&gt;Node3</title>
<path fill="none" stroke="#63b8ff" d="M140.07,-36.44C148.65,-34.93 157.35,-33.4 165.79,-31.91"/>
<polygon fill="#63b8ff" stroke="#63b8ff" points="139.31,-33.02 130.07,-38.2 140.53,-39.92 139.31,-33.02"/>
</g>
</g>
</svg>
