<?xml version="1.0" encoding="UTF-8" standalone="no"?>
<!DOCTYPE svg PUBLIC "-//W3C//DTD SVG 1.1//EN"
 "http://www.w3.org/Graphics/SVG/1.1/DTD/svg11.dtd">
<!-- Generated by graphviz version 6.0.1 (20220911.1526)
 -->
<!-- Title: elc::defs::base::iterator_n::same_base_t::swap_with Pages: 1 -->
<svg width="303pt" height="56pt"
 viewBox="0.00 0.00 303.00 56.00" xmlns="http://www.w3.org/2000/svg" xmlns:xlink="http://www.w3.org/1999/xlink">
<g id="graph0" class="graph" transform="scale(1 1) rotate(0) translate(4 52)">
<title>elc::defs::base::iterator_n::same_base_t::swap_with</title>
<!-- Node1 -->
<g id="node1" class="node">
<title>Node1</title>
<g id="a_node1"><a xlink:title=" ">
<polygon fill="#999999" stroke="#666666" points="295,-30 152,-30 152,0 295,0 295,-30"/>
<text text-anchor="start" x="160" y="-18" font-family="Helvetica,sans-Serif" font-size="10.00">elc::defs::base::iterator</text>
<text text-anchor="middle" x="223.5" y="-7" font-family="Helvetica,sans-Serif" font-size="10.00">_n::same_base_t::swap_with</text>
</a>
</g>
</g>
<!-- Node2 -->
<g id="node2" class="node">
<title>Node2</title>
<g id="a_node2"><a xlink:href="namespaceelc_1_1defs_1_1base_1_1iterator__n.html#a7c83468dadf68e32797e9993a87f4483" target="_top" xlink:title=" ">
<polygon fill="white" stroke="#666666" points="116,-30 0,-30 0,0 116,0 116,-30"/>
<text text-anchor="start" x="8" y="-18" font-family="Helvetica,sans-Serif" font-size="10.00">elc::defs::base::iterator</text>
<text text-anchor="middle" x="58" y="-7" font-family="Helvetica,sans-Serif" font-size="10.00">_n::swap</text>
</a>
</g>
</g>
<!-- Node1&#45;&gt;Node2 -->
<g id="edge1" class="edge">
<title>Node1&#45;&gt;Node2</title>
<path fill="none" stroke="#63b8ff" d="M141.64,-8.25C133.01,-8.24 124.36,-8.34 116.09,-8.53"/>
<polygon fill="#63b8ff" stroke="#63b8ff" points="141.72,-11.75 151.74,-8.3 141.76,-4.75 141.72,-11.75"/>
</g>
<!-- Node2&#45;&gt;Node1 -->
<g id="edge3" class="edge">
<title>Node2&#45;&gt;Node1</title>
<path fill="none" stroke="#63b8ff" d="M126.23,-21.65C134.64,-21.77 143.27,-21.78 151.74,-21.7"/>
<polygon fill="#63b8ff" stroke="#63b8ff" points="126.16,-18.15 116.09,-21.47 126.03,-25.15 126.16,-18.15"/>
</g>
<!-- Node2&#45;&gt;Node2 -->
<g id="edge2" class="edge">
<title>Node2&#45;&gt;Node2</title>
<path fill="none" stroke="#63b8ff" d="M86.97,-40.6C83.01,-44.97 73.35,-48 58,-48 32.14,-48 22.44,-39.41 28.91,-30.28"/>
<polygon fill="#63b8ff" stroke="#63b8ff" points="90.47,-40.32 87.09,-30.28 83.47,-40.23 90.47,-40.32"/>
</g>
</g>
</svg>
