<?xml version="1.0" encoding="UTF-8" standalone="no"?>
<!DOCTYPE svg PUBLIC "-//W3C//DTD SVG 1.1//EN"
 "http://www.w3.org/Graphics/SVG/1.1/DTD/svg11.dtd">
<!-- Generated by graphviz version 6.0.1 (20220911.1526)
 -->
<!-- Title: elc::defs::memory::abstract_base_n::instance_struct&lt; T &gt; Pages: 1 -->
<svg width="311pt" height="98pt"
 viewBox="0.00 0.00 311.00 97.50" xmlns="http://www.w3.org/2000/svg" xmlns:xlink="http://www.w3.org/1999/xlink">
<g id="graph0" class="graph" transform="scale(1 1) rotate(0) translate(4 93.5)">
<title>elc::defs::memory::abstract_base_n::instance_struct&lt; T &gt;</title>
<!-- Node1 -->
<g id="node1" class="node">
<title>Node1</title>
<g id="a_node1"><a xlink:title=" ">
<polygon fill="#999999" stroke="#666666" points="303,-68 172,-68 172,-27 303,-27 303,-68"/>
<text text-anchor="start" x="180" y="-56" font-family="Helvetica,sans-Serif" font-size="10.00">elc::defs::memory::</text>
<text text-anchor="start" x="180" y="-45" font-family="Helvetica,sans-Serif" font-size="10.00">abstract_base_n::instance</text>
<text text-anchor="middle" x="237.5" y="-34" font-family="Helvetica,sans-Serif" font-size="10.00">_struct&lt; T &gt;</text>
</a>
</g>
</g>
<!-- Node2 -->
<g id="node2" class="node">
<title>Node2</title>
<g id="a_node2"><a xlink:href="structelc_1_1defs_1_1base_1_1attribute.html" target="_top" xlink:title=" ">
<polygon fill="white" stroke="#666666" points="136,-89.5 0,-89.5 0,-59.5 136,-59.5 136,-89.5"/>
<text text-anchor="start" x="8" y="-77.5" font-family="Helvetica,sans-Serif" font-size="10.00">elc::defs::base::attribute</text>
<text text-anchor="middle" x="68" y="-66.5" font-family="Helvetica,sans-Serif" font-size="10.00">&lt; T, instance_struct&lt; T &gt; &gt;</text>
</a>
</g>
</g>
<!-- Node2&#45;&gt;Node1 -->
<g id="edge1" class="edge">
<title>Node2&#45;&gt;Node1</title>
<path fill="none" stroke="#63b8ff" d="M146.16,-62.06C154.72,-60.68 163.38,-59.29 171.77,-57.93"/>
<polygon fill="#63b8ff" stroke="#63b8ff" points="145.48,-58.63 136.16,-63.67 146.59,-65.54 145.48,-58.63"/>
</g>
<!-- Node3 -->
<g id="node3" class="node">
<title>Node3</title>
<g id="a_node3"><a xlink:href="classelc_1_1defs_1_1memory_1_1abstract__base__n_1_1abstract__base__vtable.html" target="_top" xlink:title=" ">
<polygon fill="white" stroke="#666666" points="133,-41 3,-41 3,0 133,0 133,-41"/>
<text text-anchor="start" x="11" y="-29" font-family="Helvetica,sans-Serif" font-size="10.00">elc::defs::memory::</text>
<text text-anchor="start" x="11" y="-18" font-family="Helvetica,sans-Serif" font-size="10.00">abstract_base_n::abstract</text>
<text text-anchor="middle" x="68" y="-7" font-family="Helvetica,sans-Serif" font-size="10.00">_base_vtable</text>
</a>
</g>
</g>
<!-- Node3&#45;&gt;Node1 -->
<g id="edge2" class="edge">
<title>Node3&#45;&gt;Node1</title>
<path fill="none" stroke="#63b8ff" d="M143.16,-32.45C152.72,-34 162.45,-35.56 171.84,-37.08"/>
<polygon fill="#63b8ff" stroke="#63b8ff" points="143.71,-29 133.28,-30.86 142.6,-35.91 143.71,-29"/>
</g>
</g>
</svg>
