<?xml version="1.0" encoding="UTF-8" standalone="no"?>
<!DOCTYPE svg PUBLIC "-//W3C//DTD SVG 1.1//EN"
 "http://www.w3.org/Graphics/SVG/1.1/DTD/svg11.dtd">
<!-- Generated by graphviz version 6.0.1 (20220911.1526)
 -->
<!-- Title: elc::defs::memory::abstract_base_n::instance_struct::_abstract_method_get_forward_resize_this Pages: 1 -->
<svg width="554pt" height="116pt"
 viewBox="0.00 0.00 554.00 115.50" xmlns="http://www.w3.org/2000/svg" xmlns:xlink="http://www.w3.org/1999/xlink">
<g id="graph0" class="graph" transform="scale(1 1) rotate(0) translate(4 111.5)">
<title>elc::defs::memory::abstract_base_n::instance_struct::_abstract_method_get_forward_resize_this</title>
<!-- Node1 -->
<g id="node1" class="node">
<title>Node1</title>
<g id="a_node1"><a xlink:title=" ">
<polygon fill="#999999" stroke="#666666" points="131,-82.5 0,-82.5 0,-30.5 131,-30.5 131,-82.5"/>
<text text-anchor="start" x="8" y="-70.5" font-family="Helvetica,sans-Serif" font-size="10.00">elc::defs::memory::</text>
<text text-anchor="start" x="8" y="-59.5" font-family="Helvetica,sans-Serif" font-size="10.00">abstract_base_n::instance</text>
<text text-anchor="start" x="8" y="-48.5" font-family="Helvetica,sans-Serif" font-size="10.00">_struct::_abstract_method</text>
<text text-anchor="middle" x="65.5" y="-37.5" font-family="Helvetica,sans-Serif" font-size="10.00">_get_forward_resize_this</text>
</a>
</g>
</g>
<!-- Node2 -->
<g id="node2" class="node">
<title>Node2</title>
<g id="a_node2"><a xlink:href="namespaceelc_1_1defs_1_1base.html#ac740922dcf0e8db243d073701ef678b7" target="_top" xlink:title=" ">
<polygon fill="white" stroke="#666666" points="268,-107.5 168,-107.5 168,-77.5 268,-77.5 268,-107.5"/>
<text text-anchor="start" x="176" y="-95.5" font-family="Helvetica,sans-Serif" font-size="10.00">elc::defs::base::get</text>
<text text-anchor="middle" x="218" y="-84.5" font-family="Helvetica,sans-Serif" font-size="10.00">_handle</text>
</a>
</g>
</g>
<!-- Node1&#45;&gt;Node2 -->
<g id="edge1" class="edge">
<title>Node1&#45;&gt;Node2</title>
<path fill="none" stroke="#63b8ff" d="M131.2,-71.98C140.11,-74.11 149.23,-76.29 158.03,-78.39"/>
<polygon fill="#63b8ff" stroke="#63b8ff" points="157.27,-81.81 167.81,-80.73 158.9,-75 157.27,-81.81"/>
</g>
<!-- Node3 -->
<g id="node3" class="node">
<title>Node3</title>
<g id="a_node3"><a xlink:href="namespaceelc_1_1defs_1_1memory_1_1abstract__base__n.html#ae6a6bdada85c4f349540f1b9ae8d4ef6" target="_top" xlink:title=" ">
<polygon fill="white" stroke="#666666" points="269,-41 167,-41 167,0 269,0 269,-41"/>
<text text-anchor="start" x="175" y="-29" font-family="Helvetica,sans-Serif" font-size="10.00">elc::defs::memory::</text>
<text text-anchor="start" x="175" y="-18" font-family="Helvetica,sans-Serif" font-size="10.00">abstract_base_n::is</text>
<text text-anchor="middle" x="218" y="-7" font-family="Helvetica,sans-Serif" font-size="10.00">_instance_ptr</text>
</a>
</g>
</g>
<!-- Node1&#45;&gt;Node3 -->
<g id="edge2" class="edge">
<title>Node1&#45;&gt;Node3</title>
<path fill="none" stroke="#63b8ff" d="M131.2,-41.02C139.79,-38.97 148.56,-36.87 157.07,-34.84"/>
<polygon fill="#63b8ff" stroke="#63b8ff" points="157.99,-38.21 166.9,-32.48 156.36,-31.41 157.99,-38.21"/>
</g>
<!-- Node3&#45;&gt;Node3 -->
<g id="edge5" class="edge">
<title>Node3&#45;&gt;Node3</title>
<path fill="none" stroke="#63b8ff" d="M192.82,-41.1C190.07,-50.65 198.47,-59 218,-59 229.9,-59 237.67,-55.9 241.3,-51.32"/>
<polygon fill="#63b8ff" stroke="#63b8ff" points="244.81,-51.57 243.18,-41.1 237.93,-50.3 244.81,-51.57"/>
</g>
<!-- Node4 -->
<g id="node4" class="node">
<title>Node4</title>
<g id="a_node4"><a xlink:href="namespaceelc_1_1defs_1_1base.html#a41806589ddf17cdf0a2da4977ab0dd48" target="_top" xlink:title="获取两个指针的偏移">
<polygon fill="white" stroke="#666666" points="405,-35.5 305,-35.5 305,-5.5 405,-5.5 405,-35.5"/>
<text text-anchor="start" x="313" y="-23.5" font-family="Helvetica,sans-Serif" font-size="10.00">elc::defs::base::get</text>
<text text-anchor="middle" x="355" y="-12.5" font-family="Helvetica,sans-Serif" font-size="10.00">_off_set</text>
</a>
</g>
</g>
<!-- Node3&#45;&gt;Node4 -->
<g id="edge3" class="edge">
<title>Node3&#45;&gt;Node4</title>
<path fill="none" stroke="#63b8ff" d="M269.27,-20.5C277.48,-20.5 286.05,-20.5 294.45,-20.5"/>
<polygon fill="#63b8ff" stroke="#63b8ff" points="294.59,-24 304.59,-20.5 294.59,-17 294.59,-24"/>
</g>
<!-- Node5 -->
<g id="node5" class="node">
<title>Node5</title>
<g id="a_node5"><a xlink:href="namespaceelc_1_1defs_1_1base.html#a51f0e6e825e683bbef6baeb2921de485" target="_top" xlink:title=" ">
<polygon fill="white" stroke="#666666" points="546,-35.5 441,-35.5 441,-5.5 546,-5.5 546,-35.5"/>
<text text-anchor="start" x="449" y="-23.5" font-family="Helvetica,sans-Serif" font-size="10.00">elc::defs::base::cast</text>
<text text-anchor="middle" x="493.5" y="-12.5" font-family="Helvetica,sans-Serif" font-size="10.00">_to_data</text>
</a>
</g>
</g>
<!-- Node4&#45;&gt;Node5 -->
<g id="edge4" class="edge">
<title>Node4&#45;&gt;Node5</title>
<path fill="none" stroke="#63b8ff" d="M405.28,-20.5C413.62,-20.5 422.38,-20.5 430.99,-20.5"/>
<polygon fill="#63b8ff" stroke="#63b8ff" points="430.99,-24 440.99,-20.5 430.99,-17 430.99,-24"/>
</g>
</g>
</svg>
