<?xml version="1.0" encoding="UTF-8" standalone="no"?>
<!DOCTYPE svg PUBLIC "-//W3C//DTD SVG 1.1//EN"
 "http://www.w3.org/Graphics/SVG/1.1/DTD/svg11.dtd">
<!-- Generated by graphviz version 6.0.1 (20220911.1526)
 -->
<!-- Title: elc::defs::base::build_by_get_only Pages: 1 -->
<svg width="448pt" height="891pt"
 viewBox="0.00 0.00 448.00 890.50" xmlns="http://www.w3.org/2000/svg" xmlns:xlink="http://www.w3.org/1999/xlink">
<g id="graph0" class="graph" transform="scale(1 1) rotate(0) translate(4 886.5)">
<title>elc::defs::base::build_by_get_only</title>
<!-- Node1 -->
<g id="node1" class="node">
<title>Node1</title>
<g id="a_node1"><a xlink:title=" ">
<polygon fill="#999999" stroke="#666666" points="107,-680.5 0,-680.5 0,-650.5 107,-650.5 107,-680.5"/>
<text text-anchor="start" x="8" y="-668.5" font-family="Helvetica,sans-Serif" font-size="10.00">elc::defs::base::build</text>
<text text-anchor="middle" x="53.5" y="-657.5" font-family="Helvetica,sans-Serif" font-size="10.00">_by_get_only</text>
</a>
</g>
</g>
<!-- Node2 -->
<g id="node2" class="node">
<title>Node2</title>
<g id="a_node2"><a xlink:href="structelc_1_1defs_1_1container_1_1function__n_1_1base__func__data__t_3_01_ret__t_07_args__t_8_8_8_08_4.html" target="_top" xlink:title=" ">
<polygon fill="white" stroke="#666666" points="274,-812 143,-812 143,-771 274,-771 274,-812"/>
<text text-anchor="start" x="151" y="-800" font-family="Helvetica,sans-Serif" font-size="10.00">elc::defs::container</text>
<text text-anchor="start" x="151" y="-789" font-family="Helvetica,sans-Serif" font-size="10.00">::function_n::base_func</text>
<text text-anchor="middle" x="208.5" y="-778" font-family="Helvetica,sans-Serif" font-size="10.00">_data_t&lt; Ret_t(Args_t...)&gt;</text>
</a>
</g>
</g>
<!-- Node1&#45;&gt;Node2 -->
<g id="edge1" class="edge">
<title>Node1&#45;&gt;Node2</title>
<path fill="none" stroke="#63b8ff" d="M80.87,-687.22C109.35,-710.67 154.4,-747.77 182.38,-770.81"/>
<polygon fill="#63b8ff" stroke="#63b8ff" points="82.9,-684.35 72.96,-680.7 78.45,-689.76 82.9,-684.35"/>
</g>
<!-- Node5 -->
<g id="node5" class="node">
<title>Node5</title>
<g id="a_node5"><a xlink:href="structelc_1_1defs_1_1core_1_1value_1_1base__data__t.html" target="_top" xlink:title=" ">
<polygon fill="white" stroke="#666666" points="261.5,-704.5 155.5,-704.5 155.5,-674.5 261.5,-674.5 261.5,-704.5"/>
<text text-anchor="start" x="163.5" y="-692.5" font-family="Helvetica,sans-Serif" font-size="10.00">elc::defs::core::value</text>
<text text-anchor="middle" x="208.5" y="-681.5" font-family="Helvetica,sans-Serif" font-size="10.00">::base_data_t</text>
</a>
</g>
</g>
<!-- Node1&#45;&gt;Node5 -->
<g id="edge4" class="edge">
<title>Node1&#45;&gt;Node5</title>
<path fill="none" stroke="#63b8ff" d="M117.17,-675.33C129.83,-677.32 143.01,-679.38 155.27,-681.31"/>
<polygon fill="#63b8ff" stroke="#63b8ff" points="117.58,-671.85 107.15,-673.76 116.49,-678.77 117.58,-671.85"/>
</g>
<!-- Node9 -->
<g id="node9" class="node">
<title>Node9</title>
<g id="a_node9"><a xlink:href="structelc_1_1defs_1_1lib__loader__n_1_1library__info__t.html" target="_top" xlink:title=" ">
<polygon fill="white" stroke="#666666" points="259,-656.5 158,-656.5 158,-626.5 259,-626.5 259,-656.5"/>
<text text-anchor="start" x="166" y="-644.5" font-family="Helvetica,sans-Serif" font-size="10.00">elc::defs::lib_loader</text>
<text text-anchor="middle" x="208.5" y="-633.5" font-family="Helvetica,sans-Serif" font-size="10.00">_n::library_info_t</text>
</a>
</g>
</g>
<!-- Node1&#45;&gt;Node9 -->
<g id="edge8" class="edge">
<title>Node1&#45;&gt;Node9</title>
<path fill="none" stroke="#63b8ff" d="M117.33,-655.64C130.84,-653.53 144.92,-651.32 157.84,-649.29"/>
<polygon fill="#63b8ff" stroke="#63b8ff" points="116.49,-652.23 107.15,-657.24 117.58,-659.15 116.49,-652.23"/>
</g>
<!-- Node10 -->
<g id="node10" class="node">
<title>Node10</title>
<g id="a_node10"><a xlink:href="structelc_1_1defs_1_1string__n_1_1string__data__n_1_1base__string__data__t.html" target="_top" xlink:title=" ">
<polygon fill="white" stroke="#666666" points="271,-354 146,-354 146,-313 271,-313 271,-354"/>
<text text-anchor="start" x="154" y="-342" font-family="Helvetica,sans-Serif" font-size="10.00">elc::defs::string_n</text>
<text text-anchor="start" x="154" y="-331" font-family="Helvetica,sans-Serif" font-size="10.00">::string_data_n::base</text>
<text text-anchor="middle" x="208.5" y="-320" font-family="Helvetica,sans-Serif" font-size="10.00">_string_data_t&lt; char_T &gt;</text>
</a>
</g>
</g>
<!-- Node1&#45;&gt;Node10 -->
<g id="edge9" class="edge">
<title>Node1&#45;&gt;Node10</title>
<path fill="none" stroke="#63b8ff" d="M65.68,-641.24C94.54,-578.61 171.18,-412.31 198.04,-354.03"/>
<polygon fill="#63b8ff" stroke="#63b8ff" points="62.48,-639.83 61.47,-650.37 68.84,-642.75 62.48,-639.83"/>
</g>
<!-- Node3 -->
<g id="node3" class="node">
<title>Node3</title>
<g id="a_node3"><a xlink:href="structelc_1_1defs_1_1container_1_1function__n_1_1default__func__data__t_3_01_ret__t_07_args__t_8_8_8_08_4.html" target="_top" xlink:title=" ">
<polygon fill="white" stroke="#666666" points="439,-882.5 311,-882.5 311,-830.5 439,-830.5 439,-882.5"/>
<text text-anchor="start" x="319" y="-870.5" font-family="Helvetica,sans-Serif" font-size="10.00">elc::defs::container</text>
<text text-anchor="start" x="319" y="-859.5" font-family="Helvetica,sans-Serif" font-size="10.00">::function_n::default</text>
<text text-anchor="start" x="319" y="-848.5" font-family="Helvetica,sans-Serif" font-size="10.00">_func_data_t&lt; Ret_t(Args</text>
<text text-anchor="middle" x="375" y="-837.5" font-family="Helvetica,sans-Serif" font-size="10.00">_t...)&gt;</text>
</a>
</g>
</g>
<!-- Node2&#45;&gt;Node3 -->
<g id="edge2" class="edge">
<title>Node2&#45;&gt;Node3</title>
<path fill="none" stroke="#63b8ff" d="M270.88,-815.75C283.9,-820.9 297.66,-826.34 310.75,-831.51"/>
<polygon fill="#63b8ff" stroke="#63b8ff" points="272.14,-812.49 261.55,-812.07 269.56,-819 272.14,-812.49"/>
</g>
<!-- Node4 -->
<g id="node4" class="node">
<title>Node4</title>
<g id="a_node4"><a xlink:href="structelc_1_1defs_1_1container_1_1function__n_1_1func__data__t_3_01_t_00_01_ret__t_07_args__t_8_8_8_08_4.html" target="_top" xlink:title=" ">
<polygon fill="white" stroke="#666666" points="434,-812 316,-812 316,-771 434,-771 434,-812"/>
<text text-anchor="start" x="324" y="-800" font-family="Helvetica,sans-Serif" font-size="10.00">elc::defs::container</text>
<text text-anchor="start" x="324" y="-789" font-family="Helvetica,sans-Serif" font-size="10.00">::function_n::func_data</text>
<text text-anchor="middle" x="375" y="-778" font-family="Helvetica,sans-Serif" font-size="10.00">_t&lt; T, Ret_t(Args_t...)&gt;</text>
</a>
</g>
</g>
<!-- Node2&#45;&gt;Node4 -->
<g id="edge3" class="edge">
<title>Node2&#45;&gt;Node4</title>
<path fill="none" stroke="#63b8ff" d="M284.15,-791.5C294.77,-791.5 305.55,-791.5 315.8,-791.5"/>
<polygon fill="#63b8ff" stroke="#63b8ff" points="284.04,-788 274.04,-791.5 284.04,-795 284.04,-788"/>
</g>
<!-- Node6 -->
<g id="node6" class="node">
<title>Node6</title>
<g id="a_node6"><a xlink:href="structelc_1_1defs_1_1core_1_1value_1_1constexpr__data__t.html" target="_top" xlink:title=" ">
<polygon fill="white" stroke="#666666" points="428,-752.5 322,-752.5 322,-722.5 428,-722.5 428,-752.5"/>
<text text-anchor="start" x="330" y="-740.5" font-family="Helvetica,sans-Serif" font-size="10.00">elc::defs::core::value</text>
<text text-anchor="middle" x="375" y="-729.5" font-family="Helvetica,sans-Serif" font-size="10.00">::constexpr_data_t</text>
</a>
</g>
</g>
<!-- Node5&#45;&gt;Node6 -->
<g id="edge5" class="edge">
<title>Node5&#45;&gt;Node6</title>
<path fill="none" stroke="#63b8ff" d="M270.94,-707.43C287.94,-712.39 306.22,-717.72 322.59,-722.5"/>
<polygon fill="#63b8ff" stroke="#63b8ff" points="271.68,-704 261.1,-704.56 269.72,-710.72 271.68,-704"/>
</g>
<!-- Node7 -->
<g id="node7" class="node">
<title>Node7</title>
<g id="a_node7"><a xlink:href="structelc_1_1defs_1_1core_1_1value_1_1null__data__t.html" target="_top" xlink:title=" ">
<polygon fill="white" stroke="#666666" points="428,-704.5 322,-704.5 322,-674.5 428,-674.5 428,-704.5"/>
<text text-anchor="start" x="330" y="-692.5" font-family="Helvetica,sans-Serif" font-size="10.00">elc::defs::core::value</text>
<text text-anchor="middle" x="375" y="-681.5" font-family="Helvetica,sans-Serif" font-size="10.00">::null_data_t</text>
</a>
</g>
</g>
<!-- Node5&#45;&gt;Node7 -->
<g id="edge6" class="edge">
<title>Node5&#45;&gt;Node7</title>
<path fill="none" stroke="#63b8ff" d="M271.65,-689.5C288.15,-689.5 305.81,-689.5 321.73,-689.5"/>
<polygon fill="#63b8ff" stroke="#63b8ff" points="271.55,-686 261.55,-689.5 271.55,-693 271.55,-686"/>
</g>
<!-- Node8 -->
<g id="node8" class="node">
<title>Node8</title>
<g id="a_node8"><a xlink:href="structelc_1_1defs_1_1core_1_1value_1_1variable__data__t.html" target="_top" xlink:title=" ">
<polygon fill="white" stroke="#666666" points="428,-656.5 322,-656.5 322,-626.5 428,-626.5 428,-656.5"/>
<text text-anchor="start" x="330" y="-644.5" font-family="Helvetica,sans-Serif" font-size="10.00">elc::defs::core::value</text>
<text text-anchor="middle" x="375" y="-633.5" font-family="Helvetica,sans-Serif" font-size="10.00">::variable_data_t</text>
</a>
</g>
</g>
<!-- Node5&#45;&gt;Node8 -->
<g id="edge7" class="edge">
<title>Node5&#45;&gt;Node8</title>
<path fill="none" stroke="#63b8ff" d="M270.94,-671.57C287.94,-666.61 306.22,-661.28 322.59,-656.5"/>
<polygon fill="#63b8ff" stroke="#63b8ff" points="269.72,-668.28 261.1,-674.44 271.68,-675 269.72,-668.28"/>
</g>
<!-- Node11 -->
<g id="node11" class="node">
<title>Node11</title>
<g id="a_node11"><a xlink:href="structelc_1_1defs_1_1string__n_1_1string__data__n_1_1comn__string__data__t.html" target="_top" xlink:title=" ">
<polygon fill="white" stroke="#666666" points="437.5,-608 312.5,-608 312.5,-567 437.5,-567 437.5,-608"/>
<text text-anchor="start" x="320.5" y="-596" font-family="Helvetica,sans-Serif" font-size="10.00">elc::defs::string_n</text>
<text text-anchor="start" x="320.5" y="-585" font-family="Helvetica,sans-Serif" font-size="10.00">::string_data_n::comn</text>
<text text-anchor="middle" x="375" y="-574" font-family="Helvetica,sans-Serif" font-size="10.00">_string_data_t&lt; char_T &gt;</text>
</a>
</g>
</g>
<!-- Node10&#45;&gt;Node11 -->
<g id="edge10" class="edge">
<title>Node10&#45;&gt;Node11</title>
<path fill="none" stroke="#63b8ff" d="M215.86,-364.3C227.11,-411.72 254.74,-502.95 310,-558.5 313.1,-561.61 316.59,-564.42 320.3,-566.96"/>
<polygon fill="#63b8ff" stroke="#63b8ff" points="219.22,-363.29 213.58,-354.32 212.4,-364.85 219.22,-363.29"/>
</g>
<!-- Node12 -->
<g id="node12" class="node">
<title>Node12</title>
<g id="a_node12"><a xlink:href="structelc_1_1defs_1_1string__n_1_1string__data__n_1_1constexpr__string__data__t.html" target="_top" xlink:title=" ">
<polygon fill="white" stroke="#666666" points="440,-549 310,-549 310,-508 440,-508 440,-549"/>
<text text-anchor="start" x="318" y="-537" font-family="Helvetica,sans-Serif" font-size="10.00">elc::defs::string_n</text>
<text text-anchor="start" x="318" y="-526" font-family="Helvetica,sans-Serif" font-size="10.00">::string_data_n::constexpr</text>
<text text-anchor="middle" x="375" y="-515" font-family="Helvetica,sans-Serif" font-size="10.00">_string_data_t&lt; char_T &gt;</text>
</a>
</g>
</g>
<!-- Node10&#45;&gt;Node12 -->
<g id="edge11" class="edge">
<title>Node10&#45;&gt;Node12</title>
<path fill="none" stroke="#63b8ff" d="M221.4,-363.66C236.99,-399.83 267.43,-460.33 310,-498.5 313.84,-501.94 318.14,-505.06 322.65,-507.87"/>
<polygon fill="#63b8ff" stroke="#63b8ff" points="224.5,-362.01 217.4,-354.15 218.05,-364.72 224.5,-362.01"/>
</g>
<!-- Node13 -->
<g id="node13" class="node">
<title>Node13</title>
<g id="a_node13"><a xlink:href="structelc_1_1defs_1_1string__n_1_1string__data__n_1_1end__apply__string__data__t.html" target="_top" xlink:title=" ">
<polygon fill="white" stroke="#666666" points="428.5,-489.5 321.5,-489.5 321.5,-437.5 428.5,-437.5 428.5,-489.5"/>
<text text-anchor="start" x="329.5" y="-477.5" font-family="Helvetica,sans-Serif" font-size="10.00">elc::defs::string_n</text>
<text text-anchor="start" x="329.5" y="-466.5" font-family="Helvetica,sans-Serif" font-size="10.00">::string_data_n::end</text>
<text text-anchor="start" x="329.5" y="-455.5" font-family="Helvetica,sans-Serif" font-size="10.00">_apply_string_data_t</text>
<text text-anchor="middle" x="375" y="-444.5" font-family="Helvetica,sans-Serif" font-size="10.00">&lt; char_T &gt;</text>
</a>
</g>
</g>
<!-- Node10&#45;&gt;Node13 -->
<g id="edge12" class="edge">
<title>Node10&#45;&gt;Node13</title>
<path fill="none" stroke="#63b8ff" d="M235.19,-361.36C254.57,-381.46 282.45,-408.46 310,-428.5 314.2,-431.55 318.69,-434.53 323.28,-437.37"/>
<polygon fill="#63b8ff" stroke="#63b8ff" points="237.63,-358.85 228.19,-354.03 232.56,-363.68 237.63,-358.85"/>
</g>
<!-- Node14 -->
<g id="node14" class="node">
<title>Node14</title>
<g id="a_node14"><a xlink:href="structelc_1_1defs_1_1string__n_1_1string__data__n_1_1erased__string__data__t.html" target="_top" xlink:title=" ">
<polygon fill="white" stroke="#666666" points="437.5,-419 312.5,-419 312.5,-378 437.5,-378 437.5,-419"/>
<text text-anchor="start" x="320.5" y="-407" font-family="Helvetica,sans-Serif" font-size="10.00">elc::defs::string_n</text>
<text text-anchor="start" x="320.5" y="-396" font-family="Helvetica,sans-Serif" font-size="10.00">::string_data_n::erased</text>
<text text-anchor="middle" x="375" y="-385" font-family="Helvetica,sans-Serif" font-size="10.00">_string_data_t&lt; char_T &gt;</text>
</a>
</g>
</g>
<!-- Node10&#45;&gt;Node14 -->
<g id="edge13" class="edge">
<title>Node10&#45;&gt;Node14</title>
<path fill="none" stroke="#63b8ff" d="M271.23,-357.89C287.95,-364.5 305.88,-371.58 322.01,-377.96"/>
<polygon fill="#63b8ff" stroke="#63b8ff" points="272.14,-354.49 261.55,-354.07 269.56,-361 272.14,-354.49"/>
</g>
<!-- Node15 -->
<g id="node15" class="node">
<title>Node15</title>
<g id="a_node15"><a xlink:href="structelc_1_1defs_1_1string__n_1_1string__data__n_1_1head__apply__string__data__t.html" target="_top" xlink:title=" ">
<polygon fill="white" stroke="#666666" points="431.5,-359.5 318.5,-359.5 318.5,-307.5 431.5,-307.5 431.5,-359.5"/>
<text text-anchor="start" x="326.5" y="-347.5" font-family="Helvetica,sans-Serif" font-size="10.00">elc::defs::string_n</text>
<text text-anchor="start" x="326.5" y="-336.5" font-family="Helvetica,sans-Serif" font-size="10.00">::string_data_n::head</text>
<text text-anchor="start" x="326.5" y="-325.5" font-family="Helvetica,sans-Serif" font-size="10.00">_apply_string_data_t&lt;</text>
<text text-anchor="middle" x="375" y="-314.5" font-family="Helvetica,sans-Serif" font-size="10.00"> char_T &gt;</text>
</a>
</g>
</g>
<!-- Node10&#45;&gt;Node15 -->
<g id="edge14" class="edge">
<title>Node10&#45;&gt;Node15</title>
<path fill="none" stroke="#63b8ff" d="M281.52,-333.5C293.89,-333.5 306.58,-333.5 318.44,-333.5"/>
<polygon fill="#63b8ff" stroke="#63b8ff" points="281.22,-330 271.22,-333.5 281.22,-337 281.22,-330"/>
</g>
<!-- Node16 -->
<g id="node16" class="node">
<title>Node16</title>
<g id="a_node16"><a xlink:href="structelc_1_1defs_1_1string__n_1_1string__data__n_1_1inserted__string__data__t.html" target="_top" xlink:title=" ">
<polygon fill="white" stroke="#666666" points="437.5,-289 312.5,-289 312.5,-248 437.5,-248 437.5,-289"/>
<text text-anchor="start" x="320.5" y="-277" font-family="Helvetica,sans-Serif" font-size="10.00">elc::defs::string_n</text>
<text text-anchor="start" x="320.5" y="-266" font-family="Helvetica,sans-Serif" font-size="10.00">::string_data_n::inserted</text>
<text text-anchor="middle" x="375" y="-255" font-family="Helvetica,sans-Serif" font-size="10.00">_string_data_t&lt; char_T &gt;</text>
</a>
</g>
</g>
<!-- Node10&#45;&gt;Node16 -->
<g id="edge15" class="edge">
<title>Node10&#45;&gt;Node16</title>
<path fill="none" stroke="#63b8ff" d="M271.23,-309.11C287.95,-302.5 305.88,-295.42 322.01,-289.04"/>
<polygon fill="#63b8ff" stroke="#63b8ff" points="269.56,-306 261.55,-312.93 272.14,-312.51 269.56,-306"/>
</g>
<!-- Node17 -->
<g id="node17" class="node">
<title>Node17</title>
<g id="a_node17"><a xlink:href="structelc_1_1defs_1_1string__n_1_1string__data__n_1_1null__string__data__t.html" target="_top" xlink:title=" ">
<polygon fill="white" stroke="#666666" points="437.5,-230 312.5,-230 312.5,-189 437.5,-189 437.5,-230"/>
<text text-anchor="start" x="320.5" y="-218" font-family="Helvetica,sans-Serif" font-size="10.00">elc::defs::string_n</text>
<text text-anchor="start" x="320.5" y="-207" font-family="Helvetica,sans-Serif" font-size="10.00">::string_data_n::null</text>
<text text-anchor="middle" x="375" y="-196" font-family="Helvetica,sans-Serif" font-size="10.00">_string_data_t&lt; char_T &gt;</text>
</a>
</g>
</g>
<!-- Node10&#45;&gt;Node17 -->
<g id="edge16" class="edge">
<title>Node10&#45;&gt;Node17</title>
<path fill="none" stroke="#63b8ff" d="M234.88,-305.44C254.11,-285.31 281.93,-258.5 310,-239.5 314.98,-236.13 320.4,-232.95 325.9,-230.01"/>
<polygon fill="#63b8ff" stroke="#63b8ff" points="232.26,-303.12 227.95,-312.8 237.35,-307.92 232.26,-303.12"/>
</g>
<!-- Node18 -->
<g id="node18" class="node">
<title>Node18</title>
<g id="a_node18"><a xlink:href="structelc_1_1defs_1_1string__n_1_1string__data__n_1_1same__value__compress__string__data__t.html" target="_top" xlink:title=" ">
<polygon fill="white" stroke="#666666" points="435.5,-170.5 314.5,-170.5 314.5,-118.5 435.5,-118.5 435.5,-170.5"/>
<text text-anchor="start" x="322.5" y="-158.5" font-family="Helvetica,sans-Serif" font-size="10.00">elc::defs::string_n</text>
<text text-anchor="start" x="322.5" y="-147.5" font-family="Helvetica,sans-Serif" font-size="10.00">::string_data_n::same</text>
<text text-anchor="start" x="322.5" y="-136.5" font-family="Helvetica,sans-Serif" font-size="10.00">_value_compress_string</text>
<text text-anchor="middle" x="375" y="-125.5" font-family="Helvetica,sans-Serif" font-size="10.00">_data_t&lt; char_T &gt;</text>
</a>
</g>
</g>
<!-- Node10&#45;&gt;Node18 -->
<g id="edge17" class="edge">
<title>Node10&#45;&gt;Node18</title>
<path fill="none" stroke="#63b8ff" d="M223.56,-303.75C240.42,-270.5 271.31,-216.62 310,-180.5 313.73,-177.02 317.85,-173.75 322.16,-170.71"/>
<polygon fill="#63b8ff" stroke="#63b8ff" points="220.3,-302.44 218.98,-312.95 226.57,-305.56 220.3,-302.44"/>
</g>
<!-- Node19 -->
<g id="node19" class="node">
<title>Node19</title>
<g id="a_node19"><a xlink:href="structelc_1_1defs_1_1string__n_1_1string__data__n_1_1substr__string__data__t.html" target="_top" xlink:title=" ">
<polygon fill="white" stroke="#666666" points="437.5,-100 312.5,-100 312.5,-59 437.5,-59 437.5,-100"/>
<text text-anchor="start" x="320.5" y="-88" font-family="Helvetica,sans-Serif" font-size="10.00">elc::defs::string_n</text>
<text text-anchor="start" x="320.5" y="-77" font-family="Helvetica,sans-Serif" font-size="10.00">::string_data_n::substr</text>
<text text-anchor="middle" x="375" y="-66" font-family="Helvetica,sans-Serif" font-size="10.00">_string_data_t&lt; char_T &gt;</text>
</a>
</g>
</g>
<!-- Node10&#45;&gt;Node19 -->
<g id="edge18" class="edge">
<title>Node10&#45;&gt;Node19</title>
<path fill="none" stroke="#63b8ff" d="M215.99,-302.93C227.41,-255.83 255.26,-165.16 310,-109.5 313.44,-106 317.37,-102.86 321.55,-100.06"/>
<polygon fill="#63b8ff" stroke="#63b8ff" points="212.54,-302.3 213.67,-312.83 219.35,-303.89 212.54,-302.3"/>
</g>
<!-- Node20 -->
<g id="node20" class="node">
<title>Node20</title>
<g id="a_node20"><a xlink:href="structelc_1_1defs_1_1string__n_1_1string__data__n_1_1sum__string__data__t.html" target="_top" xlink:title=" ">
<polygon fill="white" stroke="#666666" points="437.5,-41 312.5,-41 312.5,0 437.5,0 437.5,-41"/>
<text text-anchor="start" x="320.5" y="-29" font-family="Helvetica,sans-Serif" font-size="10.00">elc::defs::string_n</text>
<text text-anchor="start" x="320.5" y="-18" font-family="Helvetica,sans-Serif" font-size="10.00">::string_data_n::sum</text>
<text text-anchor="middle" x="375" y="-7" font-family="Helvetica,sans-Serif" font-size="10.00">_string_data_t&lt; char_T &gt;</text>
</a>
</g>
</g>
<!-- Node10&#45;&gt;Node20 -->
<g id="edge19" class="edge">
<title>Node10&#45;&gt;Node20</title>
<path fill="none" stroke="#63b8ff" d="M212.51,-302.68C219.59,-245.79 242.21,-123.34 310,-49.5 312.8,-46.44 315.99,-43.69 319.42,-41.21"/>
<polygon fill="#63b8ff" stroke="#63b8ff" points="209.01,-302.5 211.32,-312.84 215.96,-303.31 209.01,-302.5"/>
</g>
</g>
</svg>
