<?xml version="1.0" encoding="UTF-8" standalone="no"?>
<!DOCTYPE svg PUBLIC "-//W3C//DTD SVG 1.1//EN"
 "http://www.w3.org/Graphics/SVG/1.1/DTD/svg11.dtd">
<!-- Generated by graphviz version 6.0.1 (20220911.1526)
 -->
<!-- Title: elc::defs::memory::gc_n::gc_t::operator() Pages: 1 -->
<svg width="405pt" height="131pt"
 viewBox="0.00 0.00 405.00 130.50" xmlns="http://www.w3.org/2000/svg" xmlns:xlink="http://www.w3.org/1999/xlink">
<g id="graph0" class="graph" transform="scale(1 1) rotate(0) translate(4 126.5)">
<title>elc::defs::memory::gc_n::gc_t::operator()</title>
<!-- Node1 -->
<g id="node1" class="node">
<title>Node1</title>
<g id="a_node1"><a xlink:title=" ">
<polygon fill="#999999" stroke="#666666" points="110,-73 0,-73 0,-43 110,-43 110,-73"/>
<text text-anchor="start" x="8" y="-61" font-family="Helvetica,sans-Serif" font-size="10.00">elc::defs::memory::</text>
<text text-anchor="middle" x="55" y="-50" font-family="Helvetica,sans-Serif" font-size="10.00">gc_n::gc_t::operator()</text>
</a>
</g>
</g>
<!-- Node2 -->
<g id="node2" class="node">
<title>Node2</title>
<g id="a_node2"><a xlink:href="namespaceelc_1_1_a_p_is_1_1die.html#a28cf7600d7c7ef256be89d56df83e293" target="_top" xlink:title="同 die ，但是有详细的错误信息">
<polygon fill="white" stroke="#666666" points="264.5,-104.5 148.5,-104.5 148.5,-85.5 264.5,-85.5 264.5,-104.5"/>
<text text-anchor="middle" x="206.5" y="-92.5" font-family="Helvetica,sans-Serif" font-size="10.00">elc::APIs::die::die_with</text>
</a>
</g>
</g>
<!-- Node1&#45;&gt;Node2 -->
<g id="edge1" class="edge">
<title>Node1&#45;&gt;Node2</title>
<path fill="none" stroke="#63b8ff" d="M110.4,-71.46C125.59,-75.22 142,-79.28 156.84,-82.96"/>
<polygon fill="#63b8ff" stroke="#63b8ff" points="156.28,-86.42 166.83,-85.43 157.96,-79.63 156.28,-86.42"/>
</g>
<!-- Node4 -->
<g id="node4" class="node">
<title>Node4</title>
<g id="a_node4"><a xlink:href="classelc_1_1defs_1_1base_1_1flag.html#a276b6522d8614b03a610d6ed8640982e" target="_top" xlink:title=" ">
<polygon fill="white" stroke="#666666" points="267,-67.5 146,-67.5 146,-48.5 267,-48.5 267,-67.5"/>
<text text-anchor="middle" x="206.5" y="-55.5" font-family="Helvetica,sans-Serif" font-size="10.00">elc::defs::base::flag::set</text>
</a>
</g>
</g>
<!-- Node1&#45;&gt;Node4 -->
<g id="edge5" class="edge">
<title>Node1&#45;&gt;Node4</title>
<path fill="none" stroke="#63b8ff" d="M110.4,-58C118.59,-58 127.13,-58 135.59,-58"/>
<polygon fill="#63b8ff" stroke="#63b8ff" points="135.84,-61.5 145.84,-58 135.84,-54.5 135.84,-61.5"/>
</g>
<!-- Node5 -->
<g id="node5" class="node">
<title>Node5</title>
<g id="a_node5"><a xlink:href="classelc_1_1defs_1_1base_1_1flag.html#a52efee8cf2903f94119aafaf8f1335f4" target="_top" xlink:title=" ">
<polygon fill="white" stroke="#666666" points="257,-30 156,-30 156,0 257,0 257,-30"/>
<text text-anchor="start" x="164" y="-18" font-family="Helvetica,sans-Serif" font-size="10.00">elc::defs::base::flag</text>
<text text-anchor="middle" x="206.5" y="-7" font-family="Helvetica,sans-Serif" font-size="10.00">::unset</text>
</a>
</g>
</g>
<!-- Node1&#45;&gt;Node5 -->
<g id="edge6" class="edge">
<title>Node1&#45;&gt;Node5</title>
<path fill="none" stroke="#63b8ff" d="M108.29,-42.96C120.45,-39.46 133.48,-35.72 145.93,-32.14"/>
<polygon fill="#63b8ff" stroke="#63b8ff" points="147.11,-35.44 155.75,-29.31 145.18,-28.71 147.11,-35.44"/>
</g>
<!-- Node2&#45;&gt;Node2 -->
<g id="edge4" class="edge">
<title>Node2&#45;&gt;Node2</title>
<path fill="none" stroke="#63b8ff" d="M184.38,-104.58C173.62,-113.23 181,-122.5 206.5,-122.5 222.84,-122.5 231.74,-118.7 233.19,-113.69"/>
<polygon fill="#63b8ff" stroke="#63b8ff" points="236.23,-111.95 228.62,-104.58 229.98,-115.09 236.23,-111.95"/>
</g>
<!-- Node3 -->
<g id="node3" class="node">
<title>Node3</title>
<g id="a_node3"><a xlink:href="namespaceelc_1_1_a_p_is_1_1die.html#a3ccd3adb91ebb3e2322baf0fed97fce6" target="_top" xlink:title="终止整个程序并可能的触发断点或输出错误信息">
<polygon fill="white" stroke="#666666" points="397,-104.5 303,-104.5 303,-85.5 397,-85.5 397,-104.5"/>
<text text-anchor="middle" x="350" y="-92.5" font-family="Helvetica,sans-Serif" font-size="10.00">elc::APIs::die::die</text>
</a>
</g>
</g>
<!-- Node2&#45;&gt;Node3 -->
<g id="edge2" class="edge">
<title>Node2&#45;&gt;Node3</title>
<path fill="none" stroke="#63b8ff" d="M264.65,-95C273.9,-95 283.47,-95 292.7,-95"/>
<polygon fill="#63b8ff" stroke="#63b8ff" points="292.94,-98.5 302.94,-95 292.94,-91.5 292.94,-98.5"/>
</g>
<!-- Node3&#45;&gt;Node3 -->
<g id="edge3" class="edge">
<title>Node3&#45;&gt;Node3</title>
<path fill="none" stroke="#63b8ff" d="M327.88,-104.58C317.12,-113.23 324.5,-122.5 350,-122.5 366.34,-122.5 375.24,-118.7 376.69,-113.69"/>
<polygon fill="#63b8ff" stroke="#63b8ff" points="379.73,-111.95 372.12,-104.58 373.48,-115.09 379.73,-111.95"/>
</g>
</g>
</svg>
