<?xml version="1.0" encoding="UTF-8" standalone="no"?>
<!DOCTYPE svg PUBLIC "-//W3C//DTD SVG 1.1//EN"
 "http://www.w3.org/Graphics/SVG/1.1/DTD/svg11.dtd">
<!-- Generated by graphviz version 6.0.1 (20220911.1526)
 -->
<!-- Title: elc::defs::memory::ptr_n::weak_ref_able::cut_ref Pages: 1 -->
<svg width="442pt" height="218pt"
 viewBox="0.00 0.00 442.00 218.00" xmlns="http://www.w3.org/2000/svg" xmlns:xlink="http://www.w3.org/1999/xlink">
<g id="graph0" class="graph" transform="scale(1 1) rotate(0) translate(4 214)">
<title>elc::defs::memory::ptr_n::weak_ref_able::cut_ref</title>
<!-- Node1 -->
<g id="node1" class="node">
<title>Node1</title>
<g id="a_node1"><a xlink:title=" ">
<polygon fill="#999999" stroke="#666666" points="106,-116.5 0,-116.5 0,-75.5 106,-75.5 106,-116.5"/>
<text text-anchor="start" x="8" y="-104.5" font-family="Helvetica,sans-Serif" font-size="10.00">elc::defs::memory::</text>
<text text-anchor="start" x="8" y="-93.5" font-family="Helvetica,sans-Serif" font-size="10.00">ptr_n::weak_ref_able</text>
<text text-anchor="middle" x="53" y="-82.5" font-family="Helvetica,sans-Serif" font-size="10.00">::cut_ref</text>
</a>
</g>
</g>
<!-- Node2 -->
<g id="node2" class="node">
<title>Node2</title>
<g id="a_node2"><a xlink:href="namespaceelc_1_1defs_1_1memory_1_1ptr__n.html#a04aa0fdecdbdeb4345e497919faf8c58" target="_top" xlink:title=" ">
<polygon fill="white" stroke="#666666" points="261,-192 142,-192 142,-162 261,-162 261,-192"/>
<text text-anchor="start" x="150" y="-180" font-family="Helvetica,sans-Serif" font-size="10.00">elc::defs::memory::</text>
<text text-anchor="middle" x="201.5" y="-169" font-family="Helvetica,sans-Serif" font-size="10.00">ptr_n::destroy_and_free</text>
</a>
</g>
</g>
<!-- Node1&#45;&gt;Node2 -->
<g id="edge1" class="edge">
<title>Node1&#45;&gt;Node2</title>
<path fill="none" stroke="#63b8ff" d="M82.91,-116.67C99.7,-128.17 121.52,-142.28 142,-153 145.11,-154.63 148.35,-156.22 151.65,-157.77"/>
<polygon fill="#63b8ff" stroke="#63b8ff" points="150.47,-161.07 161.02,-161.98 153.34,-154.69 150.47,-161.07"/>
</g>
<!-- Node4 -->
<g id="node4" class="node">
<title>Node4</title>
<g id="a_node4"><a xlink:href="namespaceelc_1_1defs_1_1base.html#ac740922dcf0e8db243d073701ef678b7" target="_top" xlink:title=" ">
<polygon fill="white" stroke="#666666" points="251.5,-144 151.5,-144 151.5,-114 251.5,-114 251.5,-144"/>
<text text-anchor="start" x="159.5" y="-132" font-family="Helvetica,sans-Serif" font-size="10.00">elc::defs::base::get</text>
<text text-anchor="middle" x="201.5" y="-121" font-family="Helvetica,sans-Serif" font-size="10.00">_handle</text>
</a>
</g>
</g>
<!-- Node1&#45;&gt;Node4 -->
<g id="edge4" class="edge">
<title>Node1&#45;&gt;Node4</title>
<path fill="none" stroke="#63b8ff" d="M106.06,-107.73C117.39,-110.28 129.45,-112.99 141.03,-115.6"/>
<polygon fill="#63b8ff" stroke="#63b8ff" points="140.53,-119.08 151.06,-117.86 142.07,-112.25 140.53,-119.08"/>
</g>
<!-- Node5 -->
<g id="node5" class="node">
<title>Node5</title>
<g id="a_node5"><a xlink:href="namespaceelc_1_1defs_1_1memory_1_1ptr__n.html#a8566a7395c4f16a2426d578a2dfbe776" target="_top" xlink:title=" ">
<polygon fill="white" stroke="#666666" points="252,-78 151,-78 151,-48 252,-48 252,-78"/>
<text text-anchor="start" x="159" y="-66" font-family="Helvetica,sans-Serif" font-size="10.00">elc::defs::memory::</text>
<text text-anchor="middle" x="201.5" y="-55" font-family="Helvetica,sans-Serif" font-size="10.00">ptr_n::get_ref_num</text>
</a>
</g>
</g>
<!-- Node1&#45;&gt;Node5 -->
<g id="edge5" class="edge">
<title>Node1&#45;&gt;Node5</title>
<path fill="none" stroke="#63b8ff" d="M106.06,-84.27C117.26,-81.75 129.18,-79.07 140.64,-76.48"/>
<polygon fill="#63b8ff" stroke="#63b8ff" points="141.58,-79.86 150.57,-74.25 140.04,-73.03 141.58,-79.86"/>
</g>
<!-- Node6 -->
<g id="node6" class="node">
<title>Node6</title>
<g id="a_node6"><a xlink:href="namespaceelc_1_1defs_1_1base.html#add5f75cca4bdd8a249b12d840b1ff116" target="_top" xlink:title="对引用移除const">
<polygon fill="white" stroke="#666666" points="260,-30 143,-30 143,0 260,0 260,-30"/>
<text text-anchor="start" x="151" y="-18" font-family="Helvetica,sans-Serif" font-size="10.00">elc::defs::base::remove</text>
<text text-anchor="middle" x="201.5" y="-7" font-family="Helvetica,sans-Serif" font-size="10.00">_const</text>
</a>
</g>
</g>
<!-- Node1&#45;&gt;Node6 -->
<g id="edge7" class="edge">
<title>Node1&#45;&gt;Node6</title>
<path fill="none" stroke="#63b8ff" d="M82.91,-75.33C99.7,-63.83 121.52,-49.72 142,-39 145.11,-37.37 148.35,-35.78 151.65,-34.23"/>
<polygon fill="#63b8ff" stroke="#63b8ff" points="153.34,-37.31 161.02,-30.02 150.47,-30.93 153.34,-37.31"/>
</g>
<!-- Node2&#45;&gt;Node2 -->
<g id="edge2" class="edge">
<title>Node2&#45;&gt;Node2</title>
<path fill="none" stroke="#63b8ff" d="M175.4,-192.28C169.6,-201.41 178.3,-210 201.5,-210 215.28,-210 223.94,-206.97 227.49,-202.6"/>
<polygon fill="#63b8ff" stroke="#63b8ff" points="231,-202.31 227.6,-192.28 224,-202.24 231,-202.31"/>
</g>
<!-- Node3 -->
<g id="node3" class="node">
<title>Node3</title>
<g id="a_node3"><a xlink:href="namespaceelc_1_1defs_1_1memory_1_1ptr__n.html#a446ac9dfb360dfcd92ddac11a2797f85" target="_top" xlink:title=" ">
<polygon fill="white" stroke="#666666" points="434,-192 297,-192 297,-162 434,-162 434,-192"/>
<text text-anchor="start" x="305" y="-180" font-family="Helvetica,sans-Serif" font-size="10.00">elc::defs::memory::</text>
<text text-anchor="middle" x="365.5" y="-169" font-family="Helvetica,sans-Serif" font-size="10.00">ptr_n::the_destroy_and_free</text>
</a>
</g>
</g>
<!-- Node2&#45;&gt;Node3 -->
<g id="edge3" class="edge">
<title>Node2&#45;&gt;Node3</title>
<path fill="none" stroke="#63b8ff" d="M261.44,-177C269.61,-177 278.1,-177 286.55,-177"/>
<polygon fill="#63b8ff" stroke="#63b8ff" points="286.81,-180.5 296.81,-177 286.81,-173.5 286.81,-180.5"/>
</g>
<!-- Node5&#45;&gt;Node5 -->
<g id="edge6" class="edge">
<title>Node5&#45;&gt;Node5</title>
<path fill="none" stroke="#63b8ff" d="M175.4,-78.28C169.6,-87.41 178.3,-96 201.5,-96 215.28,-96 223.94,-92.97 227.49,-88.6"/>
<polygon fill="#63b8ff" stroke="#63b8ff" points="231,-88.31 227.6,-78.28 224,-88.24 231,-88.31"/>
</g>
</g>
</svg>
