<?xml version="1.0" encoding="UTF-8" standalone="no"?>
<!DOCTYPE svg PUBLIC "-//W3C//DTD SVG 1.1//EN"
 "http://www.w3.org/Graphics/SVG/1.1/DTD/svg11.dtd">
<!-- Generated by graphviz version 6.0.1 (20220911.1526)
 -->
<!-- Title: elc::defs::memory::ptr_n::ref_able&lt; T &gt; Pages: 1 -->
<svg width="560pt" height="218pt"
 viewBox="0.00 0.00 560.00 218.00" xmlns="http://www.w3.org/2000/svg" xmlns:xlink="http://www.w3.org/1999/xlink">
<g id="graph0" class="graph" transform="scale(1 1) rotate(0) translate(4 214)">
<title>elc::defs::memory::ptr_n::ref_able&lt; T &gt;</title>
<!-- Node1 -->
<g id="node1" class="node">
<title>Node1</title>
<g id="a_node1"><a xlink:title=" ">
<polygon fill="#999999" stroke="#666666" points="552,-84 451,-84 451,-54 552,-54 552,-84"/>
<text text-anchor="start" x="459" y="-72" font-family="Helvetica,sans-Serif" font-size="10.00">elc::defs::memory::</text>
<text text-anchor="middle" x="501.5" y="-61" font-family="Helvetica,sans-Serif" font-size="10.00">ptr_n::ref_able&lt; T &gt;</text>
</a>
</g>
</g>
<!-- Node2 -->
<g id="node2" class="node">
<title>Node2</title>
<g id="a_node2"><a xlink:href="classelc_1_1defs_1_1memory_1_1ptr__n_1_1ref__t.html" target="_top" xlink:title=" ">
<polygon fill="white" stroke="#666666" points="401.5,-138 300.5,-138 300.5,-108 401.5,-108 401.5,-138"/>
<text text-anchor="start" x="308.5" y="-126" font-family="Helvetica,sans-Serif" font-size="10.00">elc::defs::memory::</text>
<text text-anchor="middle" x="351" y="-115" font-family="Helvetica,sans-Serif" font-size="10.00">ptr_n::ref_t</text>
</a>
</g>
</g>
<!-- Node2&#45;&gt;Node1 -->
<g id="edge1" class="edge">
<title>Node2&#45;&gt;Node1</title>
<path fill="none" stroke="#63b8ff" d="M403,-104.45C421.31,-97.8 441.71,-90.38 459.1,-84.05"/>
<polygon fill="#63b8ff" stroke="#63b8ff" points="401.57,-101.25 393.37,-107.96 403.96,-107.83 401.57,-101.25"/>
</g>
<!-- Node3 -->
<g id="node3" class="node">
<title>Node3</title>
<g id="a_node3"><a xlink:href="structelc_1_1defs_1_1base_1_1non__copyable.html" target="_top" xlink:title=" ">
<polygon fill="white" stroke="#666666" points="251,-162 149,-162 149,-132 251,-132 251,-162"/>
<text text-anchor="start" x="157" y="-150" font-family="Helvetica,sans-Serif" font-size="10.00">elc::defs::base::non</text>
<text text-anchor="middle" x="200" y="-139" font-family="Helvetica,sans-Serif" font-size="10.00">_copyable</text>
</a>
</g>
</g>
<!-- Node3&#45;&gt;Node2 -->
<g id="edge2" class="edge">
<title>Node3&#45;&gt;Node2</title>
<path fill="none" stroke="#8b1a1a" d="M261.28,-137.29C274.26,-135.2 287.84,-133.01 300.36,-131"/>
<polygon fill="#8b1a1a" stroke="#8b1a1a" points="260.35,-133.9 251.03,-138.94 261.46,-140.81 260.35,-133.9"/>
</g>
<!-- Node4 -->
<g id="node4" class="node">
<title>Node4</title>
<g id="a_node4"><a xlink:href="structelc_1_1defs_1_1base_1_1non__copy__assign__able.html" target="_top" xlink:title=" ">
<polygon fill="white" stroke="#666666" points="107.5,-210 5.5,-210 5.5,-180 107.5,-180 107.5,-210"/>
<text text-anchor="start" x="13.5" y="-198" font-family="Helvetica,sans-Serif" font-size="10.00">elc::defs::base::non</text>
<text text-anchor="middle" x="56.5" y="-187" font-family="Helvetica,sans-Serif" font-size="10.00">_copy_assign_able</text>
</a>
</g>
</g>
<!-- Node4&#45;&gt;Node3 -->
<g id="edge3" class="edge">
<title>Node4&#45;&gt;Node3</title>
<path fill="none" stroke="#63b8ff" d="M111.58,-176.65C125.85,-171.81 141.09,-166.64 154.77,-162"/>
<polygon fill="#63b8ff" stroke="#63b8ff" points="110.23,-173.42 101.88,-179.94 112.48,-180.05 110.23,-173.42"/>
</g>
<!-- Node5 -->
<g id="node5" class="node">
<title>Node5</title>
<g id="a_node5"><a xlink:href="structelc_1_1defs_1_1base_1_1non__copy__construct__able.html" target="_top" xlink:title=" ">
<polygon fill="white" stroke="#666666" points="112.5,-162 0.5,-162 0.5,-132 112.5,-132 112.5,-162"/>
<text text-anchor="start" x="8.5" y="-150" font-family="Helvetica,sans-Serif" font-size="10.00">elc::defs::base::non</text>
<text text-anchor="middle" x="56.5" y="-139" font-family="Helvetica,sans-Serif" font-size="10.00">_copy_construct_able</text>
</a>
</g>
</g>
<!-- Node5&#45;&gt;Node3 -->
<g id="edge4" class="edge">
<title>Node5&#45;&gt;Node3</title>
<path fill="none" stroke="#63b8ff" d="M122.81,-147C131.57,-147 140.44,-147 148.89,-147"/>
<polygon fill="#63b8ff" stroke="#63b8ff" points="122.61,-143.5 112.61,-147 122.61,-150.5 122.61,-143.5"/>
</g>
<!-- Node6 -->
<g id="node6" class="node">
<title>Node6</title>
<g id="a_node6"><a xlink:href="structelc_1_1defs_1_1base_1_1non__moveable.html" target="_top" xlink:title=" ">
<polygon fill="white" stroke="#666666" points="251,-114 149,-114 149,-84 251,-84 251,-114"/>
<text text-anchor="start" x="157" y="-102" font-family="Helvetica,sans-Serif" font-size="10.00">elc::defs::base::non</text>
<text text-anchor="middle" x="200" y="-91" font-family="Helvetica,sans-Serif" font-size="10.00">_moveable</text>
</a>
</g>
</g>
<!-- Node6&#45;&gt;Node2 -->
<g id="edge5" class="edge">
<title>Node6&#45;&gt;Node2</title>
<path fill="none" stroke="#8b1a1a" d="M261.28,-108.71C274.26,-110.8 287.84,-112.99 300.36,-115"/>
<polygon fill="#8b1a1a" stroke="#8b1a1a" points="261.46,-105.19 251.03,-107.06 260.35,-112.1 261.46,-105.19"/>
</g>
<!-- Node7 -->
<g id="node7" class="node">
<title>Node7</title>
<g id="a_node7"><a xlink:href="structelc_1_1defs_1_1base_1_1non__move__assign__able.html" target="_top" xlink:title=" ">
<polygon fill="white" stroke="#666666" points="107.5,-114 5.5,-114 5.5,-84 107.5,-84 107.5,-114"/>
<text text-anchor="start" x="13.5" y="-102" font-family="Helvetica,sans-Serif" font-size="10.00">elc::defs::base::non</text>
<text text-anchor="middle" x="56.5" y="-91" font-family="Helvetica,sans-Serif" font-size="10.00">_move_assign_able</text>
</a>
</g>
</g>
<!-- Node7&#45;&gt;Node6 -->
<g id="edge6" class="edge">
<title>Node7&#45;&gt;Node6</title>
<path fill="none" stroke="#63b8ff" d="M117.96,-99C128.27,-99 138.87,-99 148.88,-99"/>
<polygon fill="#63b8ff" stroke="#63b8ff" points="117.79,-95.5 107.79,-99 117.79,-102.5 117.79,-95.5"/>
</g>
<!-- Node8 -->
<g id="node8" class="node">
<title>Node8</title>
<g id="a_node8"><a xlink:href="structelc_1_1defs_1_1base_1_1non__move__construct__able.html" target="_top" xlink:title=" ">
<polygon fill="white" stroke="#666666" points="113,-66 0,-66 0,-36 113,-36 113,-66"/>
<text text-anchor="start" x="8" y="-54" font-family="Helvetica,sans-Serif" font-size="10.00">elc::defs::base::non</text>
<text text-anchor="middle" x="56.5" y="-43" font-family="Helvetica,sans-Serif" font-size="10.00">_move_construct_able</text>
</a>
</g>
</g>
<!-- Node8&#45;&gt;Node6 -->
<g id="edge7" class="edge">
<title>Node8&#45;&gt;Node6</title>
<path fill="none" stroke="#63b8ff" d="M111.58,-69.35C125.85,-74.19 141.09,-79.36 154.77,-84"/>
<polygon fill="#63b8ff" stroke="#63b8ff" points="112.48,-65.95 101.88,-66.06 110.23,-72.58 112.48,-65.95"/>
</g>
<!-- Node9 -->
<g id="node9" class="node">
<title>Node9</title>
<g id="a_node9"><a xlink:href="classelc_1_1defs_1_1base_1_1null__ptr__n_1_1can__t__use__default__null__ptr.html" target="_top" xlink:title=" ">
<polygon fill="white" stroke="#666666" points="415,-89.5 287,-89.5 287,-48.5 415,-48.5 415,-89.5"/>
<text text-anchor="start" x="295" y="-77.5" font-family="Helvetica,sans-Serif" font-size="10.00">elc::defs::base::null</text>
<text text-anchor="start" x="295" y="-66.5" font-family="Helvetica,sans-Serif" font-size="10.00">_ptr_n::can_t_use_default</text>
<text text-anchor="middle" x="351" y="-55.5" font-family="Helvetica,sans-Serif" font-size="10.00">_null_ptr</text>
</a>
</g>
</g>
<!-- Node9&#45;&gt;Node1 -->
<g id="edge8" class="edge">
<title>Node9&#45;&gt;Node1</title>
<path fill="none" stroke="#63b8ff" d="M425.45,-69C434.03,-69 442.62,-69 450.77,-69"/>
<polygon fill="#63b8ff" stroke="#63b8ff" points="425.41,-65.5 415.41,-69 425.41,-72.5 425.41,-65.5"/>
</g>
<!-- Node10 -->
<g id="node10" class="node">
<title>Node10</title>
<g id="a_node10"><a xlink:href="structelc_1_1defs_1_1base_1_1attribute.html" target="_top" xlink:title=" ">
<polygon fill="white" stroke="#666666" points="412,-30 290,-30 290,0 412,0 412,-30"/>
<text text-anchor="start" x="298" y="-18" font-family="Helvetica,sans-Serif" font-size="10.00">elc::defs::base::attribute</text>
<text text-anchor="middle" x="351" y="-7" font-family="Helvetica,sans-Serif" font-size="10.00">&lt; T, ref_able&lt; T &gt; &gt;</text>
</a>
</g>
</g>
<!-- Node10&#45;&gt;Node1 -->
<g id="edge9" class="edge">
<title>Node10&#45;&gt;Node1</title>
<path fill="none" stroke="#63b8ff" d="M403,-33.55C421.31,-40.2 441.71,-47.62 459.1,-53.95"/>
<polygon fill="#63b8ff" stroke="#63b8ff" points="403.96,-30.17 393.37,-30.04 401.57,-36.75 403.96,-30.17"/>
</g>
</g>
</svg>
