<?xml version="1.0" encoding="UTF-8" standalone="no"?>
<!DOCTYPE svg PUBLIC "-//W3C//DTD SVG 1.1//EN"
 "http://www.w3.org/Graphics/SVG/1.1/DTD/svg11.dtd">
<!-- Generated by graphviz version 6.0.1 (20220911.1526)
 -->
<!-- Title: elc::defs::memory::ptr_n::ref_t Pages: 1 -->
<svg width="561pt" height="182pt"
 viewBox="0.00 0.00 561.00 182.00" xmlns="http://www.w3.org/2000/svg" xmlns:xlink="http://www.w3.org/1999/xlink">
<g id="graph0" class="graph" transform="scale(1 1) rotate(0) translate(4 178)">
<title>elc::defs::memory::ptr_n::ref_t</title>
<!-- Node1 -->
<g id="node1" class="node">
<title>Node1</title>
<g id="a_node1"><a xlink:title=" ">
<polygon fill="#999999" stroke="#666666" points="388,-102 287,-102 287,-72 388,-72 388,-102"/>
<text text-anchor="start" x="295" y="-90" font-family="Helvetica,sans-Serif" font-size="10.00">elc::defs::memory::</text>
<text text-anchor="middle" x="337.5" y="-79" font-family="Helvetica,sans-Serif" font-size="10.00">ptr_n::ref_t</text>
</a>
</g>
</g>
<!-- Node8 -->
<g id="node8" class="node">
<title>Node8</title>
<g id="a_node8"><a xlink:href="classelc_1_1defs_1_1memory_1_1ptr__n_1_1ref__able.html" target="_top" xlink:title=" ">
<polygon fill="white" stroke="#666666" points="539,-126 438,-126 438,-96 539,-96 539,-126"/>
<text text-anchor="start" x="446" y="-114" font-family="Helvetica,sans-Serif" font-size="10.00">elc::defs::memory::</text>
<text text-anchor="middle" x="488.5" y="-103" font-family="Helvetica,sans-Serif" font-size="10.00">ptr_n::ref_able&lt; T &gt;</text>
</a>
</g>
</g>
<!-- Node1&#45;&gt;Node8 -->
<g id="edge7" class="edge">
<title>Node1&#45;&gt;Node8</title>
<path fill="none" stroke="#63b8ff" d="M398.05,-96.59C411.25,-98.72 425.1,-100.95 437.85,-103"/>
<polygon fill="#63b8ff" stroke="#63b8ff" points="398.54,-93.13 388.11,-94.99 397.43,-100.04 398.54,-93.13"/>
</g>
<!-- Node9 -->
<g id="node9" class="node">
<title>Node9</title>
<g id="a_node9"><a xlink:href="classelc_1_1defs_1_1memory_1_1ptr__n_1_1weak__ref__able.html" target="_top" xlink:title=" ">
<polygon fill="white" stroke="#666666" points="553,-78 424,-78 424,-48 553,-48 553,-78"/>
<text text-anchor="start" x="432" y="-66" font-family="Helvetica,sans-Serif" font-size="10.00">elc::defs::memory::</text>
<text text-anchor="middle" x="488.5" y="-55" font-family="Helvetica,sans-Serif" font-size="10.00">ptr_n::weak_ref_able&lt; T &gt;</text>
</a>
</g>
</g>
<!-- Node1&#45;&gt;Node9 -->
<g id="edge8" class="edge">
<title>Node1&#45;&gt;Node9</title>
<path fill="none" stroke="#63b8ff" d="M398.22,-77.38C406.63,-76.03 415.3,-74.63 423.79,-73.26"/>
<polygon fill="#63b8ff" stroke="#63b8ff" points="397.43,-73.96 388.11,-79.01 398.54,-80.87 397.43,-73.96"/>
</g>
<!-- Node2 -->
<g id="node2" class="node">
<title>Node2</title>
<g id="a_node2"><a xlink:href="structelc_1_1defs_1_1base_1_1non__copyable.html" target="_top" xlink:title="禁止默认合成的复制">
<polygon fill="white" stroke="#666666" points="251,-126 149,-126 149,-96 251,-96 251,-126"/>
<text text-anchor="start" x="157" y="-114" font-family="Helvetica,sans-Serif" font-size="10.00">elc::defs::base::non</text>
<text text-anchor="middle" x="200" y="-103" font-family="Helvetica,sans-Serif" font-size="10.00">_copyable</text>
</a>
</g>
</g>
<!-- Node2&#45;&gt;Node1 -->
<g id="edge1" class="edge">
<title>Node2&#45;&gt;Node1</title>
<path fill="none" stroke="#8b1a1a" d="M261.01,-100.37C269.57,-98.85 278.3,-97.31 286.64,-95.83"/>
<polygon fill="#8b1a1a" stroke="#8b1a1a" points="260.31,-96.94 251.07,-102.13 261.53,-103.83 260.31,-96.94"/>
</g>
<!-- Node3 -->
<g id="node3" class="node">
<title>Node3</title>
<g id="a_node3"><a xlink:href="structelc_1_1defs_1_1base_1_1non__copy__assign__able.html" target="_top" xlink:title="禁止复制赋值">
<polygon fill="white" stroke="#666666" points="107.5,-174 5.5,-174 5.5,-144 107.5,-144 107.5,-174"/>
<text text-anchor="start" x="13.5" y="-162" font-family="Helvetica,sans-Serif" font-size="10.00">elc::defs::base::non</text>
<text text-anchor="middle" x="56.5" y="-151" font-family="Helvetica,sans-Serif" font-size="10.00">_copy_assign_able</text>
</a>
</g>
</g>
<!-- Node3&#45;&gt;Node2 -->
<g id="edge2" class="edge">
<title>Node3&#45;&gt;Node2</title>
<path fill="none" stroke="#63b8ff" d="M111.58,-140.65C125.85,-135.81 141.09,-130.64 154.77,-126"/>
<polygon fill="#63b8ff" stroke="#63b8ff" points="110.23,-137.42 101.88,-143.94 112.48,-144.05 110.23,-137.42"/>
</g>
<!-- Node4 -->
<g id="node4" class="node">
<title>Node4</title>
<g id="a_node4"><a xlink:href="structelc_1_1defs_1_1base_1_1non__copy__construct__able.html" target="_top" xlink:title="禁止复制构造">
<polygon fill="white" stroke="#666666" points="112.5,-126 0.5,-126 0.5,-96 112.5,-96 112.5,-126"/>
<text text-anchor="start" x="8.5" y="-114" font-family="Helvetica,sans-Serif" font-size="10.00">elc::defs::base::non</text>
<text text-anchor="middle" x="56.5" y="-103" font-family="Helvetica,sans-Serif" font-size="10.00">_copy_construct_able</text>
</a>
</g>
</g>
<!-- Node4&#45;&gt;Node2 -->
<g id="edge3" class="edge">
<title>Node4&#45;&gt;Node2</title>
<path fill="none" stroke="#63b8ff" d="M122.81,-111C131.57,-111 140.44,-111 148.89,-111"/>
<polygon fill="#63b8ff" stroke="#63b8ff" points="122.61,-107.5 112.61,-111 122.61,-114.5 122.61,-107.5"/>
</g>
<!-- Node5 -->
<g id="node5" class="node">
<title>Node5</title>
<g id="a_node5"><a xlink:href="structelc_1_1defs_1_1base_1_1non__moveable.html" target="_top" xlink:title="禁止默认合成的移动">
<polygon fill="white" stroke="#666666" points="251,-78 149,-78 149,-48 251,-48 251,-78"/>
<text text-anchor="start" x="157" y="-66" font-family="Helvetica,sans-Serif" font-size="10.00">elc::defs::base::non</text>
<text text-anchor="middle" x="200" y="-55" font-family="Helvetica,sans-Serif" font-size="10.00">_moveable</text>
</a>
</g>
</g>
<!-- Node5&#45;&gt;Node1 -->
<g id="edge4" class="edge">
<title>Node5&#45;&gt;Node1</title>
<path fill="none" stroke="#8b1a1a" d="M261.01,-73.63C269.57,-75.15 278.3,-76.69 286.64,-78.17"/>
<polygon fill="#8b1a1a" stroke="#8b1a1a" points="261.53,-70.17 251.07,-71.87 260.31,-77.06 261.53,-70.17"/>
</g>
<!-- Node6 -->
<g id="node6" class="node">
<title>Node6</title>
<g id="a_node6"><a xlink:href="structelc_1_1defs_1_1base_1_1non__move__assign__able.html" target="_top" xlink:title="禁止移动赋值">
<polygon fill="white" stroke="#666666" points="107.5,-78 5.5,-78 5.5,-48 107.5,-48 107.5,-78"/>
<text text-anchor="start" x="13.5" y="-66" font-family="Helvetica,sans-Serif" font-size="10.00">elc::defs::base::non</text>
<text text-anchor="middle" x="56.5" y="-55" font-family="Helvetica,sans-Serif" font-size="10.00">_move_assign_able</text>
</a>
</g>
</g>
<!-- Node6&#45;&gt;Node5 -->
<g id="edge5" class="edge">
<title>Node6&#45;&gt;Node5</title>
<path fill="none" stroke="#63b8ff" d="M117.96,-63C128.27,-63 138.87,-63 148.88,-63"/>
<polygon fill="#63b8ff" stroke="#63b8ff" points="117.79,-59.5 107.79,-63 117.79,-66.5 117.79,-59.5"/>
</g>
<!-- Node7 -->
<g id="node7" class="node">
<title>Node7</title>
<g id="a_node7"><a xlink:href="structelc_1_1defs_1_1base_1_1non__move__construct__able.html" target="_top" xlink:title="禁止移动构造">
<polygon fill="white" stroke="#666666" points="113,-30 0,-30 0,0 113,0 113,-30"/>
<text text-anchor="start" x="8" y="-18" font-family="Helvetica,sans-Serif" font-size="10.00">elc::defs::base::non</text>
<text text-anchor="middle" x="56.5" y="-7" font-family="Helvetica,sans-Serif" font-size="10.00">_move_construct_able</text>
</a>
</g>
</g>
<!-- Node7&#45;&gt;Node5 -->
<g id="edge6" class="edge">
<title>Node7&#45;&gt;Node5</title>
<path fill="none" stroke="#63b8ff" d="M111.58,-33.35C125.85,-38.19 141.09,-43.36 154.77,-48"/>
<polygon fill="#63b8ff" stroke="#63b8ff" points="112.48,-29.95 101.88,-30.06 110.23,-36.58 112.48,-29.95"/>
</g>
</g>
</svg>
