<?xml version="1.0" encoding="UTF-8" standalone="no"?>
<!DOCTYPE svg PUBLIC "-//W3C//DTD SVG 1.1//EN"
 "http://www.w3.org/Graphics/SVG/1.1/DTD/svg11.dtd">
<!-- Generated by graphviz version 6.0.1 (20220911.1526)
 -->
<!-- Title: elc::defs::memory::ptr_n::ref_t::cut_ref Pages: 1 -->
<svg width="258pt" height="98pt"
 viewBox="0.00 0.00 258.00 97.50" xmlns="http://www.w3.org/2000/svg" xmlns:xlink="http://www.w3.org/1999/xlink">
<g id="graph0" class="graph" transform="scale(1 1) rotate(0) translate(4 93.5)">
<title>elc::defs::memory::ptr_n::ref_t::cut_ref</title>
<!-- Node1 -->
<g id="node1" class="node">
<title>Node1</title>
<g id="a_node1"><a xlink:title=" ">
<polygon fill="#999999" stroke="#666666" points="250,-62.5 149,-62.5 149,-32.5 250,-32.5 250,-62.5"/>
<text text-anchor="start" x="157" y="-50.5" font-family="Helvetica,sans-Serif" font-size="10.00">elc::defs::memory::</text>
<text text-anchor="middle" x="199.5" y="-39.5" font-family="Helvetica,sans-Serif" font-size="10.00">ptr_n::ref_t::cut_ref</text>
</a>
</g>
</g>
<!-- Node2 -->
<g id="node2" class="node">
<title>Node2</title>
<g id="a_node2"><a xlink:href="classelc_1_1defs_1_1memory_1_1ptr__n_1_1ref__able.html#aab6ab1fd7cbc58ee035cc32cdf4c3ce8" target="_top" xlink:title=" ">
<polygon fill="white" stroke="#666666" points="113,-89.5 0,-89.5 0,-59.5 113,-59.5 113,-89.5"/>
<text text-anchor="start" x="8" y="-77.5" font-family="Helvetica,sans-Serif" font-size="10.00">elc::defs::memory::</text>
<text text-anchor="middle" x="56.5" y="-66.5" font-family="Helvetica,sans-Serif" font-size="10.00">ptr_n::ref_able::cut_ref</text>
</a>
</g>
</g>
<!-- Node1&#45;&gt;Node2 -->
<g id="edge1" class="edge">
<title>Node1&#45;&gt;Node2</title>
<path fill="none" stroke="#63b8ff" d="M138.86,-58.92C130.29,-60.56 121.49,-62.25 113.01,-63.87"/>
<polygon fill="#63b8ff" stroke="#63b8ff" points="139.63,-62.34 148.79,-57.02 138.31,-55.46 139.63,-62.34"/>
</g>
<!-- Node3 -->
<g id="node3" class="node">
<title>Node3</title>
<g id="a_node3"><a xlink:href="classelc_1_1defs_1_1memory_1_1ptr__n_1_1weak__ref__able.html#afcc5b368d2311432001af6a1d3d4085c" target="_top" xlink:title=" ">
<polygon fill="white" stroke="#666666" points="109.5,-41 3.5,-41 3.5,0 109.5,0 109.5,-41"/>
<text text-anchor="start" x="11.5" y="-29" font-family="Helvetica,sans-Serif" font-size="10.00">elc::defs::memory::</text>
<text text-anchor="start" x="11.5" y="-18" font-family="Helvetica,sans-Serif" font-size="10.00">ptr_n::weak_ref_able</text>
<text text-anchor="middle" x="56.5" y="-7" font-family="Helvetica,sans-Serif" font-size="10.00">::cut_ref</text>
</a>
</g>
</g>
<!-- Node1&#45;&gt;Node3 -->
<g id="edge2" class="edge">
<title>Node1&#45;&gt;Node3</title>
<path fill="none" stroke="#63b8ff" d="M138.81,-36.07C129.11,-34.21 119.13,-32.3 109.63,-30.48"/>
<polygon fill="#63b8ff" stroke="#63b8ff" points="138.31,-39.54 148.79,-37.98 139.63,-32.66 138.31,-39.54"/>
</g>
</g>
</svg>
