<?xml version="1.0" encoding="UTF-8" standalone="no"?>
<!DOCTYPE svg PUBLIC "-//W3C//DTD SVG 1.1//EN"
 "http://www.w3.org/Graphics/SVG/1.1/DTD/svg11.dtd">
<!-- Generated by graphviz version 6.0.1 (20220911.1526)
 -->
<!-- Title: elc::defs::base::iterator_n::same_base_t::operator== Pages: 1 -->
<svg width="441pt" height="38pt"
 viewBox="0.00 0.00 441.00 38.00" xmlns="http://www.w3.org/2000/svg" xmlns:xlink="http://www.w3.org/1999/xlink">
<g id="graph0" class="graph" transform="scale(1 1) rotate(0) translate(4 34)">
<title>elc::defs::base::iterator_n::same_base_t::operator==</title>
<!-- Node1 -->
<g id="node1" class="node">
<title>Node1</title>
<g id="a_node1"><a xlink:title=" ">
<polygon fill="#999999" stroke="#666666" points="145,-30 0,-30 0,0 145,0 145,-30"/>
<text text-anchor="start" x="8" y="-18" font-family="Helvetica,sans-Serif" font-size="10.00">elc::defs::base::iterator</text>
<text text-anchor="middle" x="72.5" y="-7" font-family="Helvetica,sans-Serif" font-size="10.00">_n::same_base_t::operator==</text>
</a>
</g>
</g>
<!-- Node2 -->
<g id="node2" class="node">
<title>Node2</title>
<g id="a_node2"><a xlink:href="namespaceelc_1_1defs_1_1base.html#a7d7867f29ab0c6027c3d983f5f249fa0" target="_top" xlink:title="指针比较的重载接口，允许类对此进行自定义 elc内部的指针比较应当视情况使用默认配置或此重载接口">
<polygon fill="white" stroke="#666666" points="297,-30 181,-30 181,0 297,0 297,-30"/>
<text text-anchor="start" x="189" y="-18" font-family="Helvetica,sans-Serif" font-size="10.00">elc::defs::base::pointer</text>
<text text-anchor="middle" x="239" y="-7" font-family="Helvetica,sans-Serif" font-size="10.00">_equal</text>
</a>
</g>
</g>
<!-- Node1&#45;&gt;Node2 -->
<g id="edge1" class="edge">
<title>Node1&#45;&gt;Node2</title>
<path fill="none" stroke="#63b8ff" d="M145.17,-15C153.67,-15 162.32,-15 170.75,-15"/>
<polygon fill="#63b8ff" stroke="#63b8ff" points="170.9,-18.5 180.9,-15 170.9,-11.5 170.9,-18.5"/>
</g>
<!-- Node3 -->
<g id="node3" class="node">
<title>Node3</title>
<g id="a_node3"><a xlink:href="namespaceelc_1_1defs_1_1base.html#adbc7bf5e482480d8dd0fe0ac40dbccea" target="_top" xlink:title=" ">
<polygon fill="white" stroke="#666666" points="433,-30 333,-30 333,0 433,0 433,-30"/>
<text text-anchor="start" x="341" y="-18" font-family="Helvetica,sans-Serif" font-size="10.00">elc::defs::base::the</text>
<text text-anchor="middle" x="383" y="-7" font-family="Helvetica,sans-Serif" font-size="10.00">_pointer_equal</text>
</a>
</g>
</g>
<!-- Node2&#45;&gt;Node3 -->
<g id="edge2" class="edge">
<title>Node2&#45;&gt;Node3</title>
<path fill="none" stroke="#63b8ff" d="M297.35,-15C305.67,-15 314.24,-15 322.6,-15"/>
<polygon fill="#63b8ff" stroke="#63b8ff" points="322.65,-18.5 332.65,-15 322.65,-11.5 322.65,-18.5"/>
</g>
</g>
</svg>
