<?xml version="1.0" encoding="UTF-8" standalone="no"?>
<!DOCTYPE svg PUBLIC "-//W3C//DTD SVG 1.1//EN"
 "http://www.w3.org/Graphics/SVG/1.1/DTD/svg11.dtd">
<!-- Generated by graphviz version 6.0.1 (20220911.1526)
 -->
<!-- Title: elc::defs::memory::gc_n::gc_t::operator() Pages: 1 -->
<svg width="420pt" height="98pt"
 viewBox="0.00 0.00 420.00 97.50" xmlns="http://www.w3.org/2000/svg" xmlns:xlink="http://www.w3.org/1999/xlink">
<g id="graph0" class="graph" transform="scale(1 1) rotate(0) translate(4 93.5)">
<title>elc::defs::memory::gc_n::gc_t::operator()</title>
<!-- Node1 -->
<g id="node1" class="node">
<title>Node1</title>
<g id="a_node1"><a xlink:title=" ">
<polygon fill="#999999" stroke="#666666" points="412,-62.5 302,-62.5 302,-32.5 412,-32.5 412,-62.5"/>
<text text-anchor="start" x="310" y="-50.5" font-family="Helvetica,sans-Serif" font-size="10.00">elc::defs::memory::</text>
<text text-anchor="middle" x="357" y="-39.5" font-family="Helvetica,sans-Serif" font-size="10.00">gc_n::gc_t::operator()</text>
</a>
</g>
</g>
<!-- Node2 -->
<g id="node2" class="node">
<title>Node2</title>
<g id="a_node2"><a xlink:href="namespaceelc_1_1defs_1_1memory_1_1gc__n.html#aa5c109eeeee57a3082468528e936ccc6" target="_top" xlink:title="当alloc失败时调用此函数">
<polygon fill="white" stroke="#666666" points="266,-62.5 165,-62.5 165,-32.5 266,-32.5 266,-62.5"/>
<text text-anchor="start" x="173" y="-50.5" font-family="Helvetica,sans-Serif" font-size="10.00">elc::defs::memory::</text>
<text text-anchor="middle" x="215.5" y="-39.5" font-family="Helvetica,sans-Serif" font-size="10.00">gc_n::gc_for_alloc</text>
</a>
</g>
</g>
<!-- Node1&#45;&gt;Node2 -->
<g id="edge1" class="edge">
<title>Node1&#45;&gt;Node2</title>
<path fill="none" stroke="#63b8ff" d="M291.46,-47.5C283.03,-47.5 274.5,-47.5 266.36,-47.5"/>
<polygon fill="#63b8ff" stroke="#63b8ff" points="291.67,-51 301.67,-47.5 291.67,-44 291.67,-51"/>
</g>
<!-- Node3 -->
<g id="node3" class="node">
<title>Node3</title>
<g id="a_node3"><a xlink:href="structelc_1_1defs_1_1memory_1_1alloc__n_1_1alloc__t.html#ad01c83e0eb55b0f2fad5f72d06356b53" target="_top" xlink:title=" ">
<polygon fill="white" stroke="#666666" points="129,-89.5 0,-89.5 0,-59.5 129,-59.5 129,-89.5"/>
<text text-anchor="start" x="8" y="-77.5" font-family="Helvetica,sans-Serif" font-size="10.00">elc::defs::memory::</text>
<text text-anchor="middle" x="64.5" y="-66.5" font-family="Helvetica,sans-Serif" font-size="10.00">alloc_n::alloc_t::base_call</text>
</a>
</g>
</g>
<!-- Node2&#45;&gt;Node3 -->
<g id="edge2" class="edge">
<title>Node2&#45;&gt;Node3</title>
<path fill="none" stroke="#63b8ff" d="M154.78,-58.32C146.37,-59.85 137.7,-61.42 129.21,-62.96"/>
<polygon fill="#63b8ff" stroke="#63b8ff" points="155.67,-61.72 164.89,-56.49 154.42,-54.83 155.67,-61.72"/>
</g>
<!-- Node4 -->
<g id="node4" class="node">
<title>Node4</title>
<g id="a_node4"><a xlink:href="structelc_1_1defs_1_1memory_1_1alloc__n_1_1realloc__t.html#ab35cc10ddea3aee0bdc984f597ce5c91" target="_top" xlink:title=" ">
<polygon fill="white" stroke="#666666" points="115,-41 14,-41 14,0 115,0 115,-41"/>
<text text-anchor="start" x="22" y="-29" font-family="Helvetica,sans-Serif" font-size="10.00">elc::defs::memory::</text>
<text text-anchor="start" x="22" y="-18" font-family="Helvetica,sans-Serif" font-size="10.00">alloc_n::realloc_t::</text>
<text text-anchor="middle" x="64.5" y="-7" font-family="Helvetica,sans-Serif" font-size="10.00">base_call</text>
</a>
</g>
</g>
<!-- Node2&#45;&gt;Node4 -->
<g id="edge3" class="edge">
<title>Node2&#45;&gt;Node4</title>
<path fill="none" stroke="#63b8ff" d="M154.95,-36.71C141.75,-34.32 127.9,-31.81 115.15,-29.5"/>
<polygon fill="#63b8ff" stroke="#63b8ff" points="154.42,-40.17 164.89,-38.51 155.67,-33.28 154.42,-40.17"/>
</g>
</g>
</svg>
