<?xml version="1.0" encoding="UTF-8" standalone="no"?>
<!DOCTYPE svg PUBLIC "-//W3C//DTD SVG 1.1//EN"
 "http://www.w3.org/Graphics/SVG/1.1/DTD/svg11.dtd">
<!-- Generated by graphviz version 6.0.1 (20220911.1526)
 -->
<!-- Title: elc::defs::base::magic_number::rot_iterator::operator&#45;&#45; Pages: 1 -->
<svg width="292pt" height="98pt"
 viewBox="0.00 0.00 292.00 97.50" xmlns="http://www.w3.org/2000/svg" xmlns:xlink="http://www.w3.org/1999/xlink">
<g id="graph0" class="graph" transform="scale(1 1) rotate(0) translate(4 93.5)">
<title>elc::defs::base::magic_number::rot_iterator::operator&#45;&#45;</title>
<!-- Node1 -->
<g id="node1" class="node">
<title>Node1</title>
<g id="a_node1"><a xlink:title=" ">
<polygon fill="#999999" stroke="#666666" points="284,-68 171,-68 171,-27 284,-27 284,-68"/>
<text text-anchor="start" x="179" y="-56" font-family="Helvetica,sans-Serif" font-size="10.00">elc::defs::base::magic</text>
<text text-anchor="start" x="179" y="-45" font-family="Helvetica,sans-Serif" font-size="10.00">_number::rot_iterator</text>
<text text-anchor="middle" x="227.5" y="-34" font-family="Helvetica,sans-Serif" font-size="10.00">::operator&#45;&#45;</text>
</a>
</g>
</g>
<!-- Node2 -->
<g id="node2" class="node">
<title>Node2</title>
<g id="a_node2"><a xlink:href="structelc_1_1defs_1_1base_1_1hash__n_1_1hash__t.html#a18784e375870a71e1e24b861a6834190" target="_top" xlink:title="计算此hash重复N次的数组的hash结果">
<polygon fill="white" stroke="#666666" points="130,-89.5 5,-89.5 5,-59.5 130,-59.5 130,-89.5"/>
<text text-anchor="start" x="13" y="-77.5" font-family="Helvetica,sans-Serif" font-size="10.00">elc::defs::base::hash</text>
<text text-anchor="middle" x="67.5" y="-66.5" font-family="Helvetica,sans-Serif" font-size="10.00">_n::hash_t::repeat_times</text>
</a>
</g>
</g>
<!-- Node1&#45;&gt;Node2 -->
<g id="edge1" class="edge">
<title>Node1&#45;&gt;Node2</title>
<path fill="none" stroke="#63b8ff" d="M160.78,-58.73C150.64,-60.46 140.2,-62.25 130.16,-63.96"/>
<polygon fill="#63b8ff" stroke="#63b8ff" points="161.53,-62.15 170.8,-57.02 160.35,-55.25 161.53,-62.15"/>
</g>
<!-- Node3 -->
<g id="node3" class="node">
<title>Node3</title>
<g id="a_node3"><a xlink:href="structelc_1_1defs_1_1base_1_1hash__n_1_1hash__t.html#a317acc07f3acd46081d0f4602f73388a" target="_top" xlink:title="从某个起始点算起的hash">
<polygon fill="white" stroke="#666666" points="135,-41 0,-41 0,0 135,0 135,-41"/>
<text text-anchor="start" x="8" y="-29" font-family="Helvetica,sans-Serif" font-size="10.00">elc::defs::base::hash</text>
<text text-anchor="start" x="8" y="-18" font-family="Helvetica,sans-Serif" font-size="10.00">_n::hash_t::with_calculated</text>
<text text-anchor="middle" x="67.5" y="-7" font-family="Helvetica,sans-Serif" font-size="10.00">_before</text>
</a>
</g>
</g>
<!-- Node1&#45;&gt;Node3 -->
<g id="edge2" class="edge">
<title>Node1&#45;&gt;Node3</title>
<path fill="none" stroke="#63b8ff" d="M160.9,-36.29C152.37,-34.83 143.62,-33.34 135.07,-31.88"/>
<polygon fill="#63b8ff" stroke="#63b8ff" points="160.35,-39.75 170.8,-37.98 161.53,-32.85 160.35,-39.75"/>
</g>
</g>
</svg>
