<?xml version="1.0" encoding="UTF-8" standalone="no"?>
<!DOCTYPE svg PUBLIC "-//W3C//DTD SVG 1.1//EN"
 "http://www.w3.org/Graphics/SVG/1.1/DTD/svg11.dtd">
<!-- Generated by graphviz version 6.0.1 (20220911.1526)
 -->
<!-- Title: elc::defs::base::iterator_n::same_base_t::swap_with Pages: 1 -->
<svg width="303pt" height="56pt"
 viewBox="0.00 0.00 303.00 56.00" xmlns="http://www.w3.org/2000/svg" xmlns:xlink="http://www.w3.org/1999/xlink">
<g id="graph0" class="graph" transform="scale(1 1) rotate(0) translate(4 52)">
<title>elc::defs::base::iterator_n::same_base_t::swap_with</title>
<!-- Node1 -->
<g id="node1" class="node">
<title>Node1</title>
<g id="a_node1"><a xlink:title=" ">
<polygon fill="#999999" stroke="#666666" points="143,-30 0,-30 0,0 143,0 143,-30"/>
<text text-anchor="start" x="8" y="-18" font-family="Helvetica,sans-Serif" font-size="10.00">elc::defs::base::iterator</text>
<text text-anchor="middle" x="71.5" y="-7" font-family="Helvetica,sans-Serif" font-size="10.00">_n::same_base_t::swap_with</text>
</a>
</g>
</g>
<!-- Node2 -->
<g id="node2" class="node">
<title>Node2</title>
<g id="a_node2"><a xlink:href="namespaceelc_1_1defs_1_1base_1_1iterator__n.html#a7c83468dadf68e32797e9993a87f4483" target="_top" xlink:title=" ">
<polygon fill="white" stroke="#666666" points="295,-30 179,-30 179,0 295,0 295,-30"/>
<text text-anchor="start" x="187" y="-18" font-family="Helvetica,sans-Serif" font-size="10.00">elc::defs::base::iterator</text>
<text text-anchor="middle" x="237" y="-7" font-family="Helvetica,sans-Serif" font-size="10.00">_n::swap</text>
</a>
</g>
</g>
<!-- Node1&#45;&gt;Node2 -->
<g id="edge1" class="edge">
<title>Node1&#45;&gt;Node2</title>
<path fill="none" stroke="#63b8ff" d="M143.26,-8.3C151.73,-8.22 160.36,-8.23 168.77,-8.35"/>
<polygon fill="#63b8ff" stroke="#63b8ff" points="168.84,-11.85 178.91,-8.53 168.97,-4.85 168.84,-11.85"/>
</g>
<!-- Node2&#45;&gt;Node1 -->
<g id="edge3" class="edge">
<title>Node2&#45;&gt;Node1</title>
<path fill="none" stroke="#63b8ff" d="M178.91,-21.47C170.64,-21.66 161.99,-21.76 153.36,-21.75"/>
<polygon fill="#63b8ff" stroke="#63b8ff" points="153.28,-18.25 143.26,-21.7 153.24,-25.25 153.28,-18.25"/>
</g>
<!-- Node2&#45;&gt;Node2 -->
<g id="edge2" class="edge">
<title>Node2&#45;&gt;Node2</title>
<path fill="none" stroke="#63b8ff" d="M207.91,-30.28C201.44,-39.41 211.14,-48 237,-48 252.35,-48 262.01,-44.97 265.97,-40.6"/>
<polygon fill="#63b8ff" stroke="#63b8ff" points="269.47,-40.32 266.09,-30.28 262.47,-40.23 269.47,-40.32"/>
</g>
</g>
</svg>
