<?xml version="1.0" encoding="UTF-8" standalone="no"?>
<!DOCTYPE svg PUBLIC "-//W3C//DTD SVG 1.1//EN"
 "http://www.w3.org/Graphics/SVG/1.1/DTD/svg11.dtd">
<!-- Generated by graphviz version 6.0.1 (20220911.1526)
 -->
<!-- Title: elc::defs::string_n::string_t::floating_arec_t::operator= Pages: 1 -->
<svg width="238pt" height="86pt"
 viewBox="0.00 0.00 238.00 86.00" xmlns="http://www.w3.org/2000/svg" xmlns:xlink="http://www.w3.org/1999/xlink">
<g id="graph0" class="graph" transform="scale(1 1) rotate(0) translate(4 82)">
<title>elc::defs::string_n::string_t::floating_arec_t::operator=</title>
<!-- Node1 -->
<g id="node1" class="node">
<title>Node1</title>
<g id="a_node1"><a xlink:title=" ">
<polygon fill="#999999" stroke="#666666" points="96,-59.5 0,-59.5 0,-18.5 96,-18.5 96,-59.5"/>
<text text-anchor="start" x="8" y="-47.5" font-family="Helvetica,sans-Serif" font-size="10.00">elc::defs::string_n</text>
<text text-anchor="start" x="8" y="-36.5" font-family="Helvetica,sans-Serif" font-size="10.00">::string_t::floating</text>
<text text-anchor="middle" x="48" y="-25.5" font-family="Helvetica,sans-Serif" font-size="10.00">_arec_t::operator=</text>
</a>
</g>
</g>
<!-- Node2 -->
<g id="node2" class="node">
<title>Node2</title>
<g id="a_node2"><a xlink:href="structelc_1_1defs_1_1string__n_1_1string__t.html#aad428919a71d0a3caee28a4b1eb9f014" target="_top" xlink:title=" ">
<polygon fill="white" stroke="#666666" points="228,-78 134,-78 134,-48 228,-48 228,-78"/>
<text text-anchor="start" x="142" y="-66" font-family="Helvetica,sans-Serif" font-size="10.00">elc::defs::string_n</text>
<text text-anchor="middle" x="181" y="-55" font-family="Helvetica,sans-Serif" font-size="10.00">::string_t::arec</text>
</a>
</g>
</g>
<!-- Node1&#45;&gt;Node2 -->
<g id="edge1" class="edge">
<title>Node1&#45;&gt;Node2</title>
<path fill="none" stroke="#63b8ff" d="M96.29,-47.66C105.13,-49.28 114.45,-50.99 123.54,-52.66"/>
<polygon fill="#63b8ff" stroke="#63b8ff" points="123.19,-56.15 133.65,-54.51 124.45,-49.26 123.19,-56.15"/>
</g>
<!-- Node3 -->
<g id="node3" class="node">
<title>Node3</title>
<g id="a_node3"><a xlink:href="structelc_1_1defs_1_1string__n_1_1string__t.html#a0608db7f8ad7381f67a80cea42663fdf" target="_top" xlink:title=" ">
<polygon fill="white" stroke="#666666" points="230,-30 132,-30 132,0 230,0 230,-30"/>
<text text-anchor="start" x="140" y="-18" font-family="Helvetica,sans-Serif" font-size="10.00">elc::defs::string_n</text>
<text text-anchor="middle" x="181" y="-7" font-family="Helvetica,sans-Serif" font-size="10.00">::string_t::arec_set</text>
</a>
</g>
</g>
<!-- Node1&#45;&gt;Node3 -->
<g id="edge2" class="edge">
<title>Node1&#45;&gt;Node3</title>
<path fill="none" stroke="#63b8ff" d="M96.29,-30.34C104.62,-28.81 113.37,-27.21 121.94,-25.64"/>
<polygon fill="#63b8ff" stroke="#63b8ff" points="122.69,-29.06 131.89,-23.81 121.43,-22.17 122.69,-29.06"/>
</g>
</g>
</svg>
