<?xml version="1.0" encoding="UTF-8" standalone="no"?>
<!DOCTYPE svg PUBLIC "-//W3C//DTD SVG 1.1//EN"
 "http://www.w3.org/Graphics/SVG/1.1/DTD/svg11.dtd">
<!-- Generated by graphviz version 6.0.1 (20220911.1526)
 -->
<!-- Title: elc::defs::container::stack_n::base_stack_t::add Pages: 1 -->
<svg width="299pt" height="98pt"
 viewBox="0.00 0.00 299.00 97.50" xmlns="http://www.w3.org/2000/svg" xmlns:xlink="http://www.w3.org/1999/xlink">
<g id="graph0" class="graph" transform="scale(1 1) rotate(0) translate(4 93.5)">
<title>elc::defs::container::stack_n::base_stack_t::add</title>
<!-- Node1 -->
<g id="node1" class="node">
<title>Node1</title>
<g id="a_node1"><a xlink:title=" ">
<polygon fill="#999999" stroke="#666666" points="291,-68 178,-68 178,-27 291,-27 291,-68"/>
<text text-anchor="start" x="186" y="-56" font-family="Helvetica,sans-Serif" font-size="10.00">elc::defs::container</text>
<text text-anchor="start" x="186" y="-45" font-family="Helvetica,sans-Serif" font-size="10.00">::stack_n::base_stack</text>
<text text-anchor="middle" x="234.5" y="-34" font-family="Helvetica,sans-Serif" font-size="10.00">_t::add</text>
</a>
</g>
</g>
<!-- Node2 -->
<g id="node2" class="node">
<title>Node2</title>
<g id="a_node2"><a xlink:href="classelc_1_1defs_1_1memory_1_1gc__n_1_1gc__t.html#a7a44580958d533ac6876ca7637edcc14" target="_top" xlink:title=" ">
<polygon fill="white" stroke="#666666" points="139.5,-89.5 2.5,-89.5 2.5,-59.5 139.5,-59.5 139.5,-89.5"/>
<text text-anchor="start" x="10.5" y="-77.5" font-family="Helvetica,sans-Serif" font-size="10.00">elc::defs::memory::</text>
<text text-anchor="middle" x="71" y="-66.5" font-family="Helvetica,sans-Serif" font-size="10.00">gc_n::gc_t::add_gc_method</text>
</a>
</g>
</g>
<!-- Node1&#45;&gt;Node2 -->
<g id="edge1" class="edge">
<title>Node1&#45;&gt;Node2</title>
<path fill="none" stroke="#63b8ff" d="M167.95,-58.46C158.63,-60.02 149.03,-61.62 139.68,-63.19"/>
<polygon fill="#63b8ff" stroke="#63b8ff" points="168.63,-61.89 177.92,-56.79 167.48,-54.99 168.63,-61.89"/>
</g>
<!-- Node3 -->
<g id="node3" class="node">
<title>Node3</title>
<g id="a_node3"><a xlink:href="classelc_1_1defs_1_1memory_1_1gc__n_1_1gc__t.html#ae567e251a16d8b84c47e42ece731f761" target="_top" xlink:title=" ">
<polygon fill="white" stroke="#666666" points="142,-41 0,-41 0,0 142,0 142,-41"/>
<text text-anchor="start" x="8" y="-29" font-family="Helvetica,sans-Serif" font-size="10.00">elc::defs::memory::</text>
<text text-anchor="start" x="8" y="-18" font-family="Helvetica,sans-Serif" font-size="10.00">gc_n::gc_t::add_gc_success</text>
<text text-anchor="middle" x="71" y="-7" font-family="Helvetica,sans-Serif" font-size="10.00">_identifier</text>
</a>
</g>
</g>
<!-- Node1&#45;&gt;Node3 -->
<g id="edge2" class="edge">
<title>Node1&#45;&gt;Node3</title>
<path fill="none" stroke="#63b8ff" d="M167.79,-36.51C159.37,-35.11 150.72,-33.66 142.23,-32.24"/>
<polygon fill="#63b8ff" stroke="#63b8ff" points="167.48,-40.01 177.92,-38.21 168.63,-33.11 167.48,-40.01"/>
</g>
</g>
</svg>
