<?xml version="1.0" encoding="UTF-8" standalone="no"?>
<!DOCTYPE svg PUBLIC "-//W3C//DTD SVG 1.1//EN"
 "http://www.w3.org/Graphics/SVG/1.1/DTD/svg11.dtd">
<!-- Generated by graphviz version 6.0.1 (20220911.1526)
 -->
<!-- Title: elc::defs::base::iterator_n::same_base_t::operator value_t * Pages: 1 -->
<svg width="511pt" height="49pt"
 viewBox="0.00 0.00 511.00 49.00" xmlns="http://www.w3.org/2000/svg" xmlns:xlink="http://www.w3.org/1999/xlink">
<g id="graph0" class="graph" transform="scale(1 1) rotate(0) translate(4 45)">
<title>elc::defs::base::iterator_n::same_base_t::operator value_t *</title>
<!-- Node1 -->
<g id="node1" class="node">
<title>Node1</title>
<g id="a_node1"><a xlink:title=" ">
<polygon fill="#999999" stroke="#666666" points="133,-41 0,-41 0,0 133,0 133,-41"/>
<text text-anchor="start" x="8" y="-29" font-family="Helvetica,sans-Serif" font-size="10.00">elc::defs::base::iterator</text>
<text text-anchor="start" x="8" y="-18" font-family="Helvetica,sans-Serif" font-size="10.00">_n::same_base_t::operator</text>
<text text-anchor="middle" x="66.5" y="-7" font-family="Helvetica,sans-Serif" font-size="10.00"> value_t *</text>
</a>
</g>
</g>
<!-- Node2 -->
<g id="node2" class="node">
<title>Node2</title>
<g id="a_node2"><a xlink:href="classelc_1_1defs_1_1base_1_1iterator__n_1_1same__base__t.html#ad70baa695182c4de433370304d500c80" target="_top" xlink:title=" ">
<polygon fill="white" stroke="#666666" points="311,-35.5 169,-35.5 169,-5.5 311,-5.5 311,-35.5"/>
<text text-anchor="start" x="177" y="-23.5" font-family="Helvetica,sans-Serif" font-size="10.00">elc::defs::base::iterator</text>
<text text-anchor="middle" x="240" y="-12.5" font-family="Helvetica,sans-Serif" font-size="10.00">_n::same_base_t::operator&#45;&gt;</text>
</a>
</g>
</g>
<!-- Node1&#45;&gt;Node2 -->
<g id="edge1" class="edge">
<title>Node1&#45;&gt;Node2</title>
<path fill="none" stroke="#63b8ff" d="M133.32,-20.5C141.58,-20.5 150.1,-20.5 158.55,-20.5"/>
<polygon fill="#63b8ff" stroke="#63b8ff" points="158.8,-24 168.8,-20.5 158.8,-17 158.8,-24"/>
</g>
<!-- Node3 -->
<g id="node3" class="node">
<title>Node3</title>
<g id="a_node3"><a xlink:href="classelc_1_1defs_1_1base_1_1iterator__n_1_1same__base__t.html#a672e4e845ba4964b82822f5f69f5bb63" target="_top" xlink:title=" ">
<polygon fill="white" stroke="#666666" points="503,-35.5 347,-35.5 347,-5.5 503,-5.5 503,-35.5"/>
<text text-anchor="start" x="355" y="-23.5" font-family="Helvetica,sans-Serif" font-size="10.00">elc::defs::base::iterator</text>
<text text-anchor="middle" x="425" y="-12.5" font-family="Helvetica,sans-Serif" font-size="10.00">_n::same_base_t::handle_getter</text>
</a>
</g>
</g>
<!-- Node2&#45;&gt;Node3 -->
<g id="edge2" class="edge">
<title>Node2&#45;&gt;Node3</title>
<path fill="none" stroke="#63b8ff" d="M311.23,-20.5C319.63,-20.5 328.29,-20.5 336.9,-20.5"/>
<polygon fill="#63b8ff" stroke="#63b8ff" points="336.96,-24 346.96,-20.5 336.96,-17 336.96,-24"/>
</g>
</g>
</svg>
