<?xml version="1.0" encoding="UTF-8" standalone="no"?>
<!DOCTYPE svg PUBLIC "-//W3C//DTD SVG 1.1//EN"
 "http://www.w3.org/Graphics/SVG/1.1/DTD/svg11.dtd">
<!-- Generated by graphviz version 6.0.1 (20220911.1526)
 -->
<!-- Title: elc::defs::base::null_ptr_n::can_t_use_default_null_ptr Pages: 1 -->
<svg width="301pt" height="146pt"
 viewBox="0.00 0.00 301.00 145.50" xmlns="http://www.w3.org/2000/svg" xmlns:xlink="http://www.w3.org/1999/xlink">
<g id="graph0" class="graph" transform="scale(1 1) rotate(0) translate(4 141.5)">
<title>elc::defs::base::null_ptr_n::can_t_use_default_null_ptr</title>
<!-- Node1 -->
<g id="node1" class="node">
<title>Node1</title>
<g id="a_node1"><a xlink:title=" ">
<polygon fill="#999999" stroke="#666666" points="128,-83.5 0,-83.5 0,-42.5 128,-42.5 128,-83.5"/>
<text text-anchor="start" x="8" y="-71.5" font-family="Helvetica,sans-Serif" font-size="10.00">elc::defs::base::null</text>
<text text-anchor="start" x="8" y="-60.5" font-family="Helvetica,sans-Serif" font-size="10.00">_ptr_n::can_t_use_default</text>
<text text-anchor="middle" x="64" y="-49.5" font-family="Helvetica,sans-Serif" font-size="10.00">_null_ptr</text>
</a>
</g>
</g>
<!-- Node2 -->
<g id="node2" class="node">
<title>Node2</title>
<g id="a_node2"><a xlink:href="classelc_1_1defs_1_1base_1_1null__ptr__n_1_1force__use__default__null__ptr.html" target="_top" xlink:title=" ">
<polygon fill="white" stroke="#666666" points="291,-137.5 166,-137.5 166,-96.5 291,-96.5 291,-137.5"/>
<text text-anchor="start" x="174" y="-125.5" font-family="Helvetica,sans-Serif" font-size="10.00">elc::defs::base::null</text>
<text text-anchor="start" x="174" y="-114.5" font-family="Helvetica,sans-Serif" font-size="10.00">_ptr_n::force_use_default</text>
<text text-anchor="middle" x="228.5" y="-103.5" font-family="Helvetica,sans-Serif" font-size="10.00">_null_ptr</text>
</a>
</g>
</g>
<!-- Node1&#45;&gt;Node2 -->
<g id="edge1" class="edge">
<title>Node1&#45;&gt;Node2</title>
<path fill="none" stroke="#8b1a1a" d="M136.56,-86.78C146.3,-90.02 156.23,-93.32 165.77,-96.49"/>
<polygon fill="#8b1a1a" stroke="#8b1a1a" points="137.49,-83.4 126.9,-83.57 135.28,-90.04 137.49,-83.4"/>
</g>
<!-- Node3 -->
<g id="node3" class="node">
<title>Node3</title>
<g id="a_node3"><a xlink:href="classelc_1_1defs_1_1memory_1_1ptr__n_1_1ref__able.html" target="_top" xlink:title=" ">
<polygon fill="white" stroke="#666666" points="279,-78 178,-78 178,-48 279,-48 279,-78"/>
<text text-anchor="start" x="186" y="-66" font-family="Helvetica,sans-Serif" font-size="10.00">elc::defs::memory::</text>
<text text-anchor="middle" x="228.5" y="-55" font-family="Helvetica,sans-Serif" font-size="10.00">ptr_n::ref_able&lt; T &gt;</text>
</a>
</g>
</g>
<!-- Node1&#45;&gt;Node3 -->
<g id="edge2" class="edge">
<title>Node1&#45;&gt;Node3</title>
<path fill="none" stroke="#63b8ff" d="M138.44,-63C151.82,-63 165.48,-63 177.96,-63"/>
<polygon fill="#63b8ff" stroke="#63b8ff" points="138.29,-59.5 128.29,-63 138.29,-66.5 138.29,-59.5"/>
</g>
<!-- Node4 -->
<g id="node4" class="node">
<title>Node4</title>
<g id="a_node4"><a xlink:href="classelc_1_1defs_1_1memory_1_1ptr__n_1_1weak__ref__able.html" target="_top" xlink:title=" ">
<polygon fill="white" stroke="#666666" points="293,-30 164,-30 164,0 293,0 293,-30"/>
<text text-anchor="start" x="172" y="-18" font-family="Helvetica,sans-Serif" font-size="10.00">elc::defs::memory::</text>
<text text-anchor="middle" x="228.5" y="-7" font-family="Helvetica,sans-Serif" font-size="10.00">ptr_n::weak_ref_able&lt; T &gt;</text>
</a>
</g>
</g>
<!-- Node1&#45;&gt;Node4 -->
<g id="edge3" class="edge">
<title>Node1&#45;&gt;Node4</title>
<path fill="none" stroke="#63b8ff" d="M138.17,-41.39C151.18,-37.54 164.47,-33.62 176.69,-30.01"/>
<polygon fill="#63b8ff" stroke="#63b8ff" points="136.89,-38.11 128.29,-44.3 138.87,-44.83 136.89,-38.11"/>
</g>
</g>
</svg>
