<?xml version="1.0" encoding="UTF-8" standalone="no"?>
<!DOCTYPE svg PUBLIC "-//W3C//DTD SVG 1.1//EN"
 "http://www.w3.org/Graphics/SVG/1.1/DTD/svg11.dtd">
<!-- Generated by graphviz version 6.0.1 (20220911.1526)
 -->
<!-- Title: 类继承关系图 Pages: 1 -->
<svg width="638pt" height="1351pt"
 viewBox="0.00 0.00 638.00 1350.50" xmlns="http://www.w3.org/2000/svg" xmlns:xlink="http://www.w3.org/1999/xlink">
<g id="graph0" class="graph" transform="scale(1 1) rotate(0) translate(4 1346.5)">
<title>类继承关系图</title>
<!-- Node0 -->
<g id="node1" class="node">
<title>Node0</title>
<g id="a_node1"><a xlink:href="structelc_1_1defs_1_1lib__loader__n_1_1base__symbol__t.html" target="_top" xlink:title=" ">
<polygon fill="white" stroke="#666666" points="272,-1342.5 171,-1342.5 171,-1312.5 272,-1312.5 272,-1342.5"/>
<text text-anchor="start" x="179" y="-1330.5" font-family="Helvetica,sans-Serif" font-size="10.00">elc::defs::lib_loader</text>
<text text-anchor="middle" x="221.5" y="-1319.5" font-family="Helvetica,sans-Serif" font-size="10.00">_n::base_symbol_t</text>
</a>
</g>
</g>
<!-- Node1 -->
<g id="node2" class="node">
<title>Node1</title>
<g id="a_node2"><a xlink:href="structelc_1_1defs_1_1lib__loader__n_1_1symbol__t_3_01_ret__t_07_args__t_8_8_8_08_01noexcept_07nothrow_08_4.html" target="_top" xlink:title=" ">
<polygon fill="white" stroke="#666666" points="461,-1327 333,-1327 333,-1286 461,-1286 461,-1327"/>
<text text-anchor="start" x="341" y="-1315" font-family="Helvetica,sans-Serif" font-size="10.00">elc::defs::lib_loader</text>
<text text-anchor="start" x="341" y="-1304" font-family="Helvetica,sans-Serif" font-size="10.00">_n::symbol_t&lt; Ret_t(Args</text>
<text text-anchor="middle" x="397" y="-1293" font-family="Helvetica,sans-Serif" font-size="10.00">_t...) noexcept(nothrow)&gt;</text>
</a>
</g>
</g>
<!-- Node0&#45;&gt;Node1 -->
<g id="edge1" class="edge">
<title>Node0&#45;&gt;Node1</title>
<path fill="none" stroke="#63b8ff" d="M282.21,-1320.27C298.59,-1318.29 316.4,-1316.13 332.96,-1314.13"/>
<polygon fill="#63b8ff" stroke="#63b8ff" points="281.73,-1316.81 272.22,-1321.48 282.57,-1323.76 281.73,-1316.81"/>
</g>
<!-- Node24 -->
<g id="node3" class="node">
<title>Node24</title>
<g id="a_node3"><a xlink:href="classelc_1_1defs_1_1base_1_1build__by__get__only.html" target="_top" xlink:title=" ">
<polygon fill="white" stroke="#666666" points="113.5,-834.5 6.5,-834.5 6.5,-804.5 113.5,-804.5 113.5,-834.5"/>
<text text-anchor="start" x="14.5" y="-822.5" font-family="Helvetica,sans-Serif" font-size="10.00">elc::defs::base::build</text>
<text text-anchor="middle" x="60" y="-811.5" font-family="Helvetica,sans-Serif" font-size="10.00">_by_get_only</text>
</a>
</g>
</g>
<!-- Node4 -->
<g id="node4" class="node">
<title>Node4</title>
<g id="a_node4"><a xlink:href="structelc_1_1defs_1_1container_1_1function__n_1_1base__func__data__t_3_01_ret__t_07_args__t_8_8_8_08_4.html" target="_top" xlink:title=" ">
<polygon fill="white" stroke="#666666" points="287,-1181 156,-1181 156,-1140 287,-1140 287,-1181"/>
<text text-anchor="start" x="164" y="-1169" font-family="Helvetica,sans-Serif" font-size="10.00">elc::defs::container</text>
<text text-anchor="start" x="164" y="-1158" font-family="Helvetica,sans-Serif" font-size="10.00">::function_n::base_func</text>
<text text-anchor="middle" x="221.5" y="-1147" font-family="Helvetica,sans-Serif" font-size="10.00">_data_t&lt; Ret_t(Args_t...)&gt;</text>
</a>
</g>
</g>
<!-- Node24&#45;&gt;Node4 -->
<g id="edge2" class="edge">
<title>Node24&#45;&gt;Node4</title>
<path fill="none" stroke="#63b8ff" d="M69.63,-844.34C85,-887.69 119.02,-979.61 156,-1053.5 171.53,-1084.53 192.85,-1118.57 206.64,-1139.74"/>
<polygon fill="#63b8ff" stroke="#63b8ff" points="72.83,-842.91 66.21,-834.64 66.23,-845.24 72.83,-842.91"/>
</g>
<!-- Node21 -->
<g id="node7" class="node">
<title>Node21</title>
<g id="a_node7"><a xlink:href="structelc_1_1defs_1_1core_1_1value_1_1base__data__t.html" target="_top" xlink:title=" ">
<polygon fill="white" stroke="#666666" points="274.5,-1044.5 168.5,-1044.5 168.5,-1014.5 274.5,-1014.5 274.5,-1044.5"/>
<text text-anchor="start" x="176.5" y="-1032.5" font-family="Helvetica,sans-Serif" font-size="10.00">elc::defs::core::value</text>
<text text-anchor="middle" x="221.5" y="-1021.5" font-family="Helvetica,sans-Serif" font-size="10.00">::base_data_t</text>
</a>
</g>
</g>
<!-- Node24&#45;&gt;Node21 -->
<g id="edge5" class="edge">
<title>Node24&#45;&gt;Node21</title>
<path fill="none" stroke="#63b8ff" d="M78.72,-842.83C111.63,-886.16 181.34,-977.94 208.92,-1014.25"/>
<polygon fill="#63b8ff" stroke="#63b8ff" points="81.31,-840.45 72.47,-834.6 75.73,-844.68 81.31,-840.45"/>
</g>
<!-- Node25 -->
<g id="node11" class="node">
<title>Node25</title>
<g id="a_node11"><a xlink:href="structelc_1_1defs_1_1lib__loader__n_1_1library__info__t.html" target="_top" xlink:title=" ">
<polygon fill="white" stroke="#666666" points="272,-663.5 171,-663.5 171,-633.5 272,-633.5 272,-663.5"/>
<text text-anchor="start" x="179" y="-651.5" font-family="Helvetica,sans-Serif" font-size="10.00">elc::defs::lib_loader</text>
<text text-anchor="middle" x="221.5" y="-640.5" font-family="Helvetica,sans-Serif" font-size="10.00">_n::library_info_t</text>
</a>
</g>
</g>
<!-- Node24&#45;&gt;Node25 -->
<g id="edge9" class="edge">
<title>Node24&#45;&gt;Node25</title>
<path fill="none" stroke="#63b8ff" d="M71.05,-794.69C85.35,-762.3 114.53,-705.81 156,-672.5 160.47,-668.91 165.53,-665.82 170.81,-663.17"/>
<polygon fill="#63b8ff" stroke="#63b8ff" points="67.65,-793.73 66.93,-804.3 74.09,-796.49 67.65,-793.73"/>
</g>
<!-- Node27 -->
<g id="node12" class="node">
<title>Node27</title>
<g id="a_node12"><a xlink:href="structelc_1_1defs_1_1string__n_1_1string__data__n_1_1base__string__data__t.html" target="_top" xlink:title=" ">
<polygon fill="white" stroke="#666666" points="284,-599 159,-599 159,-558 284,-558 284,-599"/>
<text text-anchor="start" x="167" y="-587" font-family="Helvetica,sans-Serif" font-size="10.00">elc::defs::string_n</text>
<text text-anchor="start" x="167" y="-576" font-family="Helvetica,sans-Serif" font-size="10.00">::string_data_n::base</text>
<text text-anchor="middle" x="221.5" y="-565" font-family="Helvetica,sans-Serif" font-size="10.00">_string_data_t&lt; char_T &gt;</text>
</a>
</g>
</g>
<!-- Node24&#45;&gt;Node27 -->
<g id="edge10" class="edge">
<title>Node24&#45;&gt;Node27</title>
<path fill="none" stroke="#63b8ff" d="M68.59,-794.78C81.58,-755.42 111.11,-677.54 156,-624.5 164.17,-614.84 174.8,-606.18 185.07,-599.05"/>
<polygon fill="#63b8ff" stroke="#63b8ff" points="65.23,-793.77 65.5,-804.37 71.9,-795.92 65.23,-793.77"/>
</g>
<!-- Node5 -->
<g id="node5" class="node">
<title>Node5</title>
<g id="a_node5"><a xlink:href="structelc_1_1defs_1_1container_1_1function__n_1_1default__func__data__t_3_01_ret__t_07_args__t_8_8_8_08_4.html" target="_top" xlink:title=" ">
<polygon fill="white" stroke="#666666" points="461,-1186.5 333,-1186.5 333,-1134.5 461,-1134.5 461,-1186.5"/>
<text text-anchor="start" x="341" y="-1174.5" font-family="Helvetica,sans-Serif" font-size="10.00">elc::defs::container</text>
<text text-anchor="start" x="341" y="-1163.5" font-family="Helvetica,sans-Serif" font-size="10.00">::function_n::default</text>
<text text-anchor="start" x="341" y="-1152.5" font-family="Helvetica,sans-Serif" font-size="10.00">_func_data_t&lt; Ret_t(Args</text>
<text text-anchor="middle" x="397" y="-1141.5" font-family="Helvetica,sans-Serif" font-size="10.00">_t...)&gt;</text>
</a>
</g>
</g>
<!-- Node4&#45;&gt;Node5 -->
<g id="edge3" class="edge">
<title>Node4&#45;&gt;Node5</title>
<path fill="none" stroke="#63b8ff" d="M297.38,-1160.5C309.18,-1160.5 321.28,-1160.5 332.78,-1160.5"/>
<polygon fill="#63b8ff" stroke="#63b8ff" points="297.11,-1157 287.1,-1160.5 297.1,-1164 297.11,-1157"/>
</g>
<!-- Node3 -->
<g id="node6" class="node">
<title>Node3</title>
<g id="a_node6"><a xlink:href="structelc_1_1defs_1_1container_1_1function__n_1_1func__data__t_3_01_t_00_01_ret__t_07_args__t_8_8_8_08_4.html" target="_top" xlink:title=" ">
<polygon fill="white" stroke="#666666" points="456,-1246 338,-1246 338,-1205 456,-1205 456,-1246"/>
<text text-anchor="start" x="346" y="-1234" font-family="Helvetica,sans-Serif" font-size="10.00">elc::defs::container</text>
<text text-anchor="start" x="346" y="-1223" font-family="Helvetica,sans-Serif" font-size="10.00">::function_n::func_data</text>
<text text-anchor="middle" x="397" y="-1212" font-family="Helvetica,sans-Serif" font-size="10.00">_t&lt; T, Ret_t(Args_t...)&gt;</text>
</a>
</g>
</g>
<!-- Node4&#45;&gt;Node3 -->
<g id="edge4" class="edge">
<title>Node4&#45;&gt;Node3</title>
<path fill="none" stroke="#63b8ff" d="M287.11,-1184.71C304.89,-1191.37 324,-1198.52 341.16,-1204.96"/>
<polygon fill="#63b8ff" stroke="#63b8ff" points="287.99,-1181.3 277.4,-1181.07 285.53,-1187.85 287.99,-1181.3"/>
</g>
<!-- Node20 -->
<g id="node8" class="node">
<title>Node20</title>
<g id="a_node8"><a xlink:href="structelc_1_1defs_1_1core_1_1value_1_1constexpr__data__t.html" target="_top" xlink:title=" ">
<polygon fill="white" stroke="#666666" points="450,-1020.5 344,-1020.5 344,-990.5 450,-990.5 450,-1020.5"/>
<text text-anchor="start" x="352" y="-1008.5" font-family="Helvetica,sans-Serif" font-size="10.00">elc::defs::core::value</text>
<text text-anchor="middle" x="397" y="-997.5" font-family="Helvetica,sans-Serif" font-size="10.00">::constexpr_data_t</text>
</a>
</g>
</g>
<!-- Node21&#45;&gt;Node20 -->
<g id="edge6" class="edge">
<title>Node21&#45;&gt;Node20</title>
<path fill="none" stroke="#63b8ff" d="M284.55,-1020.92C304.01,-1018.22 325.28,-1015.28 343.98,-1012.7"/>
<polygon fill="#63b8ff" stroke="#63b8ff" points="283.98,-1017.46 274.56,-1022.3 284.94,-1024.4 283.98,-1017.46"/>
</g>
<!-- Node22 -->
<g id="node9" class="node">
<title>Node22</title>
<g id="a_node9"><a xlink:href="structelc_1_1defs_1_1core_1_1value_1_1null__data__t.html" target="_top" xlink:title=" ">
<polygon fill="white" stroke="#666666" points="450,-1116.5 344,-1116.5 344,-1086.5 450,-1086.5 450,-1116.5"/>
<text text-anchor="start" x="352" y="-1104.5" font-family="Helvetica,sans-Serif" font-size="10.00">elc::defs::core::value</text>
<text text-anchor="middle" x="397" y="-1093.5" font-family="Helvetica,sans-Serif" font-size="10.00">::null_data_t</text>
</a>
</g>
</g>
<!-- Node21&#45;&gt;Node22 -->
<g id="edge7" class="edge">
<title>Node21&#45;&gt;Node22</title>
<path fill="none" stroke="#63b8ff" d="M260.55,-1049.09C279.13,-1058.29 301.97,-1069.06 323,-1077.5 330.8,-1080.63 339.18,-1083.67 347.39,-1086.48"/>
<polygon fill="#63b8ff" stroke="#63b8ff" points="262.03,-1045.92 251.52,-1044.58 258.9,-1052.18 262.03,-1045.92"/>
</g>
<!-- Node23 -->
<g id="node10" class="node">
<title>Node23</title>
<g id="a_node10"><a xlink:href="structelc_1_1defs_1_1core_1_1value_1_1variable__data__t.html" target="_top" xlink:title=" ">
<polygon fill="white" stroke="#666666" points="450,-1068.5 344,-1068.5 344,-1038.5 450,-1038.5 450,-1068.5"/>
<text text-anchor="start" x="352" y="-1056.5" font-family="Helvetica,sans-Serif" font-size="10.00">elc::defs::core::value</text>
<text text-anchor="middle" x="397" y="-1045.5" font-family="Helvetica,sans-Serif" font-size="10.00">::variable_data_t</text>
</a>
</g>
</g>
<!-- Node21&#45;&gt;Node23 -->
<g id="edge8" class="edge">
<title>Node21&#45;&gt;Node23</title>
<path fill="none" stroke="#63b8ff" d="M284.55,-1038.08C304.01,-1040.78 325.28,-1043.72 343.98,-1046.3"/>
<polygon fill="#63b8ff" stroke="#63b8ff" points="284.94,-1034.6 274.56,-1036.7 283.98,-1041.54 284.94,-1034.6"/>
</g>
<!-- Node28 -->
<g id="node13" class="node">
<title>Node28</title>
<g id="a_node13"><a xlink:href="structelc_1_1defs_1_1string__n_1_1string__data__n_1_1comn__string__data__t.html" target="_top" xlink:title=" ">
<polygon fill="white" stroke="#666666" points="459.5,-481 334.5,-481 334.5,-440 459.5,-440 459.5,-481"/>
<text text-anchor="start" x="342.5" y="-469" font-family="Helvetica,sans-Serif" font-size="10.00">elc::defs::string_n</text>
<text text-anchor="start" x="342.5" y="-458" font-family="Helvetica,sans-Serif" font-size="10.00">::string_data_n::comn</text>
<text text-anchor="middle" x="397" y="-447" font-family="Helvetica,sans-Serif" font-size="10.00">_string_data_t&lt; char_T &gt;</text>
</a>
</g>
</g>
<!-- Node27&#45;&gt;Node28 -->
<g id="edge11" class="edge">
<title>Node27&#45;&gt;Node28</title>
<path fill="none" stroke="#63b8ff" d="M248.8,-550.56C267.96,-531.43 295.31,-506.53 323,-489.5 327.88,-486.5 333.12,-483.7 338.48,-481.12"/>
<polygon fill="#63b8ff" stroke="#63b8ff" points="246.15,-548.26 241.62,-557.84 251.13,-553.18 246.15,-548.26"/>
</g>
<!-- Node29 -->
<g id="node14" class="node">
<title>Node29</title>
<g id="a_node14"><a xlink:href="structelc_1_1defs_1_1string__n_1_1string__data__n_1_1constexpr__string__data__t.html" target="_top" xlink:title=" ">
<polygon fill="white" stroke="#666666" points="462,-422 332,-422 332,-381 462,-381 462,-422"/>
<text text-anchor="start" x="340" y="-410" font-family="Helvetica,sans-Serif" font-size="10.00">elc::defs::string_n</text>
<text text-anchor="start" x="340" y="-399" font-family="Helvetica,sans-Serif" font-size="10.00">::string_data_n::constexpr</text>
<text text-anchor="middle" x="397" y="-388" font-family="Helvetica,sans-Serif" font-size="10.00">_string_data_t&lt; char_T &gt;</text>
</a>
</g>
</g>
<!-- Node27&#45;&gt;Node29 -->
<g id="edge12" class="edge">
<title>Node27&#45;&gt;Node29</title>
<path fill="none" stroke="#63b8ff" d="M235.96,-548.78C252.26,-515.77 282.65,-462.88 323,-430.5 326.83,-427.43 331.02,-424.65 335.41,-422.13"/>
<polygon fill="#63b8ff" stroke="#63b8ff" points="232.73,-547.41 231.54,-557.94 239.04,-550.45 232.73,-547.41"/>
</g>
<!-- Node30 -->
<g id="node15" class="node">
<title>Node30</title>
<g id="a_node15"><a xlink:href="structelc_1_1defs_1_1string__n_1_1string__data__n_1_1end__apply__string__data__t.html" target="_top" xlink:title=" ">
<polygon fill="white" stroke="#666666" points="450.5,-362.5 343.5,-362.5 343.5,-310.5 450.5,-310.5 450.5,-362.5"/>
<text text-anchor="start" x="351.5" y="-350.5" font-family="Helvetica,sans-Serif" font-size="10.00">elc::defs::string_n</text>
<text text-anchor="start" x="351.5" y="-339.5" font-family="Helvetica,sans-Serif" font-size="10.00">::string_data_n::end</text>
<text text-anchor="start" x="351.5" y="-328.5" font-family="Helvetica,sans-Serif" font-size="10.00">_apply_string_data_t</text>
<text text-anchor="middle" x="397" y="-317.5" font-family="Helvetica,sans-Serif" font-size="10.00">&lt; char_T &gt;</text>
</a>
</g>
</g>
<!-- Node27&#45;&gt;Node30 -->
<g id="edge13" class="edge">
<title>Node27&#45;&gt;Node30</title>
<path fill="none" stroke="#63b8ff" d="M230.32,-548.06C243.03,-504.01 272.01,-422.24 323,-371.5 328.88,-365.65 335.92,-360.64 343.29,-356.39"/>
<polygon fill="#63b8ff" stroke="#63b8ff" points="226.9,-547.32 227.58,-557.89 233.64,-549.2 226.9,-547.32"/>
</g>
<!-- Node31 -->
<g id="node16" class="node">
<title>Node31</title>
<g id="a_node16"><a xlink:href="structelc_1_1defs_1_1string__n_1_1string__data__n_1_1erased__string__data__t.html" target="_top" xlink:title=" ">
<polygon fill="white" stroke="#666666" points="459.5,-292 334.5,-292 334.5,-251 459.5,-251 459.5,-292"/>
<text text-anchor="start" x="342.5" y="-280" font-family="Helvetica,sans-Serif" font-size="10.00">elc::defs::string_n</text>
<text text-anchor="start" x="342.5" y="-269" font-family="Helvetica,sans-Serif" font-size="10.00">::string_data_n::erased</text>
<text text-anchor="middle" x="397" y="-258" font-family="Helvetica,sans-Serif" font-size="10.00">_string_data_t&lt; char_T &gt;</text>
</a>
</g>
</g>
<!-- Node27&#45;&gt;Node31 -->
<g id="edge14" class="edge">
<title>Node27&#45;&gt;Node31</title>
<path fill="none" stroke="#63b8ff" d="M225.55,-547.79C232.67,-491.73 255.31,-372.09 323,-301.5 326.41,-297.94 330.31,-294.79 334.49,-292"/>
<polygon fill="#63b8ff" stroke="#63b8ff" points="222.06,-547.47 224.36,-557.81 229.01,-548.29 222.06,-547.47"/>
</g>
<!-- Node32 -->
<g id="node17" class="node">
<title>Node32</title>
<g id="a_node17"><a xlink:href="structelc_1_1defs_1_1string__n_1_1string__data__n_1_1head__apply__string__data__t.html" target="_top" xlink:title=" ">
<polygon fill="white" stroke="#666666" points="453.5,-858.5 340.5,-858.5 340.5,-806.5 453.5,-806.5 453.5,-858.5"/>
<text text-anchor="start" x="348.5" y="-846.5" font-family="Helvetica,sans-Serif" font-size="10.00">elc::defs::string_n</text>
<text text-anchor="start" x="348.5" y="-835.5" font-family="Helvetica,sans-Serif" font-size="10.00">::string_data_n::head</text>
<text text-anchor="start" x="348.5" y="-824.5" font-family="Helvetica,sans-Serif" font-size="10.00">_apply_string_data_t&lt;</text>
<text text-anchor="middle" x="397" y="-813.5" font-family="Helvetica,sans-Serif" font-size="10.00"> char_T &gt;</text>
</a>
</g>
</g>
<!-- Node27&#45;&gt;Node32 -->
<g id="edge15" class="edge">
<title>Node27&#45;&gt;Node32</title>
<path fill="none" stroke="#63b8ff" d="M269.27,-605.27C276.04,-610.87 282.3,-617.3 287,-624.5 329.72,-689.88 275.15,-734.78 323,-796.5 327.76,-802.64 333.85,-807.81 340.47,-812.13"/>
<polygon fill="#63b8ff" stroke="#63b8ff" points="271.23,-602.36 261.16,-599.08 266.98,-607.93 271.23,-602.36"/>
</g>
<!-- Node33 -->
<g id="node18" class="node">
<title>Node33</title>
<g id="a_node18"><a xlink:href="structelc_1_1defs_1_1string__n_1_1string__data__n_1_1inserted__string__data__t.html" target="_top" xlink:title=" ">
<polygon fill="white" stroke="#666666" points="459.5,-788 334.5,-788 334.5,-747 459.5,-747 459.5,-788"/>
<text text-anchor="start" x="342.5" y="-776" font-family="Helvetica,sans-Serif" font-size="10.00">elc::defs::string_n</text>
<text text-anchor="start" x="342.5" y="-765" font-family="Helvetica,sans-Serif" font-size="10.00">::string_data_n::inserted</text>
<text text-anchor="middle" x="397" y="-754" font-family="Helvetica,sans-Serif" font-size="10.00">_string_data_t&lt; char_T &gt;</text>
</a>
</g>
</g>
<!-- Node27&#45;&gt;Node33 -->
<g id="edge16" class="edge">
<title>Node27&#45;&gt;Node33</title>
<path fill="none" stroke="#63b8ff" d="M268.18,-605.32C275.2,-610.96 281.82,-617.39 287,-624.5 318.05,-667.1 287.28,-698.74 323,-737.5 326.34,-741.13 330.19,-744.33 334.33,-747.15"/>
<polygon fill="#63b8ff" stroke="#63b8ff" points="269.93,-602.25 259.83,-599.06 265.73,-607.85 269.93,-602.25"/>
</g>
<!-- Node34 -->
<g id="node19" class="node">
<title>Node34</title>
<g id="a_node19"><a xlink:href="structelc_1_1defs_1_1string__n_1_1string__data__n_1_1null__string__data__t.html" target="_top" xlink:title=" ">
<polygon fill="white" stroke="#666666" points="459.5,-729 334.5,-729 334.5,-688 459.5,-688 459.5,-729"/>
<text text-anchor="start" x="342.5" y="-717" font-family="Helvetica,sans-Serif" font-size="10.00">elc::defs::string_n</text>
<text text-anchor="start" x="342.5" y="-706" font-family="Helvetica,sans-Serif" font-size="10.00">::string_data_n::null</text>
<text text-anchor="middle" x="397" y="-695" font-family="Helvetica,sans-Serif" font-size="10.00">_string_data_t&lt; char_T &gt;</text>
</a>
</g>
</g>
<!-- Node27&#45;&gt;Node34 -->
<g id="edge17" class="edge">
<title>Node27&#45;&gt;Node34</title>
<path fill="none" stroke="#63b8ff" d="M264.39,-604.98C272.33,-610.92 280.25,-617.54 287,-624.5 307.07,-645.21 300.69,-660.22 323,-678.5 327.24,-681.97 331.94,-685.09 336.84,-687.89"/>
<polygon fill="#63b8ff" stroke="#63b8ff" points="266.32,-602.06 256.16,-599.06 262.23,-607.74 266.32,-602.06"/>
</g>
<!-- Node35 -->
<g id="node20" class="node">
<title>Node35</title>
<g id="a_node20"><a xlink:href="structelc_1_1defs_1_1string__n_1_1string__data__n_1_1same__value__compress__string__data__t.html" target="_top" xlink:title=" ">
<polygon fill="white" stroke="#666666" points="457.5,-669.5 336.5,-669.5 336.5,-617.5 457.5,-617.5 457.5,-669.5"/>
<text text-anchor="start" x="344.5" y="-657.5" font-family="Helvetica,sans-Serif" font-size="10.00">elc::defs::string_n</text>
<text text-anchor="start" x="344.5" y="-646.5" font-family="Helvetica,sans-Serif" font-size="10.00">::string_data_n::same</text>
<text text-anchor="start" x="344.5" y="-635.5" font-family="Helvetica,sans-Serif" font-size="10.00">_value_compress_string</text>
<text text-anchor="middle" x="397" y="-624.5" font-family="Helvetica,sans-Serif" font-size="10.00">_data_t&lt; char_T &gt;</text>
</a>
</g>
</g>
<!-- Node27&#45;&gt;Node35 -->
<g id="edge18" class="edge">
<title>Node27&#45;&gt;Node35</title>
<path fill="none" stroke="#63b8ff" d="M286.8,-602.59C303.02,-608.67 320.37,-615.17 336.35,-621.15"/>
<polygon fill="#63b8ff" stroke="#63b8ff" points="287.99,-599.3 277.4,-599.07 285.53,-605.85 287.99,-599.3"/>
</g>
<!-- Node36 -->
<g id="node21" class="node">
<title>Node36</title>
<g id="a_node21"><a xlink:href="structelc_1_1defs_1_1string__n_1_1string__data__n_1_1substr__string__data__t.html" target="_top" xlink:title=" ">
<polygon fill="white" stroke="#666666" points="459.5,-599 334.5,-599 334.5,-558 459.5,-558 459.5,-599"/>
<text text-anchor="start" x="342.5" y="-587" font-family="Helvetica,sans-Serif" font-size="10.00">elc::defs::string_n</text>
<text text-anchor="start" x="342.5" y="-576" font-family="Helvetica,sans-Serif" font-size="10.00">::string_data_n::substr</text>
<text text-anchor="middle" x="397" y="-565" font-family="Helvetica,sans-Serif" font-size="10.00">_string_data_t&lt; char_T &gt;</text>
</a>
</g>
</g>
<!-- Node27&#45;&gt;Node36 -->
<g id="edge19" class="edge">
<title>Node27&#45;&gt;Node36</title>
<path fill="none" stroke="#63b8ff" d="M294.21,-578.5C307.5,-578.5 321.28,-578.5 334.25,-578.5"/>
<polygon fill="#63b8ff" stroke="#63b8ff" points="294.16,-575 284.16,-578.5 294.16,-582 294.16,-575"/>
</g>
<!-- Node37 -->
<g id="node22" class="node">
<title>Node37</title>
<g id="a_node22"><a xlink:href="structelc_1_1defs_1_1string__n_1_1string__data__n_1_1sum__string__data__t.html" target="_top" xlink:title=" ">
<polygon fill="white" stroke="#666666" points="459.5,-540 334.5,-540 334.5,-499 459.5,-499 459.5,-540"/>
<text text-anchor="start" x="342.5" y="-528" font-family="Helvetica,sans-Serif" font-size="10.00">elc::defs::string_n</text>
<text text-anchor="start" x="342.5" y="-517" font-family="Helvetica,sans-Serif" font-size="10.00">::string_data_n::sum</text>
<text text-anchor="middle" x="397" y="-506" font-family="Helvetica,sans-Serif" font-size="10.00">_string_data_t&lt; char_T &gt;</text>
</a>
</g>
</g>
<!-- Node27&#45;&gt;Node37 -->
<g id="edge20" class="edge">
<title>Node27&#45;&gt;Node37</title>
<path fill="none" stroke="#63b8ff" d="M292.88,-554.57C307.06,-549.74 321.85,-544.72 335.65,-540.02"/>
<polygon fill="#63b8ff" stroke="#63b8ff" points="291.52,-551.33 283.18,-557.86 293.78,-557.96 291.52,-551.33"/>
</g>
<!-- Node2 -->
<g id="node23" class="node">
<title>Node2</title>
<g id="a_node23"><a xlink:href="classelc_1_1defs_1_1base_1_1function__base__n_1_1function__data__warpper__t.html" target="_top" xlink:title=" ">
<polygon fill="white" stroke="#666666" points="283,-1294 160,-1294 160,-1253 283,-1253 283,-1294"/>
<text text-anchor="start" x="168" y="-1282" font-family="Helvetica,sans-Serif" font-size="10.00">elc::defs::base::function</text>
<text text-anchor="start" x="168" y="-1271" font-family="Helvetica,sans-Serif" font-size="10.00">_base_n::function_data</text>
<text text-anchor="middle" x="221.5" y="-1260" font-family="Helvetica,sans-Serif" font-size="10.00">_warpper_t&lt; T, Func_t &gt;</text>
</a>
</g>
</g>
<!-- Node2&#45;&gt;Node1 -->
<g id="edge22" class="edge">
<title>Node2&#45;&gt;Node1</title>
<path fill="none" stroke="#63b8ff" d="M293.15,-1286.94C306.34,-1289.45 320.05,-1292.05 333,-1294.52"/>
<polygon fill="#63b8ff" stroke="#63b8ff" points="293.66,-1283.47 283.18,-1285.04 292.35,-1290.35 293.66,-1283.47"/>
</g>
<!-- Node2&#45;&gt;Node3 -->
<g id="edge21" class="edge">
<title>Node2&#45;&gt;Node3</title>
<path fill="none" stroke="#63b8ff" d="M292.91,-1254.02C307.88,-1249.88 323.53,-1245.55 337.98,-1241.55"/>
<polygon fill="#63b8ff" stroke="#63b8ff" points="291.89,-1250.67 283.18,-1256.71 293.75,-1257.42 291.89,-1250.67"/>
</g>
<!-- Node6 -->
<g id="node24" class="node">
<title>Node6</title>
<g id="a_node24"><a xlink:title=" ">
<polygon fill="#e0e0e0" stroke="#999999" points="263,-701 180,-701 180,-682 263,-682 263,-701"/>
<text text-anchor="middle" x="221.5" y="-689" font-family="Helvetica,sans-Serif" font-size="10.00">instance_struct</text>
</a>
</g>
</g>
<!-- Node6&#45;&gt;Node5 -->
<g id="edge23" class="edge">
<title>Node6&#45;&gt;Node5</title>
<path fill="none" stroke="#63b8ff" d="M226.57,-711.23C243.69,-793.88 309.56,-1108.73 323,-1125.5 325.9,-1129.12 329.27,-1132.39 332.93,-1135.33"/>
<polygon fill="#63b8ff" stroke="#63b8ff" points="229.98,-710.44 224.53,-701.36 223.13,-711.86 229.98,-710.44"/>
</g>
<!-- Node6&#45;&gt;Node20 -->
<g id="edge36" class="edge">
<title>Node6&#45;&gt;Node20</title>
<path fill="none" stroke="#63b8ff" d="M223.97,-711.33C228.76,-762.2 248.27,-898.79 323,-976.5 328.86,-982.59 336.16,-987.44 343.87,-991.28"/>
<polygon fill="#63b8ff" stroke="#63b8ff" points="227.43,-710.74 223.09,-701.07 220.45,-711.33 227.43,-710.74"/>
</g>
<!-- Node6&#45;&gt;Node22 -->
<g id="edge37" class="edge">
<title>Node6&#45;&gt;Node22</title>
<path fill="none" stroke="#63b8ff" d="M226.51,-711.37C241.83,-786.44 297.02,-1049.83 323,-1077.5 328.75,-1083.63 336.1,-1088.19 343.9,-1091.59"/>
<polygon fill="#63b8ff" stroke="#63b8ff" points="229.9,-710.46 224.48,-701.36 223.04,-711.86 229.9,-710.46"/>
</g>
<!-- Node6&#45;&gt;Node23 -->
<g id="edge38" class="edge">
<title>Node6&#45;&gt;Node23</title>
<path fill="none" stroke="#63b8ff" d="M222.39,-711.36C223.17,-768.87 233.39,-937.29 323,-1029.5 328.76,-1035.43 336.02,-1039.9 343.7,-1043.26"/>
<polygon fill="#63b8ff" stroke="#63b8ff" points="225.89,-711.1 222.34,-701.12 218.89,-711.13 225.89,-711.1"/>
</g>
<!-- Node6&#45;&gt;Node28 -->
<g id="edge39" class="edge">
<title>Node6&#45;&gt;Node28</title>
<path fill="none" stroke="#63b8ff" d="M272.54,-682.96C277.97,-680.33 282.97,-676.92 287,-672.5 342.85,-611.25 270.02,-553.25 323,-489.5 326.23,-485.62 330.04,-482.26 334.21,-479.34"/>
<polygon fill="#63b8ff" stroke="#63b8ff" points="271.13,-679.76 263.12,-686.69 273.7,-686.27 271.13,-679.76"/>
</g>
<!-- Node6&#45;&gt;Node29 -->
<g id="edge40" class="edge">
<title>Node6&#45;&gt;Node29</title>
<path fill="none" stroke="#63b8ff" d="M272.54,-683.24C278.01,-680.57 283.02,-677.07 287,-672.5 358.37,-590.46 255.46,-515.72 323,-430.5 325.54,-427.29 328.49,-424.44 331.71,-421.9"/>
<polygon fill="#63b8ff" stroke="#63b8ff" points="271.03,-680.08 263.01,-687 273.6,-686.59 271.03,-680.08"/>
</g>
<!-- Node6&#45;&gt;Node30 -->
<g id="edge41" class="edge">
<title>Node6&#45;&gt;Node30</title>
<path fill="none" stroke="#63b8ff" d="M272.67,-683.35C278.11,-680.66 283.09,-677.13 287,-672.5 373.97,-569.6 244.57,-481.05 323,-371.5 328.24,-364.19 335.42,-358.34 343.24,-353.69"/>
<polygon fill="#63b8ff" stroke="#63b8ff" points="271.16,-680.18 263.16,-687.13 273.74,-686.69 271.16,-680.18"/>
</g>
<!-- Node6&#45;&gt;Node31 -->
<g id="edge42" class="edge">
<title>Node6&#45;&gt;Node31</title>
<path fill="none" stroke="#63b8ff" d="M272.77,-683.43C278.2,-680.73 283.14,-677.17 287,-672.5 339.76,-608.64 273.61,-368 323,-301.5 326.19,-297.21 330.1,-293.53 334.43,-290.38"/>
<polygon fill="#63b8ff" stroke="#63b8ff" points="271.26,-680.26 263.27,-687.22 273.86,-686.76 271.26,-680.26"/>
</g>
<!-- Node6&#45;&gt;Node32 -->
<g id="edge43" class="edge">
<title>Node6&#45;&gt;Node32</title>
<path fill="none" stroke="#63b8ff" d="M236.23,-709.3C254.26,-731.8 287.79,-770.68 323,-796.5 328.36,-800.43 334.21,-804.13 340.19,-807.55"/>
<polygon fill="#63b8ff" stroke="#63b8ff" points="238.84,-706.96 229.9,-701.28 233.35,-711.3 238.84,-706.96"/>
</g>
<!-- Node6&#45;&gt;Node33 -->
<g id="edge44" class="edge">
<title>Node6&#45;&gt;Node33</title>
<path fill="none" stroke="#63b8ff" d="M251.98,-705.37C271.94,-714.66 298.95,-727.06 323,-737.5 330.16,-740.61 337.76,-743.82 345.23,-746.94"/>
<polygon fill="#63b8ff" stroke="#63b8ff" points="253.34,-702.14 242.8,-701.07 250.38,-708.48 253.34,-702.14"/>
</g>
<!-- Node6&#45;&gt;Node34 -->
<g id="edge45" class="edge">
<title>Node6&#45;&gt;Node34</title>
<path fill="none" stroke="#63b8ff" d="M273.17,-696.46C292.25,-698.33 314.18,-700.48 334.17,-702.44"/>
<polygon fill="#63b8ff" stroke="#63b8ff" points="273.47,-692.98 263.18,-695.49 272.79,-699.94 273.47,-692.98"/>
</g>
<!-- Node6&#45;&gt;Node35 -->
<g id="edge46" class="edge">
<title>Node6&#45;&gt;Node35</title>
<path fill="none" stroke="#63b8ff" d="M266.87,-679.22C288.02,-673.37 313.61,-666.29 336.41,-659.99"/>
<polygon fill="#63b8ff" stroke="#63b8ff" points="265.9,-675.86 257.19,-681.9 267.76,-682.61 265.9,-675.86"/>
</g>
<!-- Node6&#45;&gt;Node36 -->
<g id="edge47" class="edge">
<title>Node6&#45;&gt;Node36</title>
<path fill="none" stroke="#63b8ff" d="M272.53,-681.09C277.71,-678.78 282.66,-675.95 287,-672.5 312.53,-652.17 298.55,-630.12 323,-608.5 326.9,-605.05 331.25,-601.96 335.83,-599.21"/>
<polygon fill="#63b8ff" stroke="#63b8ff" points="271.12,-677.89 263.03,-684.73 273.62,-684.42 271.12,-677.89"/>
</g>
<!-- Node6&#45;&gt;Node37 -->
<g id="edge48" class="edge">
<title>Node6&#45;&gt;Node37</title>
<path fill="none" stroke="#63b8ff" d="M272.38,-682.52C277.79,-679.96 282.83,-676.69 287,-672.5 327.5,-631.84 284.41,-590.97 323,-548.5 326.3,-544.87 330.12,-541.68 334.24,-538.89"/>
<polygon fill="#63b8ff" stroke="#63b8ff" points="271.06,-679.27 263.03,-686.18 273.62,-685.79 271.06,-679.27"/>
</g>
<!-- Node7 -->
<g id="node25" class="node">
<title>Node7</title>
<g id="a_node25"><a xlink:href="structelc_1_1defs_1_1core_1_1base__binary__function__node.html" target="_top" xlink:title=" ">
<polygon fill="white" stroke="#666666" points="453.5,-232.5 340.5,-232.5 340.5,-202.5 453.5,-202.5 453.5,-232.5"/>
<text text-anchor="start" x="348.5" y="-220.5" font-family="Helvetica,sans-Serif" font-size="10.00">elc::defs::core::base</text>
<text text-anchor="middle" x="397" y="-209.5" font-family="Helvetica,sans-Serif" font-size="10.00">_binary_function_node</text>
</a>
</g>
</g>
<!-- Node6&#45;&gt;Node7 -->
<g id="edge24" class="edge">
<title>Node6&#45;&gt;Node7</title>
<path fill="none" stroke="#63b8ff" d="M272.62,-683.58C278.13,-680.86 283.13,-677.25 287,-672.5 347.72,-598 263.45,-316.94 323,-241.5 327.63,-235.64 333.73,-231.19 340.43,-227.82"/>
<polygon fill="#63b8ff" stroke="#63b8ff" points="271.02,-680.45 263,-687.38 273.59,-686.96 271.02,-680.45"/>
</g>
<!-- Node9 -->
<g id="node26" class="node">
<title>Node9</title>
<g id="a_node26"><a xlink:href="structelc_1_1defs_1_1core_1_1base__constexpr__t.html" target="_top" xlink:title=" ">
<polygon fill="white" stroke="#666666" points="449.5,-61.5 344.5,-61.5 344.5,-31.5 449.5,-31.5 449.5,-61.5"/>
<text text-anchor="start" x="352.5" y="-49.5" font-family="Helvetica,sans-Serif" font-size="10.00">elc::defs::core::base</text>
<text text-anchor="middle" x="397" y="-38.5" font-family="Helvetica,sans-Serif" font-size="10.00">_constexpr_t</text>
</a>
</g>
</g>
<!-- Node6&#45;&gt;Node9 -->
<g id="edge25" class="edge">
<title>Node6&#45;&gt;Node9</title>
<path fill="none" stroke="#63b8ff" d="M272.73,-683.67C278.22,-680.93 283.18,-677.3 287,-672.5 370.44,-567.62 241.21,-176.66 323,-70.5 328.46,-63.42 336.06,-58.4 344.3,-54.85"/>
<polygon fill="#63b8ff" stroke="#63b8ff" points="271.13,-680.54 263.13,-687.48 273.71,-687.04 271.13,-680.54"/>
</g>
<!-- Node14 -->
<g id="node30" class="node">
<title>Node14</title>
<g id="a_node30"><a xlink:href="structelc_1_1defs_1_1core_1_1binary__node__t.html" target="_top" xlink:title=" ">
<polygon fill="white" stroke="#666666" points="623.5,-518.5 513.5,-518.5 513.5,-488.5 623.5,-488.5 623.5,-518.5"/>
<text text-anchor="start" x="521.5" y="-506.5" font-family="Helvetica,sans-Serif" font-size="10.00">elc::defs::core::binary</text>
<text text-anchor="middle" x="568.5" y="-495.5" font-family="Helvetica,sans-Serif" font-size="10.00">_node_t&lt; T &gt;</text>
</a>
</g>
</g>
<!-- Node6&#45;&gt;Node14 -->
<g id="edge29" class="edge">
<title>Node6&#45;&gt;Node14</title>
<path fill="none" stroke="#63b8ff" d="M226.83,-710.98C236.47,-749.16 263.73,-833.09 323,-867.5 379.89,-900.52 419.38,-908.26 471,-867.5 525.15,-824.74 489.57,-783.25 507,-716.5 526.47,-641.92 552.55,-553.51 562.95,-518.68"/>
<polygon fill="#63b8ff" stroke="#63b8ff" points="230.19,-710.02 224.47,-701.1 223.39,-711.64 230.19,-710.02"/>
</g>
<!-- Node17 -->
<g id="node31" class="node">
<title>Node17</title>
<g id="a_node31"><a xlink:href="structelc_1_1defs_1_1core_1_1code__list.html" target="_top" xlink:title=" ">
<polygon fill="white" stroke="#666666" points="630,-877 507,-877 507,-858 630,-858 630,-877"/>
<text text-anchor="middle" x="568.5" y="-865" font-family="Helvetica,sans-Serif" font-size="10.00">elc::defs::core::code_list</text>
</a>
</g>
</g>
<!-- Node6&#45;&gt;Node17 -->
<g id="edge30" class="edge">
<title>Node6&#45;&gt;Node17</title>
<path fill="none" stroke="#63b8ff" d="M223.96,-711.4C228.62,-758.72 247.67,-877.7 323,-927.5 377.87,-963.77 407.75,-945.56 471,-927.5 505.52,-917.64 539.73,-891.47 556.63,-877.17"/>
<polygon fill="#63b8ff" stroke="#63b8ff" points="227.43,-710.9 223.07,-701.24 220.45,-711.5 227.43,-710.9"/>
</g>
<!-- Node15 -->
<g id="node32" class="node">
<title>Node15</title>
<g id="a_node32"><a xlink:href="structelc_1_1defs_1_1core_1_1common__node.html" target="_top" xlink:title=" ">
<polygon fill="white" stroke="#666666" points="471,-184 323,-184 323,-165 471,-165 471,-184"/>
<text text-anchor="middle" x="397" y="-172" font-family="Helvetica,sans-Serif" font-size="10.00">elc::defs::core::common_node</text>
</a>
</g>
</g>
<!-- Node6&#45;&gt;Node15 -->
<g id="edge31" class="edge">
<title>Node6&#45;&gt;Node15</title>
<path fill="none" stroke="#63b8ff" d="M272.66,-683.61C278.16,-680.88 283.15,-677.27 287,-672.5 354.09,-589.48 254.59,-275.45 323,-193.5 326.19,-189.68 330.04,-186.57 334.29,-184.06"/>
<polygon fill="#63b8ff" stroke="#63b8ff" points="271.06,-680.48 263.05,-687.42 273.63,-686.99 271.06,-680.48"/>
</g>
<!-- Node16 -->
<g id="node33" class="node">
<title>Node16</title>
<g id="a_node33"><a xlink:href="structelc_1_1defs_1_1core_1_1cons.html" target="_top" xlink:title=" ">
<polygon fill="white" stroke="#666666" points="449.5,-147 344.5,-147 344.5,-128 449.5,-128 449.5,-147"/>
<text text-anchor="middle" x="397" y="-135" font-family="Helvetica,sans-Serif" font-size="10.00">elc::defs::core::cons</text>
</a>
</g>
</g>
<!-- Node6&#45;&gt;Node16 -->
<g id="edge32" class="edge">
<title>Node6&#45;&gt;Node16</title>
<path fill="none" stroke="#63b8ff" d="M272.69,-683.63C278.18,-680.9 283.16,-677.28 287,-672.5 359.14,-582.73 248.87,-243.64 323,-155.5 328.55,-148.91 336.08,-144.52 344.22,-141.63"/>
<polygon fill="#63b8ff" stroke="#63b8ff" points="271.08,-680.5 263.08,-687.44 273.66,-687.01 271.08,-680.5"/>
</g>
<!-- Node18 -->
<g id="node34" class="node">
<title>Node18</title>
<g id="a_node34"><a xlink:href="structelc_1_1defs_1_1core_1_1expr.html" target="_top" xlink:title=" ">
<polygon fill="white" stroke="#666666" points="620,-745 517,-745 517,-726 620,-726 620,-745"/>
<text text-anchor="middle" x="568.5" y="-733" font-family="Helvetica,sans-Serif" font-size="10.00">elc::defs::core::expr</text>
</a>
</g>
</g>
<!-- Node6&#45;&gt;Node18 -->
<g id="edge35" class="edge">
<title>Node6&#45;&gt;Node18</title>
<path fill="none" stroke="#63b8ff" d="M225.12,-711.5C232.02,-755.01 255.1,-857.81 323,-900.5 378.69,-935.51 413.94,-933.23 471,-900.5 486.62,-891.54 545.1,-779.21 562.55,-745.2"/>
<polygon fill="#63b8ff" stroke="#63b8ff" points="228.54,-710.73 223.64,-701.34 221.62,-711.74 228.54,-710.73"/>
</g>
<!-- Node10 -->
<g id="node27" class="node">
<title>Node10</title>
<g id="a_node27"><a xlink:href="structelc_1_1defs_1_1core_1_1nil__t.html" target="_top" xlink:title=" ">
<polygon fill="white" stroke="#666666" points="619.5,-93 517.5,-93 517.5,-74 619.5,-74 619.5,-93"/>
<text text-anchor="middle" x="568.5" y="-81" font-family="Helvetica,sans-Serif" font-size="10.00">elc::defs::core::nil_t</text>
</a>
</g>
</g>
<!-- Node9&#45;&gt;Node10 -->
<g id="edge26" class="edge">
<title>Node9&#45;&gt;Node10</title>
<path fill="none" stroke="#63b8ff" d="M459.68,-59.96C480.92,-64.6 504.24,-69.69 523.75,-73.95"/>
<polygon fill="#63b8ff" stroke="#63b8ff" points="460.29,-56.52 449.78,-57.8 458.8,-63.35 460.29,-56.52"/>
</g>
<!-- Node11 -->
<g id="node28" class="node">
<title>Node11</title>
<g id="a_node28"><a xlink:href="structelc_1_1defs_1_1core_1_1t__t.html" target="_top" xlink:title=" ">
<polygon fill="white" stroke="#666666" points="616,-56 521,-56 521,-37 616,-37 616,-56"/>
<text text-anchor="middle" x="568.5" y="-44" font-family="Helvetica,sans-Serif" font-size="10.00">elc::defs::core::t_t</text>
</a>
</g>
</g>
<!-- Node9&#45;&gt;Node11 -->
<g id="edge27" class="edge">
<title>Node9&#45;&gt;Node11</title>
<path fill="none" stroke="#63b8ff" d="M459.82,-46.5C480.01,-46.5 502.07,-46.5 520.93,-46.5"/>
<polygon fill="#63b8ff" stroke="#63b8ff" points="459.78,-43 449.78,-46.5 459.78,-50 459.78,-43"/>
</g>
<!-- Node12 -->
<g id="node29" class="node">
<title>Node12</title>
<g id="a_node29"><a xlink:href="structelc_1_1defs_1_1core_1_1void__t.html" target="_top" xlink:title=" ">
<polygon fill="white" stroke="#666666" points="623,-19 514,-19 514,0 623,0 623,-19"/>
<text text-anchor="middle" x="568.5" y="-7" font-family="Helvetica,sans-Serif" font-size="10.00">elc::defs::core::void_t</text>
</a>
</g>
</g>
<!-- Node9&#45;&gt;Node12 -->
<g id="edge28" class="edge">
<title>Node9&#45;&gt;Node12</title>
<path fill="none" stroke="#63b8ff" d="M459.68,-33.04C480.92,-28.4 504.24,-23.31 523.75,-19.05"/>
<polygon fill="#63b8ff" stroke="#63b8ff" points="458.8,-29.65 449.78,-35.2 460.29,-36.48 458.8,-29.65"/>
</g>
<!-- Node16&#45;&gt;Node17 -->
<g id="edge33" class="edge">
<title>Node16&#45;&gt;Node17</title>
<path fill="none" stroke="#63b8ff" d="M459,-145.71C463.53,-148.26 467.64,-151.47 471,-155.5 513.61,-206.64 488.99,-689.42 507,-753.5 518.7,-795.13 547.15,-838.78 560.44,-857.75"/>
<polygon fill="#63b8ff" stroke="#63b8ff" points="460.39,-142.5 449.83,-141.59 457.52,-148.88 460.39,-142.5"/>
</g>
<!-- Node16&#45;&gt;Node18 -->
<g id="edge34" class="edge">
<title>Node16&#45;&gt;Node18</title>
<path fill="none" stroke="#63b8ff" d="M458.84,-145.84C463.41,-148.36 467.57,-151.53 471,-155.5 525.31,-218.33 491.33,-445.94 507,-527.5 521.97,-605.43 553.36,-696.2 563.94,-725.7"/>
<polygon fill="#63b8ff" stroke="#63b8ff" points="460.2,-142.61 449.64,-141.76 457.36,-149.01 460.2,-142.61"/>
</g>
<!-- Node39 -->
<g id="node35" class="node">
<title>Node39</title>
<g id="a_node35"><a xlink:title=" ">
<polygon fill="#e0e0e0" stroke="#999999" points="120,-1044.5 0,-1044.5 0,-1014.5 120,-1014.5 120,-1044.5"/>
<text text-anchor="start" x="8" y="-1032.5" font-family="Helvetica,sans-Serif" font-size="10.00">type_info_t::template</text>
<text text-anchor="middle" x="60" y="-1021.5" font-family="Helvetica,sans-Serif" font-size="10.00"> with_common_attribute</text>
</a>
</g>
</g>
<!-- Node39&#45;&gt;Node21 -->
<g id="edge49" class="edge">
<title>Node39&#45;&gt;Node21</title>
<path fill="none" stroke="#63b8ff" d="M130.5,-1029.5C143.22,-1029.5 156.3,-1029.5 168.4,-1029.5"/>
<polygon fill="#63b8ff" stroke="#63b8ff" points="130.39,-1026 120.39,-1029.5 130.39,-1033 130.39,-1026"/>
</g>
<!-- Node40 -->
<g id="node36" class="node">
<title>Node40</title>
<g id="a_node36"><a xlink:title=" ">
<polygon fill="#e0e0e0" stroke="#999999" points="120,-1175.5 0,-1175.5 0,-1145.5 120,-1145.5 120,-1175.5"/>
<text text-anchor="start" x="8" y="-1163.5" font-family="Helvetica,sans-Serif" font-size="10.00">type_info_t::template</text>
<text text-anchor="middle" x="60" y="-1152.5" font-family="Helvetica,sans-Serif" font-size="10.00"> with_common_attribute</text>
</a>
</g>
</g>
<!-- Node40&#45;&gt;Node4 -->
<g id="edge50" class="edge">
<title>Node40&#45;&gt;Node4</title>
<path fill="none" stroke="#63b8ff" d="M130.58,-1160.5C139.02,-1160.5 147.61,-1160.5 155.97,-1160.5"/>
<polygon fill="#63b8ff" stroke="#63b8ff" points="130.39,-1157 120.39,-1160.5 130.39,-1164 130.39,-1157"/>
</g>
<!-- Node38 -->
<g id="node37" class="node">
<title>Node38</title>
<g id="a_node37"><a xlink:title=" ">
<polygon fill="#e0e0e0" stroke="#999999" points="120,-593.5 0,-593.5 0,-563.5 120,-563.5 120,-593.5"/>
<text text-anchor="start" x="8" y="-581.5" font-family="Helvetica,sans-Serif" font-size="10.00">type_info_t::template</text>
<text text-anchor="middle" x="60" y="-570.5" font-family="Helvetica,sans-Serif" font-size="10.00"> with_common_attribute</text>
</a>
</g>
</g>
<!-- Node38&#45;&gt;Node27 -->
<g id="edge51" class="edge">
<title>Node38&#45;&gt;Node27</title>
<path fill="none" stroke="#63b8ff" d="M130.54,-578.5C139.99,-578.5 149.63,-578.5 158.93,-578.5"/>
<polygon fill="#63b8ff" stroke="#63b8ff" points="130.39,-575 120.39,-578.5 130.39,-582 130.39,-575"/>
</g>
<!-- Node41 -->
<g id="node38" class="node">
<title>Node41</title>
<g id="a_node38"><a xlink:title=" ">
<polygon fill="#e0e0e0" stroke="#999999" points="281.5,-1234.5 161.5,-1234.5 161.5,-1204.5 281.5,-1204.5 281.5,-1234.5"/>
<text text-anchor="start" x="169.5" y="-1222.5" font-family="Helvetica,sans-Serif" font-size="10.00">type_info_t::template</text>
<text text-anchor="middle" x="221.5" y="-1211.5" font-family="Helvetica,sans-Serif" font-size="10.00"> with_common_attribute</text>
</a>
</g>
</g>
<!-- Node41&#45;&gt;Node3 -->
<g id="edge52" class="edge">
<title>Node41&#45;&gt;Node3</title>
<path fill="none" stroke="#63b8ff" d="M292.1,-1221.91C307.3,-1222.43 323.23,-1222.98 337.92,-1223.49"/>
<polygon fill="#63b8ff" stroke="#63b8ff" points="291.84,-1218.4 281.72,-1221.55 291.6,-1225.39 291.84,-1218.4"/>
</g>
<!-- Node26 -->
<g id="node39" class="node">
<title>Node26</title>
<g id="a_node39"><a xlink:title=" ">
<polygon fill="#e0e0e0" stroke="#999999" points="120,-663.5 0,-663.5 0,-633.5 120,-633.5 120,-663.5"/>
<text text-anchor="start" x="8" y="-651.5" font-family="Helvetica,sans-Serif" font-size="10.00">type_info_t::template</text>
<text text-anchor="middle" x="60" y="-640.5" font-family="Helvetica,sans-Serif" font-size="10.00"> with_common_attribute</text>
</a>
</g>
</g>
<!-- Node26&#45;&gt;Node25 -->
<g id="edge53" class="edge">
<title>Node26&#45;&gt;Node25</title>
<path fill="none" stroke="#63b8ff" d="M130.67,-648.5C144.24,-648.5 158.22,-648.5 170.98,-648.5"/>
<polygon fill="#63b8ff" stroke="#63b8ff" points="130.39,-645 120.39,-648.5 130.39,-652 130.39,-645"/>
</g>
<!-- Node19 -->
<g id="node40" class="node">
<title>Node19</title>
<g id="a_node40"><a xlink:title=" ">
<polygon fill="#e0e0e0" stroke="#999999" points="120,-152.5 0,-152.5 0,-122.5 120,-122.5 120,-152.5"/>
<text text-anchor="start" x="8" y="-140.5" font-family="Helvetica,sans-Serif" font-size="10.00">type_info_t::template</text>
<text text-anchor="middle" x="60" y="-129.5" font-family="Helvetica,sans-Serif" font-size="10.00"> with_common_attribute</text>
</a>
</g>
</g>
<!-- Node8 -->
<g id="node41" class="node">
<title>Node8</title>
<g id="a_node41"><a xlink:href="structelc_1_1defs_1_1core_1_1node__like.html" target="_top" xlink:title=" ">
<polygon fill="white" stroke="#666666" points="284,-147 159,-147 159,-128 284,-128 284,-147"/>
<text text-anchor="middle" x="221.5" y="-135" font-family="Helvetica,sans-Serif" font-size="10.00">elc::defs::core::node_like</text>
</a>
</g>
</g>
<!-- Node19&#45;&gt;Node8 -->
<g id="edge54" class="edge">
<title>Node19&#45;&gt;Node8</title>
<path fill="none" stroke="#63b8ff" d="M130.54,-137.5C139.99,-137.5 149.63,-137.5 158.93,-137.5"/>
<polygon fill="#63b8ff" stroke="#63b8ff" points="130.39,-134 120.39,-137.5 130.39,-141 130.39,-134"/>
</g>
<!-- Node8&#45;&gt;Node7 -->
<g id="edge55" class="edge">
<title>Node8&#45;&gt;Node7</title>
<path fill="none" stroke="#63b8ff" d="M246.84,-152.36C266.83,-164.18 296.13,-180.65 323,-192.5 330.97,-196.01 339.59,-199.35 348.03,-202.38"/>
<polygon fill="#63b8ff" stroke="#63b8ff" points="248.47,-149.25 238.09,-147.12 244.88,-155.26 248.47,-149.25"/>
</g>
<!-- Node8&#45;&gt;Node9 -->
<g id="edge56" class="edge">
<title>Node8&#45;&gt;Node9</title>
<path fill="none" stroke="#63b8ff" d="M242.7,-121.64C262.32,-106.83 293.4,-84.9 323,-70.5 329.72,-67.23 336.99,-64.24 344.25,-61.57"/>
<polygon fill="#63b8ff" stroke="#63b8ff" points="240.35,-119.03 234.54,-127.89 244.6,-124.59 240.35,-119.03"/>
</g>
<!-- Node8&#45;&gt;Node15 -->
<g id="edge59" class="edge">
<title>Node8&#45;&gt;Node15</title>
<path fill="none" stroke="#63b8ff" d="M277.14,-149.15C300.97,-154.23 328.57,-160.12 351.17,-164.94"/>
<polygon fill="#63b8ff" stroke="#63b8ff" points="277.69,-145.69 267.18,-147.03 276.23,-152.54 277.69,-145.69"/>
</g>
<!-- Node8&#45;&gt;Node16 -->
<g id="edge60" class="edge">
<title>Node8&#45;&gt;Node16</title>
<path fill="none" stroke="#63b8ff" d="M294.45,-137.5C311.17,-137.5 328.64,-137.5 344.29,-137.5"/>
<polygon fill="#63b8ff" stroke="#63b8ff" points="294.16,-134 284.16,-137.5 294.16,-141 294.16,-134"/>
</g>
<!-- Node13 -->
<g id="node42" class="node">
<title>Node13</title>
<g id="a_node42"><a xlink:href="structelc_1_1defs_1_1core_1_1binary__node__base__t.html" target="_top" xlink:title=" ">
<polygon fill="white" stroke="#666666" points="452,-109.5 342,-109.5 342,-79.5 452,-79.5 452,-109.5"/>
<text text-anchor="start" x="350" y="-97.5" font-family="Helvetica,sans-Serif" font-size="10.00">elc::defs::core::binary</text>
<text text-anchor="middle" x="397" y="-86.5" font-family="Helvetica,sans-Serif" font-size="10.00">_node_base_t</text>
</a>
</g>
</g>
<!-- Node8&#45;&gt;Node13 -->
<g id="edge57" class="edge">
<title>Node8&#45;&gt;Node13</title>
<path fill="none" stroke="#63b8ff" d="M270.82,-125.52C292.88,-120.06 319.09,-113.56 341.81,-107.93"/>
<polygon fill="#63b8ff" stroke="#63b8ff" points="269.87,-122.15 261.01,-127.96 271.55,-128.95 269.87,-122.15"/>
</g>
<!-- Node13&#45;&gt;Node14 -->
<g id="edge58" class="edge">
<title>Node13&#45;&gt;Node14</title>
<path fill="none" stroke="#63b8ff" d="M461.16,-110.28C464.76,-112.64 468.09,-115.37 471,-118.5 523.22,-174.62 557.56,-424.02 565.66,-488.33"/>
<polygon fill="#63b8ff" stroke="#63b8ff" points="462.8,-107.18 452.36,-105.37 459.39,-113.3 462.8,-107.18"/>
</g>
</g>
</svg>
