<?xml version="1.0" encoding="UTF-8" standalone="no"?>
<!DOCTYPE svg PUBLIC "-//W3C//DTD SVG 1.1//EN"
 "http://www.w3.org/Graphics/SVG/1.1/DTD/svg11.dtd">
<!-- Generated by graphviz version 6.0.1 (20220911.1526)
 -->
<!-- Title: 类继承关系图 Pages: 1 -->
<svg width="330pt" height="293pt"
 viewBox="0.00 0.00 330.00 293.00" xmlns="http://www.w3.org/2000/svg" xmlns:xlink="http://www.w3.org/1999/xlink">
<g id="graph0" class="graph" transform="scale(1 1) rotate(0) translate(4 289)">
<title>类继承关系图</title>
<!-- Node0 -->
<g id="node1" class="node">
<title>Node0</title>
<g id="a_node1"><a xlink:title=" ">
<polygon fill="#e0e0e0" stroke="#999999" points="121,-198 0,-198 0,-168 121,-168 121,-198"/>
<text text-anchor="start" x="8" y="-186" font-family="Helvetica,sans-Serif" font-size="10.00">common_attribute_pack</text>
<text text-anchor="middle" x="60.5" y="-175" font-family="Helvetica,sans-Serif" font-size="10.00">::template on_type</text>
</a>
</g>
</g>
<!-- Node1 -->
<g id="node2" class="node">
<title>Node1</title>
<g id="a_node2"><a xlink:href="structelc_1_1defs_1_1base_1_1type__info__t_1_1with__common__attribute.html" target="_top" xlink:title=" ">
<polygon fill="white" stroke="#666666" points="311.5,-285 167.5,-285 167.5,-233 311.5,-233 311.5,-285"/>
<text text-anchor="start" x="175.5" y="-273" font-family="Helvetica,sans-Serif" font-size="10.00">elc::defs::base::type</text>
<text text-anchor="start" x="175.5" y="-262" font-family="Helvetica,sans-Serif" font-size="10.00">_info_t&lt; T &gt;::with_common</text>
<text text-anchor="start" x="175.5" y="-251" font-family="Helvetica,sans-Serif" font-size="10.00">_attribute&lt; common_attribute</text>
<text text-anchor="middle" x="239.5" y="-240" font-family="Helvetica,sans-Serif" font-size="10.00">_names &gt;</text>
</a>
</g>
</g>
<!-- Node0&#45;&gt;Node1 -->
<g id="edge1" class="edge">
<title>Node0&#45;&gt;Node1</title>
<path fill="none" stroke="#63b8ff" d="M105.8,-202.02C127.57,-211.37 154.15,-222.78 177.79,-232.93"/>
<polygon fill="#63b8ff" stroke="#63b8ff" points="107.04,-198.74 96.47,-198.02 104.28,-205.18 107.04,-198.74"/>
</g>
<!-- Node2 -->
<g id="node3" class="node">
<title>Node2</title>
<g id="a_node3"><a xlink:href="structelc_1_1defs_1_1base_1_1type__info__t_1_1with__common__attribute_1_1and__special__attribute.html" target="_top" xlink:title=" ">
<polygon fill="white" stroke="#666666" points="318.5,-214.5 160.5,-214.5 160.5,-151.5 318.5,-151.5 318.5,-214.5"/>
<text text-anchor="start" x="168.5" y="-202.5" font-family="Helvetica,sans-Serif" font-size="10.00">elc::defs::base::type</text>
<text text-anchor="start" x="168.5" y="-191.5" font-family="Helvetica,sans-Serif" font-size="10.00">_info_t&lt; T &gt;::with_common</text>
<text text-anchor="start" x="168.5" y="-180.5" font-family="Helvetica,sans-Serif" font-size="10.00">_attribute&lt; common_attribute</text>
<text text-anchor="start" x="168.5" y="-169.5" font-family="Helvetica,sans-Serif" font-size="10.00">_names &gt;::and_special_attribute</text>
<text text-anchor="middle" x="239.5" y="-158.5" font-family="Helvetica,sans-Serif" font-size="10.00">&lt; special_attribute_names &gt;</text>
</a>
</g>
</g>
<!-- Node0&#45;&gt;Node2 -->
<g id="edge2" class="edge">
<title>Node0&#45;&gt;Node2</title>
<path fill="none" stroke="#63b8ff" d="M131.57,-183C141.05,-183 150.83,-183 160.44,-183"/>
<polygon fill="#63b8ff" stroke="#63b8ff" points="131.42,-179.5 121.42,-183 131.42,-186.5 131.42,-179.5"/>
</g>
<!-- Node5 -->
<g id="node4" class="node">
<title>Node5</title>
<g id="a_node4"><a xlink:href="structelc_1_1defs_1_1base_1_1type__info__t_1_1with__special__attribute_1_1and__common__attribute.html" target="_top" xlink:title=" ">
<polygon fill="white" stroke="#666666" points="322,-133.5 157,-133.5 157,-70.5 322,-70.5 322,-133.5"/>
<text text-anchor="start" x="165" y="-121.5" font-family="Helvetica,sans-Serif" font-size="10.00">elc::defs::base::type</text>
<text text-anchor="start" x="165" y="-110.5" font-family="Helvetica,sans-Serif" font-size="10.00">_info_t&lt; T &gt;::with_special</text>
<text text-anchor="start" x="165" y="-99.5" font-family="Helvetica,sans-Serif" font-size="10.00">_attribute&lt; special_attribute</text>
<text text-anchor="start" x="165" y="-88.5" font-family="Helvetica,sans-Serif" font-size="10.00">_names &gt;::and_common_attribute</text>
<text text-anchor="middle" x="239.5" y="-77.5" font-family="Helvetica,sans-Serif" font-size="10.00">&lt; common_attribute_names &gt;</text>
</a>
</g>
</g>
<!-- Node0&#45;&gt;Node5 -->
<g id="edge3" class="edge">
<title>Node0&#45;&gt;Node5</title>
<path fill="none" stroke="#63b8ff" d="M103.67,-163.7C123.35,-154.69 147.29,-143.74 169.51,-133.57"/>
<polygon fill="#63b8ff" stroke="#63b8ff" points="102.01,-160.61 94.38,-167.95 104.93,-166.98 102.01,-160.61"/>
</g>
<!-- Node3 -->
<g id="node5" class="node">
<title>Node3</title>
<g id="a_node5"><a xlink:title=" ">
<polygon fill="#e0e0e0" stroke="#999999" points="117.5,-117 3.5,-117 3.5,-87 117.5,-87 117.5,-117"/>
<text text-anchor="start" x="11.5" y="-105" font-family="Helvetica,sans-Serif" font-size="10.00">special_attribute_pack</text>
<text text-anchor="middle" x="60.5" y="-94" font-family="Helvetica,sans-Serif" font-size="10.00">::template on_type</text>
</a>
</g>
</g>
<!-- Node3&#45;&gt;Node2 -->
<g id="edge4" class="edge">
<title>Node3&#45;&gt;Node2</title>
<path fill="none" stroke="#63b8ff" d="M103.67,-121.3C123.35,-130.31 147.29,-141.26 169.51,-151.43"/>
<polygon fill="#63b8ff" stroke="#63b8ff" points="104.93,-118.02 94.38,-117.05 102.01,-124.39 104.93,-118.02"/>
</g>
<!-- Node3&#45;&gt;Node5 -->
<g id="edge6" class="edge">
<title>Node3&#45;&gt;Node5</title>
<path fill="none" stroke="#63b8ff" d="M127.7,-102C137.26,-102 147.18,-102 156.99,-102"/>
<polygon fill="#63b8ff" stroke="#63b8ff" points="127.5,-98.5 117.5,-102 127.5,-105.5 127.5,-98.5"/>
</g>
<!-- Node4 -->
<g id="node6" class="node">
<title>Node4</title>
<g id="a_node6"><a xlink:href="structelc_1_1defs_1_1base_1_1type__info__t_1_1with__special__attribute.html" target="_top" xlink:title=" ">
<polygon fill="white" stroke="#666666" points="308,-52 171,-52 171,0 308,0 308,-52"/>
<text text-anchor="start" x="179" y="-40" font-family="Helvetica,sans-Serif" font-size="10.00">elc::defs::base::type</text>
<text text-anchor="start" x="179" y="-29" font-family="Helvetica,sans-Serif" font-size="10.00">_info_t&lt; T &gt;::with_special</text>
<text text-anchor="start" x="179" y="-18" font-family="Helvetica,sans-Serif" font-size="10.00">_attribute&lt; special_attribute</text>
<text text-anchor="middle" x="239.5" y="-7" font-family="Helvetica,sans-Serif" font-size="10.00">_names &gt;</text>
</a>
</g>
</g>
<!-- Node3&#45;&gt;Node4 -->
<g id="edge5" class="edge">
<title>Node3&#45;&gt;Node4</title>
<path fill="none" stroke="#63b8ff" d="M105.8,-82.98C127.57,-73.63 154.15,-62.22 177.79,-52.07"/>
<polygon fill="#63b8ff" stroke="#63b8ff" points="104.28,-79.82 96.47,-86.98 107.04,-86.26 104.28,-79.82"/>
</g>
</g>
</svg>
