<?xml version="1.0" encoding="UTF-8" standalone="no"?>
<!DOCTYPE svg PUBLIC "-//W3C//DTD SVG 1.1//EN"
 "http://www.w3.org/Graphics/SVG/1.1/DTD/svg11.dtd">
<!-- Generated by graphviz version 6.0.1 (20220911.1526)
 -->
<!-- Title: 类继承关系图 Pages: 1 -->
<svg width="629pt" height="722pt"
 viewBox="0.00 0.00 629.00 721.50" xmlns="http://www.w3.org/2000/svg" xmlns:xlink="http://www.w3.org/1999/xlink">
<g id="graph0" class="graph" transform="scale(1 1) rotate(0) translate(4 717.5)">
<title>类继承关系图</title>
<!-- Node0 -->
<g id="node1" class="node">
<title>Node0</title>
<g id="a_node1"><a xlink:href="structelc_1_1defs_1_1base_1_1attribute.html" target="_top" xlink:title=" ">
<polygon fill="white" stroke="#666666" points="272,-624.5 150,-624.5 150,-594.5 272,-594.5 272,-624.5"/>
<text text-anchor="start" x="158" y="-612.5" font-family="Helvetica,sans-Serif" font-size="10.00">elc::defs::base::attribute</text>
<text text-anchor="middle" x="211" y="-601.5" font-family="Helvetica,sans-Serif" font-size="10.00">&lt; T, attribute_name &gt;</text>
</a>
</g>
</g>
<!-- Node1 -->
<g id="node2" class="node">
<title>Node1</title>
<g id="a_node2"><a xlink:href="structelc_1_1defs_1_1base_1_1cons__t.html" target="_top" xlink:title=" ">
<polygon fill="white" stroke="#666666" points="438.5,-557.5 317.5,-557.5 317.5,-527.5 438.5,-527.5 438.5,-557.5"/>
<text text-anchor="start" x="325.5" y="-545.5" font-family="Helvetica,sans-Serif" font-size="10.00">elc::defs::base::cons</text>
<text text-anchor="middle" x="378" y="-534.5" font-family="Helvetica,sans-Serif" font-size="10.00">_t&lt; can_map_all&lt; T &gt; &gt;</text>
</a>
</g>
</g>
<!-- Node0&#45;&gt;Node1 -->
<g id="edge1" class="edge">
<title>Node0&#45;&gt;Node1</title>
<path fill="none" stroke="#63b8ff" d="M261.24,-590.56C265.24,-588.89 269.2,-587.19 273,-585.5 289.34,-578.22 292.58,-574.6 309,-567.5 316.97,-564.06 325.58,-560.65 333.91,-557.52"/>
<polygon fill="#63b8ff" stroke="#63b8ff" points="259.84,-587.35 251.92,-594.38 262.5,-593.83 259.84,-587.35"/>
</g>
<!-- Node5 -->
<g id="node4" class="node">
<title>Node5</title>
<g id="a_node4"><a xlink:href="structelc_1_1defs_1_1base_1_1cons__t.html" target="_top" xlink:title=" ">
<polygon fill="white" stroke="#666666" points="443,-617 313,-617 313,-576 443,-576 443,-617"/>
<text text-anchor="start" x="321" y="-605" font-family="Helvetica,sans-Serif" font-size="10.00">elc::defs::base::cons</text>
<text text-anchor="start" x="321" y="-594" font-family="Helvetica,sans-Serif" font-size="10.00">_t&lt; elc::defs::memory</text>
<text text-anchor="middle" x="378" y="-583" font-family="Helvetica,sans-Serif" font-size="10.00">::others_n::can_map_all &gt;</text>
</a>
</g>
</g>
<!-- Node0&#45;&gt;Node5 -->
<g id="edge3" class="edge">
<title>Node0&#45;&gt;Node5</title>
<path fill="none" stroke="#63b8ff" d="M282.12,-603.98C292.32,-603.17 302.77,-602.35 312.84,-601.56"/>
<polygon fill="#63b8ff" stroke="#63b8ff" points="281.73,-600.5 272.04,-604.77 282.28,-607.47 281.73,-600.5"/>
</g>
<!-- Node2 -->
<g id="node3" class="node">
<title>Node2</title>
<g id="a_node3"><a xlink:href="structelc_1_1defs_1_1memory_1_1others__n_1_1can__map__all.html" target="_top" xlink:title=" ">
<polygon fill="white" stroke="#666666" points="621,-611.5 483,-611.5 483,-581.5 621,-581.5 621,-611.5"/>
<text text-anchor="start" x="491" y="-599.5" font-family="Helvetica,sans-Serif" font-size="10.00">elc::defs::memory::</text>
<text text-anchor="middle" x="552" y="-588.5" font-family="Helvetica,sans-Serif" font-size="10.00">others_n::can_map_all&lt; T &gt;</text>
</a>
</g>
</g>
<!-- Node1&#45;&gt;Node2 -->
<g id="edge2" class="edge">
<title>Node1&#45;&gt;Node2</title>
<path fill="none" stroke="#63b8ff" d="M436.61,-560.59C458.18,-567.36 482.44,-574.98 503.05,-581.45"/>
<polygon fill="#63b8ff" stroke="#63b8ff" points="437.5,-557.2 426.91,-557.54 435.4,-563.88 437.5,-557.2"/>
</g>
<!-- Node3 -->
<g id="node5" class="node">
<title>Node3</title>
<g id="a_node5"><a xlink:href="structelc_1_1defs_1_1base_1_1attribute.html" target="_top" xlink:title=" ">
<polygon fill="white" stroke="#666666" points="440,-665.5 316,-665.5 316,-635.5 440,-635.5 440,-665.5"/>
<text text-anchor="start" x="324" y="-653.5" font-family="Helvetica,sans-Serif" font-size="10.00">elc::defs::base::attribute</text>
<text text-anchor="middle" x="378" y="-642.5" font-family="Helvetica,sans-Serif" font-size="10.00">&lt; T, can_map_all&lt; T &gt; &gt;</text>
</a>
</g>
</g>
<!-- Node3&#45;&gt;Node2 -->
<g id="edge4" class="edge">
<title>Node3&#45;&gt;Node2</title>
<path fill="none" stroke="#63b8ff" d="M436.61,-632.41C458.18,-625.64 482.44,-618.02 503.05,-611.55"/>
<polygon fill="#63b8ff" stroke="#63b8ff" points="435.4,-629.12 426.91,-635.46 437.5,-635.8 435.4,-629.12"/>
</g>
<!-- Node8 -->
<g id="node6" class="node">
<title>Node8</title>
<g id="a_node6"><a xlink:href="structelc_1_1defs_1_1base_1_1attribute.html" target="_top" xlink:title=" ">
<polygon fill="white" stroke="#666666" points="272,-713.5 150,-713.5 150,-683.5 272,-683.5 272,-713.5"/>
<text text-anchor="start" x="158" y="-701.5" font-family="Helvetica,sans-Serif" font-size="10.00">elc::defs::base::attribute</text>
<text text-anchor="middle" x="211" y="-690.5" font-family="Helvetica,sans-Serif" font-size="10.00">&lt; T, cons_t&lt; T &gt; &gt;</text>
</a>
</g>
</g>
<!-- Node7 -->
<g id="node7" class="node">
<title>Node7</title>
<g id="a_node7"><a xlink:href="structelc_1_1defs_1_1base_1_1cons__t.html" target="_top" xlink:title=" ">
<polygon fill="white" stroke="#666666" points="431.5,-713.5 324.5,-713.5 324.5,-683.5 431.5,-683.5 431.5,-713.5"/>
<text text-anchor="start" x="332.5" y="-701.5" font-family="Helvetica,sans-Serif" font-size="10.00">elc::defs::base::cons</text>
<text text-anchor="middle" x="378" y="-690.5" font-family="Helvetica,sans-Serif" font-size="10.00">_t&lt; T &gt;</text>
</a>
</g>
</g>
<!-- Node8&#45;&gt;Node7 -->
<g id="edge5" class="edge">
<title>Node8&#45;&gt;Node7</title>
<path fill="none" stroke="#63b8ff" d="M282.21,-698.5C296.34,-698.5 310.97,-698.5 324.37,-698.5"/>
<polygon fill="#63b8ff" stroke="#63b8ff" points="282.04,-695 272.04,-698.5 282.04,-702 282.04,-695"/>
</g>
<!-- Node16 -->
<g id="node8" class="node">
<title>Node16</title>
<g id="a_node8"><a xlink:href="structelc_1_1defs_1_1base_1_1attribute.html" target="_top" xlink:title=" ">
<polygon fill="white" stroke="#666666" points="439,-401.5 317,-401.5 317,-371.5 439,-371.5 439,-401.5"/>
<text text-anchor="start" x="325" y="-389.5" font-family="Helvetica,sans-Serif" font-size="10.00">elc::defs::base::attribute</text>
<text text-anchor="middle" x="378" y="-378.5" font-family="Helvetica,sans-Serif" font-size="10.00">&lt; T, ref_able&lt; T &gt; &gt;</text>
</a>
</g>
</g>
<!-- Node15 -->
<g id="node9" class="node">
<title>Node15</title>
<g id="a_node9"><a xlink:href="classelc_1_1defs_1_1memory_1_1ptr__n_1_1ref__able.html" target="_top" xlink:title=" ">
<polygon fill="white" stroke="#666666" points="602.5,-401.5 501.5,-401.5 501.5,-371.5 602.5,-371.5 602.5,-401.5"/>
<text text-anchor="start" x="509.5" y="-389.5" font-family="Helvetica,sans-Serif" font-size="10.00">elc::defs::memory::</text>
<text text-anchor="middle" x="552" y="-378.5" font-family="Helvetica,sans-Serif" font-size="10.00">ptr_n::ref_able&lt; T &gt;</text>
</a>
</g>
</g>
<!-- Node16&#45;&gt;Node15 -->
<g id="edge6" class="edge">
<title>Node16&#45;&gt;Node15</title>
<path fill="none" stroke="#63b8ff" d="M449.32,-386.5C466.79,-386.5 485.16,-386.5 501.4,-386.5"/>
<polygon fill="#63b8ff" stroke="#63b8ff" points="449.16,-383 439.16,-386.5 449.16,-390 449.16,-383"/>
</g>
<!-- Node13 -->
<g id="node10" class="node">
<title>Node13</title>
<g id="a_node10"><a xlink:href="structelc_1_1defs_1_1base_1_1attribute.html" target="_top" xlink:title=" ">
<polygon fill="white" stroke="#666666" points="273,-490.5 149,-490.5 149,-460.5 273,-460.5 273,-490.5"/>
<text text-anchor="start" x="157" y="-478.5" font-family="Helvetica,sans-Serif" font-size="10.00">elc::defs::base::attribute</text>
<text text-anchor="middle" x="211" y="-467.5" font-family="Helvetica,sans-Serif" font-size="10.00">&lt; T, replace_able&lt; T &gt; &gt;</text>
</a>
</g>
</g>
<!-- Node12 -->
<g id="node11" class="node">
<title>Node12</title>
<g id="a_node11"><a xlink:href="structelc_1_1defs_1_1memory_1_1others__n_1_1replace__able.html" target="_top" xlink:title=" ">
<polygon fill="white" stroke="#666666" points="447,-509.5 309,-509.5 309,-479.5 447,-479.5 447,-509.5"/>
<text text-anchor="start" x="317" y="-497.5" font-family="Helvetica,sans-Serif" font-size="10.00">elc::defs::memory::</text>
<text text-anchor="middle" x="378" y="-486.5" font-family="Helvetica,sans-Serif" font-size="10.00">others_n::replace_able&lt; T &gt;</text>
</a>
</g>
</g>
<!-- Node13&#45;&gt;Node12 -->
<g id="edge7" class="edge">
<title>Node13&#45;&gt;Node12</title>
<path fill="none" stroke="#63b8ff" d="M283.58,-483.74C291.97,-484.71 300.51,-485.69 308.85,-486.65"/>
<polygon fill="#63b8ff" stroke="#63b8ff" points="283.77,-480.24 273.44,-482.57 282.97,-487.2 283.77,-480.24"/>
</g>
<!-- Node20 -->
<g id="node12" class="node">
<title>Node20</title>
<g id="a_node12"><a xlink:href="structelc_1_1defs_1_1base_1_1attribute.html" target="_top" xlink:title=" ">
<polygon fill="white" stroke="#666666" points="443.5,-185.5 312.5,-185.5 312.5,-155.5 443.5,-155.5 443.5,-185.5"/>
<text text-anchor="start" x="320.5" y="-173.5" font-family="Helvetica,sans-Serif" font-size="10.00">elc::defs::base::attribute</text>
<text text-anchor="middle" x="378" y="-162.5" font-family="Helvetica,sans-Serif" font-size="10.00">&lt; T, weak_ref_able&lt; T &gt; &gt;</text>
</a>
</g>
</g>
<!-- Node19 -->
<g id="node13" class="node">
<title>Node19</title>
<g id="a_node13"><a xlink:href="classelc_1_1defs_1_1memory_1_1ptr__n_1_1weak__ref__able.html" target="_top" xlink:title=" ">
<polygon fill="white" stroke="#666666" points="616.5,-293.5 487.5,-293.5 487.5,-263.5 616.5,-263.5 616.5,-293.5"/>
<text text-anchor="start" x="495.5" y="-281.5" font-family="Helvetica,sans-Serif" font-size="10.00">elc::defs::memory::</text>
<text text-anchor="middle" x="552" y="-270.5" font-family="Helvetica,sans-Serif" font-size="10.00">ptr_n::weak_ref_able&lt; T &gt;</text>
</a>
</g>
</g>
<!-- Node20&#45;&gt;Node19 -->
<g id="edge8" class="edge">
<title>Node20&#45;&gt;Node19</title>
<path fill="none" stroke="#63b8ff" d="M435.4,-189.6C439.4,-191.45 443.3,-193.42 447,-195.5 481.22,-214.77 515.85,-245.05 535.26,-263.22"/>
<polygon fill="#63b8ff" stroke="#63b8ff" points="436.55,-186.28 425.98,-185.51 433.76,-192.7 436.55,-186.28"/>
</g>
<!-- Node17 -->
<g id="node14" class="node">
<title>Node17</title>
<g id="a_node14"><a xlink:href="classelc_1_1defs_1_1base_1_1null__ptr__n_1_1can__t__use__default__null__ptr.html" target="_top" xlink:title=" ">
<polygon fill="white" stroke="#666666" points="442,-353 314,-353 314,-312 442,-312 442,-353"/>
<text text-anchor="start" x="322" y="-341" font-family="Helvetica,sans-Serif" font-size="10.00">elc::defs::base::null</text>
<text text-anchor="start" x="322" y="-330" font-family="Helvetica,sans-Serif" font-size="10.00">_ptr_n::can_t_use_default</text>
<text text-anchor="middle" x="378" y="-319" font-family="Helvetica,sans-Serif" font-size="10.00">_null_ptr</text>
</a>
</g>
</g>
<!-- Node17&#45;&gt;Node15 -->
<g id="edge10" class="edge">
<title>Node17&#45;&gt;Node15</title>
<path fill="none" stroke="#63b8ff" d="M451.62,-355.3C468.99,-360.75 487.1,-366.44 503.03,-371.44"/>
<polygon fill="#63b8ff" stroke="#63b8ff" points="452.66,-351.96 442.07,-352.3 450.56,-358.64 452.66,-351.96"/>
</g>
<!-- Node17&#45;&gt;Node19 -->
<g id="edge11" class="edge">
<title>Node17&#45;&gt;Node19</title>
<path fill="none" stroke="#63b8ff" d="M451.62,-309.7C468.99,-304.25 487.1,-298.56 503.03,-293.56"/>
<polygon fill="#63b8ff" stroke="#63b8ff" points="450.56,-306.36 442.07,-312.7 452.66,-313.04 450.56,-306.36"/>
</g>
<!-- Node18 -->
<g id="node15" class="node">
<title>Node18</title>
<g id="a_node15"><a xlink:href="classelc_1_1defs_1_1base_1_1null__ptr__n_1_1force__use__default__null__ptr.html" target="_top" xlink:title=" ">
<polygon fill="white" stroke="#666666" points="614.5,-353 489.5,-353 489.5,-312 614.5,-312 614.5,-353"/>
<text text-anchor="start" x="497.5" y="-341" font-family="Helvetica,sans-Serif" font-size="10.00">elc::defs::base::null</text>
<text text-anchor="start" x="497.5" y="-330" font-family="Helvetica,sans-Serif" font-size="10.00">_ptr_n::force_use_default</text>
<text text-anchor="middle" x="552" y="-319" font-family="Helvetica,sans-Serif" font-size="10.00">_null_ptr</text>
</a>
</g>
</g>
<!-- Node17&#45;&gt;Node18 -->
<g id="edge9" class="edge">
<title>Node17&#45;&gt;Node18</title>
<path fill="none" stroke="#8b1a1a" d="M452.33,-332.5C464.67,-332.5 477.37,-332.5 489.37,-332.5"/>
<polygon fill="#8b1a1a" stroke="#8b1a1a" points="452.07,-329 442.07,-332.5 452.07,-336 452.07,-329"/>
</g>
<!-- Node25 -->
<g id="node16" class="node">
<title>Node25</title>
<g id="a_node16"><a xlink:href="structelc_1_1defs_1_1base_1_1non__copy__assign__able.html" target="_top" xlink:title=" ">
<polygon fill="white" stroke="#666666" points="107.5,-528.5 5.5,-528.5 5.5,-498.5 107.5,-498.5 107.5,-528.5"/>
<text text-anchor="start" x="13.5" y="-516.5" font-family="Helvetica,sans-Serif" font-size="10.00">elc::defs::base::non</text>
<text text-anchor="middle" x="56.5" y="-505.5" font-family="Helvetica,sans-Serif" font-size="10.00">_copy_assign_able</text>
</a>
</g>
</g>
<!-- Node4 -->
<g id="node17" class="node">
<title>Node4</title>
<g id="a_node17"><a xlink:href="structelc_1_1defs_1_1base_1_1non__copyable.html" target="_top" xlink:title=" ">
<polygon fill="white" stroke="#666666" points="262,-394.5 160,-394.5 160,-364.5 262,-364.5 262,-394.5"/>
<text text-anchor="start" x="168" y="-382.5" font-family="Helvetica,sans-Serif" font-size="10.00">elc::defs::base::non</text>
<text text-anchor="middle" x="211" y="-371.5" font-family="Helvetica,sans-Serif" font-size="10.00">_copyable</text>
</a>
</g>
</g>
<!-- Node25&#45;&gt;Node4 -->
<g id="edge12" class="edge">
<title>Node25&#45;&gt;Node4</title>
<path fill="none" stroke="#63b8ff" d="M72.18,-489.56C88.32,-464.99 116.33,-427.11 149,-403.5 153.61,-400.17 158.75,-397.22 164.03,-394.64"/>
<polygon fill="#63b8ff" stroke="#63b8ff" points="69.05,-487.96 66.59,-498.26 74.94,-491.74 69.05,-487.96"/>
</g>
<!-- Node24 -->
<g id="node26" class="node">
<title>Node24</title>
<g id="a_node26"><a xlink:href="structelc_1_1defs_1_1base_1_1non__default__assign__able.html" target="_top" xlink:title=" ">
<polygon fill="white" stroke="#666666" points="264.5,-576.5 157.5,-576.5 157.5,-546.5 264.5,-546.5 264.5,-576.5"/>
<text text-anchor="start" x="165.5" y="-564.5" font-family="Helvetica,sans-Serif" font-size="10.00">elc::defs::base::non</text>
<text text-anchor="middle" x="211" y="-553.5" font-family="Helvetica,sans-Serif" font-size="10.00">_default_assign_able</text>
</a>
</g>
</g>
<!-- Node25&#45;&gt;Node24 -->
<g id="edge27" class="edge">
<title>Node25&#45;&gt;Node24</title>
<path fill="none" stroke="#63b8ff" d="M114.9,-531.57C130.54,-536.49 147.3,-541.77 162.34,-546.5"/>
<polygon fill="#63b8ff" stroke="#63b8ff" points="115.92,-528.22 105.33,-528.56 113.82,-534.9 115.92,-528.22"/>
</g>
<!-- Node26 -->
<g id="node27" class="node">
<title>Node26</title>
<g id="a_node27"><a xlink:href="structelc_1_1defs_1_1core_1_1value.html" target="_top" xlink:title=" ">
<polygon fill="white" stroke="#666666" points="264,-528 158,-528 158,-509 264,-509 264,-528"/>
<text text-anchor="middle" x="211" y="-516" font-family="Helvetica,sans-Serif" font-size="10.00">elc::defs::core::value</text>
</a>
</g>
</g>
<!-- Node25&#45;&gt;Node26 -->
<g id="edge28" class="edge">
<title>Node25&#45;&gt;Node26</title>
<path fill="none" stroke="#63b8ff" d="M118.21,-515.49C131.34,-515.92 145.11,-516.37 157.87,-516.79"/>
<polygon fill="#63b8ff" stroke="#63b8ff" points="117.97,-511.98 107.86,-515.15 117.74,-518.98 117.97,-511.98"/>
</g>
<!-- Node4&#45;&gt;Node1 -->
<g id="edge13" class="edge">
<title>Node4&#45;&gt;Node1</title>
<path fill="none" stroke="#63b8ff" d="M270.19,-400.73C271.17,-401.62 272.11,-402.54 273,-403.5 309.49,-442.7 271.82,-479.96 309,-518.5 312.3,-521.92 316.12,-524.86 320.24,-527.38"/>
<polygon fill="#63b8ff" stroke="#63b8ff" points="272.17,-397.84 262.08,-394.62 267.96,-403.43 272.17,-397.84"/>
</g>
<!-- Node4&#45;&gt;Node5 -->
<g id="edge14" class="edge">
<title>Node4&#45;&gt;Node5</title>
<path fill="none" stroke="#63b8ff" d="M270.24,-400.56C271.2,-401.5 272.13,-402.48 273,-403.5 321.17,-459.92 261.99,-509.11 309,-566.5 311.86,-569.99 315.21,-573.09 318.86,-575.84"/>
<polygon fill="#63b8ff" stroke="#63b8ff" points="272.13,-397.59 262.11,-394.15 267.8,-403.09 272.13,-397.59"/>
</g>
<!-- Node4&#45;&gt;Node7 -->
<g id="edge15" class="edge">
<title>Node4&#45;&gt;Node7</title>
<path fill="none" stroke="#63b8ff" d="M269.98,-400.06C271.05,-401.15 272.06,-402.3 273,-403.5 347.88,-499.19 232.43,-580.16 309,-674.5 313.18,-679.65 318.55,-683.7 324.42,-686.88"/>
<polygon fill="#63b8ff" stroke="#63b8ff" points="272.12,-397.29 262.15,-393.69 267.69,-402.72 272.12,-397.29"/>
</g>
<!-- Node4&#45;&gt;Node12 -->
<g id="edge21" class="edge">
<title>Node4&#45;&gt;Node12</title>
<path fill="none" stroke="#63b8ff" d="M268.87,-400.15C270.3,-401.22 271.68,-402.33 273,-403.5 298.27,-425.95 283.33,-448.5 309,-470.5 312.99,-473.92 317.51,-476.87 322.26,-479.4"/>
<polygon fill="#63b8ff" stroke="#63b8ff" points="270.51,-397.05 260.2,-394.6 266.74,-402.94 270.51,-397.05"/>
</g>
<!-- Node9 -->
<g id="node18" class="node">
<title>Node9</title>
<g id="a_node18"><a xlink:href="structelc_1_1defs_1_1base_1_1data__block.html" target="_top" xlink:title=" ">
<polygon fill="white" stroke="#666666" points="430.5,-89.5 325.5,-89.5 325.5,-59.5 430.5,-59.5 430.5,-89.5"/>
<text text-anchor="start" x="333.5" y="-77.5" font-family="Helvetica,sans-Serif" font-size="10.00">elc::defs::base::data</text>
<text text-anchor="middle" x="378" y="-66.5" font-family="Helvetica,sans-Serif" font-size="10.00">_block&lt; Ts &gt;</text>
</a>
</g>
</g>
<!-- Node4&#45;&gt;Node9 -->
<g id="edge16" class="edge">
<title>Node4&#45;&gt;Node9</title>
<path fill="none" stroke="#63b8ff" d="M269.96,-358.93C271.04,-357.84 272.05,-356.7 273,-355.5 344.4,-264.92 236,-187.79 309,-98.5 313.44,-93.07 319.19,-88.87 325.46,-85.62"/>
<polygon fill="#63b8ff" stroke="#63b8ff" points="267.68,-356.27 262.12,-365.29 272.09,-361.7 267.68,-356.27"/>
</g>
<!-- Node10 -->
<g id="node19" class="node">
<title>Node10</title>
<g id="a_node19"><a xlink:href="classelc_1_1defs_1_1base_1_1mark__able.html" target="_top" xlink:title=" ">
<polygon fill="white" stroke="#666666" points="432,-137.5 324,-137.5 324,-107.5 432,-107.5 432,-137.5"/>
<text text-anchor="start" x="332" y="-125.5" font-family="Helvetica,sans-Serif" font-size="10.00">elc::defs::base::mark</text>
<text text-anchor="middle" x="378" y="-114.5" font-family="Helvetica,sans-Serif" font-size="10.00">_able&lt; T &gt;</text>
</a>
</g>
</g>
<!-- Node4&#45;&gt;Node10 -->
<g id="edge17" class="edge">
<title>Node4&#45;&gt;Node10</title>
<path fill="none" stroke="#8b1a1a" d="M270.31,-358.49C271.25,-357.54 272.15,-356.54 273,-355.5 332.51,-282.4 248.2,-218.53 309,-146.5 313.12,-141.62 318.29,-137.73 323.94,-134.64"/>
<polygon fill="#8b1a1a" stroke="#8b1a1a" points="267.85,-355.98 262.29,-365 272.26,-361.42 267.85,-355.98"/>
</g>
<!-- Node30 -->
<g id="node21" class="node">
<title>Node30</title>
<g id="a_node21"><a xlink:href="classelc_1_1defs_1_1container_1_1stack__n_1_1base__stack__t.html" target="_top" xlink:title=" ">
<polygon fill="white" stroke="#666666" points="434.5,-41 321.5,-41 321.5,0 434.5,0 434.5,-41"/>
<text text-anchor="start" x="329.5" y="-29" font-family="Helvetica,sans-Serif" font-size="10.00">elc::defs::container</text>
<text text-anchor="start" x="329.5" y="-18" font-family="Helvetica,sans-Serif" font-size="10.00">::stack_n::base_stack</text>
<text text-anchor="middle" x="378" y="-7" font-family="Helvetica,sans-Serif" font-size="10.00">_t&lt; T &gt;</text>
</a>
</g>
</g>
<!-- Node4&#45;&gt;Node30 -->
<g id="edge19" class="edge">
<title>Node4&#45;&gt;Node30</title>
<path fill="none" stroke="#8b1a1a" d="M270,-358.95C271.06,-357.86 272.07,-356.71 273,-355.5 356.33,-247.4 227.88,-160.28 309,-50.5 312.37,-45.93 316.6,-42.05 321.28,-38.75"/>
<polygon fill="#8b1a1a" stroke="#8b1a1a" points="267.71,-356.3 262.21,-365.35 272.16,-361.71 267.71,-356.3"/>
</g>
<!-- Node14 -->
<g id="node23" class="node">
<title>Node14</title>
<g id="a_node23"><a xlink:href="classelc_1_1defs_1_1memory_1_1ptr__n_1_1ref__t.html" target="_top" xlink:title=" ">
<polygon fill="white" stroke="#666666" points="428.5,-293.5 327.5,-293.5 327.5,-263.5 428.5,-263.5 428.5,-293.5"/>
<text text-anchor="start" x="335.5" y="-281.5" font-family="Helvetica,sans-Serif" font-size="10.00">elc::defs::memory::</text>
<text text-anchor="middle" x="378" y="-270.5" font-family="Helvetica,sans-Serif" font-size="10.00">ptr_n::ref_t</text>
</a>
</g>
</g>
<!-- Node4&#45;&gt;Node14 -->
<g id="edge22" class="edge">
<title>Node4&#45;&gt;Node14</title>
<path fill="none" stroke="#8b1a1a" d="M267.97,-359.14C269.71,-357.98 271.39,-356.77 273,-355.5 295.03,-338.04 286.77,-320.71 309,-303.5 314.47,-299.27 320.73,-295.7 327.18,-292.7"/>
<polygon fill="#8b1a1a" stroke="#8b1a1a" points="265.77,-356.37 258.89,-364.43 269.29,-362.42 265.77,-356.37"/>
</g>
<!-- Node21 -->
<g id="node24" class="node">
<title>Node21</title>
<g id="a_node24"><a xlink:href="classelc_1_1defs_1_1string__n_1_1string__t_1_1arec__t.html" target="_top" xlink:title=" ">
<polygon fill="white" stroke="#666666" points="429,-461 327,-461 327,-420 429,-420 429,-461"/>
<text text-anchor="start" x="335" y="-449" font-family="Helvetica,sans-Serif" font-size="10.00">elc::defs::string_n</text>
<text text-anchor="start" x="335" y="-438" font-family="Helvetica,sans-Serif" font-size="10.00">::string_t&lt; char_T &gt;</text>
<text text-anchor="middle" x="378" y="-427" font-family="Helvetica,sans-Serif" font-size="10.00">::arec_t</text>
</a>
</g>
</g>
<!-- Node4&#45;&gt;Node21 -->
<g id="edge25" class="edge">
<title>Node4&#45;&gt;Node21</title>
<path fill="none" stroke="#8b1a1a" d="M262.27,-398.09C282.79,-405.67 306.47,-414.42 326.96,-422"/>
<polygon fill="#8b1a1a" stroke="#8b1a1a" points="263.38,-394.76 252.79,-394.58 260.95,-401.33 263.38,-394.76"/>
</g>
<!-- Node22 -->
<g id="node25" class="node">
<title>Node22</title>
<g id="a_node25"><a xlink:href="classelc_1_1defs_1_1string__n_1_1string__t_1_1floating__arec__t.html" target="_top" xlink:title=" ">
<polygon fill="white" stroke="#666666" points="429,-245 327,-245 327,-204 429,-204 429,-245"/>
<text text-anchor="start" x="335" y="-233" font-family="Helvetica,sans-Serif" font-size="10.00">elc::defs::string_n</text>
<text text-anchor="start" x="335" y="-222" font-family="Helvetica,sans-Serif" font-size="10.00">::string_t&lt; char_T &gt;</text>
<text text-anchor="middle" x="378" y="-211" font-family="Helvetica,sans-Serif" font-size="10.00">::floating_arec_t</text>
</a>
</g>
</g>
<!-- Node4&#45;&gt;Node22 -->
<g id="edge26" class="edge">
<title>Node4&#45;&gt;Node22</title>
<path fill="none" stroke="#8b1a1a" d="M270.07,-358.28C271.09,-357.39 272.06,-356.47 273,-355.5 306.15,-321.26 276.56,-289.41 309,-254.5 314.01,-249.11 320.16,-244.64 326.69,-240.93"/>
<polygon fill="#8b1a1a" stroke="#8b1a1a" points="267.66,-355.71 261.64,-364.43 271.79,-361.36 267.66,-355.71"/>
</g>
<!-- Node11 -->
<g id="node20" class="node">
<title>Node11</title>
<g id="a_node20"><a xlink:href="structelc_1_1defs_1_1memory_1_1gc__n_1_1mark__able__for__gc.html" target="_top" xlink:title=" ">
<polygon fill="white" stroke="#666666" points="604,-143 500,-143 500,-102 604,-102 604,-143"/>
<text text-anchor="start" x="508" y="-131" font-family="Helvetica,sans-Serif" font-size="10.00">elc::defs::memory::</text>
<text text-anchor="start" x="508" y="-120" font-family="Helvetica,sans-Serif" font-size="10.00">gc_n::mark_able_for</text>
<text text-anchor="middle" x="552" y="-109" font-family="Helvetica,sans-Serif" font-size="10.00">_gc&lt; T &gt;</text>
</a>
</g>
</g>
<!-- Node10&#45;&gt;Node11 -->
<g id="edge18" class="edge">
<title>Node10&#45;&gt;Node11</title>
<path fill="none" stroke="#63b8ff" d="M442.09,-122.5C461.13,-122.5 481.78,-122.5 499.93,-122.5"/>
<polygon fill="#63b8ff" stroke="#63b8ff" points="442.01,-119 432.01,-122.5 442.01,-126 442.01,-119"/>
</g>
<!-- Node31 -->
<g id="node22" class="node">
<title>Node31</title>
<g id="a_node22"><a xlink:href="structelc_1_1defs_1_1container_1_1stack__n_1_1auto__stack__t.html" target="_top" xlink:title=" ">
<polygon fill="white" stroke="#666666" points="607.5,-41 496.5,-41 496.5,0 607.5,0 607.5,-41"/>
<text text-anchor="start" x="504.5" y="-29" font-family="Helvetica,sans-Serif" font-size="10.00">elc::defs::container</text>
<text text-anchor="start" x="504.5" y="-18" font-family="Helvetica,sans-Serif" font-size="10.00">::stack_n::auto_stack</text>
<text text-anchor="middle" x="552" y="-7" font-family="Helvetica,sans-Serif" font-size="10.00">_t&lt; T &gt;</text>
</a>
</g>
</g>
<!-- Node30&#45;&gt;Node31 -->
<g id="edge20" class="edge">
<title>Node30&#45;&gt;Node31</title>
<path fill="none" stroke="#63b8ff" d="M445.2,-20.5C462.1,-20.5 480.07,-20.5 496.32,-20.5"/>
<polygon fill="#63b8ff" stroke="#63b8ff" points="444.84,-17 434.84,-20.5 444.84,-24 444.84,-17"/>
</g>
<!-- Node14&#45;&gt;Node15 -->
<g id="edge23" class="edge">
<title>Node14&#45;&gt;Node15</title>
<path fill="none" stroke="#63b8ff" d="M437.68,-297C440.97,-298.96 444.11,-301.12 447,-303.5 470.74,-323 459.14,-343.16 483,-362.5 488.45,-366.91 494.76,-370.55 501.31,-373.53"/>
<polygon fill="#63b8ff" stroke="#63b8ff" points="439.17,-293.83 428.7,-292.25 435.9,-300.02 439.17,-293.83"/>
</g>
<!-- Node14&#45;&gt;Node19 -->
<g id="edge24" class="edge">
<title>Node14&#45;&gt;Node19</title>
<path fill="none" stroke="#63b8ff" d="M438.82,-278.5C454.47,-278.5 471.4,-278.5 487.24,-278.5"/>
<polygon fill="#63b8ff" stroke="#63b8ff" points="438.75,-275 428.75,-278.5 438.75,-282 438.75,-275"/>
</g>
<!-- Node29 -->
<g id="node28" class="node">
<title>Node29</title>
<g id="a_node28"><a xlink:href="structelc_1_1defs_1_1base_1_1non__copy__construct__able.html" target="_top" xlink:title=" ">
<polygon fill="white" stroke="#666666" points="112.5,-358.5 0.5,-358.5 0.5,-328.5 112.5,-328.5 112.5,-358.5"/>
<text text-anchor="start" x="8.5" y="-346.5" font-family="Helvetica,sans-Serif" font-size="10.00">elc::defs::base::non</text>
<text text-anchor="middle" x="56.5" y="-335.5" font-family="Helvetica,sans-Serif" font-size="10.00">_copy_construct_able</text>
</a>
</g>
</g>
<!-- Node29&#45;&gt;Node4 -->
<g id="edge29" class="edge">
<title>Node29&#45;&gt;Node4</title>
<path fill="none" stroke="#63b8ff" d="M122.47,-358.84C134.97,-361.79 147.89,-364.84 159.84,-367.66"/>
<polygon fill="#63b8ff" stroke="#63b8ff" points="123.09,-355.39 112.56,-356.5 121.48,-362.2 123.09,-355.39"/>
</g>
<!-- Node28 -->
<g id="node29" class="node">
<title>Node28</title>
<g id="a_node29"><a xlink:href="structelc_1_1defs_1_1base_1_1non__default__construct__able.html" target="_top" xlink:title=" ">
<polygon fill="white" stroke="#666666" points="270.5,-346.5 151.5,-346.5 151.5,-316.5 270.5,-316.5 270.5,-346.5"/>
<text text-anchor="start" x="159.5" y="-334.5" font-family="Helvetica,sans-Serif" font-size="10.00">elc::defs::base::non</text>
<text text-anchor="middle" x="211" y="-323.5" font-family="Helvetica,sans-Serif" font-size="10.00">_default_construct_able</text>
</a>
</g>
</g>
<!-- Node29&#45;&gt;Node28 -->
<g id="edge30" class="edge">
<title>Node29&#45;&gt;Node28</title>
<path fill="none" stroke="#63b8ff" d="M122.77,-338.36C132.29,-337.61 142.04,-336.85 151.42,-336.11"/>
<polygon fill="#63b8ff" stroke="#63b8ff" points="122.25,-334.89 112.56,-339.17 122.8,-341.87 122.25,-334.89"/>
</g>
<!-- Node23 -->
<g id="node30" class="node">
<title>Node23</title>
<g id="a_node30"><a xlink:href="structelc_1_1defs_1_1base_1_1non__move__assign__able.html" target="_top" xlink:title=" ">
<polygon fill="white" stroke="#666666" points="107.5,-576.5 5.5,-576.5 5.5,-546.5 107.5,-546.5 107.5,-576.5"/>
<text text-anchor="start" x="13.5" y="-564.5" font-family="Helvetica,sans-Serif" font-size="10.00">elc::defs::base::non</text>
<text text-anchor="middle" x="56.5" y="-553.5" font-family="Helvetica,sans-Serif" font-size="10.00">_move_assign_able</text>
</a>
</g>
</g>
<!-- Node23&#45;&gt;Node24 -->
<g id="edge31" class="edge">
<title>Node23&#45;&gt;Node24</title>
<path fill="none" stroke="#63b8ff" d="M118.1,-561.5C131.08,-561.5 144.69,-561.5 157.34,-561.5"/>
<polygon fill="#63b8ff" stroke="#63b8ff" points="117.86,-558 107.86,-561.5 117.86,-565 117.86,-558"/>
</g>
<!-- Node6 -->
<g id="node31" class="node">
<title>Node6</title>
<g id="a_node31"><a xlink:href="structelc_1_1defs_1_1base_1_1non__moveable.html" target="_top" xlink:title=" ">
<polygon fill="white" stroke="#666666" points="262,-442.5 160,-442.5 160,-412.5 262,-412.5 262,-442.5"/>
<text text-anchor="start" x="168" y="-430.5" font-family="Helvetica,sans-Serif" font-size="10.00">elc::defs::base::non</text>
<text text-anchor="middle" x="211" y="-419.5" font-family="Helvetica,sans-Serif" font-size="10.00">_moveable</text>
</a>
</g>
</g>
<!-- Node23&#45;&gt;Node6 -->
<g id="edge32" class="edge">
<title>Node23&#45;&gt;Node6</title>
<path fill="none" stroke="#63b8ff" d="M109.66,-540.59C110.82,-539.6 111.94,-538.57 113,-537.5 142.13,-508.03 119.39,-480.48 149,-451.5 152.5,-448.08 156.54,-445.13 160.85,-442.59"/>
<polygon fill="#63b8ff" stroke="#63b8ff" points="107.52,-537.82 101.42,-546.48 111.59,-543.51 107.52,-537.82"/>
</g>
<!-- Node6&#45;&gt;Node1 -->
<g id="edge33" class="edge">
<title>Node6&#45;&gt;Node1</title>
<path fill="none" stroke="#63b8ff" d="M268.87,-448.15C270.3,-449.22 271.68,-450.33 273,-451.5 298.27,-473.95 283.33,-496.5 309,-518.5 312.99,-521.92 317.51,-524.87 322.26,-527.4"/>
<polygon fill="#63b8ff" stroke="#63b8ff" points="270.51,-445.05 260.2,-442.6 266.74,-450.94 270.51,-445.05"/>
</g>
<!-- Node6&#45;&gt;Node5 -->
<g id="edge34" class="edge">
<title>Node6&#45;&gt;Node5</title>
<path fill="none" stroke="#63b8ff" d="M270.19,-448.73C271.17,-449.62 272.11,-450.54 273,-451.5 309.49,-490.7 273.31,-526.57 309,-566.5 312.1,-569.96 315.67,-573.05 319.51,-575.79"/>
<polygon fill="#63b8ff" stroke="#63b8ff" points="272.17,-445.84 262.08,-442.62 267.96,-451.43 272.17,-445.84"/>
</g>
<!-- Node6&#45;&gt;Node7 -->
<g id="edge35" class="edge">
<title>Node6&#45;&gt;Node7</title>
<path fill="none" stroke="#63b8ff" d="M269.93,-448.1C271.01,-449.18 272.04,-450.31 273,-451.5 335.97,-529.69 244.65,-597.44 309,-674.5 313.17,-679.5 318.46,-683.45 324.23,-686.59"/>
<polygon fill="#63b8ff" stroke="#63b8ff" points="272.03,-445.3 262.04,-441.78 267.66,-450.76 272.03,-445.3"/>
</g>
<!-- Node6&#45;&gt;Node12 -->
<g id="edge38" class="edge">
<title>Node6&#45;&gt;Node12</title>
<path fill="none" stroke="#63b8ff" d="M261.8,-446.56C265.61,-448.18 269.38,-449.84 273,-451.5 289.44,-459.05 292.43,-463.25 309,-470.5 316.11,-473.61 323.77,-476.62 331.28,-479.4"/>
<polygon fill="#63b8ff" stroke="#63b8ff" points="262.88,-443.22 252.3,-442.62 260.19,-449.69 262.88,-443.22"/>
</g>
<!-- Node6&#45;&gt;Node9 -->
<g id="edge36" class="edge">
<title>Node6&#45;&gt;Node9</title>
<path fill="none" stroke="#63b8ff" d="M270,-406.95C271.06,-405.86 272.07,-404.71 273,-403.5 356.33,-295.4 223.76,-205.11 309,-98.5 313.38,-93.02 319.09,-88.8 325.35,-85.53"/>
<polygon fill="#63b8ff" stroke="#63b8ff" points="267.71,-404.3 262.21,-413.35 272.16,-409.71 267.71,-404.3"/>
</g>
<!-- Node6&#45;&gt;Node10 -->
<g id="edge37" class="edge">
<title>Node6&#45;&gt;Node10</title>
<path fill="none" stroke="#8b1a1a" d="M269.96,-406.93C271.04,-405.84 272.05,-404.7 273,-403.5 344.4,-312.92 236,-235.79 309,-146.5 313.04,-141.56 318.17,-137.63 323.8,-134.51"/>
<polygon fill="#8b1a1a" stroke="#8b1a1a" points="267.68,-404.27 262.12,-413.29 272.09,-409.7 267.68,-404.27"/>
</g>
<!-- Node6&#45;&gt;Node14 -->
<g id="edge39" class="edge">
<title>Node6&#45;&gt;Node14</title>
<path fill="none" stroke="#8b1a1a" d="M270.07,-406.28C271.08,-405.39 272.06,-404.46 273,-403.5 305.91,-369.61 275.71,-337.01 309,-303.5 314.23,-298.23 320.66,-294.07 327.46,-290.77"/>
<polygon fill="#8b1a1a" stroke="#8b1a1a" points="267.66,-403.7 261.63,-412.41 271.78,-409.36 267.66,-403.7"/>
</g>
<!-- Node6&#45;&gt;Node21 -->
<g id="edge40" class="edge">
<title>Node6&#45;&gt;Node21</title>
<path fill="none" stroke="#8b1a1a" d="M272.45,-432.26C290.35,-433.67 309.74,-435.2 326.91,-436.55"/>
<polygon fill="#8b1a1a" stroke="#8b1a1a" points="272.65,-428.77 262.4,-431.47 272.1,-435.75 272.65,-428.77"/>
</g>
<!-- Node6&#45;&gt;Node22 -->
<g id="edge41" class="edge">
<title>Node6&#45;&gt;Node22</title>
<path fill="none" stroke="#8b1a1a" d="M270.21,-406.42C271.19,-405.49 272.12,-404.51 273,-403.5 317.74,-352.12 265.31,-306.77 309,-254.5 313.88,-248.66 320.13,-243.92 326.84,-240.08"/>
<polygon fill="#8b1a1a" stroke="#8b1a1a" points="267.77,-403.88 262.03,-412.78 272.07,-409.4 267.77,-403.88"/>
</g>
<!-- Node27 -->
<g id="node32" class="node">
<title>Node27</title>
<g id="a_node32"><a xlink:href="structelc_1_1defs_1_1base_1_1non__move__construct__able.html" target="_top" xlink:title=" ">
<polygon fill="white" stroke="#666666" points="113,-418.5 0,-418.5 0,-388.5 113,-388.5 113,-418.5"/>
<text text-anchor="start" x="8" y="-406.5" font-family="Helvetica,sans-Serif" font-size="10.00">elc::defs::base::non</text>
<text text-anchor="middle" x="56.5" y="-395.5" font-family="Helvetica,sans-Serif" font-size="10.00">_move_construct_able</text>
</a>
</g>
</g>
<!-- Node27&#45;&gt;Node28 -->
<g id="edge42" class="edge">
<title>Node27&#45;&gt;Node28</title>
<path fill="none" stroke="#63b8ff" d="M93.23,-383.61C109.96,-374.59 130.28,-364.06 149,-355.5 155.73,-352.42 162.97,-349.36 170.03,-346.51"/>
<polygon fill="#63b8ff" stroke="#63b8ff" points="91.46,-380.59 84.34,-388.44 94.8,-386.74 91.46,-380.59"/>
</g>
<!-- Node27&#45;&gt;Node6 -->
<g id="edge43" class="edge">
<title>Node27&#45;&gt;Node6</title>
<path fill="none" stroke="#63b8ff" d="M123.49,-413.88C135.6,-415.79 148.07,-417.75 159.64,-419.57"/>
<polygon fill="#63b8ff" stroke="#63b8ff" points="123.84,-410.4 113.42,-412.3 122.75,-417.31 123.84,-410.4"/>
</g>
</g>
</svg>
