<?xml version="1.0" encoding="UTF-8" standalone="no"?>
<!DOCTYPE svg PUBLIC "-//W3C//DTD SVG 1.1//EN"
 "http://www.w3.org/Graphics/SVG/1.1/DTD/svg11.dtd">
<!-- Generated by graphviz version 6.0.1 (20220911.1526)
 -->
<!-- Title: 类继承关系图 Pages: 1 -->
<svg width="422pt" height="108pt"
 viewBox="0.00 0.00 422.00 108.00" xmlns="http://www.w3.org/2000/svg" xmlns:xlink="http://www.w3.org/1999/xlink">
<g id="graph0" class="graph" transform="scale(1 1) rotate(0) translate(4 104)">
<title>类继承关系图</title>
<!-- Node0 -->
<g id="node1" class="node">
<title>Node0</title>
<g id="a_node1"><a xlink:title=" ">
<polygon fill="#e0e0e0" stroke="#999999" points="86,-59 0,-59 0,-40 86,-40 86,-59"/>
<text text-anchor="middle" x="43" y="-47" font-family="Helvetica,sans-Serif" font-size="10.00">attribute_names</text>
</a>
</g>
</g>
<!-- Node1 -->
<g id="node2" class="node">
<title>Node1</title>
<g id="a_node2"><a xlink:href="structelc_1_1defs_1_1base_1_1common__attribute__pack_1_1on__type.html" target="_top" xlink:title=" ">
<polygon fill="white" stroke="#666666" points="250,-100 122,-100 122,-59 250,-59 250,-100"/>
<text text-anchor="start" x="130" y="-88" font-family="Helvetica,sans-Serif" font-size="10.00">elc::defs::base::common</text>
<text text-anchor="start" x="130" y="-77" font-family="Helvetica,sans-Serif" font-size="10.00">_attribute_pack&lt; attribute</text>
<text text-anchor="middle" x="186" y="-66" font-family="Helvetica,sans-Serif" font-size="10.00">_names &gt;::on_type&lt; T &gt;</text>
</a>
</g>
</g>
<!-- Node0&#45;&gt;Node1 -->
<g id="edge1" class="edge">
<title>Node0&#45;&gt;Node1</title>
<path fill="none" stroke="#63b8ff" d="M96.26,-60.62C104.6,-62.39 113.31,-64.25 121.87,-66.07"/>
<polygon fill="#63b8ff" stroke="#63b8ff" points="96.81,-57.16 86.3,-58.5 95.36,-64.01 96.81,-57.16"/>
</g>
<!-- Node2 -->
<g id="node3" class="node">
<title>Node2</title>
<g id="a_node3"><a xlink:href="structelc_1_1defs_1_1base_1_1special__attribute__pack.html" target="_top" xlink:title=" ">
<polygon fill="white" stroke="#666666" points="250,-41 122,-41 122,0 250,0 250,-41"/>
<text text-anchor="start" x="130" y="-29" font-family="Helvetica,sans-Serif" font-size="10.00">elc::defs::base::special</text>
<text text-anchor="start" x="130" y="-18" font-family="Helvetica,sans-Serif" font-size="10.00">_attribute_pack&lt; attribute</text>
<text text-anchor="middle" x="186" y="-7" font-family="Helvetica,sans-Serif" font-size="10.00">_names &gt;</text>
</a>
</g>
</g>
<!-- Node0&#45;&gt;Node2 -->
<g id="edge2" class="edge">
<title>Node0&#45;&gt;Node2</title>
<path fill="none" stroke="#63b8ff" d="M96.26,-38.75C104.6,-37.04 113.31,-35.24 121.87,-33.48"/>
<polygon fill="#63b8ff" stroke="#63b8ff" points="95.39,-35.36 86.3,-40.8 96.8,-42.21 95.39,-35.36"/>
</g>
<!-- Node3 -->
<g id="node4" class="node">
<title>Node3</title>
<g id="a_node4"><a xlink:href="structelc_1_1defs_1_1base_1_1special__attribute__pack_1_1on__type.html" target="_top" xlink:title=" ">
<polygon fill="white" stroke="#666666" points="414,-41 286,-41 286,0 414,0 414,-41"/>
<text text-anchor="start" x="294" y="-29" font-family="Helvetica,sans-Serif" font-size="10.00">elc::defs::base::special</text>
<text text-anchor="start" x="294" y="-18" font-family="Helvetica,sans-Serif" font-size="10.00">_attribute_pack&lt; attribute</text>
<text text-anchor="middle" x="350" y="-7" font-family="Helvetica,sans-Serif" font-size="10.00">_names &gt;::on_type&lt; T &gt;</text>
</a>
</g>
</g>
<!-- Node2&#45;&gt;Node3 -->
<g id="edge3" class="edge">
<title>Node2&#45;&gt;Node3</title>
<path fill="none" stroke="#63b8ff" d="M260.37,-20.5C268.86,-20.5 277.47,-20.5 285.81,-20.5"/>
<polygon fill="#63b8ff" stroke="#63b8ff" points="260.1,-17 250.1,-20.5 260.1,-24 260.1,-17"/>
</g>
</g>
</svg>
