<?xml version="1.0" encoding="UTF-8" standalone="no"?>
<!DOCTYPE svg PUBLIC "-//W3C//DTD SVG 1.1//EN"
 "http://www.w3.org/Graphics/SVG/1.1/DTD/svg11.dtd">
<!-- Generated by graphviz version 6.0.1 (20220911.1526)
 -->
<!-- Title: 类继承关系图 Pages: 1 -->
<svg width="726pt" height="98pt"
 viewBox="0.00 0.00 726.00 97.50" xmlns="http://www.w3.org/2000/svg" xmlns:xlink="http://www.w3.org/1999/xlink">
<g id="graph0" class="graph" transform="scale(1 1) rotate(0) translate(4 93.5)">
<title>类继承关系图</title>
<!-- Node0 -->
<g id="node1" class="node">
<title>Node0</title>
<g id="a_node1"><a xlink:title=" ">
<polygon fill="#e0e0e0" stroke="#999999" points="548.5,-89.5 502.5,-89.5 502.5,-70.5 548.5,-70.5 548.5,-89.5"/>
<text text-anchor="middle" x="525.5" y="-77.5" font-family="Helvetica,sans-Serif" font-size="10.00">root_of</text>
</a>
</g>
</g>
<!-- Node1 -->
<g id="node2" class="node">
<title>Node1</title>
<g id="a_node2"><a xlink:href="structelc_1_1defs_1_1memory_1_1ptr__n_1_1root__ptr__t.html" target="_top" xlink:title=" ">
<polygon fill="white" stroke="#666666" points="718,-73.5 615,-73.5 615,-32.5 718,-32.5 718,-73.5"/>
<text text-anchor="start" x="623" y="-61.5" font-family="Helvetica,sans-Serif" font-size="10.00">elc::defs::memory::</text>
<text text-anchor="start" x="623" y="-50.5" font-family="Helvetica,sans-Serif" font-size="10.00">ptr_n::root_ptr_t&lt; T,</text>
<text text-anchor="middle" x="666.5" y="-39.5" font-family="Helvetica,sans-Serif" font-size="10.00"> enable_state &gt;</text>
</a>
</g>
</g>
<!-- Node0&#45;&gt;Node1 -->
<g id="edge1" class="edge">
<title>Node0&#45;&gt;Node1</title>
<path fill="none" stroke="#63b8ff" d="M558.8,-73.73C575.42,-70.5 596.06,-66.49 614.75,-62.86"/>
<polygon fill="#63b8ff" stroke="#63b8ff" points="557.67,-70.38 548.52,-75.72 559.01,-77.25 557.67,-70.38"/>
</g>
<!-- Node5 -->
<g id="node3" class="node">
<title>Node5</title>
<g id="a_node3"><a xlink:href="structelc_1_1defs_1_1memory_1_1ptr__n_1_1same__ptr__p__t.html" target="_top" xlink:title=" ">
<polygon fill="white" stroke="#666666" points="127,-41 0,-41 0,-11 127,-11 127,-41"/>
<text text-anchor="start" x="8" y="-29" font-family="Helvetica,sans-Serif" font-size="10.00">elc::defs::memory::</text>
<text text-anchor="middle" x="63.5" y="-18" font-family="Helvetica,sans-Serif" font-size="10.00">ptr_n::same_ptr_p_t&lt; T &gt;</text>
</a>
</g>
</g>
<!-- Node4 -->
<g id="node4" class="node">
<title>Node4</title>
<g id="a_node4"><a xlink:href="structelc_1_1defs_1_1memory_1_1ptr__n_1_1same__ref__p__t.html" target="_top" xlink:title=" ">
<polygon fill="white" stroke="#666666" points="266,-46.5 163,-46.5 163,-5.5 266,-5.5 266,-46.5"/>
<text text-anchor="start" x="171" y="-34.5" font-family="Helvetica,sans-Serif" font-size="10.00">elc::defs::memory::</text>
<text text-anchor="start" x="171" y="-23.5" font-family="Helvetica,sans-Serif" font-size="10.00">ptr_n::same_ref_p_t</text>
<text text-anchor="middle" x="214.5" y="-12.5" font-family="Helvetica,sans-Serif" font-size="10.00">&lt; T, ref_type &gt;</text>
</a>
</g>
</g>
<!-- Node5&#45;&gt;Node4 -->
<g id="edge2" class="edge">
<title>Node5&#45;&gt;Node4</title>
<path fill="none" stroke="#63b8ff" d="M137.54,-26C146,-26 154.48,-26 162.56,-26"/>
<polygon fill="#63b8ff" stroke="#63b8ff" points="137.26,-22.5 127.26,-26 137.26,-29.5 137.26,-22.5"/>
</g>
<!-- Node3 -->
<g id="node5" class="node">
<title>Node3</title>
<g id="a_node5"><a xlink:href="structelc_1_1defs_1_1memory_1_1ptr__n_1_1ptr__t.html" target="_top" xlink:title=" ">
<polygon fill="white" stroke="#666666" points="436,-46.5 302,-46.5 302,-5.5 436,-5.5 436,-46.5"/>
<text text-anchor="start" x="310" y="-34.5" font-family="Helvetica,sans-Serif" font-size="10.00">elc::defs::memory::</text>
<text text-anchor="start" x="310" y="-23.5" font-family="Helvetica,sans-Serif" font-size="10.00">ptr_n::ptr_t&lt; T, ref</text>
<text text-anchor="middle" x="369" y="-12.5" font-family="Helvetica,sans-Serif" font-size="10.00">_type, do_replace_check &gt;</text>
</a>
</g>
</g>
<!-- Node4&#45;&gt;Node3 -->
<g id="edge3" class="edge">
<title>Node4&#45;&gt;Node3</title>
<path fill="none" stroke="#63b8ff" d="M276.39,-26C284.8,-26 293.48,-26 301.98,-26"/>
<polygon fill="#63b8ff" stroke="#63b8ff" points="276.28,-22.5 266.28,-26 276.28,-29.5 276.28,-22.5"/>
</g>
<!-- Node2 -->
<g id="node6" class="node">
<title>Node2</title>
<g id="a_node6"><a xlink:href="structelc_1_1defs_1_1memory_1_1ptr__n_1_1base__ptr__t.html" target="_top" xlink:title=" ">
<polygon fill="white" stroke="#666666" points="579,-52 472,-52 472,0 579,0 579,-52"/>
<text text-anchor="start" x="480" y="-40" font-family="Helvetica,sans-Serif" font-size="10.00">elc::defs::memory::</text>
<text text-anchor="start" x="480" y="-29" font-family="Helvetica,sans-Serif" font-size="10.00">ptr_n::base_ptr_t&lt; T,</text>
<text text-anchor="start" x="480" y="-18" font-family="Helvetica,sans-Serif" font-size="10.00"> ref_type, do_replace</text>
<text text-anchor="middle" x="525.5" y="-7" font-family="Helvetica,sans-Serif" font-size="10.00">_check &gt;</text>
</a>
</g>
</g>
<!-- Node3&#45;&gt;Node2 -->
<g id="edge4" class="edge">
<title>Node3&#45;&gt;Node2</title>
<path fill="none" stroke="#63b8ff" d="M446.69,-26C455.14,-26 463.59,-26 471.65,-26"/>
<polygon fill="#63b8ff" stroke="#63b8ff" points="446.42,-22.5 436.42,-26 446.42,-29.5 446.42,-22.5"/>
</g>
<!-- Node2&#45;&gt;Node1 -->
<g id="edge5" class="edge">
<title>Node2&#45;&gt;Node1</title>
<path fill="none" stroke="#63b8ff" d="M589.04,-38.15C597.63,-39.82 606.37,-41.51 614.72,-43.14"/>
<polygon fill="#63b8ff" stroke="#63b8ff" points="589.53,-34.68 579.05,-36.21 588.2,-41.55 589.53,-34.68"/>
</g>
</g>
</svg>
