<?xml version="1.0" encoding="UTF-8" standalone="no"?>
<!DOCTYPE svg PUBLIC "-//W3C//DTD SVG 1.1//EN"
 "http://www.w3.org/Graphics/SVG/1.1/DTD/svg11.dtd">
<!-- Generated by graphviz version 6.0.1 (20220911.1526)
 -->
<!-- Title: 类继承关系图 Pages: 1 -->
<svg width="311pt" height="108pt"
 viewBox="0.00 0.00 311.00 108.00" xmlns="http://www.w3.org/2000/svg" xmlns:xlink="http://www.w3.org/1999/xlink">
<g id="graph0" class="graph" transform="scale(1 1) rotate(0) translate(4 104)">
<title>类继承关系图</title>
<!-- Node0 -->
<g id="node1" class="node">
<title>Node0</title>
<g id="a_node1"><a xlink:href="classelc_1_1defs_1_1memory_1_1abstract__base__n_1_1abstract__base__vtable.html" target="_top" xlink:title=" ">
<polygon fill="white" stroke="#666666" points="133,-97 3,-97 3,-56 133,-56 133,-97"/>
<text text-anchor="start" x="11" y="-85" font-family="Helvetica,sans-Serif" font-size="10.00">elc::defs::memory::</text>
<text text-anchor="start" x="11" y="-74" font-family="Helvetica,sans-Serif" font-size="10.00">abstract_base_n::abstract</text>
<text text-anchor="middle" x="68" y="-63" font-family="Helvetica,sans-Serif" font-size="10.00">_base_vtable</text>
</a>
</g>
</g>
<!-- Node1 -->
<g id="node2" class="node">
<title>Node1</title>
<g id="a_node2"><a xlink:href="classelc_1_1defs_1_1memory_1_1abstract__base__n_1_1abstract__base.html" target="_top" xlink:title=" ">
<polygon fill="white" stroke="#666666" points="302.5,-100 172.5,-100 172.5,-59 302.5,-59 302.5,-100"/>
<text text-anchor="start" x="180.5" y="-88" font-family="Helvetica,sans-Serif" font-size="10.00">elc::defs::memory::</text>
<text text-anchor="start" x="180.5" y="-77" font-family="Helvetica,sans-Serif" font-size="10.00">abstract_base_n::abstract</text>
<text text-anchor="middle" x="237.5" y="-66" font-family="Helvetica,sans-Serif" font-size="10.00">_base&lt; T &gt;</text>
</a>
</g>
</g>
<!-- Node0&#45;&gt;Node1 -->
<g id="edge1" class="edge">
<title>Node0&#45;&gt;Node1</title>
<path fill="none" stroke="#63b8ff" d="M143.31,-77.83C153.01,-78 162.88,-78.18 172.39,-78.35"/>
<polygon fill="#63b8ff" stroke="#63b8ff" points="143.34,-74.33 133.28,-77.65 143.22,-81.33 143.34,-74.33"/>
</g>
<!-- Node2 -->
<g id="node3" class="node">
<title>Node2</title>
<g id="a_node3"><a xlink:href="classelc_1_1defs_1_1memory_1_1abstract__base__n_1_1instance__struct.html" target="_top" xlink:title=" ">
<polygon fill="white" stroke="#666666" points="303,-41 172,-41 172,0 303,0 303,-41"/>
<text text-anchor="start" x="180" y="-29" font-family="Helvetica,sans-Serif" font-size="10.00">elc::defs::memory::</text>
<text text-anchor="start" x="180" y="-18" font-family="Helvetica,sans-Serif" font-size="10.00">abstract_base_n::instance</text>
<text text-anchor="middle" x="237.5" y="-7" font-family="Helvetica,sans-Serif" font-size="10.00">_struct&lt; T &gt;</text>
</a>
</g>
</g>
<!-- Node0&#45;&gt;Node2 -->
<g id="edge2" class="edge">
<title>Node0&#45;&gt;Node2</title>
<path fill="none" stroke="#63b8ff" d="M140.1,-52.73C151.74,-48.84 163.71,-44.84 175.09,-41.03"/>
<polygon fill="#63b8ff" stroke="#63b8ff" points="138.79,-49.48 130.42,-55.97 141.01,-56.11 138.79,-49.48"/>
</g>
<!-- Node3 -->
<g id="node4" class="node">
<title>Node3</title>
<g id="a_node4"><a xlink:href="structelc_1_1defs_1_1base_1_1attribute.html" target="_top" xlink:title=" ">
<polygon fill="white" stroke="#666666" points="136,-35.5 0,-35.5 0,-5.5 136,-5.5 136,-35.5"/>
<text text-anchor="start" x="8" y="-23.5" font-family="Helvetica,sans-Serif" font-size="10.00">elc::defs::base::attribute</text>
<text text-anchor="middle" x="68" y="-12.5" font-family="Helvetica,sans-Serif" font-size="10.00">&lt; T, instance_struct&lt; T &gt; &gt;</text>
</a>
</g>
</g>
<!-- Node3&#45;&gt;Node2 -->
<g id="edge3" class="edge">
<title>Node3&#45;&gt;Node2</title>
<path fill="none" stroke="#63b8ff" d="M146.44,-20.5C154.91,-20.5 163.47,-20.5 171.77,-20.5"/>
<polygon fill="#63b8ff" stroke="#63b8ff" points="146.16,-17 136.16,-20.5 146.16,-24 146.16,-17"/>
</g>
</g>
</svg>
