<?xml version="1.0" encoding="UTF-8" standalone="no"?>
<!DOCTYPE svg PUBLIC "-//W3C//DTD SVG 1.1//EN"
 "http://www.w3.org/Graphics/SVG/1.1/DTD/svg11.dtd">
<!-- Generated by graphviz version 6.0.1 (20220911.1526)
 -->
<!-- Title: elc::defs::memory::ptr_n::map_and_mark_for_gc Pages: 1 -->
<svg width="266pt" height="108pt"
 viewBox="0.00 0.00 266.00 108.00" xmlns="http://www.w3.org/2000/svg" xmlns:xlink="http://www.w3.org/1999/xlink">
<g id="graph0" class="graph" transform="scale(1 1) rotate(0) translate(4 104)">
<title>elc::defs::memory::ptr_n::map_and_mark_for_gc</title>
<!-- Node1 -->
<g id="node1" class="node">
<title>Node1</title>
<g id="a_node1"><a xlink:title=" ">
<polygon fill="#999999" stroke="#666666" points="258,-70 147,-70 147,-29 258,-29 258,-70"/>
<text text-anchor="start" x="155" y="-58" font-family="Helvetica,sans-Serif" font-size="10.00">elc::defs::memory::</text>
<text text-anchor="start" x="155" y="-47" font-family="Helvetica,sans-Serif" font-size="10.00">ptr_n::map_and_mark</text>
<text text-anchor="middle" x="202.5" y="-36" font-family="Helvetica,sans-Serif" font-size="10.00">_for_gc</text>
</a>
</g>
</g>
<!-- Node2 -->
<g id="node2" class="node">
<title>Node2</title>
<g id="a_node2"><a xlink:href="structelc_1_1defs_1_1memory_1_1ptr__n_1_1root__ptr__t.html#af4271e1e542cc2be378bb43eba7c60a7" target="_top" xlink:title=" ">
<polygon fill="white" stroke="#666666" points="110.5,-100 0.5,-100 0.5,-59 110.5,-59 110.5,-100"/>
<text text-anchor="start" x="8.5" y="-88" font-family="Helvetica,sans-Serif" font-size="10.00">elc::defs::memory::</text>
<text text-anchor="start" x="8.5" y="-77" font-family="Helvetica,sans-Serif" font-size="10.00">ptr_n::root_ptr_t::map</text>
<text text-anchor="middle" x="55.5" y="-66" font-family="Helvetica,sans-Serif" font-size="10.00">_and_mark</text>
</a>
</g>
</g>
<!-- Node1&#45;&gt;Node2 -->
<g id="edge1" class="edge">
<title>Node1&#45;&gt;Node2</title>
<path fill="none" stroke="#63b8ff" d="M136.68,-62.91C128.07,-64.69 119.32,-66.5 110.91,-68.24"/>
<polygon fill="#63b8ff" stroke="#63b8ff" points="137.6,-66.3 146.68,-60.84 136.18,-59.44 137.6,-66.3"/>
</g>
<!-- Node3 -->
<g id="node3" class="node">
<title>Node3</title>
<g id="a_node3"><a xlink:href="namespaceelc_1_1defs_1_1memory_1_1ptr__n.html#a563d7892054a64dd4385680666543ee2" target="_top" xlink:title=" ">
<polygon fill="white" stroke="#666666" points="111,-41 0,-41 0,0 111,0 111,-41"/>
<text text-anchor="start" x="8" y="-29" font-family="Helvetica,sans-Serif" font-size="10.00">elc::defs::memory::</text>
<text text-anchor="start" x="8" y="-18" font-family="Helvetica,sans-Serif" font-size="10.00">ptr_n::map_and_mark</text>
<text text-anchor="middle" x="55.5" y="-7" font-family="Helvetica,sans-Serif" font-size="10.00">_for_gc</text>
</a>
</g>
</g>
<!-- Node1&#45;&gt;Node3 -->
<g id="edge2" class="edge">
<title>Node1&#45;&gt;Node3</title>
<path fill="none" stroke="#63b8ff" d="M136.81,-36.56C128.33,-34.87 119.7,-33.14 111.4,-31.48"/>
<polygon fill="#63b8ff" stroke="#63b8ff" points="136.19,-40.01 146.68,-38.54 137.56,-33.14 136.19,-40.01"/>
</g>
</g>
</svg>
