<?xml version="1.0" encoding="UTF-8" standalone="no"?>
<!DOCTYPE svg PUBLIC "-//W3C//DTD SVG 1.1//EN"
 "http://www.w3.org/Graphics/SVG/1.1/DTD/svg11.dtd">
<!-- Generated by graphviz version 6.0.1 (20220911.1526)
 -->
<!-- Title: elc::defs::base::cast_to_data Pages: 1 -->
<!--zoomable 824 -->
<svg id="main" version="1.1" xmlns="http://www.w3.org/2000/svg" xmlns:xlink="http://www.w3.org/1999/xlink" xml:space="preserve" onload="init(evt)">
<style type="text/css"><![CDATA[
.edge:hover path { stroke: red; }
.edge:hover polygon { stroke: red; fill: red; }
]]></style>
<script type="text/javascript"><![CDATA[
var edges = document.getElementsByTagName('g');
if (edges && edges.length) {
  for (var i=0;i<edges.length;i++) {
    if (edges[i].id.substr(0,4)=='edge') {
      edges[i].setAttribute('class','edge');
    }
  }
}
]]></script>
        <defs>
                <circle id="rim" cx="0" cy="0" r="7"/>
                <circle id="rim2" cx="0" cy="0" r="3.5"/>
                <g id="zoomPlus">
                        <use xlink:href="#rim" fill="#404040">
                                <set attributeName="fill" to="#808080" begin="zoomplus.mouseover" end="zoomplus.mouseout"/>
                        </use>
                        <path d="M-4,0h8M0,-4v8" fill="none" stroke="white" stroke-width="1.5" pointer-events="none"/>
                </g>
                <g id="zoomMin">
                        <use xlink:href="#rim" fill="#404040">
                                <set attributeName="fill" to="#808080" begin="zoomminus.mouseover" end="zoomminus.mouseout"/>
                        </use>
                        <path d="M-4,0h8" fill="none" stroke="white" stroke-width="1.5" pointer-events="none"/>
                </g>
                <g id="dirArrow">
                        <path fill="none" stroke="white" stroke-width="1.5" d="M0,-3.0v7 M-2.5,-0.5L0,-3.0L2.5,-0.5"/>
                </g>
               <g id="resetDef">
                       <use xlink:href="#rim2" fill="#404040">
                               <set attributeName="fill" to="#808080" begin="reset.mouseover" end="reset.mouseout"/>
                       </use>
               </g>
        </defs>

<script type="text/javascript">
var viewWidth = 609;
var viewHeight = 824;
var sectionId = 'dynsection-4';
</script>
<script xlink:href="svgpan.js"/>
<svg id="graph" class="graph">
<g id="viewport">
<title>elc::defs::base::cast_to_data</title>
<!-- Node1 -->
<g id="node1" class="node">
<title>Node1</title>
<g id="a_node1"><a xlink:title=" ">
<polygon fill="#999999" stroke="#666666" points="601,-396 496,-396 496,-366 601,-366 601,-396"/>
<text text-anchor="start" x="504" y="-384" font-family="Helvetica,sans-Serif" font-size="10.00">elc::defs::base::cast</text>
<text text-anchor="middle" x="548.5" y="-373" font-family="Helvetica,sans-Serif" font-size="10.00">_to_data</text>
</a>
</g>
</g>
<!-- Node2 -->
<g id="node2" class="node">
<title>Node2</title>
<g id="a_node2"><a xlink:href="namespaceelc_1_1defs_1_1base.html#abe3691006936be1ed88f8529b52edf33" target="_top" xlink:title="应用偏移">
<polygon fill="white" stroke="#666666" points="446,-792 336,-792 336,-762 446,-762 446,-792"/>
<text text-anchor="start" x="344" y="-780" font-family="Helvetica,sans-Serif" font-size="10.00">elc::defs::base::apply</text>
<text text-anchor="middle" x="391" y="-769" font-family="Helvetica,sans-Serif" font-size="10.00">_off_set</text>
</a>
</g>
</g>
<!-- Node1&#45;&gt;Node2 -->
<g id="edge1" class="edge">
<title>Node1&#45;&gt;Node2</title>
<path fill="none" stroke="#63b8ff" d="M544.75,-405.98C536.04,-480.74 506.87,-700.75 460,-753 456.07,-757.38 451.29,-760.96 446.11,-763.89"/>
<polygon fill="#63b8ff" stroke="#63b8ff" points="548.22,-406.37 545.88,-396.04 541.27,-405.58 548.22,-406.37"/>
</g>
<!-- Node4 -->
<g id="node4" class="node">
<title>Node4</title>
<g id="a_node4"><a xlink:href="structelc_1_1defs_1_1base_1_1data__view_3_01const_01_t_01_4.html#a9a654b8b1e004f3eb7c39851a598476d" target="_top" xlink:title=" ">
<polygon fill="white" stroke="#666666" points="460,-744 322,-744 322,-714 460,-714 460,-744"/>
<text text-anchor="start" x="330" y="-732" font-family="Helvetica,sans-Serif" font-size="10.00">elc::defs::base::data</text>
<text text-anchor="middle" x="391" y="-721" font-family="Helvetica,sans-Serif" font-size="10.00">_view&lt; const T &gt;::data_view</text>
</a>
</g>
</g>
<!-- Node1&#45;&gt;Node4 -->
<g id="edge4" class="edge">
<title>Node1&#45;&gt;Node4</title>
<path fill="none" stroke="#63b8ff" d="M548.14,-406.29C548.27,-466.26 540.18,-618.52 460,-705 456.85,-708.4 453.19,-711.31 449.23,-713.82"/>
<polygon fill="#63b8ff" stroke="#63b8ff" points="551.64,-406.16 548.04,-396.2 544.64,-406.24 551.64,-406.16"/>
</g>
<!-- Node5 -->
<g id="node5" class="node">
<title>Node5</title>
<g id="a_node5"><a xlink:href="structelc_1_1defs_1_1base_1_1data__view.html#a38f115aca42907ecdc655602500964e2" target="_top" xlink:title=" ">
<polygon fill="white" stroke="#666666" points="443.5,-696 338.5,-696 338.5,-666 443.5,-666 443.5,-696"/>
<text text-anchor="start" x="346.5" y="-684" font-family="Helvetica,sans-Serif" font-size="10.00">elc::defs::base::data</text>
<text text-anchor="middle" x="391" y="-673" font-family="Helvetica,sans-Serif" font-size="10.00">_view::data_view</text>
</a>
</g>
</g>
<!-- Node1&#45;&gt;Node5 -->
<g id="edge5" class="edge">
<title>Node1&#45;&gt;Node5</title>
<path fill="none" stroke="#63b8ff" d="M546.7,-406.51C543.63,-460.19 529.04,-585.69 460,-657 455.38,-661.77 449.77,-665.59 443.76,-668.65"/>
<polygon fill="#63b8ff" stroke="#63b8ff" points="550.21,-406.35 547.19,-396.2 543.22,-406.02 550.21,-406.35"/>
</g>
<!-- Node6 -->
<g id="node6" class="node">
<title>Node6</title>
<g id="a_node6"><a xlink:href="namespaceelc_1_1defs_1_1memory_1_1alloc__n_1_1default__method.html#a600bffa825c0c2c1695723ba33b28d74" target="_top" xlink:title=" ">
<polygon fill="white" stroke="#666666" points="450.5,-629.5 331.5,-629.5 331.5,-588.5 450.5,-588.5 450.5,-629.5"/>
<text text-anchor="start" x="339.5" y="-617.5" font-family="Helvetica,sans-Serif" font-size="10.00">elc::defs::memory::</text>
<text text-anchor="start" x="339.5" y="-606.5" font-family="Helvetica,sans-Serif" font-size="10.00">alloc_n::default_method</text>
<text text-anchor="middle" x="391" y="-595.5" font-family="Helvetica,sans-Serif" font-size="10.00">::free_method</text>
</a>
</g>
</g>
<!-- Node1&#45;&gt;Node6 -->
<g id="edge6" class="edge">
<title>Node1&#45;&gt;Node6</title>
<path fill="none" stroke="#63b8ff" d="M542.59,-406C533.32,-447.15 509.54,-529.49 460,-579 456.53,-582.47 452.59,-585.56 448.4,-588.33"/>
<polygon fill="#63b8ff" stroke="#63b8ff" points="546.06,-406.52 544.74,-396.01 539.22,-405.05 546.06,-406.52"/>
</g>
<!-- Node7 -->
<g id="node7" class="node">
<title>Node7</title>
<g id="a_node7"><a xlink:href="namespaceelc_1_1defs_1_1base.html#ac29b9f157a5ac4e510a11155ffa41d85" target="_top" xlink:title=" ">
<polygon fill="white" stroke="#666666" points="440,-570 342,-570 342,-540 440,-540 440,-570"/>
<text text-anchor="start" x="350" y="-558" font-family="Helvetica,sans-Serif" font-size="10.00">elc::defs::base::full</text>
<text text-anchor="middle" x="391" y="-547" font-family="Helvetica,sans-Serif" font-size="10.00">_equal_in_byte</text>
</a>
</g>
</g>
<!-- Node1&#45;&gt;Node7 -->
<g id="edge8" class="edge">
<title>Node1&#45;&gt;Node7</title>
<path fill="none" stroke="#63b8ff" d="M539.18,-405.91C526.9,-438.99 500.88,-497.19 460,-531 454.12,-535.87 447.17,-539.78 440.01,-542.91"/>
<polygon fill="#63b8ff" stroke="#63b8ff" points="542.61,-406.7 542.68,-396.11 536.02,-404.35 542.61,-406.7"/>
</g>
<!-- Node8 -->
<g id="node8" class="node">
<title>Node8</title>
<g id="a_node8"><a xlink:href="namespaceelc_1_1defs_1_1base.html#a41806589ddf17cdf0a2da4977ab0dd48" target="_top" xlink:title="获取两个指针的偏移">
<polygon fill="white" stroke="#666666" points="441,-522 341,-522 341,-492 441,-492 441,-522"/>
<text text-anchor="start" x="349" y="-510" font-family="Helvetica,sans-Serif" font-size="10.00">elc::defs::base::get</text>
<text text-anchor="middle" x="391" y="-499" font-family="Helvetica,sans-Serif" font-size="10.00">_off_set</text>
</a>
</g>
</g>
<!-- Node1&#45;&gt;Node8 -->
<g id="edge9" class="edge">
<title>Node1&#45;&gt;Node8</title>
<path fill="none" stroke="#63b8ff" d="M532.49,-404.85C516.92,-427.81 490.59,-462.05 460,-483 454.22,-486.96 447.71,-490.34 441.07,-493.2"/>
<polygon fill="#63b8ff" stroke="#63b8ff" points="535.51,-406.63 538.1,-396.36 529.67,-402.77 535.51,-406.63"/>
</g>
<!-- Node13 -->
<g id="node13" class="node">
<title>Node13</title>
<g id="a_node13"><a xlink:href="namespaceelc_1_1defs_1_1memory_1_1alloc__n_1_1default__method.html#a194a17a9531372111b53268415765327" target="_top" xlink:title=" ">
<polygon fill="white" stroke="#666666" points="458.5,-455.5 323.5,-455.5 323.5,-414.5 458.5,-414.5 458.5,-455.5"/>
<text text-anchor="start" x="331.5" y="-443.5" font-family="Helvetica,sans-Serif" font-size="10.00">elc::defs::memory::</text>
<text text-anchor="start" x="331.5" y="-432.5" font-family="Helvetica,sans-Serif" font-size="10.00">alloc_n::default_method</text>
<text text-anchor="middle" x="391" y="-421.5" font-family="Helvetica,sans-Serif" font-size="10.00">::get_size_of_alloc_method</text>
</a>
</g>
</g>
<!-- Node1&#45;&gt;Node13 -->
<g id="edge15" class="edge">
<title>Node1&#45;&gt;Node13</title>
<path fill="none" stroke="#63b8ff" d="M494.69,-399.34C480.65,-404.21 465.41,-409.51 451.06,-414.49"/>
<polygon fill="#63b8ff" stroke="#63b8ff" points="495.89,-402.63 504.18,-396.04 493.59,-396.02 495.89,-402.63"/>
</g>
<!-- Node14 -->
<g id="node14" class="node">
<title>Node14</title>
<g id="a_node14"><a xlink:href="namespaceelc_1_1defs_1_1base_1_1range__n.html#a3c8c840b05866c9a0bd49e158cd0ea55" target="_top" xlink:title="判断一个指针是否在某个byte指针范围内">
<polygon fill="white" stroke="#666666" points="446,-396 336,-396 336,-366 446,-366 446,-396"/>
<text text-anchor="start" x="344" y="-384" font-family="Helvetica,sans-Serif" font-size="10.00">elc::defs::base::range</text>
<text text-anchor="middle" x="391" y="-373" font-family="Helvetica,sans-Serif" font-size="10.00">_n::in_range</text>
</a>
</g>
</g>
<!-- Node1&#45;&gt;Node14 -->
<g id="edge17" class="edge">
<title>Node1&#45;&gt;Node14</title>
<path fill="none" stroke="#63b8ff" d="M485.47,-381C472.48,-381 458.89,-381 446.22,-381"/>
<polygon fill="#63b8ff" stroke="#63b8ff" points="485.72,-384.5 495.72,-381 485.72,-377.5 485.72,-384.5"/>
</g>
<!-- Node15 -->
<g id="node15" class="node">
<title>Node15</title>
<g id="a_node15"><a xlink:href="namespaceelc_1_1defs_1_1base.html#a1677dba1ac38f01832381c3bcb216396" target="_top" xlink:title="Returns true if all bytes in the input are zero.">
<polygon fill="white" stroke="#666666" points="438,-348 344,-348 344,-318 438,-318 438,-348"/>
<text text-anchor="start" x="352" y="-336" font-family="Helvetica,sans-Serif" font-size="10.00">elc::defs::base::is</text>
<text text-anchor="middle" x="391" y="-325" font-family="Helvetica,sans-Serif" font-size="10.00">_all_byte_zero</text>
</a>
</g>
</g>
<!-- Node1&#45;&gt;Node15 -->
<g id="edge18" class="edge">
<title>Node1&#45;&gt;Node15</title>
<path fill="none" stroke="#63b8ff" d="M489.01,-362.95C472.22,-357.76 454.15,-352.19 438.21,-347.27"/>
<polygon fill="#63b8ff" stroke="#63b8ff" points="488.14,-366.34 498.73,-365.94 490.2,-359.65 488.14,-366.34"/>
</g>
<!-- Node21 -->
<g id="node21" class="node">
<title>Node21</title>
<g id="a_node21"><a xlink:href="structelc_1_1defs_1_1stream__n_1_1base__istream.html#a6305f6cd5919f10edc06ec7a7d5a428a" target="_top" xlink:title=" ">
<polygon fill="white" stroke="#666666" points="444,-300 338,-300 338,-270 444,-270 444,-300"/>
<text text-anchor="start" x="346" y="-288" font-family="Helvetica,sans-Serif" font-size="10.00">elc::defs::stream_n</text>
<text text-anchor="middle" x="391" y="-277" font-family="Helvetica,sans-Serif" font-size="10.00">::base_istream::read</text>
</a>
</g>
</g>
<!-- Node1&#45;&gt;Node21 -->
<g id="edge25" class="edge">
<title>Node1&#45;&gt;Node21</title>
<path fill="none" stroke="#63b8ff" d="M524.99,-358.7C508.22,-343.07 484.14,-322.63 460,-309 454.11,-305.68 447.68,-302.69 441.2,-300.04"/>
<polygon fill="#63b8ff" stroke="#63b8ff" points="522.95,-361.58 532.61,-365.93 527.77,-356.51 522.95,-361.58"/>
</g>
<!-- Node22 -->
<g id="node22" class="node">
<title>Node22</title>
<g id="a_node22"><a xlink:href="structelc_1_1defs_1_1stream__n_1_1noexcept__istream.html#ac7672c869f5367a1bddd6762a051ad25" target="_top" xlink:title=" ">
<polygon fill="white" stroke="#666666" points="453.5,-252 328.5,-252 328.5,-222 453.5,-222 453.5,-252"/>
<text text-anchor="start" x="336.5" y="-240" font-family="Helvetica,sans-Serif" font-size="10.00">elc::defs::stream_n</text>
<text text-anchor="middle" x="391" y="-229" font-family="Helvetica,sans-Serif" font-size="10.00">::noexcept_istream::read</text>
</a>
</g>
</g>
<!-- Node1&#45;&gt;Node22 -->
<g id="edge26" class="edge">
<title>Node1&#45;&gt;Node22</title>
<path fill="none" stroke="#63b8ff" d="M535.53,-356.68C521.1,-329.71 494.44,-286.65 460,-261 455.38,-257.56 450.23,-254.58 444.88,-252.01"/>
<polygon fill="#63b8ff" stroke="#63b8ff" points="532.57,-358.56 540.29,-365.82 538.78,-355.33 532.57,-358.56"/>
</g>
<!-- Node23 -->
<g id="node23" class="node">
<title>Node23</title>
<g id="a_node23"><a xlink:href="namespaceelc_1_1defs_1_1memory_1_1alloc__n_1_1default__method.html#a7006a2426096a4f9cdf039371a44971b" target="_top" xlink:title=" ">
<polygon fill="white" stroke="#666666" points="450.5,-185.5 331.5,-185.5 331.5,-144.5 450.5,-144.5 450.5,-185.5"/>
<text text-anchor="start" x="339.5" y="-173.5" font-family="Helvetica,sans-Serif" font-size="10.00">elc::defs::memory::</text>
<text text-anchor="start" x="339.5" y="-162.5" font-family="Helvetica,sans-Serif" font-size="10.00">alloc_n::default_method</text>
<text text-anchor="middle" x="391" y="-151.5" font-family="Helvetica,sans-Serif" font-size="10.00">::realloc_method</text>
</a>
</g>
</g>
<!-- Node1&#45;&gt;Node23 -->
<g id="edge27" class="edge">
<title>Node1&#45;&gt;Node23</title>
<path fill="none" stroke="#63b8ff" d="M538.89,-356.22C525.89,-321.36 498.6,-257.18 460,-213 450.87,-202.55 439.03,-193.19 427.79,-185.57"/>
<polygon fill="#63b8ff" stroke="#63b8ff" points="535.61,-357.44 542.32,-365.64 542.19,-355.04 535.61,-357.44"/>
</g>
<!-- Node24 -->
<g id="node24" class="node">
<title>Node24</title>
<g id="a_node24"><a xlink:href="namespaceelc_1_1defs_1_1base.html#a4ff83f1b9ac3ab11fc56336bb0480c1e" target="_top" xlink:title="反向应用偏移">
<polygon fill="white" stroke="#666666" points="451,-126 331,-126 331,-96 451,-96 451,-126"/>
<text text-anchor="start" x="339" y="-114" font-family="Helvetica,sans-Serif" font-size="10.00">elc::defs::base::unapply</text>
<text text-anchor="middle" x="391" y="-103" font-family="Helvetica,sans-Serif" font-size="10.00">_off_set</text>
</a>
</g>
</g>
<!-- Node1&#45;&gt;Node24 -->
<g id="edge29" class="edge">
<title>Node1&#45;&gt;Node24</title>
<path fill="none" stroke="#63b8ff" d="M545.57,-355.86C540.46,-306.7 522.36,-197.2 460,-135 456.54,-131.55 452.56,-128.6 448.3,-126.07"/>
<polygon fill="#63b8ff" stroke="#63b8ff" points="542.09,-356.31 546.52,-365.93 549.06,-355.65 542.09,-356.31"/>
</g>
<!-- Node25 -->
<g id="node25" class="node">
<title>Node25</title>
<g id="a_node25"><a xlink:href="structelc_1_1defs_1_1stream__n_1_1base__ostream.html#a1d35841c32943e079447be7eabb8ab2c" target="_top" xlink:title=" ">
<polygon fill="white" stroke="#666666" points="446,-78 336,-78 336,-48 446,-48 446,-78"/>
<text text-anchor="start" x="344" y="-66" font-family="Helvetica,sans-Serif" font-size="10.00">elc::defs::stream_n</text>
<text text-anchor="middle" x="391" y="-55" font-family="Helvetica,sans-Serif" font-size="10.00">::base_ostream::write</text>
</a>
</g>
</g>
<!-- Node1&#45;&gt;Node25 -->
<g id="edge30" class="edge">
<title>Node1&#45;&gt;Node25</title>
<path fill="none" stroke="#63b8ff" d="M547.3,-355.77C545.48,-299.78 533.29,-164.05 460,-87 456.03,-82.83 451.29,-79.38 446.19,-76.53"/>
<polygon fill="#63b8ff" stroke="#63b8ff" points="543.8,-355.94 547.54,-365.86 550.8,-355.78 543.8,-355.94"/>
</g>
<!-- Node26 -->
<g id="node26" class="node">
<title>Node26</title>
<g id="a_node26"><a xlink:href="structelc_1_1defs_1_1stream__n_1_1noexcept__ostream.html#aa9800d44893de982bfd1cda092169a6b" target="_top" xlink:title=" ">
<polygon fill="white" stroke="#666666" points="455.5,-30 326.5,-30 326.5,0 455.5,0 455.5,-30"/>
<text text-anchor="start" x="334.5" y="-18" font-family="Helvetica,sans-Serif" font-size="10.00">elc::defs::stream_n</text>
<text text-anchor="middle" x="391" y="-7" font-family="Helvetica,sans-Serif" font-size="10.00">::noexcept_ostream::write</text>
</a>
</g>
</g>
<!-- Node1&#45;&gt;Node26 -->
<g id="edge31" class="edge">
<title>Node1&#45;&gt;Node26</title>
<path fill="none" stroke="#63b8ff" d="M544.15,-355.74C534.28,-284.87 503.29,-86.32 460,-39 456.87,-35.58 453.23,-32.65 449.28,-30.14"/>
<polygon fill="#63b8ff" stroke="#63b8ff" points="540.73,-356.54 545.55,-365.97 547.66,-355.59 540.73,-356.54"/>
</g>
<!-- Node3 -->
<g id="node3" class="node">
<title>Node3</title>
<g id="a_node3"><a xlink:href="namespaceelc_1_1defs_1_1memory_1_1abstract__base__n.html#a409d45f6a9500d1ec67a070eb5e7ccb0" target="_top" xlink:title=" ">
<polygon fill="white" stroke="#666666" points="280.5,-797.5 172.5,-797.5 172.5,-756.5 280.5,-756.5 280.5,-797.5"/>
<text text-anchor="start" x="180.5" y="-785.5" font-family="Helvetica,sans-Serif" font-size="10.00">elc::defs::memory::</text>
<text text-anchor="start" x="180.5" y="-774.5" font-family="Helvetica,sans-Serif" font-size="10.00">abstract_base_n::get</text>
<text text-anchor="middle" x="226.5" y="-763.5" font-family="Helvetica,sans-Serif" font-size="10.00">_ptr_after_off_set</text>
</a>
</g>
</g>
<!-- Node2&#45;&gt;Node3 -->
<g id="edge2" class="edge">
<title>Node2&#45;&gt;Node3</title>
<path fill="none" stroke="#63b8ff" d="M325.69,-777C310.72,-777 294.96,-777 280.55,-777"/>
<polygon fill="#63b8ff" stroke="#63b8ff" points="325.89,-780.5 335.89,-777 325.89,-773.5 325.89,-780.5"/>
</g>
<!-- Node3&#45;&gt;Node3 -->
<g id="edge3" class="edge">
<title>Node3&#45;&gt;Node3</title>
<path fill="none" stroke="#63b8ff" d="M254.2,-807.46C250.08,-812.24 240.85,-815.5 226.5,-815.5 203.54,-815.5 193.68,-807.15 196.91,-797.6"/>
<polygon fill="#63b8ff" stroke="#63b8ff" points="257.64,-808.08 256.09,-797.6 250.77,-806.76 257.64,-808.08"/>
</g>
<!-- Node6&#45;&gt;Node6 -->
<g id="edge7" class="edge">
<title>Node6&#45;&gt;Node6</title>
<path fill="none" stroke="#63b8ff" d="M418.1,-639.46C414.07,-644.24 405.04,-647.5 391,-647.5 368.54,-647.5 358.89,-639.15 362.05,-629.6"/>
<polygon fill="#63b8ff" stroke="#63b8ff" points="421.54,-640.07 419.95,-629.6 414.66,-638.78 421.54,-640.07"/>
</g>
<!-- Node9 -->
<g id="node9" class="node">
<title>Node9</title>
<g id="a_node9"><a xlink:href="namespaceelc_1_1defs_1_1memory_1_1abstract__base__n.html#ae6a6bdada85c4f349540f1b9ae8d4ef6" target="_top" xlink:title=" ">
<polygon fill="white" stroke="#666666" points="277.5,-537.5 175.5,-537.5 175.5,-496.5 277.5,-496.5 277.5,-537.5"/>
<text text-anchor="start" x="183.5" y="-525.5" font-family="Helvetica,sans-Serif" font-size="10.00">elc::defs::memory::</text>
<text text-anchor="start" x="183.5" y="-514.5" font-family="Helvetica,sans-Serif" font-size="10.00">abstract_base_n::is</text>
<text text-anchor="middle" x="226.5" y="-503.5" font-family="Helvetica,sans-Serif" font-size="10.00">_instance_ptr</text>
</a>
</g>
</g>
<!-- Node8&#45;&gt;Node9 -->
<g id="edge10" class="edge">
<title>Node8&#45;&gt;Node9</title>
<path fill="none" stroke="#63b8ff" d="M330.74,-510.65C313.32,-511.72 294.44,-512.88 277.65,-513.91"/>
<polygon fill="#63b8ff" stroke="#63b8ff" points="331.04,-514.14 340.8,-510.03 330.61,-507.15 331.04,-514.14"/>
</g>
<!-- Node9&#45;&gt;Node9 -->
<g id="edge14" class="edge">
<title>Node9&#45;&gt;Node9</title>
<path fill="none" stroke="#63b8ff" d="M254.2,-547.46C250.08,-552.24 240.85,-555.5 226.5,-555.5 203.54,-555.5 193.68,-547.15 196.91,-537.6"/>
<polygon fill="#63b8ff" stroke="#63b8ff" points="257.64,-548.08 256.09,-537.6 250.77,-546.76 257.64,-548.08"/>
</g>
<!-- Node10 -->
<g id="node10" class="node">
<title>Node10</title>
<g id="a_node10"><a xlink:href="classelc_1_1defs_1_1memory_1_1abstract__base__n_1_1instance__struct.html#adbea8bf8db6092b9db87a4e459e19f41" target="_top" xlink:title=" ">
<polygon fill="white" stroke="#666666" points="131,-618 0,-618 0,-566 131,-566 131,-618"/>
<text text-anchor="start" x="8" y="-606" font-family="Helvetica,sans-Serif" font-size="10.00">elc::defs::memory::</text>
<text text-anchor="start" x="8" y="-595" font-family="Helvetica,sans-Serif" font-size="10.00">abstract_base_n::instance</text>
<text text-anchor="start" x="8" y="-584" font-family="Helvetica,sans-Serif" font-size="10.00">_struct::_abstract_method</text>
<text text-anchor="middle" x="65.5" y="-573" font-family="Helvetica,sans-Serif" font-size="10.00">_copy_get_this</text>
</a>
</g>
</g>
<!-- Node9&#45;&gt;Node10 -->
<g id="edge11" class="edge">
<title>Node9&#45;&gt;Node10</title>
<path fill="none" stroke="#63b8ff" d="M172.3,-542.09C156.09,-549.74 138.23,-558.16 121.88,-565.88"/>
<polygon fill="#63b8ff" stroke="#63b8ff" points="174.08,-545.12 181.63,-537.69 171.09,-538.79 174.08,-545.12"/>
</g>
<!-- Node11 -->
<g id="node11" class="node">
<title>Node11</title>
<g id="a_node11"><a xlink:href="classelc_1_1defs_1_1memory_1_1abstract__base__n_1_1instance__struct.html#a425b31f18514a0ef6c67b368b24b7809" target="_top" xlink:title=" ">
<polygon fill="white" stroke="#666666" points="131,-548 0,-548 0,-496 131,-496 131,-548"/>
<text text-anchor="start" x="8" y="-536" font-family="Helvetica,sans-Serif" font-size="10.00">elc::defs::memory::</text>
<text text-anchor="start" x="8" y="-525" font-family="Helvetica,sans-Serif" font-size="10.00">abstract_base_n::instance</text>
<text text-anchor="start" x="8" y="-514" font-family="Helvetica,sans-Serif" font-size="10.00">_struct::_abstract_method</text>
<text text-anchor="middle" x="65.5" y="-503" font-family="Helvetica,sans-Serif" font-size="10.00">_get_forward_resize_this</text>
</a>
</g>
</g>
<!-- Node9&#45;&gt;Node11 -->
<g id="edge12" class="edge">
<title>Node9&#45;&gt;Node11</title>
<path fill="none" stroke="#63b8ff" d="M165.14,-518.9C153.99,-519.25 142.32,-519.62 131.06,-519.97"/>
<polygon fill="#63b8ff" stroke="#63b8ff" points="165.31,-522.39 175.19,-518.58 165.09,-515.4 165.31,-522.39"/>
</g>
<!-- Node12 -->
<g id="node12" class="node">
<title>Node12</title>
<g id="a_node12"><a xlink:href="classelc_1_1defs_1_1memory_1_1abstract__base__n_1_1instance__struct.html#a840e798c30250fd531aa814d416fa894" target="_top" xlink:title=" ">
<polygon fill="white" stroke="#666666" points="131,-478 0,-478 0,-426 131,-426 131,-478"/>
<text text-anchor="start" x="8" y="-466" font-family="Helvetica,sans-Serif" font-size="10.00">elc::defs::memory::</text>
<text text-anchor="start" x="8" y="-455" font-family="Helvetica,sans-Serif" font-size="10.00">abstract_base_n::instance</text>
<text text-anchor="start" x="8" y="-444" font-family="Helvetica,sans-Serif" font-size="10.00">_struct::_abstract_method</text>
<text text-anchor="middle" x="65.5" y="-433" font-family="Helvetica,sans-Serif" font-size="10.00">_get_resize_this</text>
</a>
</g>
</g>
<!-- Node9&#45;&gt;Node12 -->
<g id="edge13" class="edge">
<title>Node9&#45;&gt;Node12</title>
<path fill="none" stroke="#63b8ff" d="M165.63,-492.53C154.06,-487.79 141.89,-482.82 130.2,-478.04"/>
<polygon fill="#63b8ff" stroke="#63b8ff" points="164.61,-495.89 175.19,-496.43 167.26,-489.41 164.61,-495.89"/>
</g>
<!-- Node13&#45;&gt;Node13 -->
<g id="edge16" class="edge">
<title>Node13&#45;&gt;Node13</title>
<path fill="none" stroke="#63b8ff" d="M418.1,-465.46C414.07,-470.24 405.04,-473.5 391,-473.5 368.54,-473.5 358.89,-465.15 362.05,-455.6"/>
<polygon fill="#63b8ff" stroke="#63b8ff" points="421.54,-466.07 419.95,-455.6 414.66,-464.78 421.54,-466.07"/>
</g>
<!-- Node16 -->
<g id="node16" class="node">
<title>Node16</title>
<g id="a_node16"><a xlink:href="namespaceelc_1_1defs_1_1memory_1_1lifetime__n.html#a3538502ddcc1662696b0ae3144d249a2" target="_top" xlink:title=" ">
<polygon fill="white" stroke="#666666" points="286,-348.5 167,-348.5 167,-307.5 286,-307.5 286,-348.5"/>
<text text-anchor="start" x="175" y="-336.5" font-family="Helvetica,sans-Serif" font-size="10.00">elc::defs::memory::</text>
<text text-anchor="start" x="175" y="-325.5" font-family="Helvetica,sans-Serif" font-size="10.00">lifetime_n::super_speed</text>
<text text-anchor="middle" x="226.5" y="-314.5" font-family="Helvetica,sans-Serif" font-size="10.00">_trivial_copy_from_one</text>
</a>
</g>
</g>
<!-- Node15&#45;&gt;Node16 -->
<g id="edge19" class="edge">
<title>Node15&#45;&gt;Node16</title>
<path fill="none" stroke="#63b8ff" d="M333.52,-331.26C318.23,-330.79 301.65,-330.28 286.23,-329.81"/>
<polygon fill="#63b8ff" stroke="#63b8ff" points="333.77,-334.77 343.87,-331.58 333.98,-327.77 333.77,-334.77"/>
</g>
<!-- Node16&#45;&gt;Node16 -->
<g id="edge24" class="edge">
<title>Node16&#45;&gt;Node16</title>
<path fill="none" stroke="#63b8ff" d="M254.2,-358.46C250.08,-363.24 240.85,-366.5 226.5,-366.5 203.54,-366.5 193.68,-358.15 196.91,-348.6"/>
<polygon fill="#63b8ff" stroke="#63b8ff" points="257.64,-359.08 256.09,-348.6 250.77,-357.76 257.64,-359.08"/>
</g>
<!-- Node17 -->
<g id="node17" class="node">
<title>Node17</title>
<g id="a_node17"><a xlink:href="structelc_1_1defs_1_1memory_1_1lifetime__n_1_1copy__construct__t.html#a75b915df2e2b4e93193e334bb7c42268" target="_top" xlink:title=" ">
<polygon fill="white" stroke="#666666" points="131,-407.5 0,-407.5 0,-366.5 131,-366.5 131,-407.5"/>
<text text-anchor="start" x="8" y="-395.5" font-family="Helvetica,sans-Serif" font-size="10.00">elc::defs::memory::</text>
<text text-anchor="start" x="8" y="-384.5" font-family="Helvetica,sans-Serif" font-size="10.00">lifetime_n::copy_construct</text>
<text text-anchor="middle" x="65.5" y="-373.5" font-family="Helvetica,sans-Serif" font-size="10.00">_t::base_call</text>
</a>
</g>
</g>
<!-- Node16&#45;&gt;Node17 -->
<g id="edge20" class="edge">
<title>Node16&#45;&gt;Node17</title>
<path fill="none" stroke="#63b8ff" d="M160.25,-352.21C147.49,-356.95 134.21,-361.87 121.81,-366.48"/>
<polygon fill="#63b8ff" stroke="#63b8ff" points="161.73,-355.4 169.89,-348.64 159.3,-348.83 161.73,-355.4"/>
</g>
<!-- Node18 -->
<g id="node18" class="node">
<title>Node18</title>
<g id="a_node18"><a xlink:href="structelc_1_1defs_1_1memory_1_1lifetime__n_1_1copy__assign__t.html#a366c255258da93e353c0d6697737fb43" target="_top" xlink:title=" ">
<polygon fill="white" stroke="#666666" points="125,-348.5 6,-348.5 6,-307.5 125,-307.5 125,-348.5"/>
<text text-anchor="start" x="14" y="-336.5" font-family="Helvetica,sans-Serif" font-size="10.00">elc::defs::memory::</text>
<text text-anchor="start" x="14" y="-325.5" font-family="Helvetica,sans-Serif" font-size="10.00">lifetime_n::copy_assign</text>
<text text-anchor="middle" x="65.5" y="-314.5" font-family="Helvetica,sans-Serif" font-size="10.00">_t::base_call</text>
</a>
</g>
</g>
<!-- Node16&#45;&gt;Node18 -->
<g id="edge21" class="edge">
<title>Node16&#45;&gt;Node18</title>
<path fill="none" stroke="#63b8ff" d="M156.72,-328C146.15,-328 135.33,-328 125.01,-328"/>
<polygon fill="#63b8ff" stroke="#63b8ff" points="156.75,-331.5 166.75,-328 156.75,-324.5 156.75,-331.5"/>
</g>
<!-- Node19 -->
<g id="node19" class="node">
<title>Node19</title>
<g id="a_node19"><a xlink:href="structelc_1_1defs_1_1memory_1_1lifetime__n_1_1construct__t_1_1array__construct__t.html#a0aceccd57ab2896b35c9d34c4405543f" target="_top" xlink:title=" ">
<polygon fill="white" stroke="#666666" points="119,-289 12,-289 12,-237 119,-237 119,-289"/>
<text text-anchor="start" x="20" y="-277" font-family="Helvetica,sans-Serif" font-size="10.00">elc::defs::memory::</text>
<text text-anchor="start" x="20" y="-266" font-family="Helvetica,sans-Serif" font-size="10.00">lifetime_n::construct</text>
<text text-anchor="start" x="20" y="-255" font-family="Helvetica,sans-Serif" font-size="10.00">_t::array_construct_t</text>
<text text-anchor="middle" x="65.5" y="-244" font-family="Helvetica,sans-Serif" font-size="10.00">::operator()</text>
</a>
</g>
</g>
<!-- Node16&#45;&gt;Node19 -->
<g id="edge22" class="edge">
<title>Node16&#45;&gt;Node19</title>
<path fill="none" stroke="#63b8ff" d="M165.82,-303.6C150.51,-297.34 134.15,-290.66 119.22,-284.55"/>
<polygon fill="#63b8ff" stroke="#63b8ff" points="164.61,-306.89 175.19,-307.43 167.26,-300.41 164.61,-306.89"/>
</g>
<!-- Node20 -->
<g id="node20" class="node">
<title>Node20</title>
<g id="a_node20"><a xlink:href="structelc_1_1defs_1_1memory_1_1lifetime__n_1_1construct__t_1_1placement__construct__t.html#aefbbeca8eefbcdd2b1361f82168e9ed8" target="_top" xlink:title=" ">
<polygon fill="white" stroke="#666666" points="126.5,-219 4.5,-219 4.5,-167 126.5,-167 126.5,-219"/>
<text text-anchor="start" x="12.5" y="-207" font-family="Helvetica,sans-Serif" font-size="10.00">elc::defs::memory::</text>
<text text-anchor="start" x="12.5" y="-196" font-family="Helvetica,sans-Serif" font-size="10.00">lifetime_n::construct</text>
<text text-anchor="start" x="12.5" y="-185" font-family="Helvetica,sans-Serif" font-size="10.00">_t::placement_construct</text>
<text text-anchor="middle" x="65.5" y="-174" font-family="Helvetica,sans-Serif" font-size="10.00">_t::operator()</text>
</a>
</g>
</g>
<!-- Node16&#45;&gt;Node20 -->
<g id="edge23" class="edge">
<title>Node16&#45;&gt;Node20</title>
<path fill="none" stroke="#63b8ff" d="M202.92,-299.6C184.96,-278.2 158.37,-249.04 131,-228 126.96,-224.89 122.61,-221.9 118.14,-219.07"/>
<polygon fill="#63b8ff" stroke="#63b8ff" points="200.3,-301.92 209.37,-307.39 205.69,-297.46 200.3,-301.92"/>
</g>
<!-- Node23&#45;&gt;Node23 -->
<g id="edge28" class="edge">
<title>Node23&#45;&gt;Node23</title>
<path fill="none" stroke="#63b8ff" d="M418.1,-195.46C414.07,-200.24 405.04,-203.5 391,-203.5 368.54,-203.5 358.89,-195.15 362.05,-185.6"/>
<polygon fill="#63b8ff" stroke="#63b8ff" points="421.54,-196.07 419.95,-185.6 414.66,-194.78 421.54,-196.07"/>
</g>
</g>
</svg>
        <g id="navigator" transform="translate(0 0)" fill="#404254">
                <rect fill="#f2f5e9" fill-opacity="0.5" stroke="#606060" stroke-width=".5" x="0" y="0" width="60" height="60"/>
                <use id="zoomplus" xlink:href="#zoomPlus" x="17" y="9" onmousedown="handleZoom(evt,'in')"/>
                <use id="zoomminus" xlink:href="#zoomMin" x="42" y="9" onmousedown="handleZoom(evt,'out')"/>
                <use id="reset" xlink:href="#resetDef" x="30" y="36" onmousedown="handleReset()"/>
                <g id="arrowUp" xlink:href="#dirArrow" transform="translate(30 24)" onmousedown="handlePan(0,-1)">
                  <use xlink:href="#rim" fill="#404040">
                        <set attributeName="fill" to="#808080" begin="arrowUp.mouseover" end="arrowUp.mouseout"/>
                  </use>
                  <path fill="none" stroke="white" stroke-width="1.5" d="M0,-3.0v7 M-2.5,-0.5L0,-3.0L2.5,-0.5"/>
                </g>
                <g id="arrowRight" xlink:href="#dirArrow" transform="rotate(90) translate(36 -43)" onmousedown="handlePan(1,0)">
                  <use xlink:href="#rim" fill="#404040">
                        <set attributeName="fill" to="#808080" begin="arrowRight.mouseover" end="arrowRight.mouseout"/>
                  </use>
                  <path fill="none" stroke="white" stroke-width="1.5" d="M0,-3.0v7 M-2.5,-0.5L0,-3.0L2.5,-0.5"/>
                </g>
                <g id="arrowDown" xlink:href="#dirArrow" transform="rotate(180) translate(-30 -48)" onmousedown="handlePan(0,1)">
                  <use xlink:href="#rim" fill="#404040">
                        <set attributeName="fill" to="#808080" begin="arrowDown.mouseover" end="arrowDown.mouseout"/>
                  </use>
                  <path fill="none" stroke="white" stroke-width="1.5" d="M0,-3.0v7 M-2.5,-0.5L0,-3.0L2.5,-0.5"/>
                </g>
                <g id="arrowLeft" xlink:href="#dirArrow" transform="rotate(270) translate(-36 17)" onmousedown="handlePan(-1,0)">
                  <use xlink:href="#rim" fill="#404040">
                        <set attributeName="fill" to="#808080" begin="arrowLeft.mouseover" end="arrowLeft.mouseout"/>
                  </use>
                  <path fill="none" stroke="white" stroke-width="1.5" d="M0,-3.0v7 M-2.5,-0.5L0,-3.0L2.5,-0.5"/>
                </g>
        </g>
        <svg viewBox="0 0 15 15" width="100%" height="30px" preserveAspectRatio="xMaxYMin meet">
         <g id="arrow_out" transform="scale(0.3 0.3)">
          <a xlink:href="namespaceelc_1_1defs_1_1base_a51f0e6e825e683bbef6baeb2921de485_icgraph_org.svg" target="_base">
           <rect id="button" ry="5" rx="5" y="6" x="6" height="38" width="38"
                fill="#f2f5e9" fill-opacity="0.5" stroke="#606060" stroke-width="1.0"/>
           <path id="arrow"
             d="M 11.500037,31.436501 C 11.940474,20.09759 22.043105,11.32322 32.158766,21.979434 L 37.068811,17.246167 C 37.068811,17.246167 37.088388,32 37.088388,32 L 22.160133,31.978069 C 22.160133,31.978069 26.997745,27.140456 26.997745,27.140456 C 18.528582,18.264221 13.291696,25.230495 11.500037,31.436501 z"
             style="fill:#404040;"/>
          </a>
         </g>
        </svg>
</svg>
