<?xml version="1.0" encoding="UTF-8" standalone="no"?>
<!DOCTYPE svg PUBLIC "-//W3C//DTD SVG 1.1//EN"
 "http://www.w3.org/Graphics/SVG/1.1/DTD/svg11.dtd">
<!-- Generated by graphviz version 6.0.1 (20220911.1526)
 -->
<!-- Title: elc::defs::base::magic_number::get_prime_num_big_or_eq_than Pages: 1 -->
<svg width="742pt" height="190pt"
 viewBox="0.00 0.00 742.00 190.00" xmlns="http://www.w3.org/2000/svg" xmlns:xlink="http://www.w3.org/1999/xlink">
<g id="graph0" class="graph" transform="scale(1 1) rotate(0) translate(4 186)">
<title>elc::defs::base::magic_number::get_prime_num_big_or_eq_than</title>
<!-- Node1 -->
<g id="node1" class="node">
<title>Node1</title>
<g id="a_node1"><a xlink:title="求大于某数的素数">
<polygon fill="#999999" stroke="#666666" points="127,-117.5 0,-117.5 0,-76.5 127,-76.5 127,-117.5"/>
<text text-anchor="start" x="8" y="-105.5" font-family="Helvetica,sans-Serif" font-size="10.00">elc::defs::base::magic</text>
<text text-anchor="start" x="8" y="-94.5" font-family="Helvetica,sans-Serif" font-size="10.00">_number::get_prime_num</text>
<text text-anchor="middle" x="63.5" y="-83.5" font-family="Helvetica,sans-Serif" font-size="10.00">_big_or_eq_than</text>
</a>
</g>
</g>
<!-- Node2 -->
<g id="node2" class="node">
<title>Node2</title>
<g id="a_node2"><a xlink:href="namespaceelc_1_1defs_1_1base_1_1magic__number.html#a77e063b37c7eb298dcf3bb43d462265e" target="_top" xlink:title=" ">
<polygon fill="white" stroke="#666666" points="433,-134 320,-134 320,-104 433,-104 433,-134"/>
<text text-anchor="start" x="328" y="-122" font-family="Helvetica,sans-Serif" font-size="10.00">elc::defs::base::magic</text>
<text text-anchor="middle" x="376.5" y="-111" font-family="Helvetica,sans-Serif" font-size="10.00">_number::ceil</text>
</a>
</g>
</g>
<!-- Node1&#45;&gt;Node2 -->
<g id="edge1" class="edge">
<title>Node1&#45;&gt;Node2</title>
<path fill="none" stroke="#63b8ff" d="M127.06,-101.43C180.05,-105.17 255.79,-110.53 309.68,-114.34"/>
<polygon fill="#63b8ff" stroke="#63b8ff" points="309.6,-117.85 319.82,-115.06 310.09,-110.86 309.6,-117.85"/>
</g>
<!-- Node6 -->
<g id="node6" class="node">
<title>Node6</title>
<g id="a_node6"><a xlink:href="namespaceelc_1_1defs_1_1base_1_1magic__number.html#abe10e28dd1b440665a49ca358a141e0d" target="_top" xlink:title=" ">
<polygon fill="white" stroke="#666666" points="284,-91 163,-91 163,-61 284,-61 284,-91"/>
<text text-anchor="start" x="171" y="-79" font-family="Helvetica,sans-Serif" font-size="10.00">elc::defs::base::magic</text>
<text text-anchor="middle" x="223.5" y="-68" font-family="Helvetica,sans-Serif" font-size="10.00">_number::is_prime_num</text>
</a>
</g>
</g>
<!-- Node1&#45;&gt;Node6 -->
<g id="edge7" class="edge">
<title>Node1&#45;&gt;Node6</title>
<path fill="none" stroke="#63b8ff" d="M127.4,-88.64C135.72,-87.53 144.29,-86.4 152.72,-85.27"/>
<polygon fill="#63b8ff" stroke="#63b8ff" points="153.45,-88.71 162.9,-83.92 152.53,-81.77 153.45,-88.71"/>
</g>
<!-- Node2&#45;&gt;Node2 -->
<g id="edge2" class="edge">
<title>Node2&#45;&gt;Node2</title>
<path fill="none" stroke="#63b8ff" d="M350.04,-134.28C344.17,-143.41 352.98,-152 376.5,-152 390.46,-152 399.24,-148.97 402.84,-144.6"/>
<polygon fill="#63b8ff" stroke="#63b8ff" points="406.35,-144.31 402.96,-134.28 399.35,-144.24 406.35,-144.31"/>
</g>
<!-- Node3 -->
<g id="node3" class="node">
<title>Node3</title>
<g id="a_node3"><a xlink:href="namespaceelc_1_1defs_1_1base_1_1magic__number.html#a30e067e5edbc32b8c5bbc09c1b56d04e" target="_top" xlink:title=" ">
<polygon fill="white" stroke="#666666" points="583.5,-182 470.5,-182 470.5,-152 583.5,-152 583.5,-182"/>
<text text-anchor="start" x="478.5" y="-170" font-family="Helvetica,sans-Serif" font-size="10.00">elc::defs::base::magic</text>
<text text-anchor="middle" x="527" y="-159" font-family="Helvetica,sans-Serif" font-size="10.00">_number::feq</text>
</a>
</g>
</g>
<!-- Node2&#45;&gt;Node3 -->
<g id="edge3" class="edge">
<title>Node2&#45;&gt;Node3</title>
<path fill="none" stroke="#63b8ff" d="M424.08,-134.06C438.59,-138.75 454.75,-143.97 469.85,-148.85"/>
<polygon fill="#63b8ff" stroke="#63b8ff" points="468.99,-152.25 479.59,-152 471.15,-145.59 468.99,-152.25"/>
</g>
<!-- Node5 -->
<g id="node5" class="node">
<title>Node5</title>
<g id="a_node5"><a xlink:href="namespaceelc_1_1defs_1_1base_1_1magic__number.html#ad4240149af3f1d0968ffdf3652da6b23" target="_top" xlink:title=" ">
<polygon fill="white" stroke="#666666" points="585,-134 469,-134 469,-104 585,-104 585,-134"/>
<text text-anchor="start" x="477" y="-122" font-family="Helvetica,sans-Serif" font-size="10.00">elc::defs::base::magic</text>
<text text-anchor="middle" x="527" y="-111" font-family="Helvetica,sans-Serif" font-size="10.00">_number::to_uintmax_t</text>
</a>
</g>
</g>
<!-- Node2&#45;&gt;Node5 -->
<g id="edge6" class="edge">
<title>Node2&#45;&gt;Node5</title>
<path fill="none" stroke="#63b8ff" d="M433.22,-119C441.62,-119 450.36,-119 458.96,-119"/>
<polygon fill="#63b8ff" stroke="#63b8ff" points="458.98,-122.5 468.98,-119 458.98,-115.5 458.98,-122.5"/>
</g>
<!-- Node4 -->
<g id="node4" class="node">
<title>Node4</title>
<g id="a_node4"><a xlink:href="namespaceelc_1_1defs_1_1base_1_1magic__number.html#a5e6964aab515dd4705841ebd5f2aacc7" target="_top" xlink:title=" ">
<polygon fill="white" stroke="#666666" points="734,-136 621,-136 621,-106 734,-106 734,-136"/>
<text text-anchor="start" x="629" y="-124" font-family="Helvetica,sans-Serif" font-size="10.00">elc::defs::base::magic</text>
<text text-anchor="middle" x="677.5" y="-113" font-family="Helvetica,sans-Serif" font-size="10.00">_number::abs</text>
</a>
</g>
</g>
<!-- Node3&#45;&gt;Node4 -->
<g id="edge4" class="edge">
<title>Node3&#45;&gt;Node4</title>
<path fill="none" stroke="#63b8ff" d="M576.62,-151.94C589.9,-147.83 604.42,-143.33 618.17,-139.07"/>
<polygon fill="#63b8ff" stroke="#63b8ff" points="619.5,-142.32 628.02,-136.02 617.43,-135.63 619.5,-142.32"/>
</g>
<!-- Node4&#45;&gt;Node4 -->
<g id="edge5" class="edge">
<title>Node4&#45;&gt;Node4</title>
<path fill="none" stroke="#63b8ff" d="M651.04,-136.28C645.17,-145.41 653.98,-154 677.5,-154 691.46,-154 700.24,-150.97 703.84,-146.6"/>
<polygon fill="#63b8ff" stroke="#63b8ff" points="707.35,-146.31 703.96,-136.28 700.35,-146.24 707.35,-146.31"/>
</g>
<!-- Node6&#45;&gt;Node2 -->
<g id="edge9" class="edge">
<title>Node6&#45;&gt;Node2</title>
<path fill="none" stroke="#63b8ff" d="M277.31,-91.04C288.81,-94.31 301.08,-97.81 312.91,-101.18"/>
<polygon fill="#63b8ff" stroke="#63b8ff" points="312.14,-104.6 322.72,-103.97 314.06,-97.86 312.14,-104.6"/>
</g>
<!-- Node6&#45;&gt;Node4 -->
<g id="edge8" class="edge">
<title>Node6&#45;&gt;Node4</title>
<path fill="none" stroke="#63b8ff" d="M284.27,-75.07C356.14,-74.9 480.21,-77.58 585,-95 596.84,-96.97 609.32,-99.91 621.14,-103.12"/>
<polygon fill="#63b8ff" stroke="#63b8ff" points="620.3,-106.52 630.88,-105.86 622.2,-99.79 620.3,-106.52"/>
</g>
<!-- Node7 -->
<g id="node7" class="node">
<title>Node7</title>
<g id="a_node7"><a xlink:href="namespaceelc_1_1defs_1_1base_1_1magic__number.html#a956a811b7ae70abe75ec93ef4f086e60" target="_top" xlink:title=" ">
<polygon fill="white" stroke="#666666" points="433,-30 320,-30 320,0 433,0 433,-30"/>
<text text-anchor="start" x="328" y="-18" font-family="Helvetica,sans-Serif" font-size="10.00">elc::defs::base::magic</text>
<text text-anchor="middle" x="376.5" y="-7" font-family="Helvetica,sans-Serif" font-size="10.00">_number::mod</text>
</a>
</g>
</g>
<!-- Node6&#45;&gt;Node7 -->
<g id="edge10" class="edge">
<title>Node6&#45;&gt;Node7</title>
<path fill="none" stroke="#63b8ff" d="M261.83,-60.92C282.14,-52.72 307.45,-42.49 329.03,-33.77"/>
<polygon fill="#63b8ff" stroke="#63b8ff" points="330.38,-37 338.34,-30.01 327.76,-30.51 330.38,-37"/>
</g>
<!-- Node7&#45;&gt;Node7 -->
<g id="edge11" class="edge">
<title>Node7&#45;&gt;Node7</title>
<path fill="none" stroke="#63b8ff" d="M350.04,-30.28C344.17,-39.41 352.98,-48 376.5,-48 390.46,-48 399.24,-44.97 402.84,-40.6"/>
<polygon fill="#63b8ff" stroke="#63b8ff" points="406.35,-40.31 402.96,-30.28 399.35,-40.24 406.35,-40.31"/>
</g>
</g>
</svg>
