<?xml version="1.0" encoding="UTF-8" standalone="no"?>
<!DOCTYPE svg PUBLIC "-//W3C//DTD SVG 1.1//EN"
 "http://www.w3.org/Graphics/SVG/1.1/DTD/svg11.dtd">
<!-- Generated by graphviz version 6.0.1 (20220911.1526)
 -->
<!-- Title: elc::defs::base::range_n::find_first_of Pages: 1 -->
<svg width="434pt" height="170pt"
 viewBox="0.00 0.00 434.00 170.00" xmlns="http://www.w3.org/2000/svg" xmlns:xlink="http://www.w3.org/1999/xlink">
<g id="graph0" class="graph" transform="scale(1 1) rotate(0) translate(4 166)">
<title>elc::defs::base::range_n::find_first_of</title>
<!-- Node1 -->
<g id="node1" class="node">
<title>Node1</title>
<g id="a_node1"><a xlink:title="若成功找到匹配的数据项，返回其开头，若未找到，返回nullptr">
<polygon fill="#999999" stroke="#666666" points="110,-78 0,-78 0,-48 110,-48 110,-78"/>
<text text-anchor="start" x="8" y="-66" font-family="Helvetica,sans-Serif" font-size="10.00">elc::defs::base::range</text>
<text text-anchor="middle" x="55" y="-55" font-family="Helvetica,sans-Serif" font-size="10.00">_n::find_first_of</text>
</a>
</g>
</g>
<!-- Node1&#45;&gt;Node1 -->
<g id="edge5" class="edge">
<title>Node1&#45;&gt;Node1</title>
<path fill="none" stroke="#63b8ff" d="M27.23,-78.28C21.05,-87.41 30.31,-96 55,-96 69.66,-96 78.88,-92.97 82.66,-88.6"/>
<polygon fill="#63b8ff" stroke="#63b8ff" points="86.16,-88.31 82.77,-78.28 79.16,-88.23 86.16,-88.31"/>
</g>
<!-- Node2 -->
<g id="node2" class="node">
<title>Node2</title>
<g id="a_node2"><a xlink:href="namespaceelc_1_1defs_1_1base_1_1range__n.html#a8e80ffb095cac8fd83b3740986d0622c" target="_top" xlink:title="find_first_of的朴素实现 若成功找到匹配的数据项，返回其开头，若未找到，返回nullptr">
<polygon fill="white" stroke="#666666" points="268,-144 158,-144 158,-114 268,-114 268,-144"/>
<text text-anchor="start" x="166" y="-132" font-family="Helvetica,sans-Serif" font-size="10.00">elc::defs::base::range</text>
<text text-anchor="middle" x="213" y="-121" font-family="Helvetica,sans-Serif" font-size="10.00">_n::base_find_first_of</text>
</a>
</g>
</g>
<!-- Node1&#45;&gt;Node2 -->
<g id="edge1" class="edge">
<title>Node1&#45;&gt;Node2</title>
<path fill="none" stroke="#63b8ff" d="M86.53,-78.06C103.81,-86.38 125.93,-96.69 146,-105 150.35,-106.8 154.88,-108.6 159.45,-110.37"/>
<polygon fill="#63b8ff" stroke="#63b8ff" points="158.24,-113.65 168.83,-113.92 160.72,-107.1 158.24,-113.65"/>
</g>
<!-- Node4 -->
<g id="node4" class="node">
<title>Node4</title>
<g id="a_node4"><a xlink:href="namespaceelc_1_1defs_1_1base_1_1range__n.html#a8db0f428d11a5031e06b11c6d84dc68b" target="_top" xlink:title="find_first_of的bitmark实现 若成功找到匹配的数据项，返回其开头，若未找到，返回nullptr">
<polygon fill="white" stroke="#666666" points="272.5,-78 153.5,-78 153.5,-48 272.5,-48 272.5,-78"/>
<text text-anchor="start" x="161.5" y="-66" font-family="Helvetica,sans-Serif" font-size="10.00">elc::defs::base::range</text>
<text text-anchor="middle" x="213" y="-55" font-family="Helvetica,sans-Serif" font-size="10.00">_n::find_first_of_bitmark</text>
</a>
</g>
</g>
<!-- Node1&#45;&gt;Node4 -->
<g id="edge6" class="edge">
<title>Node1&#45;&gt;Node4</title>
<path fill="none" stroke="#63b8ff" d="M110.12,-63C120.84,-63 132.21,-63 143.33,-63"/>
<polygon fill="#63b8ff" stroke="#63b8ff" points="143.45,-66.5 153.45,-63 143.45,-59.5 143.45,-66.5"/>
</g>
<!-- Node5 -->
<g id="node5" class="node">
<title>Node5</title>
<g id="a_node5"><a xlink:href="structelc_1_1defs_1_1base_1_1range__n_1_1bitmark__for__finds.html#aac0eaf6119a2810bc00351cb3c7030e0" target="_top" xlink:title=" ">
<polygon fill="white" stroke="#666666" points="280,-30 146,-30 146,0 280,0 280,-30"/>
<text text-anchor="start" x="154" y="-18" font-family="Helvetica,sans-Serif" font-size="10.00">elc::defs::base::range</text>
<text text-anchor="middle" x="213" y="-7" font-family="Helvetica,sans-Serif" font-size="10.00">_n::bitmark_for_finds::mark</text>
</a>
</g>
</g>
<!-- Node1&#45;&gt;Node5 -->
<g id="edge8" class="edge">
<title>Node1&#45;&gt;Node5</title>
<path fill="none" stroke="#63b8ff" d="M104.93,-47.94C120.32,-43.21 137.48,-37.93 153.46,-33.01"/>
<polygon fill="#63b8ff" stroke="#63b8ff" points="154.71,-36.29 163.24,-30 152.66,-29.6 154.71,-36.29"/>
</g>
<!-- Node2&#45;&gt;Node2 -->
<g id="edge2" class="edge">
<title>Node2&#45;&gt;Node2</title>
<path fill="none" stroke="#63b8ff" d="M185.23,-144.28C179.05,-153.41 188.31,-162 213,-162 227.66,-162 236.88,-158.97 240.66,-154.6"/>
<polygon fill="#63b8ff" stroke="#63b8ff" points="244.16,-154.31 240.77,-144.28 237.16,-154.23 244.16,-154.31"/>
</g>
<!-- Node3 -->
<g id="node3" class="node">
<title>Node3</title>
<g id="a_node3"><a xlink:href="namespaceelc_1_1defs_1_1base_1_1range__n.html#ace6a3a9d079214ee7bcce5acbef1e07f" target="_top" xlink:title="判断一个值是否在某个范围内">
<polygon fill="white" stroke="#666666" points="426,-144 316,-144 316,-114 426,-114 426,-144"/>
<text text-anchor="start" x="324" y="-132" font-family="Helvetica,sans-Serif" font-size="10.00">elc::defs::base::range</text>
<text text-anchor="middle" x="371" y="-121" font-family="Helvetica,sans-Serif" font-size="10.00">_n::in_range</text>
</a>
</g>
</g>
<!-- Node2&#45;&gt;Node3 -->
<g id="edge3" class="edge">
<title>Node2&#45;&gt;Node3</title>
<path fill="none" stroke="#63b8ff" d="M268.12,-129C280.22,-129 293.17,-129 305.64,-129"/>
<polygon fill="#63b8ff" stroke="#63b8ff" points="305.97,-132.5 315.97,-129 305.97,-125.5 305.97,-132.5"/>
</g>
<!-- Node3&#45;&gt;Node3 -->
<g id="edge4" class="edge">
<title>Node3&#45;&gt;Node3</title>
<path fill="none" stroke="#63b8ff" d="M343.23,-144.28C337.05,-153.41 346.31,-162 371,-162 385.66,-162 394.88,-158.97 398.66,-154.6"/>
<polygon fill="#63b8ff" stroke="#63b8ff" points="402.16,-154.31 398.77,-144.28 395.16,-154.23 402.16,-154.31"/>
</g>
<!-- Node4&#45;&gt;Node4 -->
<g id="edge7" class="edge">
<title>Node4&#45;&gt;Node4</title>
<path fill="none" stroke="#63b8ff" d="M185.23,-78.28C179.05,-87.41 188.31,-96 213,-96 227.66,-96 236.88,-92.97 240.66,-88.6"/>
<polygon fill="#63b8ff" stroke="#63b8ff" points="244.16,-88.31 240.77,-78.28 237.16,-88.23 244.16,-88.31"/>
</g>
</g>
</svg>
