<?xml version="1.0" encoding="UTF-8" standalone="no"?>
<!DOCTYPE svg PUBLIC "-//W3C//DTD SVG 1.1//EN"
 "http://www.w3.org/Graphics/SVG/1.1/DTD/svg11.dtd">
<!-- Generated by graphviz version 6.0.1 (20220911.1526)
 -->
<!-- Title: elc::defs::base::magic_number::abs Pages: 1 -->
<svg width="902pt" height="203pt"
 viewBox="0.00 0.00 902.00 203.00" xmlns="http://www.w3.org/2000/svg" xmlns:xlink="http://www.w3.org/1999/xlink">
<g id="graph0" class="graph" transform="scale(1 1) rotate(0) translate(4 199)">
<title>elc::defs::base::magic_number::abs</title>
<!-- Node1 -->
<g id="node1" class="node">
<title>Node1</title>
<g id="a_node1"><a xlink:title=" ">
<polygon fill="#999999" stroke="#666666" points="894,-51 781,-51 781,-21 894,-21 894,-51"/>
<text text-anchor="start" x="789" y="-39" font-family="Helvetica,sans-Serif" font-size="10.00">elc::defs::base::magic</text>
<text text-anchor="middle" x="837.5" y="-28" font-family="Helvetica,sans-Serif" font-size="10.00">_number::abs</text>
</a>
</g>
</g>
<!-- Node1&#45;&gt;Node1 -->
<g id="edge1" class="edge">
<title>Node1&#45;&gt;Node1</title>
<path fill="none" stroke="#63b8ff" d="M863.58,-61.6C860.02,-65.97 851.32,-69 837.5,-69 814.22,-69 805.49,-60.41 811.31,-51.28"/>
<polygon fill="#63b8ff" stroke="#63b8ff" points="867.08,-61.31 863.69,-51.28 860.08,-61.24 867.08,-61.31"/>
</g>
<!-- Node2 -->
<g id="node2" class="node">
<title>Node2</title>
<g id="a_node2"><a xlink:href="namespaceelc_1_1defs_1_1base_1_1magic__number.html#a30e067e5edbc32b8c5bbc09c1b56d04e" target="_top" xlink:title=" ">
<polygon fill="white" stroke="#666666" points="745,-103 632,-103 632,-73 745,-73 745,-103"/>
<text text-anchor="start" x="640" y="-91" font-family="Helvetica,sans-Serif" font-size="10.00">elc::defs::base::magic</text>
<text text-anchor="middle" x="688.5" y="-80" font-family="Helvetica,sans-Serif" font-size="10.00">_number::feq</text>
</a>
</g>
</g>
<!-- Node1&#45;&gt;Node2 -->
<g id="edge2" class="edge">
<title>Node1&#45;&gt;Node2</title>
<path fill="none" stroke="#63b8ff" d="M784.13,-54.53C767.01,-60.58 748.22,-67.23 731.92,-72.99"/>
<polygon fill="#63b8ff" stroke="#63b8ff" points="785.72,-57.68 793.98,-51.04 783.39,-51.08 785.72,-57.68"/>
</g>
<!-- Node6 -->
<g id="node6" class="node">
<title>Node6</title>
<g id="a_node6"><a xlink:href="namespaceelc_1_1defs_1_1base_1_1magic__number.html#abe10e28dd1b440665a49ca358a141e0d" target="_top" xlink:title=" ">
<polygon fill="white" stroke="#666666" points="447,-30 326,-30 326,0 447,0 447,-30"/>
<text text-anchor="start" x="334" y="-18" font-family="Helvetica,sans-Serif" font-size="10.00">elc::defs::base::magic</text>
<text text-anchor="middle" x="386.5" y="-7" font-family="Helvetica,sans-Serif" font-size="10.00">_number::is_prime_num</text>
</a>
</g>
</g>
<!-- Node1&#45;&gt;Node6 -->
<g id="edge18" class="edge">
<title>Node1&#45;&gt;Node6</title>
<path fill="none" stroke="#63b8ff" d="M770.96,-32.93C683.86,-28.86 531.19,-21.72 447.16,-17.79"/>
<polygon fill="#63b8ff" stroke="#63b8ff" points="770.84,-36.43 780.99,-33.4 771.17,-29.44 770.84,-36.43"/>
</g>
<!-- Node3 -->
<g id="node3" class="node">
<title>Node3</title>
<g id="a_node3"><a xlink:href="namespaceelc_1_1defs_1_1base_1_1magic__number.html#a77e063b37c7eb298dcf3bb43d462265e" target="_top" xlink:title=" ">
<polygon fill="white" stroke="#666666" points="596,-73 483,-73 483,-43 596,-43 596,-73"/>
<text text-anchor="start" x="491" y="-61" font-family="Helvetica,sans-Serif" font-size="10.00">elc::defs::base::magic</text>
<text text-anchor="middle" x="539.5" y="-50" font-family="Helvetica,sans-Serif" font-size="10.00">_number::ceil</text>
</a>
</g>
</g>
<!-- Node2&#45;&gt;Node3 -->
<g id="edge3" class="edge">
<title>Node2&#45;&gt;Node3</title>
<path fill="none" stroke="#63b8ff" d="M621.92,-74.62C613.32,-72.86 604.57,-71.08 596.15,-69.36"/>
<polygon fill="#63b8ff" stroke="#63b8ff" points="621.43,-78.09 631.93,-76.66 622.83,-71.23 621.43,-78.09"/>
</g>
<!-- Node7 -->
<g id="node7" class="node">
<title>Node7</title>
<g id="a_node7"><a xlink:href="namespaceelc_1_1defs_1_1base_1_1magic__number.html#af617871fb504f70d5e186aa33f6ae187" target="_top" xlink:title=" ">
<polygon fill="white" stroke="#666666" points="596,-177 483,-177 483,-147 596,-147 596,-177"/>
<text text-anchor="start" x="491" y="-165" font-family="Helvetica,sans-Serif" font-size="10.00">elc::defs::base::magic</text>
<text text-anchor="middle" x="539.5" y="-154" font-family="Helvetica,sans-Serif" font-size="10.00">_number::exp</text>
</a>
</g>
</g>
<!-- Node2&#45;&gt;Node7 -->
<g id="edge10" class="edge">
<title>Node2&#45;&gt;Node7</title>
<path fill="none" stroke="#63b8ff" d="M648.36,-107.7C623.87,-120.03 592.81,-135.67 570.31,-146.99"/>
<polygon fill="#63b8ff" stroke="#63b8ff" points="650.04,-110.78 657.4,-103.15 646.89,-104.52 650.04,-110.78"/>
</g>
<!-- Node8 -->
<g id="node8" class="node">
<title>Node8</title>
<g id="a_node8"><a xlink:href="namespaceelc_1_1defs_1_1base_1_1magic__number.html#a9496a23d74b600104f109a789a837bb6" target="_top" xlink:title=" ">
<polygon fill="white" stroke="#666666" points="443,-134 330,-134 330,-104 443,-104 443,-134"/>
<text text-anchor="start" x="338" y="-122" font-family="Helvetica,sans-Serif" font-size="10.00">elc::defs::base::magic</text>
<text text-anchor="middle" x="386.5" y="-111" font-family="Helvetica,sans-Serif" font-size="10.00">_number::log</text>
</a>
</g>
</g>
<!-- Node2&#45;&gt;Node8 -->
<g id="edge17" class="edge">
<title>Node2&#45;&gt;Node8</title>
<path fill="none" stroke="#63b8ff" d="M621.8,-96.93C613.13,-98.02 604.35,-99.07 596,-100 544.34,-105.74 485.34,-111 443.31,-114.52"/>
<polygon fill="#63b8ff" stroke="#63b8ff" points="622.42,-100.38 631.9,-95.65 621.54,-93.44 622.42,-100.38"/>
</g>
<!-- Node3&#45;&gt;Node3 -->
<g id="edge4" class="edge">
<title>Node3&#45;&gt;Node3</title>
<path fill="none" stroke="#63b8ff" d="M565.58,-83.6C562.02,-87.97 553.32,-91 539.5,-91 516.22,-91 507.49,-82.41 513.31,-73.28"/>
<polygon fill="#63b8ff" stroke="#63b8ff" points="569.08,-83.31 565.69,-73.28 562.08,-83.24 569.08,-83.31"/>
</g>
<!-- Node4 -->
<g id="node4" class="node">
<title>Node4</title>
<g id="a_node4"><a xlink:href="namespaceelc_1_1defs_1_1base_1_1magic__number.html#afdc8b347fae01a759b499664eb8fffe5" target="_top" xlink:title="求大于某数的素数">
<polygon fill="white" stroke="#666666" points="290,-57.5 163,-57.5 163,-16.5 290,-16.5 290,-57.5"/>
<text text-anchor="start" x="171" y="-45.5" font-family="Helvetica,sans-Serif" font-size="10.00">elc::defs::base::magic</text>
<text text-anchor="start" x="171" y="-34.5" font-family="Helvetica,sans-Serif" font-size="10.00">_number::get_prime_num</text>
<text text-anchor="middle" x="226.5" y="-23.5" font-family="Helvetica,sans-Serif" font-size="10.00">_big_or_eq_than</text>
</a>
</g>
</g>
<!-- Node3&#45;&gt;Node4 -->
<g id="edge5" class="edge">
<title>Node3&#45;&gt;Node4</title>
<path fill="none" stroke="#63b8ff" d="M472.76,-53.56C418.88,-49.92 343.12,-44.81 290.1,-41.23"/>
<polygon fill="#63b8ff" stroke="#63b8ff" points="472.69,-57.06 482.9,-54.25 473.16,-50.08 472.69,-57.06"/>
</g>
<!-- Node3&#45;&gt;Node6 -->
<g id="edge8" class="edge">
<title>Node3&#45;&gt;Node6</title>
<path fill="none" stroke="#63b8ff" d="M475.88,-40.17C464.04,-36.8 451.78,-33.3 440.28,-30.03"/>
<polygon fill="#63b8ff" stroke="#63b8ff" points="475.11,-43.59 485.69,-42.96 477.03,-36.86 475.11,-43.59"/>
</g>
<!-- Node5 -->
<g id="node5" class="node">
<title>Node5</title>
<g id="a_node5"><a xlink:href="namespaceelc_1_1defs_1_1base_1_1magic__number.html#a5a0615480539fa32fb57f797cab6b87e" target="_top" xlink:title="已知当前hash table的size，求下一个合适的桶大小">
<polygon fill="white" stroke="#666666" points="127,-57.5 0,-57.5 0,-16.5 127,-16.5 127,-57.5"/>
<text text-anchor="start" x="8" y="-45.5" font-family="Helvetica,sans-Serif" font-size="10.00">elc::defs::base::magic</text>
<text text-anchor="start" x="8" y="-34.5" font-family="Helvetica,sans-Serif" font-size="10.00">_number::get_next_gold</text>
<text text-anchor="middle" x="63.5" y="-23.5" font-family="Helvetica,sans-Serif" font-size="10.00">_size_to_resize_for_hash</text>
</a>
</g>
</g>
<!-- Node4&#45;&gt;Node5 -->
<g id="edge6" class="edge">
<title>Node4&#45;&gt;Node5</title>
<path fill="none" stroke="#63b8ff" d="M152.78,-37C144.19,-37 135.47,-37 127.04,-37"/>
<polygon fill="#63b8ff" stroke="#63b8ff" points="152.79,-40.5 162.79,-37 152.79,-33.5 152.79,-40.5"/>
</g>
<!-- Node5&#45;&gt;Node5 -->
<g id="edge7" class="edge">
<title>Node5&#45;&gt;Node5</title>
<path fill="none" stroke="#63b8ff" d="M91.54,-67.46C87.37,-72.24 78.03,-75.5 63.5,-75.5 40.26,-75.5 30.27,-67.15 33.54,-57.6"/>
<polygon fill="#63b8ff" stroke="#63b8ff" points="94.99,-68.08 93.46,-57.6 88.12,-66.75 94.99,-68.08"/>
</g>
<!-- Node6&#45;&gt;Node4 -->
<g id="edge9" class="edge">
<title>Node6&#45;&gt;Node4</title>
<path fill="none" stroke="#63b8ff" d="M315.84,-24.7C307.31,-25.89 298.63,-27.1 290.21,-28.27"/>
<polygon fill="#63b8ff" stroke="#63b8ff" points="316.35,-28.16 325.77,-23.32 315.38,-21.23 316.35,-28.16"/>
</g>
<!-- Node7&#45;&gt;Node7 -->
<g id="edge11" class="edge">
<title>Node7&#45;&gt;Node7</title>
<path fill="none" stroke="#63b8ff" d="M565.58,-187.6C562.02,-191.97 553.32,-195 539.5,-195 516.22,-195 507.49,-186.41 513.31,-177.28"/>
<polygon fill="#63b8ff" stroke="#63b8ff" points="569.08,-187.31 565.69,-177.28 562.08,-187.24 569.08,-187.31"/>
</g>
<!-- Node7&#45;&gt;Node8 -->
<g id="edge12" class="edge">
<title>Node7&#45;&gt;Node8</title>
<path fill="none" stroke="#63b8ff" d="M475.88,-144.17C464.04,-140.8 451.78,-137.3 440.28,-134.03"/>
<polygon fill="#63b8ff" stroke="#63b8ff" points="475.11,-147.59 485.69,-146.96 477.03,-140.86 475.11,-147.59"/>
</g>
<!-- Node9 -->
<g id="node9" class="node">
<title>Node9</title>
<g id="a_node9"><a xlink:href="namespaceelc_1_1defs_1_1base_1_1magic__number.html#a4e85faf4c3b39c3c8246f799eca1d941" target="_top" xlink:title=" ">
<polygon fill="white" stroke="#666666" points="283,-164 170,-164 170,-134 283,-134 283,-164"/>
<text text-anchor="start" x="178" y="-152" font-family="Helvetica,sans-Serif" font-size="10.00">elc::defs::base::magic</text>
<text text-anchor="middle" x="226.5" y="-141" font-family="Helvetica,sans-Serif" font-size="10.00">_number::pow</text>
</a>
</g>
</g>
<!-- Node7&#45;&gt;Node9 -->
<g id="edge16" class="edge">
<title>Node7&#45;&gt;Node9</title>
<path fill="none" stroke="#63b8ff" d="M472.85,-163.66C430.82,-164.24 375.15,-164.1 326,-161 312.07,-160.12 297.1,-158.6 283.13,-156.93"/>
<polygon fill="#63b8ff" stroke="#63b8ff" points="473.01,-167.16 482.96,-163.51 472.91,-160.16 473.01,-167.16"/>
</g>
<!-- Node8&#45;&gt;Node8 -->
<g id="edge13" class="edge">
<title>Node8&#45;&gt;Node8</title>
<path fill="none" stroke="#63b8ff" d="M413.28,-144.6C409.62,-148.97 400.69,-152 386.5,-152 362.59,-152 353.63,-143.41 359.61,-134.28"/>
<polygon fill="#63b8ff" stroke="#63b8ff" points="416.78,-144.31 413.39,-134.28 409.78,-144.24 416.78,-144.31"/>
</g>
<!-- Node8&#45;&gt;Node9 -->
<g id="edge14" class="edge">
<title>Node8&#45;&gt;Node9</title>
<path fill="none" stroke="#63b8ff" d="M319.73,-131.49C307.6,-133.79 295.04,-136.18 283.23,-138.42"/>
<polygon fill="#63b8ff" stroke="#63b8ff" points="320.62,-134.88 329.8,-129.58 319.32,-128 320.62,-134.88"/>
</g>
<!-- Node9&#45;&gt;Node9 -->
<g id="edge15" class="edge">
<title>Node9&#45;&gt;Node9</title>
<path fill="none" stroke="#63b8ff" d="M254.51,-174.6C250.68,-178.97 241.34,-182 226.5,-182 201.5,-182 192.12,-173.41 198.38,-164.28"/>
<polygon fill="#63b8ff" stroke="#63b8ff" points="258.01,-174.32 254.62,-164.28 251.01,-174.23 258.01,-174.32"/>
</g>
</g>
</svg>
