<?xml version="1.0" encoding="UTF-8" standalone="no"?>
<!DOCTYPE svg PUBLIC "-//W3C//DTD SVG 1.1//EN"
 "http://www.w3.org/Graphics/SVG/1.1/DTD/svg11.dtd">
<!-- Generated by graphviz version 6.0.1 (20220911.1526)
 -->
<!-- Title: elc::APIs::str_code_convert::to_char_str Pages: 1 -->
<svg width="259pt" height="134pt"
 viewBox="0.00 0.00 259.00 134.00" xmlns="http://www.w3.org/2000/svg" xmlns:xlink="http://www.w3.org/1999/xlink">
<g id="graph0" class="graph" transform="scale(1 1) rotate(0) translate(4 130)">
<title>elc::APIs::str_code_convert::to_char_str</title>
<!-- Node1 -->
<g id="node1" class="node">
<title>Node1</title>
<g id="a_node1"><a xlink:title=" ">
<polygon fill="#999999" stroke="#666666" points="107,-78 0,-78 0,-48 107,-48 107,-78"/>
<text text-anchor="start" x="8" y="-66" font-family="Helvetica,sans-Serif" font-size="10.00">elc::APIs::str_code</text>
<text text-anchor="middle" x="53.5" y="-55" font-family="Helvetica,sans-Serif" font-size="10.00">_convert::to_char_str</text>
</a>
</g>
</g>
<!-- Node2 -->
<g id="node2" class="node">
<title>Node2</title>
<g id="a_node2"><a xlink:href="structelc_1_1defs_1_1string__n_1_1string__t.html#aecda51752bc54bbf5a5ca2dcc5a8282f" target="_top" xlink:title=" ">
<polygon fill="white" stroke="#666666" points="244,-126 150,-126 150,-96 244,-96 244,-126"/>
<text text-anchor="start" x="158" y="-114" font-family="Helvetica,sans-Serif" font-size="10.00">elc::defs::string_n</text>
<text text-anchor="middle" x="197" y="-103" font-family="Helvetica,sans-Serif" font-size="10.00">::string_t::c_str</text>
</a>
</g>
</g>
<!-- Node1&#45;&gt;Node2 -->
<g id="edge1" class="edge">
<title>Node1&#45;&gt;Node2</title>
<path fill="none" stroke="#63b8ff" d="M98.88,-78.06C112.58,-82.7 127.82,-87.87 142.08,-92.71"/>
<polygon fill="#63b8ff" stroke="#63b8ff" points="141.18,-96.1 151.77,-96 143.43,-89.47 141.18,-96.1"/>
</g>
<!-- Node3 -->
<g id="node3" class="node">
<title>Node3</title>
<g id="a_node3"><a xlink:href="structelc_1_1defs_1_1string__n_1_1string__t.html#a1a0eae8824bf75e0fce08ba00bb04f57" target="_top" xlink:title=" ">
<polygon fill="white" stroke="#666666" points="251,-78 143,-78 143,-48 251,-48 251,-78"/>
<text text-anchor="start" x="151" y="-66" font-family="Helvetica,sans-Serif" font-size="10.00">elc::defs::string_n</text>
<text text-anchor="middle" x="197" y="-55" font-family="Helvetica,sans-Serif" font-size="10.00">::string_t::operator+=</text>
</a>
</g>
</g>
<!-- Node1&#45;&gt;Node3 -->
<g id="edge2" class="edge">
<title>Node1&#45;&gt;Node3</title>
<path fill="none" stroke="#63b8ff" d="M107.19,-63C115.46,-63 124.08,-63 132.56,-63"/>
<polygon fill="#63b8ff" stroke="#63b8ff" points="132.79,-66.5 142.79,-63 132.79,-59.5 132.79,-66.5"/>
</g>
<!-- Node4 -->
<g id="node4" class="node">
<title>Node4</title>
<g id="a_node4"><a xlink:href="namespaceelc_1_1defs_1_1base_1_1note__n.html#a708b86f4561b6659cb265c32ce4cb8b3" target="_top" xlink:title=" ">
<polygon fill="white" stroke="#666666" points="249.5,-30 144.5,-30 144.5,0 249.5,0 249.5,-30"/>
<text text-anchor="start" x="152.5" y="-18" font-family="Helvetica,sans-Serif" font-size="10.00">elc::defs::base::note</text>
<text text-anchor="middle" x="197" y="-7" font-family="Helvetica,sans-Serif" font-size="10.00">_n::size</text>
</a>
</g>
</g>
<!-- Node1&#45;&gt;Node4 -->
<g id="edge3" class="edge">
<title>Node1&#45;&gt;Node4</title>
<path fill="none" stroke="#63b8ff" d="M98.88,-47.94C112.58,-43.3 127.82,-38.13 142.08,-33.29"/>
<polygon fill="#63b8ff" stroke="#63b8ff" points="143.43,-36.53 151.77,-30 141.18,-29.9 143.43,-36.53"/>
</g>
</g>
</svg>
