<?xml version="1.0" encoding="UTF-8" standalone="no"?>
<!DOCTYPE svg PUBLIC "-//W3C//DTD SVG 1.1//EN"
 "http://www.w3.org/Graphics/SVG/1.1/DTD/svg11.dtd">
<!-- Generated by graphviz version 6.0.1 (20220911.1526)
 -->
<!-- Title: elc::defs::base::range_n::find_first_of_bitmark Pages: 1 -->
<svg width="422pt" height="56pt"
 viewBox="0.00 0.00 422.00 56.00" xmlns="http://www.w3.org/2000/svg" xmlns:xlink="http://www.w3.org/1999/xlink">
<g id="graph0" class="graph" transform="scale(1 1) rotate(0) translate(4 52)">
<title>elc::defs::base::range_n::find_first_of_bitmark</title>
<!-- Node1 -->
<g id="node1" class="node">
<title>Node1</title>
<g id="a_node1"><a xlink:title="find_first_of的bitmark实现 若成功找到匹配的数据项，返回其开头，若未找到，返回nullptr">
<polygon fill="#999999" stroke="#666666" points="414,-30 295,-30 295,0 414,0 414,-30"/>
<text text-anchor="start" x="303" y="-18" font-family="Helvetica,sans-Serif" font-size="10.00">elc::defs::base::range</text>
<text text-anchor="middle" x="354.5" y="-7" font-family="Helvetica,sans-Serif" font-size="10.00">_n::find_first_of_bitmark</text>
</a>
</g>
</g>
<!-- Node1&#45;&gt;Node1 -->
<g id="edge5" class="edge">
<title>Node1&#45;&gt;Node1</title>
<path fill="none" stroke="#63b8ff" d="M380.84,-40.6C377.24,-44.97 368.46,-48 354.5,-48 330.98,-48 322.17,-39.41 328.04,-30.28"/>
<polygon fill="#63b8ff" stroke="#63b8ff" points="384.35,-40.31 380.96,-30.28 377.35,-40.24 384.35,-40.31"/>
</g>
<!-- Node2 -->
<g id="node2" class="node">
<title>Node2</title>
<g id="a_node2"><a xlink:href="namespaceelc_1_1defs_1_1base_1_1range__n.html#a6ac1bd58a416955da7938bc7bba2f2ae" target="_top" xlink:title="若成功找到匹配的数据项，返回其开头，若未找到，返回nullptr">
<polygon fill="white" stroke="#666666" points="259,-30 149,-30 149,0 259,0 259,-30"/>
<text text-anchor="start" x="157" y="-18" font-family="Helvetica,sans-Serif" font-size="10.00">elc::defs::base::range</text>
<text text-anchor="middle" x="204" y="-7" font-family="Helvetica,sans-Serif" font-size="10.00">_n::find_first_of</text>
</a>
</g>
</g>
<!-- Node1&#45;&gt;Node2 -->
<g id="edge1" class="edge">
<title>Node1&#45;&gt;Node2</title>
<path fill="none" stroke="#63b8ff" d="M284.58,-15C276.13,-15 267.59,-15 259.4,-15"/>
<polygon fill="#63b8ff" stroke="#63b8ff" points="284.81,-18.5 294.81,-15 284.81,-11.5 284.81,-18.5"/>
</g>
<!-- Node2&#45;&gt;Node2 -->
<g id="edge2" class="edge">
<title>Node2&#45;&gt;Node2</title>
<path fill="none" stroke="#63b8ff" d="M229.82,-40.6C226.29,-44.97 217.68,-48 204,-48 180.95,-48 172.31,-39.41 178.07,-30.28"/>
<polygon fill="#63b8ff" stroke="#63b8ff" points="233.32,-40.31 229.93,-30.28 226.32,-40.24 233.32,-40.31"/>
</g>
<!-- Node3 -->
<g id="node3" class="node">
<title>Node3</title>
<g id="a_node3"><a xlink:href="namespaceelc_1_1defs_1_1base_1_1range__n.html#a885b44667becc0b12424b80427b1fb33" target="_top" xlink:title="若成功找到匹配的数据项，返回其距离开头的步数，若未找到，返回npos">
<polygon fill="white" stroke="#666666" points="113,-30 0,-30 0,0 113,0 113,-30"/>
<text text-anchor="start" x="8" y="-18" font-family="Helvetica,sans-Serif" font-size="10.00">elc::defs::base::range</text>
<text text-anchor="middle" x="56.5" y="-7" font-family="Helvetica,sans-Serif" font-size="10.00">_n::find_first_of_size_t</text>
</a>
</g>
</g>
<!-- Node2&#45;&gt;Node3 -->
<g id="edge3" class="edge">
<title>Node2&#45;&gt;Node3</title>
<path fill="none" stroke="#63b8ff" d="M138.59,-15C130.12,-15 121.49,-15 113.18,-15"/>
<polygon fill="#63b8ff" stroke="#63b8ff" points="138.82,-18.5 148.82,-15 138.82,-11.5 138.82,-18.5"/>
</g>
<!-- Node3&#45;&gt;Node3 -->
<g id="edge4" class="edge">
<title>Node3&#45;&gt;Node3</title>
<path fill="none" stroke="#63b8ff" d="M82.32,-40.6C78.79,-44.97 70.18,-48 56.5,-48 33.45,-48 24.81,-39.41 30.57,-30.28"/>
<polygon fill="#63b8ff" stroke="#63b8ff" points="85.82,-40.31 82.43,-30.28 78.82,-40.24 85.82,-40.31"/>
</g>
</g>
</svg>
