<?xml version="1.0" encoding="UTF-8" standalone="no"?>
<!DOCTYPE svg PUBLIC "-//W3C//DTD SVG 1.1//EN"
 "http://www.w3.org/Graphics/SVG/1.1/DTD/svg11.dtd">
<!-- Generated by graphviz version 6.0.1 (20220911.1526)
 -->
<!-- Title: elc::defs::memory::alloc_n::default_method::base_get_size_of_alloc Pages: 1 -->
<svg width="423pt" height="49pt"
 viewBox="0.00 0.00 423.00 49.00" xmlns="http://www.w3.org/2000/svg" xmlns:xlink="http://www.w3.org/1999/xlink">
<g id="graph0" class="graph" transform="scale(1 1) rotate(0) translate(4 45)">
<title>elc::defs::memory::alloc_n::default_method::base_get_size_of_alloc</title>
<!-- Node1 -->
<g id="node1" class="node">
<title>Node1</title>
<g id="a_node1"><a xlink:title="Computes the size of an allocation.">
<polygon fill="#999999" stroke="#666666" points="124,-41 0,-41 0,0 124,0 124,-41"/>
<text text-anchor="start" x="8" y="-29" font-family="Helvetica,sans-Serif" font-size="10.00">elc::defs::memory::</text>
<text text-anchor="start" x="8" y="-18" font-family="Helvetica,sans-Serif" font-size="10.00">alloc_n::default_method</text>
<text text-anchor="middle" x="62" y="-7" font-family="Helvetica,sans-Serif" font-size="10.00">::base_get_size_of_alloc</text>
</a>
</g>
</g>
<!-- Node2 -->
<g id="node2" class="node">
<title>Node2</title>
<g id="a_node2"><a xlink:href="namespaceelc_1_1_a_p_is_1_1alloc.html#a1aa6b76b00cae31f4cf4941de23ea219" target="_top" xlink:title=" ">
<polygon fill="white" stroke="#666666" points="262,-35.5 160,-35.5 160,-5.5 262,-5.5 262,-35.5"/>
<text text-anchor="start" x="168" y="-23.5" font-family="Helvetica,sans-Serif" font-size="10.00">elc::APIs::alloc::get</text>
<text text-anchor="middle" x="211" y="-12.5" font-family="Helvetica,sans-Serif" font-size="10.00">_size_of_alloc</text>
</a>
</g>
</g>
<!-- Node1&#45;&gt;Node2 -->
<g id="edge1" class="edge">
<title>Node1&#45;&gt;Node2</title>
<path fill="none" stroke="#63b8ff" d="M124.06,-20.5C132.48,-20.5 141.11,-20.5 149.51,-20.5"/>
<polygon fill="#63b8ff" stroke="#63b8ff" points="149.62,-24 159.61,-20.5 149.61,-17 149.62,-24"/>
</g>
<!-- Node3 -->
<g id="node3" class="node">
<title>Node3</title>
<g id="a_node3"><a xlink:href="namespaceelc_1_1defs_1_1base.html#aaa02333d0e6e5a777209215aee6caf6f" target="_top" xlink:title="对指针移除const">
<polygon fill="white" stroke="#666666" points="415,-35.5 298,-35.5 298,-5.5 415,-5.5 415,-35.5"/>
<text text-anchor="start" x="306" y="-23.5" font-family="Helvetica,sans-Serif" font-size="10.00">elc::defs::base::remove</text>
<text text-anchor="middle" x="356.5" y="-12.5" font-family="Helvetica,sans-Serif" font-size="10.00">_const</text>
</a>
</g>
</g>
<!-- Node2&#45;&gt;Node3 -->
<g id="edge2" class="edge">
<title>Node2&#45;&gt;Node3</title>
<path fill="none" stroke="#63b8ff" d="M262.19,-20.5C270.44,-20.5 279.11,-20.5 287.7,-20.5"/>
<polygon fill="#63b8ff" stroke="#63b8ff" points="287.72,-24 297.72,-20.5 287.72,-17 287.72,-24"/>
</g>
</g>
</svg>
