<?xml version="1.0" encoding="UTF-8" standalone="no"?>
<!DOCTYPE svg PUBLIC "-//W3C//DTD SVG 1.1//EN"
 "http://www.w3.org/Graphics/SVG/1.1/DTD/svg11.dtd">
<!-- Generated by graphviz version 6.0.1 (20220911.1526)
 -->
<!-- Title: elc::defs::core::as_ptr Pages: 1 -->
<svg width="457pt" height="505pt"
 viewBox="0.00 0.00 457.00 505.00" xmlns="http://www.w3.org/2000/svg" xmlns:xlink="http://www.w3.org/1999/xlink">
<g id="graph0" class="graph" transform="scale(1 1) rotate(0) translate(4 501)">
<title>elc::defs::core::as_ptr</title>
<!-- Node1 -->
<g id="node1" class="node">
<title>Node1</title>
<g id="a_node1"><a xlink:title=" ">
<polygon fill="#999999" stroke="#666666" points="449,-189.5 338,-189.5 338,-170.5 449,-170.5 449,-189.5"/>
<text text-anchor="middle" x="393.5" y="-177.5" font-family="Helvetica,sans-Serif" font-size="10.00">elc::defs::core::as_ptr</text>
</a>
</g>
</g>
<!-- Node1&#45;&gt;Node1 -->
<g id="edge1" class="edge">
<title>Node1&#45;&gt;Node1</title>
<path fill="none" stroke="#63b8ff" d="M422.34,-198.32C421.13,-203.51 411.52,-207.5 393.5,-207.5 366.04,-207.5 358.1,-198.23 369.69,-189.58"/>
<polygon fill="#63b8ff" stroke="#63b8ff" points="425.33,-196.51 417.31,-189.58 419.27,-200 425.33,-196.51"/>
</g>
<!-- Node2 -->
<g id="node2" class="node">
<title>Node2</title>
<g id="a_node2"><a xlink:href="namespaceelc_1_1defs_1_1core.html#a476a30e4da2e29b52c54c7a59dc3f4f3" target="_top" xlink:title=" ">
<polygon fill="white" stroke="#666666" points="286.5,-389 191.5,-389 191.5,-359 286.5,-359 286.5,-389"/>
<text text-anchor="start" x="199.5" y="-377" font-family="Helvetica,sans-Serif" font-size="10.00">elc::defs::core::as</text>
<text text-anchor="middle" x="239" y="-366" font-family="Helvetica,sans-Serif" font-size="10.00">_value</text>
</a>
</g>
</g>
<!-- Node1&#45;&gt;Node2 -->
<g id="edge2" class="edge">
<title>Node1&#45;&gt;Node2</title>
<path fill="none" stroke="#63b8ff" d="M387.1,-199.45C376.47,-234.32 349.63,-307.76 302,-350 297.51,-353.98 292.29,-357.34 286.81,-360.15"/>
<polygon fill="#63b8ff" stroke="#63b8ff" points="390.54,-200.15 389.99,-189.57 383.82,-198.19 390.54,-200.15"/>
</g>
<!-- Node8 -->
<g id="node8" class="node">
<title>Node8</title>
<g id="a_node8"><a xlink:href="namespaceelc_1_1defs_1_1core.html#a2f2a3a711e09437bd5d9ea5e7524baf6" target="_top" xlink:title=" ">
<polygon fill="white" stroke="#666666" points="296,-323 182,-323 182,-293 296,-293 296,-323"/>
<text text-anchor="start" x="190" y="-311" font-family="Helvetica,sans-Serif" font-size="10.00">elc::defs::core::as</text>
<text text-anchor="middle" x="239" y="-300" font-family="Helvetica,sans-Serif" font-size="10.00">_value_nothrow_helper</text>
</a>
</g>
</g>
<!-- Node1&#45;&gt;Node8 -->
<g id="edge9" class="edge">
<title>Node1&#45;&gt;Node8</title>
<path fill="none" stroke="#63b8ff" d="M380.86,-198.15C365.36,-221.01 335.92,-260.19 302,-284 297.18,-287.38 291.82,-290.37 286.33,-292.98"/>
<polygon fill="#63b8ff" stroke="#63b8ff" points="383.84,-199.98 386.44,-189.71 378,-196.11 383.84,-199.98"/>
</g>
<!-- Node9 -->
<g id="node9" class="node">
<title>Node9</title>
<g id="a_node9"><a xlink:href="structelc_1_1defs_1_1core_1_1expr.html#a4b7b1c90a3b464d7bfa4a23a794d9cad" target="_top" xlink:title=" ">
<polygon fill="white" stroke="#666666" points="290.5,-275 187.5,-275 187.5,-245 290.5,-245 290.5,-275"/>
<text text-anchor="start" x="195.5" y="-263" font-family="Helvetica,sans-Serif" font-size="10.00">elc::defs::core::expr</text>
<text text-anchor="middle" x="239" y="-252" font-family="Helvetica,sans-Serif" font-size="10.00">::be_eval</text>
</a>
</g>
</g>
<!-- Node1&#45;&gt;Node9 -->
<g id="edge11" class="edge">
<title>Node1&#45;&gt;Node9</title>
<path fill="none" stroke="#63b8ff" d="M369.88,-195.17C351.92,-206.86 325.93,-223 302,-235 295.05,-238.48 287.49,-241.86 280.12,-244.94"/>
<polygon fill="#63b8ff" stroke="#63b8ff" points="372.06,-197.92 378.49,-189.5 368.21,-192.08 372.06,-197.92"/>
</g>
<!-- Node10 -->
<g id="node10" class="node">
<title>Node10</title>
<g id="a_node10"><a xlink:href="namespaceelc_1_1defs_1_1core.html#a17a2ea9581d028a7ecbe3b1441a34528" target="_top" xlink:title=" ">
<polygon fill="white" stroke="#666666" points="294,-226.5 184,-226.5 184,-207.5 294,-207.5 294,-226.5"/>
<text text-anchor="middle" x="239" y="-214.5" font-family="Helvetica,sans-Serif" font-size="10.00">elc::defs::core::car_of</text>
</a>
</g>
</g>
<!-- Node1&#45;&gt;Node10 -->
<g id="edge12" class="edge">
<title>Node1&#45;&gt;Node10</title>
<path fill="none" stroke="#63b8ff" d="M343.35,-191.93C322.66,-196.94 298.91,-202.71 279.4,-207.44"/>
<polygon fill="#63b8ff" stroke="#63b8ff" points="344.33,-195.29 353.23,-189.53 342.68,-188.48 344.33,-195.29"/>
</g>
<!-- Node11 -->
<g id="node11" class="node">
<title>Node11</title>
<g id="a_node11"><a xlink:href="namespaceelc_1_1defs_1_1core.html#a6e7438f71a0b33ed35f39446a4bcfb4b" target="_top" xlink:title=" ">
<polygon fill="white" stroke="#666666" points="294,-189.5 184,-189.5 184,-170.5 294,-170.5 294,-189.5"/>
<text text-anchor="middle" x="239" y="-177.5" font-family="Helvetica,sans-Serif" font-size="10.00">elc::defs::core::cdr_of</text>
</a>
</g>
</g>
<!-- Node1&#45;&gt;Node11 -->
<g id="edge13" class="edge">
<title>Node1&#45;&gt;Node11</title>
<path fill="none" stroke="#63b8ff" d="M327.75,-180C316.59,-180 305.09,-180 294.24,-180"/>
<polygon fill="#63b8ff" stroke="#63b8ff" points="327.87,-183.5 337.87,-180 327.87,-176.5 327.87,-183.5"/>
</g>
<!-- Node12 -->
<g id="node12" class="node">
<title>Node12</title>
<g id="a_node12"><a xlink:href="namespaceelc_1_1defs_1_1core.html#a016165b007a6449ae495fef02aa93ace" target="_top" xlink:title=" ">
<polygon fill="white" stroke="#666666" points="289.5,-152.5 188.5,-152.5 188.5,-133.5 289.5,-133.5 289.5,-152.5"/>
<text text-anchor="middle" x="239" y="-140.5" font-family="Helvetica,sans-Serif" font-size="10.00">elc::defs::core::eval</text>
</a>
</g>
</g>
<!-- Node1&#45;&gt;Node12 -->
<g id="edge14" class="edge">
<title>Node1&#45;&gt;Node12</title>
<path fill="none" stroke="#63b8ff" d="M343.35,-168.07C322.66,-163.06 298.91,-157.29 279.4,-152.56"/>
<polygon fill="#63b8ff" stroke="#63b8ff" points="342.68,-171.52 353.23,-170.47 344.33,-164.71 342.68,-171.52"/>
</g>
<!-- Node13 -->
<g id="node13" class="node">
<title>Node13</title>
<g id="a_node13"><a xlink:href="namespaceelc_1_1defs_1_1core.html#a49fa729db00c8888c5ebc8d0e7aa686d" target="_top" xlink:title=" ">
<polygon fill="white" stroke="#666666" points="302,-115.5 176,-115.5 176,-96.5 302,-96.5 302,-115.5"/>
<text text-anchor="middle" x="239" y="-103.5" font-family="Helvetica,sans-Serif" font-size="10.00">elc::defs::core::make_list</text>
</a>
</g>
</g>
<!-- Node1&#45;&gt;Node13 -->
<g id="edge15" class="edge">
<title>Node1&#45;&gt;Node13</title>
<path fill="none" stroke="#63b8ff" d="M371.17,-164.48C353.39,-152.13 327.02,-135.12 302,-124 294.73,-120.77 286.72,-117.94 278.95,-115.55"/>
<polygon fill="#63b8ff" stroke="#63b8ff" points="369.45,-167.55 379.63,-170.46 373.49,-161.83 369.45,-167.55"/>
</g>
<!-- Node14 -->
<g id="node14" class="node">
<title>Node14</title>
<g id="a_node14"><a xlink:href="structelc_1_1defs_1_1core_1_1value.html#ada5354c6053f118f2deeb2003a2bdc88" target="_top" xlink:title=" ">
<polygon fill="white" stroke="#666666" points="292,-78 186,-78 186,-48 292,-48 292,-78"/>
<text text-anchor="start" x="194" y="-66" font-family="Helvetica,sans-Serif" font-size="10.00">elc::defs::core::value</text>
<text text-anchor="middle" x="239" y="-55" font-family="Helvetica,sans-Serif" font-size="10.00">::operator=</text>
</a>
</g>
</g>
<!-- Node1&#45;&gt;Node14 -->
<g id="edge16" class="edge">
<title>Node1&#45;&gt;Node14</title>
<path fill="none" stroke="#63b8ff" d="M379.22,-162.31C362.98,-141.75 333.74,-107.98 302,-87 296.99,-83.69 291.46,-80.73 285.83,-78.13"/>
<polygon fill="#63b8ff" stroke="#63b8ff" points="376.46,-164.46 385.34,-170.23 382,-160.18 376.46,-164.46"/>
</g>
<!-- Node15 -->
<g id="node15" class="node">
<title>Node15</title>
<g id="a_node15"><a xlink:href="namespaceelc_1_1defs_1_1core.html#a4a330c61d7a7062b6859feec5ebb6619" target="_top" xlink:title=" ">
<polygon fill="white" stroke="#666666" points="289,-30 189,-30 189,0 289,0 289,-30"/>
<text text-anchor="start" x="197" y="-18" font-family="Helvetica,sans-Serif" font-size="10.00">elc::defs::core::use</text>
<text text-anchor="middle" x="239" y="-7" font-family="Helvetica,sans-Serif" font-size="10.00">_by_ref_as</text>
</a>
</g>
</g>
<!-- Node1&#45;&gt;Node15 -->
<g id="edge17" class="edge">
<title>Node1&#45;&gt;Node15</title>
<path fill="none" stroke="#63b8ff" d="M384.95,-160.98C372.16,-131.05 343.52,-72.9 302,-39 297.8,-35.57 293.05,-32.59 288.1,-30.01"/>
<polygon fill="#63b8ff" stroke="#63b8ff" points="381.75,-162.4 388.8,-170.3 388.21,-159.72 381.75,-162.4"/>
</g>
<!-- Node2&#45;&gt;Node2 -->
<g id="edge4" class="edge">
<title>Node2&#45;&gt;Node2</title>
<path fill="none" stroke="#63b8ff" d="M266.04,-399.6C262.35,-403.97 253.33,-407 239,-407 214.86,-407 205.81,-398.41 211.84,-389.28"/>
<polygon fill="#63b8ff" stroke="#63b8ff" points="269.55,-399.31 266.16,-389.28 262.55,-399.24 269.55,-399.31"/>
</g>
<!-- Node3 -->
<g id="node3" class="node">
<title>Node3</title>
<g id="a_node3"><a xlink:href="structelc_1_1defs_1_1core_1_1binary__node__t.html#a249a14c4c4716c24c985ed2b40cfdf9b" target="_top" xlink:title=" ">
<polygon fill="white" stroke="#666666" points="125,-497 15,-497 15,-467 125,-467 125,-497"/>
<text text-anchor="start" x="23" y="-485" font-family="Helvetica,sans-Serif" font-size="10.00">elc::defs::core::binary</text>
<text text-anchor="middle" x="70" y="-474" font-family="Helvetica,sans-Serif" font-size="10.00">_node_t::arec</text>
</a>
</g>
</g>
<!-- Node2&#45;&gt;Node3 -->
<g id="edge3" class="edge">
<title>Node2&#45;&gt;Node3</title>
<path fill="none" stroke="#63b8ff" d="M216.36,-396.8C197.64,-415.42 169.07,-441.29 140,-458 134.17,-461.35 127.8,-464.34 121.36,-466.98"/>
<polygon fill="#63b8ff" stroke="#63b8ff" points="219.21,-398.89 223.75,-389.32 214.23,-393.97 219.21,-398.89"/>
</g>
<!-- Node4 -->
<g id="node4" class="node">
<title>Node4</title>
<g id="a_node4"><a xlink:href="structelc_1_1defs_1_1core_1_1base__binary__function__node.html#a11a9bdffc6908db03801f288c0ce9cd6" target="_top" xlink:title=" ">
<polygon fill="white" stroke="#666666" points="140,-448.5 0,-448.5 0,-407.5 140,-407.5 140,-448.5"/>
<text text-anchor="start" x="8" y="-436.5" font-family="Helvetica,sans-Serif" font-size="10.00">elc::defs::core::base</text>
<text text-anchor="start" x="8" y="-425.5" font-family="Helvetica,sans-Serif" font-size="10.00">_binary_function_node</text>
<text text-anchor="middle" x="70" y="-414.5" font-family="Helvetica,sans-Serif" font-size="10.00">::base_binary_function_node</text>
</a>
</g>
</g>
<!-- Node2&#45;&gt;Node4 -->
<g id="edge5" class="edge">
<title>Node2&#45;&gt;Node4</title>
<path fill="none" stroke="#63b8ff" d="M181.72,-392.2C166.53,-397.11 149.98,-402.46 134.43,-407.49"/>
<polygon fill="#63b8ff" stroke="#63b8ff" points="183.04,-395.45 191.48,-389.04 180.89,-388.79 183.04,-395.45"/>
</g>
<!-- Node5 -->
<g id="node5" class="node">
<title>Node5</title>
<g id="a_node5"><a xlink:href="structelc_1_1defs_1_1core_1_1cons.html#aa70134fa35de863a301a729f5797f408" target="_top" xlink:title=" ">
<polygon fill="white" stroke="#666666" points="122.5,-389 17.5,-389 17.5,-359 122.5,-359 122.5,-389"/>
<text text-anchor="start" x="25.5" y="-377" font-family="Helvetica,sans-Serif" font-size="10.00">elc::defs::core::cons</text>
<text text-anchor="middle" x="70" y="-366" font-family="Helvetica,sans-Serif" font-size="10.00">::clear</text>
</a>
</g>
</g>
<!-- Node2&#45;&gt;Node5 -->
<g id="edge6" class="edge">
<title>Node2&#45;&gt;Node5</title>
<path fill="none" stroke="#63b8ff" d="M181.43,-374C162.37,-374 141.21,-374 122.55,-374"/>
<polygon fill="#63b8ff" stroke="#63b8ff" points="181.48,-377.5 191.48,-374 181.48,-370.5 181.48,-377.5"/>
</g>
<!-- Node6 -->
<g id="node6" class="node">
<title>Node6</title>
<g id="a_node6"><a xlink:href="structelc_1_1defs_1_1core_1_1value.html#a862dce2e7635966403ec14a8e773ea32" target="_top" xlink:title=" ">
<polygon fill="white" stroke="#666666" points="123,-341 17,-341 17,-311 123,-311 123,-341"/>
<text text-anchor="start" x="25" y="-329" font-family="Helvetica,sans-Serif" font-size="10.00">elc::defs::core::value</text>
<text text-anchor="middle" x="70" y="-318" font-family="Helvetica,sans-Serif" font-size="10.00">::operator==</text>
</a>
</g>
</g>
<!-- Node2&#45;&gt;Node6 -->
<g id="edge7" class="edge">
<title>Node2&#45;&gt;Node6</title>
<path fill="none" stroke="#63b8ff" d="M181.79,-357.84C162.83,-352.39 141.77,-346.34 123.15,-340.99"/>
<polygon fill="#63b8ff" stroke="#63b8ff" points="180.9,-361.23 191.48,-360.63 182.84,-354.5 180.9,-361.23"/>
</g>
<!-- Node7 -->
<g id="node7" class="node">
<title>Node7</title>
<g id="a_node7"><a xlink:href="structelc_1_1defs_1_1core_1_1node__like.html#ab2028a957d17acd29a8e432a0c1ac767" target="_top" xlink:title=" ">
<polygon fill="white" stroke="#666666" points="122.5,-293 17.5,-293 17.5,-263 122.5,-263 122.5,-293"/>
<text text-anchor="start" x="25.5" y="-281" font-family="Helvetica,sans-Serif" font-size="10.00">elc::defs::core::node</text>
<text text-anchor="middle" x="70" y="-270" font-family="Helvetica,sans-Serif" font-size="10.00">_like::operator[]</text>
</a>
</g>
</g>
<!-- Node2&#45;&gt;Node7 -->
<g id="edge8" class="edge">
<title>Node2&#45;&gt;Node7</title>
<path fill="none" stroke="#63b8ff" d="M182.46,-354.4C180.22,-353.02 178.05,-351.56 176,-350 154.74,-333.9 161.53,-317.73 140,-302 134.78,-298.18 128.9,-294.94 122.83,-292.18"/>
<polygon fill="#63b8ff" stroke="#63b8ff" points="180.98,-357.58 191.43,-359.32 184.34,-351.44 180.98,-357.58"/>
</g>
<!-- Node8&#45;&gt;Node8 -->
<g id="edge10" class="edge">
<title>Node8&#45;&gt;Node8</title>
<path fill="none" stroke="#63b8ff" d="M266.04,-333.6C262.35,-337.97 253.33,-341 239,-341 214.86,-341 205.81,-332.41 211.84,-323.28"/>
<polygon fill="#63b8ff" stroke="#63b8ff" points="269.55,-333.31 266.16,-323.28 262.55,-333.24 269.55,-333.31"/>
</g>
</g>
</svg>
