<?xml version="1.0" encoding="UTF-8" standalone="no"?>
<!DOCTYPE svg PUBLIC "-//W3C//DTD SVG 1.1//EN"
 "http://www.w3.org/Graphics/SVG/1.1/DTD/svg11.dtd">
<!-- Generated by graphviz version 6.0.1 (20220911.1526)
 -->
<!-- Title: elc::defs::base::remove_const Pages: 1 -->
<!--zoomable 1094 -->
<svg id="main" version="1.1" xmlns="http://www.w3.org/2000/svg" xmlns:xlink="http://www.w3.org/1999/xlink" xml:space="preserve" onload="init(evt)">
<style type="text/css"><![CDATA[
.edge:hover path { stroke: red; }
.edge:hover polygon { stroke: red; fill: red; }
]]></style>
<script type="text/javascript"><![CDATA[
var edges = document.getElementsByTagName('g');
if (edges && edges.length) {
  for (var i=0;i<edges.length;i++) {
    if (edges[i].id.substr(0,4)=='edge') {
      edges[i].setAttribute('class','edge');
    }
  }
}
]]></script>
        <defs>
                <circle id="rim" cx="0" cy="0" r="7"/>
                <circle id="rim2" cx="0" cy="0" r="3.5"/>
                <g id="zoomPlus">
                        <use xlink:href="#rim" fill="#404040">
                                <set attributeName="fill" to="#808080" begin="zoomplus.mouseover" end="zoomplus.mouseout"/>
                        </use>
                        <path d="M-4,0h8M0,-4v8" fill="none" stroke="white" stroke-width="1.5" pointer-events="none"/>
                </g>
                <g id="zoomMin">
                        <use xlink:href="#rim" fill="#404040">
                                <set attributeName="fill" to="#808080" begin="zoomminus.mouseover" end="zoomminus.mouseout"/>
                        </use>
                        <path d="M-4,0h8" fill="none" stroke="white" stroke-width="1.5" pointer-events="none"/>
                </g>
                <g id="dirArrow">
                        <path fill="none" stroke="white" stroke-width="1.5" d="M0,-3.0v7 M-2.5,-0.5L0,-3.0L2.5,-0.5"/>
                </g>
               <g id="resetDef">
                       <use xlink:href="#rim2" fill="#404040">
                               <set attributeName="fill" to="#808080" begin="reset.mouseover" end="reset.mouseout"/>
                       </use>
               </g>
        </defs>

<script type="text/javascript">
var viewWidth = 479;
var viewHeight = 1094;
var sectionId = 'dynsection-19';
</script>
<script xlink:href="svgpan.js"/>
<svg id="graph" class="graph">
<g id="viewport">
<title>elc::defs::base::remove_const</title>
<!-- Node1 -->
<g id="node1" class="node">
<title>Node1</title>
<g id="a_node1"><a xlink:title="对引用移除const">
<polygon fill="#999999" stroke="#666666" points="471,-503.5 354,-503.5 354,-473.5 471,-473.5 471,-503.5"/>
<text text-anchor="start" x="362" y="-491.5" font-family="Helvetica,sans-Serif" font-size="10.00">elc::defs::base::remove</text>
<text text-anchor="middle" x="412.5" y="-480.5" font-family="Helvetica,sans-Serif" font-size="10.00">_const</text>
</a>
</g>
</g>
<!-- Node2 -->
<g id="node2" class="node">
<title>Node2</title>
<g id="a_node2"><a xlink:href="namespaceelc_1_1defs_1_1core.html#a476a30e4da2e29b52c54c7a59dc3f4f3" target="_top" xlink:title=" ">
<polygon fill="white" stroke="#666666" points="294.5,-977.5 199.5,-977.5 199.5,-947.5 294.5,-947.5 294.5,-977.5"/>
<text text-anchor="start" x="207.5" y="-965.5" font-family="Helvetica,sans-Serif" font-size="10.00">elc::defs::core::as</text>
<text text-anchor="middle" x="247" y="-954.5" font-family="Helvetica,sans-Serif" font-size="10.00">_value</text>
</a>
</g>
</g>
<!-- Node1&#45;&gt;Node2 -->
<g id="edge1" class="edge">
<title>Node1&#45;&gt;Node2</title>
<path fill="none" stroke="#63b8ff" d="M409.49,-513.82C402.26,-599.08 374.88,-874 318,-938.5 311.8,-945.53 303.44,-950.51 294.66,-954.03"/>
<polygon fill="#63b8ff" stroke="#63b8ff" points="412.99,-513.99 410.33,-503.74 406.02,-513.41 412.99,-513.99"/>
</g>
<!-- Node8 -->
<g id="node8" class="node">
<title>Node8</title>
<g id="a_node8"><a xlink:href="namespaceelc_1_1defs_1_1core.html#a2f2a3a711e09437bd5d9ea5e7524baf6" target="_top" xlink:title=" ">
<polygon fill="white" stroke="#666666" points="304,-911.5 190,-911.5 190,-881.5 304,-881.5 304,-911.5"/>
<text text-anchor="start" x="198" y="-899.5" font-family="Helvetica,sans-Serif" font-size="10.00">elc::defs::core::as</text>
<text text-anchor="middle" x="247" y="-888.5" font-family="Helvetica,sans-Serif" font-size="10.00">_value_nothrow_helper</text>
</a>
</g>
</g>
<!-- Node1&#45;&gt;Node8 -->
<g id="edge8" class="edge">
<title>Node1&#45;&gt;Node8</title>
<path fill="none" stroke="#63b8ff" d="M408.52,-513.79C398.99,-590.54 367.04,-818.76 318,-872.5 314.1,-876.77 309.41,-880.28 304.33,-883.17"/>
<polygon fill="#63b8ff" stroke="#63b8ff" points="412.02,-513.96 409.76,-503.61 405.07,-513.11 412.02,-513.96"/>
</g>
<!-- Node9 -->
<g id="node9" class="node">
<title>Node9</title>
<g id="a_node9"><a xlink:href="structelc_1_1defs_1_1string__n_1_1string__t.html#a886347997999e5bc7c6e53dbffb94001" target="_top" xlink:title=" ">
<polygon fill="white" stroke="#666666" points="294,-863.5 200,-863.5 200,-833.5 294,-833.5 294,-863.5"/>
<text text-anchor="start" x="208" y="-851.5" font-family="Helvetica,sans-Serif" font-size="10.00">elc::defs::string_n</text>
<text text-anchor="middle" x="247" y="-840.5" font-family="Helvetica,sans-Serif" font-size="10.00">::string_t::back</text>
</a>
</g>
</g>
<!-- Node1&#45;&gt;Node9 -->
<g id="edge10" class="edge">
<title>Node1&#45;&gt;Node9</title>
<path fill="none" stroke="#63b8ff" d="M411.98,-513.93C411.74,-575.65 402.46,-734.91 318,-824.5 311.57,-831.32 303.11,-836.21 294.31,-839.7"/>
<polygon fill="#63b8ff" stroke="#63b8ff" points="415.48,-513.56 411.94,-503.58 408.48,-513.59 415.48,-513.56"/>
</g>
<!-- Node10 -->
<g id="node10" class="node">
<title>Node10</title>
<g id="a_node10"><a xlink:href="structelc_1_1defs_1_1memory_1_1get__n_1_1copy__get__t.html#a85a0014514bc14fada309d751fb3c1be" target="_top" xlink:title=" ">
<polygon fill="white" stroke="#666666" points="318,-815.5 176,-815.5 176,-785.5 318,-785.5 318,-815.5"/>
<text text-anchor="start" x="184" y="-803.5" font-family="Helvetica,sans-Serif" font-size="10.00">elc::defs::memory::</text>
<text text-anchor="middle" x="247" y="-792.5" font-family="Helvetica,sans-Serif" font-size="10.00">get_n::copy_get_t::base_call</text>
</a>
</g>
</g>
<!-- Node1&#45;&gt;Node10 -->
<g id="edge11" class="edge">
<title>Node1&#45;&gt;Node10</title>
<path fill="none" stroke="#63b8ff" d="M410.46,-513.89C406.84,-569.04 390.63,-700.81 318,-775.5 314.22,-779.39 309.8,-782.67 305.05,-785.44"/>
<polygon fill="#63b8ff" stroke="#63b8ff" points="413.97,-513.81 411.04,-503.63 406.98,-513.41 413.97,-513.81"/>
</g>
<!-- Node11 -->
<g id="node11" class="node">
<title>Node11</title>
<g id="a_node11"><a xlink:href="structelc_1_1defs_1_1base_1_1array__like__n_1_1array__like__view__t.html#acccc3655a0125cc9d3065590796f8383" target="_top" xlink:title=" ">
<polygon fill="white" stroke="#666666" points="306.5,-767 187.5,-767 187.5,-726 306.5,-726 306.5,-767"/>
<text text-anchor="start" x="195.5" y="-755" font-family="Helvetica,sans-Serif" font-size="10.00">elc::defs::base::array</text>
<text text-anchor="start" x="195.5" y="-744" font-family="Helvetica,sans-Serif" font-size="10.00">_like_n::array_like_view</text>
<text text-anchor="middle" x="247" y="-733" font-family="Helvetica,sans-Serif" font-size="10.00">_t::cbegin</text>
</a>
</g>
</g>
<!-- Node1&#45;&gt;Node11 -->
<g id="edge12" class="edge">
<title>Node1&#45;&gt;Node11</title>
<path fill="none" stroke="#63b8ff" d="M407.59,-513.74C399.2,-559.83 375.38,-658.21 318,-716.5 314.57,-719.99 310.67,-723.09 306.5,-725.85"/>
<polygon fill="#63b8ff" stroke="#63b8ff" points="411.07,-514.16 409.32,-503.72 404.17,-512.98 411.07,-514.16"/>
</g>
<!-- Node12 -->
<g id="node12" class="node">
<title>Node12</title>
<g id="a_node12"><a xlink:href="structelc_1_1defs_1_1base_1_1array__like__n_1_1array__like__view__t.html#af0925246b65b042ca267fbbd11c13880" target="_top" xlink:title=" ">
<polygon fill="white" stroke="#666666" points="306.5,-708 187.5,-708 187.5,-667 306.5,-667 306.5,-708"/>
<text text-anchor="start" x="195.5" y="-696" font-family="Helvetica,sans-Serif" font-size="10.00">elc::defs::base::array</text>
<text text-anchor="start" x="195.5" y="-685" font-family="Helvetica,sans-Serif" font-size="10.00">_like_n::array_like_view</text>
<text text-anchor="middle" x="247" y="-674" font-family="Helvetica,sans-Serif" font-size="10.00">_t::cend</text>
</a>
</g>
</g>
<!-- Node1&#45;&gt;Node12 -->
<g id="edge13" class="edge">
<title>Node1&#45;&gt;Node12</title>
<path fill="none" stroke="#63b8ff" d="M403.55,-513.51C390.87,-549.76 362.82,-616.97 318,-657.5 314.18,-660.96 309.89,-664.06 305.38,-666.83"/>
<polygon fill="#63b8ff" stroke="#63b8ff" points="406.97,-514.33 406.86,-503.74 400.34,-512.09 406.97,-514.33"/>
</g>
<!-- Node13 -->
<g id="node13" class="node">
<title>Node13</title>
<g id="a_node13"><a xlink:href="structelc_1_1defs_1_1string__n_1_1string__data__n_1_1constexpr__string__data__t.html#afacd630ddef85be53291e4bc13ae8bab" target="_top" xlink:title=" ">
<polygon fill="white" stroke="#666666" points="315.5,-648.5 178.5,-648.5 178.5,-596.5 315.5,-596.5 315.5,-648.5"/>
<text text-anchor="start" x="186.5" y="-636.5" font-family="Helvetica,sans-Serif" font-size="10.00">elc::defs::string_n</text>
<text text-anchor="start" x="186.5" y="-625.5" font-family="Helvetica,sans-Serif" font-size="10.00">::string_data_n::constexpr</text>
<text text-anchor="start" x="186.5" y="-614.5" font-family="Helvetica,sans-Serif" font-size="10.00">_string_data_t::clear_match</text>
<text text-anchor="middle" x="247" y="-603.5" font-family="Helvetica,sans-Serif" font-size="10.00">_pattern</text>
</a>
</g>
</g>
<!-- Node1&#45;&gt;Node13 -->
<g id="edge14" class="edge">
<title>Node1&#45;&gt;Node13</title>
<path fill="none" stroke="#63b8ff" d="M393.49,-511.84C375.94,-533.45 347.66,-565.47 318,-587.5 313.75,-590.66 309.16,-593.67 304.45,-596.5"/>
<polygon fill="#63b8ff" stroke="#63b8ff" points="396.37,-513.83 399.88,-503.84 390.91,-509.47 396.37,-513.83"/>
</g>
<!-- Node14 -->
<g id="node14" class="node">
<title>Node14</title>
<g id="a_node14"><a xlink:href="structelc_1_1defs_1_1core_1_1value_1_1null__data__t.html#ab6dc4990aa5479d7fbfba038d67490ba" target="_top" xlink:title=" ">
<polygon fill="white" stroke="#666666" points="300,-578.5 194,-578.5 194,-548.5 300,-548.5 300,-578.5"/>
<text text-anchor="start" x="202" y="-566.5" font-family="Helvetica,sans-Serif" font-size="10.00">elc::defs::core::value</text>
<text text-anchor="middle" x="247" y="-555.5" font-family="Helvetica,sans-Serif" font-size="10.00">::null_data_t::copy</text>
</a>
</g>
</g>
<!-- Node1&#45;&gt;Node14 -->
<g id="edge15" class="edge">
<title>Node1&#45;&gt;Node14</title>
<path fill="none" stroke="#63b8ff" d="M377.97,-508.59C360.46,-518.61 338.46,-530.49 318,-539.5 310.83,-542.66 303.1,-545.67 295.49,-548.44"/>
<polygon fill="#63b8ff" stroke="#63b8ff" points="379.79,-511.58 386.68,-503.54 376.28,-505.52 379.79,-511.58"/>
</g>
<!-- Node15 -->
<g id="node15" class="node">
<title>Node15</title>
<g id="a_node15"><a xlink:href="classelc_1_1defs_1_1memory_1_1ptr__n_1_1ref__able.html#aab6ab1fd7cbc58ee035cc32cdf4c3ce8" target="_top" xlink:title=" ">
<polygon fill="white" stroke="#666666" points="303.5,-530.5 190.5,-530.5 190.5,-500.5 303.5,-500.5 303.5,-530.5"/>
<text text-anchor="start" x="198.5" y="-518.5" font-family="Helvetica,sans-Serif" font-size="10.00">elc::defs::memory::</text>
<text text-anchor="middle" x="247" y="-507.5" font-family="Helvetica,sans-Serif" font-size="10.00">ptr_n::ref_able::cut_ref</text>
</a>
</g>
</g>
<!-- Node1&#45;&gt;Node15 -->
<g id="edge16" class="edge">
<title>Node1&#45;&gt;Node15</title>
<path fill="none" stroke="#63b8ff" d="M343.79,-499.68C330.47,-501.88 316.63,-504.17 303.75,-506.29"/>
<polygon fill="#63b8ff" stroke="#63b8ff" points="344.56,-503.1 353.86,-498.02 343.42,-496.2 344.56,-503.1"/>
</g>
<!-- Node16 -->
<g id="node16" class="node">
<title>Node16</title>
<g id="a_node16"><a xlink:href="classelc_1_1defs_1_1memory_1_1ptr__n_1_1weak__ref__able.html#afcc5b368d2311432001af6a1d3d4085c" target="_top" xlink:title=" ">
<polygon fill="white" stroke="#666666" points="300,-482 194,-482 194,-441 300,-441 300,-482"/>
<text text-anchor="start" x="202" y="-470" font-family="Helvetica,sans-Serif" font-size="10.00">elc::defs::memory::</text>
<text text-anchor="start" x="202" y="-459" font-family="Helvetica,sans-Serif" font-size="10.00">ptr_n::weak_ref_able</text>
<text text-anchor="middle" x="247" y="-448" font-family="Helvetica,sans-Serif" font-size="10.00">::cut_ref</text>
</a>
</g>
</g>
<!-- Node1&#45;&gt;Node16 -->
<g id="edge17" class="edge">
<title>Node1&#45;&gt;Node16</title>
<path fill="none" stroke="#63b8ff" d="M343.88,-477.33C329.3,-474.93 314.1,-472.42 300.22,-470.12"/>
<polygon fill="#63b8ff" stroke="#63b8ff" points="343.42,-480.8 353.86,-478.98 344.56,-473.9 343.42,-480.8"/>
</g>
<!-- Node17 -->
<g id="node17" class="node">
<title>Node17</title>
<g id="a_node17"><a xlink:href="structelc_1_1defs_1_1container_1_1function__n_1_1func__data__t_3_01_t_00_01_ret__t_07_args__t_8_8_8_08_4.html#a525cb64471c415a32c3c7bae81f2a876" target="_top" xlink:title=" ">
<polygon fill="white" stroke="#666666" points="304.5,-422.5 189.5,-422.5 189.5,-370.5 304.5,-370.5 304.5,-422.5"/>
<text text-anchor="start" x="197.5" y="-410.5" font-family="Helvetica,sans-Serif" font-size="10.00">elc::defs::container</text>
<text text-anchor="start" x="197.5" y="-399.5" font-family="Helvetica,sans-Serif" font-size="10.00">::function_n::func_data</text>
<text text-anchor="start" x="197.5" y="-388.5" font-family="Helvetica,sans-Serif" font-size="10.00">_t&lt; T, Ret_t(Args_t...)</text>
<text text-anchor="middle" x="247" y="-377.5" font-family="Helvetica,sans-Serif" font-size="10.00">&gt;::equal_with</text>
</a>
</g>
</g>
<!-- Node1&#45;&gt;Node17 -->
<g id="edge18" class="edge">
<title>Node1&#45;&gt;Node17</title>
<path fill="none" stroke="#63b8ff" d="M379.15,-467.86C361.33,-456.72 338.68,-442.95 318,-431.5 312.65,-428.54 307.02,-425.54 301.37,-422.6"/>
<polygon fill="#63b8ff" stroke="#63b8ff" points="377.67,-471.06 388,-473.42 381.39,-465.13 377.67,-471.06"/>
</g>
<!-- Node18 -->
<g id="node18" class="node">
<title>Node18</title>
<g id="a_node18"><a xlink:href="structelc_1_1defs_1_1string__n_1_1string__t.html#a315119bcc7e1a1e3d0d9006075c7a377" target="_top" xlink:title=" ">
<polygon fill="white" stroke="#666666" points="294,-352.5 200,-352.5 200,-322.5 294,-322.5 294,-352.5"/>
<text text-anchor="start" x="208" y="-340.5" font-family="Helvetica,sans-Serif" font-size="10.00">elc::defs::string_n</text>
<text text-anchor="middle" x="247" y="-329.5" font-family="Helvetica,sans-Serif" font-size="10.00">::string_t::front</text>
</a>
</g>
</g>
<!-- Node1&#45;&gt;Node18 -->
<g id="edge19" class="edge">
<title>Node1&#45;&gt;Node18</title>
<path fill="none" stroke="#63b8ff" d="M399.58,-464.36C384.37,-435.9 355.48,-389.01 318,-361.5 310.85,-356.25 302.47,-352.09 294.05,-348.81"/>
<polygon fill="#63b8ff" stroke="#63b8ff" points="396.49,-465.99 404.21,-473.25 402.7,-462.76 396.49,-465.99"/>
</g>
<!-- Node19 -->
<g id="node19" class="node">
<title>Node19</title>
<g id="a_node19"><a xlink:href="classelc_1_1defs_1_1container_1_1stack__n_1_1base__stack__t.html#a574e7ee29e36e97a52b7c6ac3c8213c4" target="_top" xlink:title=" ">
<polygon fill="white" stroke="#666666" points="303.5,-304 190.5,-304 190.5,-263 303.5,-263 303.5,-304"/>
<text text-anchor="start" x="198.5" y="-292" font-family="Helvetica,sans-Serif" font-size="10.00">elc::defs::container</text>
<text text-anchor="start" x="198.5" y="-281" font-family="Helvetica,sans-Serif" font-size="10.00">::stack_n::base_stack</text>
<text text-anchor="middle" x="247" y="-270" font-family="Helvetica,sans-Serif" font-size="10.00">_t::in_stack</text>
</a>
</g>
</g>
<!-- Node1&#45;&gt;Node19 -->
<g id="edge20" class="edge">
<title>Node1&#45;&gt;Node19</title>
<path fill="none" stroke="#63b8ff" d="M404.23,-463.93C392.07,-426.73 364.28,-355.97 318,-313.5 313.71,-309.57 308.83,-306.1 303.69,-303.05"/>
<polygon fill="#63b8ff" stroke="#63b8ff" points="400.9,-465 407.25,-473.48 407.57,-462.89 400.9,-465"/>
</g>
<!-- Node20 -->
<g id="node20" class="node">
<title>Node20</title>
<g id="a_node20"><a xlink:href="structelc_1_1defs_1_1container_1_1stack__n_1_1auto__stack__t.html#a9c3f05c4f285af606a902835ae1383f0" target="_top" xlink:title=" ">
<polygon fill="white" stroke="#666666" points="302.5,-245 191.5,-245 191.5,-204 302.5,-204 302.5,-245"/>
<text text-anchor="start" x="199.5" y="-233" font-family="Helvetica,sans-Serif" font-size="10.00">elc::defs::container</text>
<text text-anchor="start" x="199.5" y="-222" font-family="Helvetica,sans-Serif" font-size="10.00">::stack_n::auto_stack</text>
<text text-anchor="middle" x="247" y="-211" font-family="Helvetica,sans-Serif" font-size="10.00">_t::in_stack</text>
</a>
</g>
</g>
<!-- Node1&#45;&gt;Node20 -->
<g id="edge21" class="edge">
<title>Node1&#45;&gt;Node20</title>
<path fill="none" stroke="#63b8ff" d="M408.05,-463.41C400.31,-416.24 377.35,-313.69 318,-253.5 313.57,-249 308.34,-245.17 302.76,-241.92"/>
<polygon fill="#63b8ff" stroke="#63b8ff" points="404.6,-464.03 409.59,-473.38 411.52,-462.96 404.6,-464.03"/>
</g>
<!-- Node21 -->
<g id="node21" class="node">
<title>Node21</title>
<g id="a_node21"><a xlink:href="structelc_1_1defs_1_1string__n_1_1string__t.html#a808cecfd2ef22ea7f66a39fb586ddcd3" target="_top" xlink:title=" ">
<polygon fill="white" stroke="#666666" points="304,-185.5 190,-185.5 190,-155.5 304,-155.5 304,-185.5"/>
<text text-anchor="start" x="198" y="-173.5" font-family="Helvetica,sans-Serif" font-size="10.00">elc::defs::string_n</text>
<text text-anchor="middle" x="247" y="-162.5" font-family="Helvetica,sans-Serif" font-size="10.00">::string_t::operator&lt;=&gt;</text>
</a>
</g>
</g>
<!-- Node1&#45;&gt;Node21 -->
<g id="edge22" class="edge">
<title>Node1&#45;&gt;Node21</title>
<path fill="none" stroke="#63b8ff" d="M410.77,-463.18C407.79,-407.03 392.78,-270.97 318,-194.5 313.96,-190.37 309.17,-186.94 304.03,-184.11"/>
<polygon fill="#63b8ff" stroke="#63b8ff" points="407.28,-463.47 411.22,-473.31 414.27,-463.16 407.28,-463.47"/>
</g>
<!-- Node22 -->
<g id="node22" class="node">
<title>Node22</title>
<g id="a_node22"><a xlink:href="structelc_1_1defs_1_1string__n_1_1string__t.html#a3a8f5e1b8a5dbc47b734310b2cad2e2c" target="_top" xlink:title=" ">
<polygon fill="white" stroke="#666666" points="301,-137.5 193,-137.5 193,-107.5 301,-107.5 301,-137.5"/>
<text text-anchor="start" x="201" y="-125.5" font-family="Helvetica,sans-Serif" font-size="10.00">elc::defs::string_n</text>
<text text-anchor="middle" x="247" y="-114.5" font-family="Helvetica,sans-Serif" font-size="10.00">::string_t::operator==</text>
</a>
</g>
</g>
<!-- Node1&#45;&gt;Node22 -->
<g id="edge23" class="edge">
<title>Node1&#45;&gt;Node22</title>
<path fill="none" stroke="#63b8ff" d="M412.13,-463.02C412.26,-400.5 403.83,-237.96 318,-146.5 313.25,-141.44 307.39,-137.45 301.1,-134.3"/>
<polygon fill="#63b8ff" stroke="#63b8ff" points="408.63,-463.13 412.03,-473.16 415.63,-463.2 408.63,-463.13"/>
</g>
<!-- Node23 -->
<g id="node23" class="node">
<title>Node23</title>
<g id="a_node23"><a xlink:href="structelc_1_1defs_1_1string__n_1_1string__t.html#a4d350f057271a28b725baa1bc5bda652" target="_top" xlink:title=" ">
<polygon fill="white" stroke="#666666" points="298,-89.5 196,-89.5 196,-59.5 298,-59.5 298,-89.5"/>
<text text-anchor="start" x="204" y="-77.5" font-family="Helvetica,sans-Serif" font-size="10.00">elc::defs::string_n</text>
<text text-anchor="middle" x="247" y="-66.5" font-family="Helvetica,sans-Serif" font-size="10.00">::string_t::operator[]</text>
</a>
</g>
</g>
<!-- Node1&#45;&gt;Node23 -->
<g id="edge24" class="edge">
<title>Node1&#45;&gt;Node23</title>
<path fill="none" stroke="#63b8ff" d="M408.57,-462.81C399.21,-384.88 367.67,-153.12 318,-98.5 312.56,-92.51 305.55,-88.02 298.08,-84.64"/>
<polygon fill="#63b8ff" stroke="#63b8ff" points="405.15,-463.64 409.79,-473.16 412.1,-462.82 405.15,-463.64"/>
</g>
<!-- Node24 -->
<g id="node24" class="node">
<title>Node24</title>
<g id="a_node24"><a xlink:href="structelc_1_1defs_1_1base_1_1array__like__n_1_1array__like__view__t.html#a5cfd987fd86f599b63b5121a4c78744a" target="_top" xlink:title=" ">
<polygon fill="white" stroke="#666666" points="306.5,-41 187.5,-41 187.5,0 306.5,0 306.5,-41"/>
<text text-anchor="start" x="195.5" y="-29" font-family="Helvetica,sans-Serif" font-size="10.00">elc::defs::base::array</text>
<text text-anchor="start" x="195.5" y="-18" font-family="Helvetica,sans-Serif" font-size="10.00">_like_n::array_like_view</text>
<text text-anchor="middle" x="247" y="-7" font-family="Helvetica,sans-Serif" font-size="10.00">_t::operator[]</text>
</a>
</g>
</g>
<!-- Node1&#45;&gt;Node24 -->
<g id="edge25" class="edge">
<title>Node1&#45;&gt;Node24</title>
<path fill="none" stroke="#63b8ff" d="M409.14,-463.19C400.91,-379.76 371.05,-115.02 318,-50.5 314.73,-46.52 310.82,-43.05 306.56,-40.04"/>
<polygon fill="#63b8ff" stroke="#63b8ff" points="405.67,-463.68 410.12,-473.3 412.64,-463.01 405.67,-463.68"/>
</g>
<!-- Node2&#45;&gt;Node2 -->
<g id="edge3" class="edge">
<title>Node2&#45;&gt;Node2</title>
<path fill="none" stroke="#63b8ff" d="M275.97,-988.1C272.01,-992.47 262.35,-995.5 247,-995.5 221.14,-995.5 211.44,-986.91 217.91,-977.78"/>
<polygon fill="#63b8ff" stroke="#63b8ff" points="279.47,-987.82 276.09,-977.78 272.47,-987.73 279.47,-987.82"/>
</g>
<!-- Node3 -->
<g id="node3" class="node">
<title>Node3</title>
<g id="a_node3"><a xlink:href="structelc_1_1defs_1_1core_1_1binary__node__t.html#a249a14c4c4716c24c985ed2b40cfdf9b" target="_top" xlink:title=" ">
<polygon fill="white" stroke="#666666" points="125,-1085.5 15,-1085.5 15,-1055.5 125,-1055.5 125,-1085.5"/>
<text text-anchor="start" x="23" y="-1073.5" font-family="Helvetica,sans-Serif" font-size="10.00">elc::defs::core::binary</text>
<text text-anchor="middle" x="70" y="-1062.5" font-family="Helvetica,sans-Serif" font-size="10.00">_node_t::arec</text>
</a>
</g>
</g>
<!-- Node2&#45;&gt;Node3 -->
<g id="edge2" class="edge">
<title>Node2&#45;&gt;Node3</title>
<path fill="none" stroke="#63b8ff" d="M222.8,-984.7C202.35,-1003.28 171.07,-1029.43 140,-1046.5 134,-1049.8 127.46,-1052.77 120.87,-1055.41"/>
<polygon fill="#63b8ff" stroke="#63b8ff" points="225.37,-987.09 230.34,-977.74 220.62,-981.95 225.37,-987.09"/>
</g>
<!-- Node4 -->
<g id="node4" class="node">
<title>Node4</title>
<g id="a_node4"><a xlink:href="structelc_1_1defs_1_1core_1_1base__binary__function__node.html#a11a9bdffc6908db03801f288c0ce9cd6" target="_top" xlink:title=" ">
<polygon fill="white" stroke="#666666" points="140,-1037 0,-1037 0,-996 140,-996 140,-1037"/>
<text text-anchor="start" x="8" y="-1025" font-family="Helvetica,sans-Serif" font-size="10.00">elc::defs::core::base</text>
<text text-anchor="start" x="8" y="-1014" font-family="Helvetica,sans-Serif" font-size="10.00">_binary_function_node</text>
<text text-anchor="middle" x="70" y="-1003" font-family="Helvetica,sans-Serif" font-size="10.00">::base_binary_function_node</text>
</a>
</g>
</g>
<!-- Node2&#45;&gt;Node4 -->
<g id="edge4" class="edge">
<title>Node2&#45;&gt;Node4</title>
<path fill="none" stroke="#63b8ff" d="M189.13,-980.05C172.74,-985.11 154.7,-990.67 137.76,-995.9"/>
<polygon fill="#63b8ff" stroke="#63b8ff" points="190.58,-983.26 199.1,-976.97 188.52,-976.58 190.58,-983.26"/>
</g>
<!-- Node5 -->
<g id="node5" class="node">
<title>Node5</title>
<g id="a_node5"><a xlink:href="structelc_1_1defs_1_1core_1_1cons.html#aa70134fa35de863a301a729f5797f408" target="_top" xlink:title=" ">
<polygon fill="white" stroke="#666666" points="122.5,-977.5 17.5,-977.5 17.5,-947.5 122.5,-947.5 122.5,-977.5"/>
<text text-anchor="start" x="25.5" y="-965.5" font-family="Helvetica,sans-Serif" font-size="10.00">elc::defs::core::cons</text>
<text text-anchor="middle" x="70" y="-954.5" font-family="Helvetica,sans-Serif" font-size="10.00">::clear</text>
</a>
</g>
</g>
<!-- Node2&#45;&gt;Node5 -->
<g id="edge5" class="edge">
<title>Node2&#45;&gt;Node5</title>
<path fill="none" stroke="#63b8ff" d="M188.88,-962.5C167.54,-962.5 143.46,-962.5 122.65,-962.5"/>
<polygon fill="#63b8ff" stroke="#63b8ff" points="189.1,-966 199.1,-962.5 189.1,-959 189.1,-966"/>
</g>
<!-- Node6 -->
<g id="node6" class="node">
<title>Node6</title>
<g id="a_node6"><a xlink:href="structelc_1_1defs_1_1core_1_1value.html#a862dce2e7635966403ec14a8e773ea32" target="_top" xlink:title=" ">
<polygon fill="white" stroke="#666666" points="123,-929.5 17,-929.5 17,-899.5 123,-899.5 123,-929.5"/>
<text text-anchor="start" x="25" y="-917.5" font-family="Helvetica,sans-Serif" font-size="10.00">elc::defs::core::value</text>
<text text-anchor="middle" x="70" y="-906.5" font-family="Helvetica,sans-Serif" font-size="10.00">::operator==</text>
</a>
</g>
</g>
<!-- Node2&#45;&gt;Node6 -->
<g id="edge6" class="edge">
<title>Node2&#45;&gt;Node6</title>
<path fill="none" stroke="#63b8ff" d="M189.26,-946.94C168.04,-941.12 144.06,-934.54 123.27,-928.84"/>
<polygon fill="#63b8ff" stroke="#63b8ff" points="188.53,-950.37 199.1,-949.64 190.39,-943.62 188.53,-950.37"/>
</g>
<!-- Node7 -->
<g id="node7" class="node">
<title>Node7</title>
<g id="a_node7"><a xlink:href="structelc_1_1defs_1_1core_1_1node__like.html#ab2028a957d17acd29a8e432a0c1ac767" target="_top" xlink:title=" ">
<polygon fill="white" stroke="#666666" points="122.5,-881.5 17.5,-881.5 17.5,-851.5 122.5,-851.5 122.5,-881.5"/>
<text text-anchor="start" x="25.5" y="-869.5" font-family="Helvetica,sans-Serif" font-size="10.00">elc::defs::core::node</text>
<text text-anchor="middle" x="70" y="-858.5" font-family="Helvetica,sans-Serif" font-size="10.00">_like::operator[]</text>
</a>
</g>
</g>
<!-- Node2&#45;&gt;Node7 -->
<g id="edge7" class="edge">
<title>Node2&#45;&gt;Node7</title>
<path fill="none" stroke="#63b8ff" d="M189.76,-946.68C184.91,-944.3 180.24,-941.59 176,-938.5 154.43,-922.82 161.53,-906.23 140,-890.5 134.78,-886.68 128.9,-883.44 122.83,-880.68"/>
<polygon fill="#63b8ff" stroke="#63b8ff" points="188.69,-950.03 199.26,-950.85 191.51,-943.62 188.69,-950.03"/>
</g>
<!-- Node8&#45;&gt;Node8 -->
<g id="edge9" class="edge">
<title>Node8&#45;&gt;Node8</title>
<path fill="none" stroke="#63b8ff" d="M275.97,-922.1C272.01,-926.47 262.35,-929.5 247,-929.5 221.14,-929.5 211.44,-920.91 217.91,-911.78"/>
<polygon fill="#63b8ff" stroke="#63b8ff" points="279.47,-921.82 276.09,-911.78 272.47,-921.73 279.47,-921.82"/>
</g>
</g>
</svg>
        <g id="navigator" transform="translate(0 0)" fill="#404254">
                <rect fill="#f2f5e9" fill-opacity="0.5" stroke="#606060" stroke-width=".5" x="0" y="0" width="60" height="60"/>
                <use id="zoomplus" xlink:href="#zoomPlus" x="17" y="9" onmousedown="handleZoom(evt,'in')"/>
                <use id="zoomminus" xlink:href="#zoomMin" x="42" y="9" onmousedown="handleZoom(evt,'out')"/>
                <use id="reset" xlink:href="#resetDef" x="30" y="36" onmousedown="handleReset()"/>
                <g id="arrowUp" xlink:href="#dirArrow" transform="translate(30 24)" onmousedown="handlePan(0,-1)">
                  <use xlink:href="#rim" fill="#404040">
                        <set attributeName="fill" to="#808080" begin="arrowUp.mouseover" end="arrowUp.mouseout"/>
                  </use>
                  <path fill="none" stroke="white" stroke-width="1.5" d="M0,-3.0v7 M-2.5,-0.5L0,-3.0L2.5,-0.5"/>
                </g>
                <g id="arrowRight" xlink:href="#dirArrow" transform="rotate(90) translate(36 -43)" onmousedown="handlePan(1,0)">
                  <use xlink:href="#rim" fill="#404040">
                        <set attributeName="fill" to="#808080" begin="arrowRight.mouseover" end="arrowRight.mouseout"/>
                  </use>
                  <path fill="none" stroke="white" stroke-width="1.5" d="M0,-3.0v7 M-2.5,-0.5L0,-3.0L2.5,-0.5"/>
                </g>
                <g id="arrowDown" xlink:href="#dirArrow" transform="rotate(180) translate(-30 -48)" onmousedown="handlePan(0,1)">
                  <use xlink:href="#rim" fill="#404040">
                        <set attributeName="fill" to="#808080" begin="arrowDown.mouseover" end="arrowDown.mouseout"/>
                  </use>
                  <path fill="none" stroke="white" stroke-width="1.5" d="M0,-3.0v7 M-2.5,-0.5L0,-3.0L2.5,-0.5"/>
                </g>
                <g id="arrowLeft" xlink:href="#dirArrow" transform="rotate(270) translate(-36 17)" onmousedown="handlePan(-1,0)">
                  <use xlink:href="#rim" fill="#404040">
                        <set attributeName="fill" to="#808080" begin="arrowLeft.mouseover" end="arrowLeft.mouseout"/>
                  </use>
                  <path fill="none" stroke="white" stroke-width="1.5" d="M0,-3.0v7 M-2.5,-0.5L0,-3.0L2.5,-0.5"/>
                </g>
        </g>
        <svg viewBox="0 0 15 15" width="100%" height="30px" preserveAspectRatio="xMaxYMin meet">
         <g id="arrow_out" transform="scale(0.3 0.3)">
          <a xlink:href="namespaceelc_1_1defs_1_1base_add5f75cca4bdd8a249b12d840b1ff116_icgraph_org.svg" target="_base">
           <rect id="button" ry="5" rx="5" y="6" x="6" height="38" width="38"
                fill="#f2f5e9" fill-opacity="0.5" stroke="#606060" stroke-width="1.0"/>
           <path id="arrow"
             d="M 11.500037,31.436501 C 11.940474,20.09759 22.043105,11.32322 32.158766,21.979434 L 37.068811,17.246167 C 37.068811,17.246167 37.088388,32 37.088388,32 L 22.160133,31.978069 C 22.160133,31.978069 26.997745,27.140456 26.997745,27.140456 C 18.528582,18.264221 13.291696,25.230495 11.500037,31.436501 z"
             style="fill:#404040;"/>
          </a>
         </g>
        </svg>
</svg>
