<?xml version="1.0" encoding="UTF-8" standalone="no"?>
<!DOCTYPE svg PUBLIC "-//W3C//DTD SVG 1.1//EN"
 "http://www.w3.org/Graphics/SVG/1.1/DTD/svg11.dtd">
<!-- Generated by graphviz version 6.0.1 (20220911.1526)
 -->
<!-- Title: elc::defs::base::magic_number::is_prime_num Pages: 1 -->
<svg width="579pt" height="161pt"
 viewBox="0.00 0.00 579.00 161.00" xmlns="http://www.w3.org/2000/svg" xmlns:xlink="http://www.w3.org/1999/xlink">
<g id="graph0" class="graph" transform="scale(1 1) rotate(0) translate(4 157)">
<title>elc::defs::base::magic_number::is_prime_num</title>
<!-- Node1 -->
<g id="node1" class="node">
<title>Node1</title>
<g id="a_node1"><a xlink:title=" ">
<polygon fill="#999999" stroke="#666666" points="121,-96 0,-96 0,-66 121,-66 121,-96"/>
<text text-anchor="start" x="8" y="-84" font-family="Helvetica,sans-Serif" font-size="10.00">elc::defs::base::magic</text>
<text text-anchor="middle" x="60.5" y="-73" font-family="Helvetica,sans-Serif" font-size="10.00">_number::is_prime_num</text>
</a>
</g>
</g>
<!-- Node2 -->
<g id="node2" class="node">
<title>Node2</title>
<g id="a_node2"><a xlink:href="namespaceelc_1_1defs_1_1base_1_1magic__number.html#a5e6964aab515dd4705841ebd5f2aacc7" target="_top" xlink:title=" ">
<polygon fill="white" stroke="#666666" points="571,-135 458,-135 458,-105 571,-105 571,-135"/>
<text text-anchor="start" x="466" y="-123" font-family="Helvetica,sans-Serif" font-size="10.00">elc::defs::base::magic</text>
<text text-anchor="middle" x="514.5" y="-112" font-family="Helvetica,sans-Serif" font-size="10.00">_number::abs</text>
</a>
</g>
</g>
<!-- Node1&#45;&gt;Node2 -->
<g id="edge1" class="edge">
<title>Node1&#45;&gt;Node2</title>
<path fill="none" stroke="#63b8ff" d="M87.67,-96.05C106.32,-105.88 132.36,-117.82 157,-123 256.59,-143.93 375.3,-136.74 447.5,-128.91"/>
<polygon fill="#63b8ff" stroke="#63b8ff" points="448.26,-132.35 457.81,-127.76 447.48,-125.39 448.26,-132.35"/>
</g>
<!-- Node3 -->
<g id="node3" class="node">
<title>Node3</title>
<g id="a_node3"><a xlink:href="namespaceelc_1_1defs_1_1base_1_1magic__number.html#a77e063b37c7eb298dcf3bb43d462265e" target="_top" xlink:title=" ">
<polygon fill="white" stroke="#666666" points="270,-96 157,-96 157,-66 270,-66 270,-96"/>
<text text-anchor="start" x="165" y="-84" font-family="Helvetica,sans-Serif" font-size="10.00">elc::defs::base::magic</text>
<text text-anchor="middle" x="213.5" y="-73" font-family="Helvetica,sans-Serif" font-size="10.00">_number::ceil</text>
</a>
</g>
</g>
<!-- Node1&#45;&gt;Node3 -->
<g id="edge3" class="edge">
<title>Node1&#45;&gt;Node3</title>
<path fill="none" stroke="#63b8ff" d="M121.18,-81C129.5,-81 138.09,-81 146.52,-81"/>
<polygon fill="#63b8ff" stroke="#63b8ff" points="146.7,-84.5 156.7,-81 146.7,-77.5 146.7,-84.5"/>
</g>
<!-- Node6 -->
<g id="node6" class="node">
<title>Node6</title>
<g id="a_node6"><a xlink:href="namespaceelc_1_1defs_1_1base_1_1magic__number.html#a956a811b7ae70abe75ec93ef4f086e60" target="_top" xlink:title=" ">
<polygon fill="white" stroke="#666666" points="270,-30 157,-30 157,0 270,0 270,-30"/>
<text text-anchor="start" x="165" y="-18" font-family="Helvetica,sans-Serif" font-size="10.00">elc::defs::base::magic</text>
<text text-anchor="middle" x="213.5" y="-7" font-family="Helvetica,sans-Serif" font-size="10.00">_number::mod</text>
</a>
</g>
</g>
<!-- Node1&#45;&gt;Node6 -->
<g id="edge8" class="edge">
<title>Node1&#45;&gt;Node6</title>
<path fill="none" stroke="#63b8ff" d="M96.14,-65.86C117.72,-56.43 145.68,-44.21 168.78,-34.11"/>
<polygon fill="#63b8ff" stroke="#63b8ff" points="170.26,-37.28 178.02,-30.07 167.45,-30.87 170.26,-37.28"/>
</g>
<!-- Node2&#45;&gt;Node2 -->
<g id="edge2" class="edge">
<title>Node2&#45;&gt;Node2</title>
<path fill="none" stroke="#63b8ff" d="M488.04,-135.28C482.17,-144.41 490.98,-153 514.5,-153 528.46,-153 537.24,-149.97 540.84,-145.6"/>
<polygon fill="#63b8ff" stroke="#63b8ff" points="544.35,-145.31 540.96,-135.28 537.35,-145.24 544.35,-145.31"/>
</g>
<!-- Node3&#45;&gt;Node3 -->
<g id="edge4" class="edge">
<title>Node3&#45;&gt;Node3</title>
<path fill="none" stroke="#63b8ff" d="M187.04,-96.28C181.17,-105.41 189.98,-114 213.5,-114 227.46,-114 236.24,-110.97 239.84,-106.6"/>
<polygon fill="#63b8ff" stroke="#63b8ff" points="243.35,-106.31 239.96,-96.28 236.35,-106.24 243.35,-106.31"/>
</g>
<!-- Node4 -->
<g id="node4" class="node">
<title>Node4</title>
<g id="a_node4"><a xlink:href="namespaceelc_1_1defs_1_1base_1_1magic__number.html#a30e067e5edbc32b8c5bbc09c1b56d04e" target="_top" xlink:title=" ">
<polygon fill="white" stroke="#666666" points="420.5,-114 307.5,-114 307.5,-84 420.5,-84 420.5,-114"/>
<text text-anchor="start" x="315.5" y="-102" font-family="Helvetica,sans-Serif" font-size="10.00">elc::defs::base::magic</text>
<text text-anchor="middle" x="364" y="-91" font-family="Helvetica,sans-Serif" font-size="10.00">_number::feq</text>
</a>
</g>
</g>
<!-- Node3&#45;&gt;Node4 -->
<g id="edge5" class="edge">
<title>Node3&#45;&gt;Node4</title>
<path fill="none" stroke="#63b8ff" d="M270.22,-87.75C279.07,-88.83 288.29,-89.94 297.35,-91.04"/>
<polygon fill="#63b8ff" stroke="#63b8ff" points="297.11,-94.54 307.46,-92.27 297.96,-87.59 297.11,-94.54"/>
</g>
<!-- Node5 -->
<g id="node5" class="node">
<title>Node5</title>
<g id="a_node5"><a xlink:href="namespaceelc_1_1defs_1_1base_1_1magic__number.html#ad4240149af3f1d0968ffdf3652da6b23" target="_top" xlink:title=" ">
<polygon fill="white" stroke="#666666" points="422,-66 306,-66 306,-36 422,-36 422,-66"/>
<text text-anchor="start" x="314" y="-54" font-family="Helvetica,sans-Serif" font-size="10.00">elc::defs::base::magic</text>
<text text-anchor="middle" x="364" y="-43" font-family="Helvetica,sans-Serif" font-size="10.00">_number::to_uintmax_t</text>
</a>
</g>
</g>
<!-- Node3&#45;&gt;Node5 -->
<g id="edge7" class="edge">
<title>Node3&#45;&gt;Node5</title>
<path fill="none" stroke="#63b8ff" d="M270.22,-69.74C278.62,-68.05 287.36,-66.28 295.96,-64.54"/>
<polygon fill="#63b8ff" stroke="#63b8ff" points="296.87,-67.93 305.98,-62.52 295.48,-61.07 296.87,-67.93"/>
</g>
<!-- Node4&#45;&gt;Node2 -->
<g id="edge6" class="edge">
<title>Node4&#45;&gt;Node2</title>
<path fill="none" stroke="#63b8ff" d="M420.72,-106.88C429.57,-108.13 438.79,-109.44 447.85,-110.72"/>
<polygon fill="#63b8ff" stroke="#63b8ff" points="447.57,-114.21 457.96,-112.15 448.55,-107.28 447.57,-114.21"/>
</g>
<!-- Node6&#45;&gt;Node6 -->
<g id="edge9" class="edge">
<title>Node6&#45;&gt;Node6</title>
<path fill="none" stroke="#63b8ff" d="M187.04,-30.28C181.17,-39.41 189.98,-48 213.5,-48 227.46,-48 236.24,-44.97 239.84,-40.6"/>
<polygon fill="#63b8ff" stroke="#63b8ff" points="243.35,-40.31 239.96,-30.28 236.35,-40.24 243.35,-40.31"/>
</g>
</g>
</svg>
