<?xml version="1.0" encoding="UTF-8" standalone="no"?>
<!DOCTYPE svg PUBLIC "-//W3C//DTD SVG 1.1//EN"
 "http://www.w3.org/Graphics/SVG/1.1/DTD/svg11.dtd">
<!-- Generated by graphviz version 6.0.1 (20220911.1526)
 -->
<!-- Title: elc::defs::memory::ptr_n::destroy_and_free Pages: 1 -->
<svg width="300pt" height="56pt"
 viewBox="0.00 0.00 300.00 56.00" xmlns="http://www.w3.org/2000/svg" xmlns:xlink="http://www.w3.org/1999/xlink">
<g id="graph0" class="graph" transform="scale(1 1) rotate(0) translate(4 52)">
<title>elc::defs::memory::ptr_n::destroy_and_free</title>
<!-- Node1 -->
<g id="node1" class="node">
<title>Node1</title>
<g id="a_node1"><a xlink:title=" ">
<polygon fill="#999999" stroke="#666666" points="119,-30 0,-30 0,0 119,0 119,-30"/>
<text text-anchor="start" x="8" y="-18" font-family="Helvetica,sans-Serif" font-size="10.00">elc::defs::memory::</text>
<text text-anchor="middle" x="59.5" y="-7" font-family="Helvetica,sans-Serif" font-size="10.00">ptr_n::destroy_and_free</text>
</a>
</g>
</g>
<!-- Node1&#45;&gt;Node1 -->
<g id="edge1" class="edge">
<title>Node1&#45;&gt;Node1</title>
<path fill="none" stroke="#63b8ff" d="M30.67,-30.28C24.27,-39.41 33.88,-48 59.5,-48 74.71,-48 84.28,-44.97 88.21,-40.6"/>
<polygon fill="#63b8ff" stroke="#63b8ff" points="91.71,-40.32 88.33,-30.28 84.71,-40.23 91.71,-40.32"/>
</g>
<!-- Node2 -->
<g id="node2" class="node">
<title>Node2</title>
<g id="a_node2"><a xlink:href="namespaceelc_1_1defs_1_1memory_1_1ptr__n.html#a446ac9dfb360dfcd92ddac11a2797f85" target="_top" xlink:title=" ">
<polygon fill="white" stroke="#666666" points="292,-30 155,-30 155,0 292,0 292,-30"/>
<text text-anchor="start" x="163" y="-18" font-family="Helvetica,sans-Serif" font-size="10.00">elc::defs::memory::</text>
<text text-anchor="middle" x="223.5" y="-7" font-family="Helvetica,sans-Serif" font-size="10.00">ptr_n::the_destroy_and_free</text>
</a>
</g>
</g>
<!-- Node1&#45;&gt;Node2 -->
<g id="edge2" class="edge">
<title>Node1&#45;&gt;Node2</title>
<path fill="none" stroke="#63b8ff" d="M119.44,-15C127.61,-15 136.1,-15 144.55,-15"/>
<polygon fill="#63b8ff" stroke="#63b8ff" points="144.81,-18.5 154.81,-15 144.81,-11.5 144.81,-18.5"/>
</g>
</g>
</svg>
