<?xml version="1.0" encoding="UTF-8" standalone="no"?>
<!DOCTYPE svg PUBLIC "-//W3C//DTD SVG 1.1//EN"
 "http://www.w3.org/Graphics/SVG/1.1/DTD/svg11.dtd">
<!-- Generated by graphviz version 6.0.1 (20220911.1526)
 -->
<!-- Title: elc::defs::base::range_n::in_range Pages: 1 -->
<!--zoomable 332 -->
<svg id="main" version="1.1" xmlns="http://www.w3.org/2000/svg" xmlns:xlink="http://www.w3.org/1999/xlink" xml:space="preserve" onload="init(evt)">
<style type="text/css"><![CDATA[
.edge:hover path { stroke: red; }
.edge:hover polygon { stroke: red; fill: red; }
]]></style>
<script type="text/javascript"><![CDATA[
var edges = document.getElementsByTagName('g');
if (edges && edges.length) {
  for (var i=0;i<edges.length;i++) {
    if (edges[i].id.substr(0,4)=='edge') {
      edges[i].setAttribute('class','edge');
    }
  }
}
]]></script>
        <defs>
                <circle id="rim" cx="0" cy="0" r="7"/>
                <circle id="rim2" cx="0" cy="0" r="3.5"/>
                <g id="zoomPlus">
                        <use xlink:href="#rim" fill="#404040">
                                <set attributeName="fill" to="#808080" begin="zoomplus.mouseover" end="zoomplus.mouseout"/>
                        </use>
                        <path d="M-4,0h8M0,-4v8" fill="none" stroke="white" stroke-width="1.5" pointer-events="none"/>
                </g>
                <g id="zoomMin">
                        <use xlink:href="#rim" fill="#404040">
                                <set attributeName="fill" to="#808080" begin="zoomminus.mouseover" end="zoomminus.mouseout"/>
                        </use>
                        <path d="M-4,0h8" fill="none" stroke="white" stroke-width="1.5" pointer-events="none"/>
                </g>
                <g id="dirArrow">
                        <path fill="none" stroke="white" stroke-width="1.5" d="M0,-3.0v7 M-2.5,-0.5L0,-3.0L2.5,-0.5"/>
                </g>
               <g id="resetDef">
                       <use xlink:href="#rim2" fill="#404040">
                               <set attributeName="fill" to="#808080" begin="reset.mouseover" end="reset.mouseout"/>
                       </use>
               </g>
        </defs>

<script type="text/javascript">
var viewWidth = 595;
var viewHeight = 332;
var sectionId = 'dynsection-44';
</script>
<script xlink:href="svgpan.js"/>
<svg id="graph" class="graph">
<g id="viewport">
<title>elc::defs::base::range_n::in_range</title>
<!-- Node1 -->
<g id="node1" class="node">
<title>Node1</title>
<g id="a_node1"><a xlink:title="判断一个值是否在某个范围内">
<polygon fill="#999999" stroke="#666666" points="587,-162 477,-162 477,-132 587,-132 587,-162"/>
<text text-anchor="start" x="485" y="-150" font-family="Helvetica,sans-Serif" font-size="10.00">elc::defs::base::range</text>
<text text-anchor="middle" x="532" y="-139" font-family="Helvetica,sans-Serif" font-size="10.00">_n::in_range</text>
</a>
</g>
</g>
<!-- Node1&#45;&gt;Node1 -->
<g id="edge25" class="edge">
<title>Node1&#45;&gt;Node1</title>
<path fill="none" stroke="#63b8ff" d="M559.04,-172.6C555.35,-176.97 546.33,-180 532,-180 507.86,-180 498.81,-171.41 504.84,-162.28"/>
<polygon fill="#63b8ff" stroke="#63b8ff" points="562.55,-172.31 559.16,-162.28 555.55,-172.24 562.55,-172.31"/>
</g>
<!-- Node2 -->
<g id="node2" class="node">
<title>Node2</title>
<g id="a_node2"><a xlink:href="namespaceelc_1_1defs_1_1base_1_1range__n.html#a54d8c9784e4d97c7984629d1f0cc0714" target="_top" xlink:title="find_first_not_of的朴素实现 若成功找到不匹配的数据项，返回其开头，若未找到，返回nullptr">
<polygon fill="white" stroke="#666666" points="441,-295 314,-295 314,-265 441,-265 441,-295"/>
<text text-anchor="start" x="322" y="-283" font-family="Helvetica,sans-Serif" font-size="10.00">elc::defs::base::range</text>
<text text-anchor="middle" x="377.5" y="-272" font-family="Helvetica,sans-Serif" font-size="10.00">_n::base_find_first_not_of</text>
</a>
</g>
</g>
<!-- Node1&#45;&gt;Node2 -->
<g id="edge1" class="edge">
<title>Node1&#45;&gt;Node2</title>
<path fill="none" stroke="#63b8ff" d="M516.26,-170.87C500.32,-194.97 472.87,-231.85 441,-255 435.8,-258.78 429.95,-262.09 423.97,-264.95"/>
<polygon fill="#63b8ff" stroke="#63b8ff" points="519.31,-172.61 521.8,-162.31 513.43,-168.81 519.31,-172.61"/>
</g>
<!-- Node5 -->
<g id="node5" class="node">
<title>Node5</title>
<g id="a_node5"><a xlink:href="namespaceelc_1_1defs_1_1base_1_1range__n.html#a8e80ffb095cac8fd83b3740986d0622c" target="_top" xlink:title="find_first_of的朴素实现 若成功找到匹配的数据项，返回其开头，若未找到，返回nullptr">
<polygon fill="white" stroke="#666666" points="432.5,-228 322.5,-228 322.5,-198 432.5,-198 432.5,-228"/>
<text text-anchor="start" x="330.5" y="-216" font-family="Helvetica,sans-Serif" font-size="10.00">elc::defs::base::range</text>
<text text-anchor="middle" x="377.5" y="-205" font-family="Helvetica,sans-Serif" font-size="10.00">_n::base_find_first_of</text>
</a>
</g>
</g>
<!-- Node1&#45;&gt;Node5 -->
<g id="edge7" class="edge">
<title>Node1&#45;&gt;Node5</title>
<path fill="none" stroke="#63b8ff" d="M490.73,-166.53C475.29,-173.82 457.43,-182.02 441,-189 433.94,-192 426.36,-195.05 419.01,-197.92"/>
<polygon fill="#63b8ff" stroke="#63b8ff" points="492.47,-169.57 500,-162.12 489.47,-163.25 492.47,-169.57"/>
</g>
<!-- Node8 -->
<g id="node8" class="node">
<title>Node8</title>
<g id="a_node8"><a xlink:href="namespaceelc_1_1defs_1_1base_1_1range__n.html#a6510d1d98b41ed6eed5b8e7f82282618" target="_top" xlink:title="find_last_not_of的朴素实现 若成功找到不匹配的数据项，返回其开头，若未找到，返回nullptr">
<polygon fill="white" stroke="#666666" points="441,-162 314,-162 314,-132 441,-132 441,-162"/>
<text text-anchor="start" x="322" y="-150" font-family="Helvetica,sans-Serif" font-size="10.00">elc::defs::base::range</text>
<text text-anchor="middle" x="377.5" y="-139" font-family="Helvetica,sans-Serif" font-size="10.00">_n::base_find_last_not_of</text>
</a>
</g>
</g>
<!-- Node1&#45;&gt;Node8 -->
<g id="edge13" class="edge">
<title>Node1&#45;&gt;Node8</title>
<path fill="none" stroke="#63b8ff" d="M466.63,-147C458.18,-147 449.53,-147 441.11,-147"/>
<polygon fill="#63b8ff" stroke="#63b8ff" points="466.8,-150.5 476.8,-147 466.8,-143.5 466.8,-150.5"/>
</g>
<!-- Node11 -->
<g id="node11" class="node">
<title>Node11</title>
<g id="a_node11"><a xlink:href="namespaceelc_1_1defs_1_1base_1_1range__n.html#a295e5e75861175fe849be1ae586bd178" target="_top" xlink:title="find_last_of的朴素实现 若成功找到匹配的数据项，返回其开头，若未找到，返回nullptr">
<polygon fill="white" stroke="#666666" points="432.5,-96 322.5,-96 322.5,-66 432.5,-66 432.5,-96"/>
<text text-anchor="start" x="330.5" y="-84" font-family="Helvetica,sans-Serif" font-size="10.00">elc::defs::base::range</text>
<text text-anchor="middle" x="377.5" y="-73" font-family="Helvetica,sans-Serif" font-size="10.00">_n::base_find_last_of</text>
</a>
</g>
</g>
<!-- Node1&#45;&gt;Node11 -->
<g id="edge19" class="edge">
<title>Node1&#45;&gt;Node11</title>
<path fill="none" stroke="#63b8ff" d="M486.67,-127.81C463.31,-117.71 435.09,-105.49 413.32,-96.07"/>
<polygon fill="#63b8ff" stroke="#63b8ff" points="485.45,-131.1 496.01,-131.86 488.23,-124.67 485.45,-131.1"/>
</g>
<!-- Node14 -->
<g id="node14" class="node">
<title>Node14</title>
<g id="a_node14"><a xlink:href="namespaceelc_1_1defs_1_1base_1_1range__n.html#acffb115b660e87c56a876ccc1ae04c39" target="_top" xlink:title="若成功找到匹配的数据项，返回其距离开头的步数，若未找到，返回npos">
<polygon fill="white" stroke="#666666" points="432.5,-30 322.5,-30 322.5,0 432.5,0 432.5,-30"/>
<text text-anchor="start" x="330.5" y="-18" font-family="Helvetica,sans-Serif" font-size="10.00">elc::defs::base::range</text>
<text text-anchor="middle" x="377.5" y="-7" font-family="Helvetica,sans-Serif" font-size="10.00">_n::in_range_size_t</text>
</a>
</g>
</g>
<!-- Node1&#45;&gt;Node14 -->
<g id="edge26" class="edge">
<title>Node1&#45;&gt;Node14</title>
<path fill="none" stroke="#63b8ff" d="M510.52,-124.18C492.96,-105.2 466.53,-78.01 441,-57 429.19,-47.28 415.12,-37.67 403.32,-30.1"/>
<polygon fill="#63b8ff" stroke="#63b8ff" points="508.14,-126.76 517.47,-131.76 513.3,-122.03 508.14,-126.76"/>
</g>
<!-- Node2&#45;&gt;Node2 -->
<g id="edge2" class="edge">
<title>Node2&#45;&gt;Node2</title>
<path fill="none" stroke="#63b8ff" d="M404.54,-305.6C400.85,-309.97 391.83,-313 377.5,-313 353.36,-313 344.31,-304.41 350.34,-295.28"/>
<polygon fill="#63b8ff" stroke="#63b8ff" points="408.05,-305.31 404.66,-295.28 401.05,-305.24 408.05,-305.31"/>
</g>
<!-- Node3 -->
<g id="node3" class="node">
<title>Node3</title>
<g id="a_node3"><a xlink:href="namespaceelc_1_1defs_1_1base_1_1range__n.html#ae2dbbd141a649cf04c829ccc6d58f30b" target="_top" xlink:title="若成功找到不匹配的数据项，返回其开头，若未找到，返回nullptr">
<polygon fill="white" stroke="#666666" points="278,-297 168,-297 168,-267 278,-267 278,-297"/>
<text text-anchor="start" x="176" y="-285" font-family="Helvetica,sans-Serif" font-size="10.00">elc::defs::base::range</text>
<text text-anchor="middle" x="223" y="-274" font-family="Helvetica,sans-Serif" font-size="10.00">_n::find_first_not_of</text>
</a>
</g>
</g>
<!-- Node2&#45;&gt;Node3 -->
<g id="edge3" class="edge">
<title>Node2&#45;&gt;Node3</title>
<path fill="none" stroke="#63b8ff" d="M303.54,-280.96C294.94,-281.07 286.28,-281.18 278.01,-281.29"/>
<polygon fill="#63b8ff" stroke="#63b8ff" points="303.64,-284.46 313.59,-280.83 303.55,-277.46 303.64,-284.46"/>
</g>
<!-- Node3&#45;&gt;Node3 -->
<g id="edge4" class="edge">
<title>Node3&#45;&gt;Node3</title>
<path fill="none" stroke="#63b8ff" d="M250.04,-307.6C246.35,-311.97 237.33,-315 223,-315 198.86,-315 189.81,-306.41 195.84,-297.28"/>
<polygon fill="#63b8ff" stroke="#63b8ff" points="253.55,-307.31 250.16,-297.28 246.55,-307.24 253.55,-307.31"/>
</g>
<!-- Node4 -->
<g id="node4" class="node">
<title>Node4</title>
<g id="a_node4"><a xlink:href="namespaceelc_1_1defs_1_1base_1_1range__n.html#a1acc3f8449649b44d4ba4adc53be00e7" target="_top" xlink:title="若成功找到不匹配的数据项，返回其距离开头的步数，若未找到，返回npos">
<polygon fill="white" stroke="#666666" points="121,-305.5 11,-305.5 11,-264.5 121,-264.5 121,-305.5"/>
<text text-anchor="start" x="19" y="-293.5" font-family="Helvetica,sans-Serif" font-size="10.00">elc::defs::base::range</text>
<text text-anchor="start" x="19" y="-282.5" font-family="Helvetica,sans-Serif" font-size="10.00">_n::find_first_not_of</text>
<text text-anchor="middle" x="66" y="-271.5" font-family="Helvetica,sans-Serif" font-size="10.00">_size_t</text>
</a>
</g>
</g>
<!-- Node3&#45;&gt;Node4 -->
<g id="edge5" class="edge">
<title>Node3&#45;&gt;Node4</title>
<path fill="none" stroke="#63b8ff" d="M157.72,-283.24C145.57,-283.48 132.98,-283.72 121.18,-283.95"/>
<polygon fill="#63b8ff" stroke="#63b8ff" points="157.86,-286.74 167.79,-283.05 157.72,-279.74 157.86,-286.74"/>
</g>
<!-- Node4&#45;&gt;Node4 -->
<g id="edge6" class="edge">
<title>Node4&#45;&gt;Node4</title>
<path fill="none" stroke="#63b8ff" d="M93.01,-315.46C88.99,-320.24 79.99,-323.5 66,-323.5 43.62,-323.5 34,-315.15 37.14,-305.6"/>
<polygon fill="#63b8ff" stroke="#63b8ff" points="96.46,-316.07 94.86,-305.6 89.58,-314.78 96.46,-316.07"/>
</g>
<!-- Node5&#45;&gt;Node5 -->
<g id="edge8" class="edge">
<title>Node5&#45;&gt;Node5</title>
<path fill="none" stroke="#63b8ff" d="M404.54,-238.6C400.85,-242.97 391.83,-246 377.5,-246 353.36,-246 344.31,-237.41 350.34,-228.28"/>
<polygon fill="#63b8ff" stroke="#63b8ff" points="408.05,-238.31 404.66,-228.28 401.05,-238.24 408.05,-238.31"/>
</g>
<!-- Node6 -->
<g id="node6" class="node">
<title>Node6</title>
<g id="a_node6"><a xlink:href="namespaceelc_1_1defs_1_1base_1_1range__n.html#a6ac1bd58a416955da7938bc7bba2f2ae" target="_top" xlink:title="若成功找到匹配的数据项，返回其开头，若未找到，返回nullptr">
<polygon fill="white" stroke="#666666" points="278,-228 168,-228 168,-198 278,-198 278,-228"/>
<text text-anchor="start" x="176" y="-216" font-family="Helvetica,sans-Serif" font-size="10.00">elc::defs::base::range</text>
<text text-anchor="middle" x="223" y="-205" font-family="Helvetica,sans-Serif" font-size="10.00">_n::find_first_of</text>
</a>
</g>
</g>
<!-- Node5&#45;&gt;Node6 -->
<g id="edge9" class="edge">
<title>Node5&#45;&gt;Node6</title>
<path fill="none" stroke="#63b8ff" d="M312.03,-213C300.71,-213 289.03,-213 278.02,-213"/>
<polygon fill="#63b8ff" stroke="#63b8ff" points="312.3,-216.5 322.3,-213 312.3,-209.5 312.3,-216.5"/>
</g>
<!-- Node6&#45;&gt;Node6 -->
<g id="edge10" class="edge">
<title>Node6&#45;&gt;Node6</title>
<path fill="none" stroke="#63b8ff" d="M250.04,-238.6C246.35,-242.97 237.33,-246 223,-246 198.86,-246 189.81,-237.41 195.84,-228.28"/>
<polygon fill="#63b8ff" stroke="#63b8ff" points="253.55,-238.31 250.16,-228.28 246.55,-238.24 253.55,-238.31"/>
</g>
<!-- Node7 -->
<g id="node7" class="node">
<title>Node7</title>
<g id="a_node7"><a xlink:href="namespaceelc_1_1defs_1_1base_1_1range__n.html#a885b44667becc0b12424b80427b1fb33" target="_top" xlink:title="若成功找到匹配的数据项，返回其距离开头的步数，若未找到，返回npos">
<polygon fill="white" stroke="#666666" points="122.5,-228 9.5,-228 9.5,-198 122.5,-198 122.5,-228"/>
<text text-anchor="start" x="17.5" y="-216" font-family="Helvetica,sans-Serif" font-size="10.00">elc::defs::base::range</text>
<text text-anchor="middle" x="66" y="-205" font-family="Helvetica,sans-Serif" font-size="10.00">_n::find_first_of_size_t</text>
</a>
</g>
</g>
<!-- Node6&#45;&gt;Node7 -->
<g id="edge11" class="edge">
<title>Node6&#45;&gt;Node7</title>
<path fill="none" stroke="#63b8ff" d="M157.72,-213C146.11,-213 134.1,-213 122.76,-213"/>
<polygon fill="#63b8ff" stroke="#63b8ff" points="157.79,-216.5 167.79,-213 157.79,-209.5 157.79,-216.5"/>
</g>
<!-- Node7&#45;&gt;Node7 -->
<g id="edge12" class="edge">
<title>Node7&#45;&gt;Node7</title>
<path fill="none" stroke="#63b8ff" d="M93.48,-238.6C89.73,-242.97 80.57,-246 66,-246 41.47,-246 32.27,-237.41 38.4,-228.28"/>
<polygon fill="#63b8ff" stroke="#63b8ff" points="96.98,-238.31 93.6,-228.28 89.98,-238.24 96.98,-238.31"/>
</g>
<!-- Node8&#45;&gt;Node8 -->
<g id="edge14" class="edge">
<title>Node8&#45;&gt;Node8</title>
<path fill="none" stroke="#63b8ff" d="M404.54,-172.6C400.85,-176.97 391.83,-180 377.5,-180 353.36,-180 344.31,-171.41 350.34,-162.28"/>
<polygon fill="#63b8ff" stroke="#63b8ff" points="408.05,-172.31 404.66,-162.28 401.05,-172.24 408.05,-172.31"/>
</g>
<!-- Node9 -->
<g id="node9" class="node">
<title>Node9</title>
<g id="a_node9"><a xlink:href="namespaceelc_1_1defs_1_1base_1_1range__n.html#afb48d0642ddade3a47f3ee70331ef624" target="_top" xlink:title="若成功找到不匹配的数据项，返回其开头，若未找到，返回nullptr">
<polygon fill="white" stroke="#666666" points="278,-162 168,-162 168,-132 278,-132 278,-162"/>
<text text-anchor="start" x="176" y="-150" font-family="Helvetica,sans-Serif" font-size="10.00">elc::defs::base::range</text>
<text text-anchor="middle" x="223" y="-139" font-family="Helvetica,sans-Serif" font-size="10.00">_n::find_last_not_of</text>
</a>
</g>
</g>
<!-- Node8&#45;&gt;Node9 -->
<g id="edge15" class="edge">
<title>Node8&#45;&gt;Node9</title>
<path fill="none" stroke="#63b8ff" d="M303.54,-147C294.94,-147 286.28,-147 278.01,-147"/>
<polygon fill="#63b8ff" stroke="#63b8ff" points="303.59,-150.5 313.59,-147 303.59,-143.5 303.59,-150.5"/>
</g>
<!-- Node9&#45;&gt;Node9 -->
<g id="edge16" class="edge">
<title>Node9&#45;&gt;Node9</title>
<path fill="none" stroke="#63b8ff" d="M250.04,-172.6C246.35,-176.97 237.33,-180 223,-180 198.86,-180 189.81,-171.41 195.84,-162.28"/>
<polygon fill="#63b8ff" stroke="#63b8ff" points="253.55,-172.31 250.16,-162.28 246.55,-172.24 253.55,-172.31"/>
</g>
<!-- Node10 -->
<g id="node10" class="node">
<title>Node10</title>
<g id="a_node10"><a xlink:href="namespaceelc_1_1defs_1_1base_1_1range__n.html#a5a03c47024fc946bd206c626c755d01e" target="_top" xlink:title="若成功找到不匹配的数据项，返回其距离开头的步数，若未找到，返回npos">
<polygon fill="white" stroke="#666666" points="132,-162 0,-162 0,-132 132,-132 132,-162"/>
<text text-anchor="start" x="8" y="-150" font-family="Helvetica,sans-Serif" font-size="10.00">elc::defs::base::range</text>
<text text-anchor="middle" x="66" y="-139" font-family="Helvetica,sans-Serif" font-size="10.00">_n::find_last_not_of_size_t</text>
</a>
</g>
</g>
<!-- Node9&#45;&gt;Node10 -->
<g id="edge17" class="edge">
<title>Node9&#45;&gt;Node10</title>
<path fill="none" stroke="#63b8ff" d="M157.63,-147C149.2,-147 140.55,-147 132.1,-147"/>
<polygon fill="#63b8ff" stroke="#63b8ff" points="157.79,-150.5 167.79,-147 157.79,-143.5 157.79,-150.5"/>
</g>
<!-- Node10&#45;&gt;Node10 -->
<g id="edge18" class="edge">
<title>Node10&#45;&gt;Node10</title>
<path fill="none" stroke="#63b8ff" d="M93.48,-172.6C89.73,-176.97 80.57,-180 66,-180 41.47,-180 32.27,-171.41 38.4,-162.28"/>
<polygon fill="#63b8ff" stroke="#63b8ff" points="96.98,-172.31 93.6,-162.28 89.98,-172.24 96.98,-172.31"/>
</g>
<!-- Node11&#45;&gt;Node11 -->
<g id="edge20" class="edge">
<title>Node11&#45;&gt;Node11</title>
<path fill="none" stroke="#63b8ff" d="M404.54,-106.6C400.85,-110.97 391.83,-114 377.5,-114 353.36,-114 344.31,-105.41 350.34,-96.28"/>
<polygon fill="#63b8ff" stroke="#63b8ff" points="408.05,-106.31 404.66,-96.28 401.05,-106.24 408.05,-106.31"/>
</g>
<!-- Node12 -->
<g id="node12" class="node">
<title>Node12</title>
<g id="a_node12"><a xlink:href="namespaceelc_1_1defs_1_1base_1_1range__n.html#a543781983fe9ec71e31537054056d8df" target="_top" xlink:title="若成功找到匹配的数据项，返回其开头，若未找到，返回nullptr">
<polygon fill="white" stroke="#666666" points="278,-96 168,-96 168,-66 278,-66 278,-96"/>
<text text-anchor="start" x="176" y="-84" font-family="Helvetica,sans-Serif" font-size="10.00">elc::defs::base::range</text>
<text text-anchor="middle" x="223" y="-73" font-family="Helvetica,sans-Serif" font-size="10.00">_n::find_last_of</text>
</a>
</g>
</g>
<!-- Node11&#45;&gt;Node12 -->
<g id="edge21" class="edge">
<title>Node11&#45;&gt;Node12</title>
<path fill="none" stroke="#63b8ff" d="M312.03,-81C300.71,-81 289.03,-81 278.02,-81"/>
<polygon fill="#63b8ff" stroke="#63b8ff" points="312.3,-84.5 322.3,-81 312.3,-77.5 312.3,-84.5"/>
</g>
<!-- Node12&#45;&gt;Node12 -->
<g id="edge22" class="edge">
<title>Node12&#45;&gt;Node12</title>
<path fill="none" stroke="#63b8ff" d="M250.04,-106.6C246.35,-110.97 237.33,-114 223,-114 198.86,-114 189.81,-105.41 195.84,-96.28"/>
<polygon fill="#63b8ff" stroke="#63b8ff" points="253.55,-106.31 250.16,-96.28 246.55,-106.24 253.55,-106.31"/>
</g>
<!-- Node13 -->
<g id="node13" class="node">
<title>Node13</title>
<g id="a_node13"><a xlink:href="namespaceelc_1_1defs_1_1base_1_1range__n.html#a67bc8bf901f9fde202c8a61db93221c3" target="_top" xlink:title="若成功找到匹配的数据项，返回其距离开头的步数，若未找到，返回npos">
<polygon fill="white" stroke="#666666" points="122.5,-96 9.5,-96 9.5,-66 122.5,-66 122.5,-96"/>
<text text-anchor="start" x="17.5" y="-84" font-family="Helvetica,sans-Serif" font-size="10.00">elc::defs::base::range</text>
<text text-anchor="middle" x="66" y="-73" font-family="Helvetica,sans-Serif" font-size="10.00">_n::find_last_of_size_t</text>
</a>
</g>
</g>
<!-- Node12&#45;&gt;Node13 -->
<g id="edge23" class="edge">
<title>Node12&#45;&gt;Node13</title>
<path fill="none" stroke="#63b8ff" d="M157.72,-81C146.11,-81 134.1,-81 122.76,-81"/>
<polygon fill="#63b8ff" stroke="#63b8ff" points="157.79,-84.5 167.79,-81 157.79,-77.5 157.79,-84.5"/>
</g>
<!-- Node13&#45;&gt;Node13 -->
<g id="edge24" class="edge">
<title>Node13&#45;&gt;Node13</title>
<path fill="none" stroke="#63b8ff" d="M93.48,-106.6C89.73,-110.97 80.57,-114 66,-114 41.47,-114 32.27,-105.41 38.4,-96.28"/>
<polygon fill="#63b8ff" stroke="#63b8ff" points="96.98,-106.31 93.6,-96.28 89.98,-106.24 96.98,-106.31"/>
</g>
<!-- Node14&#45;&gt;Node14 -->
<g id="edge27" class="edge">
<title>Node14&#45;&gt;Node14</title>
<path fill="none" stroke="#63b8ff" d="M404.54,-40.6C400.85,-44.97 391.83,-48 377.5,-48 353.36,-48 344.31,-39.41 350.34,-30.28"/>
<polygon fill="#63b8ff" stroke="#63b8ff" points="408.05,-40.31 404.66,-30.28 401.05,-40.24 408.05,-40.31"/>
</g>
</g>
</svg>
        <g id="navigator" transform="translate(0 0)" fill="#404254">
                <rect fill="#f2f5e9" fill-opacity="0.5" stroke="#606060" stroke-width=".5" x="0" y="0" width="60" height="60"/>
                <use id="zoomplus" xlink:href="#zoomPlus" x="17" y="9" onmousedown="handleZoom(evt,'in')"/>
                <use id="zoomminus" xlink:href="#zoomMin" x="42" y="9" onmousedown="handleZoom(evt,'out')"/>
                <use id="reset" xlink:href="#resetDef" x="30" y="36" onmousedown="handleReset()"/>
                <g id="arrowUp" xlink:href="#dirArrow" transform="translate(30 24)" onmousedown="handlePan(0,-1)">
                  <use xlink:href="#rim" fill="#404040">
                        <set attributeName="fill" to="#808080" begin="arrowUp.mouseover" end="arrowUp.mouseout"/>
                  </use>
                  <path fill="none" stroke="white" stroke-width="1.5" d="M0,-3.0v7 M-2.5,-0.5L0,-3.0L2.5,-0.5"/>
                </g>
                <g id="arrowRight" xlink:href="#dirArrow" transform="rotate(90) translate(36 -43)" onmousedown="handlePan(1,0)">
                  <use xlink:href="#rim" fill="#404040">
                        <set attributeName="fill" to="#808080" begin="arrowRight.mouseover" end="arrowRight.mouseout"/>
                  </use>
                  <path fill="none" stroke="white" stroke-width="1.5" d="M0,-3.0v7 M-2.5,-0.5L0,-3.0L2.5,-0.5"/>
                </g>
                <g id="arrowDown" xlink:href="#dirArrow" transform="rotate(180) translate(-30 -48)" onmousedown="handlePan(0,1)">
                  <use xlink:href="#rim" fill="#404040">
                        <set attributeName="fill" to="#808080" begin="arrowDown.mouseover" end="arrowDown.mouseout"/>
                  </use>
                  <path fill="none" stroke="white" stroke-width="1.5" d="M0,-3.0v7 M-2.5,-0.5L0,-3.0L2.5,-0.5"/>
                </g>
                <g id="arrowLeft" xlink:href="#dirArrow" transform="rotate(270) translate(-36 17)" onmousedown="handlePan(-1,0)">
                  <use xlink:href="#rim" fill="#404040">
                        <set attributeName="fill" to="#808080" begin="arrowLeft.mouseover" end="arrowLeft.mouseout"/>
                  </use>
                  <path fill="none" stroke="white" stroke-width="1.5" d="M0,-3.0v7 M-2.5,-0.5L0,-3.0L2.5,-0.5"/>
                </g>
        </g>
        <svg viewBox="0 0 15 15" width="100%" height="30px" preserveAspectRatio="xMaxYMin meet">
         <g id="arrow_out" transform="scale(0.3 0.3)">
          <a xlink:href="namespaceelc_1_1defs_1_1base_1_1range__n_ace6a3a9d079214ee7bcce5acbef1e07f_icgraph_org.svg" target="_base">
           <rect id="button" ry="5" rx="5" y="6" x="6" height="38" width="38"
                fill="#f2f5e9" fill-opacity="0.5" stroke="#606060" stroke-width="1.0"/>
           <path id="arrow"
             d="M 11.500037,31.436501 C 11.940474,20.09759 22.043105,11.32322 32.158766,21.979434 L 37.068811,17.246167 C 37.068811,17.246167 37.088388,32 37.088388,32 L 22.160133,31.978069 C 22.160133,31.978069 26.997745,27.140456 26.997745,27.140456 C 18.528582,18.264221 13.291696,25.230495 11.500037,31.436501 z"
             style="fill:#404040;"/>
          </a>
         </g>
        </svg>
</svg>
