<?xml version="1.0" encoding="UTF-8" standalone="no"?>
<!DOCTYPE svg PUBLIC "-//W3C//DTD SVG 1.1//EN"
 "http://www.w3.org/Graphics/SVG/1.1/DTD/svg11.dtd">
<!-- Generated by graphviz version 6.0.1 (20220911.1526)
 -->
<!-- Title: elc::defs::memory::ptr_n::the_destroy_and_free Pages: 1 -->
<svg width="449pt" height="98pt"
 viewBox="0.00 0.00 449.00 97.50" xmlns="http://www.w3.org/2000/svg" xmlns:xlink="http://www.w3.org/1999/xlink">
<g id="graph0" class="graph" transform="scale(1 1) rotate(0) translate(4 93.5)">
<title>elc::defs::memory::ptr_n::the_destroy_and_free</title>
<!-- Node1 -->
<g id="node1" class="node">
<title>Node1</title>
<g id="a_node1"><a xlink:title=" ">
<polygon fill="#999999" stroke="#666666" points="441,-62.5 304,-62.5 304,-32.5 441,-32.5 441,-62.5"/>
<text text-anchor="start" x="312" y="-50.5" font-family="Helvetica,sans-Serif" font-size="10.00">elc::defs::memory::</text>
<text text-anchor="middle" x="372.5" y="-39.5" font-family="Helvetica,sans-Serif" font-size="10.00">ptr_n::the_destroy_and_free</text>
</a>
</g>
</g>
<!-- Node2 -->
<g id="node2" class="node">
<title>Node2</title>
<g id="a_node2"><a xlink:href="namespaceelc_1_1defs_1_1memory_1_1ptr__n.html#a04aa0fdecdbdeb4345e497919faf8c58" target="_top" xlink:title=" ">
<polygon fill="white" stroke="#666666" points="268,-62.5 149,-62.5 149,-32.5 268,-32.5 268,-62.5"/>
<text text-anchor="start" x="157" y="-50.5" font-family="Helvetica,sans-Serif" font-size="10.00">elc::defs::memory::</text>
<text text-anchor="middle" x="208.5" y="-39.5" font-family="Helvetica,sans-Serif" font-size="10.00">ptr_n::destroy_and_free</text>
</a>
</g>
</g>
<!-- Node1&#45;&gt;Node2 -->
<g id="edge1" class="edge">
<title>Node1&#45;&gt;Node2</title>
<path fill="none" stroke="#63b8ff" d="M293.72,-47.5C285.15,-47.5 276.53,-47.5 268.24,-47.5"/>
<polygon fill="#63b8ff" stroke="#63b8ff" points="293.74,-51 303.74,-47.5 293.74,-44 293.74,-51"/>
</g>
<!-- Node2&#45;&gt;Node2 -->
<g id="edge4" class="edge">
<title>Node2&#45;&gt;Node2</title>
<path fill="none" stroke="#63b8ff" d="M235.11,-73.1C231.47,-77.47 222.6,-80.5 208.5,-80.5 184.75,-80.5 175.84,-71.91 181.78,-62.78"/>
<polygon fill="#63b8ff" stroke="#63b8ff" points="238.61,-72.81 235.22,-62.78 231.61,-72.74 238.61,-72.81"/>
</g>
<!-- Node3 -->
<g id="node3" class="node">
<title>Node3</title>
<g id="a_node3"><a xlink:href="classelc_1_1defs_1_1memory_1_1ptr__n_1_1ref__able.html#aab6ab1fd7cbc58ee035cc32cdf4c3ce8" target="_top" xlink:title=" ">
<polygon fill="white" stroke="#666666" points="113,-89.5 0,-89.5 0,-59.5 113,-59.5 113,-89.5"/>
<text text-anchor="start" x="8" y="-77.5" font-family="Helvetica,sans-Serif" font-size="10.00">elc::defs::memory::</text>
<text text-anchor="middle" x="56.5" y="-66.5" font-family="Helvetica,sans-Serif" font-size="10.00">ptr_n::ref_able::cut_ref</text>
</a>
</g>
</g>
<!-- Node2&#45;&gt;Node3 -->
<g id="edge2" class="edge">
<title>Node2&#45;&gt;Node3</title>
<path fill="none" stroke="#63b8ff" d="M138.71,-59.88C130.18,-61.42 121.54,-62.97 113.24,-64.47"/>
<polygon fill="#63b8ff" stroke="#63b8ff" points="139.42,-63.31 148.65,-58.09 138.18,-56.42 139.42,-63.31"/>
</g>
<!-- Node4 -->
<g id="node4" class="node">
<title>Node4</title>
<g id="a_node4"><a xlink:href="classelc_1_1defs_1_1memory_1_1ptr__n_1_1weak__ref__able.html#afcc5b368d2311432001af6a1d3d4085c" target="_top" xlink:title=" ">
<polygon fill="white" stroke="#666666" points="109.5,-41 3.5,-41 3.5,0 109.5,0 109.5,-41"/>
<text text-anchor="start" x="11.5" y="-29" font-family="Helvetica,sans-Serif" font-size="10.00">elc::defs::memory::</text>
<text text-anchor="start" x="11.5" y="-18" font-family="Helvetica,sans-Serif" font-size="10.00">ptr_n::weak_ref_able</text>
<text text-anchor="middle" x="56.5" y="-7" font-family="Helvetica,sans-Serif" font-size="10.00">::cut_ref</text>
</a>
</g>
</g>
<!-- Node2&#45;&gt;Node4 -->
<g id="edge3" class="edge">
<title>Node2&#45;&gt;Node4</title>
<path fill="none" stroke="#63b8ff" d="M138.64,-35.11C128.96,-33.36 119.15,-31.6 109.85,-29.92"/>
<polygon fill="#63b8ff" stroke="#63b8ff" points="138.18,-38.58 148.65,-36.91 139.42,-31.69 138.18,-38.58"/>
</g>
</g>
</svg>
