<?xml version="1.0" encoding="UTF-8" standalone="no"?>
<!DOCTYPE svg PUBLIC "-//W3C//DTD SVG 1.1//EN"
 "http://www.w3.org/Graphics/SVG/1.1/DTD/svg11.dtd">
<!-- Generated by graphviz version 6.0.1 (20220911.1526)
 -->
<!-- Title: elc::APIs::alloc::get_size_of_alloc Pages: 1 -->
<svg width="441pt" height="67pt"
 viewBox="0.00 0.00 441.00 67.00" xmlns="http://www.w3.org/2000/svg" xmlns:xlink="http://www.w3.org/1999/xlink">
<g id="graph0" class="graph" transform="scale(1 1) rotate(0) translate(4 63)">
<title>elc::APIs::alloc::get_size_of_alloc</title>
<!-- Node1 -->
<g id="node1" class="node">
<title>Node1</title>
<g id="a_node1"><a xlink:title=" ">
<polygon fill="#999999" stroke="#666666" points="433,-35.5 331,-35.5 331,-5.5 433,-5.5 433,-35.5"/>
<text text-anchor="start" x="339" y="-23.5" font-family="Helvetica,sans-Serif" font-size="10.00">elc::APIs::alloc::get</text>
<text text-anchor="middle" x="382" y="-12.5" font-family="Helvetica,sans-Serif" font-size="10.00">_size_of_alloc</text>
</a>
</g>
</g>
<!-- Node2 -->
<g id="node2" class="node">
<title>Node2</title>
<g id="a_node2"><a xlink:href="namespaceelc_1_1defs_1_1memory_1_1alloc__n_1_1default__method.html#a3bf36ca55ad7729b38238e5ca5ff567d" target="_top" xlink:title="Computes the size of an allocation.">
<polygon fill="white" stroke="#666666" points="295,-41 171,-41 171,0 295,0 295,-41"/>
<text text-anchor="start" x="179" y="-29" font-family="Helvetica,sans-Serif" font-size="10.00">elc::defs::memory::</text>
<text text-anchor="start" x="179" y="-18" font-family="Helvetica,sans-Serif" font-size="10.00">alloc_n::default_method</text>
<text text-anchor="middle" x="233" y="-7" font-family="Helvetica,sans-Serif" font-size="10.00">::base_get_size_of_alloc</text>
</a>
</g>
</g>
<!-- Node1&#45;&gt;Node2 -->
<g id="edge1" class="edge">
<title>Node1&#45;&gt;Node2</title>
<path fill="none" stroke="#63b8ff" d="M320.69,-20.5C312.26,-20.5 303.59,-20.5 295.14,-20.5"/>
<polygon fill="#63b8ff" stroke="#63b8ff" points="320.82,-24 330.82,-20.5 320.82,-17 320.82,-24"/>
</g>
<!-- Node2&#45;&gt;Node2 -->
<g id="edge2" class="edge">
<title>Node2&#45;&gt;Node2</title>
<path fill="none" stroke="#63b8ff" d="M258.63,-50.96C254.82,-55.74 246.28,-59 233,-59 211.76,-59 202.63,-50.65 205.61,-41.1"/>
<polygon fill="#63b8ff" stroke="#63b8ff" points="262.08,-51.55 260.39,-41.1 255.19,-50.33 262.08,-51.55"/>
</g>
<!-- Node3 -->
<g id="node3" class="node">
<title>Node3</title>
<g id="a_node3"><a xlink:href="namespaceelc_1_1defs_1_1memory_1_1alloc__n_1_1default__method.html#a194a17a9531372111b53268415765327" target="_top" xlink:title=" ">
<polygon fill="white" stroke="#666666" points="135,-41 0,-41 0,0 135,0 135,-41"/>
<text text-anchor="start" x="8" y="-29" font-family="Helvetica,sans-Serif" font-size="10.00">elc::defs::memory::</text>
<text text-anchor="start" x="8" y="-18" font-family="Helvetica,sans-Serif" font-size="10.00">alloc_n::default_method</text>
<text text-anchor="middle" x="67.5" y="-7" font-family="Helvetica,sans-Serif" font-size="10.00">::get_size_of_alloc_method</text>
</a>
</g>
</g>
<!-- Node2&#45;&gt;Node3 -->
<g id="edge3" class="edge">
<title>Node2&#45;&gt;Node3</title>
<path fill="none" stroke="#63b8ff" d="M160.47,-20.5C152.05,-20.5 143.47,-20.5 135.12,-20.5"/>
<polygon fill="#63b8ff" stroke="#63b8ff" points="160.65,-24 170.65,-20.5 160.65,-17 160.65,-24"/>
</g>
<!-- Node3&#45;&gt;Node3 -->
<g id="edge4" class="edge">
<title>Node3&#45;&gt;Node3</title>
<path fill="none" stroke="#63b8ff" d="M95.97,-50.96C91.74,-55.74 82.25,-59 67.5,-59 43.9,-59 33.76,-50.65 37.08,-41.1"/>
<polygon fill="#63b8ff" stroke="#63b8ff" points="99.42,-51.59 97.92,-41.1 92.55,-50.23 99.42,-51.59"/>
</g>
</g>
</svg>
