<?xml version="1.0" encoding="UTF-8" standalone="no"?>
<!DOCTYPE svg PUBLIC "-//W3C//DTD SVG 1.1//EN"
 "http://www.w3.org/Graphics/SVG/1.1/DTD/svg11.dtd">
<!-- Generated by graphviz version 6.0.1 (20220911.1526)
 -->
<!-- Title: elc::defs::base::range_n::in_range Pages: 1 -->
<svg width="264pt" height="104pt"
 viewBox="0.00 0.00 264.00 104.00" xmlns="http://www.w3.org/2000/svg" xmlns:xlink="http://www.w3.org/1999/xlink">
<g id="graph0" class="graph" transform="scale(1 1) rotate(0) translate(4 100)">
<title>elc::defs::base::range_n::in_range</title>
<!-- Node1 -->
<g id="node1" class="node">
<title>Node1</title>
<g id="a_node1"><a xlink:title="判断一个指针是否在某个byte指针范围内">
<polygon fill="#999999" stroke="#666666" points="110,-63 0,-63 0,-33 110,-33 110,-63"/>
<text text-anchor="start" x="8" y="-51" font-family="Helvetica,sans-Serif" font-size="10.00">elc::defs::base::range</text>
<text text-anchor="middle" x="55" y="-40" font-family="Helvetica,sans-Serif" font-size="10.00">_n::in_range</text>
</a>
</g>
</g>
<!-- Node2 -->
<g id="node2" class="node">
<title>Node2</title>
<g id="a_node2"><a xlink:href="namespaceelc_1_1defs_1_1base.html#a51f0e6e825e683bbef6baeb2921de485" target="_top" xlink:title=" ">
<polygon fill="white" stroke="#666666" points="253.5,-96 148.5,-96 148.5,-66 253.5,-66 253.5,-96"/>
<text text-anchor="start" x="156.5" y="-84" font-family="Helvetica,sans-Serif" font-size="10.00">elc::defs::base::cast</text>
<text text-anchor="middle" x="201" y="-73" font-family="Helvetica,sans-Serif" font-size="10.00">_to_data</text>
</a>
</g>
</g>
<!-- Node1&#45;&gt;Node2 -->
<g id="edge1" class="edge">
<title>Node1&#45;&gt;Node2</title>
<path fill="none" stroke="#63b8ff" d="M110.03,-60.38C119.17,-62.48 128.73,-64.67 138.05,-66.8"/>
<polygon fill="#63b8ff" stroke="#63b8ff" points="137.52,-70.27 148.05,-69.1 139.09,-63.45 137.52,-70.27"/>
</g>
<!-- Node3 -->
<g id="node3" class="node">
<title>Node3</title>
<g id="a_node3"><a xlink:href="namespaceelc_1_1defs_1_1base_1_1range__n.html#ace6a3a9d079214ee7bcce5acbef1e07f" target="_top" xlink:title="判断一个值是否在某个范围内">
<polygon fill="white" stroke="#666666" points="256,-30 146,-30 146,0 256,0 256,-30"/>
<text text-anchor="start" x="154" y="-18" font-family="Helvetica,sans-Serif" font-size="10.00">elc::defs::base::range</text>
<text text-anchor="middle" x="201" y="-7" font-family="Helvetica,sans-Serif" font-size="10.00">_n::in_range</text>
</a>
</g>
</g>
<!-- Node1&#45;&gt;Node3 -->
<g id="edge2" class="edge">
<title>Node1&#45;&gt;Node3</title>
<path fill="none" stroke="#63b8ff" d="M110.03,-35.62C118.4,-33.7 127.13,-31.7 135.7,-29.74"/>
<polygon fill="#63b8ff" stroke="#63b8ff" points="136.7,-33.1 145.67,-27.45 135.14,-26.27 136.7,-33.1"/>
</g>
<!-- Node3&#45;&gt;Node3 -->
<g id="edge3" class="edge">
<title>Node3&#45;&gt;Node3</title>
<path fill="none" stroke="#63b8ff" d="M175.34,-30.28C169.63,-39.41 178.19,-48 201,-48 214.54,-48 223.06,-44.97 226.56,-40.6"/>
<polygon fill="#63b8ff" stroke="#63b8ff" points="230.06,-40.31 226.66,-30.28 223.06,-40.24 230.06,-40.31"/>
</g>
</g>
</svg>
