<?xml version="1.0" encoding="UTF-8" standalone="no"?>
<!DOCTYPE svg PUBLIC "-//W3C//DTD SVG 1.1//EN"
 "http://www.w3.org/Graphics/SVG/1.1/DTD/svg11.dtd">
<!-- Generated by graphviz version 6.0.1 (20220911.1526)
 -->
<!-- Title: elc::defs::base::range_n::in_range_but_reverse Pages: 1 -->
<svg width="455pt" height="259pt"
 viewBox="0.00 0.00 455.00 259.00" xmlns="http://www.w3.org/2000/svg" xmlns:xlink="http://www.w3.org/1999/xlink">
<g id="graph0" class="graph" transform="scale(1 1) rotate(0) translate(4 255)">
<title>elc::defs::base::range_n::in_range_but_reverse</title>
<!-- Node1 -->
<g id="node1" class="node">
<title>Node1</title>
<g id="a_node1"><a xlink:title="若成功找到匹配的数据串，返回其开头，若未找到，返回nullptr">
<polygon fill="#999999" stroke="#666666" points="125,-114.5 0,-114.5 0,-84.5 125,-84.5 125,-114.5"/>
<text text-anchor="start" x="8" y="-102.5" font-family="Helvetica,sans-Serif" font-size="10.00">elc::defs::base::range</text>
<text text-anchor="middle" x="62.5" y="-91.5" font-family="Helvetica,sans-Serif" font-size="10.00">_n::in_range_but_reverse</text>
</a>
</g>
</g>
<!-- Node2 -->
<g id="node2" class="node">
<title>Node2</title>
<g id="a_node2"><a xlink:href="structelc_1_1defs_1_1base_1_1array__like__n_1_1array__like__view__t.html#a613a7a28045bb8efd320108a432ad775" target="_top" xlink:title=" ">
<polygon fill="white" stroke="#666666" points="286,-251 167,-251 167,-210 286,-210 286,-251"/>
<text text-anchor="start" x="175" y="-239" font-family="Helvetica,sans-Serif" font-size="10.00">elc::defs::base::array</text>
<text text-anchor="start" x="175" y="-228" font-family="Helvetica,sans-Serif" font-size="10.00">_like_n::array_like_view</text>
<text text-anchor="middle" x="226.5" y="-217" font-family="Helvetica,sans-Serif" font-size="10.00">_t::begin</text>
</a>
</g>
</g>
<!-- Node1&#45;&gt;Node2 -->
<g id="edge1" class="edge">
<title>Node1&#45;&gt;Node2</title>
<path fill="none" stroke="#63b8ff" d="M74.94,-114.76C91.79,-136.41 125.19,-176.19 161,-201.5 162.45,-202.52 163.94,-203.52 165.46,-204.5"/>
<polygon fill="#63b8ff" stroke="#63b8ff" points="164.08,-207.75 174.47,-209.82 167.64,-201.72 164.08,-207.75"/>
</g>
<!-- Node3 -->
<g id="node3" class="node">
<title>Node3</title>
<g id="a_node3"><a xlink:href="structelc_1_1defs_1_1base_1_1array__like__n_1_1array__like__view__t.html#ac89cec36abae10678ac1cced715c99c5" target="_top" xlink:title=" ">
<polygon fill="white" stroke="#666666" points="286,-192 167,-192 167,-151 286,-151 286,-192"/>
<text text-anchor="start" x="175" y="-180" font-family="Helvetica,sans-Serif" font-size="10.00">elc::defs::base::array</text>
<text text-anchor="start" x="175" y="-169" font-family="Helvetica,sans-Serif" font-size="10.00">_like_n::array_like_view</text>
<text text-anchor="middle" x="226.5" y="-158" font-family="Helvetica,sans-Serif" font-size="10.00">_t::end</text>
</a>
</g>
</g>
<!-- Node1&#45;&gt;Node3 -->
<g id="edge2" class="edge">
<title>Node1&#45;&gt;Node3</title>
<path fill="none" stroke="#63b8ff" d="M97.46,-114.59C118.43,-123.91 145.83,-136.09 169.91,-146.79"/>
<polygon fill="#63b8ff" stroke="#63b8ff" points="168.73,-150.1 179.29,-150.96 171.58,-143.7 168.73,-150.1"/>
</g>
<!-- Node4 -->
<g id="node4" class="node">
<title>Node4</title>
<g id="a_node4"><a xlink:href="namespaceelc_1_1defs_1_1base_1_1range__n.html#a34f1fb9d2924b8dc3249d4a7c0accab6" target="_top" xlink:title="若成功找到匹配的数据项，返回其开头，若未找到，返回nullptr">
<polygon fill="white" stroke="#666666" points="289,-114.5 164,-114.5 164,-84.5 289,-84.5 289,-114.5"/>
<text text-anchor="start" x="172" y="-102.5" font-family="Helvetica,sans-Serif" font-size="10.00">elc::defs::base::range</text>
<text text-anchor="middle" x="226.5" y="-91.5" font-family="Helvetica,sans-Serif" font-size="10.00">_n::in_range_but_reverse</text>
</a>
</g>
</g>
<!-- Node1&#45;&gt;Node4 -->
<g id="edge3" class="edge">
<title>Node1&#45;&gt;Node4</title>
<path fill="none" stroke="#63b8ff" d="M125.21,-99.5C134.53,-99.5 144.22,-99.5 153.73,-99.5"/>
<polygon fill="#63b8ff" stroke="#63b8ff" points="153.96,-103 163.96,-99.5 153.96,-96 153.96,-103"/>
</g>
<!-- Node5 -->
<g id="node5" class="node">
<title>Node5</title>
<g id="a_node5"><a xlink:href="structelc_1_1defs_1_1base_1_1range__n_1_1reverse__match__pattern.html#a20c601d609c1439901499558fefe45d8" target="_top" xlink:title=" ">
<polygon fill="white" stroke="#666666" points="292,-66 161,-66 161,-25 292,-25 292,-66"/>
<text text-anchor="start" x="169" y="-54" font-family="Helvetica,sans-Serif" font-size="10.00">elc::defs::base::range</text>
<text text-anchor="start" x="169" y="-43" font-family="Helvetica,sans-Serif" font-size="10.00">_n::reverse_match_pattern</text>
<text text-anchor="middle" x="226.5" y="-32" font-family="Helvetica,sans-Serif" font-size="10.00">::match</text>
</a>
</g>
</g>
<!-- Node1&#45;&gt;Node5 -->
<g id="edge5" class="edge">
<title>Node1&#45;&gt;Node5</title>
<path fill="none" stroke="#63b8ff" d="M108.63,-84.46C122.81,-79.73 138.84,-74.39 154.38,-69.21"/>
<polygon fill="#63b8ff" stroke="#63b8ff" points="155.59,-72.49 163.97,-66.01 153.37,-65.85 155.59,-72.49"/>
</g>
<!-- Node6 -->
<g id="node6" class="node">
<title>Node6</title>
<g id="a_node6"><a xlink:href="structelc_1_1defs_1_1base_1_1array__like__n_1_1array__like__view__t.html#a117c302e797b7abf98c037211c3a1753" target="_top" xlink:title=" ">
<polygon fill="white" stroke="#666666" points="447,-41 328,-41 328,0 447,0 447,-41"/>
<text text-anchor="start" x="336" y="-29" font-family="Helvetica,sans-Serif" font-size="10.00">elc::defs::base::array</text>
<text text-anchor="start" x="336" y="-18" font-family="Helvetica,sans-Serif" font-size="10.00">_like_n::array_like_view</text>
<text text-anchor="middle" x="387.5" y="-7" font-family="Helvetica,sans-Serif" font-size="10.00">_t::size</text>
</a>
</g>
</g>
<!-- Node1&#45;&gt;Node6 -->
<g id="edge7" class="edge">
<title>Node1&#45;&gt;Node6</title>
<path fill="none" stroke="#63b8ff" d="M75.36,-84.21C91.97,-64.18 124.28,-30.01 161,-16.5 211.05,1.92 271.67,-0.39 317.45,-6.59"/>
<polygon fill="#63b8ff" stroke="#63b8ff" points="317.17,-10.09 327.57,-8.06 318.18,-3.16 317.17,-10.09"/>
</g>
<!-- Node4&#45;&gt;Node4 -->
<g id="edge4" class="edge">
<title>Node4&#45;&gt;Node4</title>
<path fill="none" stroke="#63b8ff" d="M198.2,-114.78C191.91,-123.91 201.34,-132.5 226.5,-132.5 241.44,-132.5 250.83,-129.47 254.68,-125.1"/>
<polygon fill="#63b8ff" stroke="#63b8ff" points="258.18,-124.82 254.8,-114.78 251.18,-124.73 258.18,-124.82"/>
</g>
<!-- Node5&#45;&gt;Node6 -->
<g id="edge6" class="edge">
<title>Node5&#45;&gt;Node6</title>
<path fill="none" stroke="#63b8ff" d="M292.17,-35.33C300.64,-34 309.34,-32.63 317.86,-31.29"/>
<polygon fill="#63b8ff" stroke="#63b8ff" points="318.44,-34.74 327.77,-29.73 317.35,-27.83 318.44,-34.74"/>
</g>
</g>
</svg>
