<?xml version="1.0" encoding="UTF-8" standalone="no"?>
<!DOCTYPE svg PUBLIC "-//W3C//DTD SVG 1.1//EN"
 "http://www.w3.org/Graphics/SVG/1.1/DTD/svg11.dtd">
<!-- Generated by graphviz version 6.0.1 (20220911.1526)
 -->
<!-- Title: elc::defs::memory::gc_n::default_gc_for_type::default_gc_success_identifier Pages: 1 -->
<svg width="277pt" height="78pt"
 viewBox="0.00 0.00 277.00 78.00" xmlns="http://www.w3.org/2000/svg" xmlns:xlink="http://www.w3.org/1999/xlink">
<g id="graph0" class="graph" transform="scale(1 1) rotate(0) translate(4 74)">
<title>elc::defs::memory::gc_n::default_gc_for_type::default_gc_success_identifier</title>
<!-- Node1 -->
<g id="node1" class="node">
<title>Node1</title>
<g id="a_node1"><a xlink:title=" ">
<polygon fill="#999999" stroke="#666666" points="133,-52 0,-52 0,0 133,0 133,-52"/>
<text text-anchor="start" x="8" y="-40" font-family="Helvetica,sans-Serif" font-size="10.00">elc::defs::memory::</text>
<text text-anchor="start" x="8" y="-29" font-family="Helvetica,sans-Serif" font-size="10.00">gc_n::default_gc_for</text>
<text text-anchor="start" x="8" y="-18" font-family="Helvetica,sans-Serif" font-size="10.00">_type::default_gc_success</text>
<text text-anchor="middle" x="66.5" y="-7" font-family="Helvetica,sans-Serif" font-size="10.00">_identifier</text>
</a>
</g>
</g>
<!-- Node1&#45;&gt;Node1 -->
<g id="edge1" class="edge">
<title>Node1&#45;&gt;Node1</title>
<path fill="none" stroke="#63b8ff" d="M37.97,-52.2C37.03,-61.96 46.54,-70 66.5,-70 79.28,-70 87.78,-66.7 91.99,-61.76"/>
<polygon fill="#63b8ff" stroke="#63b8ff" points="95.34,-62.79 95.03,-52.2 88.67,-60.67 95.34,-62.79"/>
</g>
<!-- Node2 -->
<g id="node2" class="node">
<title>Node2</title>
<g id="a_node2"><a xlink:href="namespaceelc_1_1defs_1_1base.html#a8b286cdf9188abf5ce5a5e89dca4d342" target="_top" xlink:title=" ">
<polygon fill="white" stroke="#666666" points="269,-41 169,-41 169,-11 269,-11 269,-41"/>
<text text-anchor="start" x="177" y="-29" font-family="Helvetica,sans-Serif" font-size="10.00">elc::defs::base::the</text>
<text text-anchor="middle" x="219" y="-18" font-family="Helvetica,sans-Serif" font-size="10.00">_number_of</text>
</a>
</g>
</g>
<!-- Node1&#45;&gt;Node2 -->
<g id="edge2" class="edge">
<title>Node1&#45;&gt;Node2</title>
<path fill="none" stroke="#63b8ff" d="M133.07,-26C141.63,-26 150.36,-26 158.81,-26"/>
<polygon fill="#63b8ff" stroke="#63b8ff" points="158.94,-29.5 168.94,-26 158.94,-22.5 158.94,-29.5"/>
</g>
</g>
</svg>
