<?xml version="1.0" encoding="UTF-8" standalone="no"?>
<!DOCTYPE svg PUBLIC "-//W3C//DTD SVG 1.1//EN"
 "http://www.w3.org/Graphics/SVG/1.1/DTD/svg11.dtd">
<!-- Generated by graphviz version 6.0.1 (20220911.1526)
 -->
<!-- Title: elc::defs::memory::get_n::alloc_size_grow_with_insert_uninitialized_data Pages: 1 -->
<svg width="327pt" height="108pt"
 viewBox="0.00 0.00 327.00 108.00" xmlns="http://www.w3.org/2000/svg" xmlns:xlink="http://www.w3.org/1999/xlink">
<g id="graph0" class="graph" transform="scale(1 1) rotate(0) translate(4 104)">
<title>elc::defs::memory::get_n::alloc_size_grow_with_insert_uninitialized_data</title>
<!-- Node1 -->
<g id="node1" class="node">
<title>Node1</title>
<g id="a_node1"><a xlink:title="在指定位置插入未初始化数据块并转移原有实例的生命周期，但并不构造新的实例">
<polygon fill="#999999" stroke="#666666" points="319,-70 170,-70 170,-29 319,-29 319,-70"/>
<text text-anchor="start" x="178" y="-58" font-family="Helvetica,sans-Serif" font-size="10.00">elc::defs::memory::</text>
<text text-anchor="start" x="178" y="-47" font-family="Helvetica,sans-Serif" font-size="10.00">get_n::alloc_size_grow</text>
<text text-anchor="middle" x="244.5" y="-36" font-family="Helvetica,sans-Serif" font-size="10.00">_with_insert_uninitialized_data</text>
</a>
</g>
</g>
<!-- Node1&#45;&gt;Node1 -->
<g id="edge1" class="edge">
<title>Node1&#45;&gt;Node1</title>
<path fill="none" stroke="#63b8ff" d="M275.04,-79.96C270.5,-84.74 260.32,-88 244.5,-88 219.19,-88 208.32,-79.65 211.88,-70.1"/>
<polygon fill="#63b8ff" stroke="#63b8ff" points="278.48,-80.6 277.12,-70.1 271.63,-79.16 278.48,-80.6"/>
</g>
<!-- Node2 -->
<g id="node2" class="node">
<title>Node2</title>
<g id="a_node2"><a xlink:href="structelc_1_1defs_1_1memory_1_1get__n_1_1get__resize__t_1_1insert__t.html#a43e5bcc116d3b535192e7b5156809aba" target="_top" xlink:title=" ">
<polygon fill="white" stroke="#666666" points="118,-100 16,-100 16,-59 118,-59 118,-100"/>
<text text-anchor="start" x="24" y="-88" font-family="Helvetica,sans-Serif" font-size="10.00">elc::defs::memory::</text>
<text text-anchor="start" x="24" y="-77" font-family="Helvetica,sans-Serif" font-size="10.00">get_n::get_resize_t</text>
<text text-anchor="middle" x="67" y="-66" font-family="Helvetica,sans-Serif" font-size="10.00">::insert_t::operator()</text>
</a>
</g>
</g>
<!-- Node1&#45;&gt;Node2 -->
<g id="edge2" class="edge">
<title>Node1&#45;&gt;Node2</title>
<path fill="none" stroke="#63b8ff" d="M159.96,-63.78C145.63,-66.23 131.16,-68.7 118.06,-70.94"/>
<polygon fill="#63b8ff" stroke="#63b8ff" points="160.57,-67.23 169.84,-62.09 159.39,-60.33 160.57,-67.23"/>
</g>
<!-- Node3 -->
<g id="node3" class="node">
<title>Node3</title>
<g id="a_node3"><a xlink:href="structelc_1_1defs_1_1memory_1_1get__n_1_1get__resize__t_1_1insert__resize__t.html#af3b4ea3fbaaf69d0717fbd7ad3e6f3c1" target="_top" xlink:title=" ">
<polygon fill="white" stroke="#666666" points="134,-41 0,-41 0,0 134,0 134,-41"/>
<text text-anchor="start" x="8" y="-29" font-family="Helvetica,sans-Serif" font-size="10.00">elc::defs::memory::</text>
<text text-anchor="start" x="8" y="-18" font-family="Helvetica,sans-Serif" font-size="10.00">get_n::get_resize_t</text>
<text text-anchor="middle" x="67" y="-7" font-family="Helvetica,sans-Serif" font-size="10.00">::insert_resize_t::operator()</text>
</a>
</g>
</g>
<!-- Node1&#45;&gt;Node3 -->
<g id="edge3" class="edge">
<title>Node1&#45;&gt;Node3</title>
<path fill="none" stroke="#63b8ff" d="M159.8,-35.67C151.21,-34.25 142.58,-32.82 134.22,-31.44"/>
<polygon fill="#63b8ff" stroke="#63b8ff" points="159.4,-39.15 169.84,-37.33 160.54,-32.24 159.4,-39.15"/>
</g>
</g>
</svg>
