<?xml version="1.0" encoding="UTF-8" standalone="no"?>
<!DOCTYPE svg PUBLIC "-//W3C//DTD SVG 1.1//EN"
 "http://www.w3.org/Graphics/SVG/1.1/DTD/svg11.dtd">
<!-- Generated by graphviz version 6.0.1 (20220911.1526)
 -->
<!-- Title: elc::defs::base::hash_n::pointer_hash Pages: 1 -->
<svg width="261pt" height="56pt"
 viewBox="0.00 0.00 261.00 56.00" xmlns="http://www.w3.org/2000/svg" xmlns:xlink="http://www.w3.org/1999/xlink">
<g id="graph0" class="graph" transform="scale(1 1) rotate(0) translate(4 52)">
<title>elc::defs::base::hash_n::pointer_hash</title>
<!-- Node1 -->
<g id="node1" class="node">
<title>Node1</title>
<g id="a_node1"><a xlink:title="Computes the hash value of a pointer.">
<polygon fill="#999999" stroke="#666666" points="253,-30 146,-30 146,0 253,0 253,-30"/>
<text text-anchor="start" x="154" y="-18" font-family="Helvetica,sans-Serif" font-size="10.00">elc::defs::base::hash</text>
<text text-anchor="middle" x="199.5" y="-7" font-family="Helvetica,sans-Serif" font-size="10.00">_n::pointer_hash</text>
</a>
</g>
</g>
<!-- Node1&#45;&gt;Node1 -->
<g id="edge2" class="edge">
<title>Node1&#45;&gt;Node1</title>
<path fill="none" stroke="#63b8ff" d="M224.79,-40.6C221.34,-44.97 212.91,-48 199.5,-48 176.92,-48 168.46,-39.41 174.1,-30.28"/>
<polygon fill="#63b8ff" stroke="#63b8ff" points="228.3,-40.31 224.9,-30.28 221.3,-40.24 228.3,-40.31"/>
</g>
<!-- Node2 -->
<g id="node2" class="node">
<title>Node2</title>
<g id="a_node2"><a xlink:href="structelc_1_1defs_1_1base_1_1hash__n_1_1hash__t.html#a5c64739b37f224d9126f928c8049c04c" target="_top" xlink:title="Computes the hash value of a value.">
<polygon fill="white" stroke="#666666" points="110,-30 0,-30 0,0 110,0 110,-30"/>
<text text-anchor="start" x="8" y="-18" font-family="Helvetica,sans-Serif" font-size="10.00">elc::defs::base::hash</text>
<text text-anchor="middle" x="55" y="-7" font-family="Helvetica,sans-Serif" font-size="10.00">_n::hash_t::operator()</text>
</a>
</g>
</g>
<!-- Node1&#45;&gt;Node2 -->
<g id="edge1" class="edge">
<title>Node1&#45;&gt;Node2</title>
<path fill="none" stroke="#63b8ff" d="M135.66,-15C127.22,-15 118.62,-15 110.35,-15"/>
<polygon fill="#63b8ff" stroke="#63b8ff" points="135.84,-18.5 145.84,-15 135.84,-11.5 135.84,-18.5"/>
</g>
</g>
</svg>
