<?xml version="1.0" encoding="UTF-8" standalone="no"?>
<!DOCTYPE svg PUBLIC "-//W3C//DTD SVG 1.1//EN"
 "http://www.w3.org/Graphics/SVG/1.1/DTD/svg11.dtd">
<!-- Generated by graphviz version 6.0.1 (20220911.1526)
 -->
<!-- Title: elc::defs::base::add_const Pages: 1 -->
<!--zoomable 525 -->
<svg id="main" version="1.1" xmlns="http://www.w3.org/2000/svg" xmlns:xlink="http://www.w3.org/1999/xlink" xml:space="preserve" onload="init(evt)">
<style type="text/css"><![CDATA[
.edge:hover path { stroke: red; }
.edge:hover polygon { stroke: red; fill: red; }
]]></style>
<script type="text/javascript"><![CDATA[
var edges = document.getElementsByTagName('g');
if (edges && edges.length) {
  for (var i=0;i<edges.length;i++) {
    if (edges[i].id.substr(0,4)=='edge') {
      edges[i].setAttribute('class','edge');
    }
  }
}
]]></script>
        <defs>
                <circle id="rim" cx="0" cy="0" r="7"/>
                <circle id="rim2" cx="0" cy="0" r="3.5"/>
                <g id="zoomPlus">
                        <use xlink:href="#rim" fill="#404040">
                                <set attributeName="fill" to="#808080" begin="zoomplus.mouseover" end="zoomplus.mouseout"/>
                        </use>
                        <path d="M-4,0h8M0,-4v8" fill="none" stroke="white" stroke-width="1.5" pointer-events="none"/>
                </g>
                <g id="zoomMin">
                        <use xlink:href="#rim" fill="#404040">
                                <set attributeName="fill" to="#808080" begin="zoomminus.mouseover" end="zoomminus.mouseout"/>
                        </use>
                        <path d="M-4,0h8" fill="none" stroke="white" stroke-width="1.5" pointer-events="none"/>
                </g>
                <g id="dirArrow">
                        <path fill="none" stroke="white" stroke-width="1.5" d="M0,-3.0v7 M-2.5,-0.5L0,-3.0L2.5,-0.5"/>
                </g>
               <g id="resetDef">
                       <use xlink:href="#rim2" fill="#404040">
                               <set attributeName="fill" to="#808080" begin="reset.mouseover" end="reset.mouseout"/>
                       </use>
               </g>
        </defs>

<script type="text/javascript">
var viewWidth = 462;
var viewHeight = 525;
var sectionId = 'dynsection-0';
</script>
<script xlink:href="svgpan.js"/>
<svg id="graph" class="graph">
<g id="viewport">
<title>elc::defs::base::add_const</title>
<!-- Node1 -->
<g id="node1" class="node">
<title>Node1</title>
<g id="a_node1"><a xlink:title="对值追加const">
<polygon fill="#999999" stroke="#666666" points="454,-257 352,-257 352,-227 454,-227 454,-257"/>
<text text-anchor="start" x="360" y="-245" font-family="Helvetica,sans-Serif" font-size="10.00">elc::defs::base::add</text>
<text text-anchor="middle" x="403" y="-234" font-family="Helvetica,sans-Serif" font-size="10.00">_const</text>
</a>
</g>
</g>
<!-- Node2 -->
<g id="node2" class="node">
<title>Node2</title>
<g id="a_node2"><a xlink:href="structelc_1_1defs_1_1memory_1_1lifetime__n_1_1copy__construct__t.html#a546e57eee13e5e17ab116a07add18a8a" target="_top" xlink:title=" ">
<polygon fill="white" stroke="#666666" points="305.5,-516.5 174.5,-516.5 174.5,-475.5 305.5,-475.5 305.5,-516.5"/>
<text text-anchor="start" x="182.5" y="-504.5" font-family="Helvetica,sans-Serif" font-size="10.00">elc::defs::memory::</text>
<text text-anchor="start" x="182.5" y="-493.5" font-family="Helvetica,sans-Serif" font-size="10.00">lifetime_n::copy_construct</text>
<text text-anchor="middle" x="240" y="-482.5" font-family="Helvetica,sans-Serif" font-size="10.00">_t::base_call</text>
</a>
</g>
</g>
<!-- Node1&#45;&gt;Node2 -->
<g id="edge1" class="edge">
<title>Node1&#45;&gt;Node2</title>
<path fill="none" stroke="#63b8ff" d="M399.1,-267.08C392.53,-312.84 372.42,-410.36 316,-467 312.85,-470.16 309.31,-472.99 305.54,-475.52"/>
<polygon fill="#63b8ff" stroke="#63b8ff" points="402.58,-267.5 400.43,-257.12 395.64,-266.57 402.58,-267.5"/>
</g>
<!-- Node3 -->
<g id="node3" class="node">
<title>Node3</title>
<g id="a_node3"><a xlink:href="structelc_1_1defs_1_1memory_1_1lifetime__n_1_1copy__assign__t.html#a777d2356bc4ec26330ffc9a3b9ce8cc7" target="_top" xlink:title=" ">
<polygon fill="white" stroke="#666666" points="299.5,-457.5 180.5,-457.5 180.5,-416.5 299.5,-416.5 299.5,-457.5"/>
<text text-anchor="start" x="188.5" y="-445.5" font-family="Helvetica,sans-Serif" font-size="10.00">elc::defs::memory::</text>
<text text-anchor="start" x="188.5" y="-434.5" font-family="Helvetica,sans-Serif" font-size="10.00">lifetime_n::copy_assign</text>
<text text-anchor="middle" x="240" y="-423.5" font-family="Helvetica,sans-Serif" font-size="10.00">_t::base_call</text>
</a>
</g>
</g>
<!-- Node1&#45;&gt;Node3 -->
<g id="edge2" class="edge">
<title>Node1&#45;&gt;Node3</title>
<path fill="none" stroke="#63b8ff" d="M395.3,-266.77C384.4,-302.62 359.55,-368.96 316,-408 311.11,-412.38 305.49,-416.13 299.58,-419.33"/>
<polygon fill="#63b8ff" stroke="#63b8ff" points="398.68,-267.68 398.13,-257.1 391.96,-265.71 398.68,-267.68"/>
</g>
<!-- Node4 -->
<g id="node4" class="node">
<title>Node4</title>
<g id="a_node4"><a xlink:href="structelc_1_1defs_1_1memory_1_1lifetime__n_1_1move__construct__t.html#ac8732b9d850faaef7d3aa8806b6afd8d" target="_top" xlink:title=" ">
<polygon fill="white" stroke="#666666" points="306,-398.5 174,-398.5 174,-357.5 306,-357.5 306,-398.5"/>
<text text-anchor="start" x="182" y="-386.5" font-family="Helvetica,sans-Serif" font-size="10.00">elc::defs::memory::</text>
<text text-anchor="start" x="182" y="-375.5" font-family="Helvetica,sans-Serif" font-size="10.00">lifetime_n::move_construct</text>
<text text-anchor="middle" x="240" y="-364.5" font-family="Helvetica,sans-Serif" font-size="10.00">_t::base_call</text>
</a>
</g>
</g>
<!-- Node1&#45;&gt;Node4 -->
<g id="edge3" class="edge">
<title>Node1&#45;&gt;Node4</title>
<path fill="none" stroke="#63b8ff" d="M387.96,-266.06C372.9,-290.02 346.91,-326.4 316,-349 311.83,-352.05 307.3,-354.82 302.6,-357.34"/>
<polygon fill="#63b8ff" stroke="#63b8ff" points="391.13,-267.59 393.37,-257.24 385.16,-263.93 391.13,-267.59"/>
</g>
<!-- Node5 -->
<g id="node5" class="node">
<title>Node5</title>
<g id="a_node5"><a xlink:href="structelc_1_1defs_1_1memory_1_1lifetime__n_1_1move__assign__t.html#a47d6bf97ded2f6d8391b5ed0cb40aff2" target="_top" xlink:title=" ">
<polygon fill="white" stroke="#666666" points="300,-339.5 180,-339.5 180,-298.5 300,-298.5 300,-339.5"/>
<text text-anchor="start" x="188" y="-327.5" font-family="Helvetica,sans-Serif" font-size="10.00">elc::defs::memory::</text>
<text text-anchor="start" x="188" y="-316.5" font-family="Helvetica,sans-Serif" font-size="10.00">lifetime_n::move_assign</text>
<text text-anchor="middle" x="240" y="-305.5" font-family="Helvetica,sans-Serif" font-size="10.00">_t::base_call</text>
</a>
</g>
</g>
<!-- Node1&#45;&gt;Node5 -->
<g id="edge4" class="edge">
<title>Node1&#45;&gt;Node5</title>
<path fill="none" stroke="#63b8ff" d="M368.47,-262.15C352.8,-271.19 333.73,-281.68 316,-290 309.81,-292.91 303.24,-295.76 296.66,-298.48"/>
<polygon fill="#63b8ff" stroke="#63b8ff" points="370.4,-265.08 377.27,-257.02 366.87,-259.03 370.4,-265.08"/>
</g>
<!-- Node6 -->
<g id="node6" class="node">
<title>Node6</title>
<g id="a_node6"><a xlink:href="namespaceelc_1_1defs_1_1memory_1_1get__n.html#a7c74be8ab8b9c29fb3ba00941808499a" target="_top" xlink:title="向前减小数据块大小并转移原有实例的生命周期，但并不析构旧的实例">
<polygon fill="white" stroke="#666666" points="291.5,-262.5 188.5,-262.5 188.5,-221.5 291.5,-221.5 291.5,-262.5"/>
<text text-anchor="start" x="196.5" y="-250.5" font-family="Helvetica,sans-Serif" font-size="10.00">elc::defs::memory::</text>
<text text-anchor="start" x="196.5" y="-239.5" font-family="Helvetica,sans-Serif" font-size="10.00">get_n::forward_alloc</text>
<text text-anchor="middle" x="240" y="-228.5" font-family="Helvetica,sans-Serif" font-size="10.00">_size_cut</text>
</a>
</g>
</g>
<!-- Node1&#45;&gt;Node6 -->
<g id="edge5" class="edge">
<title>Node1&#45;&gt;Node6</title>
<path fill="none" stroke="#63b8ff" d="M341.83,-242C325.29,-242 307.52,-242 291.58,-242"/>
<polygon fill="#63b8ff" stroke="#63b8ff" points="341.94,-245.5 351.94,-242 341.94,-238.5 341.94,-245.5"/>
</g>
<!-- Node8 -->
<g id="node8" class="node">
<title>Node8</title>
<g id="a_node8"><a xlink:href="namespaceelc_1_1defs_1_1memory_1_1get__n.html#afdcf942befe9ac401b133e08e2f72609" target="_top" xlink:title="向前扩大数据块大小并转移原有实例的生命周期，但并不构造新的实例">
<polygon fill="white" stroke="#666666" points="291.5,-185.5 188.5,-185.5 188.5,-144.5 291.5,-144.5 291.5,-185.5"/>
<text text-anchor="start" x="196.5" y="-173.5" font-family="Helvetica,sans-Serif" font-size="10.00">elc::defs::memory::</text>
<text text-anchor="start" x="196.5" y="-162.5" font-family="Helvetica,sans-Serif" font-size="10.00">get_n::forward_alloc</text>
<text text-anchor="middle" x="240" y="-151.5" font-family="Helvetica,sans-Serif" font-size="10.00">_size_grow</text>
</a>
</g>
</g>
<!-- Node1&#45;&gt;Node8 -->
<g id="edge8" class="edge">
<title>Node1&#45;&gt;Node8</title>
<path fill="none" stroke="#63b8ff" d="M361.51,-222.63C337.84,-211.31 307.99,-197.04 283.92,-185.53"/>
<polygon fill="#63b8ff" stroke="#63b8ff" points="360.04,-225.81 370.58,-226.97 363.06,-219.5 360.04,-225.81"/>
</g>
<!-- Node9 -->
<g id="node9" class="node">
<title>Node9</title>
<g id="a_node9"><a xlink:href="structelc_1_1defs_1_1memory_1_1ptr__n_1_1base__ptr__t.html#a7e7627506a3fece1d07acb6df50cdf38" target="_top" xlink:title=" ">
<polygon fill="white" stroke="#666666" points="316,-126 164,-126 164,-96 316,-96 316,-126"/>
<text text-anchor="start" x="172" y="-114" font-family="Helvetica,sans-Serif" font-size="10.00">elc::defs::memory::</text>
<text text-anchor="middle" x="240" y="-103" font-family="Helvetica,sans-Serif" font-size="10.00">ptr_n::base_ptr_t::operator bool</text>
</a>
</g>
</g>
<!-- Node1&#45;&gt;Node9 -->
<g id="edge11" class="edge">
<title>Node1&#45;&gt;Node9</title>
<path fill="none" stroke="#63b8ff" d="M388.13,-217.87C373.19,-193.89 347.31,-157.67 316,-136 310.47,-132.17 304.31,-128.89 297.96,-126.09"/>
<polygon fill="#63b8ff" stroke="#63b8ff" points="385.31,-219.97 393.49,-226.7 391.3,-216.34 385.31,-219.97"/>
</g>
<!-- Node10 -->
<g id="node10" class="node">
<title>Node10</title>
<g id="a_node10"><a xlink:href="structelc_1_1defs_1_1memory_1_1ptr__n_1_1ptr__t.html#ae9682cf972fe2d787451a4ca6a0ab828" target="_top" xlink:title=" ">
<polygon fill="white" stroke="#666666" points="298.5,-78 181.5,-78 181.5,-48 298.5,-48 298.5,-78"/>
<text text-anchor="start" x="189.5" y="-66" font-family="Helvetica,sans-Serif" font-size="10.00">elc::defs::memory::</text>
<text text-anchor="middle" x="240" y="-55" font-family="Helvetica,sans-Serif" font-size="10.00">ptr_n::ptr_t::operator==</text>
</a>
</g>
</g>
<!-- Node1&#45;&gt;Node10 -->
<g id="edge12" class="edge">
<title>Node1&#45;&gt;Node10</title>
<path fill="none" stroke="#63b8ff" d="M394.64,-217.06C383.28,-182.85 358.26,-121.67 316,-87 310.82,-82.75 304.88,-79.25 298.65,-76.37"/>
<polygon fill="#63b8ff" stroke="#63b8ff" points="391.36,-218.29 397.73,-226.75 398.02,-216.16 391.36,-218.29"/>
</g>
<!-- Node11 -->
<g id="node11" class="node">
<title>Node11</title>
<g id="a_node11"><a xlink:href="namespaceelc_1_1defs_1_1base_1_1null__ptr__n.html#a5966ce50f783e773a2ccdad08c984d64" target="_top" xlink:title=" ">
<polygon fill="white" stroke="#666666" points="290.5,-30 189.5,-30 189.5,0 290.5,0 290.5,-30"/>
<text text-anchor="start" x="197.5" y="-18" font-family="Helvetica,sans-Serif" font-size="10.00">elc::defs::base::null</text>
<text text-anchor="middle" x="240" y="-7" font-family="Helvetica,sans-Serif" font-size="10.00">_ptr_n::operator==</text>
</a>
</g>
</g>
<!-- Node1&#45;&gt;Node11 -->
<g id="edge13" class="edge">
<title>Node1&#45;&gt;Node11</title>
<path fill="none" stroke="#63b8ff" d="M398.23,-216.68C390.54,-173.94 369.05,-87.43 316,-39 308.83,-32.46 299.87,-27.7 290.66,-24.23"/>
<polygon fill="#63b8ff" stroke="#63b8ff" points="394.82,-217.51 399.93,-226.79 401.72,-216.35 394.82,-217.51"/>
</g>
<!-- Node6&#45;&gt;Node6 -->
<g id="edge7" class="edge">
<title>Node6&#45;&gt;Node6</title>
<path fill="none" stroke="#63b8ff" d="M268.04,-272.46C263.87,-277.24 254.53,-280.5 240,-280.5 216.76,-280.5 206.77,-272.15 210.04,-262.6"/>
<polygon fill="#63b8ff" stroke="#63b8ff" points="271.49,-273.08 269.96,-262.6 264.62,-271.75 271.49,-273.08"/>
</g>
<!-- Node7 -->
<g id="node7" class="node">
<title>Node7</title>
<g id="a_node7"><a xlink:href="structelc_1_1defs_1_1memory_1_1get__n_1_1get__forward__resize__t.html#a40a2e7a29fed3b08b139b963a72533ff" target="_top" xlink:title=" ">
<polygon fill="white" stroke="#666666" points="128,-223.5 0,-223.5 0,-182.5 128,-182.5 128,-223.5"/>
<text text-anchor="start" x="8" y="-211.5" font-family="Helvetica,sans-Serif" font-size="10.00">elc::defs::memory::</text>
<text text-anchor="start" x="8" y="-200.5" font-family="Helvetica,sans-Serif" font-size="10.00">get_n::get_forward_resize</text>
<text text-anchor="middle" x="64" y="-189.5" font-family="Helvetica,sans-Serif" font-size="10.00">_t::base_call</text>
</a>
</g>
</g>
<!-- Node6&#45;&gt;Node7 -->
<g id="edge6" class="edge">
<title>Node6&#45;&gt;Node7</title>
<path fill="none" stroke="#63b8ff" d="M178.31,-228.4C162.11,-224.77 144.57,-220.83 128.23,-217.17"/>
<polygon fill="#63b8ff" stroke="#63b8ff" points="177.68,-231.84 188.2,-230.61 179.21,-225.01 177.68,-231.84"/>
</g>
<!-- Node8&#45;&gt;Node7 -->
<g id="edge9" class="edge">
<title>Node8&#45;&gt;Node7</title>
<path fill="none" stroke="#63b8ff" d="M178.31,-178.25C162.11,-181.79 144.57,-185.62 128.23,-189.19"/>
<polygon fill="#63b8ff" stroke="#63b8ff" points="179.18,-181.65 188.2,-176.09 177.69,-174.81 179.18,-181.65"/>
</g>
<!-- Node8&#45;&gt;Node8 -->
<g id="edge10" class="edge">
<title>Node8&#45;&gt;Node8</title>
<path fill="none" stroke="#63b8ff" d="M268.04,-195.46C263.87,-200.24 254.53,-203.5 240,-203.5 216.76,-203.5 206.77,-195.15 210.04,-185.6"/>
<polygon fill="#63b8ff" stroke="#63b8ff" points="271.49,-196.08 269.96,-185.6 264.62,-194.75 271.49,-196.08"/>
</g>
</g>
</svg>
        <g id="navigator" transform="translate(0 0)" fill="#404254">
                <rect fill="#f2f5e9" fill-opacity="0.5" stroke="#606060" stroke-width=".5" x="0" y="0" width="60" height="60"/>
                <use id="zoomplus" xlink:href="#zoomPlus" x="17" y="9" onmousedown="handleZoom(evt,'in')"/>
                <use id="zoomminus" xlink:href="#zoomMin" x="42" y="9" onmousedown="handleZoom(evt,'out')"/>
                <use id="reset" xlink:href="#resetDef" x="30" y="36" onmousedown="handleReset()"/>
                <g id="arrowUp" xlink:href="#dirArrow" transform="translate(30 24)" onmousedown="handlePan(0,-1)">
                  <use xlink:href="#rim" fill="#404040">
                        <set attributeName="fill" to="#808080" begin="arrowUp.mouseover" end="arrowUp.mouseout"/>
                  </use>
                  <path fill="none" stroke="white" stroke-width="1.5" d="M0,-3.0v7 M-2.5,-0.5L0,-3.0L2.5,-0.5"/>
                </g>
                <g id="arrowRight" xlink:href="#dirArrow" transform="rotate(90) translate(36 -43)" onmousedown="handlePan(1,0)">
                  <use xlink:href="#rim" fill="#404040">
                        <set attributeName="fill" to="#808080" begin="arrowRight.mouseover" end="arrowRight.mouseout"/>
                  </use>
                  <path fill="none" stroke="white" stroke-width="1.5" d="M0,-3.0v7 M-2.5,-0.5L0,-3.0L2.5,-0.5"/>
                </g>
                <g id="arrowDown" xlink:href="#dirArrow" transform="rotate(180) translate(-30 -48)" onmousedown="handlePan(0,1)">
                  <use xlink:href="#rim" fill="#404040">
                        <set attributeName="fill" to="#808080" begin="arrowDown.mouseover" end="arrowDown.mouseout"/>
                  </use>
                  <path fill="none" stroke="white" stroke-width="1.5" d="M0,-3.0v7 M-2.5,-0.5L0,-3.0L2.5,-0.5"/>
                </g>
                <g id="arrowLeft" xlink:href="#dirArrow" transform="rotate(270) translate(-36 17)" onmousedown="handlePan(-1,0)">
                  <use xlink:href="#rim" fill="#404040">
                        <set attributeName="fill" to="#808080" begin="arrowLeft.mouseover" end="arrowLeft.mouseout"/>
                  </use>
                  <path fill="none" stroke="white" stroke-width="1.5" d="M0,-3.0v7 M-2.5,-0.5L0,-3.0L2.5,-0.5"/>
                </g>
        </g>
        <svg viewBox="0 0 15 15" width="100%" height="30px" preserveAspectRatio="xMaxYMin meet">
         <g id="arrow_out" transform="scale(0.3 0.3)">
          <a xlink:href="namespaceelc_1_1defs_1_1base_aae9be6874a7dd367db08a9a6e1d65639_icgraph_org.svg" target="_base">
           <rect id="button" ry="5" rx="5" y="6" x="6" height="38" width="38"
                fill="#f2f5e9" fill-opacity="0.5" stroke="#606060" stroke-width="1.0"/>
           <path id="arrow"
             d="M 11.500037,31.436501 C 11.940474,20.09759 22.043105,11.32322 32.158766,21.979434 L 37.068811,17.246167 C 37.068811,17.246167 37.088388,32 37.088388,32 L 22.160133,31.978069 C 22.160133,31.978069 26.997745,27.140456 26.997745,27.140456 C 18.528582,18.264221 13.291696,25.230495 11.500037,31.436501 z"
             style="fill:#404040;"/>
          </a>
         </g>
        </svg>
</svg>
