<?xml version="1.0" encoding="UTF-8" standalone="no"?>
<!DOCTYPE svg PUBLIC "-//W3C//DTD SVG 1.1//EN"
 "http://www.w3.org/Graphics/SVG/1.1/DTD/svg11.dtd">
<!-- Generated by graphviz version 6.0.1 (20220911.1526)
 -->
<!-- Title: elc::defs::base::the_pointer_equal Pages: 1 -->
<svg width="441pt" height="110pt"
 viewBox="0.00 0.00 441.00 110.00" xmlns="http://www.w3.org/2000/svg" xmlns:xlink="http://www.w3.org/1999/xlink">
<g id="graph0" class="graph" transform="scale(1 1) rotate(0) translate(4 106)">
<title>elc::defs::base::the_pointer_equal</title>
<!-- Node1 -->
<g id="node1" class="node">
<title>Node1</title>
<g id="a_node1"><a xlink:title=" ">
<polygon fill="#999999" stroke="#666666" points="433,-54 333,-54 333,-24 433,-24 433,-54"/>
<text text-anchor="start" x="341" y="-42" font-family="Helvetica,sans-Serif" font-size="10.00">elc::defs::base::the</text>
<text text-anchor="middle" x="383" y="-31" font-family="Helvetica,sans-Serif" font-size="10.00">_pointer_equal</text>
</a>
</g>
</g>
<!-- Node2 -->
<g id="node2" class="node">
<title>Node2</title>
<g id="a_node2"><a xlink:href="namespaceelc_1_1defs_1_1base.html#a7d7867f29ab0c6027c3d983f5f249fa0" target="_top" xlink:title="指针比较的重载接口，允许类对此进行自定义 elc内部的指针比较应当视情况使用默认配置或此重载接口">
<polygon fill="white" stroke="#666666" points="297,-78 181,-78 181,-48 297,-48 297,-78"/>
<text text-anchor="start" x="189" y="-66" font-family="Helvetica,sans-Serif" font-size="10.00">elc::defs::base::pointer</text>
<text text-anchor="middle" x="239" y="-55" font-family="Helvetica,sans-Serif" font-size="10.00">_equal</text>
</a>
</g>
</g>
<!-- Node1&#45;&gt;Node2 -->
<g id="edge1" class="edge">
<title>Node1&#45;&gt;Node2</title>
<path fill="none" stroke="#63b8ff" d="M322.7,-49.02C314.35,-50.43 305.78,-51.88 297.47,-53.29"/>
<polygon fill="#63b8ff" stroke="#63b8ff" points="323.46,-52.44 332.73,-47.33 322.29,-45.54 323.46,-52.44"/>
</g>
<!-- Node5 -->
<g id="node5" class="node">
<title>Node5</title>
<g id="a_node5"><a xlink:href="namespaceelc_1_1defs_1_1core.html#aba39fcb2f4726ec735963b8db35baf00" target="_top" xlink:title=" ">
<polygon fill="white" stroke="#666666" points="288,-30 190,-30 190,0 288,0 288,-30"/>
<text text-anchor="start" x="198" y="-18" font-family="Helvetica,sans-Serif" font-size="10.00">elc::defs::core::the</text>
<text text-anchor="middle" x="239" y="-7" font-family="Helvetica,sans-Serif" font-size="10.00">_pointer_equal</text>
</a>
</g>
</g>
<!-- Node1&#45;&gt;Node5 -->
<g id="edge4" class="edge">
<title>Node1&#45;&gt;Node5</title>
<path fill="none" stroke="#63b8ff" d="M322.76,-28.99C311.25,-27.04 299.32,-25.03 288.22,-23.15"/>
<polygon fill="#63b8ff" stroke="#63b8ff" points="322.29,-32.46 332.73,-30.67 323.46,-25.56 322.29,-32.46"/>
</g>
<!-- Node3 -->
<g id="node3" class="node">
<title>Node3</title>
<g id="a_node3"><a xlink:href="structelc_1_1defs_1_1memory_1_1ptr__n_1_1ptr__t.html#ae9682cf972fe2d787451a4ca6a0ab828" target="_top" xlink:title=" ">
<polygon fill="white" stroke="#666666" points="131,-102 14,-102 14,-72 131,-72 131,-102"/>
<text text-anchor="start" x="22" y="-90" font-family="Helvetica,sans-Serif" font-size="10.00">elc::defs::memory::</text>
<text text-anchor="middle" x="72.5" y="-79" font-family="Helvetica,sans-Serif" font-size="10.00">ptr_n::ptr_t::operator==</text>
</a>
</g>
</g>
<!-- Node2&#45;&gt;Node3 -->
<g id="edge2" class="edge">
<title>Node2&#45;&gt;Node3</title>
<path fill="none" stroke="#63b8ff" d="M170.93,-72.78C157.7,-74.72 143.92,-76.73 131.03,-78.61"/>
<polygon fill="#63b8ff" stroke="#63b8ff" points="171.54,-76.23 180.93,-71.33 170.53,-69.31 171.54,-76.23"/>
</g>
<!-- Node4 -->
<g id="node4" class="node">
<title>Node4</title>
<g id="a_node4"><a xlink:href="classelc_1_1defs_1_1base_1_1iterator__n_1_1same__base__t.html#af84e94988c8f28e61c38763fd2939ce0" target="_top" xlink:title=" ">
<polygon fill="white" stroke="#666666" points="145,-54 0,-54 0,-24 145,-24 145,-54"/>
<text text-anchor="start" x="8" y="-42" font-family="Helvetica,sans-Serif" font-size="10.00">elc::defs::base::iterator</text>
<text text-anchor="middle" x="72.5" y="-31" font-family="Helvetica,sans-Serif" font-size="10.00">_n::same_base_t::operator==</text>
</a>
</g>
</g>
<!-- Node2&#45;&gt;Node4 -->
<g id="edge3" class="edge">
<title>Node2&#45;&gt;Node4</title>
<path fill="none" stroke="#63b8ff" d="M170.79,-53.19C162.37,-51.97 153.74,-50.71 145.25,-49.47"/>
<polygon fill="#63b8ff" stroke="#63b8ff" points="170.53,-56.69 180.93,-54.67 171.54,-49.77 170.53,-56.69"/>
</g>
</g>
</svg>
