<?xml version="1.0" encoding="UTF-8" standalone="no"?>
<!DOCTYPE svg PUBLIC "-//W3C//DTD SVG 1.1//EN"
 "http://www.w3.org/Graphics/SVG/1.1/DTD/svg11.dtd">
<!-- Generated by graphviz version 6.0.1 (20220911.1526)
 -->
<!-- Title: elc::defs::base::magic_number::rotr_nomod Pages: 1 -->
<svg width="419pt" height="122pt"
 viewBox="0.00 0.00 419.00 122.00" xmlns="http://www.w3.org/2000/svg" xmlns:xlink="http://www.w3.org/1999/xlink">
<g id="graph0" class="graph" transform="scale(1 1) rotate(0) translate(4 118)">
<title>elc::defs::base::magic_number::rotr_nomod</title>
<!-- Node1 -->
<g id="node1" class="node">
<title>Node1</title>
<g id="a_node1"><a xlink:title="位操作：循环右移（无mod） 不使用std版本而是自己写的原因：std版本右操作数只能是int而不能是size_t或别的，标准会傻逼">
<polygon fill="#999999" stroke="#666666" points="411,-96 298,-96 298,-66 411,-66 411,-96"/>
<text text-anchor="start" x="306" y="-84" font-family="Helvetica,sans-Serif" font-size="10.00">elc::defs::base::magic</text>
<text text-anchor="middle" x="354.5" y="-73" font-family="Helvetica,sans-Serif" font-size="10.00">_number::rotr_nomod</text>
</a>
</g>
</g>
<!-- Node1&#45;&gt;Node1 -->
<g id="edge8" class="edge">
<title>Node1&#45;&gt;Node1</title>
<path fill="none" stroke="#63b8ff" d="M380.58,-106.6C377.02,-110.97 368.32,-114 354.5,-114 331.22,-114 322.49,-105.41 328.31,-96.28"/>
<polygon fill="#63b8ff" stroke="#63b8ff" points="384.08,-106.31 380.69,-96.28 377.08,-106.24 384.08,-106.31"/>
</g>
<!-- Node2 -->
<g id="node2" class="node">
<title>Node2</title>
<g id="a_node2"><a xlink:href="namespaceelc_1_1defs_1_1base_1_1magic__number.html#aab6ca25a1946f5d1af899e05a59b2c97" target="_top" xlink:title="位操作：循环左移（无mod） 不使用std版本而是自己写的原因：std版本右操作数只能是int而不能是size_t或别的，标准会傻逼">
<polygon fill="white" stroke="#666666" points="262,-96 149,-96 149,-66 262,-66 262,-96"/>
<text text-anchor="start" x="157" y="-84" font-family="Helvetica,sans-Serif" font-size="10.00">elc::defs::base::magic</text>
<text text-anchor="middle" x="205.5" y="-73" font-family="Helvetica,sans-Serif" font-size="10.00">_number::rotl_nomod</text>
</a>
</g>
</g>
<!-- Node1&#45;&gt;Node2 -->
<g id="edge1" class="edge">
<title>Node1&#45;&gt;Node2</title>
<path fill="none" stroke="#63b8ff" d="M287.92,-74.28C279.32,-74.21 270.57,-74.26 262.15,-74.43"/>
<polygon fill="#63b8ff" stroke="#63b8ff" points="287.88,-77.78 297.93,-74.43 287.98,-70.79 287.88,-77.78"/>
</g>
<!-- Node4 -->
<g id="node4" class="node">
<title>Node4</title>
<g id="a_node4"><a xlink:href="namespaceelc_1_1defs_1_1base_1_1magic__number.html#a284c0b938dba3f5651066172c49dae2e" target="_top" xlink:title="位操作：循环右移 不使用std版本而是自己写的原因：std版本右操作数只能是int而不能是size_t或别的，标准会傻逼">
<polygon fill="white" stroke="#666666" points="262,-30 149,-30 149,0 262,0 262,-30"/>
<text text-anchor="start" x="157" y="-18" font-family="Helvetica,sans-Serif" font-size="10.00">elc::defs::base::magic</text>
<text text-anchor="middle" x="205.5" y="-7" font-family="Helvetica,sans-Serif" font-size="10.00">_number::rotr</text>
</a>
</g>
</g>
<!-- Node1&#45;&gt;Node4 -->
<g id="edge6" class="edge">
<title>Node1&#45;&gt;Node4</title>
<path fill="none" stroke="#63b8ff" d="M310.47,-61.68C288.01,-51.6 260.95,-39.45 240.07,-30.07"/>
<polygon fill="#63b8ff" stroke="#63b8ff" points="309.22,-64.96 319.78,-65.86 312.09,-58.57 309.22,-64.96"/>
</g>
<!-- Node2&#45;&gt;Node1 -->
<g id="edge5" class="edge">
<title>Node2&#45;&gt;Node1</title>
<path fill="none" stroke="#63b8ff" d="M272.16,-87.72C280.76,-87.79 289.51,-87.74 297.93,-87.57"/>
<polygon fill="#63b8ff" stroke="#63b8ff" points="272.2,-84.22 262.15,-87.57 272.1,-91.22 272.2,-84.22"/>
</g>
<!-- Node2&#45;&gt;Node2 -->
<g id="edge4" class="edge">
<title>Node2&#45;&gt;Node2</title>
<path fill="none" stroke="#63b8ff" d="M231.58,-106.6C228.02,-110.97 219.32,-114 205.5,-114 182.22,-114 173.49,-105.41 179.31,-96.28"/>
<polygon fill="#63b8ff" stroke="#63b8ff" points="235.08,-106.31 231.69,-96.28 228.08,-106.24 235.08,-106.31"/>
</g>
<!-- Node3 -->
<g id="node3" class="node">
<title>Node3</title>
<g id="a_node3"><a xlink:href="namespaceelc_1_1defs_1_1base_1_1magic__number.html#ac62afcb51840aa2751bb3a9024ef5960" target="_top" xlink:title="位操作：循环左移 不使用std版本而是自己写的原因：std版本右操作数只能是int而不能是size_t或别的，标准会傻逼">
<polygon fill="white" stroke="#666666" points="113,-96 0,-96 0,-66 113,-66 113,-96"/>
<text text-anchor="start" x="8" y="-84" font-family="Helvetica,sans-Serif" font-size="10.00">elc::defs::base::magic</text>
<text text-anchor="middle" x="56.5" y="-73" font-family="Helvetica,sans-Serif" font-size="10.00">_number::rotl</text>
</a>
</g>
</g>
<!-- Node2&#45;&gt;Node3 -->
<g id="edge2" class="edge">
<title>Node2&#45;&gt;Node3</title>
<path fill="none" stroke="#63b8ff" d="M138.92,-81C130.32,-81 121.57,-81 113.15,-81"/>
<polygon fill="#63b8ff" stroke="#63b8ff" points="138.93,-84.5 148.93,-81 138.93,-77.5 138.93,-84.5"/>
</g>
<!-- Node3&#45;&gt;Node3 -->
<g id="edge3" class="edge">
<title>Node3&#45;&gt;Node3</title>
<path fill="none" stroke="#63b8ff" d="M82.58,-106.6C79.02,-110.97 70.32,-114 56.5,-114 33.22,-114 24.49,-105.41 30.31,-96.28"/>
<polygon fill="#63b8ff" stroke="#63b8ff" points="86.08,-106.31 82.69,-96.28 79.08,-106.24 86.08,-106.31"/>
</g>
<!-- Node4&#45;&gt;Node4 -->
<g id="edge7" class="edge">
<title>Node4&#45;&gt;Node4</title>
<path fill="none" stroke="#63b8ff" d="M231.58,-40.6C228.02,-44.97 219.32,-48 205.5,-48 182.22,-48 173.49,-39.41 179.31,-30.28"/>
<polygon fill="#63b8ff" stroke="#63b8ff" points="235.08,-40.31 231.69,-30.28 228.08,-40.24 235.08,-40.31"/>
</g>
</g>
</svg>
