<?xml version="1.0" encoding="UTF-8" standalone="no"?>
<!DOCTYPE svg PUBLIC "-//W3C//DTD SVG 1.1//EN"
 "http://www.w3.org/Graphics/SVG/1.1/DTD/svg11.dtd">
<!-- Generated by graphviz version 6.0.1 (20220911.1526)
 -->
<!-- Title: elc::defs::base::range_n::find_last_of_size_t Pages: 1 -->
<svg width="592pt" height="170pt"
 viewBox="0.00 0.00 592.00 170.00" xmlns="http://www.w3.org/2000/svg" xmlns:xlink="http://www.w3.org/1999/xlink">
<g id="graph0" class="graph" transform="scale(1 1) rotate(0) translate(4 166)">
<title>elc::defs::base::range_n::find_last_of_size_t</title>
<!-- Node1 -->
<g id="node1" class="node">
<title>Node1</title>
<g id="a_node1"><a xlink:title="若成功找到匹配的数据项，返回其距离开头的步数，若未找到，返回npos">
<polygon fill="#999999" stroke="#666666" points="113,-114 0,-114 0,-84 113,-84 113,-114"/>
<text text-anchor="start" x="8" y="-102" font-family="Helvetica,sans-Serif" font-size="10.00">elc::defs::base::range</text>
<text text-anchor="middle" x="56.5" y="-91" font-family="Helvetica,sans-Serif" font-size="10.00">_n::find_last_of_size_t</text>
</a>
</g>
</g>
<!-- Node1&#45;&gt;Node1 -->
<g id="edge11" class="edge">
<title>Node1&#45;&gt;Node1</title>
<path fill="none" stroke="#63b8ff" d="M29.78,-114.28C23.84,-123.41 32.75,-132 56.5,-132 70.6,-132 79.47,-128.97 83.11,-124.6"/>
<polygon fill="#63b8ff" stroke="#63b8ff" points="86.61,-124.31 83.22,-114.28 79.61,-124.24 86.61,-124.31"/>
</g>
<!-- Node2 -->
<g id="node2" class="node">
<title>Node2</title>
<g id="a_node2"><a xlink:href="structelc_1_1defs_1_1base_1_1array__like__n_1_1array__like__view__t.html#a613a7a28045bb8efd320108a432ad775" target="_top" xlink:title=" ">
<polygon fill="white" stroke="#666666" points="268,-155.5 149,-155.5 149,-114.5 268,-114.5 268,-155.5"/>
<text text-anchor="start" x="157" y="-143.5" font-family="Helvetica,sans-Serif" font-size="10.00">elc::defs::base::array</text>
<text text-anchor="start" x="157" y="-132.5" font-family="Helvetica,sans-Serif" font-size="10.00">_like_n::array_like_view</text>
<text text-anchor="middle" x="208.5" y="-121.5" font-family="Helvetica,sans-Serif" font-size="10.00">_t::begin</text>
</a>
</g>
</g>
<!-- Node1&#45;&gt;Node2 -->
<g id="edge1" class="edge">
<title>Node1&#45;&gt;Node2</title>
<path fill="none" stroke="#63b8ff" d="M113.35,-112.41C121.68,-114.4 130.33,-116.48 138.88,-118.53"/>
<polygon fill="#63b8ff" stroke="#63b8ff" points="138.3,-121.99 148.84,-120.92 139.93,-115.18 138.3,-121.99"/>
</g>
<!-- Node3 -->
<g id="node3" class="node">
<title>Node3</title>
<g id="a_node3"><a xlink:href="namespaceelc_1_1defs_1_1base_1_1range__n.html#a543781983fe9ec71e31537054056d8df" target="_top" xlink:title="若成功找到匹配的数据项，返回其开头，若未找到，返回nullptr">
<polygon fill="white" stroke="#666666" points="263.5,-78 153.5,-78 153.5,-48 263.5,-48 263.5,-78"/>
<text text-anchor="start" x="161.5" y="-66" font-family="Helvetica,sans-Serif" font-size="10.00">elc::defs::base::range</text>
<text text-anchor="middle" x="208.5" y="-55" font-family="Helvetica,sans-Serif" font-size="10.00">_n::find_last_of</text>
</a>
</g>
</g>
<!-- Node1&#45;&gt;Node3 -->
<g id="edge2" class="edge">
<title>Node1&#45;&gt;Node3</title>
<path fill="none" stroke="#63b8ff" d="M113.35,-85.59C123.1,-83.26 133.31,-80.81 143.26,-78.42"/>
<polygon fill="#63b8ff" stroke="#63b8ff" points="144.19,-81.79 153.09,-76.06 142.55,-74.99 144.19,-81.79"/>
</g>
<!-- Node3&#45;&gt;Node3 -->
<g id="edge7" class="edge">
<title>Node3&#45;&gt;Node3</title>
<path fill="none" stroke="#63b8ff" d="M181.78,-78.28C175.84,-87.41 184.75,-96 208.5,-96 222.6,-96 231.47,-92.97 235.11,-88.6"/>
<polygon fill="#63b8ff" stroke="#63b8ff" points="238.61,-88.31 235.22,-78.28 231.61,-88.24 238.61,-88.31"/>
</g>
<!-- Node4 -->
<g id="node4" class="node">
<title>Node4</title>
<g id="a_node4"><a xlink:href="namespaceelc_1_1defs_1_1base_1_1range__n.html#a295e5e75861175fe849be1ae586bd178" target="_top" xlink:title="find_last_of的朴素实现 若成功找到匹配的数据项，返回其开头，若未找到，返回nullptr">
<polygon fill="white" stroke="#666666" points="426,-144 316,-144 316,-114 426,-114 426,-144"/>
<text text-anchor="start" x="324" y="-132" font-family="Helvetica,sans-Serif" font-size="10.00">elc::defs::base::range</text>
<text text-anchor="middle" x="371" y="-121" font-family="Helvetica,sans-Serif" font-size="10.00">_n::base_find_last_of</text>
</a>
</g>
</g>
<!-- Node3&#45;&gt;Node4 -->
<g id="edge3" class="edge">
<title>Node3&#45;&gt;Node4</title>
<path fill="none" stroke="#63b8ff" d="M242.06,-78.14C260.17,-86.39 283.19,-96.6 304,-105 308.43,-106.79 313.05,-108.59 317.7,-110.36"/>
<polygon fill="#63b8ff" stroke="#63b8ff" points="316.64,-113.7 327.23,-113.94 319.1,-107.15 316.64,-113.7"/>
</g>
<!-- Node6 -->
<g id="node6" class="node">
<title>Node6</title>
<g id="a_node6"><a xlink:href="namespaceelc_1_1defs_1_1base_1_1range__n.html#a3369018f6ebb677d3b9acd3a193da180" target="_top" xlink:title="find_last_of的bitmark实现 若成功找到匹配的数据项，返回其开头，若未找到，返回nullptr">
<polygon fill="white" stroke="#666666" points="430.5,-78 311.5,-78 311.5,-48 430.5,-48 430.5,-78"/>
<text text-anchor="start" x="319.5" y="-66" font-family="Helvetica,sans-Serif" font-size="10.00">elc::defs::base::range</text>
<text text-anchor="middle" x="371" y="-55" font-family="Helvetica,sans-Serif" font-size="10.00">_n::find_last_of_bitmark</text>
</a>
</g>
</g>
<!-- Node3&#45;&gt;Node6 -->
<g id="edge8" class="edge">
<title>Node3&#45;&gt;Node6</title>
<path fill="none" stroke="#63b8ff" d="M263.84,-63C275.77,-63 288.57,-63 300.99,-63"/>
<polygon fill="#63b8ff" stroke="#63b8ff" points="301.32,-66.5 311.32,-63 301.32,-59.5 301.32,-66.5"/>
</g>
<!-- Node7 -->
<g id="node7" class="node">
<title>Node7</title>
<g id="a_node7"><a xlink:href="structelc_1_1defs_1_1base_1_1range__n_1_1bitmark__for__finds.html#aac0eaf6119a2810bc00351cb3c7030e0" target="_top" xlink:title=" ">
<polygon fill="white" stroke="#666666" points="438,-30 304,-30 304,0 438,0 438,-30"/>
<text text-anchor="start" x="312" y="-18" font-family="Helvetica,sans-Serif" font-size="10.00">elc::defs::base::range</text>
<text text-anchor="middle" x="371" y="-7" font-family="Helvetica,sans-Serif" font-size="10.00">_n::bitmark_for_finds::mark</text>
</a>
</g>
</g>
<!-- Node3&#45;&gt;Node7 -->
<g id="edge10" class="edge">
<title>Node3&#45;&gt;Node7</title>
<path fill="none" stroke="#63b8ff" d="M259.84,-47.94C275.83,-43.16 293.66,-37.83 310.24,-32.87"/>
<polygon fill="#63b8ff" stroke="#63b8ff" points="311.26,-36.22 319.84,-30 309.25,-29.51 311.26,-36.22"/>
</g>
<!-- Node4&#45;&gt;Node4 -->
<g id="edge4" class="edge">
<title>Node4&#45;&gt;Node4</title>
<path fill="none" stroke="#63b8ff" d="M343.23,-144.28C337.05,-153.41 346.31,-162 371,-162 385.66,-162 394.88,-158.97 398.66,-154.6"/>
<polygon fill="#63b8ff" stroke="#63b8ff" points="402.16,-154.31 398.77,-144.28 395.16,-154.23 402.16,-154.31"/>
</g>
<!-- Node5 -->
<g id="node5" class="node">
<title>Node5</title>
<g id="a_node5"><a xlink:href="namespaceelc_1_1defs_1_1base_1_1range__n.html#ace6a3a9d079214ee7bcce5acbef1e07f" target="_top" xlink:title="判断一个值是否在某个范围内">
<polygon fill="white" stroke="#666666" points="584,-144 474,-144 474,-114 584,-114 584,-144"/>
<text text-anchor="start" x="482" y="-132" font-family="Helvetica,sans-Serif" font-size="10.00">elc::defs::base::range</text>
<text text-anchor="middle" x="529" y="-121" font-family="Helvetica,sans-Serif" font-size="10.00">_n::in_range</text>
</a>
</g>
</g>
<!-- Node4&#45;&gt;Node5 -->
<g id="edge5" class="edge">
<title>Node4&#45;&gt;Node5</title>
<path fill="none" stroke="#63b8ff" d="M426.12,-129C438.22,-129 451.17,-129 463.64,-129"/>
<polygon fill="#63b8ff" stroke="#63b8ff" points="463.97,-132.5 473.97,-129 463.97,-125.5 463.97,-132.5"/>
</g>
<!-- Node5&#45;&gt;Node5 -->
<g id="edge6" class="edge">
<title>Node5&#45;&gt;Node5</title>
<path fill="none" stroke="#63b8ff" d="M501.23,-144.28C495.05,-153.41 504.31,-162 529,-162 543.66,-162 552.88,-158.97 556.66,-154.6"/>
<polygon fill="#63b8ff" stroke="#63b8ff" points="560.16,-154.31 556.77,-144.28 553.16,-154.23 560.16,-154.31"/>
</g>
<!-- Node6&#45;&gt;Node6 -->
<g id="edge9" class="edge">
<title>Node6&#45;&gt;Node6</title>
<path fill="none" stroke="#63b8ff" d="M343.23,-78.28C337.05,-87.41 346.31,-96 371,-96 385.66,-96 394.88,-92.97 398.66,-88.6"/>
<polygon fill="#63b8ff" stroke="#63b8ff" points="402.16,-88.31 398.77,-78.28 395.16,-88.23 402.16,-88.31"/>
</g>
</g>
</svg>
