<?xml version="1.0" encoding="UTF-8" standalone="no"?>
<!DOCTYPE svg PUBLIC "-//W3C//DTD SVG 1.1//EN"
 "http://www.w3.org/Graphics/SVG/1.1/DTD/svg11.dtd">
<!-- Generated by graphviz version 6.0.1 (20220911.1526)
 -->
<!-- Title: elc::defs::base::range_n::in_range_size_t Pages: 1 -->
<svg width="273pt" height="116pt"
 viewBox="0.00 0.00 273.00 115.50" xmlns="http://www.w3.org/2000/svg" xmlns:xlink="http://www.w3.org/1999/xlink">
<g id="graph0" class="graph" transform="scale(1 1) rotate(0) translate(4 111.5)">
<title>elc::defs::base::range_n::in_range_size_t</title>
<!-- Node1 -->
<g id="node1" class="node">
<title>Node1</title>
<g id="a_node1"><a xlink:title="若成功找到匹配的数据项，返回其距离开头的步数，若未找到，返回npos">
<polygon fill="#999999" stroke="#666666" points="110,-66 0,-66 0,-36 110,-36 110,-66"/>
<text text-anchor="start" x="8" y="-54" font-family="Helvetica,sans-Serif" font-size="10.00">elc::defs::base::range</text>
<text text-anchor="middle" x="55" y="-43" font-family="Helvetica,sans-Serif" font-size="10.00">_n::in_range_size_t</text>
</a>
</g>
</g>
<!-- Node1&#45;&gt;Node1 -->
<g id="edge4" class="edge">
<title>Node1&#45;&gt;Node1</title>
<path fill="none" stroke="#63b8ff" d="M28.54,-66.28C22.67,-75.41 31.48,-84 55,-84 68.96,-84 77.74,-80.97 81.34,-76.6"/>
<polygon fill="#63b8ff" stroke="#63b8ff" points="84.85,-76.31 81.46,-66.28 77.85,-76.24 84.85,-76.31"/>
</g>
<!-- Node2 -->
<g id="node2" class="node">
<title>Node2</title>
<g id="a_node2"><a xlink:href="structelc_1_1defs_1_1base_1_1array__like__n_1_1array__like__view__t.html#a613a7a28045bb8efd320108a432ad775" target="_top" xlink:title=" ">
<polygon fill="white" stroke="#666666" points="265,-107.5 146,-107.5 146,-66.5 265,-66.5 265,-107.5"/>
<text text-anchor="start" x="154" y="-95.5" font-family="Helvetica,sans-Serif" font-size="10.00">elc::defs::base::array</text>
<text text-anchor="start" x="154" y="-84.5" font-family="Helvetica,sans-Serif" font-size="10.00">_like_n::array_like_view</text>
<text text-anchor="middle" x="205.5" y="-73.5" font-family="Helvetica,sans-Serif" font-size="10.00">_t::begin</text>
</a>
</g>
</g>
<!-- Node1&#45;&gt;Node2 -->
<g id="edge1" class="edge">
<title>Node1&#45;&gt;Node2</title>
<path fill="none" stroke="#63b8ff" d="M110.03,-64.1C118.53,-66.16 127.41,-68.31 136.17,-70.44"/>
<polygon fill="#63b8ff" stroke="#63b8ff" points="135.45,-73.86 146,-72.82 137.1,-67.06 135.45,-73.86"/>
</g>
<!-- Node3 -->
<g id="node3" class="node">
<title>Node3</title>
<g id="a_node3"><a xlink:href="namespaceelc_1_1defs_1_1base_1_1range__n.html#ace6a3a9d079214ee7bcce5acbef1e07f" target="_top" xlink:title="判断一个值是否在某个范围内">
<polygon fill="white" stroke="#666666" points="260.5,-30 150.5,-30 150.5,0 260.5,0 260.5,-30"/>
<text text-anchor="start" x="158.5" y="-18" font-family="Helvetica,sans-Serif" font-size="10.00">elc::defs::base::range</text>
<text text-anchor="middle" x="205.5" y="-7" font-family="Helvetica,sans-Serif" font-size="10.00">_n::in_range</text>
</a>
</g>
</g>
<!-- Node1&#45;&gt;Node3 -->
<g id="edge2" class="edge">
<title>Node1&#45;&gt;Node3</title>
<path fill="none" stroke="#63b8ff" d="M110.03,-37.9C119.86,-35.52 130.2,-33.01 140.28,-30.57"/>
<polygon fill="#63b8ff" stroke="#63b8ff" points="141.37,-33.91 150.26,-28.15 139.72,-27.1 141.37,-33.91"/>
</g>
<!-- Node3&#45;&gt;Node3 -->
<g id="edge3" class="edge">
<title>Node3&#45;&gt;Node3</title>
<path fill="none" stroke="#63b8ff" d="M179.04,-30.28C173.17,-39.41 181.98,-48 205.5,-48 219.46,-48 228.24,-44.97 231.84,-40.6"/>
<polygon fill="#63b8ff" stroke="#63b8ff" points="235.35,-40.31 231.96,-30.28 228.35,-40.24 235.35,-40.31"/>
</g>
</g>
</svg>
