<?xml version="1.0" encoding="UTF-8" standalone="no"?>
<!DOCTYPE svg PUBLIC "-//W3C//DTD SVG 1.1//EN"
 "http://www.w3.org/Graphics/SVG/1.1/DTD/svg11.dtd">
<!-- Generated by graphviz version 6.0.1 (20220911.1526)
 -->
<!-- Title: elc::defs::base::magic_number::exp Pages: 1 -->
<svg width="419pt" height="78pt"
 viewBox="0.00 0.00 419.00 78.00" xmlns="http://www.w3.org/2000/svg" xmlns:xlink="http://www.w3.org/1999/xlink">
<g id="graph0" class="graph" transform="scale(1 1) rotate(0) translate(4 74)">
<title>elc::defs::base::magic_number::exp</title>
<!-- Node1 -->
<g id="node1" class="node">
<title>Node1</title>
<g id="a_node1"><a xlink:title=" ">
<polygon fill="#999999" stroke="#666666" points="411,-30 298,-30 298,0 411,0 411,-30"/>
<text text-anchor="start" x="306" y="-18" font-family="Helvetica,sans-Serif" font-size="10.00">elc::defs::base::magic</text>
<text text-anchor="middle" x="354.5" y="-7" font-family="Helvetica,sans-Serif" font-size="10.00">_number::exp</text>
</a>
</g>
</g>
<!-- Node1&#45;&gt;Node1 -->
<g id="edge1" class="edge">
<title>Node1&#45;&gt;Node1</title>
<path fill="none" stroke="#63b8ff" d="M380.58,-40.6C377.02,-44.97 368.32,-48 354.5,-48 331.22,-48 322.49,-39.41 328.31,-30.28"/>
<polygon fill="#63b8ff" stroke="#63b8ff" points="384.08,-40.31 380.69,-30.28 377.08,-40.24 384.08,-40.31"/>
</g>
<!-- Node2 -->
<g id="node2" class="node">
<title>Node2</title>
<g id="a_node2"><a xlink:href="namespaceelc_1_1defs_1_1base_1_1magic__number.html#a9496a23d74b600104f109a789a837bb6" target="_top" xlink:title=" ">
<polygon fill="white" stroke="#666666" points="262,-52 149,-52 149,-22 262,-22 262,-52"/>
<text text-anchor="start" x="157" y="-40" font-family="Helvetica,sans-Serif" font-size="10.00">elc::defs::base::magic</text>
<text text-anchor="middle" x="205.5" y="-29" font-family="Helvetica,sans-Serif" font-size="10.00">_number::log</text>
</a>
</g>
</g>
<!-- Node1&#45;&gt;Node2 -->
<g id="edge2" class="edge">
<title>Node1&#45;&gt;Node2</title>
<path fill="none" stroke="#63b8ff" d="M287.92,-24.81C279.32,-26.1 270.57,-27.41 262.15,-28.67"/>
<polygon fill="#63b8ff" stroke="#63b8ff" points="288.55,-28.26 297.93,-23.32 287.52,-21.34 288.55,-28.26"/>
</g>
<!-- Node3 -->
<g id="node3" class="node">
<title>Node3</title>
<g id="a_node3"><a xlink:href="namespaceelc_1_1defs_1_1base_1_1magic__number.html#a4e85faf4c3b39c3c8246f799eca1d941" target="_top" xlink:title=" ">
<polygon fill="white" stroke="#666666" points="113,-30 0,-30 0,0 113,0 113,-30"/>
<text text-anchor="start" x="8" y="-18" font-family="Helvetica,sans-Serif" font-size="10.00">elc::defs::base::magic</text>
<text text-anchor="middle" x="56.5" y="-7" font-family="Helvetica,sans-Serif" font-size="10.00">_number::pow</text>
</a>
</g>
</g>
<!-- Node1&#45;&gt;Node3 -->
<g id="edge6" class="edge">
<title>Node1&#45;&gt;Node3</title>
<path fill="none" stroke="#63b8ff" d="M287.76,-13.39C279.1,-13.23 270.34,-13.09 262,-13 211.78,-12.45 199.22,-12.45 149,-13 137.4,-13.13 124.98,-13.34 113.14,-13.59"/>
<polygon fill="#63b8ff" stroke="#63b8ff" points="287.79,-16.89 297.86,-13.59 287.93,-9.89 287.79,-16.89"/>
</g>
<!-- Node2&#45;&gt;Node2 -->
<g id="edge3" class="edge">
<title>Node2&#45;&gt;Node2</title>
<path fill="none" stroke="#63b8ff" d="M231.58,-62.6C228.02,-66.97 219.32,-70 205.5,-70 182.22,-70 173.49,-61.41 179.31,-52.28"/>
<polygon fill="#63b8ff" stroke="#63b8ff" points="235.08,-62.31 231.69,-52.28 228.08,-62.24 235.08,-62.31"/>
</g>
<!-- Node2&#45;&gt;Node3 -->
<g id="edge4" class="edge">
<title>Node2&#45;&gt;Node3</title>
<path fill="none" stroke="#63b8ff" d="M138.92,-27.19C130.32,-25.9 121.57,-24.59 113.15,-23.33"/>
<polygon fill="#63b8ff" stroke="#63b8ff" points="138.52,-30.66 148.93,-28.68 139.55,-23.74 138.52,-30.66"/>
</g>
<!-- Node3&#45;&gt;Node3 -->
<g id="edge5" class="edge">
<title>Node3&#45;&gt;Node3</title>
<path fill="none" stroke="#63b8ff" d="M82.58,-40.6C79.02,-44.97 70.32,-48 56.5,-48 33.22,-48 24.49,-39.41 30.31,-30.28"/>
<polygon fill="#63b8ff" stroke="#63b8ff" points="86.08,-40.31 82.69,-30.28 79.08,-40.24 86.08,-40.31"/>
</g>
</g>
</svg>
