<?xml version="1.0" encoding="UTF-8" standalone="no"?>
<!DOCTYPE svg PUBLIC "-//W3C//DTD SVG 1.1//EN"
 "http://www.w3.org/Graphics/SVG/1.1/DTD/svg11.dtd">
<!-- Generated by graphviz version 6.0.1 (20220911.1526)
 -->
<!-- Title: elc::defs::base::operator== Pages: 1 -->
<svg width="322pt" height="278pt"
 viewBox="0.00 0.00 322.00 278.00" xmlns="http://www.w3.org/2000/svg" xmlns:xlink="http://www.w3.org/1999/xlink">
<g id="graph0" class="graph" transform="scale(1 1) rotate(0) translate(4 274)">
<title>elc::defs::base::operator==</title>
<!-- Node1 -->
<g id="node1" class="node">
<title>Node1</title>
<g id="a_node1"><a xlink:title=" ">
<polygon fill="#999999" stroke="#666666" points="314,-144.5 180,-144.5 180,-125.5 314,-125.5 314,-144.5"/>
<text text-anchor="middle" x="247" y="-132.5" font-family="Helvetica,sans-Serif" font-size="10.00">elc::defs::base::operator==</text>
</a>
</g>
</g>
<!-- Node2 -->
<g id="node2" class="node">
<title>Node2</title>
<g id="a_node2"><a xlink:href="structelc_1_1defs_1_1core_1_1value.html#a2eacec3d36abbebbb3ff2e2f1e25478a" target="_top" xlink:title=" ">
<polygon fill="white" stroke="#666666" points="125,-270 19,-270 19,-240 125,-240 125,-270"/>
<text text-anchor="start" x="27" y="-258" font-family="Helvetica,sans-Serif" font-size="10.00">elc::defs::core::value</text>
<text text-anchor="middle" x="72" y="-247" font-family="Helvetica,sans-Serif" font-size="10.00">::operator!=</text>
</a>
</g>
</g>
<!-- Node1&#45;&gt;Node2 -->
<g id="edge1" class="edge">
<title>Node1&#45;&gt;Node2</title>
<path fill="none" stroke="#63b8ff" d="M231.65,-152.5C213.34,-173.8 179.74,-209.55 144,-231 138.2,-234.48 131.82,-237.54 125.35,-240.2"/>
<polygon fill="#63b8ff" stroke="#63b8ff" points="234.54,-154.5 238.31,-144.6 229.19,-149.99 234.54,-154.5"/>
</g>
<!-- Node3 -->
<g id="node3" class="node">
<title>Node3</title>
<g id="a_node3"><a xlink:href="structelc_1_1defs_1_1string__n_1_1string__t.html#af8b8753d200c3990d5301b8773318809" target="_top" xlink:title=" ">
<polygon fill="white" stroke="#666666" points="126,-222 18,-222 18,-192 126,-192 126,-222"/>
<text text-anchor="start" x="26" y="-210" font-family="Helvetica,sans-Serif" font-size="10.00">elc::defs::string_n</text>
<text text-anchor="middle" x="72" y="-199" font-family="Helvetica,sans-Serif" font-size="10.00">::string_t::operator==</text>
</a>
</g>
</g>
<!-- Node1&#45;&gt;Node3 -->
<g id="edge2" class="edge">
<title>Node1&#45;&gt;Node3</title>
<path fill="none" stroke="#63b8ff" d="M218.12,-149.18C197.83,-159.23 169.55,-172.71 144,-183 136.4,-186.06 128.24,-189.07 120.25,-191.87"/>
<polygon fill="#63b8ff" stroke="#63b8ff" points="219.73,-152.28 227.11,-144.68 216.6,-146.02 219.73,-152.28"/>
</g>
<!-- Node4 -->
<g id="node4" class="node">
<title>Node4</title>
<g id="a_node4"><a xlink:href="namespaceelc_1_1defs_1_1memory_1_1ptr__n.html#aca158ce27f5c296609163cb69650d6be" target="_top" xlink:title=" ">
<polygon fill="white" stroke="#666666" points="122.5,-174 21.5,-174 21.5,-144 122.5,-144 122.5,-174"/>
<text text-anchor="start" x="29.5" y="-162" font-family="Helvetica,sans-Serif" font-size="10.00">elc::defs::memory::</text>
<text text-anchor="middle" x="72" y="-151" font-family="Helvetica,sans-Serif" font-size="10.00">ptr_n::operator==</text>
</a>
</g>
</g>
<!-- Node1&#45;&gt;Node4 -->
<g id="edge3" class="edge">
<title>Node1&#45;&gt;Node4</title>
<path fill="none" stroke="#63b8ff" d="M169.28,-145.64C153.42,-147.84 137.13,-150.1 122.55,-152.13"/>
<polygon fill="#63b8ff" stroke="#63b8ff" points="170.18,-149.05 179.61,-144.21 169.22,-142.12 170.18,-149.05"/>
</g>
<!-- Node5 -->
<g id="node5" class="node">
<title>Node5</title>
<g id="a_node5"><a xlink:href="classelc_1_1defs_1_1container_1_1array__n_1_1array__t.html#a6ac19d226a7f91186fa7ddca6d193f64" target="_top" xlink:title=" ">
<polygon fill="white" stroke="#666666" points="144,-126 0,-126 0,-96 144,-96 144,-126"/>
<text text-anchor="start" x="8" y="-114" font-family="Helvetica,sans-Serif" font-size="10.00">elc::defs::container</text>
<text text-anchor="middle" x="72" y="-103" font-family="Helvetica,sans-Serif" font-size="10.00">::array_n::array_t::operator==</text>
</a>
</g>
</g>
<!-- Node1&#45;&gt;Node5 -->
<g id="edge4" class="edge">
<title>Node1&#45;&gt;Node5</title>
<path fill="none" stroke="#63b8ff" d="M169.7,-124.41C161.19,-123.23 152.54,-122.03 144.1,-120.86"/>
<polygon fill="#63b8ff" stroke="#63b8ff" points="169.22,-127.88 179.61,-125.79 170.18,-120.95 169.22,-127.88"/>
</g>
<!-- Node6 -->
<g id="node6" class="node">
<title>Node6</title>
<g id="a_node6"><a xlink:href="structelc_1_1defs_1_1memory_1_1ptr__n_1_1ptr__t.html#a107711e64a56c4d1a467e0cdaf0a33f6" target="_top" xlink:title=" ">
<polygon fill="white" stroke="#666666" points="130.5,-78 13.5,-78 13.5,-48 130.5,-48 130.5,-78"/>
<text text-anchor="start" x="21.5" y="-66" font-family="Helvetica,sans-Serif" font-size="10.00">elc::defs::memory::</text>
<text text-anchor="middle" x="72" y="-55" font-family="Helvetica,sans-Serif" font-size="10.00">ptr_n::ptr_t::operator==</text>
</a>
</g>
</g>
<!-- Node1&#45;&gt;Node6 -->
<g id="edge5" class="edge">
<title>Node1&#45;&gt;Node6</title>
<path fill="none" stroke="#63b8ff" d="M218.12,-120.82C197.83,-110.77 169.55,-97.29 144,-87 136.4,-83.94 128.24,-80.93 120.25,-78.13"/>
<polygon fill="#63b8ff" stroke="#63b8ff" points="216.6,-123.98 227.11,-125.32 219.73,-117.72 216.6,-123.98"/>
</g>
<!-- Node7 -->
<g id="node7" class="node">
<title>Node7</title>
<g id="a_node7"><a xlink:href="namespaceelc_1_1defs_1_1base_1_1null__ptr__n.html#a5966ce50f783e773a2ccdad08c984d64" target="_top" xlink:title=" ">
<polygon fill="white" stroke="#666666" points="122.5,-30 21.5,-30 21.5,0 122.5,0 122.5,-30"/>
<text text-anchor="start" x="29.5" y="-18" font-family="Helvetica,sans-Serif" font-size="10.00">elc::defs::base::null</text>
<text text-anchor="middle" x="72" y="-7" font-family="Helvetica,sans-Serif" font-size="10.00">_ptr_n::operator==</text>
</a>
</g>
</g>
<!-- Node1&#45;&gt;Node7 -->
<g id="edge6" class="edge">
<title>Node1&#45;&gt;Node7</title>
<path fill="none" stroke="#63b8ff" d="M231.65,-117.5C213.34,-96.2 179.74,-60.45 144,-39 137.42,-35.05 130.1,-31.65 122.73,-28.75"/>
<polygon fill="#63b8ff" stroke="#63b8ff" points="229.19,-120.01 238.31,-125.4 234.54,-115.5 229.19,-120.01"/>
</g>
</g>
</svg>
