<?xml version="1.0" encoding="UTF-8" standalone="no"?>
<!DOCTYPE svg PUBLIC "-//W3C//DTD SVG 1.1//EN"
 "http://www.w3.org/Graphics/SVG/1.1/DTD/svg11.dtd">
<!-- Generated by graphviz version 6.0.1 (20220911.1526)
 -->
<!-- Title: elc::defs::core::as_value Pages: 1 -->
<svg width="279pt" height="242pt"
 viewBox="0.00 0.00 279.00 242.00" xmlns="http://www.w3.org/2000/svg" xmlns:xlink="http://www.w3.org/1999/xlink">
<g id="graph0" class="graph" transform="scale(1 1) rotate(0) translate(4 238)">
<title>elc::defs::core::as_value</title>
<!-- Node1 -->
<g id="node1" class="node">
<title>Node1</title>
<g id="a_node1"><a xlink:title=" ">
<polygon fill="#999999" stroke="#666666" points="271,-126 176,-126 176,-96 271,-96 271,-126"/>
<text text-anchor="start" x="184" y="-114" font-family="Helvetica,sans-Serif" font-size="10.00">elc::defs::core::as</text>
<text text-anchor="middle" x="223.5" y="-103" font-family="Helvetica,sans-Serif" font-size="10.00">_value</text>
</a>
</g>
</g>
<!-- Node1&#45;&gt;Node1 -->
<g id="edge2" class="edge">
<title>Node1&#45;&gt;Node1</title>
<path fill="none" stroke="#63b8ff" d="M250.37,-136.6C246.7,-140.97 237.74,-144 223.5,-144 199.52,-144 190.52,-135.41 196.52,-126.28"/>
<polygon fill="#63b8ff" stroke="#63b8ff" points="253.87,-136.31 250.48,-126.28 246.87,-136.24 253.87,-136.31"/>
</g>
<!-- Node2 -->
<g id="node2" class="node">
<title>Node2</title>
<g id="a_node2"><a xlink:href="structelc_1_1defs_1_1core_1_1binary__node__t.html#a249a14c4c4716c24c985ed2b40cfdf9b" target="_top" xlink:title=" ">
<polygon fill="white" stroke="#666666" points="125,-234 15,-234 15,-204 125,-204 125,-234"/>
<text text-anchor="start" x="23" y="-222" font-family="Helvetica,sans-Serif" font-size="10.00">elc::defs::core::binary</text>
<text text-anchor="middle" x="70" y="-211" font-family="Helvetica,sans-Serif" font-size="10.00">_node_t::arec</text>
</a>
</g>
</g>
<!-- Node1&#45;&gt;Node2 -->
<g id="edge1" class="edge">
<title>Node1&#45;&gt;Node2</title>
<path fill="none" stroke="#63b8ff" d="M204.84,-134.16C189.51,-152.87 165.76,-178.69 140,-195 134.64,-198.39 128.75,-201.38 122.72,-203.98"/>
<polygon fill="#63b8ff" stroke="#63b8ff" points="207.76,-136.12 211.28,-126.12 202.29,-131.74 207.76,-136.12"/>
</g>
<!-- Node3 -->
<g id="node3" class="node">
<title>Node3</title>
<g id="a_node3"><a xlink:href="structelc_1_1defs_1_1core_1_1base__binary__function__node.html#a11a9bdffc6908db03801f288c0ce9cd6" target="_top" xlink:title=" ">
<polygon fill="white" stroke="#666666" points="140,-185.5 0,-185.5 0,-144.5 140,-144.5 140,-185.5"/>
<text text-anchor="start" x="8" y="-173.5" font-family="Helvetica,sans-Serif" font-size="10.00">elc::defs::core::base</text>
<text text-anchor="start" x="8" y="-162.5" font-family="Helvetica,sans-Serif" font-size="10.00">_binary_function_node</text>
<text text-anchor="middle" x="70" y="-151.5" font-family="Helvetica,sans-Serif" font-size="10.00">::base_binary_function_node</text>
</a>
</g>
</g>
<!-- Node1&#45;&gt;Node3 -->
<g id="edge3" class="edge">
<title>Node1&#45;&gt;Node3</title>
<path fill="none" stroke="#63b8ff" d="M170.65,-129.48C157.09,-134.32 142.39,-139.56 128.54,-144.49"/>
<polygon fill="#63b8ff" stroke="#63b8ff" points="172.05,-132.7 180.3,-126.04 169.7,-126.1 172.05,-132.7"/>
</g>
<!-- Node4 -->
<g id="node4" class="node">
<title>Node4</title>
<g id="a_node4"><a xlink:href="structelc_1_1defs_1_1core_1_1cons.html#aa70134fa35de863a301a729f5797f408" target="_top" xlink:title=" ">
<polygon fill="white" stroke="#666666" points="122.5,-126 17.5,-126 17.5,-96 122.5,-96 122.5,-126"/>
<text text-anchor="start" x="25.5" y="-114" font-family="Helvetica,sans-Serif" font-size="10.00">elc::defs::core::cons</text>
<text text-anchor="middle" x="70" y="-103" font-family="Helvetica,sans-Serif" font-size="10.00">::clear</text>
</a>
</g>
</g>
<!-- Node1&#45;&gt;Node4 -->
<g id="edge4" class="edge">
<title>Node1&#45;&gt;Node4</title>
<path fill="none" stroke="#63b8ff" d="M165.7,-111C151.54,-111 136.44,-111 122.55,-111"/>
<polygon fill="#63b8ff" stroke="#63b8ff" points="165.81,-114.5 175.81,-111 165.81,-107.5 165.81,-114.5"/>
</g>
<!-- Node5 -->
<g id="node5" class="node">
<title>Node5</title>
<g id="a_node5"><a xlink:href="structelc_1_1defs_1_1core_1_1value.html#a862dce2e7635966403ec14a8e773ea32" target="_top" xlink:title=" ">
<polygon fill="white" stroke="#666666" points="123,-78 17,-78 17,-48 123,-48 123,-78"/>
<text text-anchor="start" x="25" y="-66" font-family="Helvetica,sans-Serif" font-size="10.00">elc::defs::core::value</text>
<text text-anchor="middle" x="70" y="-55" font-family="Helvetica,sans-Serif" font-size="10.00">::operator==</text>
</a>
</g>
</g>
<!-- Node1&#45;&gt;Node5 -->
<g id="edge5" class="edge">
<title>Node1&#45;&gt;Node5</title>
<path fill="none" stroke="#63b8ff" d="M166.23,-93.17C150.56,-88.21 133.7,-82.87 118.58,-78.08"/>
<polygon fill="#63b8ff" stroke="#63b8ff" points="165.22,-96.52 175.81,-96.21 167.33,-89.85 165.22,-96.52"/>
</g>
<!-- Node6 -->
<g id="node6" class="node">
<title>Node6</title>
<g id="a_node6"><a xlink:href="structelc_1_1defs_1_1core_1_1node__like.html#ab2028a957d17acd29a8e432a0c1ac767" target="_top" xlink:title=" ">
<polygon fill="white" stroke="#666666" points="122.5,-30 17.5,-30 17.5,0 122.5,0 122.5,-30"/>
<text text-anchor="start" x="25.5" y="-18" font-family="Helvetica,sans-Serif" font-size="10.00">elc::defs::core::node</text>
<text text-anchor="middle" x="70" y="-7" font-family="Helvetica,sans-Serif" font-size="10.00">_like::operator[]</text>
</a>
</g>
</g>
<!-- Node1&#45;&gt;Node6 -->
<g id="edge6" class="edge">
<title>Node1&#45;&gt;Node6</title>
<path fill="none" stroke="#63b8ff" d="M201.52,-88.59C185.83,-72.92 163.17,-52.46 140,-39 134.3,-35.69 128.06,-32.73 121.75,-30.12"/>
<polygon fill="#63b8ff" stroke="#63b8ff" points="199.14,-91.16 208.64,-95.85 204.14,-86.26 199.14,-91.16"/>
</g>
</g>
</svg>
