<?xml version="1.0" encoding="UTF-8" standalone="no"?>
<!DOCTYPE svg PUBLIC "-//W3C//DTD SVG 1.1//EN"
 "http://www.w3.org/Graphics/SVG/1.1/DTD/svg11.dtd">
<!-- Generated by graphviz version 6.0.1 (20220911.1526)
 -->
<!-- Title: elc::defs::memory::alloc_n::default_method::alloc_method Pages: 1 -->
<!--zoomable 86 -->
<svg id="main" version="1.1" xmlns="http://www.w3.org/2000/svg" xmlns:xlink="http://www.w3.org/1999/xlink" xml:space="preserve" onload="init(evt)">
<style type="text/css"><![CDATA[
.edge:hover path { stroke: red; }
.edge:hover polygon { stroke: red; fill: red; }
]]></style>
<script type="text/javascript"><![CDATA[
var edges = document.getElementsByTagName('g');
if (edges && edges.length) {
  for (var i=0;i<edges.length;i++) {
    if (edges[i].id.substr(0,4)=='edge') {
      edges[i].setAttribute('class','edge');
    }
  }
}
]]></script>
        <defs>
                <circle id="rim" cx="0" cy="0" r="7"/>
                <circle id="rim2" cx="0" cy="0" r="3.5"/>
                <g id="zoomPlus">
                        <use xlink:href="#rim" fill="#404040">
                                <set attributeName="fill" to="#808080" begin="zoomplus.mouseover" end="zoomplus.mouseout"/>
                        </use>
                        <path d="M-4,0h8M0,-4v8" fill="none" stroke="white" stroke-width="1.5" pointer-events="none"/>
                </g>
                <g id="zoomMin">
                        <use xlink:href="#rim" fill="#404040">
                                <set attributeName="fill" to="#808080" begin="zoomminus.mouseover" end="zoomminus.mouseout"/>
                        </use>
                        <path d="M-4,0h8" fill="none" stroke="white" stroke-width="1.5" pointer-events="none"/>
                </g>
                <g id="dirArrow">
                        <path fill="none" stroke="white" stroke-width="1.5" d="M0,-3.0v7 M-2.5,-0.5L0,-3.0L2.5,-0.5"/>
                </g>
               <g id="resetDef">
                       <use xlink:href="#rim2" fill="#404040">
                               <set attributeName="fill" to="#808080" begin="reset.mouseover" end="reset.mouseout"/>
                       </use>
               </g>
        </defs>

<script type="text/javascript">
var viewWidth = 591;
var viewHeight = 86;
var sectionId = 'dynsection-0';
</script>
<script xlink:href="svgpan.js"/>
<svg id="graph" class="graph">
<g id="viewport">
<title>elc::defs::memory::alloc_n::default_method::alloc_method</title>
<!-- Node1 -->
<g id="node1" class="node">
<title>Node1</title>
<g id="a_node1"><a xlink:title=" ">
<polygon fill="#999999" stroke="#666666" points="119,-59.5 0,-59.5 0,-18.5 119,-18.5 119,-59.5"/>
<text text-anchor="start" x="8" y="-47.5" font-family="Helvetica,sans-Serif" font-size="10.00">elc::defs::memory::</text>
<text text-anchor="start" x="8" y="-36.5" font-family="Helvetica,sans-Serif" font-size="10.00">alloc_n::default_method</text>
<text text-anchor="middle" x="59.5" y="-25.5" font-family="Helvetica,sans-Serif" font-size="10.00">::alloc_method</text>
</a>
</g>
</g>
<!-- Node1&#45;&gt;Node1 -->
<g id="edge1" class="edge">
<title>Node1&#45;&gt;Node1</title>
<path fill="none" stroke="#63b8ff" d="M31.01,-59.6C27.9,-69.15 37.4,-77.5 59.5,-77.5 73.31,-77.5 82.2,-74.24 86.17,-69.46"/>
<polygon fill="#63b8ff" stroke="#63b8ff" points="89.61,-70.07 87.99,-59.6 82.73,-68.8 89.61,-70.07"/>
</g>
<!-- Node2 -->
<g id="node2" class="node">
<title>Node2</title>
<g id="a_node2"><a xlink:href="namespaceelc_1_1defs_1_1memory_1_1alloc__n_1_1default__method.html#a78a0fa1d20f89ed4b04c66ea762e9051" target="_top" xlink:title="Allocates aligned memory.">
<polygon fill="white" stroke="#666666" points="274,-59.5 155,-59.5 155,-18.5 274,-18.5 274,-59.5"/>
<text text-anchor="start" x="163" y="-47.5" font-family="Helvetica,sans-Serif" font-size="10.00">elc::defs::memory::</text>
<text text-anchor="start" x="163" y="-36.5" font-family="Helvetica,sans-Serif" font-size="10.00">alloc_n::default_method</text>
<text text-anchor="middle" x="214.5" y="-25.5" font-family="Helvetica,sans-Serif" font-size="10.00">::base_aligned_alloc</text>
</a>
</g>
</g>
<!-- Node1&#45;&gt;Node2 -->
<g id="edge2" class="edge">
<title>Node1&#45;&gt;Node2</title>
<path fill="none" stroke="#63b8ff" d="M119.22,-39C127.54,-39 136.17,-39 144.67,-39"/>
<polygon fill="#63b8ff" stroke="#63b8ff" points="144.94,-42.5 154.94,-39 144.94,-35.5 144.94,-42.5"/>
</g>
<!-- Node2&#45;&gt;Node2 -->
<g id="edge7" class="edge">
<title>Node2&#45;&gt;Node2</title>
<path fill="none" stroke="#63b8ff" d="M186.01,-59.6C182.9,-69.15 192.4,-77.5 214.5,-77.5 228.31,-77.5 237.2,-74.24 241.17,-69.46"/>
<polygon fill="#63b8ff" stroke="#63b8ff" points="244.61,-70.07 242.99,-59.6 237.73,-68.8 244.61,-70.07"/>
</g>
<!-- Node3 -->
<g id="node3" class="node">
<title>Node3</title>
<g id="a_node3"><a xlink:href="namespaceelc_1_1_a_p_is_1_1alloc.html#af1389f594af5ccc37accd580df042dd3" target="_top" xlink:title=" ">
<polygon fill="white" stroke="#666666" points="429,-54 310,-54 310,-24 429,-24 429,-54"/>
<text text-anchor="start" x="318" y="-42" font-family="Helvetica,sans-Serif" font-size="10.00">elc::APIs::alloc::aligned</text>
<text text-anchor="middle" x="369.5" y="-31" font-family="Helvetica,sans-Serif" font-size="10.00">_alloc</text>
</a>
</g>
</g>
<!-- Node2&#45;&gt;Node3 -->
<g id="edge3" class="edge">
<title>Node2&#45;&gt;Node3</title>
<path fill="none" stroke="#63b8ff" d="M274.22,-39C282.54,-39 291.17,-39 299.67,-39"/>
<polygon fill="#63b8ff" stroke="#63b8ff" points="299.94,-42.5 309.94,-39 299.94,-35.5 299.94,-42.5"/>
</g>
<!-- Node3&#45;&gt;Node3 -->
<g id="edge4" class="edge">
<title>Node3&#45;&gt;Node3</title>
<path fill="none" stroke="#63b8ff" d="M342.34,-54.28C336.31,-63.41 345.36,-72 369.5,-72 383.83,-72 392.85,-68.97 396.54,-64.6"/>
<polygon fill="#63b8ff" stroke="#63b8ff" points="400.05,-64.31 396.66,-54.28 393.05,-64.24 400.05,-64.31"/>
</g>
<!-- Node4 -->
<g id="node4" class="node">
<title>Node4</title>
<g id="a_node4"><a xlink:href="structelc_1_1_a_p_is_1_1alloc_1_1source__location__info__t.html#a14576ef17c256c280d8fd991d99114df" target="_top" xlink:title=" ">
<polygon fill="white" stroke="#666666" points="583,-78 465,-78 465,-48 583,-48 583,-78"/>
<text text-anchor="start" x="473" y="-66" font-family="Helvetica,sans-Serif" font-size="10.00">elc::APIs::alloc::source</text>
<text text-anchor="middle" x="524" y="-55" font-family="Helvetica,sans-Serif" font-size="10.00">_location_info_t::file</text>
</a>
</g>
</g>
<!-- Node3&#45;&gt;Node4 -->
<g id="edge5" class="edge">
<title>Node3&#45;&gt;Node4</title>
<path fill="none" stroke="#63b8ff" d="M429.02,-48.21C437.48,-49.54 446.24,-50.92 454.86,-52.28"/>
<polygon fill="#63b8ff" stroke="#63b8ff" points="454.46,-55.76 464.88,-53.85 455.55,-48.84 454.46,-55.76"/>
</g>
<!-- Node5 -->
<g id="node5" class="node">
<title>Node5</title>
<g id="a_node5"><a xlink:href="structelc_1_1_a_p_is_1_1alloc_1_1source__location__info__t.html#aa7ac39eab58162d605f8435d2cdc8d40" target="_top" xlink:title=" ">
<polygon fill="white" stroke="#666666" points="583,-30 465,-30 465,0 583,0 583,-30"/>
<text text-anchor="start" x="473" y="-18" font-family="Helvetica,sans-Serif" font-size="10.00">elc::APIs::alloc::source</text>
<text text-anchor="middle" x="524" y="-7" font-family="Helvetica,sans-Serif" font-size="10.00">_location_info_t::line</text>
</a>
</g>
</g>
<!-- Node3&#45;&gt;Node5 -->
<g id="edge6" class="edge">
<title>Node3&#45;&gt;Node5</title>
<path fill="none" stroke="#63b8ff" d="M429.02,-29.79C437.48,-28.46 446.24,-27.08 454.86,-25.72"/>
<polygon fill="#63b8ff" stroke="#63b8ff" points="455.55,-29.16 464.88,-24.15 454.46,-22.24 455.55,-29.16"/>
</g>
</g>
</svg>
        <g id="navigator" transform="translate(0 0)" fill="#404254">
                <rect fill="#f2f5e9" fill-opacity="0.5" stroke="#606060" stroke-width=".5" x="0" y="0" width="60" height="60"/>
                <use id="zoomplus" xlink:href="#zoomPlus" x="17" y="9" onmousedown="handleZoom(evt,'in')"/>
                <use id="zoomminus" xlink:href="#zoomMin" x="42" y="9" onmousedown="handleZoom(evt,'out')"/>
                <use id="reset" xlink:href="#resetDef" x="30" y="36" onmousedown="handleReset()"/>
                <g id="arrowUp" xlink:href="#dirArrow" transform="translate(30 24)" onmousedown="handlePan(0,-1)">
                  <use xlink:href="#rim" fill="#404040">
                        <set attributeName="fill" to="#808080" begin="arrowUp.mouseover" end="arrowUp.mouseout"/>
                  </use>
                  <path fill="none" stroke="white" stroke-width="1.5" d="M0,-3.0v7 M-2.5,-0.5L0,-3.0L2.5,-0.5"/>
                </g>
                <g id="arrowRight" xlink:href="#dirArrow" transform="rotate(90) translate(36 -43)" onmousedown="handlePan(1,0)">
                  <use xlink:href="#rim" fill="#404040">
                        <set attributeName="fill" to="#808080" begin="arrowRight.mouseover" end="arrowRight.mouseout"/>
                  </use>
                  <path fill="none" stroke="white" stroke-width="1.5" d="M0,-3.0v7 M-2.5,-0.5L0,-3.0L2.5,-0.5"/>
                </g>
                <g id="arrowDown" xlink:href="#dirArrow" transform="rotate(180) translate(-30 -48)" onmousedown="handlePan(0,1)">
                  <use xlink:href="#rim" fill="#404040">
                        <set attributeName="fill" to="#808080" begin="arrowDown.mouseover" end="arrowDown.mouseout"/>
                  </use>
                  <path fill="none" stroke="white" stroke-width="1.5" d="M0,-3.0v7 M-2.5,-0.5L0,-3.0L2.5,-0.5"/>
                </g>
                <g id="arrowLeft" xlink:href="#dirArrow" transform="rotate(270) translate(-36 17)" onmousedown="handlePan(-1,0)">
                  <use xlink:href="#rim" fill="#404040">
                        <set attributeName="fill" to="#808080" begin="arrowLeft.mouseover" end="arrowLeft.mouseout"/>
                  </use>
                  <path fill="none" stroke="white" stroke-width="1.5" d="M0,-3.0v7 M-2.5,-0.5L0,-3.0L2.5,-0.5"/>
                </g>
        </g>
        <svg viewBox="0 0 15 15" width="100%" height="30px" preserveAspectRatio="xMaxYMin meet">
         <g id="arrow_out" transform="scale(0.3 0.3)">
          <a xlink:href="namespaceelc_1_1defs_1_1memory_1_1alloc__n_1_1default__method_a0304b5366d9907f769dac7e6dac8cd42_cgraph_org.svg" target="_base">
           <rect id="button" ry="5" rx="5" y="6" x="6" height="38" width="38"
                fill="#f2f5e9" fill-opacity="0.5" stroke="#606060" stroke-width="1.0"/>
           <path id="arrow"
             d="M 11.500037,31.436501 C 11.940474,20.09759 22.043105,11.32322 32.158766,21.979434 L 37.068811,17.246167 C 37.068811,17.246167 37.088388,32 37.088388,32 L 22.160133,31.978069 C 22.160133,31.978069 26.997745,27.140456 26.997745,27.140456 C 18.528582,18.264221 13.291696,25.230495 11.500037,31.436501 z"
             style="fill:#404040;"/>
          </a>
         </g>
        </svg>
</svg>
