<?xml version="1.0" encoding="UTF-8" standalone="no"?>
<!DOCTYPE svg PUBLIC "-//W3C//DTD SVG 1.1//EN"
 "http://www.w3.org/Graphics/SVG/1.1/DTD/svg11.dtd">
<!-- Generated by graphviz version 6.0.1 (20220911.1526)
 -->
<!-- Title: elc::APIs::die::die Pages: 1 -->
<svg width="428pt" height="108pt"
 viewBox="0.00 0.00 428.00 108.00" xmlns="http://www.w3.org/2000/svg" xmlns:xlink="http://www.w3.org/1999/xlink">
<g id="graph0" class="graph" transform="scale(1 1) rotate(0) translate(4 104)">
<title>elc::APIs::die::die</title>
<!-- Node1 -->
<g id="node1" class="node">
<title>Node1</title>
<g id="a_node1"><a xlink:title="终止整个程序并可能的触发断点或输出错误信息">
<polygon fill="#999999" stroke="#666666" points="420,-64.5 326,-64.5 326,-45.5 420,-45.5 420,-64.5"/>
<text text-anchor="middle" x="373" y="-52.5" font-family="Helvetica,sans-Serif" font-size="10.00">elc::APIs::die::die</text>
</a>
</g>
</g>
<!-- Node1&#45;&gt;Node1 -->
<g id="edge1" class="edge">
<title>Node1&#45;&gt;Node1</title>
<path fill="none" stroke="#63b8ff" d="M399.23,-73.69C397.8,-78.7 389.05,-82.5 373,-82.5 347.94,-82.5 340.7,-73.23 351.27,-64.58"/>
<polygon fill="#63b8ff" stroke="#63b8ff" points="402.3,-72 394.73,-64.58 396.02,-75.1 402.3,-72"/>
</g>
<!-- Node2 -->
<g id="node2" class="node">
<title>Node2</title>
<g id="a_node2"><a xlink:href="namespaceelc_1_1_a_p_is_1_1die.html#a28cf7600d7c7ef256be89d56df83e293" target="_top" xlink:title="同 die ，但是有详细的错误信息">
<polygon fill="white" stroke="#666666" points="290,-64.5 174,-64.5 174,-45.5 290,-45.5 290,-64.5"/>
<text text-anchor="middle" x="232" y="-52.5" font-family="Helvetica,sans-Serif" font-size="10.00">elc::APIs::die::die_with</text>
</a>
</g>
</g>
<!-- Node1&#45;&gt;Node2 -->
<g id="edge2" class="edge">
<title>Node1&#45;&gt;Node2</title>
<path fill="none" stroke="#63b8ff" d="M315.65,-55C307.27,-55 298.62,-55 290.21,-55"/>
<polygon fill="#63b8ff" stroke="#63b8ff" points="315.72,-58.5 325.72,-55 315.71,-51.5 315.72,-58.5"/>
</g>
<!-- Node2&#45;&gt;Node2 -->
<g id="edge3" class="edge">
<title>Node2&#45;&gt;Node2</title>
<path fill="none" stroke="#63b8ff" d="M258.23,-73.69C256.8,-78.7 248.05,-82.5 232,-82.5 206.94,-82.5 199.7,-73.23 210.27,-64.58"/>
<polygon fill="#63b8ff" stroke="#63b8ff" points="261.3,-72 253.73,-64.58 255.02,-75.1 261.3,-72"/>
</g>
<!-- Node3 -->
<g id="node3" class="node">
<title>Node3</title>
<g id="a_node3"><a xlink:href="classelc_1_1defs_1_1memory_1_1gc__n_1_1gc__t.html#a44bd3718534432f70ee2cf4741fa8a74" target="_top" xlink:title=" ">
<polygon fill="white" stroke="#666666" points="124,-100 14,-100 14,-70 124,-70 124,-100"/>
<text text-anchor="start" x="22" y="-88" font-family="Helvetica,sans-Serif" font-size="10.00">elc::defs::memory::</text>
<text text-anchor="middle" x="69" y="-77" font-family="Helvetica,sans-Serif" font-size="10.00">gc_n::gc_t::operator()</text>
</a>
</g>
</g>
<!-- Node2&#45;&gt;Node3 -->
<g id="edge4" class="edge">
<title>Node2&#45;&gt;Node3</title>
<path fill="none" stroke="#63b8ff" d="M169.48,-66.46C154.58,-69.24 138.76,-72.19 124.23,-74.9"/>
<polygon fill="#63b8ff" stroke="#63b8ff" points="170.43,-69.85 179.62,-64.57 169.14,-62.97 170.43,-69.85"/>
</g>
<!-- Node4 -->
<g id="node4" class="node">
<title>Node4</title>
<g id="a_node4"><a xlink:href="structelc_1_1defs_1_1package__symbol__loader__n_1_1package__symbol__loader__t.html#a5d89b7d12280fe2dfb6b892fb7d1cff0" target="_top" xlink:title=" ">
<polygon fill="white" stroke="#666666" points="138,-52 0,-52 0,0 138,0 138,-52"/>
<text text-anchor="start" x="8" y="-40" font-family="Helvetica,sans-Serif" font-size="10.00">elc::defs::package</text>
<text text-anchor="start" x="8" y="-29" font-family="Helvetica,sans-Serif" font-size="10.00">_symbol_loader_n::package</text>
<text text-anchor="start" x="8" y="-18" font-family="Helvetica,sans-Serif" font-size="10.00">_symbol_loader_t::package</text>
<text text-anchor="middle" x="69" y="-7" font-family="Helvetica,sans-Serif" font-size="10.00">_symbol_loader_t</text>
</a>
</g>
</g>
<!-- Node2&#45;&gt;Node4 -->
<g id="edge5" class="edge">
<title>Node2&#45;&gt;Node4</title>
<path fill="none" stroke="#63b8ff" d="M167.81,-43.62C158.04,-41.86 147.91,-40.03 138.04,-38.26"/>
<polygon fill="#63b8ff" stroke="#63b8ff" points="167.37,-47.1 177.84,-45.42 168.62,-40.21 167.37,-47.1"/>
</g>
</g>
</svg>
