<?xml version="1.0" encoding="UTF-8" standalone="no"?>
<!DOCTYPE svg PUBLIC "-//W3C//DTD SVG 1.1//EN"
 "http://www.w3.org/Graphics/SVG/1.1/DTD/svg11.dtd">
<!-- Generated by graphviz version 6.0.1 (20220911.1526)
 -->
<!-- Title: elc::paths::defs::file_exists Pages: 1 -->
<svg width="256pt" height="56pt"
 viewBox="0.00 0.00 256.00 56.00" xmlns="http://www.w3.org/2000/svg" xmlns:xlink="http://www.w3.org/1999/xlink">
<g id="graph0" class="graph" transform="scale(1 1) rotate(0) translate(4 52)">
<title>elc::paths::defs::file_exists</title>
<!-- Node1 -->
<g id="node1" class="node">
<title>Node1</title>
<g id="a_node1"><a xlink:title=" ">
<polygon fill="#999999" stroke="#666666" points="248,-30 147,-30 147,0 248,0 248,-30"/>
<text text-anchor="start" x="155" y="-18" font-family="Helvetica,sans-Serif" font-size="10.00">elc::paths::defs::file</text>
<text text-anchor="middle" x="197.5" y="-7" font-family="Helvetica,sans-Serif" font-size="10.00">_exists</text>
</a>
</g>
</g>
<!-- Node1&#45;&gt;Node1 -->
<g id="edge1" class="edge">
<title>Node1&#45;&gt;Node1</title>
<path fill="none" stroke="#63b8ff" d="M222.36,-40.6C218.96,-44.97 210.67,-48 197.5,-48 175.31,-48 166.99,-39.41 172.54,-30.28"/>
<polygon fill="#63b8ff" stroke="#63b8ff" points="225.86,-40.31 222.46,-30.28 218.86,-40.24 225.86,-40.31"/>
</g>
<!-- Node2 -->
<g id="node2" class="node">
<title>Node2</title>
<g id="a_node2"><a xlink:href="namespaceelc_1_1paths_1_1defs.html#adfefc83294b4e09b5c361a7e5ee49851" target="_top" xlink:title=" ">
<polygon fill="white" stroke="#666666" points="111,-30 0,-30 0,0 111,0 111,-30"/>
<text text-anchor="start" x="8" y="-18" font-family="Helvetica,sans-Serif" font-size="10.00">elc::paths::defs::get</text>
<text text-anchor="middle" x="55.5" y="-7" font-family="Helvetica,sans-Serif" font-size="10.00">_elc_runtime_lib_path</text>
</a>
</g>
</g>
<!-- Node1&#45;&gt;Node2 -->
<g id="edge2" class="edge">
<title>Node1&#45;&gt;Node2</title>
<path fill="none" stroke="#63b8ff" d="M136.63,-15C128.23,-15 119.63,-15 111.33,-15"/>
<polygon fill="#63b8ff" stroke="#63b8ff" points="136.75,-18.5 146.75,-15 136.75,-11.5 136.75,-18.5"/>
</g>
<!-- Node2&#45;&gt;Node2 -->
<g id="edge3" class="edge">
<title>Node2&#45;&gt;Node2</title>
<path fill="none" stroke="#63b8ff" d="M80.36,-40.6C76.96,-44.97 68.67,-48 55.5,-48 33.31,-48 24.99,-39.41 30.54,-30.28"/>
<polygon fill="#63b8ff" stroke="#63b8ff" points="83.86,-40.31 80.46,-30.28 76.86,-40.24 83.86,-40.31"/>
</g>
</g>
</svg>
