<?xml version="1.0" encoding="UTF-8" standalone="no"?>
<!DOCTYPE svg PUBLIC "-//W3C//DTD SVG 1.1//EN"
 "http://www.w3.org/Graphics/SVG/1.1/DTD/svg11.dtd">
<!-- Generated by graphviz version 6.0.1 (20220911.1526)
 -->
<!-- Title: elc::defs::base::range_n::find_first_not_of_size_t Pages: 1 -->
<svg width="735pt" height="194pt"
 viewBox="0.00 0.00 735.00 193.50" xmlns="http://www.w3.org/2000/svg" xmlns:xlink="http://www.w3.org/1999/xlink">
<g id="graph0" class="graph" transform="scale(1 1) rotate(0) translate(4 189.5)">
<title>elc::defs::base::range_n::find_first_not_of_size_t</title>
<!-- Node1 -->
<g id="node1" class="node">
<title>Node1</title>
<g id="a_node1"><a xlink:title=" ">
<polygon fill="#999999" stroke="#666666" points="110,-74 0,-74 0,-33 110,-33 110,-74"/>
<text text-anchor="start" x="8" y="-62" font-family="Helvetica,sans-Serif" font-size="10.00">elc::defs::base::range</text>
<text text-anchor="start" x="8" y="-51" font-family="Helvetica,sans-Serif" font-size="10.00">_n::find_first_not_of</text>
<text text-anchor="middle" x="55" y="-40" font-family="Helvetica,sans-Serif" font-size="10.00">_size_t</text>
</a>
</g>
</g>
<!-- Node2 -->
<g id="node2" class="node">
<title>Node2</title>
<g id="a_node2"><a xlink:href="namespaceelc_1_1defs_1_1base_1_1range__n.html#ae2dbbd141a649cf04c829ccc6d58f30b" target="_top" xlink:title="若成功找到不匹配的数据项，返回其开头，若未找到，返回nullptr">
<polygon fill="white" stroke="#666666" points="406.5,-95.5 296.5,-95.5 296.5,-65.5 406.5,-65.5 406.5,-95.5"/>
<text text-anchor="start" x="304.5" y="-83.5" font-family="Helvetica,sans-Serif" font-size="10.00">elc::defs::base::range</text>
<text text-anchor="middle" x="351.5" y="-72.5" font-family="Helvetica,sans-Serif" font-size="10.00">_n::find_first_not_of</text>
</a>
</g>
</g>
<!-- Node1&#45;&gt;Node2 -->
<g id="edge1" class="edge">
<title>Node1&#45;&gt;Node2</title>
<path fill="none" stroke="#63b8ff" d="M110.15,-62.74C121.94,-64.52 134.37,-66.23 146,-67.5 192.68,-72.6 245.6,-75.9 285.91,-77.9"/>
<polygon fill="#63b8ff" stroke="#63b8ff" points="285.98,-81.4 296.13,-78.39 286.31,-74.41 285.98,-81.4"/>
</g>
<!-- Node7 -->
<g id="node7" class="node">
<title>Node7</title>
<g id="a_node7"><a xlink:href="namespaceelc_1_1defs_1_1base_1_1range__n.html#a1acc3f8449649b44d4ba4adc53be00e7" target="_top" xlink:title="若成功找到不匹配的数据项，返回其距离开头的步数，若未找到，返回npos">
<polygon fill="white" stroke="#666666" points="256,-41 146,-41 146,0 256,0 256,-41"/>
<text text-anchor="start" x="154" y="-29" font-family="Helvetica,sans-Serif" font-size="10.00">elc::defs::base::range</text>
<text text-anchor="start" x="154" y="-18" font-family="Helvetica,sans-Serif" font-size="10.00">_n::find_first_not_of</text>
<text text-anchor="middle" x="201" y="-7" font-family="Helvetica,sans-Serif" font-size="10.00">_size_t</text>
</a>
</g>
</g>
<!-- Node1&#45;&gt;Node7 -->
<g id="edge10" class="edge">
<title>Node1&#45;&gt;Node7</title>
<path fill="none" stroke="#63b8ff" d="M110.03,-41.12C118.4,-39.2 127.13,-37.2 135.7,-35.24"/>
<polygon fill="#63b8ff" stroke="#63b8ff" points="136.7,-38.6 145.67,-32.95 135.14,-31.77 136.7,-38.6"/>
</g>
<!-- Node2&#45;&gt;Node2 -->
<g id="edge6" class="edge">
<title>Node2&#45;&gt;Node2</title>
<path fill="none" stroke="#63b8ff" d="M325.04,-95.78C319.17,-104.91 327.98,-113.5 351.5,-113.5 365.46,-113.5 374.24,-110.47 377.84,-106.1"/>
<polygon fill="#63b8ff" stroke="#63b8ff" points="381.35,-105.81 377.96,-95.78 374.35,-105.74 381.35,-105.81"/>
</g>
<!-- Node3 -->
<g id="node3" class="node">
<title>Node3</title>
<g id="a_node3"><a xlink:href="namespaceelc_1_1defs_1_1base_1_1range__n.html#a54d8c9784e4d97c7984629d1f0cc0714" target="_top" xlink:title="find_first_not_of的朴素实现 若成功找到不匹配的数据项，返回其开头，若未找到，返回nullptr">
<polygon fill="white" stroke="#666666" points="577.5,-167.5 450.5,-167.5 450.5,-137.5 577.5,-137.5 577.5,-167.5"/>
<text text-anchor="start" x="458.5" y="-155.5" font-family="Helvetica,sans-Serif" font-size="10.00">elc::defs::base::range</text>
<text text-anchor="middle" x="514" y="-144.5" font-family="Helvetica,sans-Serif" font-size="10.00">_n::base_find_first_not_of</text>
</a>
</g>
</g>
<!-- Node2&#45;&gt;Node3 -->
<g id="edge2" class="edge">
<title>Node2&#45;&gt;Node3</title>
<path fill="none" stroke="#63b8ff" d="M381.1,-95.65C399.66,-105.26 424.5,-117.67 447,-127.5 451.72,-129.56 456.67,-131.62 461.65,-133.62"/>
<polygon fill="#63b8ff" stroke="#63b8ff" points="460.61,-136.98 471.2,-137.39 463.18,-130.46 460.61,-136.98"/>
</g>
<!-- Node5 -->
<g id="node5" class="node">
<title>Node5</title>
<g id="a_node5"><a xlink:href="namespaceelc_1_1defs_1_1base_1_1range__n.html#a563768bc44c8a53706bb1996bcd89785" target="_top" xlink:title="find_first_not_of的bitmark实现 若成功找到不匹配的数据项，返回其开头，若未找到，返回nullptr">
<polygon fill="white" stroke="#666666" points="569,-101 459,-101 459,-60 569,-60 569,-101"/>
<text text-anchor="start" x="467" y="-89" font-family="Helvetica,sans-Serif" font-size="10.00">elc::defs::base::range</text>
<text text-anchor="start" x="467" y="-78" font-family="Helvetica,sans-Serif" font-size="10.00">_n::find_first_not_of</text>
<text text-anchor="middle" x="514" y="-67" font-family="Helvetica,sans-Serif" font-size="10.00">_bitmark</text>
</a>
</g>
</g>
<!-- Node2&#45;&gt;Node5 -->
<g id="edge7" class="edge">
<title>Node2&#45;&gt;Node5</title>
<path fill="none" stroke="#63b8ff" d="M406.84,-80.5C420.38,-80.5 435.02,-80.5 448.97,-80.5"/>
<polygon fill="#63b8ff" stroke="#63b8ff" points="448.99,-84 458.99,-80.5 448.99,-77 448.99,-84"/>
</g>
<!-- Node6 -->
<g id="node6" class="node">
<title>Node6</title>
<g id="a_node6"><a xlink:href="structelc_1_1defs_1_1base_1_1range__n_1_1bitmark__for__finds.html#aac0eaf6119a2810bc00351cb3c7030e0" target="_top" xlink:title=" ">
<polygon fill="white" stroke="#666666" points="581,-41.5 447,-41.5 447,-11.5 581,-11.5 581,-41.5"/>
<text text-anchor="start" x="455" y="-29.5" font-family="Helvetica,sans-Serif" font-size="10.00">elc::defs::base::range</text>
<text text-anchor="middle" x="514" y="-18.5" font-family="Helvetica,sans-Serif" font-size="10.00">_n::bitmark_for_finds::mark</text>
</a>
</g>
</g>
<!-- Node2&#45;&gt;Node6 -->
<g id="edge9" class="edge">
<title>Node2&#45;&gt;Node6</title>
<path fill="none" stroke="#63b8ff" d="M397.21,-65.46C416.26,-59.05 438.66,-51.51 458.66,-44.78"/>
<polygon fill="#63b8ff" stroke="#63b8ff" points="459.89,-48.06 468.25,-41.55 457.66,-41.43 459.89,-48.06"/>
</g>
<!-- Node3&#45;&gt;Node3 -->
<g id="edge3" class="edge">
<title>Node3&#45;&gt;Node3</title>
<path fill="none" stroke="#63b8ff" d="M486.23,-167.78C480.05,-176.91 489.31,-185.5 514,-185.5 528.66,-185.5 537.88,-182.47 541.66,-178.1"/>
<polygon fill="#63b8ff" stroke="#63b8ff" points="545.16,-177.81 541.77,-167.78 538.16,-177.73 545.16,-177.81"/>
</g>
<!-- Node4 -->
<g id="node4" class="node">
<title>Node4</title>
<g id="a_node4"><a xlink:href="namespaceelc_1_1defs_1_1base_1_1range__n.html#ace6a3a9d079214ee7bcce5acbef1e07f" target="_top" xlink:title="判断一个值是否在某个范围内">
<polygon fill="white" stroke="#666666" points="727,-167.5 617,-167.5 617,-137.5 727,-137.5 727,-167.5"/>
<text text-anchor="start" x="625" y="-155.5" font-family="Helvetica,sans-Serif" font-size="10.00">elc::defs::base::range</text>
<text text-anchor="middle" x="672" y="-144.5" font-family="Helvetica,sans-Serif" font-size="10.00">_n::in_range</text>
</a>
</g>
</g>
<!-- Node3&#45;&gt;Node4 -->
<g id="edge4" class="edge">
<title>Node3&#45;&gt;Node4</title>
<path fill="none" stroke="#63b8ff" d="M577.55,-152.5C587.14,-152.5 597.05,-152.5 606.67,-152.5"/>
<polygon fill="#63b8ff" stroke="#63b8ff" points="606.98,-156 616.98,-152.5 606.98,-149 606.98,-156"/>
</g>
<!-- Node4&#45;&gt;Node4 -->
<g id="edge5" class="edge">
<title>Node4&#45;&gt;Node4</title>
<path fill="none" stroke="#63b8ff" d="M644.23,-167.78C638.05,-176.91 647.31,-185.5 672,-185.5 686.66,-185.5 695.88,-182.47 699.66,-178.1"/>
<polygon fill="#63b8ff" stroke="#63b8ff" points="703.16,-177.81 699.77,-167.78 696.16,-177.73 703.16,-177.81"/>
</g>
<!-- Node5&#45;&gt;Node5 -->
<g id="edge8" class="edge">
<title>Node5&#45;&gt;Node5</title>
<path fill="none" stroke="#63b8ff" d="M484.96,-101.1C481.79,-110.65 491.47,-119 514,-119 528.08,-119 537.14,-115.74 541.18,-110.96"/>
<polygon fill="#63b8ff" stroke="#63b8ff" points="544.63,-111.57 543.04,-101.1 537.75,-110.28 544.63,-111.57"/>
</g>
<!-- Node7&#45;&gt;Node2 -->
<g id="edge12" class="edge">
<title>Node7&#45;&gt;Node2</title>
<path fill="none" stroke="#63b8ff" d="M253.11,-41.15C269.5,-47.77 287.57,-55.07 303.65,-61.57"/>
<polygon fill="#63b8ff" stroke="#63b8ff" points="302.79,-65 313.37,-65.5 305.41,-58.51 302.79,-65"/>
</g>
<!-- Node7&#45;&gt;Node7 -->
<g id="edge13" class="edge">
<title>Node7&#45;&gt;Node7</title>
<path fill="none" stroke="#63b8ff" d="M174.17,-41.1C171.24,-50.65 180.18,-59 201,-59 214.01,-59 222.38,-55.74 226.12,-50.96"/>
<polygon fill="#63b8ff" stroke="#63b8ff" points="229.57,-51.55 227.83,-41.1 222.67,-50.35 229.57,-51.55"/>
</g>
<!-- Node8 -->
<g id="node8" class="node">
<title>Node8</title>
<g id="a_node8"><a xlink:href="structelc_1_1defs_1_1base_1_1array__like__n_1_1array__like__view__t.html#a613a7a28045bb8efd320108a432ad775" target="_top" xlink:title=" ">
<polygon fill="white" stroke="#666666" points="411,-41 292,-41 292,0 411,0 411,-41"/>
<text text-anchor="start" x="300" y="-29" font-family="Helvetica,sans-Serif" font-size="10.00">elc::defs::base::array</text>
<text text-anchor="start" x="300" y="-18" font-family="Helvetica,sans-Serif" font-size="10.00">_like_n::array_like_view</text>
<text text-anchor="middle" x="351.5" y="-7" font-family="Helvetica,sans-Serif" font-size="10.00">_t::begin</text>
</a>
</g>
</g>
<!-- Node7&#45;&gt;Node8 -->
<g id="edge11" class="edge">
<title>Node7&#45;&gt;Node8</title>
<path fill="none" stroke="#63b8ff" d="M256.03,-20.5C264.44,-20.5 273.21,-20.5 281.89,-20.5"/>
<polygon fill="#63b8ff" stroke="#63b8ff" points="282,-24 292,-20.5 282,-17 282,-24"/>
</g>
</g>
</svg>
