<?xml version="1.0" encoding="UTF-8" standalone="no"?>
<!DOCTYPE svg PUBLIC "-//W3C//DTD SVG 1.1//EN"
 "http://www.w3.org/Graphics/SVG/1.1/DTD/svg11.dtd">
<!-- Generated by graphviz version 6.0.1 (20220911.1526)
 -->
<!-- Title: elc::defs::core::as_value Pages: 1 -->
<svg width="256pt" height="94pt"
 viewBox="0.00 0.00 256.00 93.50" xmlns="http://www.w3.org/2000/svg" xmlns:xlink="http://www.w3.org/1999/xlink">
<g id="graph0" class="graph" transform="scale(1 1) rotate(0) translate(4 89.5)">
<title>elc::defs::core::as_value</title>
<!-- Node1 -->
<g id="node1" class="node">
<title>Node1</title>
<g id="a_node1"><a xlink:title=" ">
<polygon fill="#999999" stroke="#666666" points="95,-51 0,-51 0,-21 95,-21 95,-51"/>
<text text-anchor="start" x="8" y="-39" font-family="Helvetica,sans-Serif" font-size="10.00">elc::defs::core::as</text>
<text text-anchor="middle" x="47.5" y="-28" font-family="Helvetica,sans-Serif" font-size="10.00">_value</text>
</a>
</g>
</g>
<!-- Node1&#45;&gt;Node1 -->
<g id="edge3" class="edge">
<title>Node1&#45;&gt;Node1</title>
<path fill="none" stroke="#63b8ff" d="M22.54,-51.28C16.99,-60.41 25.31,-69 47.5,-69 60.67,-69 68.96,-65.97 72.36,-61.6"/>
<polygon fill="#63b8ff" stroke="#63b8ff" points="75.86,-61.31 72.46,-51.28 68.86,-61.24 75.86,-61.31"/>
</g>
<!-- Node2 -->
<g id="node2" class="node">
<title>Node2</title>
<g id="a_node2"><a xlink:href="namespaceelc_1_1defs_1_1core.html#aa4b6b0e46887c02cd097d74031157c5f" target="_top" xlink:title=" ">
<polygon fill="white" stroke="#666666" points="245,-67.5 134,-67.5 134,-48.5 245,-48.5 245,-67.5"/>
<text text-anchor="middle" x="189.5" y="-55.5" font-family="Helvetica,sans-Serif" font-size="10.00">elc::defs::core::as_ptr</text>
</a>
</g>
</g>
<!-- Node1&#45;&gt;Node2 -->
<g id="edge1" class="edge">
<title>Node1&#45;&gt;Node2</title>
<path fill="none" stroke="#63b8ff" d="M95.12,-43.33C104.33,-44.77 114.15,-46.32 123.83,-47.84"/>
<polygon fill="#63b8ff" stroke="#63b8ff" points="123.42,-51.32 133.84,-49.41 124.5,-44.4 123.42,-51.32"/>
</g>
<!-- Node3 -->
<g id="node3" class="node">
<title>Node3</title>
<g id="a_node3"><a xlink:href="namespaceelc_1_1defs_1_1base.html#add5f75cca4bdd8a249b12d840b1ff116" target="_top" xlink:title="对引用移除const">
<polygon fill="white" stroke="#666666" points="248,-30 131,-30 131,0 248,0 248,-30"/>
<text text-anchor="start" x="139" y="-18" font-family="Helvetica,sans-Serif" font-size="10.00">elc::defs::base::remove</text>
<text text-anchor="middle" x="189.5" y="-7" font-family="Helvetica,sans-Serif" font-size="10.00">_const</text>
</a>
</g>
</g>
<!-- Node1&#45;&gt;Node3 -->
<g id="edge4" class="edge">
<title>Node1&#45;&gt;Node3</title>
<path fill="none" stroke="#63b8ff" d="M95.12,-29.01C103.35,-27.77 112.07,-26.46 120.75,-25.16"/>
<polygon fill="#63b8ff" stroke="#63b8ff" points="121.5,-28.59 130.87,-23.64 120.47,-21.67 121.5,-28.59"/>
</g>
<!-- Node2&#45;&gt;Node2 -->
<g id="edge2" class="edge">
<title>Node2&#45;&gt;Node2</title>
<path fill="none" stroke="#63b8ff" d="M167.61,-67.58C156.97,-76.23 164.26,-85.5 189.5,-85.5 205.67,-85.5 214.47,-81.7 215.91,-76.69"/>
<polygon fill="#63b8ff" stroke="#63b8ff" points="218.97,-74.98 211.39,-67.58 212.7,-78.1 218.97,-74.98"/>
</g>
</g>
</svg>
