<?xml version="1.0" encoding="UTF-8" standalone="no"?>
<!DOCTYPE svg PUBLIC "-//W3C//DTD SVG 1.1//EN"
 "http://www.w3.org/Graphics/SVG/1.1/DTD/svg11.dtd">
<!-- Generated by graphviz version 6.0.1 (20220911.1526)
 -->
<!-- Title: elc::defs::base::magic_number::rotl Pages: 1 -->
<svg width="419pt" height="122pt"
 viewBox="0.00 0.00 419.00 122.00" xmlns="http://www.w3.org/2000/svg" xmlns:xlink="http://www.w3.org/1999/xlink">
<g id="graph0" class="graph" transform="scale(1 1) rotate(0) translate(4 118)">
<title>elc::defs::base::magic_number::rotl</title>
<!-- Node1 -->
<g id="node1" class="node">
<title>Node1</title>
<g id="a_node1"><a xlink:title="位操作：循环左移 不使用std版本而是自己写的原因：std版本右操作数只能是int而不能是size_t或别的，标准会傻逼">
<polygon fill="#999999" stroke="#666666" points="113,-63 0,-63 0,-33 113,-33 113,-63"/>
<text text-anchor="start" x="8" y="-51" font-family="Helvetica,sans-Serif" font-size="10.00">elc::defs::base::magic</text>
<text text-anchor="middle" x="56.5" y="-40" font-family="Helvetica,sans-Serif" font-size="10.00">_number::rotl</text>
</a>
</g>
</g>
<!-- Node1&#45;&gt;Node1 -->
<g id="edge3" class="edge">
<title>Node1&#45;&gt;Node1</title>
<path fill="none" stroke="#63b8ff" d="M30.31,-63.28C24.49,-72.41 33.22,-81 56.5,-81 70.32,-81 79.02,-77.97 82.58,-73.6"/>
<polygon fill="#63b8ff" stroke="#63b8ff" points="86.08,-73.31 82.69,-63.28 79.08,-73.24 86.08,-73.31"/>
</g>
<!-- Node2 -->
<g id="node2" class="node">
<title>Node2</title>
<g id="a_node2"><a xlink:href="namespaceelc_1_1defs_1_1base_1_1magic__number.html#a956a811b7ae70abe75ec93ef4f086e60" target="_top" xlink:title=" ">
<polygon fill="white" stroke="#666666" points="262,-96 149,-96 149,-66 262,-66 262,-96"/>
<text text-anchor="start" x="157" y="-84" font-family="Helvetica,sans-Serif" font-size="10.00">elc::defs::base::magic</text>
<text text-anchor="middle" x="205.5" y="-73" font-family="Helvetica,sans-Serif" font-size="10.00">_number::mod</text>
</a>
</g>
</g>
<!-- Node1&#45;&gt;Node2 -->
<g id="edge1" class="edge">
<title>Node1&#45;&gt;Node2</title>
<path fill="none" stroke="#63b8ff" d="M113.07,-60.48C121.49,-62.36 130.24,-64.33 138.84,-66.26"/>
<polygon fill="#63b8ff" stroke="#63b8ff" points="138.32,-69.73 148.85,-68.51 139.86,-62.9 138.32,-69.73"/>
</g>
<!-- Node3 -->
<g id="node3" class="node">
<title>Node3</title>
<g id="a_node3"><a xlink:href="namespaceelc_1_1defs_1_1base_1_1magic__number.html#aab6ca25a1946f5d1af899e05a59b2c97" target="_top" xlink:title="位操作：循环左移（无mod） 不使用std版本而是自己写的原因：std版本右操作数只能是int而不能是size_t或别的，标准会傻逼">
<polygon fill="white" stroke="#666666" points="262,-30 149,-30 149,0 262,0 262,-30"/>
<text text-anchor="start" x="157" y="-18" font-family="Helvetica,sans-Serif" font-size="10.00">elc::defs::base::magic</text>
<text text-anchor="middle" x="205.5" y="-7" font-family="Helvetica,sans-Serif" font-size="10.00">_number::rotl_nomod</text>
</a>
</g>
</g>
<!-- Node1&#45;&gt;Node3 -->
<g id="edge4" class="edge">
<title>Node1&#45;&gt;Node3</title>
<path fill="none" stroke="#63b8ff" d="M113.07,-35.52C121.49,-33.64 130.24,-31.67 138.84,-29.74"/>
<polygon fill="#63b8ff" stroke="#63b8ff" points="139.86,-33.1 148.85,-27.49 138.32,-26.27 139.86,-33.1"/>
</g>
<!-- Node2&#45;&gt;Node2 -->
<g id="edge2" class="edge">
<title>Node2&#45;&gt;Node2</title>
<path fill="none" stroke="#63b8ff" d="M179.31,-96.28C173.49,-105.41 182.22,-114 205.5,-114 219.32,-114 228.02,-110.97 231.58,-106.6"/>
<polygon fill="#63b8ff" stroke="#63b8ff" points="235.08,-106.31 231.69,-96.28 228.08,-106.24 235.08,-106.31"/>
</g>
<!-- Node3&#45;&gt;Node3 -->
<g id="edge5" class="edge">
<title>Node3&#45;&gt;Node3</title>
<path fill="none" stroke="#63b8ff" d="M179.31,-30.28C173.49,-39.41 182.22,-48 205.5,-48 219.32,-48 228.02,-44.97 231.58,-40.6"/>
<polygon fill="#63b8ff" stroke="#63b8ff" points="235.08,-40.31 231.69,-30.28 228.08,-40.24 235.08,-40.31"/>
</g>
<!-- Node4 -->
<g id="node4" class="node">
<title>Node4</title>
<g id="a_node4"><a xlink:href="namespaceelc_1_1defs_1_1base_1_1magic__number.html#ab09241102ee6f2f318ec7d798966587b" target="_top" xlink:title="位操作：循环右移（无mod） 不使用std版本而是自己写的原因：std版本右操作数只能是int而不能是size_t或别的，标准会傻逼">
<polygon fill="white" stroke="#666666" points="411,-30 298,-30 298,0 411,0 411,-30"/>
<text text-anchor="start" x="306" y="-18" font-family="Helvetica,sans-Serif" font-size="10.00">elc::defs::base::magic</text>
<text text-anchor="middle" x="354.5" y="-7" font-family="Helvetica,sans-Serif" font-size="10.00">_number::rotr_nomod</text>
</a>
</g>
</g>
<!-- Node3&#45;&gt;Node4 -->
<g id="edge6" class="edge">
<title>Node3&#45;&gt;Node4</title>
<path fill="none" stroke="#63b8ff" d="M262.07,-8.43C270.49,-8.26 279.24,-8.21 287.84,-8.28"/>
<polygon fill="#63b8ff" stroke="#63b8ff" points="287.8,-11.78 297.85,-8.43 287.9,-4.78 287.8,-11.78"/>
</g>
<!-- Node4&#45;&gt;Node3 -->
<g id="edge7" class="edge">
<title>Node4&#45;&gt;Node3</title>
<path fill="none" stroke="#63b8ff" d="M297.85,-21.57C289.43,-21.74 280.68,-21.79 272.08,-21.72"/>
<polygon fill="#63b8ff" stroke="#63b8ff" points="272.12,-18.22 262.07,-21.57 272.02,-25.21 272.12,-18.22"/>
</g>
<!-- Node4&#45;&gt;Node4 -->
<g id="edge8" class="edge">
<title>Node4&#45;&gt;Node4</title>
<path fill="none" stroke="#63b8ff" d="M328.31,-30.28C322.49,-39.41 331.22,-48 354.5,-48 368.32,-48 377.02,-44.97 380.58,-40.6"/>
<polygon fill="#63b8ff" stroke="#63b8ff" points="384.08,-40.31 380.69,-30.28 377.08,-40.24 384.08,-40.31"/>
</g>
</g>
</svg>
