<?xml version="1.0" encoding="UTF-8" standalone="no"?>
<!DOCTYPE svg PUBLIC "-//W3C//DTD SVG 1.1//EN"
 "http://www.w3.org/Graphics/SVG/1.1/DTD/svg11.dtd">
<!-- Generated by graphviz version 6.0.1 (20220911.1526)
 -->
<!-- Title: elc::defs::memory::gc_n::default_gc_for_type::default_gc_method Pages: 1 -->
<svg width="282pt" height="98pt"
 viewBox="0.00 0.00 282.00 97.50" xmlns="http://www.w3.org/2000/svg" xmlns:xlink="http://www.w3.org/1999/xlink">
<g id="graph0" class="graph" transform="scale(1 1) rotate(0) translate(4 93.5)">
<title>elc::defs::memory::gc_n::default_gc_for_type::default_gc_method</title>
<!-- Node1 -->
<g id="node1" class="node">
<title>Node1</title>
<g id="a_node1"><a xlink:title=" ">
<polygon fill="#999999" stroke="#666666" points="128,-62.5 0,-62.5 0,-21.5 128,-21.5 128,-62.5"/>
<text text-anchor="start" x="8" y="-50.5" font-family="Helvetica,sans-Serif" font-size="10.00">elc::defs::memory::</text>
<text text-anchor="start" x="8" y="-39.5" font-family="Helvetica,sans-Serif" font-size="10.00">gc_n::default_gc_for</text>
<text text-anchor="middle" x="64" y="-28.5" font-family="Helvetica,sans-Serif" font-size="10.00">_type::default_gc_method</text>
</a>
</g>
</g>
<!-- Node1&#45;&gt;Node1 -->
<g id="edge1" class="edge">
<title>Node1&#45;&gt;Node1</title>
<path fill="none" stroke="#63b8ff" d="M35.51,-62.6C32.4,-72.15 41.9,-80.5 64,-80.5 77.81,-80.5 86.7,-77.24 90.67,-72.46"/>
<polygon fill="#63b8ff" stroke="#63b8ff" points="94.11,-73.07 92.49,-62.6 87.23,-71.8 94.11,-73.07"/>
</g>
<!-- Node2 -->
<g id="node2" class="node">
<title>Node2</title>
<g id="a_node2"><a xlink:href="namespaceelc_1_1defs_1_1memory_1_1gc__n_1_1default__gc__for__type.html#a3208ba47be071304bd8324f77eaef129" target="_top" xlink:title=" ">
<polygon fill="white" stroke="#666666" points="274,-89.5 164,-89.5 164,-48.5 274,-48.5 274,-89.5"/>
<text text-anchor="start" x="172" y="-77.5" font-family="Helvetica,sans-Serif" font-size="10.00">elc::defs::memory::</text>
<text text-anchor="start" x="172" y="-66.5" font-family="Helvetica,sans-Serif" font-size="10.00">gc_n::default_gc_for</text>
<text text-anchor="middle" x="219" y="-55.5" font-family="Helvetica,sans-Serif" font-size="10.00">_type::destory_by_gc</text>
</a>
</g>
</g>
<!-- Node1&#45;&gt;Node2 -->
<g id="edge2" class="edge">
<title>Node1&#45;&gt;Node2</title>
<path fill="none" stroke="#63b8ff" d="M128.11,-53.14C136.63,-54.64 145.38,-56.19 153.92,-57.69"/>
<polygon fill="#63b8ff" stroke="#63b8ff" points="153.36,-61.15 163.82,-59.44 154.58,-54.25 153.36,-61.15"/>
</g>
<!-- Node3 -->
<g id="node3" class="node">
<title>Node3</title>
<g id="a_node3"><a xlink:href="namespaceelc_1_1defs_1_1base.html#a8b286cdf9188abf5ce5a5e89dca4d342" target="_top" xlink:title=" ">
<polygon fill="white" stroke="#666666" points="269,-30 169,-30 169,0 269,0 269,-30"/>
<text text-anchor="start" x="177" y="-18" font-family="Helvetica,sans-Serif" font-size="10.00">elc::defs::base::the</text>
<text text-anchor="middle" x="219" y="-7" font-family="Helvetica,sans-Serif" font-size="10.00">_number_of</text>
</a>
</g>
</g>
<!-- Node1&#45;&gt;Node3 -->
<g id="edge3" class="edge">
<title>Node1&#45;&gt;Node3</title>
<path fill="none" stroke="#63b8ff" d="M128.11,-30.86C138.24,-29.08 148.69,-27.23 158.72,-25.46"/>
<polygon fill="#63b8ff" stroke="#63b8ff" points="159.34,-28.91 168.58,-23.72 158.13,-22.01 159.34,-28.91"/>
</g>
</g>
</svg>
