<?xml version="1.0" encoding="UTF-8" standalone="no"?>
<!DOCTYPE svg PUBLIC "-//W3C//DTD SVG 1.1//EN"
 "http://www.w3.org/Graphics/SVG/1.1/DTD/svg11.dtd">
<!-- Generated by graphviz version 6.0.1 (20220911.1526)
 -->
<!-- Title: elc::APIs::alloc::overhead_n::overhead_get_offset_value Pages: 1 -->
<svg width="317pt" height="188pt"
 viewBox="0.00 0.00 317.00 188.00" xmlns="http://www.w3.org/2000/svg" xmlns:xlink="http://www.w3.org/1999/xlink">
<g id="graph0" class="graph" transform="scale(1 1) rotate(0) translate(4 184)">
<title>elc::APIs::alloc::overhead_n::overhead_get_offset_value</title>
<!-- Node1 -->
<g id="node1" class="node">
<title>Node1</title>
<g id="a_node1"><a xlink:title=" ">
<polygon fill="#999999" stroke="#666666" points="309,-96 163,-96 163,-66 309,-66 309,-96"/>
<text text-anchor="start" x="171" y="-84" font-family="Helvetica,sans-Serif" font-size="10.00">elc::APIs::alloc::overhead</text>
<text text-anchor="middle" x="236" y="-73" font-family="Helvetica,sans-Serif" font-size="10.00">_n::overhead_get_offset_value</text>
</a>
</g>
</g>
<!-- Node1&#45;&gt;Node1 -->
<g id="edge5" class="edge">
<title>Node1&#45;&gt;Node1</title>
<path fill="none" stroke="#63b8ff" d="M266.19,-106.6C262.07,-110.97 252,-114 236,-114 209.05,-114 198.94,-105.41 205.68,-96.28"/>
<polygon fill="#63b8ff" stroke="#63b8ff" points="269.7,-106.32 266.32,-96.28 262.7,-106.23 269.7,-106.32"/>
</g>
<!-- Node2 -->
<g id="node2" class="node">
<title>Node2</title>
<g id="a_node2"><a xlink:href="namespaceelc_1_1_a_p_is_1_1alloc_1_1overhead__n.html#a0081d2b1353b5ae652c595fef6b5d6aa" target="_top" xlink:title=" ">
<polygon fill="white" stroke="#666666" points="127,-162 0,-162 0,-132 127,-132 127,-162"/>
<text text-anchor="start" x="8" y="-150" font-family="Helvetica,sans-Serif" font-size="10.00">elc::APIs::alloc::overhead</text>
<text text-anchor="middle" x="63.5" y="-139" font-family="Helvetica,sans-Serif" font-size="10.00">_n::correct_pointer</text>
</a>
</g>
</g>
<!-- Node1&#45;&gt;Node2 -->
<g id="edge1" class="edge">
<title>Node1&#45;&gt;Node2</title>
<path fill="none" stroke="#63b8ff" d="M187.03,-99.71C168.31,-106.99 146.66,-115.4 127,-123 119.52,-125.89 111.53,-128.97 103.85,-131.92"/>
<polygon fill="#63b8ff" stroke="#63b8ff" points="188.48,-102.9 196.53,-96.01 185.94,-96.37 188.48,-102.9"/>
</g>
<!-- Node3 -->
<g id="node3" class="node">
<title>Node3</title>
<g id="a_node3"><a xlink:href="namespaceelc_1_1_a_p_is_1_1alloc_1_1overhead__n.html#a80a5073d2085c16be6be7677ab2ca936" target="_top" xlink:title=" ">
<polygon fill="white" stroke="#666666" points="127,-96 0,-96 0,-66 127,-66 127,-96"/>
<text text-anchor="start" x="8" y="-84" font-family="Helvetica,sans-Serif" font-size="10.00">elc::APIs::alloc::overhead</text>
<text text-anchor="middle" x="63.5" y="-73" font-family="Helvetica,sans-Serif" font-size="10.00">_n::correct_size</text>
</a>
</g>
</g>
<!-- Node1&#45;&gt;Node3 -->
<g id="edge3" class="edge">
<title>Node1&#45;&gt;Node3</title>
<path fill="none" stroke="#63b8ff" d="M152.68,-81C144.11,-81 135.51,-81 127.21,-81"/>
<polygon fill="#63b8ff" stroke="#63b8ff" points="152.69,-84.5 162.69,-81 152.69,-77.5 152.69,-84.5"/>
</g>
<!-- Node4 -->
<g id="node4" class="node">
<title>Node4</title>
<g id="a_node4"><a xlink:href="namespaceelc_1_1_a_p_is_1_1alloc_1_1overhead__n.html#a6117203826e84ecdbd6a847b63344851" target="_top" xlink:title=" ">
<polygon fill="white" stroke="#666666" points="127,-30 0,-30 0,0 127,0 127,-30"/>
<text text-anchor="start" x="8" y="-18" font-family="Helvetica,sans-Serif" font-size="10.00">elc::APIs::alloc::overhead</text>
<text text-anchor="middle" x="63.5" y="-7" font-family="Helvetica,sans-Serif" font-size="10.00">_n::recorrect_pointer</text>
</a>
</g>
</g>
<!-- Node1&#45;&gt;Node4 -->
<g id="edge6" class="edge">
<title>Node1&#45;&gt;Node4</title>
<path fill="none" stroke="#63b8ff" d="M186.48,-62.22C160.17,-52.03 128.09,-39.62 103.43,-30.07"/>
<polygon fill="#63b8ff" stroke="#63b8ff" points="185.29,-65.51 195.88,-65.86 187.82,-58.98 185.29,-65.51"/>
</g>
<!-- Node2&#45;&gt;Node2 -->
<g id="edge2" class="edge">
<title>Node2&#45;&gt;Node2</title>
<path fill="none" stroke="#63b8ff" d="M93.69,-172.6C89.57,-176.97 79.5,-180 63.5,-180 36.55,-180 26.44,-171.41 33.18,-162.28"/>
<polygon fill="#63b8ff" stroke="#63b8ff" points="97.2,-172.32 93.82,-162.28 90.2,-172.23 97.2,-172.32"/>
</g>
<!-- Node3&#45;&gt;Node3 -->
<g id="edge4" class="edge">
<title>Node3&#45;&gt;Node3</title>
<path fill="none" stroke="#63b8ff" d="M93.69,-106.6C89.57,-110.97 79.5,-114 63.5,-114 36.55,-114 26.44,-105.41 33.18,-96.28"/>
<polygon fill="#63b8ff" stroke="#63b8ff" points="97.2,-106.32 93.82,-96.28 90.2,-106.23 97.2,-106.32"/>
</g>
<!-- Node4&#45;&gt;Node4 -->
<g id="edge7" class="edge">
<title>Node4&#45;&gt;Node4</title>
<path fill="none" stroke="#63b8ff" d="M93.69,-40.6C89.57,-44.97 79.5,-48 63.5,-48 36.55,-48 26.44,-39.41 33.18,-30.28"/>
<polygon fill="#63b8ff" stroke="#63b8ff" points="97.2,-40.32 93.82,-30.28 90.2,-40.23 97.2,-40.32"/>
</g>
</g>
</svg>
