<?xml version="1.0" encoding="UTF-8" standalone="no"?>
<!DOCTYPE svg PUBLIC "-//W3C//DTD SVG 1.1//EN"
 "http://www.w3.org/Graphics/SVG/1.1/DTD/svg11.dtd">
<!-- Generated by graphviz version 6.0.1 (20220911.1526)
 -->
<!-- Title: elc::APIs::alloc::aligned_alloc Pages: 1 -->
<svg width="437pt" height="67pt"
 viewBox="0.00 0.00 437.00 67.00" xmlns="http://www.w3.org/2000/svg" xmlns:xlink="http://www.w3.org/1999/xlink">
<g id="graph0" class="graph" transform="scale(1 1) rotate(0) translate(4 63)">
<title>elc::APIs::alloc::aligned_alloc</title>
<!-- Node1 -->
<g id="node1" class="node">
<title>Node1</title>
<g id="a_node1"><a xlink:title=" ">
<polygon fill="#999999" stroke="#666666" points="429,-35.5 310,-35.5 310,-5.5 429,-5.5 429,-35.5"/>
<text text-anchor="start" x="318" y="-23.5" font-family="Helvetica,sans-Serif" font-size="10.00">elc::APIs::alloc::aligned</text>
<text text-anchor="middle" x="369.5" y="-12.5" font-family="Helvetica,sans-Serif" font-size="10.00">_alloc</text>
</a>
</g>
</g>
<!-- Node1&#45;&gt;Node1 -->
<g id="edge1" class="edge">
<title>Node1&#45;&gt;Node1</title>
<path fill="none" stroke="#63b8ff" d="M396.63,-46.1C392.92,-50.47 383.88,-53.5 369.5,-53.5 345.28,-53.5 336.2,-44.91 342.25,-35.78"/>
<polygon fill="#63b8ff" stroke="#63b8ff" points="400.13,-45.81 396.75,-35.78 393.13,-45.74 400.13,-45.81"/>
</g>
<!-- Node2 -->
<g id="node2" class="node">
<title>Node2</title>
<g id="a_node2"><a xlink:href="namespaceelc_1_1defs_1_1memory_1_1alloc__n_1_1default__method.html#a78a0fa1d20f89ed4b04c66ea762e9051" target="_top" xlink:title="Allocates aligned memory.">
<polygon fill="white" stroke="#666666" points="274,-41 155,-41 155,0 274,0 274,-41"/>
<text text-anchor="start" x="163" y="-29" font-family="Helvetica,sans-Serif" font-size="10.00">elc::defs::memory::</text>
<text text-anchor="start" x="163" y="-18" font-family="Helvetica,sans-Serif" font-size="10.00">alloc_n::default_method</text>
<text text-anchor="middle" x="214.5" y="-7" font-family="Helvetica,sans-Serif" font-size="10.00">::base_aligned_alloc</text>
</a>
</g>
</g>
<!-- Node1&#45;&gt;Node2 -->
<g id="edge2" class="edge">
<title>Node1&#45;&gt;Node2</title>
<path fill="none" stroke="#63b8ff" d="M299.51,-20.5C291.01,-20.5 282.38,-20.5 274.06,-20.5"/>
<polygon fill="#63b8ff" stroke="#63b8ff" points="299.78,-24 309.78,-20.5 299.78,-17 299.78,-24"/>
</g>
<!-- Node2&#45;&gt;Node2 -->
<g id="edge5" class="edge">
<title>Node2&#45;&gt;Node2</title>
<path fill="none" stroke="#63b8ff" d="M241.17,-50.96C237.2,-55.74 228.31,-59 214.5,-59 192.4,-59 182.9,-50.65 186.01,-41.1"/>
<polygon fill="#63b8ff" stroke="#63b8ff" points="244.61,-51.57 242.99,-41.1 237.73,-50.3 244.61,-51.57"/>
</g>
<!-- Node3 -->
<g id="node3" class="node">
<title>Node3</title>
<g id="a_node3"><a xlink:href="namespaceelc_1_1defs_1_1memory_1_1alloc__n_1_1default__method.html#a0304b5366d9907f769dac7e6dac8cd42" target="_top" xlink:title=" ">
<polygon fill="white" stroke="#666666" points="119,-41 0,-41 0,0 119,0 119,-41"/>
<text text-anchor="start" x="8" y="-29" font-family="Helvetica,sans-Serif" font-size="10.00">elc::defs::memory::</text>
<text text-anchor="start" x="8" y="-18" font-family="Helvetica,sans-Serif" font-size="10.00">alloc_n::default_method</text>
<text text-anchor="middle" x="59.5" y="-7" font-family="Helvetica,sans-Serif" font-size="10.00">::alloc_method</text>
</a>
</g>
</g>
<!-- Node2&#45;&gt;Node3 -->
<g id="edge3" class="edge">
<title>Node2&#45;&gt;Node3</title>
<path fill="none" stroke="#63b8ff" d="M144.51,-20.5C136.01,-20.5 127.38,-20.5 119.06,-20.5"/>
<polygon fill="#63b8ff" stroke="#63b8ff" points="144.78,-24 154.78,-20.5 144.78,-17 144.78,-24"/>
</g>
<!-- Node3&#45;&gt;Node3 -->
<g id="edge4" class="edge">
<title>Node3&#45;&gt;Node3</title>
<path fill="none" stroke="#63b8ff" d="M86.17,-50.96C82.2,-55.74 73.31,-59 59.5,-59 37.4,-59 27.9,-50.65 31.01,-41.1"/>
<polygon fill="#63b8ff" stroke="#63b8ff" points="89.61,-51.57 87.99,-41.1 82.73,-50.3 89.61,-51.57"/>
</g>
</g>
</svg>
