<?xml version="1.0" encoding="UTF-8" standalone="no"?>
<!DOCTYPE svg PUBLIC "-//W3C//DTD SVG 1.1//EN"
 "http://www.w3.org/Graphics/SVG/1.1/DTD/svg11.dtd">
<!-- Generated by graphviz version 6.0.1 (20220911.1526)
 -->
<!-- Title: elc::defs::core::eval Pages: 1 -->
<svg width="569pt" height="86pt"
 viewBox="0.00 0.00 569.00 86.00" xmlns="http://www.w3.org/2000/svg" xmlns:xlink="http://www.w3.org/1999/xlink">
<g id="graph0" class="graph" transform="scale(1 1) rotate(0) translate(4 82)">
<title>elc::defs::core::eval</title>
<!-- Node1 -->
<g id="node1" class="node">
<title>Node1</title>
<g id="a_node1"><a xlink:title=" ">
<polygon fill="#999999" stroke="#666666" points="101,-48.5 0,-48.5 0,-29.5 101,-29.5 101,-48.5"/>
<text text-anchor="middle" x="50.5" y="-36.5" font-family="Helvetica,sans-Serif" font-size="10.00">elc::defs::core::eval</text>
</a>
</g>
</g>
<!-- Node2 -->
<g id="node2" class="node">
<title>Node2</title>
<g id="a_node2"><a xlink:href="structelc_1_1defs_1_1core_1_1node__like.html#a526e9e81f8d4268007058efba10ef9d5" target="_top" xlink:title=" ">
<polygon fill="white" stroke="#666666" points="259.5,-78 154.5,-78 154.5,-48 259.5,-48 259.5,-78"/>
<text text-anchor="start" x="162.5" y="-66" font-family="Helvetica,sans-Serif" font-size="10.00">elc::defs::core::node</text>
<text text-anchor="middle" x="207" y="-55" font-family="Helvetica,sans-Serif" font-size="10.00">_like::be_eval</text>
</a>
</g>
</g>
<!-- Node1&#45;&gt;Node2 -->
<g id="edge1" class="edge">
<title>Node1&#45;&gt;Node2</title>
<path fill="none" stroke="#63b8ff" d="M101.24,-46.73C114.94,-48.85 129.96,-51.19 144.25,-53.41"/>
<polygon fill="#63b8ff" stroke="#63b8ff" points="144.08,-56.92 154.5,-55 145.15,-50.01 144.08,-56.92"/>
</g>
<!-- Node5 -->
<g id="node5" class="node">
<title>Node5</title>
<g id="a_node5"><a xlink:href="structelc_1_1defs_1_1memory_1_1ptr__n_1_1base__ptr__t.html#a44f476e6f5ff22f85494d86ac2125fb3" target="_top" xlink:title=" ">
<polygon fill="white" stroke="#666666" points="277,-30 137,-30 137,0 277,0 277,-30"/>
<text text-anchor="start" x="145" y="-18" font-family="Helvetica,sans-Serif" font-size="10.00">elc::defs::memory::</text>
<text text-anchor="middle" x="207" y="-7" font-family="Helvetica,sans-Serif" font-size="10.00">ptr_n::base_ptr_t::operator&#45;&gt;</text>
</a>
</g>
</g>
<!-- Node1&#45;&gt;Node5 -->
<g id="edge4" class="edge">
<title>Node1&#45;&gt;Node5</title>
<path fill="none" stroke="#63b8ff" d="M101.24,-31.27C109.5,-29.99 118.25,-28.63 127.04,-27.27"/>
<polygon fill="#63b8ff" stroke="#63b8ff" points="127.59,-30.72 136.94,-25.73 126.52,-23.8 127.59,-30.72"/>
</g>
<!-- Node3 -->
<g id="node3" class="node">
<title>Node3</title>
<g id="a_node3"><a xlink:href="structelc_1_1defs_1_1core_1_1value.html#a2cf6a81b24f203555d1abf9ef870fca2" target="_top" xlink:title=" ">
<polygon fill="white" stroke="#666666" points="419,-78 313,-78 313,-48 419,-48 419,-78"/>
<text text-anchor="start" x="321" y="-66" font-family="Helvetica,sans-Serif" font-size="10.00">elc::defs::core::value</text>
<text text-anchor="middle" x="366" y="-55" font-family="Helvetica,sans-Serif" font-size="10.00">::value</text>
</a>
</g>
</g>
<!-- Node2&#45;&gt;Node3 -->
<g id="edge2" class="edge">
<title>Node2&#45;&gt;Node3</title>
<path fill="none" stroke="#63b8ff" d="M259.84,-63C273.57,-63 288.53,-63 302.75,-63"/>
<polygon fill="#63b8ff" stroke="#63b8ff" points="302.94,-66.5 312.94,-63 302.94,-59.5 302.94,-66.5"/>
</g>
<!-- Node4 -->
<g id="node4" class="node">
<title>Node4</title>
<g id="a_node4"><a xlink:href="structelc_1_1defs_1_1core_1_1value.html#ac529cd09869ccd617a1ac33c6710fdc8" target="_top" xlink:title=" ">
<polygon fill="white" stroke="#666666" points="561,-78 455,-78 455,-48 561,-48 561,-78"/>
<text text-anchor="start" x="463" y="-66" font-family="Helvetica,sans-Serif" font-size="10.00">elc::defs::core::value</text>
<text text-anchor="middle" x="508" y="-55" font-family="Helvetica,sans-Serif" font-size="10.00">::value</text>
</a>
</g>
</g>
<!-- Node3&#45;&gt;Node4 -->
<g id="edge3" class="edge">
<title>Node3&#45;&gt;Node4</title>
<path fill="none" stroke="#63b8ff" d="M419.13,-63C427.42,-63 436.07,-63 444.57,-63"/>
<polygon fill="#63b8ff" stroke="#63b8ff" points="444.83,-66.5 454.83,-63 444.83,-59.5 444.83,-66.5"/>
</g>
</g>
</svg>
