<?xml version="1.0" encoding="UTF-8" standalone="no"?>
<!DOCTYPE svg PUBLIC "-//W3C//DTD SVG 1.1//EN"
 "http://www.w3.org/Graphics/SVG/1.1/DTD/svg11.dtd">
<!-- Generated by graphviz version 6.0.1 (20220911.1526)
 -->
<!-- Title: elc::APIs::die::die_with Pages: 1 -->
<svg width="275pt" height="64pt"
 viewBox="0.00 0.00 275.00 64.00" xmlns="http://www.w3.org/2000/svg" xmlns:xlink="http://www.w3.org/1999/xlink">
<g id="graph0" class="graph" transform="scale(1 1) rotate(0) translate(4 60)">
<title>elc::APIs::die::die_with</title>
<!-- Node1 -->
<g id="node1" class="node">
<title>Node1</title>
<g id="a_node1"><a xlink:title="同 die ，但是有详细的错误信息">
<polygon fill="#999999" stroke="#666666" points="116,-37 0,-37 0,-18 116,-18 116,-37"/>
<text text-anchor="middle" x="58" y="-25" font-family="Helvetica,sans-Serif" font-size="10.00">elc::APIs::die::die_with</text>
</a>
</g>
</g>
<!-- Node2 -->
<g id="node2" class="node">
<title>Node2</title>
<g id="a_node2"><a xlink:href="namespaceelc_1_1defs_1_1base.html#a12372c8c7d8365da6e16353b04c2b3c8" target="_top" xlink:title=" ">
<polygon fill="white" stroke="#666666" points="267,-56 152,-56 152,-37 267,-37 267,-56"/>
<text text-anchor="middle" x="209.5" y="-44" font-family="Helvetica,sans-Serif" font-size="10.00">elc::defs::base::assign</text>
</a>
</g>
</g>
<!-- Node1&#45;&gt;Node2 -->
<g id="edge1" class="edge">
<title>Node1&#45;&gt;Node2</title>
<path fill="none" stroke="#63b8ff" d="M116.37,-34.79C124.57,-35.83 133.06,-36.91 141.42,-37.97"/>
<polygon fill="#63b8ff" stroke="#63b8ff" points="141.17,-41.47 151.53,-39.26 142.05,-34.53 141.17,-41.47"/>
</g>
<!-- Node3 -->
<g id="node3" class="node">
<title>Node3</title>
<g id="a_node3"><a xlink:href="namespaceelc_1_1_a_p_is_1_1die.html#a3ccd3adb91ebb3e2322baf0fed97fce6" target="_top" xlink:title="终止整个程序并可能的触发断点或输出错误信息">
<polygon fill="white" stroke="#666666" points="256.5,-19 162.5,-19 162.5,0 256.5,0 256.5,-19"/>
<text text-anchor="middle" x="209.5" y="-7" font-family="Helvetica,sans-Serif" font-size="10.00">elc::APIs::die::die</text>
</a>
</g>
</g>
<!-- Node1&#45;&gt;Node3 -->
<g id="edge2" class="edge">
<title>Node1&#45;&gt;Node3</title>
<path fill="none" stroke="#63b8ff" d="M116.37,-20.59C128.09,-19.18 140.41,-17.7 152.1,-16.29"/>
<polygon fill="#63b8ff" stroke="#63b8ff" points="152.66,-19.75 162.17,-15.08 151.82,-12.8 152.66,-19.75"/>
</g>
</g>
</svg>
