<?xml version="1.0" encoding="UTF-8" standalone="no"?>
<!DOCTYPE svg PUBLIC "-//W3C//DTD SVG 1.1//EN"
 "http://www.w3.org/Graphics/SVG/1.1/DTD/svg11.dtd">
<!-- Generated by graphviz version 6.0.1 (20220911.1526)
 -->
<!-- Title: elc::defs::memory::abstract_base_n::is_instance_ptr Pages: 1 -->
<svg width="392pt" height="134pt"
 viewBox="0.00 0.00 392.00 134.00" xmlns="http://www.w3.org/2000/svg" xmlns:xlink="http://www.w3.org/1999/xlink">
<g id="graph0" class="graph" transform="scale(1 1) rotate(0) translate(4 130)">
<title>elc::defs::memory::abstract_base_n::is_instance_ptr</title>
<!-- Node1 -->
<g id="node1" class="node">
<title>Node1</title>
<g id="a_node1"><a xlink:title=" ">
<polygon fill="#999999" stroke="#666666" points="102,-83.5 0,-83.5 0,-42.5 102,-42.5 102,-83.5"/>
<text text-anchor="start" x="8" y="-71.5" font-family="Helvetica,sans-Serif" font-size="10.00">elc::defs::memory::</text>
<text text-anchor="start" x="8" y="-60.5" font-family="Helvetica,sans-Serif" font-size="10.00">abstract_base_n::is</text>
<text text-anchor="middle" x="51" y="-49.5" font-family="Helvetica,sans-Serif" font-size="10.00">_instance_ptr</text>
</a>
</g>
</g>
<!-- Node2 -->
<g id="node2" class="node">
<title>Node2</title>
<g id="a_node2"><a xlink:href="namespaceelc_1_1defs_1_1base_1_1note__n.html#ae46aa64f1993a2bdce845a92745e2e65" target="_top" xlink:title=" ">
<polygon fill="white" stroke="#666666" points="243,-126 138,-126 138,-96 243,-96 243,-126"/>
<text text-anchor="start" x="146" y="-114" font-family="Helvetica,sans-Serif" font-size="10.00">elc::defs::base::note</text>
<text text-anchor="middle" x="190.5" y="-103" font-family="Helvetica,sans-Serif" font-size="10.00">_n::from</text>
</a>
</g>
</g>
<!-- Node1&#45;&gt;Node2 -->
<g id="edge1" class="edge">
<title>Node1&#45;&gt;Node2</title>
<path fill="none" stroke="#63b8ff" d="M102.03,-80.46C113.19,-84.36 125.07,-88.51 136.36,-92.45"/>
<polygon fill="#63b8ff" stroke="#63b8ff" points="135.5,-95.85 146.09,-95.85 137.8,-89.25 135.5,-95.85"/>
</g>
<!-- Node3 -->
<g id="node3" class="node">
<title>Node3</title>
<g id="a_node3"><a xlink:href="namespaceelc_1_1defs_1_1base.html#a41806589ddf17cdf0a2da4977ab0dd48" target="_top" xlink:title="获取两个指针的偏移">
<polygon fill="white" stroke="#666666" points="240.5,-78 140.5,-78 140.5,-48 240.5,-48 240.5,-78"/>
<text text-anchor="start" x="148.5" y="-66" font-family="Helvetica,sans-Serif" font-size="10.00">elc::defs::base::get</text>
<text text-anchor="middle" x="190.5" y="-55" font-family="Helvetica,sans-Serif" font-size="10.00">_off_set</text>
</a>
</g>
</g>
<!-- Node1&#45;&gt;Node3 -->
<g id="edge2" class="edge">
<title>Node1&#45;&gt;Node3</title>
<path fill="none" stroke="#63b8ff" d="M102.03,-63C111.16,-63 120.78,-63 130.15,-63"/>
<polygon fill="#63b8ff" stroke="#63b8ff" points="130.2,-66.5 140.2,-63 130.2,-59.5 130.2,-66.5"/>
</g>
<!-- Node5 -->
<g id="node5" class="node">
<title>Node5</title>
<g id="a_node5"><a xlink:href="namespaceelc_1_1defs_1_1base_1_1note__n.html#ab38406a29b5abb1d9d783b44464c338f" target="_top" xlink:title=" ">
<polygon fill="white" stroke="#666666" points="243,-30 138,-30 138,0 243,0 243,-30"/>
<text text-anchor="start" x="146" y="-18" font-family="Helvetica,sans-Serif" font-size="10.00">elc::defs::base::note</text>
<text text-anchor="middle" x="190.5" y="-7" font-family="Helvetica,sans-Serif" font-size="10.00">_n::to</text>
</a>
</g>
</g>
<!-- Node1&#45;&gt;Node5 -->
<g id="edge4" class="edge">
<title>Node1&#45;&gt;Node5</title>
<path fill="none" stroke="#63b8ff" d="M102.03,-45.54C113.19,-41.64 125.07,-37.49 136.36,-33.55"/>
<polygon fill="#63b8ff" stroke="#63b8ff" points="137.8,-36.75 146.09,-30.15 135.5,-30.15 137.8,-36.75"/>
</g>
<!-- Node4 -->
<g id="node4" class="node">
<title>Node4</title>
<g id="a_node4"><a xlink:href="namespaceelc_1_1defs_1_1base.html#a42bcc07affe850b36df50e540ec375de" target="_top" xlink:title=" ">
<polygon fill="white" stroke="#666666" points="384,-78 279,-78 279,-48 384,-48 384,-78"/>
<text text-anchor="start" x="287" y="-66" font-family="Helvetica,sans-Serif" font-size="10.00">elc::defs::base::cast</text>
<text text-anchor="middle" x="331.5" y="-55" font-family="Helvetica,sans-Serif" font-size="10.00">_to_data</text>
</a>
</g>
</g>
<!-- Node3&#45;&gt;Node4 -->
<g id="edge3" class="edge">
<title>Node3&#45;&gt;Node4</title>
<path fill="none" stroke="#63b8ff" d="M240.51,-63C249.58,-63 259.16,-63 268.55,-63"/>
<polygon fill="#63b8ff" stroke="#63b8ff" points="268.64,-66.5 278.64,-63 268.64,-59.5 268.64,-66.5"/>
</g>
</g>
</svg>
