<?xml version="1.0" encoding="UTF-8" standalone="no"?>
<!DOCTYPE svg PUBLIC "-//W3C//DTD SVG 1.1//EN"
 "http://www.w3.org/Graphics/SVG/1.1/DTD/svg11.dtd">
<!-- Generated by graphviz version 6.0.1 (20220911.1526)
 -->
<!-- Title: elc::defs::base::array_like_n::begin_of_array_like Pages: 1 -->
<svg width="310pt" height="116pt"
 viewBox="0.00 0.00 310.00 115.50" xmlns="http://www.w3.org/2000/svg" xmlns:xlink="http://www.w3.org/1999/xlink">
<g id="graph0" class="graph" transform="scale(1 1) rotate(0) translate(4 111.5)">
<title>elc::defs::base::array_like_n::begin_of_array_like</title>
<!-- Node1 -->
<g id="node1" class="node">
<title>Node1</title>
<g id="a_node1"><a xlink:title=" ">
<polygon fill="#999999" stroke="#666666" points="302,-66 165,-66 165,-36 302,-36 302,-66"/>
<text text-anchor="start" x="173" y="-54" font-family="Helvetica,sans-Serif" font-size="10.00">elc::defs::base::array</text>
<text text-anchor="middle" x="233.5" y="-43" font-family="Helvetica,sans-Serif" font-size="10.00">_like_n::begin_of_array_like</text>
</a>
</g>
</g>
<!-- Node1&#45;&gt;Node1 -->
<g id="edge2" class="edge">
<title>Node1&#45;&gt;Node1</title>
<path fill="none" stroke="#63b8ff" d="M263.08,-76.6C259.04,-80.97 249.18,-84 233.5,-84 207.09,-84 197.19,-75.41 203.79,-66.28"/>
<polygon fill="#63b8ff" stroke="#63b8ff" points="266.58,-76.32 263.21,-66.28 259.59,-76.23 266.58,-76.32"/>
</g>
<!-- Node2 -->
<g id="node2" class="node">
<title>Node2</title>
<g id="a_node2"><a xlink:href="structelc_1_1defs_1_1base_1_1array__like__n_1_1array__like__view__t.html#ac46b507403e830572f22fc1f2c4a4361" target="_top" xlink:title=" ">
<polygon fill="white" stroke="#666666" points="124,-107.5 5,-107.5 5,-66.5 124,-66.5 124,-107.5"/>
<text text-anchor="start" x="13" y="-95.5" font-family="Helvetica,sans-Serif" font-size="10.00">elc::defs::base::array</text>
<text text-anchor="start" x="13" y="-84.5" font-family="Helvetica,sans-Serif" font-size="10.00">_like_n::array_like_view</text>
<text text-anchor="middle" x="64.5" y="-73.5" font-family="Helvetica,sans-Serif" font-size="10.00">_t::array_like_view_t</text>
</a>
</g>
</g>
<!-- Node1&#45;&gt;Node2 -->
<g id="edge1" class="edge">
<title>Node1&#45;&gt;Node2</title>
<path fill="none" stroke="#63b8ff" d="M154.79,-67.75C144.52,-69.97 134.14,-72.2 124.26,-74.33"/>
<polygon fill="#63b8ff" stroke="#63b8ff" points="155.54,-71.17 164.57,-65.64 154.06,-64.33 155.54,-71.17"/>
</g>
<!-- Node3 -->
<g id="node3" class="node">
<title>Node3</title>
<g id="a_node3"><a xlink:href="namespaceelc_1_1defs_1_1base_1_1array__like__n.html#af5d2afbaa712e64e40e0d3889cecfb4f" target="_top" xlink:title=" ">
<polygon fill="white" stroke="#666666" points="129,-30 0,-30 0,0 129,0 129,-30"/>
<text text-anchor="start" x="8" y="-18" font-family="Helvetica,sans-Serif" font-size="10.00">elc::defs::base::array</text>
<text text-anchor="middle" x="64.5" y="-7" font-family="Helvetica,sans-Serif" font-size="10.00">_like_n::end_of_array_like</text>
</a>
</g>
</g>
<!-- Node1&#45;&gt;Node3 -->
<g id="edge3" class="edge">
<title>Node1&#45;&gt;Node3</title>
<path fill="none" stroke="#63b8ff" d="M154.59,-34.21C146.04,-32.36 137.4,-30.5 129.05,-28.7"/>
<polygon fill="#63b8ff" stroke="#63b8ff" points="154.06,-37.67 164.57,-36.36 155.54,-30.83 154.06,-37.67"/>
</g>
<!-- Node3&#45;&gt;Node3 -->
<g id="edge4" class="edge">
<title>Node3&#45;&gt;Node3</title>
<path fill="none" stroke="#63b8ff" d="M94.08,-40.6C90.04,-44.97 80.18,-48 64.5,-48 38.09,-48 28.19,-39.41 34.79,-30.28"/>
<polygon fill="#63b8ff" stroke="#63b8ff" points="97.58,-40.32 94.21,-30.28 90.59,-40.23 97.58,-40.32"/>
</g>
</g>
</svg>
