<?xml version="1.0" encoding="UTF-8" standalone="no"?>
<!DOCTYPE svg PUBLIC "-//W3C//DTD SVG 1.1//EN"
 "http://www.w3.org/Graphics/SVG/1.1/DTD/svg11.dtd">
<!-- Generated by graphviz version 6.0.1 (20220911.1526)
 -->
<!-- Title: elc::APIs::library_load::get_load_error Pages: 1 -->
<svg width="285pt" height="56pt"
 viewBox="0.00 0.00 285.00 56.00" xmlns="http://www.w3.org/2000/svg" xmlns:xlink="http://www.w3.org/1999/xlink">
<g id="graph0" class="graph" transform="scale(1 1) rotate(0) translate(4 52)">
<title>elc::APIs::library_load::get_load_error</title>
<!-- Node1 -->
<g id="node1" class="node">
<title>Node1</title>
<g id="a_node1"><a xlink:title=" ">
<polygon fill="#999999" stroke="#666666" points="107,-30 0,-30 0,0 107,0 107,-30"/>
<text text-anchor="start" x="8" y="-18" font-family="Helvetica,sans-Serif" font-size="10.00">elc::APIs::library</text>
<text text-anchor="middle" x="53.5" y="-7" font-family="Helvetica,sans-Serif" font-size="10.00">_load::get_load_error</text>
</a>
</g>
</g>
<!-- Node1&#45;&gt;Node1 -->
<g id="edge3" class="edge">
<title>Node1&#45;&gt;Node1</title>
<path fill="none" stroke="#63b8ff" d="M25.99,-30.28C19.88,-39.41 29.05,-48 53.5,-48 68.02,-48 77.15,-44.97 80.89,-40.6"/>
<polygon fill="#63b8ff" stroke="#63b8ff" points="84.4,-40.31 81.01,-30.28 77.4,-40.24 84.4,-40.31"/>
</g>
<!-- Node2 -->
<g id="node2" class="node">
<title>Node2</title>
<g id="a_node2"><a xlink:href="namespaceelc_1_1_a_p_is_1_1library__load.html#ab6d2372953f2983d27957fecaaeb9f62" target="_top" xlink:title=" ">
<polygon fill="white" stroke="#666666" points="277,-30 143,-30 143,0 277,0 277,-30"/>
<text text-anchor="start" x="151" y="-18" font-family="Helvetica,sans-Serif" font-size="10.00">elc::APIs::library</text>
<text text-anchor="middle" x="210" y="-7" font-family="Helvetica,sans-Serif" font-size="10.00">_load::base_get_load_error</text>
</a>
</g>
</g>
<!-- Node1&#45;&gt;Node2 -->
<g id="edge1" class="edge">
<title>Node1&#45;&gt;Node2</title>
<path fill="none" stroke="#63b8ff" d="M107.24,-15C115.47,-15 124.11,-15 132.74,-15"/>
<polygon fill="#63b8ff" stroke="#63b8ff" points="132.84,-18.5 142.84,-15 132.84,-11.5 132.84,-18.5"/>
</g>
<!-- Node2&#45;&gt;Node2 -->
<g id="edge2" class="edge">
<title>Node2&#45;&gt;Node2</title>
<path fill="none" stroke="#63b8ff" d="M182.49,-30.28C176.38,-39.41 185.55,-48 210,-48 224.52,-48 233.65,-44.97 237.39,-40.6"/>
<polygon fill="#63b8ff" stroke="#63b8ff" points="240.9,-40.31 237.51,-30.28 233.9,-40.24 240.9,-40.31"/>
</g>
</g>
</svg>
