<?xml version="1.0" encoding="UTF-8" standalone="no"?>
<!DOCTYPE svg PUBLIC "-//W3C//DTD SVG 1.1//EN"
 "http://www.w3.org/Graphics/SVG/1.1/DTD/svg11.dtd">
<!-- Generated by graphviz version 6.0.1 (20220911.1526)
 -->
<!-- Title: elc::APIs::library_load::get_symbol Pages: 1 -->
<svg width="262pt" height="56pt"
 viewBox="0.00 0.00 262.00 56.00" xmlns="http://www.w3.org/2000/svg" xmlns:xlink="http://www.w3.org/1999/xlink">
<g id="graph0" class="graph" transform="scale(1 1) rotate(0) translate(4 52)">
<title>elc::APIs::library_load::get_symbol</title>
<!-- Node1 -->
<g id="node1" class="node">
<title>Node1</title>
<g id="a_node1"><a xlink:title=" ">
<polygon fill="#999999" stroke="#666666" points="96,-30 0,-30 0,0 96,0 96,-30"/>
<text text-anchor="start" x="8" y="-18" font-family="Helvetica,sans-Serif" font-size="10.00">elc::APIs::library</text>
<text text-anchor="middle" x="48" y="-7" font-family="Helvetica,sans-Serif" font-size="10.00">_load::get_symbol</text>
</a>
</g>
</g>
<!-- Node1&#45;&gt;Node1 -->
<g id="edge3" class="edge">
<title>Node1&#45;&gt;Node1</title>
<path fill="none" stroke="#63b8ff" d="M22.51,-30.28C16.85,-39.41 25.34,-48 48,-48 61.45,-48 69.91,-44.97 73.38,-40.6"/>
<polygon fill="#63b8ff" stroke="#63b8ff" points="76.88,-40.31 73.49,-30.28 69.88,-40.24 76.88,-40.31"/>
</g>
<!-- Node2 -->
<g id="node2" class="node">
<title>Node2</title>
<g id="a_node2"><a xlink:href="namespaceelc_1_1_a_p_is_1_1library__load.html#a73963cef687e3ef85177db9457f353bb" target="_top" xlink:title=" ">
<polygon fill="white" stroke="#666666" points="254,-30 132,-30 132,0 254,0 254,-30"/>
<text text-anchor="start" x="140" y="-18" font-family="Helvetica,sans-Serif" font-size="10.00">elc::APIs::library</text>
<text text-anchor="middle" x="193" y="-7" font-family="Helvetica,sans-Serif" font-size="10.00">_load::base_get_symbol</text>
</a>
</g>
</g>
<!-- Node1&#45;&gt;Node2 -->
<g id="edge1" class="edge">
<title>Node1&#45;&gt;Node2</title>
<path fill="none" stroke="#63b8ff" d="M96.22,-15C104.41,-15 113.07,-15 121.72,-15"/>
<polygon fill="#63b8ff" stroke="#63b8ff" points="121.82,-18.5 131.82,-15 121.82,-11.5 121.82,-18.5"/>
</g>
<!-- Node2&#45;&gt;Node2 -->
<g id="edge2" class="edge">
<title>Node2&#45;&gt;Node2</title>
<path fill="none" stroke="#63b8ff" d="M167.51,-30.28C161.85,-39.41 170.34,-48 193,-48 206.45,-48 214.91,-44.97 218.38,-40.6"/>
<polygon fill="#63b8ff" stroke="#63b8ff" points="221.88,-40.31 218.49,-30.28 214.88,-40.24 221.88,-40.31"/>
</g>
</g>
</svg>
