<?xml version="1.0" encoding="UTF-8" standalone="no"?>
<!DOCTYPE svg PUBLIC "-//W3C//DTD SVG 1.1//EN"
 "http://www.w3.org/Graphics/SVG/1.1/DTD/svg11.dtd">
<!-- Generated by graphviz version 6.0.1 (20220911.1526)
 -->
<!-- Title: elc::defs::memory::alloc_n::default_method::alloc_method Pages: 1 -->
<svg width="746pt" height="111pt"
 viewBox="0.00 0.00 746.00 110.50" xmlns="http://www.w3.org/2000/svg" xmlns:xlink="http://www.w3.org/1999/xlink">
<g id="graph0" class="graph" transform="scale(1 1) rotate(0) translate(4 106.5)">
<title>elc::defs::memory::alloc_n::default_method::alloc_method</title>
<!-- Node1 -->
<g id="node1" class="node">
<title>Node1</title>
<g id="a_node1"><a xlink:title=" ">
<polygon fill="#999999" stroke="#666666" points="119,-59.5 0,-59.5 0,-18.5 119,-18.5 119,-59.5"/>
<text text-anchor="start" x="8" y="-47.5" font-family="Helvetica,sans-Serif" font-size="10.00">elc::defs::memory::</text>
<text text-anchor="start" x="8" y="-36.5" font-family="Helvetica,sans-Serif" font-size="10.00">alloc_n::default_method</text>
<text text-anchor="middle" x="59.5" y="-25.5" font-family="Helvetica,sans-Serif" font-size="10.00">::alloc_method</text>
</a>
</g>
</g>
<!-- Node2 -->
<g id="node2" class="node">
<title>Node2</title>
<g id="a_node2"><a xlink:href="namespaceelc_1_1defs_1_1memory_1_1alloc__n_1_1default__method.html#a0304b5366d9907f769dac7e6dac8cd42" target="_top" xlink:title=" ">
<polygon fill="white" stroke="#666666" points="274,-84.5 155,-84.5 155,-43.5 274,-43.5 274,-84.5"/>
<text text-anchor="start" x="163" y="-72.5" font-family="Helvetica,sans-Serif" font-size="10.00">elc::defs::memory::</text>
<text text-anchor="start" x="163" y="-61.5" font-family="Helvetica,sans-Serif" font-size="10.00">alloc_n::default_method</text>
<text text-anchor="middle" x="214.5" y="-50.5" font-family="Helvetica,sans-Serif" font-size="10.00">::alloc_method</text>
</a>
</g>
</g>
<!-- Node1&#45;&gt;Node2 -->
<g id="edge1" class="edge">
<title>Node1&#45;&gt;Node2</title>
<path fill="none" stroke="#63b8ff" d="M119.22,-48.59C127.64,-49.97 136.36,-51.4 144.95,-52.8"/>
<polygon fill="#63b8ff" stroke="#63b8ff" points="144.51,-56.27 154.94,-54.43 145.64,-49.36 144.51,-56.27"/>
</g>
<!-- Node3 -->
<g id="node3" class="node">
<title>Node3</title>
<g id="a_node3"><a xlink:href="namespaceelc_1_1defs_1_1memory_1_1alloc__n_1_1default__method.html#a78a0fa1d20f89ed4b04c66ea762e9051" target="_top" xlink:title="Allocates aligned memory.">
<polygon fill="white" stroke="#666666" points="429,-59.5 310,-59.5 310,-18.5 429,-18.5 429,-59.5"/>
<text text-anchor="start" x="318" y="-47.5" font-family="Helvetica,sans-Serif" font-size="10.00">elc::defs::memory::</text>
<text text-anchor="start" x="318" y="-36.5" font-family="Helvetica,sans-Serif" font-size="10.00">alloc_n::default_method</text>
<text text-anchor="middle" x="369.5" y="-25.5" font-family="Helvetica,sans-Serif" font-size="10.00">::base_aligned_alloc</text>
</a>
</g>
</g>
<!-- Node1&#45;&gt;Node3 -->
<g id="edge9" class="edge">
<title>Node1&#45;&gt;Node3</title>
<path fill="none" stroke="#63b8ff" d="M119.22,-36.13C131.06,-35.66 143.43,-35.24 155,-35 207.88,-33.88 221.12,-33.88 274,-35 282.32,-35.18 291.05,-35.44 299.7,-35.75"/>
<polygon fill="#63b8ff" stroke="#63b8ff" points="299.66,-39.25 309.78,-36.13 299.92,-32.25 299.66,-39.25"/>
</g>
<!-- Node2&#45;&gt;Node2 -->
<g id="edge2" class="edge">
<title>Node2&#45;&gt;Node2</title>
<path fill="none" stroke="#63b8ff" d="M186.01,-84.6C182.9,-94.15 192.4,-102.5 214.5,-102.5 228.31,-102.5 237.2,-99.24 241.17,-94.46"/>
<polygon fill="#63b8ff" stroke="#63b8ff" points="244.61,-95.07 242.99,-84.6 237.73,-93.8 244.61,-95.07"/>
</g>
<!-- Node2&#45;&gt;Node3 -->
<g id="edge3" class="edge">
<title>Node2&#45;&gt;Node3</title>
<path fill="none" stroke="#63b8ff" d="M274.22,-54.41C282.64,-53.03 291.36,-51.6 299.95,-50.2"/>
<polygon fill="#63b8ff" stroke="#63b8ff" points="300.64,-53.64 309.94,-48.57 299.51,-46.73 300.64,-53.64"/>
</g>
<!-- Node3&#45;&gt;Node3 -->
<g id="edge8" class="edge">
<title>Node3&#45;&gt;Node3</title>
<path fill="none" stroke="#63b8ff" d="M341.01,-59.6C337.9,-69.15 347.4,-77.5 369.5,-77.5 383.31,-77.5 392.2,-74.24 396.17,-69.46"/>
<polygon fill="#63b8ff" stroke="#63b8ff" points="399.61,-70.07 397.99,-59.6 392.73,-68.8 399.61,-70.07"/>
</g>
<!-- Node4 -->
<g id="node4" class="node">
<title>Node4</title>
<g id="a_node4"><a xlink:href="namespaceelc_1_1_a_p_is_1_1alloc.html#af1389f594af5ccc37accd580df042dd3" target="_top" xlink:title=" ">
<polygon fill="white" stroke="#666666" points="584,-54 465,-54 465,-24 584,-24 584,-54"/>
<text text-anchor="start" x="473" y="-42" font-family="Helvetica,sans-Serif" font-size="10.00">elc::APIs::alloc::aligned</text>
<text text-anchor="middle" x="524.5" y="-31" font-family="Helvetica,sans-Serif" font-size="10.00">_alloc</text>
</a>
</g>
</g>
<!-- Node3&#45;&gt;Node4 -->
<g id="edge4" class="edge">
<title>Node3&#45;&gt;Node4</title>
<path fill="none" stroke="#63b8ff" d="M429.22,-39C437.54,-39 446.17,-39 454.67,-39"/>
<polygon fill="#63b8ff" stroke="#63b8ff" points="454.94,-42.5 464.94,-39 454.94,-35.5 454.94,-42.5"/>
</g>
<!-- Node4&#45;&gt;Node4 -->
<g id="edge5" class="edge">
<title>Node4&#45;&gt;Node4</title>
<path fill="none" stroke="#63b8ff" d="M497.34,-54.28C491.31,-63.41 500.36,-72 524.5,-72 538.83,-72 547.85,-68.97 551.54,-64.6"/>
<polygon fill="#63b8ff" stroke="#63b8ff" points="555.05,-64.31 551.66,-54.28 548.05,-64.24 555.05,-64.31"/>
</g>
<!-- Node5 -->
<g id="node5" class="node">
<title>Node5</title>
<g id="a_node5"><a xlink:href="structelc_1_1_a_p_is_1_1alloc_1_1source__location__info__t.html#a14576ef17c256c280d8fd991d99114df" target="_top" xlink:title=" ">
<polygon fill="white" stroke="#666666" points="738,-78 620,-78 620,-48 738,-48 738,-78"/>
<text text-anchor="start" x="628" y="-66" font-family="Helvetica,sans-Serif" font-size="10.00">elc::APIs::alloc::source</text>
<text text-anchor="middle" x="679" y="-55" font-family="Helvetica,sans-Serif" font-size="10.00">_location_info_t::file</text>
</a>
</g>
</g>
<!-- Node4&#45;&gt;Node5 -->
<g id="edge6" class="edge">
<title>Node4&#45;&gt;Node5</title>
<path fill="none" stroke="#63b8ff" d="M584.02,-48.21C592.48,-49.54 601.24,-50.92 609.86,-52.28"/>
<polygon fill="#63b8ff" stroke="#63b8ff" points="609.46,-55.76 619.88,-53.85 610.55,-48.84 609.46,-55.76"/>
</g>
<!-- Node6 -->
<g id="node6" class="node">
<title>Node6</title>
<g id="a_node6"><a xlink:href="structelc_1_1_a_p_is_1_1alloc_1_1source__location__info__t.html#aa7ac39eab58162d605f8435d2cdc8d40" target="_top" xlink:title=" ">
<polygon fill="white" stroke="#666666" points="738,-30 620,-30 620,0 738,0 738,-30"/>
<text text-anchor="start" x="628" y="-18" font-family="Helvetica,sans-Serif" font-size="10.00">elc::APIs::alloc::source</text>
<text text-anchor="middle" x="679" y="-7" font-family="Helvetica,sans-Serif" font-size="10.00">_location_info_t::line</text>
</a>
</g>
</g>
<!-- Node4&#45;&gt;Node6 -->
<g id="edge7" class="edge">
<title>Node4&#45;&gt;Node6</title>
<path fill="none" stroke="#63b8ff" d="M584.02,-29.79C592.48,-28.46 601.24,-27.08 609.86,-25.72"/>
<polygon fill="#63b8ff" stroke="#63b8ff" points="610.55,-29.16 619.88,-24.15 609.46,-22.24 610.55,-29.16"/>
</g>
</g>
</svg>
