<?xml version="1.0" encoding="UTF-8" standalone="no"?>
<!DOCTYPE svg PUBLIC "-//W3C//DTD SVG 1.1//EN"
 "http://www.w3.org/Graphics/SVG/1.1/DTD/svg11.dtd">
<!-- Generated by graphviz version 6.0.1 (20220911.1526)
 -->
<!-- Title: elc::APIs::alloc::overhead_n::recorrect_pointer Pages: 1 -->
<svg width="643pt" height="86pt"
 viewBox="0.00 0.00 643.00 86.00" xmlns="http://www.w3.org/2000/svg" xmlns:xlink="http://www.w3.org/1999/xlink">
<g id="graph0" class="graph" transform="scale(1 1) rotate(0) translate(4 82)">
<title>elc::APIs::alloc::overhead_n::recorrect_pointer</title>
<!-- Node1 -->
<g id="node1" class="node">
<title>Node1</title>
<g id="a_node1"><a xlink:title=" ">
<polygon fill="#999999" stroke="#666666" points="127,-60 0,-60 0,-30 127,-30 127,-60"/>
<text text-anchor="start" x="8" y="-48" font-family="Helvetica,sans-Serif" font-size="10.00">elc::APIs::alloc::overhead</text>
<text text-anchor="middle" x="63.5" y="-37" font-family="Helvetica,sans-Serif" font-size="10.00">_n::recorrect_pointer</text>
</a>
</g>
</g>
<!-- Node2 -->
<g id="node2" class="node">
<title>Node2</title>
<g id="a_node2"><a xlink:href="namespaceelc_1_1_a_p_is_1_1alloc_1_1overhead__n.html#a2ba086e3190c088ca3c11a6e09980c9c" target="_top" xlink:title=" ">
<polygon fill="white" stroke="#666666" points="472,-60 326,-60 326,-30 472,-30 472,-60"/>
<text text-anchor="start" x="334" y="-48" font-family="Helvetica,sans-Serif" font-size="10.00">elc::APIs::alloc::overhead</text>
<text text-anchor="middle" x="399" y="-37" font-family="Helvetica,sans-Serif" font-size="10.00">_n::overhead_get_offset_value</text>
</a>
</g>
</g>
<!-- Node1&#45;&gt;Node2 -->
<g id="edge1" class="edge">
<title>Node1&#45;&gt;Node2</title>
<path fill="none" stroke="#63b8ff" d="M127.19,-53.79C139.06,-55.13 151.39,-56.3 163,-57 219.34,-60.42 233.64,-60.12 290,-57 298.33,-56.54 307,-55.88 315.65,-55.1"/>
<polygon fill="#63b8ff" stroke="#63b8ff" points="316.14,-58.57 325.77,-54.14 315.48,-51.6 316.14,-58.57"/>
</g>
<!-- Node4 -->
<g id="node4" class="node">
<title>Node4</title>
<g id="a_node4"><a xlink:href="namespaceelc_1_1_a_p_is_1_1alloc_1_1overhead__n.html#a6117203826e84ecdbd6a847b63344851" target="_top" xlink:title=" ">
<polygon fill="white" stroke="#666666" points="290,-30 163,-30 163,0 290,0 290,-30"/>
<text text-anchor="start" x="171" y="-18" font-family="Helvetica,sans-Serif" font-size="10.00">elc::APIs::alloc::overhead</text>
<text text-anchor="middle" x="226.5" y="-7" font-family="Helvetica,sans-Serif" font-size="10.00">_n::recorrect_pointer</text>
</a>
</g>
</g>
<!-- Node1&#45;&gt;Node4 -->
<g id="edge5" class="edge">
<title>Node1&#45;&gt;Node4</title>
<path fill="none" stroke="#63b8ff" d="M127.21,-33.32C135.65,-31.74 144.36,-30.12 152.96,-28.52"/>
<polygon fill="#63b8ff" stroke="#63b8ff" points="153.77,-31.93 162.96,-26.65 152.49,-25.04 153.77,-31.93"/>
</g>
<!-- Node2&#45;&gt;Node2 -->
<g id="edge4" class="edge">
<title>Node2&#45;&gt;Node2</title>
<path fill="none" stroke="#63b8ff" d="M368.68,-60.28C361.94,-69.41 372.05,-78 399,-78 415,-78 425.07,-74.97 429.19,-70.6"/>
<polygon fill="#63b8ff" stroke="#63b8ff" points="432.7,-70.32 429.32,-60.28 425.7,-70.23 432.7,-70.32"/>
</g>
<!-- Node3 -->
<g id="node3" class="node">
<title>Node3</title>
<g id="a_node3"><a xlink:href="namespaceelc_1_1_a_p_is_1_1alloc_1_1overhead__n.html#a8b792e6d02266492cbfa82da4abc2c37" target="_top" xlink:title=" ">
<polygon fill="white" stroke="#666666" points="635,-60 508,-60 508,-30 635,-30 635,-60"/>
<text text-anchor="start" x="516" y="-48" font-family="Helvetica,sans-Serif" font-size="10.00">elc::APIs::alloc::overhead</text>
<text text-anchor="middle" x="571.5" y="-37" font-family="Helvetica,sans-Serif" font-size="10.00">_n::overhead_get_align</text>
</a>
</g>
</g>
<!-- Node2&#45;&gt;Node3 -->
<g id="edge2" class="edge">
<title>Node2&#45;&gt;Node3</title>
<path fill="none" stroke="#63b8ff" d="M472.31,-45C480.7,-45 489.26,-45 497.65,-45"/>
<polygon fill="#63b8ff" stroke="#63b8ff" points="497.79,-48.5 507.79,-45 497.79,-41.5 497.79,-48.5"/>
</g>
<!-- Node3&#45;&gt;Node3 -->
<g id="edge3" class="edge">
<title>Node3&#45;&gt;Node3</title>
<path fill="none" stroke="#63b8ff" d="M541.18,-60.28C534.44,-69.41 544.55,-78 571.5,-78 587.5,-78 597.57,-74.97 601.69,-70.6"/>
<polygon fill="#63b8ff" stroke="#63b8ff" points="605.2,-70.32 601.82,-60.28 598.2,-70.23 605.2,-70.32"/>
</g>
<!-- Node4&#45;&gt;Node2 -->
<g id="edge6" class="edge">
<title>Node4&#45;&gt;Node2</title>
<path fill="none" stroke="#63b8ff" d="M290.02,-26C298.51,-27.49 307.33,-29.05 316.1,-30.59"/>
<polygon fill="#63b8ff" stroke="#63b8ff" points="315.51,-34.04 325.96,-32.33 316.72,-27.15 315.51,-34.04"/>
</g>
<!-- Node4&#45;&gt;Node4 -->
<g id="edge7" class="edge">
<title>Node4&#45;&gt;Node4</title>
<path fill="none" stroke="#63b8ff" d="M197.85,-30.28C191.48,-39.41 201.03,-48 226.5,-48 241.62,-48 251.13,-44.97 255.03,-40.6"/>
<polygon fill="#63b8ff" stroke="#63b8ff" points="258.53,-40.32 255.15,-30.28 251.54,-40.23 258.53,-40.32"/>
</g>
</g>
</svg>
