<?xml version="1.0" encoding="UTF-8" standalone="no"?>
<!DOCTYPE svg PUBLIC "-//W3C//DTD SVG 1.1//EN"
 "http://www.w3.org/Graphics/SVG/1.1/DTD/svg11.dtd">
<!-- Generated by graphviz version 6.0.1 (20220911.1526)
 -->
<!-- Title: elc::defs::base::range_n::in_range Pages: 1 -->
<svg width="437pt" height="110pt"
 viewBox="0.00 0.00 437.00 109.50" xmlns="http://www.w3.org/2000/svg" xmlns:xlink="http://www.w3.org/1999/xlink">
<g id="graph0" class="graph" transform="scale(1 1) rotate(0) translate(4 105.5)">
<title>elc::defs::base::range_n::in_range</title>
<!-- Node1 -->
<g id="node1" class="node">
<title>Node1</title>
<g id="a_node1"><a xlink:title=" ">
<polygon fill="#999999" stroke="#666666" points="110,-59.5 0,-59.5 0,-29.5 110,-29.5 110,-59.5"/>
<text text-anchor="start" x="8" y="-47.5" font-family="Helvetica,sans-Serif" font-size="10.00">elc::defs::base::range</text>
<text text-anchor="middle" x="55" y="-36.5" font-family="Helvetica,sans-Serif" font-size="10.00">_n::in_range</text>
</a>
</g>
</g>
<!-- Node2 -->
<g id="node2" class="node">
<title>Node2</title>
<g id="a_node2"><a xlink:href="namespaceelc_1_1defs_1_1base_1_1range__n.html#ace6a3a9d079214ee7bcce5acbef1e07f" target="_top" xlink:title="判断一个值是否在某个范围内">
<polygon fill="white" stroke="#666666" points="265,-83.5 155,-83.5 155,-53.5 265,-53.5 265,-83.5"/>
<text text-anchor="start" x="163" y="-71.5" font-family="Helvetica,sans-Serif" font-size="10.00">elc::defs::base::range</text>
<text text-anchor="middle" x="210" y="-60.5" font-family="Helvetica,sans-Serif" font-size="10.00">_n::in_range</text>
</a>
</g>
</g>
<!-- Node1&#45;&gt;Node2 -->
<g id="edge1" class="edge">
<title>Node1&#45;&gt;Node2</title>
<path fill="none" stroke="#63b8ff" d="M110.37,-53.03C121.53,-54.78 133.38,-56.64 144.85,-58.44"/>
<polygon fill="#63b8ff" stroke="#63b8ff" points="144.38,-61.91 154.8,-60 145.47,-54.99 144.38,-61.91"/>
</g>
<!-- Node3 -->
<g id="node3" class="node">
<title>Node3</title>
<g id="a_node3"><a xlink:href="structelc_1_1defs_1_1base_1_1range__n_1_1match__pattern.html#a3a2612a90697ed108398363ac21e5e15" target="_top" xlink:title=" ">
<polygon fill="white" stroke="#666666" points="274,-35.5 146,-35.5 146,-5.5 274,-5.5 274,-35.5"/>
<text text-anchor="start" x="154" y="-23.5" font-family="Helvetica,sans-Serif" font-size="10.00">elc::defs::base::range</text>
<text text-anchor="middle" x="210" y="-12.5" font-family="Helvetica,sans-Serif" font-size="10.00">_n::match_pattern::match</text>
</a>
</g>
</g>
<!-- Node1&#45;&gt;Node3 -->
<g id="edge3" class="edge">
<title>Node1&#45;&gt;Node3</title>
<path fill="none" stroke="#63b8ff" d="M110.37,-35.97C118.65,-34.67 127.3,-33.32 135.89,-31.97"/>
<polygon fill="#63b8ff" stroke="#63b8ff" points="136.59,-35.4 145.92,-30.39 135.5,-28.49 136.59,-35.4"/>
</g>
<!-- Node2&#45;&gt;Node2 -->
<g id="edge2" class="edge">
<title>Node2&#45;&gt;Node2</title>
<path fill="none" stroke="#63b8ff" d="M182.75,-83.78C176.7,-92.91 185.78,-101.5 210,-101.5 224.38,-101.5 233.42,-98.47 237.13,-94.1"/>
<polygon fill="#63b8ff" stroke="#63b8ff" points="240.63,-93.81 237.25,-83.78 233.63,-93.74 240.63,-93.81"/>
</g>
<!-- Node4 -->
<g id="node4" class="node">
<title>Node4</title>
<g id="a_node4"><a xlink:href="structelc_1_1defs_1_1base_1_1array__like__n_1_1array__like__view__t.html#a117c302e797b7abf98c037211c3a1753" target="_top" xlink:title=" ">
<polygon fill="white" stroke="#666666" points="429,-41 310,-41 310,0 429,0 429,-41"/>
<text text-anchor="start" x="318" y="-29" font-family="Helvetica,sans-Serif" font-size="10.00">elc::defs::base::array</text>
<text text-anchor="start" x="318" y="-18" font-family="Helvetica,sans-Serif" font-size="10.00">_like_n::array_like_view</text>
<text text-anchor="middle" x="369.5" y="-7" font-family="Helvetica,sans-Serif" font-size="10.00">_t::size</text>
</a>
</g>
</g>
<!-- Node3&#45;&gt;Node4 -->
<g id="edge4" class="edge">
<title>Node3&#45;&gt;Node4</title>
<path fill="none" stroke="#63b8ff" d="M274.15,-20.5C282.55,-20.5 291.19,-20.5 299.68,-20.5"/>
<polygon fill="#63b8ff" stroke="#63b8ff" points="299.93,-24 309.93,-20.5 299.93,-17 299.93,-24"/>
</g>
</g>
</svg>
