<?xml version="1.0" encoding="UTF-8" standalone="no"?>
<!DOCTYPE svg PUBLIC "-//W3C//DTD SVG 1.1//EN"
 "http://www.w3.org/Graphics/SVG/1.1/DTD/svg11.dtd">
<!-- Generated by graphviz version 6.0.1 (20220911.1526)
 -->
<!-- Title: elc::defs::memory::get_n::forward_alloc_size_grow Pages: 1 -->
<svg width="249pt" height="67pt"
 viewBox="0.00 0.00 249.00 67.00" xmlns="http://www.w3.org/2000/svg" xmlns:xlink="http://www.w3.org/1999/xlink">
<g id="graph0" class="graph" transform="scale(1 1) rotate(0) translate(4 63)">
<title>elc::defs::memory::get_n::forward_alloc_size_grow</title>
<!-- Node1 -->
<g id="node1" class="node">
<title>Node1</title>
<g id="a_node1"><a xlink:title="向前扩大数据块大小并转移原有实例的生命周期，但并不构造新的实例">
<polygon fill="#999999" stroke="#666666" points="103,-41 0,-41 0,0 103,0 103,-41"/>
<text text-anchor="start" x="8" y="-29" font-family="Helvetica,sans-Serif" font-size="10.00">elc::defs::memory::</text>
<text text-anchor="start" x="8" y="-18" font-family="Helvetica,sans-Serif" font-size="10.00">get_n::forward_alloc</text>
<text text-anchor="middle" x="51.5" y="-7" font-family="Helvetica,sans-Serif" font-size="10.00">_size_grow</text>
</a>
</g>
</g>
<!-- Node1&#45;&gt;Node1 -->
<g id="edge2" class="edge">
<title>Node1&#45;&gt;Node1</title>
<path fill="none" stroke="#63b8ff" d="M26.04,-41.1C23.27,-50.65 31.75,-59 51.5,-59 63.53,-59 71.38,-55.9 75.05,-51.32"/>
<polygon fill="#63b8ff" stroke="#63b8ff" points="78.57,-51.57 76.96,-41.1 71.69,-50.29 78.57,-51.57"/>
</g>
<!-- Node2 -->
<g id="node2" class="node">
<title>Node2</title>
<g id="a_node2"><a xlink:href="namespaceelc_1_1defs_1_1base.html#aae9be6874a7dd367db08a9a6e1d65639" target="_top" xlink:title="对值追加const">
<polygon fill="white" stroke="#666666" points="241,-35.5 139,-35.5 139,-5.5 241,-5.5 241,-35.5"/>
<text text-anchor="start" x="147" y="-23.5" font-family="Helvetica,sans-Serif" font-size="10.00">elc::defs::base::add</text>
<text text-anchor="middle" x="190" y="-12.5" font-family="Helvetica,sans-Serif" font-size="10.00">_const</text>
</a>
</g>
</g>
<!-- Node1&#45;&gt;Node2 -->
<g id="edge1" class="edge">
<title>Node1&#45;&gt;Node2</title>
<path fill="none" stroke="#63b8ff" d="M103.33,-20.5C111.52,-20.5 120.07,-20.5 128.46,-20.5"/>
<polygon fill="#63b8ff" stroke="#63b8ff" points="128.58,-24 138.58,-20.5 128.58,-17 128.58,-24"/>
</g>
</g>
</svg>
