<?xml version="1.0" encoding="UTF-8" standalone="no"?>
<!DOCTYPE svg PUBLIC "-//W3C//DTD SVG 1.1//EN"
 "http://www.w3.org/Graphics/SVG/1.1/DTD/svg11.dtd">
<!-- Generated by graphviz version 6.0.1 (20220911.1526)
 -->
<!-- Title: elc::defs::base::range_n::find_last_not_of Pages: 1 -->
<svg width="438pt" height="170pt"
 viewBox="0.00 0.00 438.00 170.00" xmlns="http://www.w3.org/2000/svg" xmlns:xlink="http://www.w3.org/1999/xlink">
<g id="graph0" class="graph" transform="scale(1 1) rotate(0) translate(4 166)">
<title>elc::defs::base::range_n::find_last_not_of</title>
<!-- Node1 -->
<g id="node1" class="node">
<title>Node1</title>
<g id="a_node1"><a xlink:title="若成功找到不匹配的数据项，返回其开头，若未找到，返回nullptr">
<polygon fill="#999999" stroke="#666666" points="110,-78 0,-78 0,-48 110,-48 110,-78"/>
<text text-anchor="start" x="8" y="-66" font-family="Helvetica,sans-Serif" font-size="10.00">elc::defs::base::range</text>
<text text-anchor="middle" x="55" y="-55" font-family="Helvetica,sans-Serif" font-size="10.00">_n::find_last_not_of</text>
</a>
</g>
</g>
<!-- Node1&#45;&gt;Node1 -->
<g id="edge5" class="edge">
<title>Node1&#45;&gt;Node1</title>
<path fill="none" stroke="#63b8ff" d="M26.88,-78.28C20.62,-87.41 30,-96 55,-96 69.84,-96 79.18,-92.97 83.01,-88.6"/>
<polygon fill="#63b8ff" stroke="#63b8ff" points="86.51,-88.32 83.12,-78.28 79.51,-88.23 86.51,-88.32"/>
</g>
<!-- Node2 -->
<g id="node2" class="node">
<title>Node2</title>
<g id="a_node2"><a xlink:href="namespaceelc_1_1defs_1_1base_1_1range__n.html#a6510d1d98b41ed6eed5b8e7f82282618" target="_top" xlink:title="find_last_not_of的朴素实现 若成功找到不匹配的数据项，返回其开头，若未找到，返回nullptr">
<polygon fill="white" stroke="#666666" points="278.5,-144 151.5,-144 151.5,-114 278.5,-114 278.5,-144"/>
<text text-anchor="start" x="159.5" y="-132" font-family="Helvetica,sans-Serif" font-size="10.00">elc::defs::base::range</text>
<text text-anchor="middle" x="215" y="-121" font-family="Helvetica,sans-Serif" font-size="10.00">_n::base_find_last_not_of</text>
</a>
</g>
</g>
<!-- Node1&#45;&gt;Node2 -->
<g id="edge1" class="edge">
<title>Node1&#45;&gt;Node2</title>
<path fill="none" stroke="#63b8ff" d="M86.5,-78.13C103.77,-86.48 125.89,-96.78 146,-105 150.47,-106.83 155.14,-108.65 159.85,-110.43"/>
<polygon fill="#63b8ff" stroke="#63b8ff" points="158.91,-113.81 169.5,-114 161.34,-107.25 158.91,-113.81"/>
</g>
<!-- Node4 -->
<g id="node4" class="node">
<title>Node4</title>
<g id="a_node4"><a xlink:href="namespaceelc_1_1defs_1_1base_1_1range__n.html#a8fb22aefdce465da055c710889985bd8" target="_top" xlink:title="find_last_not_of的bitmark实现 若成功找到不匹配的数据项，返回其开头，若未找到，返回nullptr">
<polygon fill="white" stroke="#666666" points="284,-78 146,-78 146,-48 284,-48 284,-78"/>
<text text-anchor="start" x="154" y="-66" font-family="Helvetica,sans-Serif" font-size="10.00">elc::defs::base::range</text>
<text text-anchor="middle" x="215" y="-55" font-family="Helvetica,sans-Serif" font-size="10.00">_n::find_last_not_of_bitmark</text>
</a>
</g>
</g>
<!-- Node1&#45;&gt;Node4 -->
<g id="edge6" class="edge">
<title>Node1&#45;&gt;Node4</title>
<path fill="none" stroke="#63b8ff" d="M110.37,-63C118.59,-63 127.19,-63 135.79,-63"/>
<polygon fill="#63b8ff" stroke="#63b8ff" points="135.85,-66.5 145.85,-63 135.85,-59.5 135.85,-66.5"/>
</g>
<!-- Node5 -->
<g id="node5" class="node">
<title>Node5</title>
<g id="a_node5"><a xlink:href="structelc_1_1defs_1_1base_1_1range__n_1_1bitmark__for__finds.html#aac0eaf6119a2810bc00351cb3c7030e0" target="_top" xlink:title=" ">
<polygon fill="white" stroke="#666666" points="282,-30 148,-30 148,0 282,0 282,-30"/>
<text text-anchor="start" x="156" y="-18" font-family="Helvetica,sans-Serif" font-size="10.00">elc::defs::base::range</text>
<text text-anchor="middle" x="215" y="-7" font-family="Helvetica,sans-Serif" font-size="10.00">_n::bitmark_for_finds::mark</text>
</a>
</g>
</g>
<!-- Node1&#45;&gt;Node5 -->
<g id="edge8" class="edge">
<title>Node1&#45;&gt;Node5</title>
<path fill="none" stroke="#63b8ff" d="M105.56,-47.94C121.15,-43.21 138.52,-37.93 154.71,-33.01"/>
<polygon fill="#63b8ff" stroke="#63b8ff" points="156.07,-36.26 164.62,-30 154.03,-29.56 156.07,-36.26"/>
</g>
<!-- Node2&#45;&gt;Node2 -->
<g id="edge2" class="edge">
<title>Node2&#45;&gt;Node2</title>
<path fill="none" stroke="#63b8ff" d="M186.88,-144.28C180.62,-153.41 190,-162 215,-162 229.84,-162 239.18,-158.97 243.01,-154.6"/>
<polygon fill="#63b8ff" stroke="#63b8ff" points="246.51,-154.32 243.12,-144.28 239.51,-154.23 246.51,-154.32"/>
</g>
<!-- Node3 -->
<g id="node3" class="node">
<title>Node3</title>
<g id="a_node3"><a xlink:href="namespaceelc_1_1defs_1_1base_1_1range__n.html#ace6a3a9d079214ee7bcce5acbef1e07f" target="_top" xlink:title="判断一个值是否在某个范围内">
<polygon fill="white" stroke="#666666" points="430,-144 320,-144 320,-114 430,-114 430,-144"/>
<text text-anchor="start" x="328" y="-132" font-family="Helvetica,sans-Serif" font-size="10.00">elc::defs::base::range</text>
<text text-anchor="middle" x="375" y="-121" font-family="Helvetica,sans-Serif" font-size="10.00">_n::in_range</text>
</a>
</g>
</g>
<!-- Node2&#45;&gt;Node3 -->
<g id="edge3" class="edge">
<title>Node2&#45;&gt;Node3</title>
<path fill="none" stroke="#63b8ff" d="M278.9,-129C289.1,-129 299.67,-129 309.9,-129"/>
<polygon fill="#63b8ff" stroke="#63b8ff" points="309.98,-132.5 319.98,-129 309.98,-125.5 309.98,-132.5"/>
</g>
<!-- Node3&#45;&gt;Node3 -->
<g id="edge4" class="edge">
<title>Node3&#45;&gt;Node3</title>
<path fill="none" stroke="#63b8ff" d="M346.88,-144.28C340.62,-153.41 350,-162 375,-162 389.84,-162 399.18,-158.97 403.01,-154.6"/>
<polygon fill="#63b8ff" stroke="#63b8ff" points="406.51,-154.32 403.12,-144.28 399.51,-154.23 406.51,-154.32"/>
</g>
<!-- Node4&#45;&gt;Node4 -->
<g id="edge7" class="edge">
<title>Node4&#45;&gt;Node4</title>
<path fill="none" stroke="#63b8ff" d="M186.88,-78.28C180.62,-87.41 190,-96 215,-96 229.84,-96 239.18,-92.97 243.01,-88.6"/>
<polygon fill="#63b8ff" stroke="#63b8ff" points="246.51,-88.32 243.12,-78.28 239.51,-88.23 246.51,-88.32"/>
</g>
</g>
</svg>
