<?xml version="1.0" encoding="UTF-8" standalone="no"?>
<!DOCTYPE svg PUBLIC "-//W3C//DTD SVG 1.1//EN"
 "http://www.w3.org/Graphics/SVG/1.1/DTD/svg11.dtd">
<!-- Generated by graphviz version 6.0.1 (20220911.1526)
 -->
<!-- Title: elc::defs::memory::alloc_n::default_method::free_method Pages: 1 -->
<svg width="422pt" height="116pt"
 viewBox="0.00 0.00 422.00 115.50" xmlns="http://www.w3.org/2000/svg" xmlns:xlink="http://www.w3.org/1999/xlink">
<g id="graph0" class="graph" transform="scale(1 1) rotate(0) translate(4 111.5)">
<title>elc::defs::memory::alloc_n::default_method::free_method</title>
<!-- Node1 -->
<g id="node1" class="node">
<title>Node1</title>
<g id="a_node1"><a xlink:title=" ">
<polygon fill="#999999" stroke="#666666" points="119,-62.5 0,-62.5 0,-21.5 119,-21.5 119,-62.5"/>
<text text-anchor="start" x="8" y="-50.5" font-family="Helvetica,sans-Serif" font-size="10.00">elc::defs::memory::</text>
<text text-anchor="start" x="8" y="-39.5" font-family="Helvetica,sans-Serif" font-size="10.00">alloc_n::default_method</text>
<text text-anchor="middle" x="59.5" y="-28.5" font-family="Helvetica,sans-Serif" font-size="10.00">::free_method</text>
</a>
</g>
</g>
<!-- Node1&#45;&gt;Node1 -->
<g id="edge5" class="edge">
<title>Node1&#45;&gt;Node1</title>
<path fill="none" stroke="#63b8ff" d="M31.01,-62.6C27.9,-72.15 37.4,-80.5 59.5,-80.5 73.31,-80.5 82.2,-77.24 86.17,-72.46"/>
<polygon fill="#63b8ff" stroke="#63b8ff" points="89.61,-73.07 87.99,-62.6 82.73,-71.8 89.61,-73.07"/>
</g>
<!-- Node2 -->
<g id="node2" class="node">
<title>Node2</title>
<g id="a_node2"><a xlink:href="namespaceelc_1_1defs_1_1memory_1_1alloc__n_1_1default__method.html#add76d8b1616f294069340cfe8accc68a" target="_top" xlink:title="Frees a pointer allocated by base_alloc.">
<polygon fill="white" stroke="#666666" points="274,-89.5 155,-89.5 155,-48.5 274,-48.5 274,-89.5"/>
<text text-anchor="start" x="163" y="-77.5" font-family="Helvetica,sans-Serif" font-size="10.00">elc::defs::memory::</text>
<text text-anchor="start" x="163" y="-66.5" font-family="Helvetica,sans-Serif" font-size="10.00">alloc_n::default_method</text>
<text text-anchor="middle" x="214.5" y="-55.5" font-family="Helvetica,sans-Serif" font-size="10.00">::base_free</text>
</a>
</g>
</g>
<!-- Node1&#45;&gt;Node2 -->
<g id="edge1" class="edge">
<title>Node1&#45;&gt;Node2</title>
<path fill="none" stroke="#63b8ff" d="M119.22,-52.36C127.64,-53.85 136.36,-55.39 144.95,-56.9"/>
<polygon fill="#63b8ff" stroke="#63b8ff" points="144.48,-60.37 154.94,-58.67 145.7,-53.48 144.48,-60.37"/>
</g>
<!-- Node4 -->
<g id="node4" class="node">
<title>Node4</title>
<g id="a_node4"><a xlink:href="namespaceelc_1_1defs_1_1base.html#a51f0e6e825e683bbef6baeb2921de485" target="_top" xlink:title=" ">
<polygon fill="white" stroke="#666666" points="267,-30 162,-30 162,0 267,0 267,-30"/>
<text text-anchor="start" x="170" y="-18" font-family="Helvetica,sans-Serif" font-size="10.00">elc::defs::base::cast</text>
<text text-anchor="middle" x="214.5" y="-7" font-family="Helvetica,sans-Serif" font-size="10.00">_to_data</text>
</a>
</g>
</g>
<!-- Node1&#45;&gt;Node4 -->
<g id="edge4" class="edge">
<title>Node1&#45;&gt;Node4</title>
<path fill="none" stroke="#63b8ff" d="M119.22,-31.64C129.82,-29.77 140.9,-27.81 151.59,-25.93"/>
<polygon fill="#63b8ff" stroke="#63b8ff" points="152.45,-29.33 161.69,-24.14 151.23,-22.43 152.45,-29.33"/>
</g>
<!-- Node2&#45;&gt;Node2 -->
<g id="edge2" class="edge">
<title>Node2&#45;&gt;Node2</title>
<path fill="none" stroke="#63b8ff" d="M187.39,-89.6C184.43,-99.15 193.47,-107.5 214.5,-107.5 227.64,-107.5 236.1,-104.24 239.88,-99.46"/>
<polygon fill="#63b8ff" stroke="#63b8ff" points="243.33,-100.05 241.61,-89.6 236.43,-98.84 243.33,-100.05"/>
</g>
<!-- Node3 -->
<g id="node3" class="node">
<title>Node3</title>
<g id="a_node3"><a xlink:href="namespaceelc_1_1_a_p_is_1_1alloc.html#a19f47c2da2744212ed08fed6fef669af" target="_top" xlink:title=" ">
<polygon fill="white" stroke="#666666" points="414,-78.5 310,-78.5 310,-59.5 414,-59.5 414,-78.5"/>
<text text-anchor="middle" x="362" y="-66.5" font-family="Helvetica,sans-Serif" font-size="10.00">elc::APIs::alloc::free</text>
</a>
</g>
</g>
<!-- Node2&#45;&gt;Node3 -->
<g id="edge3" class="edge">
<title>Node2&#45;&gt;Node3</title>
<path fill="none" stroke="#63b8ff" d="M274.26,-69C282.67,-69 291.34,-69 299.8,-69"/>
<polygon fill="#63b8ff" stroke="#63b8ff" points="299.98,-72.5 309.98,-69 299.98,-65.5 299.98,-72.5"/>
</g>
</g>
</svg>
