<?xml version="1.0" encoding="UTF-8" standalone="no"?>
<!DOCTYPE svg PUBLIC "-//W3C//DTD SVG 1.1//EN"
 "http://www.w3.org/Graphics/SVG/1.1/DTD/svg11.dtd">
<!-- Generated by graphviz version 6.0.1 (20220911.1526)
 -->
<!-- Title: elc::defs::base::is_eq Pages: 1 -->
<svg width="261pt" height="157pt"
 viewBox="0.00 0.00 261.00 157.00" xmlns="http://www.w3.org/2000/svg" xmlns:xlink="http://www.w3.org/1999/xlink">
<g id="graph0" class="graph" transform="scale(1 1) rotate(0) translate(4 153)">
<title>elc::defs::base::is_eq</title>
<!-- Node1 -->
<g id="node1" class="node">
<title>Node1</title>
<g id="a_node1"><a xlink:title=" ">
<polygon fill="#999999" stroke="#666666" points="253,-84 143,-84 143,-65 253,-65 253,-84"/>
<text text-anchor="middle" x="198" y="-72" font-family="Helvetica,sans-Serif" font-size="10.00">elc::defs::base::is_eq</text>
</a>
</g>
</g>
<!-- Node2 -->
<g id="node2" class="node">
<title>Node2</title>
<g id="a_node2"><a xlink:href="classelc_1_1defs_1_1container_1_1hash__table__n_1_1hash__table__t.html#aa816ddd47857dd047c06f87f3da6dba9" target="_top" xlink:title=" ">
<polygon fill="white" stroke="#666666" points="107,-149 0,-149 0,-108 107,-108 107,-149"/>
<text text-anchor="start" x="8" y="-137" font-family="Helvetica,sans-Serif" font-size="10.00">elc::defs::container</text>
<text text-anchor="start" x="8" y="-126" font-family="Helvetica,sans-Serif" font-size="10.00">::hash_table_n::hash</text>
<text text-anchor="middle" x="53.5" y="-115" font-family="Helvetica,sans-Serif" font-size="10.00">_table_t::find</text>
</a>
</g>
</g>
<!-- Node1&#45;&gt;Node2 -->
<g id="edge1" class="edge">
<title>Node1&#45;&gt;Node2</title>
<path fill="none" stroke="#63b8ff" d="M162.07,-87.74C145.54,-94 125.45,-101.61 107.13,-108.56"/>
<polygon fill="#63b8ff" stroke="#63b8ff" points="163.74,-90.85 171.85,-84.03 161.26,-84.3 163.74,-90.85"/>
</g>
<!-- Node3 -->
<g id="node3" class="node">
<title>Node3</title>
<g id="a_node3"><a xlink:href="namespaceelc_1_1defs_1_1base.html#af458f7a4f6a254355d78b78afef39235" target="_top" xlink:title=" ">
<polygon fill="white" stroke="#666666" points="100.5,-89.5 6.5,-89.5 6.5,-59.5 100.5,-59.5 100.5,-89.5"/>
<text text-anchor="start" x="14.5" y="-77.5" font-family="Helvetica,sans-Serif" font-size="10.00">elc::defs::base::is</text>
<text text-anchor="middle" x="53.5" y="-66.5" font-family="Helvetica,sans-Serif" font-size="10.00">_not_eq</text>
</a>
</g>
</g>
<!-- Node1&#45;&gt;Node3 -->
<g id="edge2" class="edge">
<title>Node1&#45;&gt;Node3</title>
<path fill="none" stroke="#63b8ff" d="M132.53,-74.5C121.81,-74.5 110.88,-74.5 100.73,-74.5"/>
<polygon fill="#63b8ff" stroke="#63b8ff" points="132.72,-78 142.72,-74.5 132.72,-71 132.72,-78"/>
</g>
<!-- Node4 -->
<g id="node4" class="node">
<title>Node4</title>
<g id="a_node4"><a xlink:href="classelc_1_1defs_1_1container_1_1hash__table__n_1_1hash__table__t.html#a6f05e565bced5222d17d04da6b359ee1" target="_top" xlink:title=" ">
<polygon fill="white" stroke="#666666" points="107,-41 0,-41 0,0 107,0 107,-41"/>
<text text-anchor="start" x="8" y="-29" font-family="Helvetica,sans-Serif" font-size="10.00">elc::defs::container</text>
<text text-anchor="start" x="8" y="-18" font-family="Helvetica,sans-Serif" font-size="10.00">::hash_table_n::hash</text>
<text text-anchor="middle" x="53.5" y="-7" font-family="Helvetica,sans-Serif" font-size="10.00">_table_t::remove</text>
</a>
</g>
</g>
<!-- Node1&#45;&gt;Node4 -->
<g id="edge3" class="edge">
<title>Node1&#45;&gt;Node4</title>
<path fill="none" stroke="#63b8ff" d="M162.07,-61.26C145.54,-55 125.45,-47.39 107.13,-40.44"/>
<polygon fill="#63b8ff" stroke="#63b8ff" points="161.26,-64.7 171.85,-64.97 163.74,-58.15 161.26,-64.7"/>
</g>
</g>
</svg>
