<?xml version="1.0" encoding="UTF-8" standalone="no"?>
<!DOCTYPE svg PUBLIC "-//W3C//DTD SVG 1.1//EN"
 "http://www.w3.org/Graphics/SVG/1.1/DTD/svg11.dtd">
<!-- Generated by graphviz version 6.0.1 (20220911.1526)
 -->
<!-- Title: elc::defs::memory::get_n::alloc_size_grow Pages: 1 -->
<svg width="261pt" height="108pt"
 viewBox="0.00 0.00 261.00 108.00" xmlns="http://www.w3.org/2000/svg" xmlns:xlink="http://www.w3.org/1999/xlink">
<g id="graph0" class="graph" transform="scale(1 1) rotate(0) translate(4 104)">
<title>elc::defs::memory::get_n::alloc_size_grow</title>
<!-- Node1 -->
<g id="node1" class="node">
<title>Node1</title>
<g id="a_node1"><a xlink:title="向后扩大数据块大小并转移原有实例的生命周期，但并不构造新的实例">
<polygon fill="#999999" stroke="#666666" points="253,-64.5 137,-64.5 137,-34.5 253,-34.5 253,-64.5"/>
<text text-anchor="start" x="145" y="-52.5" font-family="Helvetica,sans-Serif" font-size="10.00">elc::defs::memory::</text>
<text text-anchor="middle" x="195" y="-41.5" font-family="Helvetica,sans-Serif" font-size="10.00">get_n::alloc_size_grow</text>
</a>
</g>
</g>
<!-- Node1&#45;&gt;Node1 -->
<g id="edge1" class="edge">
<title>Node1&#45;&gt;Node1</title>
<path fill="none" stroke="#63b8ff" d="M220.29,-75.1C216.84,-79.47 208.41,-82.5 195,-82.5 172.42,-82.5 163.96,-73.91 169.6,-64.78"/>
<polygon fill="#63b8ff" stroke="#63b8ff" points="223.8,-74.81 220.4,-64.78 216.8,-74.74 223.8,-74.81"/>
</g>
<!-- Node2 -->
<g id="node2" class="node">
<title>Node2</title>
<g id="a_node2"><a xlink:href="structelc_1_1defs_1_1memory_1_1get__n_1_1get__resize__t.html#a8d53d8b101c60956d97b008b07e2dd1c" target="_top" xlink:title=" ">
<polygon fill="white" stroke="#666666" points="101,-100 0,-100 0,-59 101,-59 101,-100"/>
<text text-anchor="start" x="8" y="-88" font-family="Helvetica,sans-Serif" font-size="10.00">elc::defs::memory::</text>
<text text-anchor="start" x="8" y="-77" font-family="Helvetica,sans-Serif" font-size="10.00">get_n::get_resize_t</text>
<text text-anchor="middle" x="50.5" y="-66" font-family="Helvetica,sans-Serif" font-size="10.00">::base_call</text>
</a>
</g>
</g>
<!-- Node1&#45;&gt;Node2 -->
<g id="edge2" class="edge">
<title>Node1&#45;&gt;Node2</title>
<path fill="none" stroke="#63b8ff" d="M126.83,-63.64C118.23,-65.45 109.56,-67.28 101.3,-69.02"/>
<polygon fill="#63b8ff" stroke="#63b8ff" points="127.8,-67.01 136.86,-61.53 126.35,-60.16 127.8,-67.01"/>
</g>
<!-- Node3 -->
<g id="node3" class="node">
<title>Node3</title>
<g id="a_node3"><a xlink:href="structelc_1_1defs_1_1memory_1_1get__n_1_1get__t_1_1apply__end__t.html#a33a1f68ebf8115a4d59e201856a9be21" target="_top" xlink:title=" ">
<polygon fill="white" stroke="#666666" points="101,-41 0,-41 0,0 101,0 101,-41"/>
<text text-anchor="start" x="8" y="-29" font-family="Helvetica,sans-Serif" font-size="10.00">elc::defs::memory::</text>
<text text-anchor="start" x="8" y="-18" font-family="Helvetica,sans-Serif" font-size="10.00">get_n::get_t::apply</text>
<text text-anchor="middle" x="50.5" y="-7" font-family="Helvetica,sans-Serif" font-size="10.00">_end_t::operator()</text>
</a>
</g>
</g>
<!-- Node1&#45;&gt;Node3 -->
<g id="edge3" class="edge">
<title>Node1&#45;&gt;Node3</title>
<path fill="none" stroke="#63b8ff" d="M126.83,-35.83C118.23,-34.08 109.56,-32.32 101.3,-30.64"/>
<polygon fill="#63b8ff" stroke="#63b8ff" points="126.36,-39.31 136.86,-37.87 127.76,-32.45 126.36,-39.31"/>
</g>
</g>
</svg>
