<?xml version="1.0" encoding="UTF-8" standalone="no"?>
<!DOCTYPE svg PUBLIC "-//W3C//DTD SVG 1.1//EN"
 "http://www.w3.org/Graphics/SVG/1.1/DTD/svg11.dtd">
<!-- Generated by graphviz version 6.0.1 (20220911.1526)
 -->
<!-- Title: elc::defs::core::eval Pages: 1 -->
<svg width="256pt" height="100pt"
 viewBox="0.00 0.00 256.00 100.00" xmlns="http://www.w3.org/2000/svg" xmlns:xlink="http://www.w3.org/1999/xlink">
<g id="graph0" class="graph" transform="scale(1 1) rotate(0) translate(4 96)">
<title>elc::defs::core::eval</title>
<!-- Node1 -->
<g id="node1" class="node">
<title>Node1</title>
<g id="a_node1"><a xlink:title=" ">
<polygon fill="#999999" stroke="#666666" points="101,-46 0,-46 0,-27 101,-27 101,-46"/>
<text text-anchor="middle" x="50.5" y="-34" font-family="Helvetica,sans-Serif" font-size="10.00">elc::defs::core::eval</text>
</a>
</g>
</g>
<!-- Node2 -->
<g id="node2" class="node">
<title>Node2</title>
<g id="a_node2"><a xlink:href="namespaceelc_1_1defs_1_1core.html#aa4b6b0e46887c02cd097d74031157c5f" target="_top" xlink:title=" ">
<polygon fill="white" stroke="#666666" points="248,-74 137,-74 137,-55 248,-55 248,-74"/>
<text text-anchor="middle" x="192.5" y="-62" font-family="Helvetica,sans-Serif" font-size="10.00">elc::defs::core::as_ptr</text>
</a>
</g>
</g>
<!-- Node1&#45;&gt;Node2 -->
<g id="edge1" class="edge">
<title>Node1&#45;&gt;Node2</title>
<path fill="none" stroke="#63b8ff" d="M99.29,-46.06C110.44,-48.29 122.43,-50.69 133.95,-52.99"/>
<polygon fill="#63b8ff" stroke="#63b8ff" points="133.43,-56.46 143.93,-54.99 134.81,-49.59 133.43,-56.46"/>
</g>
<!-- Node3 -->
<g id="node3" class="node">
<title>Node3</title>
<g id="a_node3"><a xlink:href="namespaceelc_1_1defs_1_1core.html#a25facafc70fea8b2815220792440c9aa" target="_top" xlink:title=" ">
<polygon fill="white" stroke="#666666" points="243,-19 142,-19 142,0 243,0 243,-19"/>
<text text-anchor="middle" x="192.5" y="-7" font-family="Helvetica,sans-Serif" font-size="10.00">elc::defs::core::eval</text>
</a>
</g>
</g>
<!-- Node1&#45;&gt;Node3 -->
<g id="edge3" class="edge">
<title>Node1&#45;&gt;Node3</title>
<path fill="none" stroke="#63b8ff" d="M100.86,-26.98C111,-25.02 121.78,-22.95 132.23,-20.93"/>
<polygon fill="#63b8ff" stroke="#63b8ff" points="132.96,-24.35 142.12,-19.02 131.63,-17.48 132.96,-24.35"/>
</g>
<!-- Node2&#45;&gt;Node2 -->
<g id="edge2" class="edge">
<title>Node2&#45;&gt;Node2</title>
<path fill="none" stroke="#63b8ff" d="M170.61,-74.08C159.97,-82.73 167.26,-92 192.5,-92 208.67,-92 217.47,-88.2 218.91,-83.19"/>
<polygon fill="#63b8ff" stroke="#63b8ff" points="221.97,-81.48 214.39,-74.08 215.7,-84.6 221.97,-81.48"/>
</g>
<!-- Node3&#45;&gt;Node3 -->
<g id="edge4" class="edge">
<title>Node3&#45;&gt;Node3</title>
<path fill="none" stroke="#63b8ff" d="M170.61,-19.08C159.97,-27.73 167.26,-37 192.5,-37 208.67,-37 217.47,-33.2 218.91,-28.19"/>
<polygon fill="#63b8ff" stroke="#63b8ff" points="221.97,-26.48 214.39,-19.08 215.7,-29.6 221.97,-26.48"/>
</g>
</g>
</svg>
