<?xml version="1.0" encoding="UTF-8" standalone="no"?>
<!DOCTYPE svg PUBLIC "-//W3C//DTD SVG 1.1//EN"
 "http://www.w3.org/Graphics/SVG/1.1/DTD/svg11.dtd">
<!-- Generated by graphviz version 6.0.1 (20220911.1526)
 -->
<!-- Title: elc::defs::memory::get_n::forward_alloc_size_grow_with_insert_uninitialized_data Pages: 1 -->
<svg width="303pt" height="78pt"
 viewBox="0.00 0.00 303.00 78.00" xmlns="http://www.w3.org/2000/svg" xmlns:xlink="http://www.w3.org/1999/xlink">
<g id="graph0" class="graph" transform="scale(1 1) rotate(0) translate(4 74)">
<title>elc::defs::memory::get_n::forward_alloc_size_grow_with_insert_uninitialized_data</title>
<!-- Node1 -->
<g id="node1" class="node">
<title>Node1</title>
<g id="a_node1"><a xlink:title="在指定位置插入未初始化数据块并转移原有实例的生命周期，但并不构造新的实例 若有多余的大小，追加到前端">
<polygon fill="#999999" stroke="#666666" points="295,-52 178,-52 178,0 295,0 295,-52"/>
<text text-anchor="start" x="186" y="-40" font-family="Helvetica,sans-Serif" font-size="10.00">elc::defs::memory::</text>
<text text-anchor="start" x="186" y="-29" font-family="Helvetica,sans-Serif" font-size="10.00">get_n::forward_alloc</text>
<text text-anchor="start" x="186" y="-18" font-family="Helvetica,sans-Serif" font-size="10.00">_size_grow_with_insert</text>
<text text-anchor="middle" x="236.5" y="-7" font-family="Helvetica,sans-Serif" font-size="10.00">_uninitialized_data</text>
</a>
</g>
</g>
<!-- Node1&#45;&gt;Node1 -->
<g id="edge1" class="edge">
<title>Node1&#45;&gt;Node1</title>
<path fill="none" stroke="#63b8ff" d="M264.17,-61.76C259.6,-66.7 250.37,-70 236.5,-70 214.84,-70 204.52,-61.96 205.54,-52.2"/>
<polygon fill="#63b8ff" stroke="#63b8ff" points="267.51,-62.79 267.46,-52.2 260.89,-60.51 267.51,-62.79"/>
</g>
<!-- Node2 -->
<g id="node2" class="node">
<title>Node2</title>
<g id="a_node2"><a xlink:href="structelc_1_1defs_1_1memory_1_1get__n_1_1get__forward__resize__t_1_1insert__resize__t.html#a38fed9d6d0ed03bf462e7faf4224584e" target="_top" xlink:title=" ">
<polygon fill="white" stroke="#666666" points="142,-46.5 0,-46.5 0,-5.5 142,-5.5 142,-46.5"/>
<text text-anchor="start" x="8" y="-34.5" font-family="Helvetica,sans-Serif" font-size="10.00">elc::defs::memory::</text>
<text text-anchor="start" x="8" y="-23.5" font-family="Helvetica,sans-Serif" font-size="10.00">get_n::get_forward_resize</text>
<text text-anchor="middle" x="71" y="-12.5" font-family="Helvetica,sans-Serif" font-size="10.00">_t::insert_resize_t::operator()</text>
</a>
</g>
</g>
<!-- Node1&#45;&gt;Node2 -->
<g id="edge2" class="edge">
<title>Node1&#45;&gt;Node2</title>
<path fill="none" stroke="#63b8ff" d="M167.66,-26C159.19,-26 150.52,-26 142.03,-26"/>
<polygon fill="#63b8ff" stroke="#63b8ff" points="167.86,-29.5 177.86,-26 167.86,-22.5 167.86,-29.5"/>
</g>
</g>
</svg>
