<?xml version="1.0" encoding="UTF-8" standalone="no"?>
<!DOCTYPE svg PUBLIC "-//W3C//DTD SVG 1.1//EN"
 "http://www.w3.org/Graphics/SVG/1.1/DTD/svg11.dtd">
<!-- Generated by graphviz version 6.0.1 (20220911.1526)
 -->
<!-- Title: elc::defs::core::car_of Pages: 1 -->
<svg width="265pt" height="100pt"
 viewBox="0.00 0.00 265.00 100.00" xmlns="http://www.w3.org/2000/svg" xmlns:xlink="http://www.w3.org/1999/xlink">
<g id="graph0" class="graph" transform="scale(1 1) rotate(0) translate(4 96)">
<title>elc::defs::core::car_of</title>
<!-- Node1 -->
<g id="node1" class="node">
<title>Node1</title>
<g id="a_node1"><a xlink:title=" ">
<polygon fill="#999999" stroke="#666666" points="110,-46 0,-46 0,-27 110,-27 110,-46"/>
<text text-anchor="middle" x="55" y="-34" font-family="Helvetica,sans-Serif" font-size="10.00">elc::defs::core::car_of</text>
</a>
</g>
</g>
<!-- Node2 -->
<g id="node2" class="node">
<title>Node2</title>
<g id="a_node2"><a xlink:href="namespaceelc_1_1defs_1_1core.html#aa4b6b0e46887c02cd097d74031157c5f" target="_top" xlink:title=" ">
<polygon fill="white" stroke="#666666" points="257,-74 146,-74 146,-55 257,-55 257,-74"/>
<text text-anchor="middle" x="201.5" y="-62" font-family="Helvetica,sans-Serif" font-size="10.00">elc::defs::core::as_ptr</text>
</a>
</g>
</g>
<!-- Node1&#45;&gt;Node2 -->
<g id="edge1" class="edge">
<title>Node1&#45;&gt;Node2</title>
<path fill="none" stroke="#63b8ff" d="M105.32,-46.06C116.95,-48.31 129.46,-50.73 141.46,-53.06"/>
<polygon fill="#63b8ff" stroke="#63b8ff" points="140.91,-56.52 151.4,-54.99 142.25,-49.65 140.91,-56.52"/>
</g>
<!-- Node3 -->
<g id="node3" class="node">
<title>Node3</title>
<g id="a_node3"><a xlink:href="namespaceelc_1_1defs_1_1core.html#a72636fe7dced40c72eb59b1d7e77e15e" target="_top" xlink:title=" ">
<polygon fill="white" stroke="#666666" points="256.5,-19 146.5,-19 146.5,0 256.5,0 256.5,-19"/>
<text text-anchor="middle" x="201.5" y="-7" font-family="Helvetica,sans-Serif" font-size="10.00">elc::defs::core::car_of</text>
</a>
</g>
</g>
<!-- Node1&#45;&gt;Node3 -->
<g id="edge3" class="edge">
<title>Node1&#45;&gt;Node3</title>
<path fill="none" stroke="#63b8ff" d="M106.95,-26.98C117.52,-25 128.77,-22.9 139.66,-20.87"/>
<polygon fill="#63b8ff" stroke="#63b8ff" points="140.34,-24.3 149.53,-19.02 139.05,-17.42 140.34,-24.3"/>
</g>
<!-- Node2&#45;&gt;Node2 -->
<g id="edge2" class="edge">
<title>Node2&#45;&gt;Node2</title>
<path fill="none" stroke="#63b8ff" d="M178.92,-74.08C167.94,-82.73 175.46,-92 201.5,-92 218.18,-92 227.26,-88.2 228.75,-83.19"/>
<polygon fill="#63b8ff" stroke="#63b8ff" points="231.76,-81.38 224.08,-74.08 225.53,-84.58 231.76,-81.38"/>
</g>
<!-- Node3&#45;&gt;Node3 -->
<g id="edge4" class="edge">
<title>Node3&#45;&gt;Node3</title>
<path fill="none" stroke="#63b8ff" d="M178.92,-19.08C167.94,-27.73 175.46,-37 201.5,-37 218.18,-37 227.26,-33.2 228.75,-28.19"/>
<polygon fill="#63b8ff" stroke="#63b8ff" points="231.76,-26.38 224.08,-19.08 225.53,-29.58 231.76,-26.38"/>
</g>
</g>
</svg>
