<?xml version="1.0" encoding="UTF-8" standalone="no"?>
<!DOCTYPE svg PUBLIC "-//W3C//DTD SVG 1.1//EN"
 "http://www.w3.org/Graphics/SVG/1.1/DTD/svg11.dtd">
<!-- Generated by graphviz version 6.0.1 (20220911.1526)
 -->
<!-- Title: elc::defs::base::is_all_byte_zero Pages: 1 -->
<svg width="424pt" height="249pt"
 viewBox="0.00 0.00 424.00 248.50" xmlns="http://www.w3.org/2000/svg" xmlns:xlink="http://www.w3.org/1999/xlink">
<g id="graph0" class="graph" transform="scale(1 1) rotate(0) translate(4 244.5)">
<title>elc::defs::base::is_all_byte_zero</title>
<!-- Node1 -->
<g id="node1" class="node">
<title>Node1</title>
<g id="a_node1"><a xlink:title="Returns true if all bytes in the input are zero.">
<polygon fill="#999999" stroke="#666666" points="416,-143 322,-143 322,-113 416,-113 416,-143"/>
<text text-anchor="start" x="330" y="-131" font-family="Helvetica,sans-Serif" font-size="10.00">elc::defs::base::is</text>
<text text-anchor="middle" x="369" y="-120" font-family="Helvetica,sans-Serif" font-size="10.00">_all_byte_zero</text>
</a>
</g>
</g>
<!-- Node2 -->
<g id="node2" class="node">
<title>Node2</title>
<g id="a_node2"><a xlink:href="namespaceelc_1_1defs_1_1memory_1_1lifetime__n.html#a3538502ddcc1662696b0ae3144d249a2" target="_top" xlink:title=" ">
<polygon fill="white" stroke="#666666" points="286,-148.5 167,-148.5 167,-107.5 286,-107.5 286,-148.5"/>
<text text-anchor="start" x="175" y="-136.5" font-family="Helvetica,sans-Serif" font-size="10.00">elc::defs::memory::</text>
<text text-anchor="start" x="175" y="-125.5" font-family="Helvetica,sans-Serif" font-size="10.00">lifetime_n::super_speed</text>
<text text-anchor="middle" x="226.5" y="-114.5" font-family="Helvetica,sans-Serif" font-size="10.00">_trivial_copy_from_one</text>
</a>
</g>
</g>
<!-- Node1&#45;&gt;Node2 -->
<g id="edge1" class="edge">
<title>Node1&#45;&gt;Node2</title>
<path fill="none" stroke="#63b8ff" d="M311.86,-128C303.41,-128 294.67,-128 286.17,-128"/>
<polygon fill="#63b8ff" stroke="#63b8ff" points="312,-131.5 322,-128 312,-124.5 312,-131.5"/>
</g>
<!-- Node2&#45;&gt;Node2 -->
<g id="edge6" class="edge">
<title>Node2&#45;&gt;Node2</title>
<path fill="none" stroke="#63b8ff" d="M251.02,-158.46C247.37,-163.24 239.2,-166.5 226.5,-166.5 206.18,-166.5 197.45,-158.15 200.31,-148.6"/>
<polygon fill="#63b8ff" stroke="#63b8ff" points="254.47,-159.04 252.69,-148.6 247.57,-157.87 254.47,-159.04"/>
</g>
<!-- Node3 -->
<g id="node3" class="node">
<title>Node3</title>
<g id="a_node3"><a xlink:href="structelc_1_1defs_1_1memory_1_1lifetime__n_1_1copy__construct__t.html#a75b915df2e2b4e93193e334bb7c42268" target="_top" xlink:title=" ">
<polygon fill="white" stroke="#666666" points="131,-240.5 0,-240.5 0,-199.5 131,-199.5 131,-240.5"/>
<text text-anchor="start" x="8" y="-228.5" font-family="Helvetica,sans-Serif" font-size="10.00">elc::defs::memory::</text>
<text text-anchor="start" x="8" y="-217.5" font-family="Helvetica,sans-Serif" font-size="10.00">lifetime_n::copy_construct</text>
<text text-anchor="middle" x="65.5" y="-206.5" font-family="Helvetica,sans-Serif" font-size="10.00">_t::base_call</text>
</a>
</g>
</g>
<!-- Node2&#45;&gt;Node3 -->
<g id="edge2" class="edge">
<title>Node2&#45;&gt;Node3</title>
<path fill="none" stroke="#63b8ff" d="M188.73,-154.57C171.6,-166.41 150.69,-180.11 131,-191 125.74,-193.91 120.12,-196.77 114.49,-199.49"/>
<polygon fill="#63b8ff" stroke="#63b8ff" points="191.13,-157.17 197.32,-148.57 187.12,-151.43 191.13,-157.17"/>
</g>
<!-- Node4 -->
<g id="node4" class="node">
<title>Node4</title>
<g id="a_node4"><a xlink:href="structelc_1_1defs_1_1memory_1_1lifetime__n_1_1copy__assign__t.html#a366c255258da93e353c0d6697737fb43" target="_top" xlink:title=" ">
<polygon fill="white" stroke="#666666" points="125,-181.5 6,-181.5 6,-140.5 125,-140.5 125,-181.5"/>
<text text-anchor="start" x="14" y="-169.5" font-family="Helvetica,sans-Serif" font-size="10.00">elc::defs::memory::</text>
<text text-anchor="start" x="14" y="-158.5" font-family="Helvetica,sans-Serif" font-size="10.00">lifetime_n::copy_assign</text>
<text text-anchor="middle" x="65.5" y="-147.5" font-family="Helvetica,sans-Serif" font-size="10.00">_t::base_call</text>
</a>
</g>
</g>
<!-- Node2&#45;&gt;Node4 -->
<g id="edge3" class="edge">
<title>Node2&#45;&gt;Node4</title>
<path fill="none" stroke="#63b8ff" d="M156.72,-142.28C146.15,-144.47 135.33,-146.71 125.01,-148.86"/>
<polygon fill="#63b8ff" stroke="#63b8ff" points="157.67,-145.65 166.75,-140.19 156.24,-138.8 157.67,-145.65"/>
</g>
<!-- Node5 -->
<g id="node5" class="node">
<title>Node5</title>
<g id="a_node5"><a xlink:href="structelc_1_1defs_1_1memory_1_1lifetime__n_1_1construct__t_1_1array__construct__t.html#a0aceccd57ab2896b35c9d34c4405543f" target="_top" xlink:title=" ">
<polygon fill="white" stroke="#666666" points="119,-122 12,-122 12,-70 119,-70 119,-122"/>
<text text-anchor="start" x="20" y="-110" font-family="Helvetica,sans-Serif" font-size="10.00">elc::defs::memory::</text>
<text text-anchor="start" x="20" y="-99" font-family="Helvetica,sans-Serif" font-size="10.00">lifetime_n::construct</text>
<text text-anchor="start" x="20" y="-88" font-family="Helvetica,sans-Serif" font-size="10.00">_t::array_construct_t</text>
<text text-anchor="middle" x="65.5" y="-77" font-family="Helvetica,sans-Serif" font-size="10.00">::operator()</text>
</a>
</g>
</g>
<!-- Node2&#45;&gt;Node5 -->
<g id="edge4" class="edge">
<title>Node2&#45;&gt;Node5</title>
<path fill="none" stroke="#63b8ff" d="M156.77,-114.17C144.19,-111.64 131.25,-109.03 119.24,-106.61"/>
<polygon fill="#63b8ff" stroke="#63b8ff" points="156.25,-117.63 166.75,-116.18 157.63,-110.77 156.25,-117.63"/>
</g>
<!-- Node6 -->
<g id="node6" class="node">
<title>Node6</title>
<g id="a_node6"><a xlink:href="structelc_1_1defs_1_1memory_1_1lifetime__n_1_1construct__t_1_1placement__construct__t.html#aefbbeca8eefbcdd2b1361f82168e9ed8" target="_top" xlink:title=" ">
<polygon fill="white" stroke="#666666" points="126.5,-52 4.5,-52 4.5,0 126.5,0 126.5,-52"/>
<text text-anchor="start" x="12.5" y="-40" font-family="Helvetica,sans-Serif" font-size="10.00">elc::defs::memory::</text>
<text text-anchor="start" x="12.5" y="-29" font-family="Helvetica,sans-Serif" font-size="10.00">lifetime_n::construct</text>
<text text-anchor="start" x="12.5" y="-18" font-family="Helvetica,sans-Serif" font-size="10.00">_t::placement_construct</text>
<text text-anchor="middle" x="65.5" y="-7" font-family="Helvetica,sans-Serif" font-size="10.00">_t::operator()</text>
</a>
</g>
</g>
<!-- Node2&#45;&gt;Node6 -->
<g id="edge5" class="edge">
<title>Node2&#45;&gt;Node6</title>
<path fill="none" stroke="#63b8ff" d="M190.17,-101.43C172.7,-88.69 151.1,-73.52 131,-61 126.24,-58.04 121.21,-55.06 116.15,-52.16"/>
<polygon fill="#63b8ff" stroke="#63b8ff" points="188.26,-104.37 198.39,-107.47 192.4,-98.73 188.26,-104.37"/>
</g>
</g>
</svg>
