<?xml version="1.0" encoding="UTF-8" standalone="no"?>
<!DOCTYPE svg PUBLIC "-//W3C//DTD SVG 1.1//EN"
 "http://www.w3.org/Graphics/SVG/1.1/DTD/svg11.dtd">
<!-- Generated by graphviz version 6.0.1 (20220911.1526)
 -->
<!-- Title: elc::defs::base::remove_const Pages: 1 -->
<svg width="435pt" height="188pt"
 viewBox="0.00 0.00 435.00 187.50" xmlns="http://www.w3.org/2000/svg" xmlns:xlink="http://www.w3.org/1999/xlink">
<g id="graph0" class="graph" transform="scale(1 1) rotate(0) translate(4 183.5)">
<title>elc::defs::base::remove_const</title>
<!-- Node1 -->
<g id="node1" class="node">
<title>Node1</title>
<g id="a_node1"><a xlink:title="对指针移除const">
<polygon fill="#999999" stroke="#666666" points="427,-107.5 310,-107.5 310,-77.5 427,-77.5 427,-107.5"/>
<text text-anchor="start" x="318" y="-95.5" font-family="Helvetica,sans-Serif" font-size="10.00">elc::defs::base::remove</text>
<text text-anchor="middle" x="368.5" y="-84.5" font-family="Helvetica,sans-Serif" font-size="10.00">_const</text>
</a>
</g>
</g>
<!-- Node2 -->
<g id="node2" class="node">
<title>Node2</title>
<g id="a_node2"><a xlink:href="namespaceelc_1_1defs_1_1core.html#a476a30e4da2e29b52c54c7a59dc3f4f3" target="_top" xlink:title=" ">
<polygon fill="white" stroke="#666666" points="264.5,-179.5 169.5,-179.5 169.5,-149.5 264.5,-149.5 264.5,-179.5"/>
<text text-anchor="start" x="177.5" y="-167.5" font-family="Helvetica,sans-Serif" font-size="10.00">elc::defs::core::as</text>
<text text-anchor="middle" x="217" y="-156.5" font-family="Helvetica,sans-Serif" font-size="10.00">_value</text>
</a>
</g>
</g>
<!-- Node1&#45;&gt;Node2 -->
<g id="edge1" class="edge">
<title>Node1&#45;&gt;Node2</title>
<path fill="none" stroke="#63b8ff" d="M330.44,-112.27C313.39,-121.18 292.81,-131.65 274,-140.5 267.68,-143.47 260.9,-146.51 254.31,-149.37"/>
<polygon fill="#63b8ff" stroke="#63b8ff" points="332.29,-115.25 339.52,-107.51 329.04,-109.06 332.29,-115.25"/>
</g>
<!-- Node3 -->
<g id="node3" class="node">
<title>Node3</title>
<g id="a_node3"><a xlink:href="namespaceelc_1_1defs_1_1core.html#a2f2a3a711e09437bd5d9ea5e7524baf6" target="_top" xlink:title=" ">
<polygon fill="white" stroke="#666666" points="274,-131.5 160,-131.5 160,-101.5 274,-101.5 274,-131.5"/>
<text text-anchor="start" x="168" y="-119.5" font-family="Helvetica,sans-Serif" font-size="10.00">elc::defs::core::as</text>
<text text-anchor="middle" x="217" y="-108.5" font-family="Helvetica,sans-Serif" font-size="10.00">_value_nothrow_helper</text>
</a>
</g>
</g>
<!-- Node1&#45;&gt;Node3 -->
<g id="edge2" class="edge">
<title>Node1&#45;&gt;Node3</title>
<path fill="none" stroke="#63b8ff" d="M299.74,-103.38C291.19,-104.75 282.52,-106.14 274.17,-107.48"/>
<polygon fill="#63b8ff" stroke="#63b8ff" points="300.38,-106.82 309.7,-101.78 299.27,-99.91 300.38,-106.82"/>
</g>
<!-- Node4 -->
<g id="node4" class="node">
<title>Node4</title>
<g id="a_node4"><a xlink:href="structelc_1_1defs_1_1core_1_1value_1_1null__data__t.html#ab6dc4990aa5479d7fbfba038d67490ba" target="_top" xlink:title=" ">
<polygon fill="white" stroke="#666666" points="270,-83.5 164,-83.5 164,-53.5 270,-53.5 270,-83.5"/>
<text text-anchor="start" x="172" y="-71.5" font-family="Helvetica,sans-Serif" font-size="10.00">elc::defs::core::value</text>
<text text-anchor="middle" x="217" y="-60.5" font-family="Helvetica,sans-Serif" font-size="10.00">::null_data_t::copy</text>
</a>
</g>
</g>
<!-- Node1&#45;&gt;Node4 -->
<g id="edge3" class="edge">
<title>Node1&#45;&gt;Node4</title>
<path fill="none" stroke="#63b8ff" d="M299.54,-81.59C289.72,-80.01 279.73,-78.41 270.27,-76.89"/>
<polygon fill="#63b8ff" stroke="#63b8ff" points="299.27,-85.09 309.7,-83.22 300.38,-78.18 299.27,-85.09"/>
</g>
<!-- Node5 -->
<g id="node5" class="node">
<title>Node5</title>
<g id="a_node5"><a xlink:href="namespaceelc_1_1_a_p_is_1_1alloc.html#a1aa6b76b00cae31f4cf4941de23ea219" target="_top" xlink:title=" ">
<polygon fill="white" stroke="#666666" points="268,-35.5 166,-35.5 166,-5.5 268,-5.5 268,-35.5"/>
<text text-anchor="start" x="174" y="-23.5" font-family="Helvetica,sans-Serif" font-size="10.00">elc::APIs::alloc::get</text>
<text text-anchor="middle" x="217" y="-12.5" font-family="Helvetica,sans-Serif" font-size="10.00">_size_of_alloc</text>
</a>
</g>
</g>
<!-- Node1&#45;&gt;Node5 -->
<g id="edge4" class="edge">
<title>Node1&#45;&gt;Node5</title>
<path fill="none" stroke="#63b8ff" d="M330.44,-72.73C313.39,-63.82 292.81,-53.35 274,-44.5 267.68,-41.53 260.9,-38.49 254.31,-35.63"/>
<polygon fill="#63b8ff" stroke="#63b8ff" points="329.04,-75.94 339.52,-77.49 332.29,-69.75 329.04,-75.94"/>
</g>
<!-- Node6 -->
<g id="node6" class="node">
<title>Node6</title>
<g id="a_node6"><a xlink:href="namespaceelc_1_1defs_1_1memory_1_1alloc__n_1_1default__method.html#a3bf36ca55ad7729b38238e5ca5ff567d" target="_top" xlink:title="Computes the size of an allocation.">
<polygon fill="white" stroke="#666666" points="124,-41 0,-41 0,0 124,0 124,-41"/>
<text text-anchor="start" x="8" y="-29" font-family="Helvetica,sans-Serif" font-size="10.00">elc::defs::memory::</text>
<text text-anchor="start" x="8" y="-18" font-family="Helvetica,sans-Serif" font-size="10.00">alloc_n::default_method</text>
<text text-anchor="middle" x="62" y="-7" font-family="Helvetica,sans-Serif" font-size="10.00">::base_get_size_of_alloc</text>
</a>
</g>
</g>
<!-- Node5&#45;&gt;Node6 -->
<g id="edge5" class="edge">
<title>Node5&#45;&gt;Node6</title>
<path fill="none" stroke="#63b8ff" d="M155.7,-20.5C145.33,-20.5 134.55,-20.5 124.16,-20.5"/>
<polygon fill="#63b8ff" stroke="#63b8ff" points="155.9,-24 165.9,-20.5 155.9,-17 155.9,-24"/>
</g>
</g>
</svg>
