<?xml version="1.0" encoding="UTF-8" standalone="no"?>
<!DOCTYPE svg PUBLIC "-//W3C//DTD SVG 1.1//EN"
 "http://www.w3.org/Graphics/SVG/1.1/DTD/svg11.dtd">
<!-- Generated by graphviz version 6.0.1 (20220911.1526)
 -->
<!-- Title: elc::defs::base::the_number_of Pages: 1 -->
<svg width="277pt" height="156pt"
 viewBox="0.00 0.00 277.00 155.50" xmlns="http://www.w3.org/2000/svg" xmlns:xlink="http://www.w3.org/1999/xlink">
<g id="graph0" class="graph" transform="scale(1 1) rotate(0) translate(4 151.5)">
<title>elc::defs::base::the_number_of</title>
<!-- Node1 -->
<g id="node1" class="node">
<title>Node1</title>
<g id="a_node1"><a xlink:title=" ">
<polygon fill="#999999" stroke="#666666" points="269,-82 169,-82 169,-52 269,-52 269,-82"/>
<text text-anchor="start" x="177" y="-70" font-family="Helvetica,sans-Serif" font-size="10.00">elc::defs::base::the</text>
<text text-anchor="middle" x="219" y="-59" font-family="Helvetica,sans-Serif" font-size="10.00">_number_of</text>
</a>
</g>
</g>
<!-- Node2 -->
<g id="node2" class="node">
<title>Node2</title>
<g id="a_node2"><a xlink:href="namespaceelc_1_1defs_1_1memory_1_1gc__n_1_1default__gc__for__type.html#a6d67dc917edb93d1f2fadc513377a9b8" target="_top" xlink:title=" ">
<polygon fill="white" stroke="#666666" points="130.5,-129.5 2.5,-129.5 2.5,-88.5 130.5,-88.5 130.5,-129.5"/>
<text text-anchor="start" x="10.5" y="-117.5" font-family="Helvetica,sans-Serif" font-size="10.00">elc::defs::memory::</text>
<text text-anchor="start" x="10.5" y="-106.5" font-family="Helvetica,sans-Serif" font-size="10.00">gc_n::default_gc_for</text>
<text text-anchor="middle" x="66.5" y="-95.5" font-family="Helvetica,sans-Serif" font-size="10.00">_type::default_gc_method</text>
</a>
</g>
</g>
<!-- Node1&#45;&gt;Node2 -->
<g id="edge1" class="edge">
<title>Node1&#45;&gt;Node2</title>
<path fill="none" stroke="#63b8ff" d="M158.83,-83.51C149.56,-86.1 139.96,-88.78 130.61,-91.39"/>
<polygon fill="#63b8ff" stroke="#63b8ff" points="160.03,-86.81 168.72,-80.75 158.15,-80.07 160.03,-86.81"/>
</g>
<!-- Node3 -->
<g id="node3" class="node">
<title>Node3</title>
<g id="a_node3"><a xlink:href="namespaceelc_1_1defs_1_1memory_1_1gc__n_1_1default__gc__for__type.html#a11da7ce2601f56b5f8d14c2f9cf1761d" target="_top" xlink:title=" ">
<polygon fill="white" stroke="#666666" points="133,-52 0,-52 0,0 133,0 133,-52"/>
<text text-anchor="start" x="8" y="-40" font-family="Helvetica,sans-Serif" font-size="10.00">elc::defs::memory::</text>
<text text-anchor="start" x="8" y="-29" font-family="Helvetica,sans-Serif" font-size="10.00">gc_n::default_gc_for</text>
<text text-anchor="start" x="8" y="-18" font-family="Helvetica,sans-Serif" font-size="10.00">_type::default_gc_success</text>
<text text-anchor="middle" x="66.5" y="-7" font-family="Helvetica,sans-Serif" font-size="10.00">_identifier</text>
</a>
</g>
</g>
<!-- Node1&#45;&gt;Node3 -->
<g id="edge3" class="edge">
<title>Node1&#45;&gt;Node3</title>
<path fill="none" stroke="#63b8ff" d="M158.91,-50.9C150.42,-48.59 141.64,-46.2 133.04,-43.85"/>
<polygon fill="#63b8ff" stroke="#63b8ff" points="158.15,-54.32 168.72,-53.58 159.99,-47.57 158.15,-54.32"/>
</g>
<!-- Node2&#45;&gt;Node2 -->
<g id="edge2" class="edge">
<title>Node2&#45;&gt;Node2</title>
<path fill="none" stroke="#63b8ff" d="M92.74,-139.46C88.84,-144.24 80.09,-147.5 66.5,-147.5 44.76,-147.5 35.41,-139.15 38.47,-129.6"/>
<polygon fill="#63b8ff" stroke="#63b8ff" points="96.18,-140.06 94.53,-129.6 89.3,-138.81 96.18,-140.06"/>
</g>
<!-- Node3&#45;&gt;Node3 -->
<g id="edge4" class="edge">
<title>Node3&#45;&gt;Node3</title>
<path fill="none" stroke="#63b8ff" d="M91.99,-61.76C87.78,-66.7 79.28,-70 66.5,-70 46.54,-70 37.03,-61.96 37.97,-52.2"/>
<polygon fill="#63b8ff" stroke="#63b8ff" points="95.34,-62.79 95.03,-52.2 88.67,-60.67 95.34,-62.79"/>
</g>
</g>
</svg>
