<?xml version="1.0" encoding="UTF-8" standalone="no"?>
<!DOCTYPE svg PUBLIC "-//W3C//DTD SVG 1.1//EN"
 "http://www.w3.org/Graphics/SVG/1.1/DTD/svg11.dtd">
<!-- Generated by graphviz version 6.0.1 (20220911.1526)
 -->
<!-- Title: elc::defs::core::car_of Pages: 1 -->
<svg width="259pt" height="86pt"
 viewBox="0.00 0.00 259.00 86.00" xmlns="http://www.w3.org/2000/svg" xmlns:xlink="http://www.w3.org/1999/xlink">
<g id="graph0" class="graph" transform="scale(1 1) rotate(0) translate(4 82)">
<title>elc::defs::core::car_of</title>
<!-- Node1 -->
<g id="node1" class="node">
<title>Node1</title>
<g id="a_node1"><a xlink:title=" ">
<polygon fill="#999999" stroke="#666666" points="251,-48.5 141,-48.5 141,-29.5 251,-29.5 251,-48.5"/>
<text text-anchor="middle" x="196" y="-36.5" font-family="Helvetica,sans-Serif" font-size="10.00">elc::defs::core::car_of</text>
</a>
</g>
</g>
<!-- Node2 -->
<g id="node2" class="node">
<title>Node2</title>
<g id="a_node2"><a xlink:href="structelc_1_1defs_1_1core_1_1cons.html#a2ecac97973c620f052a65545c84efb8e" target="_top" xlink:title=" ">
<polygon fill="white" stroke="#666666" points="105,-78 0,-78 0,-48 105,-48 105,-78"/>
<text text-anchor="start" x="8" y="-66" font-family="Helvetica,sans-Serif" font-size="10.00">elc::defs::core::cons</text>
<text text-anchor="middle" x="52.5" y="-55" font-family="Helvetica,sans-Serif" font-size="10.00">::arec</text>
</a>
</g>
</g>
<!-- Node1&#45;&gt;Node2 -->
<g id="edge1" class="edge">
<title>Node1&#45;&gt;Node2</title>
<path fill="none" stroke="#63b8ff" d="M130.71,-49.9C122.13,-51.36 113.42,-52.84 105.1,-54.25"/>
<polygon fill="#63b8ff" stroke="#63b8ff" points="131.42,-53.33 140.7,-48.21 130.25,-46.43 131.42,-53.33"/>
</g>
<!-- Node3 -->
<g id="node3" class="node">
<title>Node3</title>
<g id="a_node3"><a xlink:href="structelc_1_1defs_1_1core_1_1code__list.html#ac4978915e4a32e36633795620da976f8" target="_top" xlink:title=" ">
<polygon fill="white" stroke="#666666" points="105,-30 0,-30 0,0 105,0 105,-30"/>
<text text-anchor="start" x="8" y="-18" font-family="Helvetica,sans-Serif" font-size="10.00">elc::defs::core::code</text>
<text text-anchor="middle" x="52.5" y="-7" font-family="Helvetica,sans-Serif" font-size="10.00">_list::be_eval</text>
</a>
</g>
</g>
<!-- Node1&#45;&gt;Node3 -->
<g id="edge2" class="edge">
<title>Node1&#45;&gt;Node3</title>
<path fill="none" stroke="#63b8ff" d="M130.71,-28.1C122.13,-26.64 113.42,-25.16 105.1,-23.75"/>
<polygon fill="#63b8ff" stroke="#63b8ff" points="130.25,-31.57 140.7,-29.79 131.42,-24.67 130.25,-31.57"/>
</g>
</g>
</svg>
