<?xml version="1.0" encoding="UTF-8" standalone="no"?>
<!DOCTYPE svg PUBLIC "-//W3C//DTD SVG 1.1//EN"
 "http://www.w3.org/Graphics/SVG/1.1/DTD/svg11.dtd">
<!-- Generated by graphviz version 6.0.1 (20220911.1526)
 -->
<!-- Title: elc::APIs::library_load::free_library Pages: 1 -->
<svg width="256pt" height="56pt"
 viewBox="0.00 0.00 256.00 56.00" xmlns="http://www.w3.org/2000/svg" xmlns:xlink="http://www.w3.org/1999/xlink">
<g id="graph0" class="graph" transform="scale(1 1) rotate(0) translate(4 52)">
<title>elc::APIs::library_load::free_library</title>
<!-- Node1 -->
<g id="node1" class="node">
<title>Node1</title>
<g id="a_node1"><a xlink:title=" ">
<polygon fill="#999999" stroke="#666666" points="93,-30 0,-30 0,0 93,0 93,-30"/>
<text text-anchor="start" x="8" y="-18" font-family="Helvetica,sans-Serif" font-size="10.00">elc::APIs::library</text>
<text text-anchor="middle" x="46.5" y="-7" font-family="Helvetica,sans-Serif" font-size="10.00">_load::free_library</text>
</a>
</g>
</g>
<!-- Node1&#45;&gt;Node1 -->
<g id="edge3" class="edge">
<title>Node1&#45;&gt;Node1</title>
<path fill="none" stroke="#63b8ff" d="M21.54,-30.28C15.99,-39.41 24.31,-48 46.5,-48 59.67,-48 67.96,-44.97 71.36,-40.6"/>
<polygon fill="#63b8ff" stroke="#63b8ff" points="74.86,-40.31 71.46,-30.28 67.86,-40.24 74.86,-40.31"/>
</g>
<!-- Node2 -->
<g id="node2" class="node">
<title>Node2</title>
<g id="a_node2"><a xlink:href="namespaceelc_1_1_a_p_is_1_1library__load.html#a14758a5e1c71278c7cc365b9bd44619d" target="_top" xlink:title=" ">
<polygon fill="white" stroke="#666666" points="248,-30 129,-30 129,0 248,0 248,-30"/>
<text text-anchor="start" x="137" y="-18" font-family="Helvetica,sans-Serif" font-size="10.00">elc::APIs::library</text>
<text text-anchor="middle" x="188.5" y="-7" font-family="Helvetica,sans-Serif" font-size="10.00">_load::base_free_library</text>
</a>
</g>
</g>
<!-- Node1&#45;&gt;Node2 -->
<g id="edge1" class="edge">
<title>Node1&#45;&gt;Node2</title>
<path fill="none" stroke="#63b8ff" d="M93.34,-15C101.48,-15 110.12,-15 118.73,-15"/>
<polygon fill="#63b8ff" stroke="#63b8ff" points="118.79,-18.5 128.79,-15 118.79,-11.5 118.79,-18.5"/>
</g>
<!-- Node2&#45;&gt;Node2 -->
<g id="edge2" class="edge">
<title>Node2&#45;&gt;Node2</title>
<path fill="none" stroke="#63b8ff" d="M163.54,-30.28C157.99,-39.41 166.31,-48 188.5,-48 201.67,-48 209.96,-44.97 213.36,-40.6"/>
<polygon fill="#63b8ff" stroke="#63b8ff" points="216.86,-40.31 213.46,-30.28 209.86,-40.24 216.86,-40.31"/>
</g>
</g>
</svg>
