<?xml version="1.0" encoding="UTF-8" standalone="no"?>
<!DOCTYPE svg PUBLIC "-//W3C//DTD SVG 1.1//EN"
 "http://www.w3.org/Graphics/SVG/1.1/DTD/svg11.dtd">
<!-- Generated by graphviz version 6.0.1 (20220911.1526)
 -->
<!-- Title: elc::defs::base::range_n::find_last_not_of_size_t Pages: 1 -->
<svg width="783pt" height="172pt"
 viewBox="0.00 0.00 783.00 171.50" xmlns="http://www.w3.org/2000/svg" xmlns:xlink="http://www.w3.org/1999/xlink">
<g id="graph0" class="graph" transform="scale(1 1) rotate(0) translate(4 167.5)">
<title>elc::defs::base::range_n::find_last_not_of_size_t</title>
<!-- Node1 -->
<g id="node1" class="node">
<title>Node1</title>
<g id="a_node1"><a xlink:title=" ">
<polygon fill="#999999" stroke="#666666" points="132,-105 0,-105 0,-75 132,-75 132,-105"/>
<text text-anchor="start" x="8" y="-93" font-family="Helvetica,sans-Serif" font-size="10.00">elc::defs::base::range</text>
<text text-anchor="middle" x="66" y="-82" font-family="Helvetica,sans-Serif" font-size="10.00">_n::find_last_not_of_size_t</text>
</a>
</g>
</g>
<!-- Node2 -->
<g id="node2" class="node">
<title>Node2</title>
<g id="a_node2"><a xlink:href="structelc_1_1defs_1_1base_1_1array__like__n_1_1array__like__view__t.html#a613a7a28045bb8efd320108a432ad775" target="_top" xlink:title=" ">
<polygon fill="white" stroke="#666666" points="455,-163.5 336,-163.5 336,-122.5 455,-122.5 455,-163.5"/>
<text text-anchor="start" x="344" y="-151.5" font-family="Helvetica,sans-Serif" font-size="10.00">elc::defs::base::array</text>
<text text-anchor="start" x="344" y="-140.5" font-family="Helvetica,sans-Serif" font-size="10.00">_like_n::array_like_view</text>
<text text-anchor="middle" x="395.5" y="-129.5" font-family="Helvetica,sans-Serif" font-size="10.00">_t::begin</text>
</a>
</g>
</g>
<!-- Node1&#45;&gt;Node2 -->
<g id="edge1" class="edge">
<title>Node1&#45;&gt;Node2</title>
<path fill="none" stroke="#63b8ff" d="M95.73,-105.09C115.48,-114.66 142.62,-126.29 168,-132 219.96,-143.69 280.24,-146.1 325.55,-145.77"/>
<polygon fill="#63b8ff" stroke="#63b8ff" points="325.61,-149.27 335.57,-145.65 325.53,-142.27 325.61,-149.27"/>
</g>
<!-- Node3 -->
<g id="node3" class="node">
<title>Node3</title>
<g id="a_node3"><a xlink:href="namespaceelc_1_1defs_1_1base_1_1range__n.html#afb48d0642ddade3a47f3ee70331ef624" target="_top" xlink:title="若成功找到不匹配的数据项，返回其开头，若未找到，返回nullptr">
<polygon fill="white" stroke="#666666" points="450.5,-78 340.5,-78 340.5,-48 450.5,-48 450.5,-78"/>
<text text-anchor="start" x="348.5" y="-66" font-family="Helvetica,sans-Serif" font-size="10.00">elc::defs::base::range</text>
<text text-anchor="middle" x="395.5" y="-55" font-family="Helvetica,sans-Serif" font-size="10.00">_n::find_last_not_of</text>
</a>
</g>
</g>
<!-- Node1&#45;&gt;Node3 -->
<g id="edge2" class="edge">
<title>Node1&#45;&gt;Node3</title>
<path fill="none" stroke="#63b8ff" d="M120.59,-74.95C135.79,-71.32 152.44,-67.93 168,-66 222.43,-59.26 284.77,-58.97 330.25,-60.11"/>
<polygon fill="#63b8ff" stroke="#63b8ff" points="330.18,-63.61 340.27,-60.39 330.37,-56.61 330.18,-63.61"/>
</g>
<!-- Node8 -->
<g id="node8" class="node">
<title>Node8</title>
<g id="a_node8"><a xlink:href="namespaceelc_1_1defs_1_1base_1_1range__n.html#a5a03c47024fc946bd206c626c755d01e" target="_top" xlink:title="若成功找到不匹配的数据项，返回其距离开头的步数，若未找到，返回npos">
<polygon fill="white" stroke="#666666" points="300,-105 168,-105 168,-75 300,-75 300,-105"/>
<text text-anchor="start" x="176" y="-93" font-family="Helvetica,sans-Serif" font-size="10.00">elc::defs::base::range</text>
<text text-anchor="middle" x="234" y="-82" font-family="Helvetica,sans-Serif" font-size="10.00">_n::find_last_not_of_size_t</text>
</a>
</g>
</g>
<!-- Node1&#45;&gt;Node8 -->
<g id="edge11" class="edge">
<title>Node1&#45;&gt;Node8</title>
<path fill="none" stroke="#63b8ff" d="M132.13,-90C140.46,-90 149.04,-90 157.52,-90"/>
<polygon fill="#63b8ff" stroke="#63b8ff" points="157.78,-93.5 167.78,-90 157.78,-86.5 157.78,-93.5"/>
</g>
<!-- Node3&#45;&gt;Node3 -->
<g id="edge7" class="edge">
<title>Node3&#45;&gt;Node3</title>
<path fill="none" stroke="#63b8ff" d="M367.11,-78.28C360.8,-87.41 370.27,-96 395.5,-96 410.48,-96 419.91,-92.97 423.77,-88.6"/>
<polygon fill="#63b8ff" stroke="#63b8ff" points="427.27,-88.32 423.89,-78.28 420.27,-88.23 427.27,-88.32"/>
</g>
<!-- Node4 -->
<g id="node4" class="node">
<title>Node4</title>
<g id="a_node4"><a xlink:href="namespaceelc_1_1defs_1_1base_1_1range__n.html#a6510d1d98b41ed6eed5b8e7f82282618" target="_top" xlink:title="find_last_not_of的朴素实现 若成功找到不匹配的数据项，返回其开头，若未找到，返回nullptr">
<polygon fill="white" stroke="#666666" points="623.5,-144 496.5,-144 496.5,-114 623.5,-114 623.5,-144"/>
<text text-anchor="start" x="504.5" y="-132" font-family="Helvetica,sans-Serif" font-size="10.00">elc::defs::base::range</text>
<text text-anchor="middle" x="560" y="-121" font-family="Helvetica,sans-Serif" font-size="10.00">_n::base_find_last_not_of</text>
</a>
</g>
</g>
<!-- Node3&#45;&gt;Node4 -->
<g id="edge3" class="edge">
<title>Node3&#45;&gt;Node4</title>
<path fill="none" stroke="#63b8ff" d="M428.6,-78.02C446.76,-86.33 469.98,-96.64 491,-105 495.49,-106.79 500.17,-108.58 504.88,-110.34"/>
<polygon fill="#63b8ff" stroke="#63b8ff" points="503.96,-113.73 514.55,-113.88 506.37,-107.15 503.96,-113.73"/>
</g>
<!-- Node6 -->
<g id="node6" class="node">
<title>Node6</title>
<g id="a_node6"><a xlink:href="namespaceelc_1_1defs_1_1base_1_1range__n.html#a8fb22aefdce465da055c710889985bd8" target="_top" xlink:title="find_last_not_of的bitmark实现 若成功找到不匹配的数据项，返回其开头，若未找到，返回nullptr">
<polygon fill="white" stroke="#666666" points="629,-78 491,-78 491,-48 629,-48 629,-78"/>
<text text-anchor="start" x="499" y="-66" font-family="Helvetica,sans-Serif" font-size="10.00">elc::defs::base::range</text>
<text text-anchor="middle" x="560" y="-55" font-family="Helvetica,sans-Serif" font-size="10.00">_n::find_last_not_of_bitmark</text>
</a>
</g>
</g>
<!-- Node3&#45;&gt;Node6 -->
<g id="edge8" class="edge">
<title>Node3&#45;&gt;Node6</title>
<path fill="none" stroke="#63b8ff" d="M450.61,-63C460.3,-63 470.58,-63 480.79,-63"/>
<polygon fill="#63b8ff" stroke="#63b8ff" points="480.96,-66.5 490.96,-63 480.96,-59.5 480.96,-66.5"/>
</g>
<!-- Node7 -->
<g id="node7" class="node">
<title>Node7</title>
<g id="a_node7"><a xlink:href="structelc_1_1defs_1_1base_1_1range__n_1_1bitmark__for__finds.html#aac0eaf6119a2810bc00351cb3c7030e0" target="_top" xlink:title=" ">
<polygon fill="white" stroke="#666666" points="627,-30 493,-30 493,0 627,0 627,-30"/>
<text text-anchor="start" x="501" y="-18" font-family="Helvetica,sans-Serif" font-size="10.00">elc::defs::base::range</text>
<text text-anchor="middle" x="560" y="-7" font-family="Helvetica,sans-Serif" font-size="10.00">_n::bitmark_for_finds::mark</text>
</a>
</g>
</g>
<!-- Node3&#45;&gt;Node7 -->
<g id="edge10" class="edge">
<title>Node3&#45;&gt;Node7</title>
<path fill="none" stroke="#63b8ff" d="M447.47,-47.94C463.65,-43.16 481.71,-37.83 498.5,-32.87"/>
<polygon fill="#63b8ff" stroke="#63b8ff" points="499.61,-36.19 508.21,-30 497.63,-29.48 499.61,-36.19"/>
</g>
<!-- Node4&#45;&gt;Node4 -->
<g id="edge4" class="edge">
<title>Node4&#45;&gt;Node4</title>
<path fill="none" stroke="#63b8ff" d="M531.88,-144.28C525.62,-153.41 535,-162 560,-162 574.84,-162 584.18,-158.97 588.01,-154.6"/>
<polygon fill="#63b8ff" stroke="#63b8ff" points="591.51,-154.32 588.12,-144.28 584.51,-154.23 591.51,-154.32"/>
</g>
<!-- Node5 -->
<g id="node5" class="node">
<title>Node5</title>
<g id="a_node5"><a xlink:href="namespaceelc_1_1defs_1_1base_1_1range__n.html#ace6a3a9d079214ee7bcce5acbef1e07f" target="_top" xlink:title="判断一个值是否在某个范围内">
<polygon fill="white" stroke="#666666" points="775,-144 665,-144 665,-114 775,-114 775,-144"/>
<text text-anchor="start" x="673" y="-132" font-family="Helvetica,sans-Serif" font-size="10.00">elc::defs::base::range</text>
<text text-anchor="middle" x="720" y="-121" font-family="Helvetica,sans-Serif" font-size="10.00">_n::in_range</text>
</a>
</g>
</g>
<!-- Node4&#45;&gt;Node5 -->
<g id="edge5" class="edge">
<title>Node4&#45;&gt;Node5</title>
<path fill="none" stroke="#63b8ff" d="M623.9,-129C634.1,-129 644.67,-129 654.9,-129"/>
<polygon fill="#63b8ff" stroke="#63b8ff" points="654.98,-132.5 664.98,-129 654.98,-125.5 654.98,-132.5"/>
</g>
<!-- Node5&#45;&gt;Node5 -->
<g id="edge6" class="edge">
<title>Node5&#45;&gt;Node5</title>
<path fill="none" stroke="#63b8ff" d="M691.88,-144.28C685.62,-153.41 695,-162 720,-162 734.84,-162 744.18,-158.97 748.01,-154.6"/>
<polygon fill="#63b8ff" stroke="#63b8ff" points="751.51,-154.32 748.12,-144.28 744.51,-154.23 751.51,-154.32"/>
</g>
<!-- Node6&#45;&gt;Node6 -->
<g id="edge9" class="edge">
<title>Node6&#45;&gt;Node6</title>
<path fill="none" stroke="#63b8ff" d="M531.88,-78.28C525.62,-87.41 535,-96 560,-96 574.84,-96 584.18,-92.97 588.01,-88.6"/>
<polygon fill="#63b8ff" stroke="#63b8ff" points="591.51,-88.32 588.12,-78.28 584.51,-88.23 591.51,-88.32"/>
</g>
<!-- Node8&#45;&gt;Node2 -->
<g id="edge12" class="edge">
<title>Node8&#45;&gt;Node2</title>
<path fill="none" stroke="#63b8ff" d="M280.28,-105.05C294.62,-109.81 310.8,-115.19 326.37,-120.36"/>
<polygon fill="#63b8ff" stroke="#63b8ff" points="325.38,-123.72 335.97,-123.55 327.59,-117.08 325.38,-123.72"/>
</g>
<!-- Node8&#45;&gt;Node3 -->
<g id="edge13" class="edge">
<title>Node8&#45;&gt;Node3</title>
<path fill="none" stroke="#63b8ff" d="M300.33,-78.94C310.17,-77.28 320.3,-75.56 330.12,-73.9"/>
<polygon fill="#63b8ff" stroke="#63b8ff" points="330.92,-77.31 340.2,-72.19 329.76,-70.41 330.92,-77.31"/>
</g>
<!-- Node8&#45;&gt;Node8 -->
<g id="edge14" class="edge">
<title>Node8&#45;&gt;Node8</title>
<path fill="none" stroke="#63b8ff" d="M205.61,-105.28C199.3,-114.41 208.77,-123 234,-123 248.98,-123 258.41,-119.97 262.27,-115.6"/>
<polygon fill="#63b8ff" stroke="#63b8ff" points="265.77,-115.32 262.39,-105.28 258.77,-115.23 265.77,-115.32"/>
</g>
</g>
</svg>
