<?xml version="1.0" encoding="UTF-8" standalone="no"?>
<!DOCTYPE svg PUBLIC "-//W3C//DTD SVG 1.1//EN"
 "http://www.w3.org/Graphics/SVG/1.1/DTD/svg11.dtd">
<!-- Generated by graphviz version 6.0.1 (20220911.1526)
 -->
<!-- Title: elc::defs::memory::ptr_n::get_weak_ref_num Pages: 1 -->
<svg width="282pt" height="56pt"
 viewBox="0.00 0.00 282.00 56.00" xmlns="http://www.w3.org/2000/svg" xmlns:xlink="http://www.w3.org/1999/xlink">
<g id="graph0" class="graph" transform="scale(1 1) rotate(0) translate(4 52)">
<title>elc::defs::memory::ptr_n::get_weak_ref_num</title>
<!-- Node1 -->
<g id="node1" class="node">
<title>Node1</title>
<g id="a_node1"><a xlink:title=" ">
<polygon fill="#999999" stroke="#666666" points="274,-30 149,-30 149,0 274,0 274,-30"/>
<text text-anchor="start" x="157" y="-18" font-family="Helvetica,sans-Serif" font-size="10.00">elc::defs::memory::</text>
<text text-anchor="middle" x="211.5" y="-7" font-family="Helvetica,sans-Serif" font-size="10.00">ptr_n::get_weak_ref_num</text>
</a>
</g>
</g>
<!-- Node1&#45;&gt;Node1 -->
<g id="edge2" class="edge">
<title>Node1&#45;&gt;Node1</title>
<path fill="none" stroke="#63b8ff" d="M238.63,-40.6C234.92,-44.97 225.88,-48 211.5,-48 187.28,-48 178.2,-39.41 184.25,-30.28"/>
<polygon fill="#63b8ff" stroke="#63b8ff" points="242.13,-40.31 238.75,-30.28 235.13,-40.24 242.13,-40.31"/>
</g>
<!-- Node2 -->
<g id="node2" class="node">
<title>Node2</title>
<g id="a_node2"><a xlink:href="classelc_1_1defs_1_1memory_1_1ptr__n_1_1ref__able.html#aab6ab1fd7cbc58ee035cc32cdf4c3ce8" target="_top" xlink:title=" ">
<polygon fill="white" stroke="#666666" points="113,-30 0,-30 0,0 113,0 113,-30"/>
<text text-anchor="start" x="8" y="-18" font-family="Helvetica,sans-Serif" font-size="10.00">elc::defs::memory::</text>
<text text-anchor="middle" x="56.5" y="-7" font-family="Helvetica,sans-Serif" font-size="10.00">ptr_n::ref_able::cut_ref</text>
</a>
</g>
</g>
<!-- Node1&#45;&gt;Node2 -->
<g id="edge1" class="edge">
<title>Node1&#45;&gt;Node2</title>
<path fill="none" stroke="#63b8ff" d="M138.68,-15C130.09,-15 121.42,-15 113.1,-15"/>
<polygon fill="#63b8ff" stroke="#63b8ff" points="138.71,-18.5 148.71,-15 138.71,-11.5 138.71,-18.5"/>
</g>
</g>
</svg>
