<?xml version="1.0" encoding="UTF-8" standalone="no"?>
<!DOCTYPE svg PUBLIC "-//W3C//DTD SVG 1.1//EN"
 "http://www.w3.org/Graphics/SVG/1.1/DTD/svg11.dtd">
<!-- Generated by graphviz version 6.0.1 (20220911.1526)
 -->
<!-- Title: elc::defs::base::range_n::in_range_but_reverse Pages: 1 -->
<svg width="455pt" height="116pt"
 viewBox="0.00 0.00 455.00 115.50" xmlns="http://www.w3.org/2000/svg" xmlns:xlink="http://www.w3.org/1999/xlink">
<g id="graph0" class="graph" transform="scale(1 1) rotate(0) translate(4 111.5)">
<title>elc::defs::base::range_n::in_range_but_reverse</title>
<!-- Node1 -->
<g id="node1" class="node">
<title>Node1</title>
<g id="a_node1"><a xlink:title=" ">
<polygon fill="#999999" stroke="#666666" points="125,-62.5 0,-62.5 0,-32.5 125,-32.5 125,-62.5"/>
<text text-anchor="start" x="8" y="-50.5" font-family="Helvetica,sans-Serif" font-size="10.00">elc::defs::base::range</text>
<text text-anchor="middle" x="62.5" y="-39.5" font-family="Helvetica,sans-Serif" font-size="10.00">_n::in_range_but_reverse</text>
</a>
</g>
</g>
<!-- Node2 -->
<g id="node2" class="node">
<title>Node2</title>
<g id="a_node2"><a xlink:href="namespaceelc_1_1defs_1_1base_1_1range__n.html#a34f1fb9d2924b8dc3249d4a7c0accab6" target="_top" xlink:title="若成功找到匹配的数据项，返回其开头，若未找到，返回nullptr">
<polygon fill="white" stroke="#666666" points="289,-89.5 164,-89.5 164,-59.5 289,-59.5 289,-89.5"/>
<text text-anchor="start" x="172" y="-77.5" font-family="Helvetica,sans-Serif" font-size="10.00">elc::defs::base::range</text>
<text text-anchor="middle" x="226.5" y="-66.5" font-family="Helvetica,sans-Serif" font-size="10.00">_n::in_range_but_reverse</text>
</a>
</g>
</g>
<!-- Node1&#45;&gt;Node2 -->
<g id="edge1" class="edge">
<title>Node1&#45;&gt;Node2</title>
<path fill="none" stroke="#63b8ff" d="M125.21,-57.78C134.63,-59.36 144.42,-60.99 154.04,-62.59"/>
<polygon fill="#63b8ff" stroke="#63b8ff" points="153.52,-66.05 163.96,-64.24 154.68,-59.15 153.52,-66.05"/>
</g>
<!-- Node3 -->
<g id="node3" class="node">
<title>Node3</title>
<g id="a_node3"><a xlink:href="structelc_1_1defs_1_1base_1_1range__n_1_1reverse__match__pattern.html#a20c601d609c1439901499558fefe45d8" target="_top" xlink:title=" ">
<polygon fill="white" stroke="#666666" points="292,-41 161,-41 161,0 292,0 292,-41"/>
<text text-anchor="start" x="169" y="-29" font-family="Helvetica,sans-Serif" font-size="10.00">elc::defs::base::range</text>
<text text-anchor="start" x="169" y="-18" font-family="Helvetica,sans-Serif" font-size="10.00">_n::reverse_match_pattern</text>
<text text-anchor="middle" x="226.5" y="-7" font-family="Helvetica,sans-Serif" font-size="10.00">::match</text>
</a>
</g>
</g>
<!-- Node1&#45;&gt;Node3 -->
<g id="edge3" class="edge">
<title>Node1&#45;&gt;Node3</title>
<path fill="none" stroke="#63b8ff" d="M125.21,-37.22C133.56,-35.82 142.21,-34.38 150.76,-32.96"/>
<polygon fill="#63b8ff" stroke="#63b8ff" points="151.44,-36.39 160.73,-31.29 150.29,-29.49 151.44,-36.39"/>
</g>
<!-- Node2&#45;&gt;Node2 -->
<g id="edge2" class="edge">
<title>Node2&#45;&gt;Node2</title>
<path fill="none" stroke="#63b8ff" d="M198.2,-89.78C191.91,-98.91 201.34,-107.5 226.5,-107.5 241.44,-107.5 250.83,-104.47 254.68,-100.1"/>
<polygon fill="#63b8ff" stroke="#63b8ff" points="258.18,-99.82 254.8,-89.78 251.18,-99.73 258.18,-99.82"/>
</g>
<!-- Node4 -->
<g id="node4" class="node">
<title>Node4</title>
<g id="a_node4"><a xlink:href="structelc_1_1defs_1_1base_1_1array__like__n_1_1array__like__view__t.html#a117c302e797b7abf98c037211c3a1753" target="_top" xlink:title=" ">
<polygon fill="white" stroke="#666666" points="447,-41 328,-41 328,0 447,0 447,-41"/>
<text text-anchor="start" x="336" y="-29" font-family="Helvetica,sans-Serif" font-size="10.00">elc::defs::base::array</text>
<text text-anchor="start" x="336" y="-18" font-family="Helvetica,sans-Serif" font-size="10.00">_like_n::array_like_view</text>
<text text-anchor="middle" x="387.5" y="-7" font-family="Helvetica,sans-Serif" font-size="10.00">_t::size</text>
</a>
</g>
</g>
<!-- Node3&#45;&gt;Node4 -->
<g id="edge4" class="edge">
<title>Node3&#45;&gt;Node4</title>
<path fill="none" stroke="#63b8ff" d="M292.17,-20.5C300.55,-20.5 309.15,-20.5 317.59,-20.5"/>
<polygon fill="#63b8ff" stroke="#63b8ff" points="317.77,-24 327.77,-20.5 317.77,-17 317.77,-24"/>
</g>
</g>
</svg>
