<?xml version="1.0" encoding="UTF-8" standalone="no"?>
<!DOCTYPE svg PUBLIC "-//W3C//DTD SVG 1.1//EN"
 "http://www.w3.org/Graphics/SVG/1.1/DTD/svg11.dtd">
<!-- Generated by graphviz version 6.0.1 (20220911.1526)
 -->
<!-- Title: elc::defs::memory::ptr_n::the_waiting_for_destroy Pages: 1 -->
<svg width="430pt" height="62pt"
 viewBox="0.00 0.00 430.00 61.50" xmlns="http://www.w3.org/2000/svg" xmlns:xlink="http://www.w3.org/1999/xlink">
<g id="graph0" class="graph" transform="scale(1 1) rotate(0) translate(4 57.5)">
<title>elc::defs::memory::ptr_n::the_waiting_for_destroy</title>
<!-- Node1 -->
<g id="node1" class="node">
<title>Node1</title>
<g id="a_node1"><a xlink:title=" ">
<polygon fill="#999999" stroke="#666666" points="422,-41 313,-41 313,0 422,0 422,-41"/>
<text text-anchor="start" x="321" y="-29" font-family="Helvetica,sans-Serif" font-size="10.00">elc::defs::memory::</text>
<text text-anchor="start" x="321" y="-18" font-family="Helvetica,sans-Serif" font-size="10.00">ptr_n::the_waiting_for</text>
<text text-anchor="middle" x="367.5" y="-7" font-family="Helvetica,sans-Serif" font-size="10.00">_destroy</text>
</a>
</g>
</g>
<!-- Node2 -->
<g id="node2" class="node">
<title>Node2</title>
<g id="a_node2"><a xlink:href="namespaceelc_1_1defs_1_1memory_1_1ptr__n.html#a908227e013454dce53a6ffad5d623f23" target="_top" xlink:title=" ">
<polygon fill="white" stroke="#666666" points="277,-35.5 149,-35.5 149,-5.5 277,-5.5 277,-35.5"/>
<text text-anchor="start" x="157" y="-23.5" font-family="Helvetica,sans-Serif" font-size="10.00">elc::defs::memory::</text>
<text text-anchor="middle" x="213" y="-12.5" font-family="Helvetica,sans-Serif" font-size="10.00">ptr_n::waiting_for_destroy</text>
</a>
</g>
</g>
<!-- Node1&#45;&gt;Node2 -->
<g id="edge1" class="edge">
<title>Node1&#45;&gt;Node2</title>
<path fill="none" stroke="#63b8ff" d="M302.61,-20.5C294.2,-20.5 285.59,-20.5 277.2,-20.5"/>
<polygon fill="#63b8ff" stroke="#63b8ff" points="302.73,-24 312.73,-20.5 302.73,-17 302.73,-24"/>
</g>
<!-- Node2&#45;&gt;Node2 -->
<g id="edge3" class="edge">
<title>Node2&#45;&gt;Node2</title>
<path fill="none" stroke="#63b8ff" d="M240.04,-46.1C236.35,-50.47 227.33,-53.5 213,-53.5 188.86,-53.5 179.81,-44.91 185.84,-35.78"/>
<polygon fill="#63b8ff" stroke="#63b8ff" points="243.55,-45.81 240.16,-35.78 236.55,-45.74 243.55,-45.81"/>
</g>
<!-- Node3 -->
<g id="node3" class="node">
<title>Node3</title>
<g id="a_node3"><a xlink:href="classelc_1_1defs_1_1memory_1_1ptr__n_1_1ref__able.html#aab6ab1fd7cbc58ee035cc32cdf4c3ce8" target="_top" xlink:title=" ">
<polygon fill="white" stroke="#666666" points="113,-35.5 0,-35.5 0,-5.5 113,-5.5 113,-35.5"/>
<text text-anchor="start" x="8" y="-23.5" font-family="Helvetica,sans-Serif" font-size="10.00">elc::defs::memory::</text>
<text text-anchor="middle" x="56.5" y="-12.5" font-family="Helvetica,sans-Serif" font-size="10.00">ptr_n::ref_able::cut_ref</text>
</a>
</g>
</g>
<!-- Node2&#45;&gt;Node3 -->
<g id="edge2" class="edge">
<title>Node2&#45;&gt;Node3</title>
<path fill="none" stroke="#63b8ff" d="M138.65,-20.5C130.03,-20.5 121.34,-20.5 113.02,-20.5"/>
<polygon fill="#63b8ff" stroke="#63b8ff" points="138.71,-24 148.71,-20.5 138.71,-17 138.71,-24"/>
</g>
</g>
</svg>
