<?xml version="1.0" encoding="UTF-8" standalone="no"?>
<!DOCTYPE svg PUBLIC "-//W3C//DTD SVG 1.1//EN"
 "http://www.w3.org/Graphics/SVG/1.1/DTD/svg11.dtd">
<!-- Generated by graphviz version 6.0.1 (20220911.1526)
 -->
<!-- Title: elc::defs::base::range_n::find_last_not_of Pages: 1 -->
<!--zoomable 170 -->
<svg id="main" version="1.1" xmlns="http://www.w3.org/2000/svg" xmlns:xlink="http://www.w3.org/1999/xlink" xml:space="preserve" onload="init(evt)">
<style type="text/css"><![CDATA[
.edge:hover path { stroke: red; }
.edge:hover polygon { stroke: red; fill: red; }
]]></style>
<script type="text/javascript"><![CDATA[
var edges = document.getElementsByTagName('g');
if (edges && edges.length) {
  for (var i=0;i<edges.length;i++) {
    if (edges[i].id.substr(0,4)=='edge') {
      edges[i].setAttribute('class','edge');
    }
  }
}
]]></script>
        <defs>
                <circle id="rim" cx="0" cy="0" r="7"/>
                <circle id="rim2" cx="0" cy="0" r="3.5"/>
                <g id="zoomPlus">
                        <use xlink:href="#rim" fill="#404040">
                                <set attributeName="fill" to="#808080" begin="zoomplus.mouseover" end="zoomplus.mouseout"/>
                        </use>
                        <path d="M-4,0h8M0,-4v8" fill="none" stroke="white" stroke-width="1.5" pointer-events="none"/>
                </g>
                <g id="zoomMin">
                        <use xlink:href="#rim" fill="#404040">
                                <set attributeName="fill" to="#808080" begin="zoomminus.mouseover" end="zoomminus.mouseout"/>
                        </use>
                        <path d="M-4,0h8" fill="none" stroke="white" stroke-width="1.5" pointer-events="none"/>
                </g>
                <g id="dirArrow">
                        <path fill="none" stroke="white" stroke-width="1.5" d="M0,-3.0v7 M-2.5,-0.5L0,-3.0L2.5,-0.5"/>
                </g>
               <g id="resetDef">
                       <use xlink:href="#rim2" fill="#404040">
                               <set attributeName="fill" to="#808080" begin="reset.mouseover" end="reset.mouseout"/>
                       </use>
               </g>
        </defs>

<script type="text/javascript">
var viewWidth = 584;
var viewHeight = 170;
var sectionId = 'dynsection-26';
</script>
<script xlink:href="svgpan.js"/>
<svg id="graph" class="graph">
<g id="viewport">
<title>elc::defs::base::range_n::find_last_not_of</title>
<!-- Node1 -->
<g id="node1" class="node">
<title>Node1</title>
<g id="a_node1"><a xlink:title=" ">
<polygon fill="#999999" stroke="#666666" points="110,-62 0,-62 0,-32 110,-32 110,-62"/>
<text text-anchor="start" x="8" y="-50" font-family="Helvetica,sans-Serif" font-size="10.00">elc::defs::base::range</text>
<text text-anchor="middle" x="55" y="-39" font-family="Helvetica,sans-Serif" font-size="10.00">_n::find_last_not_of</text>
</a>
</g>
</g>
<!-- Node2 -->
<g id="node2" class="node">
<title>Node2</title>
<g id="a_node2"><a xlink:href="namespaceelc_1_1defs_1_1base_1_1range__n.html#afb48d0642ddade3a47f3ee70331ef624" target="_top" xlink:title="若成功找到不匹配的数据项，返回其开头，若未找到，返回nullptr">
<polygon fill="white" stroke="#666666" points="256,-90 146,-90 146,-60 256,-60 256,-90"/>
<text text-anchor="start" x="154" y="-78" font-family="Helvetica,sans-Serif" font-size="10.00">elc::defs::base::range</text>
<text text-anchor="middle" x="201" y="-67" font-family="Helvetica,sans-Serif" font-size="10.00">_n::find_last_not_of</text>
</a>
</g>
</g>
<!-- Node1&#45;&gt;Node2 -->
<g id="edge1" class="edge">
<title>Node1&#45;&gt;Node2</title>
<path fill="none" stroke="#63b8ff" d="M110.03,-57.51C118.4,-59.13 127.13,-60.83 135.7,-62.5"/>
<polygon fill="#63b8ff" stroke="#63b8ff" points="135.18,-65.96 145.67,-64.44 136.52,-59.09 135.18,-65.96"/>
</g>
<!-- Node5 -->
<g id="node5" class="node">
<title>Node5</title>
<g id="a_node5"><a xlink:href="namespaceelc_1_1defs_1_1base_1_1range__n.html#a8fb22aefdce465da055c710889985bd8" target="_top" xlink:title="find_last_not_of的bitmark实现 若成功找到不匹配的数据项，返回其开头，若未找到，返回nullptr">
<polygon fill="white" stroke="#666666" points="430,-30 292,-30 292,0 430,0 430,-30"/>
<text text-anchor="start" x="300" y="-18" font-family="Helvetica,sans-Serif" font-size="10.00">elc::defs::base::range</text>
<text text-anchor="middle" x="361" y="-7" font-family="Helvetica,sans-Serif" font-size="10.00">_n::find_last_not_of_bitmark</text>
</a>
</g>
</g>
<!-- Node1&#45;&gt;Node5 -->
<g id="edge10" class="edge">
<title>Node1&#45;&gt;Node5</title>
<path fill="none" stroke="#63b8ff" d="M110.35,-41.28C158,-36.26 227.86,-28.91 281.57,-23.26"/>
<polygon fill="#63b8ff" stroke="#63b8ff" points="282.16,-26.71 291.74,-22.19 281.43,-19.75 282.16,-26.71"/>
</g>
<!-- Node2&#45;&gt;Node2 -->
<g id="edge6" class="edge">
<title>Node2&#45;&gt;Node2</title>
<path fill="none" stroke="#63b8ff" d="M175.34,-90.28C169.63,-99.41 178.19,-108 201,-108 214.54,-108 223.06,-104.97 226.56,-100.6"/>
<polygon fill="#63b8ff" stroke="#63b8ff" points="230.06,-100.31 226.66,-90.28 223.06,-100.24 230.06,-100.31"/>
</g>
<!-- Node3 -->
<g id="node3" class="node">
<title>Node3</title>
<g id="a_node3"><a xlink:href="namespaceelc_1_1defs_1_1base_1_1range__n.html#a6510d1d98b41ed6eed5b8e7f82282618" target="_top" xlink:title="find_last_not_of的朴素实现 若成功找到不匹配的数据项，返回其开头，若未找到，返回nullptr">
<polygon fill="white" stroke="#666666" points="424.5,-144 297.5,-144 297.5,-114 424.5,-114 424.5,-144"/>
<text text-anchor="start" x="305.5" y="-132" font-family="Helvetica,sans-Serif" font-size="10.00">elc::defs::base::range</text>
<text text-anchor="middle" x="361" y="-121" font-family="Helvetica,sans-Serif" font-size="10.00">_n::base_find_last_not_of</text>
</a>
</g>
</g>
<!-- Node2&#45;&gt;Node3 -->
<g id="edge2" class="edge">
<title>Node2&#45;&gt;Node3</title>
<path fill="none" stroke="#63b8ff" d="M246.01,-90.04C264.68,-96.42 286.62,-103.92 306.23,-110.62"/>
<polygon fill="#63b8ff" stroke="#63b8ff" points="305.36,-114.02 315.95,-113.95 307.62,-107.4 305.36,-114.02"/>
</g>
<!-- Node2&#45;&gt;Node5 -->
<g id="edge7" class="edge">
<title>Node2&#45;&gt;Node5</title>
<path fill="none" stroke="#63b8ff" d="M241.87,-59.86C262.81,-51.91 288.67,-42.09 310.84,-33.67"/>
<polygon fill="#63b8ff" stroke="#63b8ff" points="312.31,-36.85 320.42,-30.03 309.83,-30.31 312.31,-36.85"/>
</g>
<!-- Node6 -->
<g id="node6" class="node">
<title>Node6</title>
<g id="a_node6"><a xlink:href="structelc_1_1defs_1_1base_1_1range__n_1_1bitmark__for__finds.html#aac0eaf6119a2810bc00351cb3c7030e0" target="_top" xlink:title=" ">
<polygon fill="white" stroke="#666666" points="428,-96 294,-96 294,-66 428,-66 428,-96"/>
<text text-anchor="start" x="302" y="-84" font-family="Helvetica,sans-Serif" font-size="10.00">elc::defs::base::range</text>
<text text-anchor="middle" x="361" y="-73" font-family="Helvetica,sans-Serif" font-size="10.00">_n::bitmark_for_finds::mark</text>
</a>
</g>
</g>
<!-- Node2&#45;&gt;Node6 -->
<g id="edge9" class="edge">
<title>Node2&#45;&gt;Node6</title>
<path fill="none" stroke="#63b8ff" d="M256.37,-77.06C265.22,-77.4 274.53,-77.75 283.79,-78.11"/>
<polygon fill="#63b8ff" stroke="#63b8ff" points="283.66,-81.6 293.79,-78.49 283.93,-74.61 283.66,-81.6"/>
</g>
<!-- Node3&#45;&gt;Node3 -->
<g id="edge3" class="edge">
<title>Node3&#45;&gt;Node3</title>
<path fill="none" stroke="#63b8ff" d="M332.88,-144.28C326.62,-153.41 336,-162 361,-162 375.84,-162 385.18,-158.97 389.01,-154.6"/>
<polygon fill="#63b8ff" stroke="#63b8ff" points="392.51,-154.32 389.12,-144.28 385.51,-154.23 392.51,-154.32"/>
</g>
<!-- Node4 -->
<g id="node4" class="node">
<title>Node4</title>
<g id="a_node4"><a xlink:href="namespaceelc_1_1defs_1_1base_1_1range__n.html#ace6a3a9d079214ee7bcce5acbef1e07f" target="_top" xlink:title="判断一个值是否在某个范围内">
<polygon fill="white" stroke="#666666" points="576,-144 466,-144 466,-114 576,-114 576,-144"/>
<text text-anchor="start" x="474" y="-132" font-family="Helvetica,sans-Serif" font-size="10.00">elc::defs::base::range</text>
<text text-anchor="middle" x="521" y="-121" font-family="Helvetica,sans-Serif" font-size="10.00">_n::in_range</text>
</a>
</g>
</g>
<!-- Node3&#45;&gt;Node4 -->
<g id="edge4" class="edge">
<title>Node3&#45;&gt;Node4</title>
<path fill="none" stroke="#63b8ff" d="M424.9,-129C435.1,-129 445.67,-129 455.9,-129"/>
<polygon fill="#63b8ff" stroke="#63b8ff" points="455.98,-132.5 465.98,-129 455.98,-125.5 455.98,-132.5"/>
</g>
<!-- Node4&#45;&gt;Node4 -->
<g id="edge5" class="edge">
<title>Node4&#45;&gt;Node4</title>
<path fill="none" stroke="#63b8ff" d="M492.88,-144.28C486.62,-153.41 496,-162 521,-162 535.84,-162 545.18,-158.97 549.01,-154.6"/>
<polygon fill="#63b8ff" stroke="#63b8ff" points="552.51,-154.32 549.12,-144.28 545.51,-154.23 552.51,-154.32"/>
</g>
<!-- Node5&#45;&gt;Node5 -->
<g id="edge8" class="edge">
<title>Node5&#45;&gt;Node5</title>
<path fill="none" stroke="#63b8ff" d="M332.88,-30.28C326.62,-39.41 336,-48 361,-48 375.84,-48 385.18,-44.97 389.01,-40.6"/>
<polygon fill="#63b8ff" stroke="#63b8ff" points="392.51,-40.32 389.12,-30.28 385.51,-40.23 392.51,-40.32"/>
</g>
</g>
</svg>
        <g id="navigator" transform="translate(0 0)" fill="#404254">
                <rect fill="#f2f5e9" fill-opacity="0.5" stroke="#606060" stroke-width=".5" x="0" y="0" width="60" height="60"/>
                <use id="zoomplus" xlink:href="#zoomPlus" x="17" y="9" onmousedown="handleZoom(evt,'in')"/>
                <use id="zoomminus" xlink:href="#zoomMin" x="42" y="9" onmousedown="handleZoom(evt,'out')"/>
                <use id="reset" xlink:href="#resetDef" x="30" y="36" onmousedown="handleReset()"/>
                <g id="arrowUp" xlink:href="#dirArrow" transform="translate(30 24)" onmousedown="handlePan(0,-1)">
                  <use xlink:href="#rim" fill="#404040">
                        <set attributeName="fill" to="#808080" begin="arrowUp.mouseover" end="arrowUp.mouseout"/>
                  </use>
                  <path fill="none" stroke="white" stroke-width="1.5" d="M0,-3.0v7 M-2.5,-0.5L0,-3.0L2.5,-0.5"/>
                </g>
                <g id="arrowRight" xlink:href="#dirArrow" transform="rotate(90) translate(36 -43)" onmousedown="handlePan(1,0)">
                  <use xlink:href="#rim" fill="#404040">
                        <set attributeName="fill" to="#808080" begin="arrowRight.mouseover" end="arrowRight.mouseout"/>
                  </use>
                  <path fill="none" stroke="white" stroke-width="1.5" d="M0,-3.0v7 M-2.5,-0.5L0,-3.0L2.5,-0.5"/>
                </g>
                <g id="arrowDown" xlink:href="#dirArrow" transform="rotate(180) translate(-30 -48)" onmousedown="handlePan(0,1)">
                  <use xlink:href="#rim" fill="#404040">
                        <set attributeName="fill" to="#808080" begin="arrowDown.mouseover" end="arrowDown.mouseout"/>
                  </use>
                  <path fill="none" stroke="white" stroke-width="1.5" d="M0,-3.0v7 M-2.5,-0.5L0,-3.0L2.5,-0.5"/>
                </g>
                <g id="arrowLeft" xlink:href="#dirArrow" transform="rotate(270) translate(-36 17)" onmousedown="handlePan(-1,0)">
                  <use xlink:href="#rim" fill="#404040">
                        <set attributeName="fill" to="#808080" begin="arrowLeft.mouseover" end="arrowLeft.mouseout"/>
                  </use>
                  <path fill="none" stroke="white" stroke-width="1.5" d="M0,-3.0v7 M-2.5,-0.5L0,-3.0L2.5,-0.5"/>
                </g>
        </g>
        <svg viewBox="0 0 15 15" width="100%" height="30px" preserveAspectRatio="xMaxYMin meet">
         <g id="arrow_out" transform="scale(0.3 0.3)">
          <a xlink:href="namespaceelc_1_1defs_1_1base_1_1range__n_a15201008b1062e175052e2ce83501afb_cgraph_org.svg" target="_base">
           <rect id="button" ry="5" rx="5" y="6" x="6" height="38" width="38"
                fill="#f2f5e9" fill-opacity="0.5" stroke="#606060" stroke-width="1.0"/>
           <path id="arrow"
             d="M 11.500037,31.436501 C 11.940474,20.09759 22.043105,11.32322 32.158766,21.979434 L 37.068811,17.246167 C 37.068811,17.246167 37.088388,32 37.088388,32 L 22.160133,31.978069 C 22.160133,31.978069 26.997745,27.140456 26.997745,27.140456 C 18.528582,18.264221 13.291696,25.230495 11.500037,31.436501 z"
             style="fill:#404040;"/>
          </a>
         </g>
        </svg>
</svg>
