<?xml version="1.0" encoding="UTF-8" standalone="no"?>
<!DOCTYPE svg PUBLIC "-//W3C//DTD SVG 1.1//EN"
 "http://www.w3.org/Graphics/SVG/1.1/DTD/svg11.dtd">
<!-- Generated by graphviz version 6.0.1 (20220911.1526)
 -->
<!-- Title: elc::defs::memory::ptr_n::get_ref_num Pages: 1 -->
<svg width="251pt" height="98pt"
 viewBox="0.00 0.00 251.00 97.50" xmlns="http://www.w3.org/2000/svg" xmlns:xlink="http://www.w3.org/1999/xlink">
<g id="graph0" class="graph" transform="scale(1 1) rotate(0) translate(4 93.5)">
<title>elc::defs::memory::ptr_n::get_ref_num</title>
<!-- Node1 -->
<g id="node1" class="node">
<title>Node1</title>
<g id="a_node1"><a xlink:title=" ">
<polygon fill="#999999" stroke="#666666" points="243,-57 142,-57 142,-27 243,-27 243,-57"/>
<text text-anchor="start" x="150" y="-45" font-family="Helvetica,sans-Serif" font-size="10.00">elc::defs::memory::</text>
<text text-anchor="middle" x="192.5" y="-34" font-family="Helvetica,sans-Serif" font-size="10.00">ptr_n::get_ref_num</text>
</a>
</g>
</g>
<!-- Node1&#45;&gt;Node1 -->
<g id="edge2" class="edge">
<title>Node1&#45;&gt;Node1</title>
<path fill="none" stroke="#63b8ff" d="M216.92,-67.6C213.58,-71.97 205.44,-75 192.5,-75 170.7,-75 162.53,-66.41 167.98,-57.28"/>
<polygon fill="#63b8ff" stroke="#63b8ff" points="220.42,-67.31 217.02,-57.28 213.42,-67.24 220.42,-67.31"/>
</g>
<!-- Node2 -->
<g id="node2" class="node">
<title>Node2</title>
<g id="a_node2"><a xlink:href="classelc_1_1defs_1_1memory_1_1ptr__n_1_1weak__ref__able.html#afcc5b368d2311432001af6a1d3d4085c" target="_top" xlink:title=" ">
<polygon fill="white" stroke="#666666" points="106,-89.5 0,-89.5 0,-48.5 106,-48.5 106,-89.5"/>
<text text-anchor="start" x="8" y="-77.5" font-family="Helvetica,sans-Serif" font-size="10.00">elc::defs::memory::</text>
<text text-anchor="start" x="8" y="-66.5" font-family="Helvetica,sans-Serif" font-size="10.00">ptr_n::weak_ref_able</text>
<text text-anchor="middle" x="53" y="-55.5" font-family="Helvetica,sans-Serif" font-size="10.00">::cut_ref</text>
</a>
</g>
</g>
<!-- Node1&#45;&gt;Node2 -->
<g id="edge1" class="edge">
<title>Node1&#45;&gt;Node2</title>
<path fill="none" stroke="#63b8ff" d="M131.97,-53.69C123.44,-55.36 114.73,-57.08 106.35,-58.72"/>
<polygon fill="#63b8ff" stroke="#63b8ff" points="132.72,-57.11 141.86,-51.75 131.37,-50.24 132.72,-57.11"/>
</g>
<!-- Node3 -->
<g id="node3" class="node">
<title>Node3</title>
<g id="a_node3"><a xlink:href="structelc_1_1defs_1_1memory_1_1ptr__n_1_1ptr__t.html#a882065c884ad89682be4d9ed07c2c57b" target="_top" xlink:title=" ">
<polygon fill="white" stroke="#666666" points="103.5,-30 2.5,-30 2.5,0 103.5,0 103.5,-30"/>
<text text-anchor="start" x="10.5" y="-18" font-family="Helvetica,sans-Serif" font-size="10.00">elc::defs::memory::</text>
<text text-anchor="middle" x="53" y="-7" font-family="Helvetica,sans-Serif" font-size="10.00">ptr_n::ptr_t::ptr_t</text>
</a>
</g>
</g>
<!-- Node1&#45;&gt;Node3 -->
<g id="edge3" class="edge">
<title>Node1&#45;&gt;Node3</title>
<path fill="none" stroke="#63b8ff" d="M131.77,-30.27C122.36,-28.42 112.72,-26.53 103.57,-24.73"/>
<polygon fill="#63b8ff" stroke="#63b8ff" points="131.37,-33.76 141.86,-32.25 132.72,-26.89 131.37,-33.76"/>
</g>
</g>
</svg>
