<?xml version="1.0" encoding="UTF-8" standalone="no"?>
<!DOCTYPE svg PUBLIC "-//W3C//DTD SVG 1.1//EN"
 "http://www.w3.org/Graphics/SVG/1.1/DTD/svg11.dtd">
<!-- Generated by graphviz version 6.0.1 (20220911.1526)
 -->
<!-- Title: elc::defs::base::magic_number::get_prime_num_big_or_eq_than Pages: 1 -->
<svg width="298pt" height="67pt"
 viewBox="0.00 0.00 298.00 67.00" xmlns="http://www.w3.org/2000/svg" xmlns:xlink="http://www.w3.org/1999/xlink">
<g id="graph0" class="graph" transform="scale(1 1) rotate(0) translate(4 63)">
<title>elc::defs::base::magic_number::get_prime_num_big_or_eq_than</title>
<!-- Node1 -->
<g id="node1" class="node">
<title>Node1</title>
<g id="a_node1"><a xlink:title="求大于某数的素数">
<polygon fill="#999999" stroke="#666666" points="290,-41 163,-41 163,0 290,0 290,-41"/>
<text text-anchor="start" x="171" y="-29" font-family="Helvetica,sans-Serif" font-size="10.00">elc::defs::base::magic</text>
<text text-anchor="start" x="171" y="-18" font-family="Helvetica,sans-Serif" font-size="10.00">_number::get_prime_num</text>
<text text-anchor="middle" x="226.5" y="-7" font-family="Helvetica,sans-Serif" font-size="10.00">_big_or_eq_than</text>
</a>
</g>
</g>
<!-- Node2 -->
<g id="node2" class="node">
<title>Node2</title>
<g id="a_node2"><a xlink:href="namespaceelc_1_1defs_1_1base_1_1magic__number.html#a5a0615480539fa32fb57f797cab6b87e" target="_top" xlink:title="已知当前hash table的size，求下一个合适的桶大小">
<polygon fill="white" stroke="#666666" points="127,-41 0,-41 0,0 127,0 127,-41"/>
<text text-anchor="start" x="8" y="-29" font-family="Helvetica,sans-Serif" font-size="10.00">elc::defs::base::magic</text>
<text text-anchor="start" x="8" y="-18" font-family="Helvetica,sans-Serif" font-size="10.00">_number::get_next_gold</text>
<text text-anchor="middle" x="63.5" y="-7" font-family="Helvetica,sans-Serif" font-size="10.00">_size_to_resize_for_hash</text>
</a>
</g>
</g>
<!-- Node1&#45;&gt;Node2 -->
<g id="edge1" class="edge">
<title>Node1&#45;&gt;Node2</title>
<path fill="none" stroke="#63b8ff" d="M152.78,-20.5C144.19,-20.5 135.47,-20.5 127.04,-20.5"/>
<polygon fill="#63b8ff" stroke="#63b8ff" points="152.79,-24 162.79,-20.5 152.79,-17 152.79,-24"/>
</g>
<!-- Node2&#45;&gt;Node2 -->
<g id="edge2" class="edge">
<title>Node2&#45;&gt;Node2</title>
<path fill="none" stroke="#63b8ff" d="M91.54,-50.96C87.37,-55.74 78.03,-59 63.5,-59 40.26,-59 30.27,-50.65 33.54,-41.1"/>
<polygon fill="#63b8ff" stroke="#63b8ff" points="94.99,-51.58 93.46,-41.1 88.12,-50.25 94.99,-51.58"/>
</g>
</g>
</svg>
