<?xml version="1.0" encoding="UTF-8" standalone="no"?>
<!DOCTYPE svg PUBLIC "-//W3C//DTD SVG 1.1//EN"
 "http://www.w3.org/Graphics/SVG/1.1/DTD/svg11.dtd">
<!-- Generated by graphviz version 6.0.1 (20220911.1526)
 -->
<!-- Title: elc::defs::base::magic_number::mod Pages: 1 -->
<svg width="604pt" height="194pt"
 viewBox="0.00 0.00 604.00 193.50" xmlns="http://www.w3.org/2000/svg" xmlns:xlink="http://www.w3.org/1999/xlink">
<g id="graph0" class="graph" transform="scale(1 1) rotate(0) translate(4 189.5)">
<title>elc::defs::base::magic_number::mod</title>
<!-- Node1 -->
<g id="node1" class="node">
<title>Node1</title>
<g id="a_node1"><a xlink:title=" ">
<polygon fill="#999999" stroke="#666666" points="596,-96 483,-96 483,-66 596,-66 596,-96"/>
<text text-anchor="start" x="491" y="-84" font-family="Helvetica,sans-Serif" font-size="10.00">elc::defs::base::magic</text>
<text text-anchor="middle" x="539.5" y="-73" font-family="Helvetica,sans-Serif" font-size="10.00">_number::mod</text>
</a>
</g>
</g>
<!-- Node1&#45;&gt;Node1 -->
<g id="edge5" class="edge">
<title>Node1&#45;&gt;Node1</title>
<path fill="none" stroke="#63b8ff" d="M566.28,-106.6C562.62,-110.97 553.69,-114 539.5,-114 515.59,-114 506.63,-105.41 512.61,-96.28"/>
<polygon fill="#63b8ff" stroke="#63b8ff" points="569.78,-106.31 566.39,-96.28 562.78,-106.24 569.78,-106.31"/>
</g>
<!-- Node2 -->
<g id="node2" class="node">
<title>Node2</title>
<g id="a_node2"><a xlink:href="namespaceelc_1_1defs_1_1base_1_1magic__number.html#abe10e28dd1b440665a49ca358a141e0d" target="_top" xlink:title=" ">
<polygon fill="white" stroke="#666666" points="447,-162 326,-162 326,-132 447,-132 447,-162"/>
<text text-anchor="start" x="334" y="-150" font-family="Helvetica,sans-Serif" font-size="10.00">elc::defs::base::magic</text>
<text text-anchor="middle" x="386.5" y="-139" font-family="Helvetica,sans-Serif" font-size="10.00">_number::is_prime_num</text>
</a>
</g>
</g>
<!-- Node1&#45;&gt;Node2 -->
<g id="edge1" class="edge">
<title>Node1&#45;&gt;Node2</title>
<path fill="none" stroke="#63b8ff" d="M497.09,-100.51C481.47,-107.73 463.48,-115.9 447,-123 440.15,-125.95 432.8,-129 425.7,-131.9"/>
<polygon fill="#63b8ff" stroke="#63b8ff" points="498.89,-103.53 506.48,-96.14 495.94,-97.18 498.89,-103.53"/>
</g>
<!-- Node5 -->
<g id="node5" class="node">
<title>Node5</title>
<g id="a_node5"><a xlink:href="namespaceelc_1_1defs_1_1base_1_1magic__number.html#ac62afcb51840aa2751bb3a9024ef5960" target="_top" xlink:title="位操作：循环左移 不使用std版本而是自己写的原因：std版本右操作数只能是int而不能是size_t或别的，标准会傻逼">
<polygon fill="white" stroke="#666666" points="443,-96 330,-96 330,-66 443,-66 443,-96"/>
<text text-anchor="start" x="338" y="-84" font-family="Helvetica,sans-Serif" font-size="10.00">elc::defs::base::magic</text>
<text text-anchor="middle" x="386.5" y="-73" font-family="Helvetica,sans-Serif" font-size="10.00">_number::rotl</text>
</a>
</g>
</g>
<!-- Node1&#45;&gt;Node5 -->
<g id="edge6" class="edge">
<title>Node1&#45;&gt;Node5</title>
<path fill="none" stroke="#63b8ff" d="M472.56,-81C462.72,-81 452.66,-81 443.07,-81"/>
<polygon fill="#63b8ff" stroke="#63b8ff" points="472.7,-84.5 482.7,-81 472.7,-77.5 472.7,-84.5"/>
</g>
<!-- Node6 -->
<g id="node6" class="node">
<title>Node6</title>
<g id="a_node6"><a xlink:href="namespaceelc_1_1defs_1_1base_1_1magic__number.html#a284c0b938dba3f5651066172c49dae2e" target="_top" xlink:title="位操作：循环右移 不使用std版本而是自己写的原因：std版本右操作数只能是int而不能是size_t或别的，标准会傻逼">
<polygon fill="white" stroke="#666666" points="443,-30 330,-30 330,0 443,0 443,-30"/>
<text text-anchor="start" x="338" y="-18" font-family="Helvetica,sans-Serif" font-size="10.00">elc::defs::base::magic</text>
<text text-anchor="middle" x="386.5" y="-7" font-family="Helvetica,sans-Serif" font-size="10.00">_number::rotr</text>
</a>
</g>
</g>
<!-- Node1&#45;&gt;Node6 -->
<g id="edge8" class="edge">
<title>Node1&#45;&gt;Node6</title>
<path fill="none" stroke="#63b8ff" d="M494.6,-61.81C471.48,-51.71 443.53,-39.49 421.98,-30.07"/>
<polygon fill="#63b8ff" stroke="#63b8ff" points="493.29,-65.06 503.86,-65.86 496.1,-58.65 493.29,-65.06"/>
</g>
<!-- Node3 -->
<g id="node3" class="node">
<title>Node3</title>
<g id="a_node3"><a xlink:href="namespaceelc_1_1defs_1_1base_1_1magic__number.html#afdc8b347fae01a759b499664eb8fffe5" target="_top" xlink:title="求大于某数的素数">
<polygon fill="white" stroke="#666666" points="290,-167.5 163,-167.5 163,-126.5 290,-126.5 290,-167.5"/>
<text text-anchor="start" x="171" y="-155.5" font-family="Helvetica,sans-Serif" font-size="10.00">elc::defs::base::magic</text>
<text text-anchor="start" x="171" y="-144.5" font-family="Helvetica,sans-Serif" font-size="10.00">_number::get_prime_num</text>
<text text-anchor="middle" x="226.5" y="-133.5" font-family="Helvetica,sans-Serif" font-size="10.00">_big_or_eq_than</text>
</a>
</g>
</g>
<!-- Node2&#45;&gt;Node3 -->
<g id="edge2" class="edge">
<title>Node2&#45;&gt;Node3</title>
<path fill="none" stroke="#63b8ff" d="M315.57,-147C307.12,-147 298.54,-147 290.21,-147"/>
<polygon fill="#63b8ff" stroke="#63b8ff" points="315.77,-150.5 325.77,-147 315.77,-143.5 315.77,-150.5"/>
</g>
<!-- Node4 -->
<g id="node4" class="node">
<title>Node4</title>
<g id="a_node4"><a xlink:href="namespaceelc_1_1defs_1_1base_1_1magic__number.html#a5a0615480539fa32fb57f797cab6b87e" target="_top" xlink:title="已知当前hash table的size，求下一个合适的桶大小">
<polygon fill="white" stroke="#666666" points="127,-167.5 0,-167.5 0,-126.5 127,-126.5 127,-167.5"/>
<text text-anchor="start" x="8" y="-155.5" font-family="Helvetica,sans-Serif" font-size="10.00">elc::defs::base::magic</text>
<text text-anchor="start" x="8" y="-144.5" font-family="Helvetica,sans-Serif" font-size="10.00">_number::get_next_gold</text>
<text text-anchor="middle" x="63.5" y="-133.5" font-family="Helvetica,sans-Serif" font-size="10.00">_size_to_resize_for_hash</text>
</a>
</g>
</g>
<!-- Node3&#45;&gt;Node4 -->
<g id="edge3" class="edge">
<title>Node3&#45;&gt;Node4</title>
<path fill="none" stroke="#63b8ff" d="M152.78,-147C144.19,-147 135.47,-147 127.04,-147"/>
<polygon fill="#63b8ff" stroke="#63b8ff" points="152.79,-150.5 162.79,-147 152.79,-143.5 152.79,-150.5"/>
</g>
<!-- Node4&#45;&gt;Node4 -->
<g id="edge4" class="edge">
<title>Node4&#45;&gt;Node4</title>
<path fill="none" stroke="#63b8ff" d="M91.54,-177.46C87.37,-182.24 78.03,-185.5 63.5,-185.5 40.26,-185.5 30.27,-177.15 33.54,-167.6"/>
<polygon fill="#63b8ff" stroke="#63b8ff" points="94.99,-178.08 93.46,-167.6 88.12,-176.75 94.99,-178.08"/>
</g>
<!-- Node5&#45;&gt;Node5 -->
<g id="edge7" class="edge">
<title>Node5&#45;&gt;Node5</title>
<path fill="none" stroke="#63b8ff" d="M413.28,-106.6C409.62,-110.97 400.69,-114 386.5,-114 362.59,-114 353.63,-105.41 359.61,-96.28"/>
<polygon fill="#63b8ff" stroke="#63b8ff" points="416.78,-106.31 413.39,-96.28 409.78,-106.24 416.78,-106.31"/>
</g>
<!-- Node6&#45;&gt;Node6 -->
<g id="edge9" class="edge">
<title>Node6&#45;&gt;Node6</title>
<path fill="none" stroke="#63b8ff" d="M413.28,-40.6C409.62,-44.97 400.69,-48 386.5,-48 362.59,-48 353.63,-39.41 359.61,-30.28"/>
<polygon fill="#63b8ff" stroke="#63b8ff" points="416.78,-40.31 413.39,-30.28 409.78,-40.24 416.78,-40.31"/>
</g>
</g>
</svg>
