<?xml version="1.0" encoding="UTF-8" standalone="no"?>
<!DOCTYPE svg PUBLIC "-//W3C//DTD SVG 1.1//EN"
 "http://www.w3.org/Graphics/SVG/1.1/DTD/svg11.dtd">
<!-- Generated by graphviz version 6.0.1 (20220911.1526)
 -->
<!-- Title: elc::defs::memory::gc_n::default_gc_for_type::destory_by_gc Pages: 1 -->
<svg width="282pt" height="126pt"
 viewBox="0.00 0.00 282.00 126.00" xmlns="http://www.w3.org/2000/svg" xmlns:xlink="http://www.w3.org/1999/xlink">
<g id="graph0" class="graph" transform="scale(1 1) rotate(0) translate(4 122)">
<title>elc::defs::memory::gc_n::default_gc_for_type::destory_by_gc</title>
<!-- Node1 -->
<g id="node1" class="node">
<title>Node1</title>
<g id="a_node1"><a xlink:title=" ">
<polygon fill="#999999" stroke="#666666" points="274,-70 164,-70 164,-29 274,-29 274,-70"/>
<text text-anchor="start" x="172" y="-58" font-family="Helvetica,sans-Serif" font-size="10.00">elc::defs::memory::</text>
<text text-anchor="start" x="172" y="-47" font-family="Helvetica,sans-Serif" font-size="10.00">gc_n::default_gc_for</text>
<text text-anchor="middle" x="219" y="-36" font-family="Helvetica,sans-Serif" font-size="10.00">_type::destory_by_gc</text>
</a>
</g>
</g>
<!-- Node2 -->
<g id="node2" class="node">
<title>Node2</title>
<g id="a_node2"><a xlink:href="namespaceelc_1_1defs_1_1memory_1_1gc__n_1_1default__gc__for__type.html#a6d67dc917edb93d1f2fadc513377a9b8" target="_top" xlink:title=" ">
<polygon fill="white" stroke="#666666" points="128,-100 0,-100 0,-59 128,-59 128,-100"/>
<text text-anchor="start" x="8" y="-88" font-family="Helvetica,sans-Serif" font-size="10.00">elc::defs::memory::</text>
<text text-anchor="start" x="8" y="-77" font-family="Helvetica,sans-Serif" font-size="10.00">gc_n::default_gc_for</text>
<text text-anchor="middle" x="64" y="-66" font-family="Helvetica,sans-Serif" font-size="10.00">_type::default_gc_method</text>
</a>
</g>
</g>
<!-- Node1&#45;&gt;Node2 -->
<g id="edge1" class="edge">
<title>Node1&#45;&gt;Node2</title>
<path fill="none" stroke="#63b8ff" d="M153.77,-62.09C145.27,-63.76 136.56,-65.47 128.08,-67.13"/>
<polygon fill="#63b8ff" stroke="#63b8ff" points="154.49,-65.52 163.63,-60.16 153.14,-58.65 154.49,-65.52"/>
</g>
<!-- Node3 -->
<g id="node3" class="node">
<title>Node3</title>
<g id="a_node3"><a xlink:href="namespaceelc_1_1defs_1_1memory_1_1gc__n_1_1default__gc__for__type.html#a3b2454ba1cd37ff8e7fae640c51d93f5" target="_top" xlink:title=" ">
<polygon fill="white" stroke="#666666" points="119,-41 9,-41 9,0 119,0 119,-41"/>
<text text-anchor="start" x="17" y="-29" font-family="Helvetica,sans-Serif" font-size="10.00">elc::defs::memory::</text>
<text text-anchor="start" x="17" y="-18" font-family="Helvetica,sans-Serif" font-size="10.00">gc_n::default_gc_for</text>
<text text-anchor="middle" x="64" y="-7" font-family="Helvetica,sans-Serif" font-size="10.00">_type::destory_by_gc</text>
</a>
</g>
</g>
<!-- Node1&#45;&gt;Node3 -->
<g id="edge3" class="edge">
<title>Node1&#45;&gt;Node3</title>
<path fill="none" stroke="#63b8ff" d="M153.67,-37.31C142.2,-35.13 130.35,-32.89 119.2,-30.77"/>
<polygon fill="#63b8ff" stroke="#63b8ff" points="153.15,-40.77 163.63,-39.19 154.45,-33.89 153.15,-40.77"/>
</g>
<!-- Node2&#45;&gt;Node2 -->
<g id="edge2" class="edge">
<title>Node2&#45;&gt;Node2</title>
<path fill="none" stroke="#63b8ff" d="M90.67,-109.96C86.7,-114.74 77.81,-118 64,-118 41.9,-118 32.4,-109.65 35.51,-100.1"/>
<polygon fill="#63b8ff" stroke="#63b8ff" points="94.11,-110.57 92.49,-100.1 87.23,-109.3 94.11,-110.57"/>
</g>
</g>
</svg>
