<?xml version="1.0" encoding="UTF-8" standalone="no"?>
<!DOCTYPE svg PUBLIC "-//W3C//DTD SVG 1.1//EN"
 "http://www.w3.org/Graphics/SVG/1.1/DTD/svg11.dtd">
<!-- Generated by graphviz version 6.0.1 (20220911.1526)
 -->
<!-- Title: elc::APIs::alloc::overhead_n::recorrect_pointer Pages: 1 -->
<svg width="480pt" height="56pt"
 viewBox="0.00 0.00 480.00 56.00" xmlns="http://www.w3.org/2000/svg" xmlns:xlink="http://www.w3.org/1999/xlink">
<g id="graph0" class="graph" transform="scale(1 1) rotate(0) translate(4 52)">
<title>elc::APIs::alloc::overhead_n::recorrect_pointer</title>
<!-- Node1 -->
<g id="node1" class="node">
<title>Node1</title>
<g id="a_node1"><a xlink:title=" ">
<polygon fill="#999999" stroke="#666666" points="127,-30 0,-30 0,0 127,0 127,-30"/>
<text text-anchor="start" x="8" y="-18" font-family="Helvetica,sans-Serif" font-size="10.00">elc::APIs::alloc::overhead</text>
<text text-anchor="middle" x="63.5" y="-7" font-family="Helvetica,sans-Serif" font-size="10.00">_n::recorrect_pointer</text>
</a>
</g>
</g>
<!-- Node1&#45;&gt;Node1 -->
<g id="edge5" class="edge">
<title>Node1&#45;&gt;Node1</title>
<path fill="none" stroke="#63b8ff" d="M33.18,-30.28C26.44,-39.41 36.55,-48 63.5,-48 79.5,-48 89.57,-44.97 93.69,-40.6"/>
<polygon fill="#63b8ff" stroke="#63b8ff" points="97.2,-40.32 93.82,-30.28 90.2,-40.23 97.2,-40.32"/>
</g>
<!-- Node2 -->
<g id="node2" class="node">
<title>Node2</title>
<g id="a_node2"><a xlink:href="namespaceelc_1_1_a_p_is_1_1alloc_1_1overhead__n.html#a2ba086e3190c088ca3c11a6e09980c9c" target="_top" xlink:title=" ">
<polygon fill="white" stroke="#666666" points="309,-30 163,-30 163,0 309,0 309,-30"/>
<text text-anchor="start" x="171" y="-18" font-family="Helvetica,sans-Serif" font-size="10.00">elc::APIs::alloc::overhead</text>
<text text-anchor="middle" x="236" y="-7" font-family="Helvetica,sans-Serif" font-size="10.00">_n::overhead_get_offset_value</text>
</a>
</g>
</g>
<!-- Node1&#45;&gt;Node2 -->
<g id="edge1" class="edge">
<title>Node1&#45;&gt;Node2</title>
<path fill="none" stroke="#63b8ff" d="M127.02,-15C135.42,-15 144.14,-15 152.82,-15"/>
<polygon fill="#63b8ff" stroke="#63b8ff" points="152.96,-18.5 162.96,-15 152.96,-11.5 152.96,-18.5"/>
</g>
<!-- Node2&#45;&gt;Node2 -->
<g id="edge4" class="edge">
<title>Node2&#45;&gt;Node2</title>
<path fill="none" stroke="#63b8ff" d="M205.68,-30.28C198.94,-39.41 209.05,-48 236,-48 252,-48 262.07,-44.97 266.19,-40.6"/>
<polygon fill="#63b8ff" stroke="#63b8ff" points="269.7,-40.32 266.32,-30.28 262.7,-40.23 269.7,-40.32"/>
</g>
<!-- Node3 -->
<g id="node3" class="node">
<title>Node3</title>
<g id="a_node3"><a xlink:href="namespaceelc_1_1_a_p_is_1_1alloc_1_1overhead__n.html#a8b792e6d02266492cbfa82da4abc2c37" target="_top" xlink:title=" ">
<polygon fill="white" stroke="#666666" points="472,-30 345,-30 345,0 472,0 472,-30"/>
<text text-anchor="start" x="353" y="-18" font-family="Helvetica,sans-Serif" font-size="10.00">elc::APIs::alloc::overhead</text>
<text text-anchor="middle" x="408.5" y="-7" font-family="Helvetica,sans-Serif" font-size="10.00">_n::overhead_get_align</text>
</a>
</g>
</g>
<!-- Node2&#45;&gt;Node3 -->
<g id="edge2" class="edge">
<title>Node2&#45;&gt;Node3</title>
<path fill="none" stroke="#63b8ff" d="M309.31,-15C317.7,-15 326.26,-15 334.65,-15"/>
<polygon fill="#63b8ff" stroke="#63b8ff" points="334.79,-18.5 344.79,-15 334.79,-11.5 334.79,-18.5"/>
</g>
<!-- Node3&#45;&gt;Node3 -->
<g id="edge3" class="edge">
<title>Node3&#45;&gt;Node3</title>
<path fill="none" stroke="#63b8ff" d="M378.18,-30.28C371.44,-39.41 381.55,-48 408.5,-48 424.5,-48 434.57,-44.97 438.69,-40.6"/>
<polygon fill="#63b8ff" stroke="#63b8ff" points="442.2,-40.32 438.82,-30.28 435.2,-40.23 442.2,-40.32"/>
</g>
</g>
</svg>
