<?xml version="1.0" encoding="UTF-8" standalone="no"?>
<!DOCTYPE svg PUBLIC "-//W3C//DTD SVG 1.1//EN"
 "http://www.w3.org/Graphics/SVG/1.1/DTD/svg11.dtd">
<!-- Generated by graphviz version 6.0.1 (20220911.1526)
 -->
<!-- Title: elc::defs::base::range_n::find_last_of_size_t Pages: 1 -->
<svg width="741pt" height="185pt"
 viewBox="0.00 0.00 741.00 184.50" xmlns="http://www.w3.org/2000/svg" xmlns:xlink="http://www.w3.org/1999/xlink">
<g id="graph0" class="graph" transform="scale(1 1) rotate(0) translate(4 180.5)">
<title>elc::defs::base::range_n::find_last_of_size_t</title>
<!-- Node1 -->
<g id="node1" class="node">
<title>Node1</title>
<g id="a_node1"><a xlink:title=" ">
<polygon fill="#999999" stroke="#666666" points="113,-65.5 0,-65.5 0,-35.5 113,-35.5 113,-65.5"/>
<text text-anchor="start" x="8" y="-53.5" font-family="Helvetica,sans-Serif" font-size="10.00">elc::defs::base::range</text>
<text text-anchor="middle" x="56.5" y="-42.5" font-family="Helvetica,sans-Serif" font-size="10.00">_n::find_last_of_size_t</text>
</a>
</g>
</g>
<!-- Node2 -->
<g id="node2" class="node">
<title>Node2</title>
<g id="a_node2"><a xlink:href="namespaceelc_1_1defs_1_1base_1_1range__n.html#a543781983fe9ec71e31537054056d8df" target="_top" xlink:title="若成功找到匹配的数据项，返回其开头，若未找到，返回nullptr">
<polygon fill="white" stroke="#666666" points="412.5,-92.5 302.5,-92.5 302.5,-62.5 412.5,-62.5 412.5,-92.5"/>
<text text-anchor="start" x="310.5" y="-80.5" font-family="Helvetica,sans-Serif" font-size="10.00">elc::defs::base::range</text>
<text text-anchor="middle" x="357.5" y="-69.5" font-family="Helvetica,sans-Serif" font-size="10.00">_n::find_last_of</text>
</a>
</g>
</g>
<!-- Node1&#45;&gt;Node2 -->
<g id="edge1" class="edge">
<title>Node1&#45;&gt;Node2</title>
<path fill="none" stroke="#63b8ff" d="M113.08,-58.32C124.92,-59.83 137.36,-61.32 149,-62.5 196.87,-67.36 251.1,-71.23 292.12,-73.82"/>
<polygon fill="#63b8ff" stroke="#63b8ff" points="292.05,-77.32 302.25,-74.45 292.49,-70.33 292.05,-77.32"/>
</g>
<!-- Node7 -->
<g id="node7" class="node">
<title>Node7</title>
<g id="a_node7"><a xlink:href="namespaceelc_1_1defs_1_1base_1_1range__n.html#a67bc8bf901f9fde202c8a61db93221c3" target="_top" xlink:title="若成功找到匹配的数据项，返回其距离开头的步数，若未找到，返回npos">
<polygon fill="white" stroke="#666666" points="262,-35.5 149,-35.5 149,-5.5 262,-5.5 262,-35.5"/>
<text text-anchor="start" x="157" y="-23.5" font-family="Helvetica,sans-Serif" font-size="10.00">elc::defs::base::range</text>
<text text-anchor="middle" x="205.5" y="-12.5" font-family="Helvetica,sans-Serif" font-size="10.00">_n::find_last_of_size_t</text>
</a>
</g>
</g>
<!-- Node1&#45;&gt;Node7 -->
<g id="edge10" class="edge">
<title>Node1&#45;&gt;Node7</title>
<path fill="none" stroke="#63b8ff" d="M113.07,-39.16C121.49,-37.44 130.24,-35.66 138.84,-33.9"/>
<polygon fill="#63b8ff" stroke="#63b8ff" points="139.75,-37.29 148.85,-31.86 138.35,-30.43 139.75,-37.29"/>
</g>
<!-- Node2&#45;&gt;Node2 -->
<g id="edge6" class="edge">
<title>Node2&#45;&gt;Node2</title>
<path fill="none" stroke="#63b8ff" d="M330.78,-92.78C324.84,-101.91 333.75,-110.5 357.5,-110.5 371.6,-110.5 380.47,-107.47 384.11,-103.1"/>
<polygon fill="#63b8ff" stroke="#63b8ff" points="387.61,-102.81 384.22,-92.78 380.61,-102.74 387.61,-102.81"/>
</g>
<!-- Node3 -->
<g id="node3" class="node">
<title>Node3</title>
<g id="a_node3"><a xlink:href="namespaceelc_1_1defs_1_1base_1_1range__n.html#a295e5e75861175fe849be1ae586bd178" target="_top" xlink:title="find_last_of的朴素实现 若成功找到匹配的数据项，返回其开头，若未找到，返回nullptr">
<polygon fill="white" stroke="#666666" points="575,-158.5 465,-158.5 465,-128.5 575,-128.5 575,-158.5"/>
<text text-anchor="start" x="473" y="-146.5" font-family="Helvetica,sans-Serif" font-size="10.00">elc::defs::base::range</text>
<text text-anchor="middle" x="520" y="-135.5" font-family="Helvetica,sans-Serif" font-size="10.00">_n::base_find_last_of</text>
</a>
</g>
</g>
<!-- Node2&#45;&gt;Node3 -->
<g id="edge2" class="edge">
<title>Node2&#45;&gt;Node3</title>
<path fill="none" stroke="#63b8ff" d="M391.06,-92.64C409.17,-100.89 432.19,-111.1 453,-119.5 457.43,-121.29 462.05,-123.09 466.7,-124.86"/>
<polygon fill="#63b8ff" stroke="#63b8ff" points="465.64,-128.2 476.23,-128.44 468.1,-121.65 465.64,-128.2"/>
</g>
<!-- Node5 -->
<g id="node5" class="node">
<title>Node5</title>
<g id="a_node5"><a xlink:href="namespaceelc_1_1defs_1_1base_1_1range__n.html#a3369018f6ebb677d3b9acd3a193da180" target="_top" xlink:title="find_last_of的bitmark实现 若成功找到匹配的数据项，返回其开头，若未找到，返回nullptr">
<polygon fill="white" stroke="#666666" points="579.5,-92.5 460.5,-92.5 460.5,-62.5 579.5,-62.5 579.5,-92.5"/>
<text text-anchor="start" x="468.5" y="-80.5" font-family="Helvetica,sans-Serif" font-size="10.00">elc::defs::base::range</text>
<text text-anchor="middle" x="520" y="-69.5" font-family="Helvetica,sans-Serif" font-size="10.00">_n::find_last_of_bitmark</text>
</a>
</g>
</g>
<!-- Node2&#45;&gt;Node5 -->
<g id="edge7" class="edge">
<title>Node2&#45;&gt;Node5</title>
<path fill="none" stroke="#63b8ff" d="M412.84,-77.5C424.77,-77.5 437.57,-77.5 449.99,-77.5"/>
<polygon fill="#63b8ff" stroke="#63b8ff" points="450.32,-81 460.32,-77.5 450.32,-74 450.32,-81"/>
</g>
<!-- Node6 -->
<g id="node6" class="node">
<title>Node6</title>
<g id="a_node6"><a xlink:href="structelc_1_1defs_1_1base_1_1range__n_1_1bitmark__for__finds.html#aac0eaf6119a2810bc00351cb3c7030e0" target="_top" xlink:title=" ">
<polygon fill="white" stroke="#666666" points="587,-44.5 453,-44.5 453,-14.5 587,-14.5 587,-44.5"/>
<text text-anchor="start" x="461" y="-32.5" font-family="Helvetica,sans-Serif" font-size="10.00">elc::defs::base::range</text>
<text text-anchor="middle" x="520" y="-21.5" font-family="Helvetica,sans-Serif" font-size="10.00">_n::bitmark_for_finds::mark</text>
</a>
</g>
</g>
<!-- Node2&#45;&gt;Node6 -->
<g id="edge9" class="edge">
<title>Node2&#45;&gt;Node6</title>
<path fill="none" stroke="#63b8ff" d="M408.84,-62.44C424.83,-57.66 442.66,-52.33 459.24,-47.37"/>
<polygon fill="#63b8ff" stroke="#63b8ff" points="460.26,-50.72 468.84,-44.5 458.25,-44.01 460.26,-50.72"/>
</g>
<!-- Node3&#45;&gt;Node3 -->
<g id="edge3" class="edge">
<title>Node3&#45;&gt;Node3</title>
<path fill="none" stroke="#63b8ff" d="M492.23,-158.78C486.05,-167.91 495.31,-176.5 520,-176.5 534.66,-176.5 543.88,-173.47 547.66,-169.1"/>
<polygon fill="#63b8ff" stroke="#63b8ff" points="551.16,-168.81 547.77,-158.78 544.16,-168.73 551.16,-168.81"/>
</g>
<!-- Node4 -->
<g id="node4" class="node">
<title>Node4</title>
<g id="a_node4"><a xlink:href="namespaceelc_1_1defs_1_1base_1_1range__n.html#ace6a3a9d079214ee7bcce5acbef1e07f" target="_top" xlink:title="判断一个值是否在某个范围内">
<polygon fill="white" stroke="#666666" points="733,-158.5 623,-158.5 623,-128.5 733,-128.5 733,-158.5"/>
<text text-anchor="start" x="631" y="-146.5" font-family="Helvetica,sans-Serif" font-size="10.00">elc::defs::base::range</text>
<text text-anchor="middle" x="678" y="-135.5" font-family="Helvetica,sans-Serif" font-size="10.00">_n::in_range</text>
</a>
</g>
</g>
<!-- Node3&#45;&gt;Node4 -->
<g id="edge4" class="edge">
<title>Node3&#45;&gt;Node4</title>
<path fill="none" stroke="#63b8ff" d="M575.12,-143.5C587.22,-143.5 600.17,-143.5 612.64,-143.5"/>
<polygon fill="#63b8ff" stroke="#63b8ff" points="612.97,-147 622.97,-143.5 612.97,-140 612.97,-147"/>
</g>
<!-- Node4&#45;&gt;Node4 -->
<g id="edge5" class="edge">
<title>Node4&#45;&gt;Node4</title>
<path fill="none" stroke="#63b8ff" d="M650.23,-158.78C644.05,-167.91 653.31,-176.5 678,-176.5 692.66,-176.5 701.88,-173.47 705.66,-169.1"/>
<polygon fill="#63b8ff" stroke="#63b8ff" points="709.16,-168.81 705.77,-158.78 702.16,-168.73 709.16,-168.81"/>
</g>
<!-- Node5&#45;&gt;Node5 -->
<g id="edge8" class="edge">
<title>Node5&#45;&gt;Node5</title>
<path fill="none" stroke="#63b8ff" d="M492.23,-92.78C486.05,-101.91 495.31,-110.5 520,-110.5 534.66,-110.5 543.88,-107.47 547.66,-103.1"/>
<polygon fill="#63b8ff" stroke="#63b8ff" points="551.16,-102.81 547.77,-92.78 544.16,-102.73 551.16,-102.81"/>
</g>
<!-- Node7&#45;&gt;Node2 -->
<g id="edge12" class="edge">
<title>Node7&#45;&gt;Node2</title>
<path fill="none" stroke="#63b8ff" d="M246.3,-35.63C265.03,-42.74 287.53,-51.29 307.31,-58.81"/>
<polygon fill="#63b8ff" stroke="#63b8ff" points="306.18,-62.12 316.77,-62.4 308.67,-55.58 306.18,-62.12"/>
</g>
<!-- Node7&#45;&gt;Node7 -->
<g id="edge13" class="edge">
<title>Node7&#45;&gt;Node7</title>
<path fill="none" stroke="#63b8ff" d="M179.31,-35.78C173.49,-44.91 182.22,-53.5 205.5,-53.5 219.32,-53.5 228.02,-50.47 231.58,-46.1"/>
<polygon fill="#63b8ff" stroke="#63b8ff" points="235.08,-45.81 231.69,-35.78 228.08,-45.74 235.08,-45.81"/>
</g>
<!-- Node8 -->
<g id="node8" class="node">
<title>Node8</title>
<g id="a_node8"><a xlink:href="structelc_1_1defs_1_1base_1_1array__like__n_1_1array__like__view__t.html#a613a7a28045bb8efd320108a432ad775" target="_top" xlink:title=" ">
<polygon fill="white" stroke="#666666" points="417,-41 298,-41 298,0 417,0 417,-41"/>
<text text-anchor="start" x="306" y="-29" font-family="Helvetica,sans-Serif" font-size="10.00">elc::defs::base::array</text>
<text text-anchor="start" x="306" y="-18" font-family="Helvetica,sans-Serif" font-size="10.00">_like_n::array_like_view</text>
<text text-anchor="middle" x="357.5" y="-7" font-family="Helvetica,sans-Serif" font-size="10.00">_t::begin</text>
</a>
</g>
</g>
<!-- Node7&#45;&gt;Node8 -->
<g id="edge11" class="edge">
<title>Node7&#45;&gt;Node8</title>
<path fill="none" stroke="#63b8ff" d="M262.35,-20.5C270.59,-20.5 279.15,-20.5 287.6,-20.5"/>
<polygon fill="#63b8ff" stroke="#63b8ff" points="287.84,-24 297.84,-20.5 287.84,-17 287.84,-24"/>
</g>
</g>
</svg>
