<?xml version="1.0" encoding="UTF-8" standalone="no"?>
<!DOCTYPE svg PUBLIC "-//W3C//DTD SVG 1.1//EN"
 "http://www.w3.org/Graphics/SVG/1.1/DTD/svg11.dtd">
<!-- Generated by graphviz version 6.0.1 (20220911.1526)
 -->
<!-- Title: elc::defs::core::the_destroy Pages: 1 -->
<svg width="709pt" height="146pt"
 viewBox="0.00 0.00 709.00 145.50" xmlns="http://www.w3.org/2000/svg" xmlns:xlink="http://www.w3.org/1999/xlink">
<g id="graph0" class="graph" transform="scale(1 1) rotate(0) translate(4 141.5)">
<title>elc::defs::core::the_destroy</title>
<!-- Node1 -->
<g id="node1" class="node">
<title>Node1</title>
<g id="a_node1"><a xlink:title=" ">
<polygon fill="#999999" stroke="#666666" points="98,-78 0,-78 0,-48 98,-48 98,-78"/>
<text text-anchor="start" x="8" y="-66" font-family="Helvetica,sans-Serif" font-size="10.00">elc::defs::core::the</text>
<text text-anchor="middle" x="49" y="-55" font-family="Helvetica,sans-Serif" font-size="10.00">_destroy</text>
</a>
</g>
</g>
<!-- Node2 -->
<g id="node2" class="node">
<title>Node2</title>
<g id="a_node2"><a xlink:href="structelc_1_1defs_1_1core_1_1node__like.html#a53e3ac38b813a6248a6687e60392ca64" target="_top" xlink:title=" ">
<polygon fill="white" stroke="#666666" points="239,-78 134,-78 134,-48 239,-48 239,-78"/>
<text text-anchor="start" x="142" y="-66" font-family="Helvetica,sans-Serif" font-size="10.00">elc::defs::core::node</text>
<text text-anchor="middle" x="186.5" y="-55" font-family="Helvetica,sans-Serif" font-size="10.00">_like::destroy</text>
</a>
</g>
</g>
<!-- Node1&#45;&gt;Node2 -->
<g id="edge1" class="edge">
<title>Node1&#45;&gt;Node2</title>
<path fill="none" stroke="#63b8ff" d="M98.15,-63C106.46,-63 115.2,-63 123.81,-63"/>
<polygon fill="#63b8ff" stroke="#63b8ff" points="123.83,-66.5 133.83,-63 123.83,-59.5 123.83,-66.5"/>
</g>
<!-- Node3 -->
<g id="node3" class="node">
<title>Node3</title>
<g id="a_node3"><a xlink:href="structelc_1_1defs_1_1core_1_1node__like.html#a772b69c7911dabdc464ae71efa6f6318" target="_top" xlink:title=" ">
<polygon fill="white" stroke="#666666" points="381,-78 275,-78 275,-48 381,-48 381,-78"/>
<text text-anchor="start" x="283" y="-66" font-family="Helvetica,sans-Serif" font-size="10.00">elc::defs::core::node</text>
<text text-anchor="middle" x="328" y="-55" font-family="Helvetica,sans-Serif" font-size="10.00">_like::be_replace_as</text>
</a>
</g>
</g>
<!-- Node2&#45;&gt;Node3 -->
<g id="edge2" class="edge">
<title>Node2&#45;&gt;Node3</title>
<path fill="none" stroke="#63b8ff" d="M239.05,-63C247.33,-63 255.97,-63 264.47,-63"/>
<polygon fill="#63b8ff" stroke="#63b8ff" points="264.73,-66.5 274.73,-63 264.73,-59.5 264.73,-66.5"/>
</g>
<!-- Node4 -->
<g id="node4" class="node">
<title>Node4</title>
<g id="a_node4"><a xlink:href="structelc_1_1defs_1_1memory_1_1others__n_1_1replace__able.html#a098536625acaf5d31620b07fe3221fff" target="_top" xlink:title=" ">
<polygon fill="white" stroke="#666666" points="532,-137.5 417,-137.5 417,-96.5 532,-96.5 532,-137.5"/>
<text text-anchor="start" x="425" y="-125.5" font-family="Helvetica,sans-Serif" font-size="10.00">elc::defs::memory::</text>
<text text-anchor="start" x="425" y="-114.5" font-family="Helvetica,sans-Serif" font-size="10.00">others_n::replace_able</text>
<text text-anchor="middle" x="474.5" y="-103.5" font-family="Helvetica,sans-Serif" font-size="10.00">::be_replace_as</text>
</a>
</g>
</g>
<!-- Node3&#45;&gt;Node4 -->
<g id="edge3" class="edge">
<title>Node3&#45;&gt;Node4</title>
<path fill="none" stroke="#63b8ff" d="M369.25,-78.04C381.55,-82.64 395.4,-87.81 408.88,-92.85"/>
<polygon fill="#63b8ff" stroke="#63b8ff" points="408.02,-96.27 418.61,-96.49 410.47,-89.71 408.02,-96.27"/>
</g>
<!-- Node6 -->
<g id="node6" class="node">
<title>Node6</title>
<g id="a_node6"><a xlink:href="structelc_1_1defs_1_1core_1_1node__like.html#aefcdaffad816fe7ead26436a92ac268a" target="_top" xlink:title=" ">
<polygon fill="white" stroke="#666666" points="527,-78 422,-78 422,-48 527,-48 527,-78"/>
<text text-anchor="start" x="430" y="-66" font-family="Helvetica,sans-Serif" font-size="10.00">elc::defs::core::node</text>
<text text-anchor="middle" x="474.5" y="-55" font-family="Helvetica,sans-Serif" font-size="10.00">_like::clear</text>
</a>
</g>
</g>
<!-- Node3&#45;&gt;Node6 -->
<g id="edge5" class="edge">
<title>Node3&#45;&gt;Node6</title>
<path fill="none" stroke="#63b8ff" d="M381.17,-63C391.11,-63 401.61,-63 411.81,-63"/>
<polygon fill="#63b8ff" stroke="#63b8ff" points="411.89,-66.5 421.89,-63 411.89,-59.5 411.89,-66.5"/>
</g>
<!-- Node7 -->
<g id="node7" class="node">
<title>Node7</title>
<g id="a_node7"><a xlink:href="structelc_1_1defs_1_1memory_1_1ptr__n_1_1ptr__t.html#afa7ec8ea3b1c71df95fdfc05b7d726d8" target="_top" xlink:title=" ">
<polygon fill="white" stroke="#666666" points="525,-30 424,-30 424,0 525,0 525,-30"/>
<text text-anchor="start" x="432" y="-18" font-family="Helvetica,sans-Serif" font-size="10.00">elc::defs::memory::</text>
<text text-anchor="middle" x="474.5" y="-7" font-family="Helvetica,sans-Serif" font-size="10.00">ptr_n::ptr_t::get</text>
</a>
</g>
</g>
<!-- Node3&#45;&gt;Node7 -->
<g id="edge6" class="edge">
<title>Node3&#45;&gt;Node7</title>
<path fill="none" stroke="#63b8ff" d="M374.32,-47.94C388.31,-43.3 403.87,-38.13 418.44,-33.29"/>
<polygon fill="#63b8ff" stroke="#63b8ff" points="419.95,-36.48 428.34,-30 417.74,-29.83 419.95,-36.48"/>
</g>
<!-- Node5 -->
<g id="node5" class="node">
<title>Node5</title>
<g id="a_node5"><a xlink:href="structelc_1_1defs_1_1memory_1_1others__n_1_1replace__able.html#a6c4c40ad25a3907b6407cd9352f7b52a" target="_top" xlink:title=" ">
<polygon fill="white" stroke="#666666" points="692,-137.5 577,-137.5 577,-96.5 692,-96.5 692,-137.5"/>
<text text-anchor="start" x="585" y="-125.5" font-family="Helvetica,sans-Serif" font-size="10.00">elc::defs::memory::</text>
<text text-anchor="start" x="585" y="-114.5" font-family="Helvetica,sans-Serif" font-size="10.00">others_n::replace_able</text>
<text text-anchor="middle" x="634.5" y="-103.5" font-family="Helvetica,sans-Serif" font-size="10.00">::replaced</text>
</a>
</g>
</g>
<!-- Node4&#45;&gt;Node5 -->
<g id="edge4" class="edge">
<title>Node4&#45;&gt;Node5</title>
<path fill="none" stroke="#63b8ff" d="M532.1,-117C543.33,-117 555.22,-117 566.75,-117"/>
<polygon fill="#63b8ff" stroke="#63b8ff" points="566.77,-120.5 576.77,-117 566.77,-113.5 566.77,-120.5"/>
</g>
<!-- Node8 -->
<g id="node8" class="node">
<title>Node8</title>
<g id="a_node8"><a xlink:href="structelc_1_1defs_1_1memory_1_1ptr__n_1_1ptr__t.html#ab0ddc2cf5279d67e43eedad6d7301ae1" target="_top" xlink:title=" ">
<polygon fill="white" stroke="#666666" points="701,-30 568,-30 568,0 701,0 701,-30"/>
<text text-anchor="start" x="576" y="-18" font-family="Helvetica,sans-Serif" font-size="10.00">elc::defs::memory::</text>
<text text-anchor="middle" x="634.5" y="-7" font-family="Helvetica,sans-Serif" font-size="10.00">ptr_n::ptr_t::replace_check</text>
</a>
</g>
</g>
<!-- Node7&#45;&gt;Node8 -->
<g id="edge7" class="edge">
<title>Node7&#45;&gt;Node8</title>
<path fill="none" stroke="#63b8ff" d="M525.06,-15C535.45,-15 546.64,-15 557.74,-15"/>
<polygon fill="#63b8ff" stroke="#63b8ff" points="557.89,-18.5 567.89,-15 557.89,-11.5 557.89,-18.5"/>
</g>
</g>
</svg>
