<?xml version="1.0" encoding="UTF-8" standalone="no"?>
<!DOCTYPE svg PUBLIC "-//W3C//DTD SVG 1.1//EN"
 "http://www.w3.org/Graphics/SVG/1.1/DTD/svg11.dtd">
<!-- Generated by graphviz version 6.0.1 (20220911.1526)
 -->
<!-- Title: elc::defs::base::range_n::in_range_but_reverse_size_t Pages: 1 -->
<svg width="455pt" height="127pt"
 viewBox="0.00 0.00 455.00 126.50" xmlns="http://www.w3.org/2000/svg" xmlns:xlink="http://www.w3.org/1999/xlink">
<g id="graph0" class="graph" transform="scale(1 1) rotate(0) translate(4 122.5)">
<title>elc::defs::base::range_n::in_range_but_reverse_size_t</title>
<!-- Node1 -->
<g id="node1" class="node">
<title>Node1</title>
<g id="a_node1"><a xlink:title="若成功找到匹配的数据串，返回其距离开头的步数，若未找到，返回npos">
<polygon fill="#999999" stroke="#666666" points="125,-62.5 0,-62.5 0,-21.5 125,-21.5 125,-62.5"/>
<text text-anchor="start" x="8" y="-50.5" font-family="Helvetica,sans-Serif" font-size="10.00">elc::defs::base::range</text>
<text text-anchor="start" x="8" y="-39.5" font-family="Helvetica,sans-Serif" font-size="10.00">_n::in_range_but_reverse</text>
<text text-anchor="middle" x="62.5" y="-28.5" font-family="Helvetica,sans-Serif" font-size="10.00">_size_t</text>
</a>
</g>
</g>
<!-- Node2 -->
<g id="node2" class="node">
<title>Node2</title>
<g id="a_node2"><a xlink:href="structelc_1_1defs_1_1base_1_1array__like__n_1_1array__like__view__t.html#a613a7a28045bb8efd320108a432ad775" target="_top" xlink:title=" ">
<polygon fill="white" stroke="#666666" points="444,-118.5 325,-118.5 325,-77.5 444,-77.5 444,-118.5"/>
<text text-anchor="start" x="333" y="-106.5" font-family="Helvetica,sans-Serif" font-size="10.00">elc::defs::base::array</text>
<text text-anchor="start" x="333" y="-95.5" font-family="Helvetica,sans-Serif" font-size="10.00">_like_n::array_like_view</text>
<text text-anchor="middle" x="384.5" y="-84.5" font-family="Helvetica,sans-Serif" font-size="10.00">_t::begin</text>
</a>
</g>
</g>
<!-- Node1&#45;&gt;Node2 -->
<g id="edge1" class="edge">
<title>Node1&#45;&gt;Node2</title>
<path fill="none" stroke="#63b8ff" d="M96.44,-62.57C114.73,-72.85 138.31,-84.29 161,-90 211.42,-102.7 270.29,-104.26 314.81,-102.88"/>
<polygon fill="#63b8ff" stroke="#63b8ff" points="315.07,-106.38 324.94,-102.51 314.82,-99.38 315.07,-106.38"/>
</g>
<!-- Node3 -->
<g id="node3" class="node">
<title>Node3</title>
<g id="a_node3"><a xlink:href="namespaceelc_1_1defs_1_1base_1_1range__n.html#a34f1fb9d2924b8dc3249d4a7c0accab6" target="_top" xlink:title="若成功找到匹配的数据项，返回其开头，若未找到，返回nullptr">
<polygon fill="white" stroke="#666666" points="447,-30 322,-30 322,0 447,0 447,-30"/>
<text text-anchor="start" x="330" y="-18" font-family="Helvetica,sans-Serif" font-size="10.00">elc::defs::base::range</text>
<text text-anchor="middle" x="384.5" y="-7" font-family="Helvetica,sans-Serif" font-size="10.00">_n::in_range_but_reverse</text>
</a>
</g>
</g>
<!-- Node1&#45;&gt;Node3 -->
<g id="edge2" class="edge">
<title>Node1&#45;&gt;Node3</title>
<path fill="none" stroke="#63b8ff" d="M120.06,-21.48C133.32,-17.55 147.51,-14.03 161,-12 210.97,-4.49 267.97,-5.43 311.77,-8.16"/>
<polygon fill="#63b8ff" stroke="#63b8ff" points="311.54,-11.65 321.75,-8.82 312,-4.67 311.54,-11.65"/>
</g>
<!-- Node4 -->
<g id="node4" class="node">
<title>Node4</title>
<g id="a_node4"><a xlink:href="namespaceelc_1_1defs_1_1base_1_1range__n.html#a75e2fce9974e6518db0bb9380f9c315a" target="_top" xlink:title="若成功找到匹配的数据项，返回其距离开头的步数，若未找到，返回npos">
<polygon fill="white" stroke="#666666" points="286,-62.5 161,-62.5 161,-21.5 286,-21.5 286,-62.5"/>
<text text-anchor="start" x="169" y="-50.5" font-family="Helvetica,sans-Serif" font-size="10.00">elc::defs::base::range</text>
<text text-anchor="start" x="169" y="-39.5" font-family="Helvetica,sans-Serif" font-size="10.00">_n::in_range_but_reverse</text>
<text text-anchor="middle" x="223.5" y="-28.5" font-family="Helvetica,sans-Serif" font-size="10.00">_size_t</text>
</a>
</g>
</g>
<!-- Node1&#45;&gt;Node4 -->
<g id="edge4" class="edge">
<title>Node1&#45;&gt;Node4</title>
<path fill="none" stroke="#63b8ff" d="M125.43,-42C133.67,-42 142.18,-42 150.58,-42"/>
<polygon fill="#63b8ff" stroke="#63b8ff" points="150.74,-45.5 160.74,-42 150.74,-38.5 150.74,-45.5"/>
</g>
<!-- Node3&#45;&gt;Node3 -->
<g id="edge3" class="edge">
<title>Node3&#45;&gt;Node3</title>
<path fill="none" stroke="#63b8ff" d="M356.2,-30.28C349.91,-39.41 359.34,-48 384.5,-48 399.44,-48 408.83,-44.97 412.68,-40.6"/>
<polygon fill="#63b8ff" stroke="#63b8ff" points="416.18,-40.32 412.8,-30.28 409.18,-40.23 416.18,-40.32"/>
</g>
<!-- Node4&#45;&gt;Node2 -->
<g id="edge5" class="edge">
<title>Node4&#45;&gt;Node2</title>
<path fill="none" stroke="#63b8ff" d="M282.8,-62.53C293.5,-66.3 304.74,-70.26 315.69,-74.12"/>
<polygon fill="#63b8ff" stroke="#63b8ff" points="314.61,-77.45 325.2,-77.47 316.93,-70.84 314.61,-77.45"/>
</g>
<!-- Node4&#45;&gt;Node3 -->
<g id="edge6" class="edge">
<title>Node4&#45;&gt;Node3</title>
<path fill="none" stroke="#63b8ff" d="M286.43,-31.48C294.76,-30.07 303.37,-28.61 311.86,-27.17"/>
<polygon fill="#63b8ff" stroke="#63b8ff" points="312.47,-30.61 321.74,-25.49 311.3,-23.71 312.47,-30.61"/>
</g>
<!-- Node4&#45;&gt;Node4 -->
<g id="edge7" class="edge">
<title>Node4&#45;&gt;Node4</title>
<path fill="none" stroke="#63b8ff" d="M193.91,-62.6C190.68,-72.15 200.54,-80.5 223.5,-80.5 237.85,-80.5 247.08,-77.24 251.2,-72.46"/>
<polygon fill="#63b8ff" stroke="#63b8ff" points="254.64,-73.08 253.09,-62.6 247.77,-71.76 254.64,-73.08"/>
</g>
</g>
</svg>
