<?xml version="1.0" encoding="UTF-8" standalone="no"?>
<!DOCTYPE svg PUBLIC "-//W3C//DTD SVG 1.1//EN"
 "http://www.w3.org/Graphics/SVG/1.1/DTD/svg11.dtd">
<!-- Generated by graphviz version 6.0.1 (20220911.1526)
 -->
<!-- Title: elc::defs::base::the_destroy Pages: 1 -->
<svg width="263pt" height="76pt"
 viewBox="0.00 0.00 263.00 75.50" xmlns="http://www.w3.org/2000/svg" xmlns:xlink="http://www.w3.org/1999/xlink">
<g id="graph0" class="graph" transform="scale(1 1) rotate(0) translate(4 71.5)">
<title>elc::defs::base::the_destroy</title>
<!-- Node1 -->
<g id="node1" class="node">
<title>Node1</title>
<g id="a_node1"><a xlink:title=" ">
<polygon fill="#999999" stroke="#666666" points="255,-51 155,-51 155,-21 255,-21 255,-51"/>
<text text-anchor="start" x="163" y="-39" font-family="Helvetica,sans-Serif" font-size="10.00">elc::defs::base::the</text>
<text text-anchor="middle" x="205" y="-28" font-family="Helvetica,sans-Serif" font-size="10.00">_destroy</text>
</a>
</g>
</g>
<!-- Node2 -->
<g id="node2" class="node">
<title>Node2</title>
<g id="a_node2"><a xlink:href="namespaceelc_1_1defs_1_1base.html#a110b2a62a7d736e963306e4785f26fa3" target="_top" xlink:title=" ">
<polygon fill="white" stroke="#666666" points="119,-67.5 0,-67.5 0,-48.5 119,-48.5 119,-67.5"/>
<text text-anchor="middle" x="59.5" y="-55.5" font-family="Helvetica,sans-Serif" font-size="10.00">elc::defs::base::destroy</text>
</a>
</g>
</g>
<!-- Node1&#45;&gt;Node2 -->
<g id="edge1" class="edge">
<title>Node1&#45;&gt;Node2</title>
<path fill="none" stroke="#63b8ff" d="M144.52,-45.12C136.13,-46.41 127.5,-47.73 119.13,-49.01"/>
<polygon fill="#63b8ff" stroke="#63b8ff" points="145.26,-48.55 154.62,-43.57 144.2,-41.63 145.26,-48.55"/>
</g>
<!-- Node3 -->
<g id="node3" class="node">
<title>Node3</title>
<g id="a_node3"><a xlink:href="namespaceelc_1_1defs_1_1core.html#acffc812090610314e52fdecd03d4de28" target="_top" xlink:title=" ">
<polygon fill="white" stroke="#666666" points="108.5,-30 10.5,-30 10.5,0 108.5,0 108.5,-30"/>
<text text-anchor="start" x="18.5" y="-18" font-family="Helvetica,sans-Serif" font-size="10.00">elc::defs::core::the</text>
<text text-anchor="middle" x="59.5" y="-7" font-family="Helvetica,sans-Serif" font-size="10.00">_destroy</text>
</a>
</g>
</g>
<!-- Node1&#45;&gt;Node3 -->
<g id="edge2" class="edge">
<title>Node1&#45;&gt;Node3</title>
<path fill="none" stroke="#63b8ff" d="M144.65,-27.31C132.62,-25.55 120.1,-23.72 108.52,-22.03"/>
<polygon fill="#63b8ff" stroke="#63b8ff" points="144.21,-30.79 154.62,-28.77 145.23,-23.86 144.21,-30.79"/>
</g>
</g>
</svg>
