<?xml version="1.0" encoding="UTF-8" standalone="no"?>
<!DOCTYPE svg PUBLIC "-//W3C//DTD SVG 1.1//EN"
 "http://www.w3.org/Graphics/SVG/1.1/DTD/svg11.dtd">
<!-- Generated by graphviz version 6.0.1 (20220911.1526)
 -->
<!-- Title: elc::defs::base::range_n::find_first_of Pages: 1 -->
<svg width="580pt" height="170pt"
 viewBox="0.00 0.00 580.00 170.00" xmlns="http://www.w3.org/2000/svg" xmlns:xlink="http://www.w3.org/1999/xlink">
<g id="graph0" class="graph" transform="scale(1 1) rotate(0) translate(4 166)">
<title>elc::defs::base::range_n::find_first_of</title>
<!-- Node1 -->
<g id="node1" class="node">
<title>Node1</title>
<g id="a_node1"><a xlink:title=" ">
<polygon fill="#999999" stroke="#666666" points="110,-62 0,-62 0,-32 110,-32 110,-62"/>
<text text-anchor="start" x="8" y="-50" font-family="Helvetica,sans-Serif" font-size="10.00">elc::defs::base::range</text>
<text text-anchor="middle" x="55" y="-39" font-family="Helvetica,sans-Serif" font-size="10.00">_n::find_first_of</text>
</a>
</g>
</g>
<!-- Node2 -->
<g id="node2" class="node">
<title>Node2</title>
<g id="a_node2"><a xlink:href="namespaceelc_1_1defs_1_1base_1_1range__n.html#a6ac1bd58a416955da7938bc7bba2f2ae" target="_top" xlink:title="若成功找到匹配的数据项，返回其开头，若未找到，返回nullptr">
<polygon fill="white" stroke="#666666" points="256,-90 146,-90 146,-60 256,-60 256,-90"/>
<text text-anchor="start" x="154" y="-78" font-family="Helvetica,sans-Serif" font-size="10.00">elc::defs::base::range</text>
<text text-anchor="middle" x="201" y="-67" font-family="Helvetica,sans-Serif" font-size="10.00">_n::find_first_of</text>
</a>
</g>
</g>
<!-- Node1&#45;&gt;Node2 -->
<g id="edge1" class="edge">
<title>Node1&#45;&gt;Node2</title>
<path fill="none" stroke="#63b8ff" d="M110.03,-57.51C118.4,-59.13 127.13,-60.83 135.7,-62.5"/>
<polygon fill="#63b8ff" stroke="#63b8ff" points="135.18,-65.96 145.67,-64.44 136.52,-59.09 135.18,-65.96"/>
</g>
<!-- Node5 -->
<g id="node5" class="node">
<title>Node5</title>
<g id="a_node5"><a xlink:href="namespaceelc_1_1defs_1_1base_1_1range__n.html#a8db0f428d11a5031e06b11c6d84dc68b" target="_top" xlink:title="find_first_of的bitmark实现 若成功找到匹配的数据项，返回其开头，若未找到，返回nullptr">
<polygon fill="white" stroke="#666666" points="418.5,-30 299.5,-30 299.5,0 418.5,0 418.5,-30"/>
<text text-anchor="start" x="307.5" y="-18" font-family="Helvetica,sans-Serif" font-size="10.00">elc::defs::base::range</text>
<text text-anchor="middle" x="359" y="-7" font-family="Helvetica,sans-Serif" font-size="10.00">_n::find_first_of_bitmark</text>
</a>
</g>
</g>
<!-- Node1&#45;&gt;Node5 -->
<g id="edge10" class="edge">
<title>Node1&#45;&gt;Node5</title>
<path fill="none" stroke="#63b8ff" d="M110.34,-41.24C160.44,-35.93 235.02,-28.03 289.24,-22.29"/>
<polygon fill="#63b8ff" stroke="#63b8ff" points="289.88,-25.74 299.46,-21.2 289.14,-18.78 289.88,-25.74"/>
</g>
<!-- Node2&#45;&gt;Node2 -->
<g id="edge6" class="edge">
<title>Node2&#45;&gt;Node2</title>
<path fill="none" stroke="#63b8ff" d="M175.34,-90.28C169.63,-99.41 178.19,-108 201,-108 214.54,-108 223.06,-104.97 226.56,-100.6"/>
<polygon fill="#63b8ff" stroke="#63b8ff" points="230.06,-100.31 226.66,-90.28 223.06,-100.24 230.06,-100.31"/>
</g>
<!-- Node3 -->
<g id="node3" class="node">
<title>Node3</title>
<g id="a_node3"><a xlink:href="namespaceelc_1_1defs_1_1base_1_1range__n.html#a8e80ffb095cac8fd83b3740986d0622c" target="_top" xlink:title="find_first_of的朴素实现 若成功找到匹配的数据项，返回其开头，若未找到，返回nullptr">
<polygon fill="white" stroke="#666666" points="414,-144 304,-144 304,-114 414,-114 414,-144"/>
<text text-anchor="start" x="312" y="-132" font-family="Helvetica,sans-Serif" font-size="10.00">elc::defs::base::range</text>
<text text-anchor="middle" x="359" y="-121" font-family="Helvetica,sans-Serif" font-size="10.00">_n::base_find_first_of</text>
</a>
</g>
</g>
<!-- Node2&#45;&gt;Node3 -->
<g id="edge2" class="edge">
<title>Node2&#45;&gt;Node3</title>
<path fill="none" stroke="#63b8ff" d="M245.45,-90.04C263.89,-96.42 285.55,-103.92 304.91,-110.62"/>
<polygon fill="#63b8ff" stroke="#63b8ff" points="303.91,-113.98 314.51,-113.95 306.2,-107.37 303.91,-113.98"/>
</g>
<!-- Node2&#45;&gt;Node5 -->
<g id="edge7" class="edge">
<title>Node2&#45;&gt;Node5</title>
<path fill="none" stroke="#63b8ff" d="M241.37,-59.86C262.04,-51.91 287.57,-42.09 309.46,-33.67"/>
<polygon fill="#63b8ff" stroke="#63b8ff" points="310.84,-36.89 318.92,-30.03 308.33,-30.35 310.84,-36.89"/>
</g>
<!-- Node6 -->
<g id="node6" class="node">
<title>Node6</title>
<g id="a_node6"><a xlink:href="structelc_1_1defs_1_1base_1_1range__n_1_1bitmark__for__finds.html#aac0eaf6119a2810bc00351cb3c7030e0" target="_top" xlink:title=" ">
<polygon fill="white" stroke="#666666" points="426,-96 292,-96 292,-66 426,-66 426,-96"/>
<text text-anchor="start" x="300" y="-84" font-family="Helvetica,sans-Serif" font-size="10.00">elc::defs::base::range</text>
<text text-anchor="middle" x="359" y="-73" font-family="Helvetica,sans-Serif" font-size="10.00">_n::bitmark_for_finds::mark</text>
</a>
</g>
</g>
<!-- Node2&#45;&gt;Node6 -->
<g id="edge9" class="edge">
<title>Node2&#45;&gt;Node6</title>
<path fill="none" stroke="#63b8ff" d="M256.12,-77.08C264.41,-77.4 273.09,-77.73 281.75,-78.07"/>
<polygon fill="#63b8ff" stroke="#63b8ff" points="281.74,-81.57 291.87,-78.46 282.01,-74.57 281.74,-81.57"/>
</g>
<!-- Node3&#45;&gt;Node3 -->
<g id="edge3" class="edge">
<title>Node3&#45;&gt;Node3</title>
<path fill="none" stroke="#63b8ff" d="M331.23,-144.28C325.05,-153.41 334.31,-162 359,-162 373.66,-162 382.88,-158.97 386.66,-154.6"/>
<polygon fill="#63b8ff" stroke="#63b8ff" points="390.16,-154.31 386.77,-144.28 383.16,-154.23 390.16,-154.31"/>
</g>
<!-- Node4 -->
<g id="node4" class="node">
<title>Node4</title>
<g id="a_node4"><a xlink:href="namespaceelc_1_1defs_1_1base_1_1range__n.html#ace6a3a9d079214ee7bcce5acbef1e07f" target="_top" xlink:title="判断一个值是否在某个范围内">
<polygon fill="white" stroke="#666666" points="572,-144 462,-144 462,-114 572,-114 572,-144"/>
<text text-anchor="start" x="470" y="-132" font-family="Helvetica,sans-Serif" font-size="10.00">elc::defs::base::range</text>
<text text-anchor="middle" x="517" y="-121" font-family="Helvetica,sans-Serif" font-size="10.00">_n::in_range</text>
</a>
</g>
</g>
<!-- Node3&#45;&gt;Node4 -->
<g id="edge4" class="edge">
<title>Node3&#45;&gt;Node4</title>
<path fill="none" stroke="#63b8ff" d="M414.12,-129C426.22,-129 439.17,-129 451.64,-129"/>
<polygon fill="#63b8ff" stroke="#63b8ff" points="451.97,-132.5 461.97,-129 451.97,-125.5 451.97,-132.5"/>
</g>
<!-- Node4&#45;&gt;Node4 -->
<g id="edge5" class="edge">
<title>Node4&#45;&gt;Node4</title>
<path fill="none" stroke="#63b8ff" d="M489.23,-144.28C483.05,-153.41 492.31,-162 517,-162 531.66,-162 540.88,-158.97 544.66,-154.6"/>
<polygon fill="#63b8ff" stroke="#63b8ff" points="548.16,-154.31 544.77,-144.28 541.16,-154.23 548.16,-154.31"/>
</g>
<!-- Node5&#45;&gt;Node5 -->
<g id="edge8" class="edge">
<title>Node5&#45;&gt;Node5</title>
<path fill="none" stroke="#63b8ff" d="M331.23,-30.28C325.05,-39.41 334.31,-48 359,-48 373.66,-48 382.88,-44.97 386.66,-40.6"/>
<polygon fill="#63b8ff" stroke="#63b8ff" points="390.16,-40.31 386.77,-30.28 383.16,-40.23 390.16,-40.31"/>
</g>
</g>
</svg>
