<?xml version="1.0" encoding="UTF-8" standalone="no"?>
<!DOCTYPE svg PUBLIC "-//W3C//DTD SVG 1.1//EN"
 "http://www.w3.org/Graphics/SVG/1.1/DTD/svg11.dtd">
<!-- Generated by graphviz version 6.0.1 (20220911.1526)
 -->
<!-- Title: elc::APIs::die::die_with Pages: 1 -->
<svg width="298pt" height="108pt"
 viewBox="0.00 0.00 298.00 108.00" xmlns="http://www.w3.org/2000/svg" xmlns:xlink="http://www.w3.org/1999/xlink">
<g id="graph0" class="graph" transform="scale(1 1) rotate(0) translate(4 104)">
<title>elc::APIs::die::die_with</title>
<!-- Node1 -->
<g id="node1" class="node">
<title>Node1</title>
<g id="a_node1"><a xlink:title="同 die ，但是有详细的错误信息">
<polygon fill="#999999" stroke="#666666" points="290,-64.5 174,-64.5 174,-45.5 290,-45.5 290,-64.5"/>
<text text-anchor="middle" x="232" y="-52.5" font-family="Helvetica,sans-Serif" font-size="10.00">elc::APIs::die::die_with</text>
</a>
</g>
</g>
<!-- Node1&#45;&gt;Node1 -->
<g id="edge1" class="edge">
<title>Node1&#45;&gt;Node1</title>
<path fill="none" stroke="#63b8ff" d="M262.43,-73.32C261.15,-78.51 251.01,-82.5 232,-82.5 203.03,-82.5 194.65,-73.23 206.88,-64.58"/>
<polygon fill="#63b8ff" stroke="#63b8ff" points="265.3,-71.32 257.12,-64.58 259.32,-74.95 265.3,-71.32"/>
</g>
<!-- Node2 -->
<g id="node2" class="node">
<title>Node2</title>
<g id="a_node2"><a xlink:href="classelc_1_1defs_1_1memory_1_1gc__n_1_1gc__t.html#a44bd3718534432f70ee2cf4741fa8a74" target="_top" xlink:title=" ">
<polygon fill="white" stroke="#666666" points="124,-100 14,-100 14,-70 124,-70 124,-100"/>
<text text-anchor="start" x="22" y="-88" font-family="Helvetica,sans-Serif" font-size="10.00">elc::defs::memory::</text>
<text text-anchor="middle" x="69" y="-77" font-family="Helvetica,sans-Serif" font-size="10.00">gc_n::gc_t::operator()</text>
</a>
</g>
</g>
<!-- Node1&#45;&gt;Node2 -->
<g id="edge2" class="edge">
<title>Node1&#45;&gt;Node2</title>
<path fill="none" stroke="#63b8ff" d="M169.48,-66.46C154.58,-69.24 138.76,-72.19 124.23,-74.9"/>
<polygon fill="#63b8ff" stroke="#63b8ff" points="170.43,-69.85 179.62,-64.57 169.14,-62.97 170.43,-69.85"/>
</g>
<!-- Node3 -->
<g id="node3" class="node">
<title>Node3</title>
<g id="a_node3"><a xlink:href="structelc_1_1defs_1_1package__symbol__loader__n_1_1package__symbol__loader__t.html#a5d89b7d12280fe2dfb6b892fb7d1cff0" target="_top" xlink:title=" ">
<polygon fill="white" stroke="#666666" points="138,-52 0,-52 0,0 138,0 138,-52"/>
<text text-anchor="start" x="8" y="-40" font-family="Helvetica,sans-Serif" font-size="10.00">elc::defs::package</text>
<text text-anchor="start" x="8" y="-29" font-family="Helvetica,sans-Serif" font-size="10.00">_symbol_loader_n::package</text>
<text text-anchor="start" x="8" y="-18" font-family="Helvetica,sans-Serif" font-size="10.00">_symbol_loader_t::package</text>
<text text-anchor="middle" x="69" y="-7" font-family="Helvetica,sans-Serif" font-size="10.00">_symbol_loader_t</text>
</a>
</g>
</g>
<!-- Node1&#45;&gt;Node3 -->
<g id="edge3" class="edge">
<title>Node1&#45;&gt;Node3</title>
<path fill="none" stroke="#63b8ff" d="M167.81,-43.62C158.04,-41.86 147.91,-40.03 138.04,-38.26"/>
<polygon fill="#63b8ff" stroke="#63b8ff" points="167.37,-47.1 177.84,-45.42 168.62,-40.21 167.37,-47.1"/>
</g>
</g>
</svg>
