<?xml version="1.0" encoding="UTF-8" standalone="no"?>
<!DOCTYPE svg PUBLIC "-//W3C//DTD SVG 1.1//EN"
 "http://www.w3.org/Graphics/SVG/1.1/DTD/svg11.dtd">
<!-- Generated by graphviz version 6.0.1 (20220911.1526)
 -->
<!-- Title: elc::defs::base::magic_number::log Pages: 1 -->
<svg width="568pt" height="78pt"
 viewBox="0.00 0.00 568.00 78.00" xmlns="http://www.w3.org/2000/svg" xmlns:xlink="http://www.w3.org/1999/xlink">
<g id="graph0" class="graph" transform="scale(1 1) rotate(0) translate(4 74)">
<title>elc::defs::base::magic_number::log</title>
<!-- Node1 -->
<g id="node1" class="node">
<title>Node1</title>
<g id="a_node1"><a xlink:title=" ">
<polygon fill="#999999" stroke="#666666" points="113,-30 0,-30 0,0 113,0 113,-30"/>
<text text-anchor="start" x="8" y="-18" font-family="Helvetica,sans-Serif" font-size="10.00">elc::defs::base::magic</text>
<text text-anchor="middle" x="56.5" y="-7" font-family="Helvetica,sans-Serif" font-size="10.00">_number::log</text>
</a>
</g>
</g>
<!-- Node1&#45;&gt;Node1 -->
<g id="edge7" class="edge">
<title>Node1&#45;&gt;Node1</title>
<path fill="none" stroke="#63b8ff" d="M30.31,-30.28C24.49,-39.41 33.22,-48 56.5,-48 70.32,-48 79.02,-44.97 82.58,-40.6"/>
<polygon fill="#63b8ff" stroke="#63b8ff" points="86.08,-40.31 82.69,-30.28 79.08,-40.24 86.08,-40.31"/>
</g>
<!-- Node2 -->
<g id="node2" class="node">
<title>Node2</title>
<g id="a_node2"><a xlink:href="namespaceelc_1_1defs_1_1base_1_1magic__number.html#af617871fb504f70d5e186aa33f6ae187" target="_top" xlink:title=" ">
<polygon fill="white" stroke="#666666" points="262,-52 149,-52 149,-22 262,-22 262,-52"/>
<text text-anchor="start" x="157" y="-40" font-family="Helvetica,sans-Serif" font-size="10.00">elc::defs::base::magic</text>
<text text-anchor="middle" x="205.5" y="-29" font-family="Helvetica,sans-Serif" font-size="10.00">_number::exp</text>
</a>
</g>
</g>
<!-- Node1&#45;&gt;Node2 -->
<g id="edge1" class="edge">
<title>Node1&#45;&gt;Node2</title>
<path fill="none" stroke="#63b8ff" d="M113.07,-23.32C121.49,-24.58 130.24,-25.89 138.84,-27.17"/>
<polygon fill="#63b8ff" stroke="#63b8ff" points="138.44,-30.65 148.85,-28.67 139.48,-23.73 138.44,-30.65"/>
</g>
<!-- Node3 -->
<g id="node3" class="node">
<title>Node3</title>
<g id="a_node3"><a xlink:href="namespaceelc_1_1defs_1_1base_1_1magic__number.html#a30e067e5edbc32b8c5bbc09c1b56d04e" target="_top" xlink:title=" ">
<polygon fill="white" stroke="#666666" points="411,-30 298,-30 298,0 411,0 411,-30"/>
<text text-anchor="start" x="306" y="-18" font-family="Helvetica,sans-Serif" font-size="10.00">elc::defs::base::magic</text>
<text text-anchor="middle" x="354.5" y="-7" font-family="Helvetica,sans-Serif" font-size="10.00">_number::feq</text>
</a>
</g>
</g>
<!-- Node1&#45;&gt;Node3 -->
<g id="edge6" class="edge">
<title>Node1&#45;&gt;Node3</title>
<path fill="none" stroke="#63b8ff" d="M113.14,-13.59C124.98,-13.34 137.4,-13.13 149,-13 199.22,-12.45 211.78,-12.45 262,-13 270.34,-13.09 279.1,-13.23 287.76,-13.39"/>
<polygon fill="#63b8ff" stroke="#63b8ff" points="287.79,-16.89 297.86,-13.59 287.93,-9.89 287.79,-16.89"/>
</g>
<!-- Node2&#45;&gt;Node2 -->
<g id="edge2" class="edge">
<title>Node2&#45;&gt;Node2</title>
<path fill="none" stroke="#63b8ff" d="M179.31,-52.28C173.49,-61.41 182.22,-70 205.5,-70 219.32,-70 228.02,-66.97 231.58,-62.6"/>
<polygon fill="#63b8ff" stroke="#63b8ff" points="235.08,-62.31 231.69,-52.28 228.08,-62.24 235.08,-62.31"/>
</g>
<!-- Node2&#45;&gt;Node3 -->
<g id="edge3" class="edge">
<title>Node2&#45;&gt;Node3</title>
<path fill="none" stroke="#63b8ff" d="M262.07,-28.68C270.49,-27.42 279.24,-26.11 287.84,-24.83"/>
<polygon fill="#63b8ff" stroke="#63b8ff" points="288.48,-28.27 297.85,-23.33 287.44,-21.35 288.48,-28.27"/>
</g>
<!-- Node4 -->
<g id="node4" class="node">
<title>Node4</title>
<g id="a_node4"><a xlink:href="namespaceelc_1_1defs_1_1base_1_1magic__number.html#a5e6964aab515dd4705841ebd5f2aacc7" target="_top" xlink:title=" ">
<polygon fill="white" stroke="#666666" points="560,-30 447,-30 447,0 560,0 560,-30"/>
<text text-anchor="start" x="455" y="-18" font-family="Helvetica,sans-Serif" font-size="10.00">elc::defs::base::magic</text>
<text text-anchor="middle" x="503.5" y="-7" font-family="Helvetica,sans-Serif" font-size="10.00">_number::abs</text>
</a>
</g>
</g>
<!-- Node3&#45;&gt;Node4 -->
<g id="edge4" class="edge">
<title>Node3&#45;&gt;Node4</title>
<path fill="none" stroke="#63b8ff" d="M411.07,-15C419.49,-15 428.24,-15 436.84,-15"/>
<polygon fill="#63b8ff" stroke="#63b8ff" points="436.85,-18.5 446.85,-15 436.85,-11.5 436.85,-18.5"/>
</g>
<!-- Node4&#45;&gt;Node4 -->
<g id="edge5" class="edge">
<title>Node4&#45;&gt;Node4</title>
<path fill="none" stroke="#63b8ff" d="M477.31,-30.28C471.49,-39.41 480.22,-48 503.5,-48 517.32,-48 526.02,-44.97 529.58,-40.6"/>
<polygon fill="#63b8ff" stroke="#63b8ff" points="533.08,-40.31 529.69,-30.28 526.08,-40.24 533.08,-40.31"/>
</g>
</g>
</svg>
