<?xml version="1.0" encoding="UTF-8" standalone="no"?>
<!DOCTYPE svg PUBLIC "-//W3C//DTD SVG 1.1//EN"
 "http://www.w3.org/Graphics/SVG/1.1/DTD/svg11.dtd">
<!-- Generated by graphviz version 6.0.1 (20220911.1526)
 -->
<!-- Title: elc::defs::base::the_pointer_to_bool Pages: 1 -->
<svg width="450pt" height="158pt"
 viewBox="0.00 0.00 450.00 158.00" xmlns="http://www.w3.org/2000/svg" xmlns:xlink="http://www.w3.org/1999/xlink">
<g id="graph0" class="graph" transform="scale(1 1) rotate(0) translate(4 154)">
<title>elc::defs::base::the_pointer_to_bool</title>
<!-- Node1 -->
<g id="node1" class="node">
<title>Node1</title>
<g id="a_node1"><a xlink:title=" ">
<polygon fill="#999999" stroke="#666666" points="442,-78 342,-78 342,-48 442,-48 442,-78"/>
<text text-anchor="start" x="350" y="-66" font-family="Helvetica,sans-Serif" font-size="10.00">elc::defs::base::the</text>
<text text-anchor="middle" x="392" y="-55" font-family="Helvetica,sans-Serif" font-size="10.00">_pointer_to_bool</text>
</a>
</g>
</g>
<!-- Node2 -->
<g id="node2" class="node">
<title>Node2</title>
<g id="a_node2"><a xlink:href="namespaceelc_1_1defs_1_1base.html#a74fb2bbf391bf7c5ed945d4f63e08bcb" target="_top" xlink:title="指针转bool的重载接口，允许类对此进行自定义 elc内部的指针转bool应当视情况使用默认配置或此重载接口">
<polygon fill="white" stroke="#666666" points="305,-126 189,-126 189,-96 305,-96 305,-126"/>
<text text-anchor="start" x="197" y="-114" font-family="Helvetica,sans-Serif" font-size="10.00">elc::defs::base::pointer</text>
<text text-anchor="middle" x="247" y="-103" font-family="Helvetica,sans-Serif" font-size="10.00">_to_bool</text>
</a>
</g>
</g>
<!-- Node1&#45;&gt;Node2 -->
<g id="edge1" class="edge">
<title>Node1&#45;&gt;Node2</title>
<path fill="none" stroke="#63b8ff" d="M336.35,-81.35C321.92,-86.19 306.53,-91.36 292.69,-96"/>
<polygon fill="#63b8ff" stroke="#63b8ff" points="337.78,-84.56 346.15,-78.06 335.55,-77.92 337.78,-84.56"/>
</g>
<!-- Node5 -->
<g id="node5" class="node">
<title>Node5</title>
<g id="a_node5"><a xlink:href="namespaceelc_1_1defs_1_1lib__loader__n.html#a8970dd5493727eb46be8ece2bad2a1e3" target="_top" xlink:title=" ">
<polygon fill="white" stroke="#666666" points="306,-78 188,-78 188,-48 306,-48 306,-78"/>
<text text-anchor="start" x="196" y="-66" font-family="Helvetica,sans-Serif" font-size="10.00">elc::defs::lib_loader</text>
<text text-anchor="middle" x="247" y="-55" font-family="Helvetica,sans-Serif" font-size="10.00">_n::the_pointer_to_bool</text>
</a>
</g>
</g>
<!-- Node1&#45;&gt;Node5 -->
<g id="edge4" class="edge">
<title>Node1&#45;&gt;Node5</title>
<path fill="none" stroke="#63b8ff" d="M331.66,-63C323.23,-63 314.58,-63 306.17,-63"/>
<polygon fill="#63b8ff" stroke="#63b8ff" points="331.79,-66.5 341.79,-63 331.79,-59.5 331.79,-66.5"/>
</g>
<!-- Node6 -->
<g id="node6" class="node">
<title>Node6</title>
<g id="a_node6"><a xlink:href="namespaceelc_1_1defs_1_1core.html#a1838ae5155f0fdfe928a0ac3267bb85d" target="_top" xlink:title=" ">
<polygon fill="white" stroke="#666666" points="296,-30 198,-30 198,0 296,0 296,-30"/>
<text text-anchor="start" x="206" y="-18" font-family="Helvetica,sans-Serif" font-size="10.00">elc::defs::core::the</text>
<text text-anchor="middle" x="247" y="-7" font-family="Helvetica,sans-Serif" font-size="10.00">_pointer_to_bool</text>
</a>
</g>
</g>
<!-- Node1&#45;&gt;Node6 -->
<g id="edge5" class="edge">
<title>Node1&#45;&gt;Node6</title>
<path fill="none" stroke="#63b8ff" d="M336.35,-44.65C321.92,-39.81 306.53,-34.64 292.69,-30"/>
<polygon fill="#63b8ff" stroke="#63b8ff" points="335.55,-48.08 346.15,-47.94 337.78,-41.44 335.55,-48.08"/>
</g>
<!-- Node3 -->
<g id="node3" class="node">
<title>Node3</title>
<g id="a_node3"><a xlink:href="structelc_1_1defs_1_1memory_1_1ptr__n_1_1base__ptr__t.html#a8e045028b5acab647323071f23391d80" target="_top" xlink:title=" ">
<polygon fill="white" stroke="#666666" points="152,-150 0,-150 0,-120 152,-120 152,-150"/>
<text text-anchor="start" x="8" y="-138" font-family="Helvetica,sans-Serif" font-size="10.00">elc::defs::memory::</text>
<text text-anchor="middle" x="76" y="-127" font-family="Helvetica,sans-Serif" font-size="10.00">ptr_n::base_ptr_t::operator bool</text>
</a>
</g>
</g>
<!-- Node2&#45;&gt;Node3 -->
<g id="edge2" class="edge">
<title>Node2&#45;&gt;Node3</title>
<path fill="none" stroke="#63b8ff" d="M178.68,-120.56C169.96,-121.8 160.98,-123.07 152.13,-124.33"/>
<polygon fill="#63b8ff" stroke="#63b8ff" points="179.38,-124 188.78,-119.13 178.39,-117.07 179.38,-124"/>
</g>
<!-- Node4 -->
<g id="node4" class="node">
<title>Node4</title>
<g id="a_node4"><a xlink:href="structelc_1_1defs_1_1memory_1_1ptr__n_1_1base__ptr__t.html#a9eda5fddac6e960cd3986db545dca68b" target="_top" xlink:title=" ">
<polygon fill="white" stroke="#666666" points="143,-102 9,-102 9,-72 143,-72 143,-102"/>
<text text-anchor="start" x="17" y="-90" font-family="Helvetica,sans-Serif" font-size="10.00">elc::defs::memory::</text>
<text text-anchor="middle" x="76" y="-79" font-family="Helvetica,sans-Serif" font-size="10.00">ptr_n::base_ptr_t::operator!</text>
</a>
</g>
</g>
<!-- Node2&#45;&gt;Node4 -->
<g id="edge3" class="edge">
<title>Node2&#45;&gt;Node4</title>
<path fill="none" stroke="#63b8ff" d="M178.66,-101.44C166.98,-99.78 154.84,-98.05 143.19,-96.4"/>
<polygon fill="#63b8ff" stroke="#63b8ff" points="178.39,-104.93 188.78,-102.87 179.38,-98 178.39,-104.93"/>
</g>
</g>
</svg>
