<?xml version="1.0" encoding="UTF-8" standalone="no"?>
<!DOCTYPE svg PUBLIC "-//W3C//DTD SVG 1.1//EN"
 "http://www.w3.org/Graphics/SVG/1.1/DTD/svg11.dtd">
<!-- Generated by graphviz version 6.0.1 (20220911.1526)
 -->
<!-- Title: elc::defs::base::magic_number::rotl_nomod Pages: 1 -->
<svg width="419pt" height="122pt"
 viewBox="0.00 0.00 419.00 122.00" xmlns="http://www.w3.org/2000/svg" xmlns:xlink="http://www.w3.org/1999/xlink">
<g id="graph0" class="graph" transform="scale(1 1) rotate(0) translate(4 118)">
<title>elc::defs::base::magic_number::rotl_nomod</title>
<!-- Node1 -->
<g id="node1" class="node">
<title>Node1</title>
<g id="a_node1"><a xlink:title="位操作：循环左移（无mod） 不使用std版本而是自己写的原因：std版本右操作数只能是int而不能是size_t或别的，标准会傻逼">
<polygon fill="#999999" stroke="#666666" points="411,-30 298,-30 298,0 411,0 411,-30"/>
<text text-anchor="start" x="306" y="-18" font-family="Helvetica,sans-Serif" font-size="10.00">elc::defs::base::magic</text>
<text text-anchor="middle" x="354.5" y="-7" font-family="Helvetica,sans-Serif" font-size="10.00">_number::rotl_nomod</text>
</a>
</g>
</g>
<!-- Node1&#45;&gt;Node1 -->
<g id="edge3" class="edge">
<title>Node1&#45;&gt;Node1</title>
<path fill="none" stroke="#63b8ff" d="M380.58,-40.6C377.02,-44.97 368.32,-48 354.5,-48 331.22,-48 322.49,-39.41 328.31,-30.28"/>
<polygon fill="#63b8ff" stroke="#63b8ff" points="384.08,-40.31 380.69,-30.28 377.08,-40.24 384.08,-40.31"/>
</g>
<!-- Node2 -->
<g id="node2" class="node">
<title>Node2</title>
<g id="a_node2"><a xlink:href="namespaceelc_1_1defs_1_1base_1_1magic__number.html#ac62afcb51840aa2751bb3a9024ef5960" target="_top" xlink:title="位操作：循环左移 不使用std版本而是自己写的原因：std版本右操作数只能是int而不能是size_t或别的，标准会傻逼">
<polygon fill="white" stroke="#666666" points="262,-96 149,-96 149,-66 262,-66 262,-96"/>
<text text-anchor="start" x="157" y="-84" font-family="Helvetica,sans-Serif" font-size="10.00">elc::defs::base::magic</text>
<text text-anchor="middle" x="205.5" y="-73" font-family="Helvetica,sans-Serif" font-size="10.00">_number::rotl</text>
</a>
</g>
</g>
<!-- Node1&#45;&gt;Node2 -->
<g id="edge1" class="edge">
<title>Node1&#45;&gt;Node2</title>
<path fill="none" stroke="#63b8ff" d="M311.62,-34.46C296.07,-41.62 278.26,-49.75 262,-57 255.48,-59.91 248.51,-62.96 241.78,-65.88"/>
<polygon fill="#63b8ff" stroke="#63b8ff" points="313.36,-37.51 320.97,-30.14 310.43,-31.16 313.36,-37.51"/>
</g>
<!-- Node3 -->
<g id="node3" class="node">
<title>Node3</title>
<g id="a_node3"><a xlink:href="namespaceelc_1_1defs_1_1base_1_1magic__number.html#ab09241102ee6f2f318ec7d798966587b" target="_top" xlink:title="位操作：循环右移（无mod） 不使用std版本而是自己写的原因：std版本右操作数只能是int而不能是size_t或别的，标准会傻逼">
<polygon fill="white" stroke="#666666" points="262,-30 149,-30 149,0 262,0 262,-30"/>
<text text-anchor="start" x="157" y="-18" font-family="Helvetica,sans-Serif" font-size="10.00">elc::defs::base::magic</text>
<text text-anchor="middle" x="205.5" y="-7" font-family="Helvetica,sans-Serif" font-size="10.00">_number::rotr_nomod</text>
</a>
</g>
</g>
<!-- Node1&#45;&gt;Node3 -->
<g id="edge4" class="edge">
<title>Node1&#45;&gt;Node3</title>
<path fill="none" stroke="#63b8ff" d="M287.92,-8.28C279.32,-8.21 270.57,-8.26 262.15,-8.43"/>
<polygon fill="#63b8ff" stroke="#63b8ff" points="287.88,-11.78 297.93,-8.43 287.98,-4.79 287.88,-11.78"/>
</g>
<!-- Node2&#45;&gt;Node2 -->
<g id="edge2" class="edge">
<title>Node2&#45;&gt;Node2</title>
<path fill="none" stroke="#63b8ff" d="M231.58,-106.6C228.02,-110.97 219.32,-114 205.5,-114 182.22,-114 173.49,-105.41 179.31,-96.28"/>
<polygon fill="#63b8ff" stroke="#63b8ff" points="235.08,-106.31 231.69,-96.28 228.08,-106.24 235.08,-106.31"/>
</g>
<!-- Node3&#45;&gt;Node1 -->
<g id="edge5" class="edge">
<title>Node3&#45;&gt;Node1</title>
<path fill="none" stroke="#63b8ff" d="M272.16,-21.72C280.76,-21.79 289.51,-21.74 297.93,-21.57"/>
<polygon fill="#63b8ff" stroke="#63b8ff" points="272.2,-18.22 262.15,-21.57 272.1,-25.22 272.2,-18.22"/>
</g>
<!-- Node3&#45;&gt;Node3 -->
<g id="edge8" class="edge">
<title>Node3&#45;&gt;Node3</title>
<path fill="none" stroke="#63b8ff" d="M231.58,-40.6C228.02,-44.97 219.32,-48 205.5,-48 182.22,-48 173.49,-39.41 179.31,-30.28"/>
<polygon fill="#63b8ff" stroke="#63b8ff" points="235.08,-40.31 231.69,-30.28 228.08,-40.24 235.08,-40.31"/>
</g>
<!-- Node4 -->
<g id="node4" class="node">
<title>Node4</title>
<g id="a_node4"><a xlink:href="namespaceelc_1_1defs_1_1base_1_1magic__number.html#a284c0b938dba3f5651066172c49dae2e" target="_top" xlink:title="位操作：循环右移 不使用std版本而是自己写的原因：std版本右操作数只能是int而不能是size_t或别的，标准会傻逼">
<polygon fill="white" stroke="#666666" points="113,-30 0,-30 0,0 113,0 113,-30"/>
<text text-anchor="start" x="8" y="-18" font-family="Helvetica,sans-Serif" font-size="10.00">elc::defs::base::magic</text>
<text text-anchor="middle" x="56.5" y="-7" font-family="Helvetica,sans-Serif" font-size="10.00">_number::rotr</text>
</a>
</g>
</g>
<!-- Node3&#45;&gt;Node4 -->
<g id="edge6" class="edge">
<title>Node3&#45;&gt;Node4</title>
<path fill="none" stroke="#63b8ff" d="M138.92,-15C130.32,-15 121.57,-15 113.15,-15"/>
<polygon fill="#63b8ff" stroke="#63b8ff" points="138.93,-18.5 148.93,-15 138.93,-11.5 138.93,-18.5"/>
</g>
<!-- Node4&#45;&gt;Node4 -->
<g id="edge7" class="edge">
<title>Node4&#45;&gt;Node4</title>
<path fill="none" stroke="#63b8ff" d="M82.58,-40.6C79.02,-44.97 70.32,-48 56.5,-48 33.22,-48 24.49,-39.41 30.31,-30.28"/>
<polygon fill="#63b8ff" stroke="#63b8ff" points="86.08,-40.31 82.69,-30.28 79.08,-40.24 86.08,-40.31"/>
</g>
</g>
</svg>
