<?xml version="1.0" encoding="UTF-8" standalone="no"?>
<!DOCTYPE svg PUBLIC "-//W3C//DTD SVG 1.1//EN"
 "http://www.w3.org/Graphics/SVG/1.1/DTD/svg11.dtd">
<!-- Generated by graphviz version 6.0.1 (20220911.1526)
 -->
<!-- Title: elc::APIs::alloc::realloc Pages: 1 -->
<svg width="435pt" height="67pt"
 viewBox="0.00 0.00 435.00 67.00" xmlns="http://www.w3.org/2000/svg" xmlns:xlink="http://www.w3.org/1999/xlink">
<g id="graph0" class="graph" transform="scale(1 1) rotate(0) translate(4 63)">
<title>elc::APIs::alloc::realloc</title>
<!-- Node1 -->
<g id="node1" class="node">
<title>Node1</title>
<g id="a_node1"><a xlink:title=" ">
<polygon fill="#999999" stroke="#666666" points="427,-30 310,-30 310,-11 427,-11 427,-30"/>
<text text-anchor="middle" x="368.5" y="-18" font-family="Helvetica,sans-Serif" font-size="10.00">elc::APIs::alloc::realloc</text>
</a>
</g>
</g>
<!-- Node2 -->
<g id="node2" class="node">
<title>Node2</title>
<g id="a_node2"><a xlink:href="namespaceelc_1_1defs_1_1memory_1_1alloc__n_1_1default__method.html#a8ee321f9ab5577ba520976ffa2c49e2d" target="_top" xlink:title="Reallocates a block of memory.">
<polygon fill="white" stroke="#666666" points="274,-41 155,-41 155,0 274,0 274,-41"/>
<text text-anchor="start" x="163" y="-29" font-family="Helvetica,sans-Serif" font-size="10.00">elc::defs::memory::</text>
<text text-anchor="start" x="163" y="-18" font-family="Helvetica,sans-Serif" font-size="10.00">alloc_n::default_method</text>
<text text-anchor="middle" x="214.5" y="-7" font-family="Helvetica,sans-Serif" font-size="10.00">::base_realloc</text>
</a>
</g>
</g>
<!-- Node1&#45;&gt;Node2 -->
<g id="edge1" class="edge">
<title>Node1&#45;&gt;Node2</title>
<path fill="none" stroke="#63b8ff" d="M299.44,-20.5C291.03,-20.5 282.5,-20.5 274.25,-20.5"/>
<polygon fill="#63b8ff" stroke="#63b8ff" points="299.6,-24 309.6,-20.5 299.6,-17 299.6,-24"/>
</g>
<!-- Node2&#45;&gt;Node2 -->
<g id="edge2" class="edge">
<title>Node2&#45;&gt;Node2</title>
<path fill="none" stroke="#63b8ff" d="M240.99,-50.96C237.05,-55.74 228.22,-59 214.5,-59 192.54,-59 183.11,-50.65 186.2,-41.1"/>
<polygon fill="#63b8ff" stroke="#63b8ff" points="244.44,-51.56 242.8,-41.1 237.56,-50.3 244.44,-51.56"/>
</g>
<!-- Node3 -->
<g id="node3" class="node">
<title>Node3</title>
<g id="a_node3"><a xlink:href="namespaceelc_1_1defs_1_1memory_1_1alloc__n_1_1default__method.html#a7006a2426096a4f9cdf039371a44971b" target="_top" xlink:title=" ">
<polygon fill="white" stroke="#666666" points="119,-41 0,-41 0,0 119,0 119,-41"/>
<text text-anchor="start" x="8" y="-29" font-family="Helvetica,sans-Serif" font-size="10.00">elc::defs::memory::</text>
<text text-anchor="start" x="8" y="-18" font-family="Helvetica,sans-Serif" font-size="10.00">alloc_n::default_method</text>
<text text-anchor="middle" x="59.5" y="-7" font-family="Helvetica,sans-Serif" font-size="10.00">::realloc_method</text>
</a>
</g>
</g>
<!-- Node2&#45;&gt;Node3 -->
<g id="edge3" class="edge">
<title>Node2&#45;&gt;Node3</title>
<path fill="none" stroke="#63b8ff" d="M144.51,-20.5C136.01,-20.5 127.38,-20.5 119.06,-20.5"/>
<polygon fill="#63b8ff" stroke="#63b8ff" points="144.78,-24 154.78,-20.5 144.78,-17 144.78,-24"/>
</g>
<!-- Node3&#45;&gt;Node3 -->
<g id="edge4" class="edge">
<title>Node3&#45;&gt;Node3</title>
<path fill="none" stroke="#63b8ff" d="M86.17,-50.96C82.2,-55.74 73.31,-59 59.5,-59 37.4,-59 27.9,-50.65 31.01,-41.1"/>
<polygon fill="#63b8ff" stroke="#63b8ff" points="89.61,-51.57 87.99,-41.1 82.73,-50.3 89.61,-51.57"/>
</g>
</g>
</svg>
