<?xml version="1.0" encoding="UTF-8" standalone="no"?>
<!DOCTYPE svg PUBLIC "-//W3C//DTD SVG 1.1//EN"
 "http://www.w3.org/Graphics/SVG/1.1/DTD/svg11.dtd">
<!-- Generated by graphviz version 6.0.1 (20220911.1526)
 -->
<!-- Title: elc::defs::base::range_n::in_range_but_reverse_size_t Pages: 1 -->
<svg width="294pt" height="116pt"
 viewBox="0.00 0.00 294.00 115.50" xmlns="http://www.w3.org/2000/svg" xmlns:xlink="http://www.w3.org/1999/xlink">
<g id="graph0" class="graph" transform="scale(1 1) rotate(0) translate(4 111.5)">
<title>elc::defs::base::range_n::in_range_but_reverse_size_t</title>
<!-- Node1 -->
<g id="node1" class="node">
<title>Node1</title>
<g id="a_node1"><a xlink:title="若成功找到匹配的数据项，返回其距离开头的步数，若未找到，返回npos">
<polygon fill="#999999" stroke="#666666" points="125,-71.5 0,-71.5 0,-30.5 125,-30.5 125,-71.5"/>
<text text-anchor="start" x="8" y="-59.5" font-family="Helvetica,sans-Serif" font-size="10.00">elc::defs::base::range</text>
<text text-anchor="start" x="8" y="-48.5" font-family="Helvetica,sans-Serif" font-size="10.00">_n::in_range_but_reverse</text>
<text text-anchor="middle" x="62.5" y="-37.5" font-family="Helvetica,sans-Serif" font-size="10.00">_size_t</text>
</a>
</g>
</g>
<!-- Node1&#45;&gt;Node1 -->
<g id="edge4" class="edge">
<title>Node1&#45;&gt;Node1</title>
<path fill="none" stroke="#63b8ff" d="M32.91,-71.6C29.68,-81.15 39.54,-89.5 62.5,-89.5 76.85,-89.5 86.08,-86.24 90.2,-81.46"/>
<polygon fill="#63b8ff" stroke="#63b8ff" points="93.64,-82.08 92.09,-71.6 86.77,-80.76 93.64,-82.08"/>
</g>
<!-- Node2 -->
<g id="node2" class="node">
<title>Node2</title>
<g id="a_node2"><a xlink:href="structelc_1_1defs_1_1base_1_1array__like__n_1_1array__like__view__t.html#a613a7a28045bb8efd320108a432ad775" target="_top" xlink:title=" ">
<polygon fill="white" stroke="#666666" points="283,-107.5 164,-107.5 164,-66.5 283,-66.5 283,-107.5"/>
<text text-anchor="start" x="172" y="-95.5" font-family="Helvetica,sans-Serif" font-size="10.00">elc::defs::base::array</text>
<text text-anchor="start" x="172" y="-84.5" font-family="Helvetica,sans-Serif" font-size="10.00">_like_n::array_like_view</text>
<text text-anchor="middle" x="223.5" y="-73.5" font-family="Helvetica,sans-Serif" font-size="10.00">_t::begin</text>
</a>
</g>
</g>
<!-- Node1&#45;&gt;Node2 -->
<g id="edge1" class="edge">
<title>Node1&#45;&gt;Node2</title>
<path fill="none" stroke="#63b8ff" d="M125.43,-65.02C134.81,-67.15 144.54,-69.35 154.05,-71.5"/>
<polygon fill="#63b8ff" stroke="#63b8ff" points="153.34,-74.93 163.86,-73.72 154.88,-68.1 153.34,-74.93"/>
</g>
<!-- Node3 -->
<g id="node3" class="node">
<title>Node3</title>
<g id="a_node3"><a xlink:href="namespaceelc_1_1defs_1_1base_1_1range__n.html#a34f1fb9d2924b8dc3249d4a7c0accab6" target="_top" xlink:title="若成功找到匹配的数据项，返回其开头，若未找到，返回nullptr">
<polygon fill="white" stroke="#666666" points="286,-30 161,-30 161,0 286,0 286,-30"/>
<text text-anchor="start" x="169" y="-18" font-family="Helvetica,sans-Serif" font-size="10.00">elc::defs::base::range</text>
<text text-anchor="middle" x="223.5" y="-7" font-family="Helvetica,sans-Serif" font-size="10.00">_n::in_range_but_reverse</text>
</a>
</g>
</g>
<!-- Node1&#45;&gt;Node3 -->
<g id="edge2" class="edge">
<title>Node1&#45;&gt;Node3</title>
<path fill="none" stroke="#63b8ff" d="M125.43,-36.98C133.76,-35.09 142.37,-33.14 150.86,-31.22"/>
<polygon fill="#63b8ff" stroke="#63b8ff" points="151.76,-34.61 160.74,-28.98 150.21,-27.78 151.76,-34.61"/>
</g>
<!-- Node3&#45;&gt;Node3 -->
<g id="edge3" class="edge">
<title>Node3&#45;&gt;Node3</title>
<path fill="none" stroke="#63b8ff" d="M195.2,-30.28C188.91,-39.41 198.34,-48 223.5,-48 238.44,-48 247.83,-44.97 251.68,-40.6"/>
<polygon fill="#63b8ff" stroke="#63b8ff" points="255.18,-40.32 251.8,-30.28 248.18,-40.23 255.18,-40.32"/>
</g>
</g>
</svg>
