<?xml version="1.0" encoding="UTF-8" standalone="no"?>
<!DOCTYPE svg PUBLIC "-//W3C//DTD SVG 1.1//EN"
 "http://www.w3.org/Graphics/SVG/1.1/DTD/svg11.dtd">
<!-- Generated by graphviz version 6.0.1 (20220911.1526)
 -->
<!-- Title: elc::defs::base::array_like_n::end_of_array_like Pages: 1 -->
<svg width="310pt" height="122pt"
 viewBox="0.00 0.00 310.00 122.00" xmlns="http://www.w3.org/2000/svg" xmlns:xlink="http://www.w3.org/1999/xlink">
<g id="graph0" class="graph" transform="scale(1 1) rotate(0) translate(4 118)">
<title>elc::defs::base::array_like_n::end_of_array_like</title>
<!-- Node1 -->
<g id="node1" class="node">
<title>Node1</title>
<g id="a_node1"><a xlink:title=" ">
<polygon fill="#999999" stroke="#666666" points="129,-63 0,-63 0,-33 129,-33 129,-63"/>
<text text-anchor="start" x="8" y="-51" font-family="Helvetica,sans-Serif" font-size="10.00">elc::defs::base::array</text>
<text text-anchor="middle" x="64.5" y="-40" font-family="Helvetica,sans-Serif" font-size="10.00">_like_n::end_of_array_like</text>
</a>
</g>
</g>
<!-- Node1&#45;&gt;Node1 -->
<g id="edge3" class="edge">
<title>Node1&#45;&gt;Node1</title>
<path fill="none" stroke="#63b8ff" d="M34.79,-63.28C28.19,-72.41 38.09,-81 64.5,-81 80.18,-81 90.04,-77.97 94.08,-73.6"/>
<polygon fill="#63b8ff" stroke="#63b8ff" points="97.58,-73.32 94.21,-63.28 90.59,-73.23 97.58,-73.32"/>
</g>
<!-- Node2 -->
<g id="node2" class="node">
<title>Node2</title>
<g id="a_node2"><a xlink:href="namespaceelc_1_1defs_1_1base_1_1array__like__n.html#a2b908be784e9b96dab69759b5cdd057e" target="_top" xlink:title=" ">
<polygon fill="white" stroke="#666666" points="302,-96 165,-96 165,-66 302,-66 302,-96"/>
<text text-anchor="start" x="173" y="-84" font-family="Helvetica,sans-Serif" font-size="10.00">elc::defs::base::array</text>
<text text-anchor="middle" x="233.5" y="-73" font-family="Helvetica,sans-Serif" font-size="10.00">_like_n::begin_of_array_like</text>
</a>
</g>
</g>
<!-- Node1&#45;&gt;Node2 -->
<g id="edge1" class="edge">
<title>Node1&#45;&gt;Node2</title>
<path fill="none" stroke="#63b8ff" d="M129.11,-60.57C137.53,-62.23 146.23,-63.95 154.84,-65.65"/>
<polygon fill="#63b8ff" stroke="#63b8ff" points="154.41,-69.14 164.9,-67.64 155.77,-62.27 154.41,-69.14"/>
</g>
<!-- Node3 -->
<g id="node3" class="node">
<title>Node3</title>
<g id="a_node3"><a xlink:href="namespaceelc_1_1defs_1_1base_1_1array__like__n.html#a3ba2be23b4671a1ec08aab7a8734579e" target="_top" xlink:title=" ">
<polygon fill="white" stroke="#666666" points="299,-30 168,-30 168,0 299,0 299,-30"/>
<text text-anchor="start" x="176" y="-18" font-family="Helvetica,sans-Serif" font-size="10.00">elc::defs::base::array</text>
<text text-anchor="middle" x="233.5" y="-7" font-family="Helvetica,sans-Serif" font-size="10.00">_like_n::size_of_array_like</text>
</a>
</g>
</g>
<!-- Node1&#45;&gt;Node3 -->
<g id="edge4" class="edge">
<title>Node1&#45;&gt;Node3</title>
<path fill="none" stroke="#63b8ff" d="M129.11,-35.43C138.55,-33.56 148.35,-31.63 157.99,-29.72"/>
<polygon fill="#63b8ff" stroke="#63b8ff" points="158.83,-33.13 167.96,-27.75 157.47,-26.26 158.83,-33.13"/>
</g>
<!-- Node2&#45;&gt;Node2 -->
<g id="edge2" class="edge">
<title>Node2&#45;&gt;Node2</title>
<path fill="none" stroke="#63b8ff" d="M203.79,-96.28C197.19,-105.41 207.09,-114 233.5,-114 249.18,-114 259.04,-110.97 263.08,-106.6"/>
<polygon fill="#63b8ff" stroke="#63b8ff" points="266.58,-106.32 263.21,-96.28 259.59,-106.23 266.58,-106.32"/>
</g>
<!-- Node3&#45;&gt;Node3 -->
<g id="edge5" class="edge">
<title>Node3&#45;&gt;Node3</title>
<path fill="none" stroke="#63b8ff" d="M203.79,-30.28C197.19,-39.41 207.09,-48 233.5,-48 249.18,-48 259.04,-44.97 263.08,-40.6"/>
<polygon fill="#63b8ff" stroke="#63b8ff" points="266.58,-40.32 263.21,-30.28 259.59,-40.23 266.58,-40.32"/>
</g>
</g>
</svg>
