<?xml version="1.0" encoding="UTF-8" standalone="no"?>
<!DOCTYPE svg PUBLIC "-//W3C//DTD SVG 1.1//EN"
 "http://www.w3.org/Graphics/SVG/1.1/DTD/svg11.dtd">
<!-- Generated by graphviz version 6.0.1 (20220911.1526)
 -->
<!-- Title: elc::paths::defs::get_program_data_path Pages: 1 -->
<svg width="260pt" height="56pt"
 viewBox="0.00 0.00 260.00 56.00" xmlns="http://www.w3.org/2000/svg" xmlns:xlink="http://www.w3.org/1999/xlink">
<g id="graph0" class="graph" transform="scale(1 1) rotate(0) translate(4 52)">
<title>elc::paths::defs::get_program_data_path</title>
<!-- Node1 -->
<g id="node1" class="node">
<title>Node1</title>
<g id="a_node1"><a xlink:title=" ">
<polygon fill="#999999" stroke="#666666" points="252,-30 147,-30 147,0 252,0 252,-30"/>
<text text-anchor="start" x="155" y="-18" font-family="Helvetica,sans-Serif" font-size="10.00">elc::paths::defs::get</text>
<text text-anchor="middle" x="199.5" y="-7" font-family="Helvetica,sans-Serif" font-size="10.00">_program_data_path</text>
</a>
</g>
</g>
<!-- Node1&#45;&gt;Node1 -->
<g id="edge3" class="edge">
<title>Node1&#45;&gt;Node1</title>
<path fill="none" stroke="#63b8ff" d="M224.71,-40.6C221.26,-44.97 212.86,-48 199.5,-48 177,-48 168.56,-39.41 174.19,-30.28"/>
<polygon fill="#63b8ff" stroke="#63b8ff" points="228.21,-40.31 224.81,-30.28 221.21,-40.24 228.21,-40.31"/>
</g>
<!-- Node2 -->
<g id="node2" class="node">
<title>Node2</title>
<g id="a_node2"><a xlink:href="namespaceelc_1_1paths_1_1defs.html#adfefc83294b4e09b5c361a7e5ee49851" target="_top" xlink:title=" ">
<polygon fill="white" stroke="#666666" points="111,-30 0,-30 0,0 111,0 111,-30"/>
<text text-anchor="start" x="8" y="-18" font-family="Helvetica,sans-Serif" font-size="10.00">elc::paths::defs::get</text>
<text text-anchor="middle" x="55.5" y="-7" font-family="Helvetica,sans-Serif" font-size="10.00">_elc_runtime_lib_path</text>
</a>
</g>
</g>
<!-- Node1&#45;&gt;Node2 -->
<g id="edge1" class="edge">
<title>Node1&#45;&gt;Node2</title>
<path fill="none" stroke="#63b8ff" d="M136.64,-15C128.18,-15 119.55,-15 111.24,-15"/>
<polygon fill="#63b8ff" stroke="#63b8ff" points="136.83,-18.5 146.83,-15 136.83,-11.5 136.83,-18.5"/>
</g>
<!-- Node2&#45;&gt;Node2 -->
<g id="edge2" class="edge">
<title>Node2&#45;&gt;Node2</title>
<path fill="none" stroke="#63b8ff" d="M80.71,-40.6C77.26,-44.97 68.86,-48 55.5,-48 33,-48 24.56,-39.41 30.19,-30.28"/>
<polygon fill="#63b8ff" stroke="#63b8ff" points="84.21,-40.31 80.81,-30.28 77.21,-40.24 84.21,-40.31"/>
</g>
</g>
</svg>
