<?xml version="1.0" encoding="UTF-8" standalone="no"?>
<!DOCTYPE svg PUBLIC "-//W3C//DTD SVG 1.1//EN"
 "http://www.w3.org/Graphics/SVG/1.1/DTD/svg11.dtd">
<!-- Generated by graphviz version 6.0.1 (20220911.1526)
 -->
<!-- Title: elc::defs::memory::abstract_base_n::is_instance_ptr Pages: 1 -->
<svg width="387pt" height="67pt"
 viewBox="0.00 0.00 387.00 67.00" xmlns="http://www.w3.org/2000/svg" xmlns:xlink="http://www.w3.org/1999/xlink">
<g id="graph0" class="graph" transform="scale(1 1) rotate(0) translate(4 63)">
<title>elc::defs::memory::abstract_base_n::is_instance_ptr</title>
<!-- Node1 -->
<g id="node1" class="node">
<title>Node1</title>
<g id="a_node1"><a xlink:title=" ">
<polygon fill="#999999" stroke="#666666" points="102,-41 0,-41 0,0 102,0 102,-41"/>
<text text-anchor="start" x="8" y="-29" font-family="Helvetica,sans-Serif" font-size="10.00">elc::defs::memory::</text>
<text text-anchor="start" x="8" y="-18" font-family="Helvetica,sans-Serif" font-size="10.00">abstract_base_n::is</text>
<text text-anchor="middle" x="51" y="-7" font-family="Helvetica,sans-Serif" font-size="10.00">_instance_ptr</text>
</a>
</g>
</g>
<!-- Node1&#45;&gt;Node1 -->
<g id="edge3" class="edge">
<title>Node1&#45;&gt;Node1</title>
<path fill="none" stroke="#63b8ff" d="M25.82,-41.1C23.07,-50.65 31.47,-59 51,-59 62.9,-59 70.67,-55.9 74.3,-51.32"/>
<polygon fill="#63b8ff" stroke="#63b8ff" points="77.81,-51.57 76.18,-41.1 70.93,-50.3 77.81,-51.57"/>
</g>
<!-- Node2 -->
<g id="node2" class="node">
<title>Node2</title>
<g id="a_node2"><a xlink:href="namespaceelc_1_1defs_1_1base.html#a41806589ddf17cdf0a2da4977ab0dd48" target="_top" xlink:title="获取两个指针的偏移">
<polygon fill="white" stroke="#666666" points="238,-35.5 138,-35.5 138,-5.5 238,-5.5 238,-35.5"/>
<text text-anchor="start" x="146" y="-23.5" font-family="Helvetica,sans-Serif" font-size="10.00">elc::defs::base::get</text>
<text text-anchor="middle" x="188" y="-12.5" font-family="Helvetica,sans-Serif" font-size="10.00">_off_set</text>
</a>
</g>
</g>
<!-- Node1&#45;&gt;Node2 -->
<g id="edge1" class="edge">
<title>Node1&#45;&gt;Node2</title>
<path fill="none" stroke="#63b8ff" d="M102.27,-20.5C110.48,-20.5 119.05,-20.5 127.45,-20.5"/>
<polygon fill="#63b8ff" stroke="#63b8ff" points="127.59,-24 137.59,-20.5 127.59,-17 127.59,-24"/>
</g>
<!-- Node3 -->
<g id="node3" class="node">
<title>Node3</title>
<g id="a_node3"><a xlink:href="namespaceelc_1_1defs_1_1base.html#a51f0e6e825e683bbef6baeb2921de485" target="_top" xlink:title=" ">
<polygon fill="white" stroke="#666666" points="379,-35.5 274,-35.5 274,-5.5 379,-5.5 379,-35.5"/>
<text text-anchor="start" x="282" y="-23.5" font-family="Helvetica,sans-Serif" font-size="10.00">elc::defs::base::cast</text>
<text text-anchor="middle" x="326.5" y="-12.5" font-family="Helvetica,sans-Serif" font-size="10.00">_to_data</text>
</a>
</g>
</g>
<!-- Node2&#45;&gt;Node3 -->
<g id="edge2" class="edge">
<title>Node2&#45;&gt;Node3</title>
<path fill="none" stroke="#63b8ff" d="M238.28,-20.5C246.62,-20.5 255.38,-20.5 263.99,-20.5"/>
<polygon fill="#63b8ff" stroke="#63b8ff" points="263.99,-24 273.99,-20.5 263.99,-17 263.99,-24"/>
</g>
</g>
</svg>
