<?xml version="1.0" encoding="UTF-8" standalone="no"?>
<!DOCTYPE svg PUBLIC "-//W3C//DTD SVG 1.1//EN"
 "http://www.w3.org/Graphics/SVG/1.1/DTD/svg11.dtd">
<!-- Generated by graphviz version 6.0.1 (20220911.1526)
 -->
<!-- Title: elc::paths::defs::get_elc_runtime_lib_path Pages: 1 -->
<svg width="260pt" height="188pt"
 viewBox="0.00 0.00 260.00 188.00" xmlns="http://www.w3.org/2000/svg" xmlns:xlink="http://www.w3.org/1999/xlink">
<g id="graph0" class="graph" transform="scale(1 1) rotate(0) translate(4 184)">
<title>elc::paths::defs::get_elc_runtime_lib_path</title>
<!-- Node1 -->
<g id="node1" class="node">
<title>Node1</title>
<g id="a_node1"><a xlink:title=" ">
<polygon fill="#999999" stroke="#666666" points="111,-96 0,-96 0,-66 111,-66 111,-96"/>
<text text-anchor="start" x="8" y="-84" font-family="Helvetica,sans-Serif" font-size="10.00">elc::paths::defs::get</text>
<text text-anchor="middle" x="55.5" y="-73" font-family="Helvetica,sans-Serif" font-size="10.00">_elc_runtime_lib_path</text>
</a>
</g>
</g>
<!-- Node1&#45;&gt;Node1 -->
<g id="edge3" class="edge">
<title>Node1&#45;&gt;Node1</title>
<path fill="none" stroke="#63b8ff" d="M30.19,-96.28C24.56,-105.41 33,-114 55.5,-114 68.86,-114 77.26,-110.97 80.71,-106.6"/>
<polygon fill="#63b8ff" stroke="#63b8ff" points="84.21,-106.31 80.81,-96.28 77.21,-106.24 84.21,-106.31"/>
</g>
<!-- Node2 -->
<g id="node2" class="node">
<title>Node2</title>
<g id="a_node2"><a xlink:href="namespaceelc_1_1paths_1_1defs.html#a2d4e1c2eaeb86c42b6a6f677710d1c60" target="_top" xlink:title=" ">
<polygon fill="white" stroke="#666666" points="250,-162 149,-162 149,-132 250,-132 250,-162"/>
<text text-anchor="start" x="157" y="-150" font-family="Helvetica,sans-Serif" font-size="10.00">elc::paths::defs::file</text>
<text text-anchor="middle" x="199.5" y="-139" font-family="Helvetica,sans-Serif" font-size="10.00">_exists</text>
</a>
</g>
</g>
<!-- Node1&#45;&gt;Node2 -->
<g id="edge1" class="edge">
<title>Node1&#45;&gt;Node2</title>
<path fill="none" stroke="#63b8ff" d="M89.08,-96.14C109.19,-105.49 135.19,-117.58 156.8,-127.62"/>
<polygon fill="#63b8ff" stroke="#63b8ff" points="155.53,-130.89 166.07,-131.93 158.48,-124.54 155.53,-130.89"/>
</g>
<!-- Node3 -->
<g id="node3" class="node">
<title>Node3</title>
<g id="a_node3"><a xlink:href="namespaceelc_1_1paths_1_1defs.html#ae0e62f4ea0225b62c566312a1791ec07" target="_top" xlink:title=" ">
<polygon fill="white" stroke="#666666" points="252,-96 147,-96 147,-66 252,-66 252,-96"/>
<text text-anchor="start" x="155" y="-84" font-family="Helvetica,sans-Serif" font-size="10.00">elc::paths::defs::get</text>
<text text-anchor="middle" x="199.5" y="-73" font-family="Helvetica,sans-Serif" font-size="10.00">_program_data_path</text>
</a>
</g>
</g>
<!-- Node1&#45;&gt;Node3 -->
<g id="edge4" class="edge">
<title>Node1&#45;&gt;Node3</title>
<path fill="none" stroke="#63b8ff" d="M111.4,-81C119.61,-81 128.13,-81 136.47,-81"/>
<polygon fill="#63b8ff" stroke="#63b8ff" points="136.54,-84.5 146.54,-81 136.54,-77.5 136.54,-84.5"/>
</g>
<!-- Node4 -->
<g id="node4" class="node">
<title>Node4</title>
<g id="a_node4"><a xlink:href="namespaceelc_1_1paths_1_1defs.html#acfebdea789e0ee2fc968017f3a083be0" target="_top" xlink:title=" ">
<polygon fill="white" stroke="#666666" points="251,-30 148,-30 148,0 251,0 251,-30"/>
<text text-anchor="start" x="156" y="-18" font-family="Helvetica,sans-Serif" font-size="10.00">elc::paths::defs::get</text>
<text text-anchor="middle" x="199.5" y="-7" font-family="Helvetica,sans-Serif" font-size="10.00">_system_drive</text>
</a>
</g>
</g>
<!-- Node1&#45;&gt;Node4 -->
<g id="edge6" class="edge">
<title>Node1&#45;&gt;Node4</title>
<path fill="none" stroke="#63b8ff" d="M89.08,-65.86C109.19,-56.51 135.19,-44.42 156.8,-34.38"/>
<polygon fill="#63b8ff" stroke="#63b8ff" points="158.48,-37.46 166.07,-30.07 155.53,-31.11 158.48,-37.46"/>
</g>
<!-- Node2&#45;&gt;Node2 -->
<g id="edge2" class="edge">
<title>Node2&#45;&gt;Node2</title>
<path fill="none" stroke="#63b8ff" d="M174.19,-162.28C168.56,-171.41 177,-180 199.5,-180 212.86,-180 221.26,-176.97 224.71,-172.6"/>
<polygon fill="#63b8ff" stroke="#63b8ff" points="228.21,-172.31 224.81,-162.28 221.21,-172.24 228.21,-172.31"/>
</g>
<!-- Node3&#45;&gt;Node3 -->
<g id="edge5" class="edge">
<title>Node3&#45;&gt;Node3</title>
<path fill="none" stroke="#63b8ff" d="M174.19,-96.28C168.56,-105.41 177,-114 199.5,-114 212.86,-114 221.26,-110.97 224.71,-106.6"/>
<polygon fill="#63b8ff" stroke="#63b8ff" points="228.21,-106.31 224.81,-96.28 221.21,-106.24 228.21,-106.31"/>
</g>
<!-- Node4&#45;&gt;Node4 -->
<g id="edge7" class="edge">
<title>Node4&#45;&gt;Node4</title>
<path fill="none" stroke="#63b8ff" d="M174.19,-30.28C168.56,-39.41 177,-48 199.5,-48 212.86,-48 221.26,-44.97 224.71,-40.6"/>
<polygon fill="#63b8ff" stroke="#63b8ff" points="228.21,-40.31 224.81,-30.28 221.21,-40.24 228.21,-40.31"/>
</g>
</g>
</svg>
