<?xml version="1.0" encoding="UTF-8" standalone="no"?>
<!DOCTYPE svg PUBLIC "-//W3C//DTD SVG 1.1//EN"
 "http://www.w3.org/Graphics/SVG/1.1/DTD/svg11.dtd">
<!-- Generated by graphviz version 6.0.1 (20220911.1526)
 -->
<!-- Title: elc::APIs::alloc::overhead_n::correct_align Pages: 1 -->
<svg width="298pt" height="56pt"
 viewBox="0.00 0.00 298.00 56.00" xmlns="http://www.w3.org/2000/svg" xmlns:xlink="http://www.w3.org/1999/xlink">
<g id="graph0" class="graph" transform="scale(1 1) rotate(0) translate(4 52)">
<title>elc::APIs::alloc::overhead_n::correct_align</title>
<!-- Node1 -->
<g id="node1" class="node">
<title>Node1</title>
<g id="a_node1"><a xlink:title=" ">
<polygon fill="#999999" stroke="#666666" points="127,-30 0,-30 0,0 127,0 127,-30"/>
<text text-anchor="start" x="8" y="-18" font-family="Helvetica,sans-Serif" font-size="10.00">elc::APIs::alloc::overhead</text>
<text text-anchor="middle" x="63.5" y="-7" font-family="Helvetica,sans-Serif" font-size="10.00">_n::correct_align</text>
</a>
</g>
</g>
<!-- Node1&#45;&gt;Node1 -->
<g id="edge1" class="edge">
<title>Node1&#45;&gt;Node1</title>
<path fill="none" stroke="#63b8ff" d="M34.85,-30.28C28.48,-39.41 38.03,-48 63.5,-48 78.62,-48 88.13,-44.97 92.03,-40.6"/>
<polygon fill="#63b8ff" stroke="#63b8ff" points="95.53,-40.32 92.15,-30.28 88.54,-40.23 95.53,-40.32"/>
</g>
<!-- Node2 -->
<g id="node2" class="node">
<title>Node2</title>
<g id="a_node2"><a xlink:href="namespaceelc_1_1_a_p_is_1_1alloc_1_1overhead__n.html#a8b792e6d02266492cbfa82da4abc2c37" target="_top" xlink:title=" ">
<polygon fill="white" stroke="#666666" points="290,-30 163,-30 163,0 290,0 290,-30"/>
<text text-anchor="start" x="171" y="-18" font-family="Helvetica,sans-Serif" font-size="10.00">elc::APIs::alloc::overhead</text>
<text text-anchor="middle" x="226.5" y="-7" font-family="Helvetica,sans-Serif" font-size="10.00">_n::overhead_get_align</text>
</a>
</g>
</g>
<!-- Node1&#45;&gt;Node2 -->
<g id="edge2" class="edge">
<title>Node1&#45;&gt;Node2</title>
<path fill="none" stroke="#63b8ff" d="M127.21,-15C135.65,-15 144.36,-15 152.96,-15"/>
<polygon fill="#63b8ff" stroke="#63b8ff" points="152.96,-18.5 162.96,-15 152.96,-11.5 152.96,-18.5"/>
</g>
<!-- Node2&#45;&gt;Node2 -->
<g id="edge3" class="edge">
<title>Node2&#45;&gt;Node2</title>
<path fill="none" stroke="#63b8ff" d="M197.85,-30.28C191.48,-39.41 201.03,-48 226.5,-48 241.62,-48 251.13,-44.97 255.03,-40.6"/>
<polygon fill="#63b8ff" stroke="#63b8ff" points="258.53,-40.32 255.15,-30.28 251.54,-40.23 258.53,-40.32"/>
</g>
</g>
</svg>
