<?xml version="1.0" encoding="UTF-8" standalone="no"?>
<!DOCTYPE svg PUBLIC "-//W3C//DTD SVG 1.1//EN"
 "http://www.w3.org/Graphics/SVG/1.1/DTD/svg11.dtd">
<!-- Generated by graphviz version 6.0.1 (20220911.1526)
 -->
<!-- Title: elc::APIs::die::die_with Pages: 1 -->
<svg width="254pt" height="45pt"
 viewBox="0.00 0.00 254.00 45.00" xmlns="http://www.w3.org/2000/svg" xmlns:xlink="http://www.w3.org/1999/xlink">
<g id="graph0" class="graph" transform="scale(1 1) rotate(0) translate(4 41)">
<title>elc::APIs::die::die_with</title>
<!-- Node1 -->
<g id="node1" class="node">
<title>Node1</title>
<g id="a_node1"><a xlink:title="同 die ，但是有详细的错误信息">
<polygon fill="#999999" stroke="#666666" points="116,-19 0,-19 0,0 116,0 116,-19"/>
<text text-anchor="middle" x="58" y="-7" font-family="Helvetica,sans-Serif" font-size="10.00">elc::APIs::die::die_with</text>
</a>
</g>
</g>
<!-- Node1&#45;&gt;Node1 -->
<g id="edge3" class="edge">
<title>Node1&#45;&gt;Node1</title>
<path fill="none" stroke="#63b8ff" d="M36.27,-19.08C25.7,-27.73 32.94,-37 58,-37 74.05,-37 82.8,-33.2 84.23,-28.19"/>
<polygon fill="#63b8ff" stroke="#63b8ff" points="87.3,-26.5 79.73,-19.08 81.02,-29.6 87.3,-26.5"/>
</g>
<!-- Node2 -->
<g id="node2" class="node">
<title>Node2</title>
<g id="a_node2"><a xlink:href="namespaceelc_1_1_a_p_is_1_1die.html#a3ccd3adb91ebb3e2322baf0fed97fce6" target="_top" xlink:title="终止整个程序并可能的触发断点或输出错误信息">
<polygon fill="white" stroke="#666666" points="246,-19 152,-19 152,0 246,0 246,-19"/>
<text text-anchor="middle" x="199" y="-7" font-family="Helvetica,sans-Serif" font-size="10.00">elc::APIs::die::die</text>
</a>
</g>
</g>
<!-- Node1&#45;&gt;Node2 -->
<g id="edge1" class="edge">
<title>Node1&#45;&gt;Node2</title>
<path fill="none" stroke="#63b8ff" d="M116.34,-9.5C124.74,-9.5 133.38,-9.5 141.76,-9.5"/>
<polygon fill="#63b8ff" stroke="#63b8ff" points="141.81,-13 151.81,-9.5 141.81,-6 141.81,-13"/>
</g>
<!-- Node2&#45;&gt;Node2 -->
<g id="edge2" class="edge">
<title>Node2&#45;&gt;Node2</title>
<path fill="none" stroke="#63b8ff" d="M177.27,-19.08C166.7,-27.73 173.94,-37 199,-37 215.05,-37 223.8,-33.2 225.23,-28.19"/>
<polygon fill="#63b8ff" stroke="#63b8ff" points="228.3,-26.5 220.73,-19.08 222.02,-29.6 228.3,-26.5"/>
</g>
</g>
</svg>
