<?xml version="1.0" encoding="UTF-8" standalone="no"?>
<!DOCTYPE svg PUBLIC "-//W3C//DTD SVG 1.1//EN"
 "http://www.w3.org/Graphics/SVG/1.1/DTD/svg11.dtd">
<!-- Generated by graphviz version 6.0.1 (20220911.1526)
 -->
<!-- Title: elc::paths::defs::get_elc_runtime_lib_path Pages: 1 -->
<svg width="390pt" height="86pt"
 viewBox="0.00 0.00 390.00 86.00" xmlns="http://www.w3.org/2000/svg" xmlns:xlink="http://www.w3.org/1999/xlink">
<g id="graph0" class="graph" transform="scale(1 1) rotate(0) translate(4 82)">
<title>elc::paths::defs::get_elc_runtime_lib_path</title>
<!-- Node1 -->
<g id="node1" class="node">
<title>Node1</title>
<g id="a_node1"><a xlink:title=" ">
<polygon fill="#999999" stroke="#666666" points="111,-54 0,-54 0,-24 111,-24 111,-54"/>
<text text-anchor="start" x="8" y="-42" font-family="Helvetica,sans-Serif" font-size="10.00">elc::paths::defs::get</text>
<text text-anchor="middle" x="55.5" y="-31" font-family="Helvetica,sans-Serif" font-size="10.00">_elc_runtime_lib_path</text>
</a>
</g>
</g>
<!-- Node2 -->
<g id="node2" class="node">
<title>Node2</title>
<g id="a_node2"><a xlink:href="namespaceelc_1_1paths_1_1defs.html#ae0e62f4ea0225b62c566312a1791ec07" target="_top" xlink:title=" ">
<polygon fill="white" stroke="#666666" points="252,-78 147,-78 147,-48 252,-48 252,-78"/>
<text text-anchor="start" x="155" y="-66" font-family="Helvetica,sans-Serif" font-size="10.00">elc::paths::defs::get</text>
<text text-anchor="middle" x="199.5" y="-55" font-family="Helvetica,sans-Serif" font-size="10.00">_program_data_path</text>
</a>
</g>
</g>
<!-- Node1&#45;&gt;Node2 -->
<g id="edge1" class="edge">
<title>Node1&#45;&gt;Node2</title>
<path fill="none" stroke="#63b8ff" d="M111.4,-48.28C119.61,-49.67 128.13,-51.11 136.47,-52.52"/>
<polygon fill="#63b8ff" stroke="#63b8ff" points="136.1,-56 146.54,-54.22 137.26,-49.1 136.1,-56"/>
</g>
<!-- Node4 -->
<g id="node4" class="node">
<title>Node4</title>
<g id="a_node4"><a xlink:href="namespaceelc_1_1paths_1_1defs.html#acfebdea789e0ee2fc968017f3a083be0" target="_top" xlink:title=" ">
<polygon fill="white" stroke="#666666" points="251,-30 148,-30 148,0 251,0 251,-30"/>
<text text-anchor="start" x="156" y="-18" font-family="Helvetica,sans-Serif" font-size="10.00">elc::paths::defs::get</text>
<text text-anchor="middle" x="199.5" y="-7" font-family="Helvetica,sans-Serif" font-size="10.00">_system_drive</text>
</a>
</g>
</g>
<!-- Node1&#45;&gt;Node4 -->
<g id="edge3" class="edge">
<title>Node1&#45;&gt;Node4</title>
<path fill="none" stroke="#63b8ff" d="M111.4,-29.72C120.13,-28.25 129.21,-26.71 138.06,-25.22"/>
<polygon fill="#63b8ff" stroke="#63b8ff" points="138.65,-28.66 147.93,-23.55 137.48,-21.76 138.65,-28.66"/>
</g>
<!-- Node3 -->
<g id="node3" class="node">
<title>Node3</title>
<g id="a_node3"><a xlink:href="structelc_1_1defs_1_1string__n_1_1string__t.html#a349876bc42e6119f48c5897af259e84f" target="_top" xlink:title=" ">
<polygon fill="white" stroke="#666666" points="382,-54 288,-54 288,-24 382,-24 382,-54"/>
<text text-anchor="start" x="296" y="-42" font-family="Helvetica,sans-Serif" font-size="10.00">elc::defs::string_n</text>
<text text-anchor="middle" x="335" y="-31" font-family="Helvetica,sans-Serif" font-size="10.00">::string_t::string_t</text>
</a>
</g>
</g>
<!-- Node2&#45;&gt;Node3 -->
<g id="edge2" class="edge">
<title>Node2&#45;&gt;Node3</title>
<path fill="none" stroke="#63b8ff" d="M252.11,-53.72C260.55,-52.2 269.33,-50.63 277.87,-49.09"/>
<polygon fill="#63b8ff" stroke="#63b8ff" points="278.53,-52.53 287.75,-47.31 277.29,-45.64 278.53,-52.53"/>
</g>
<!-- Node4&#45;&gt;Node3 -->
<g id="edge4" class="edge">
<title>Node4&#45;&gt;Node3</title>
<path fill="none" stroke="#63b8ff" d="M251.35,-24.14C259.93,-25.68 268.88,-27.29 277.59,-28.86"/>
<polygon fill="#63b8ff" stroke="#63b8ff" points="277.21,-32.35 287.67,-30.67 278.45,-25.46 277.21,-32.35"/>
</g>
</g>
</svg>
