<?xml version="1.0" encoding="UTF-8" standalone="no"?>
<!DOCTYPE svg PUBLIC "-//W3C//DTD SVG 1.1//EN"
 "http://www.w3.org/Graphics/SVG/1.1/DTD/svg11.dtd">
<!-- Generated by graphviz version 6.0.1 (20220911.1526)
 -->
<!-- Title: elc::defs::memory::abstract_base_n::is_instance_ptr Pages: 1 -->
<svg width="277pt" height="200pt"
 viewBox="0.00 0.00 277.00 200.00" xmlns="http://www.w3.org/2000/svg" xmlns:xlink="http://www.w3.org/1999/xlink">
<g id="graph0" class="graph" transform="scale(1 1) rotate(0) translate(4 196)">
<title>elc::defs::memory::abstract_base_n::is_instance_ptr</title>
<!-- Node1 -->
<g id="node1" class="node">
<title>Node1</title>
<g id="a_node1"><a xlink:title=" ">
<polygon fill="#999999" stroke="#666666" points="269,-116.5 167,-116.5 167,-75.5 269,-75.5 269,-116.5"/>
<text text-anchor="start" x="175" y="-104.5" font-family="Helvetica,sans-Serif" font-size="10.00">elc::defs::memory::</text>
<text text-anchor="start" x="175" y="-93.5" font-family="Helvetica,sans-Serif" font-size="10.00">abstract_base_n::is</text>
<text text-anchor="middle" x="218" y="-82.5" font-family="Helvetica,sans-Serif" font-size="10.00">_instance_ptr</text>
</a>
</g>
</g>
<!-- Node1&#45;&gt;Node1 -->
<g id="edge4" class="edge">
<title>Node1&#45;&gt;Node1</title>
<path fill="none" stroke="#63b8ff" d="M244.24,-126.46C240.34,-131.24 231.59,-134.5 218,-134.5 196.26,-134.5 186.91,-126.15 189.97,-116.6"/>
<polygon fill="#63b8ff" stroke="#63b8ff" points="247.68,-127.06 246.03,-116.6 240.8,-125.81 247.68,-127.06"/>
</g>
<!-- Node2 -->
<g id="node2" class="node">
<title>Node2</title>
<g id="a_node2"><a xlink:href="classelc_1_1defs_1_1memory_1_1abstract__base__n_1_1instance__struct.html#adbea8bf8db6092b9db87a4e459e19f41" target="_top" xlink:title=" ">
<polygon fill="white" stroke="#666666" points="131,-192 0,-192 0,-140 131,-140 131,-192"/>
<text text-anchor="start" x="8" y="-180" font-family="Helvetica,sans-Serif" font-size="10.00">elc::defs::memory::</text>
<text text-anchor="start" x="8" y="-169" font-family="Helvetica,sans-Serif" font-size="10.00">abstract_base_n::instance</text>
<text text-anchor="start" x="8" y="-158" font-family="Helvetica,sans-Serif" font-size="10.00">_struct::_abstract_method</text>
<text text-anchor="middle" x="65.5" y="-147" font-family="Helvetica,sans-Serif" font-size="10.00">_copy_get_this</text>
</a>
</g>
</g>
<!-- Node1&#45;&gt;Node2 -->
<g id="edge1" class="edge">
<title>Node1&#45;&gt;Node2</title>
<path fill="none" stroke="#63b8ff" d="M163.24,-121C150.04,-127.15 135.87,-133.73 122.56,-139.93"/>
<polygon fill="#63b8ff" stroke="#63b8ff" points="165.07,-124.01 172.66,-116.62 162.12,-117.67 165.07,-124.01"/>
</g>
<!-- Node3 -->
<g id="node3" class="node">
<title>Node3</title>
<g id="a_node3"><a xlink:href="classelc_1_1defs_1_1memory_1_1abstract__base__n_1_1instance__struct.html#a425b31f18514a0ef6c67b368b24b7809" target="_top" xlink:title=" ">
<polygon fill="white" stroke="#666666" points="131,-122 0,-122 0,-70 131,-70 131,-122"/>
<text text-anchor="start" x="8" y="-110" font-family="Helvetica,sans-Serif" font-size="10.00">elc::defs::memory::</text>
<text text-anchor="start" x="8" y="-99" font-family="Helvetica,sans-Serif" font-size="10.00">abstract_base_n::instance</text>
<text text-anchor="start" x="8" y="-88" font-family="Helvetica,sans-Serif" font-size="10.00">_struct::_abstract_method</text>
<text text-anchor="middle" x="65.5" y="-77" font-family="Helvetica,sans-Serif" font-size="10.00">_get_forward_resize_this</text>
</a>
</g>
</g>
<!-- Node1&#45;&gt;Node3 -->
<g id="edge2" class="edge">
<title>Node1&#45;&gt;Node3</title>
<path fill="none" stroke="#63b8ff" d="M156.76,-96C148.33,-96 139.63,-96 131.12,-96"/>
<polygon fill="#63b8ff" stroke="#63b8ff" points="156.89,-99.5 166.89,-96 156.89,-92.5 156.89,-99.5"/>
</g>
<!-- Node4 -->
<g id="node4" class="node">
<title>Node4</title>
<g id="a_node4"><a xlink:href="classelc_1_1defs_1_1memory_1_1abstract__base__n_1_1instance__struct.html#a840e798c30250fd531aa814d416fa894" target="_top" xlink:title=" ">
<polygon fill="white" stroke="#666666" points="131,-52 0,-52 0,0 131,0 131,-52"/>
<text text-anchor="start" x="8" y="-40" font-family="Helvetica,sans-Serif" font-size="10.00">elc::defs::memory::</text>
<text text-anchor="start" x="8" y="-29" font-family="Helvetica,sans-Serif" font-size="10.00">abstract_base_n::instance</text>
<text text-anchor="start" x="8" y="-18" font-family="Helvetica,sans-Serif" font-size="10.00">_struct::_abstract_method</text>
<text text-anchor="middle" x="65.5" y="-7" font-family="Helvetica,sans-Serif" font-size="10.00">_get_resize_this</text>
</a>
</g>
</g>
<!-- Node1&#45;&gt;Node4 -->
<g id="edge3" class="edge">
<title>Node1&#45;&gt;Node4</title>
<path fill="none" stroke="#63b8ff" d="M163.24,-71C150.04,-64.85 135.87,-58.27 122.56,-52.07"/>
<polygon fill="#63b8ff" stroke="#63b8ff" points="162.12,-74.33 172.66,-75.38 165.07,-67.99 162.12,-74.33"/>
</g>
</g>
</svg>
