<?xml version="1.0" encoding="UTF-8" standalone="no"?>
<!DOCTYPE svg PUBLIC "-//W3C//DTD SVG 1.1//EN"
 "http://www.w3.org/Graphics/SVG/1.1/DTD/svg11.dtd">
<!-- Generated by graphviz version 6.0.1 (20220911.1526)
 -->
<!-- Title: elc::defs::memory::gc_n::gc_for_alloc Pages: 1 -->
<svg width="412pt" height="76pt"
 viewBox="0.00 0.00 412.00 75.50" xmlns="http://www.w3.org/2000/svg" xmlns:xlink="http://www.w3.org/1999/xlink">
<g id="graph0" class="graph" transform="scale(1 1) rotate(0) translate(4 71.5)">
<title>elc::defs::memory::gc_n::gc_for_alloc</title>
<!-- Node1 -->
<g id="node1" class="node">
<title>Node1</title>
<g id="a_node1"><a xlink:title="当alloc失败时调用此函数">
<polygon fill="#999999" stroke="#666666" points="101,-51 0,-51 0,-21 101,-21 101,-51"/>
<text text-anchor="start" x="8" y="-39" font-family="Helvetica,sans-Serif" font-size="10.00">elc::defs::memory::</text>
<text text-anchor="middle" x="50.5" y="-28" font-family="Helvetica,sans-Serif" font-size="10.00">gc_n::gc_for_alloc</text>
</a>
</g>
</g>
<!-- Node2 -->
<g id="node2" class="node">
<title>Node2</title>
<g id="a_node2"><a xlink:href="classelc_1_1defs_1_1memory_1_1gc__n_1_1gc__t.html#a44bd3718534432f70ee2cf4741fa8a74" target="_top" xlink:title=" ">
<polygon fill="white" stroke="#666666" points="247,-51 137,-51 137,-21 247,-21 247,-51"/>
<text text-anchor="start" x="145" y="-39" font-family="Helvetica,sans-Serif" font-size="10.00">elc::defs::memory::</text>
<text text-anchor="middle" x="192" y="-28" font-family="Helvetica,sans-Serif" font-size="10.00">gc_n::gc_t::operator()</text>
</a>
</g>
</g>
<!-- Node1&#45;&gt;Node2 -->
<g id="edge1" class="edge">
<title>Node1&#45;&gt;Node2</title>
<path fill="none" stroke="#63b8ff" d="M101.08,-36C109.41,-36 118.16,-36 126.79,-36"/>
<polygon fill="#63b8ff" stroke="#63b8ff" points="126.85,-39.5 136.85,-36 126.85,-32.5 126.85,-39.5"/>
</g>
<!-- Node3 -->
<g id="node3" class="node">
<title>Node3</title>
<g id="a_node3"><a xlink:href="classelc_1_1defs_1_1base_1_1flag.html#a276b6522d8614b03a610d6ed8640982e" target="_top" xlink:title=" ">
<polygon fill="white" stroke="#666666" points="404,-67.5 283,-67.5 283,-48.5 404,-48.5 404,-67.5"/>
<text text-anchor="middle" x="343.5" y="-55.5" font-family="Helvetica,sans-Serif" font-size="10.00">elc::defs::base::flag::set</text>
</a>
</g>
</g>
<!-- Node2&#45;&gt;Node3 -->
<g id="edge2" class="edge">
<title>Node2&#45;&gt;Node3</title>
<path fill="none" stroke="#63b8ff" d="M247.4,-44C255.68,-45.22 264.32,-46.5 272.87,-47.75"/>
<polygon fill="#63b8ff" stroke="#63b8ff" points="272.44,-51.23 282.84,-49.22 273.46,-44.3 272.44,-51.23"/>
</g>
<!-- Node4 -->
<g id="node4" class="node">
<title>Node4</title>
<g id="a_node4"><a xlink:href="classelc_1_1defs_1_1base_1_1flag.html#a52efee8cf2903f94119aafaf8f1335f4" target="_top" xlink:title=" ">
<polygon fill="white" stroke="#666666" points="394,-30 293,-30 293,0 394,0 394,-30"/>
<text text-anchor="start" x="301" y="-18" font-family="Helvetica,sans-Serif" font-size="10.00">elc::defs::base::flag</text>
<text text-anchor="middle" x="343.5" y="-7" font-family="Helvetica,sans-Serif" font-size="10.00">::unset</text>
</a>
</g>
</g>
<!-- Node2&#45;&gt;Node4 -->
<g id="edge3" class="edge">
<title>Node2&#45;&gt;Node4</title>
<path fill="none" stroke="#63b8ff" d="M247.4,-28.36C258.89,-26.74 271.08,-25.03 282.76,-23.39"/>
<polygon fill="#63b8ff" stroke="#63b8ff" points="283.44,-26.83 292.86,-21.97 282.47,-19.9 283.44,-26.83"/>
</g>
</g>
</svg>
