<?xml version="1.0" encoding="UTF-8" standalone="no"?>
<!DOCTYPE svg PUBLIC "-//W3C//DTD SVG 1.1//EN"
 "http://www.w3.org/Graphics/SVG/1.1/DTD/svg11.dtd">
<!-- Generated by graphviz version 6.0.1 (20220911.1526)
 -->
<!-- Title: elc::APIs::str_code_convert::to_char_t_str Pages: 1 -->
<svg width="279pt" height="205pt"
 viewBox="0.00 0.00 279.00 205.00" xmlns="http://www.w3.org/2000/svg" xmlns:xlink="http://www.w3.org/1999/xlink">
<g id="graph0" class="graph" transform="scale(1 1) rotate(0) translate(4 201)">
<title>elc::APIs::str_code_convert::to_char_t_str</title>
<!-- Node1 -->
<g id="node1" class="node">
<title>Node1</title>
<g id="a_node1"><a xlink:title=" ">
<polygon fill="#999999" stroke="#666666" points="116,-113 0,-113 0,-83 116,-83 116,-113"/>
<text text-anchor="start" x="8" y="-101" font-family="Helvetica,sans-Serif" font-size="10.00">elc::APIs::str_code</text>
<text text-anchor="middle" x="58" y="-90" font-family="Helvetica,sans-Serif" font-size="10.00">_convert::to_char_t_str</text>
</a>
</g>
</g>
<!-- Node2 -->
<g id="node2" class="node">
<title>Node2</title>
<g id="a_node2"><a xlink:href="structelc_1_1defs_1_1string__n_1_1string__t.html#aecda51752bc54bbf5a5ca2dcc5a8282f" target="_top" xlink:title=" ">
<polygon fill="white" stroke="#666666" points="258.5,-197 164.5,-197 164.5,-167 258.5,-167 258.5,-197"/>
<text text-anchor="start" x="172.5" y="-185" font-family="Helvetica,sans-Serif" font-size="10.00">elc::defs::string_n</text>
<text text-anchor="middle" x="211.5" y="-174" font-family="Helvetica,sans-Serif" font-size="10.00">::string_t::c_str</text>
</a>
</g>
</g>
<!-- Node1&#45;&gt;Node2 -->
<g id="edge1" class="edge">
<title>Node1&#45;&gt;Node2</title>
<path fill="none" stroke="#63b8ff" d="M80.12,-113.22C98.55,-126.11 126.28,-144.57 152,-158 155.11,-159.62 158.36,-161.22 161.66,-162.76"/>
<polygon fill="#63b8ff" stroke="#63b8ff" points="160.47,-166.06 171.03,-166.97 163.34,-159.68 160.47,-166.06"/>
</g>
<!-- Node3 -->
<g id="node3" class="node">
<title>Node3</title>
<g id="a_node3"><a xlink:href="structelc_1_1defs_1_1base_1_1array__like__n_1_1array__like__view__t.html#acccc3655a0125cc9d3065590796f8383" target="_top" xlink:title=" ">
<polygon fill="white" stroke="#666666" points="271,-148.5 152,-148.5 152,-107.5 271,-107.5 271,-148.5"/>
<text text-anchor="start" x="160" y="-136.5" font-family="Helvetica,sans-Serif" font-size="10.00">elc::defs::base::array</text>
<text text-anchor="start" x="160" y="-125.5" font-family="Helvetica,sans-Serif" font-size="10.00">_like_n::array_like_view</text>
<text text-anchor="middle" x="211.5" y="-114.5" font-family="Helvetica,sans-Serif" font-size="10.00">_t::cbegin</text>
</a>
</g>
</g>
<!-- Node1&#45;&gt;Node3 -->
<g id="edge2" class="edge">
<title>Node1&#45;&gt;Node3</title>
<path fill="none" stroke="#63b8ff" d="M116.28,-109.34C124.65,-111 133.34,-112.72 141.91,-114.42"/>
<polygon fill="#63b8ff" stroke="#63b8ff" points="141.39,-117.88 151.88,-116.39 142.75,-111.02 141.39,-117.88"/>
</g>
<!-- Node4 -->
<g id="node4" class="node">
<title>Node4</title>
<g id="a_node4"><a xlink:href="structelc_1_1defs_1_1base_1_1array__like__n_1_1array__like__view__t.html#af0925246b65b042ca267fbbd11c13880" target="_top" xlink:title=" ">
<polygon fill="white" stroke="#666666" points="271,-89.5 152,-89.5 152,-48.5 271,-48.5 271,-89.5"/>
<text text-anchor="start" x="160" y="-77.5" font-family="Helvetica,sans-Serif" font-size="10.00">elc::defs::base::array</text>
<text text-anchor="start" x="160" y="-66.5" font-family="Helvetica,sans-Serif" font-size="10.00">_like_n::array_like_view</text>
<text text-anchor="middle" x="211.5" y="-55.5" font-family="Helvetica,sans-Serif" font-size="10.00">_t::cend</text>
</a>
</g>
</g>
<!-- Node1&#45;&gt;Node4 -->
<g id="edge3" class="edge">
<title>Node1&#45;&gt;Node4</title>
<path fill="none" stroke="#63b8ff" d="M116.28,-87.04C124.65,-85.43 133.34,-83.77 141.91,-82.13"/>
<polygon fill="#63b8ff" stroke="#63b8ff" points="142.72,-85.54 151.88,-80.22 141.4,-78.66 142.72,-85.54"/>
</g>
<!-- Node5 -->
<g id="node5" class="node">
<title>Node5</title>
<g id="a_node5"><a xlink:href="structelc_1_1defs_1_1string__n_1_1string__t.html#abe9ce4b509178711287c643992aa966a" target="_top" xlink:title=" ">
<polygon fill="white" stroke="#666666" points="265.5,-30 157.5,-30 157.5,0 265.5,0 265.5,-30"/>
<text text-anchor="start" x="165.5" y="-18" font-family="Helvetica,sans-Serif" font-size="10.00">elc::defs::string_n</text>
<text text-anchor="middle" x="211.5" y="-7" font-family="Helvetica,sans-Serif" font-size="10.00">::string_t::operator+=</text>
</a>
</g>
</g>
<!-- Node1&#45;&gt;Node5 -->
<g id="edge4" class="edge">
<title>Node1&#45;&gt;Node5</title>
<path fill="none" stroke="#63b8ff" d="M80.98,-82.94C99.48,-70.61 126.86,-53.11 152,-40 155.75,-38.05 159.68,-36.12 163.66,-34.25"/>
<polygon fill="#63b8ff" stroke="#63b8ff" points="165.31,-37.35 172.96,-30.03 162.41,-30.97 165.31,-37.35"/>
</g>
</g>
</svg>
