<?xml version="1.0" encoding="UTF-8" standalone="no"?>
<!DOCTYPE svg PUBLIC "-//W3C//DTD SVG 1.1//EN"
 "http://www.w3.org/Graphics/SVG/1.1/DTD/svg11.dtd">
<!-- Generated by graphviz version 6.0.1 (20220911.1526)
 -->
<!-- Title: elc::APIs::library_load::base_load_library Pages: 1 -->
<svg width="261pt" height="56pt"
 viewBox="0.00 0.00 261.00 56.00" xmlns="http://www.w3.org/2000/svg" xmlns:xlink="http://www.w3.org/1999/xlink">
<g id="graph0" class="graph" transform="scale(1 1) rotate(0) translate(4 52)">
<title>elc::APIs::library_load::base_load_library</title>
<!-- Node1 -->
<g id="node1" class="node">
<title>Node1</title>
<g id="a_node1"><a xlink:title=" ">
<polygon fill="#999999" stroke="#666666" points="253,-30 131,-30 131,0 253,0 253,-30"/>
<text text-anchor="start" x="139" y="-18" font-family="Helvetica,sans-Serif" font-size="10.00">elc::APIs::library</text>
<text text-anchor="middle" x="192" y="-7" font-family="Helvetica,sans-Serif" font-size="10.00">_load::base_load_library</text>
</a>
</g>
</g>
<!-- Node1&#45;&gt;Node1 -->
<g id="edge1" class="edge">
<title>Node1&#45;&gt;Node1</title>
<path fill="none" stroke="#63b8ff" d="M217.29,-40.6C213.84,-44.97 205.41,-48 192,-48 169.42,-48 160.96,-39.41 166.6,-30.28"/>
<polygon fill="#63b8ff" stroke="#63b8ff" points="220.8,-40.31 217.4,-30.28 213.8,-40.24 220.8,-40.31"/>
</g>
<!-- Node2 -->
<g id="node2" class="node">
<title>Node2</title>
<g id="a_node2"><a xlink:href="namespaceelc_1_1_a_p_is_1_1library__load.html#a5b9efe9d6722b00dfc3f95159a444e14" target="_top" xlink:title=" ">
<polygon fill="white" stroke="#666666" points="95,-30 0,-30 0,0 95,0 95,-30"/>
<text text-anchor="start" x="8" y="-18" font-family="Helvetica,sans-Serif" font-size="10.00">elc::APIs::library</text>
<text text-anchor="middle" x="47.5" y="-7" font-family="Helvetica,sans-Serif" font-size="10.00">_load::load_library</text>
</a>
</g>
</g>
<!-- Node1&#45;&gt;Node2 -->
<g id="edge2" class="edge">
<title>Node1&#45;&gt;Node2</title>
<path fill="none" stroke="#63b8ff" d="M120.77,-15C112.03,-15 103.28,-15 95.03,-15"/>
<polygon fill="#63b8ff" stroke="#63b8ff" points="120.98,-18.5 130.98,-15 120.98,-11.5 120.98,-18.5"/>
</g>
<!-- Node2&#45;&gt;Node2 -->
<g id="edge3" class="edge">
<title>Node2&#45;&gt;Node2</title>
<path fill="none" stroke="#63b8ff" d="M72.79,-40.6C69.34,-44.97 60.91,-48 47.5,-48 24.92,-48 16.46,-39.41 22.1,-30.28"/>
<polygon fill="#63b8ff" stroke="#63b8ff" points="76.3,-40.31 72.9,-30.28 69.3,-40.24 76.3,-40.31"/>
</g>
</g>
</svg>
