<?xml version="1.0" encoding="UTF-8" standalone="no"?>
<!DOCTYPE svg PUBLIC "-//W3C//DTD SVG 1.1//EN"
 "http://www.w3.org/Graphics/SVG/1.1/DTD/svg11.dtd">
<!-- Generated by graphviz version 6.0.1 (20220911.1526)
 -->
<!-- Title: elc::APIs::alloc::overhead_n::overhead_get_offset_value Pages: 1 -->
<svg width="317pt" height="56pt"
 viewBox="0.00 0.00 317.00 56.00" xmlns="http://www.w3.org/2000/svg" xmlns:xlink="http://www.w3.org/1999/xlink">
<g id="graph0" class="graph" transform="scale(1 1) rotate(0) translate(4 52)">
<title>elc::APIs::alloc::overhead_n::overhead_get_offset_value</title>
<!-- Node1 -->
<g id="node1" class="node">
<title>Node1</title>
<g id="a_node1"><a xlink:title=" ">
<polygon fill="#999999" stroke="#666666" points="146,-30 0,-30 0,0 146,0 146,-30"/>
<text text-anchor="start" x="8" y="-18" font-family="Helvetica,sans-Serif" font-size="10.00">elc::APIs::alloc::overhead</text>
<text text-anchor="middle" x="73" y="-7" font-family="Helvetica,sans-Serif" font-size="10.00">_n::overhead_get_offset_value</text>
</a>
</g>
</g>
<!-- Node1&#45;&gt;Node1 -->
<g id="edge3" class="edge">
<title>Node1&#45;&gt;Node1</title>
<path fill="none" stroke="#63b8ff" d="M42.68,-30.28C35.94,-39.41 46.05,-48 73,-48 89,-48 99.07,-44.97 103.19,-40.6"/>
<polygon fill="#63b8ff" stroke="#63b8ff" points="106.7,-40.32 103.32,-30.28 99.7,-40.23 106.7,-40.32"/>
</g>
<!-- Node2 -->
<g id="node2" class="node">
<title>Node2</title>
<g id="a_node2"><a xlink:href="namespaceelc_1_1_a_p_is_1_1alloc_1_1overhead__n.html#a8b792e6d02266492cbfa82da4abc2c37" target="_top" xlink:title=" ">
<polygon fill="white" stroke="#666666" points="309,-30 182,-30 182,0 309,0 309,-30"/>
<text text-anchor="start" x="190" y="-18" font-family="Helvetica,sans-Serif" font-size="10.00">elc::APIs::alloc::overhead</text>
<text text-anchor="middle" x="245.5" y="-7" font-family="Helvetica,sans-Serif" font-size="10.00">_n::overhead_get_align</text>
</a>
</g>
</g>
<!-- Node1&#45;&gt;Node2 -->
<g id="edge1" class="edge">
<title>Node1&#45;&gt;Node2</title>
<path fill="none" stroke="#63b8ff" d="M146.31,-15C154.7,-15 163.26,-15 171.65,-15"/>
<polygon fill="#63b8ff" stroke="#63b8ff" points="171.79,-18.5 181.79,-15 171.79,-11.5 171.79,-18.5"/>
</g>
<!-- Node2&#45;&gt;Node2 -->
<g id="edge2" class="edge">
<title>Node2&#45;&gt;Node2</title>
<path fill="none" stroke="#63b8ff" d="M215.18,-30.28C208.44,-39.41 218.55,-48 245.5,-48 261.5,-48 271.57,-44.97 275.69,-40.6"/>
<polygon fill="#63b8ff" stroke="#63b8ff" points="279.2,-40.32 275.82,-30.28 272.2,-40.23 279.2,-40.32"/>
</g>
</g>
</svg>
