<?xml version="1.0" encoding="UTF-8" standalone="no"?>
<!DOCTYPE svg PUBLIC "-//W3C//DTD SVG 1.1//EN"
 "http://www.w3.org/Graphics/SVG/1.1/DTD/svg11.dtd">
<!-- Generated by graphviz version 6.0.1 (20220911.1526)
 -->
<!-- Title: elc::defs::base::get_handle Pages: 1 -->
<!--zoomable 615 -->
<svg id="main" version="1.1" xmlns="http://www.w3.org/2000/svg" xmlns:xlink="http://www.w3.org/1999/xlink" xml:space="preserve" onload="init(evt)">
<style type="text/css"><![CDATA[
.edge:hover path { stroke: red; }
.edge:hover polygon { stroke: red; fill: red; }
]]></style>
<script type="text/javascript"><![CDATA[
var edges = document.getElementsByTagName('g');
if (edges && edges.length) {
  for (var i=0;i<edges.length;i++) {
    if (edges[i].id.substr(0,4)=='edge') {
      edges[i].setAttribute('class','edge');
    }
  }
}
]]></script>
        <defs>
                <circle id="rim" cx="0" cy="0" r="7"/>
                <circle id="rim2" cx="0" cy="0" r="3.5"/>
                <g id="zoomPlus">
                        <use xlink:href="#rim" fill="#404040">
                                <set attributeName="fill" to="#808080" begin="zoomplus.mouseover" end="zoomplus.mouseout"/>
                        </use>
                        <path d="M-4,0h8M0,-4v8" fill="none" stroke="white" stroke-width="1.5" pointer-events="none"/>
                </g>
                <g id="zoomMin">
                        <use xlink:href="#rim" fill="#404040">
                                <set attributeName="fill" to="#808080" begin="zoomminus.mouseover" end="zoomminus.mouseout"/>
                        </use>
                        <path d="M-4,0h8" fill="none" stroke="white" stroke-width="1.5" pointer-events="none"/>
                </g>
                <g id="dirArrow">
                        <path fill="none" stroke="white" stroke-width="1.5" d="M0,-3.0v7 M-2.5,-0.5L0,-3.0L2.5,-0.5"/>
                </g>
               <g id="resetDef">
                       <use xlink:href="#rim2" fill="#404040">
                               <set attributeName="fill" to="#808080" begin="reset.mouseover" end="reset.mouseout"/>
                       </use>
               </g>
        </defs>

<script type="text/javascript">
var viewWidth = 300;
var viewHeight = 615;
var sectionId = 'dynsection-7';
</script>
<script xlink:href="svgpan.js"/>
<svg id="graph" class="graph">
<g id="viewport">
<title>elc::defs::base::get_handle</title>
<!-- Node1 -->
<g id="node1" class="node">
<title>Node1</title>
<g id="a_node1"><a xlink:title=" ">
<polygon fill="#999999" stroke="#666666" points="292,-285.5 192,-285.5 192,-255.5 292,-255.5 292,-285.5"/>
<text text-anchor="start" x="200" y="-273.5" font-family="Helvetica,sans-Serif" font-size="10.00">elc::defs::base::get</text>
<text text-anchor="middle" x="242" y="-262.5" font-family="Helvetica,sans-Serif" font-size="10.00">_handle</text>
</a>
</g>
</g>
<!-- Node2 -->
<g id="node2" class="node">
<title>Node2</title>
<g id="a_node2"><a xlink:href="classelc_1_1defs_1_1memory_1_1abstract__base__n_1_1instance__struct.html#adbea8bf8db6092b9db87a4e459e19f41" target="_top" xlink:title=" ">
<polygon fill="white" stroke="#666666" points="143.5,-606.5 12.5,-606.5 12.5,-554.5 143.5,-554.5 143.5,-606.5"/>
<text text-anchor="start" x="20.5" y="-594.5" font-family="Helvetica,sans-Serif" font-size="10.00">elc::defs::memory::</text>
<text text-anchor="start" x="20.5" y="-583.5" font-family="Helvetica,sans-Serif" font-size="10.00">abstract_base_n::instance</text>
<text text-anchor="start" x="20.5" y="-572.5" font-family="Helvetica,sans-Serif" font-size="10.00">_struct::_abstract_method</text>
<text text-anchor="middle" x="78" y="-561.5" font-family="Helvetica,sans-Serif" font-size="10.00">_copy_get_this</text>
</a>
</g>
</g>
<!-- Node1&#45;&gt;Node2 -->
<g id="edge1" class="edge">
<title>Node1&#45;&gt;Node2</title>
<path fill="none" stroke="#63b8ff" d="M239.9,-295.82C236.32,-348.61 221.05,-471.62 156,-545.5 152.41,-549.58 148.25,-553.21 143.76,-556.43"/>
<polygon fill="#63b8ff" stroke="#63b8ff" points="243.41,-295.86 240.5,-285.67 236.42,-295.44 243.41,-295.86"/>
</g>
<!-- Node3 -->
<g id="node3" class="node">
<title>Node3</title>
<g id="a_node3"><a xlink:href="classelc_1_1defs_1_1memory_1_1abstract__base__n_1_1instance__struct.html#a425b31f18514a0ef6c67b368b24b7809" target="_top" xlink:title=" ">
<polygon fill="white" stroke="#666666" points="143.5,-536.5 12.5,-536.5 12.5,-484.5 143.5,-484.5 143.5,-536.5"/>
<text text-anchor="start" x="20.5" y="-524.5" font-family="Helvetica,sans-Serif" font-size="10.00">elc::defs::memory::</text>
<text text-anchor="start" x="20.5" y="-513.5" font-family="Helvetica,sans-Serif" font-size="10.00">abstract_base_n::instance</text>
<text text-anchor="start" x="20.5" y="-502.5" font-family="Helvetica,sans-Serif" font-size="10.00">_struct::_abstract_method</text>
<text text-anchor="middle" x="78" y="-491.5" font-family="Helvetica,sans-Serif" font-size="10.00">_get_forward_resize_this</text>
</a>
</g>
</g>
<!-- Node1&#45;&gt;Node3 -->
<g id="edge2" class="edge">
<title>Node1&#45;&gt;Node3</title>
<path fill="none" stroke="#63b8ff" d="M236.75,-295.72C228.4,-338.01 206.14,-423.65 156,-475.5 152.33,-479.3 148.16,-482.72 143.72,-485.8"/>
<polygon fill="#63b8ff" stroke="#63b8ff" points="240.22,-296.19 238.62,-285.72 233.34,-294.9 240.22,-296.19"/>
</g>
<!-- Node4 -->
<g id="node4" class="node">
<title>Node4</title>
<g id="a_node4"><a xlink:href="classelc_1_1defs_1_1memory_1_1abstract__base__n_1_1instance__struct.html#a840e798c30250fd531aa814d416fa894" target="_top" xlink:title=" ">
<polygon fill="white" stroke="#666666" points="143.5,-466.5 12.5,-466.5 12.5,-414.5 143.5,-414.5 143.5,-466.5"/>
<text text-anchor="start" x="20.5" y="-454.5" font-family="Helvetica,sans-Serif" font-size="10.00">elc::defs::memory::</text>
<text text-anchor="start" x="20.5" y="-443.5" font-family="Helvetica,sans-Serif" font-size="10.00">abstract_base_n::instance</text>
<text text-anchor="start" x="20.5" y="-432.5" font-family="Helvetica,sans-Serif" font-size="10.00">_struct::_abstract_method</text>
<text text-anchor="middle" x="78" y="-421.5" font-family="Helvetica,sans-Serif" font-size="10.00">_get_resize_this</text>
</a>
</g>
</g>
<!-- Node1&#45;&gt;Node4 -->
<g id="edge3" class="edge">
<title>Node1&#45;&gt;Node4</title>
<path fill="none" stroke="#63b8ff" d="M230.84,-295.12C217.53,-324.75 191.61,-374.41 156,-405.5 152.24,-408.78 148.12,-411.81 143.8,-414.6"/>
<polygon fill="#63b8ff" stroke="#63b8ff" points="234.08,-296.46 234.87,-285.89 227.66,-293.66 234.08,-296.46"/>
</g>
<!-- Node5 -->
<g id="node5" class="node">
<title>Node5</title>
<g id="a_node5"><a xlink:href="classelc_1_1defs_1_1memory_1_1abstract__base__n_1_1instance__struct.html#a0ef4c9e266b0dba79304b86307bd45a1" target="_top" xlink:title=" ">
<polygon fill="white" stroke="#666666" points="143.5,-396.5 12.5,-396.5 12.5,-344.5 143.5,-344.5 143.5,-396.5"/>
<text text-anchor="start" x="20.5" y="-384.5" font-family="Helvetica,sans-Serif" font-size="10.00">elc::defs::memory::</text>
<text text-anchor="start" x="20.5" y="-373.5" font-family="Helvetica,sans-Serif" font-size="10.00">abstract_base_n::instance</text>
<text text-anchor="start" x="20.5" y="-362.5" font-family="Helvetica,sans-Serif" font-size="10.00">_struct::abstract_method</text>
<text text-anchor="middle" x="78" y="-351.5" font-family="Helvetica,sans-Serif" font-size="10.00">_get_size_of_get_for_this</text>
</a>
</g>
</g>
<!-- Node1&#45;&gt;Node5 -->
<g id="edge4" class="edge">
<title>Node1&#45;&gt;Node5</title>
<path fill="none" stroke="#63b8ff" d="M215.61,-292.35C199.26,-305.79 177.17,-322.82 156,-335.5 150.84,-338.59 145.35,-341.59 139.78,-344.45"/>
<polygon fill="#63b8ff" stroke="#63b8ff" points="218.16,-294.78 223.6,-285.69 213.68,-289.4 218.16,-294.78"/>
</g>
<!-- Node6 -->
<g id="node6" class="node">
<title>Node6</title>
<g id="a_node6"><a xlink:href="classelc_1_1defs_1_1memory_1_1abstract__base__n_1_1instance__struct.html#a7435585ad02c90311737a440241b3dd1" target="_top" xlink:title=" ">
<polygon fill="white" stroke="#666666" points="143.5,-326.5 12.5,-326.5 12.5,-274.5 143.5,-274.5 143.5,-326.5"/>
<text text-anchor="start" x="20.5" y="-314.5" font-family="Helvetica,sans-Serif" font-size="10.00">elc::defs::memory::</text>
<text text-anchor="start" x="20.5" y="-303.5" font-family="Helvetica,sans-Serif" font-size="10.00">abstract_base_n::instance</text>
<text text-anchor="start" x="20.5" y="-292.5" font-family="Helvetica,sans-Serif" font-size="10.00">_struct::abstract_method</text>
<text text-anchor="middle" x="78" y="-281.5" font-family="Helvetica,sans-Serif" font-size="10.00">_unget_this</text>
</a>
</g>
</g>
<!-- Node1&#45;&gt;Node6 -->
<g id="edge5" class="edge">
<title>Node1&#45;&gt;Node6</title>
<path fill="none" stroke="#63b8ff" d="M181.77,-281.47C169.4,-283.76 156.3,-286.19 143.74,-288.51"/>
<polygon fill="#63b8ff" stroke="#63b8ff" points="182.76,-284.84 191.96,-279.58 181.48,-277.96 182.76,-284.84"/>
</g>
<!-- Node7 -->
<g id="node7" class="node">
<title>Node7</title>
<g id="a_node7"><a xlink:href="classelc_1_1defs_1_1memory_1_1ptr__n_1_1ref__able.html#aab6ab1fd7cbc58ee035cc32cdf4c3ce8" target="_top" xlink:title=" ">
<polygon fill="white" stroke="#666666" points="134.5,-256.5 21.5,-256.5 21.5,-226.5 134.5,-226.5 134.5,-256.5"/>
<text text-anchor="start" x="29.5" y="-244.5" font-family="Helvetica,sans-Serif" font-size="10.00">elc::defs::memory::</text>
<text text-anchor="middle" x="78" y="-233.5" font-family="Helvetica,sans-Serif" font-size="10.00">ptr_n::ref_able::cut_ref</text>
</a>
</g>
</g>
<!-- Node1&#45;&gt;Node7 -->
<g id="edge6" class="edge">
<title>Node1&#45;&gt;Node7</title>
<path fill="none" stroke="#63b8ff" d="M182,-259.94C166.55,-257.17 149.95,-254.2 134.69,-251.47"/>
<polygon fill="#63b8ff" stroke="#63b8ff" points="181.49,-263.4 191.96,-261.72 182.73,-256.51 181.49,-263.4"/>
</g>
<!-- Node8 -->
<g id="node8" class="node">
<title>Node8</title>
<g id="a_node8"><a xlink:href="classelc_1_1defs_1_1memory_1_1ptr__n_1_1weak__ref__able.html#afcc5b368d2311432001af6a1d3d4085c" target="_top" xlink:title=" ">
<polygon fill="white" stroke="#666666" points="131,-208 25,-208 25,-167 131,-167 131,-208"/>
<text text-anchor="start" x="33" y="-196" font-family="Helvetica,sans-Serif" font-size="10.00">elc::defs::memory::</text>
<text text-anchor="start" x="33" y="-185" font-family="Helvetica,sans-Serif" font-size="10.00">ptr_n::weak_ref_able</text>
<text text-anchor="middle" x="78" y="-174" font-family="Helvetica,sans-Serif" font-size="10.00">::cut_ref</text>
</a>
</g>
</g>
<!-- Node1&#45;&gt;Node8 -->
<g id="edge7" class="edge">
<title>Node1&#45;&gt;Node8</title>
<path fill="none" stroke="#63b8ff" d="M210.91,-249.82C195,-239.39 174.89,-226.97 156,-217.5 148.18,-213.58 139.71,-209.82 131.35,-206.38"/>
<polygon fill="#63b8ff" stroke="#63b8ff" points="209.02,-252.77 219.28,-255.39 212.89,-246.94 209.02,-252.77"/>
</g>
<!-- Node9 -->
<g id="node9" class="node">
<title>Node9</title>
<g id="a_node9"><a xlink:href="classelc_1_1defs_1_1base_1_1iterator__n_1_1same__base__t.html#a672e4e845ba4964b82822f5f69f5bb63" target="_top" xlink:title=" ">
<polygon fill="white" stroke="#666666" points="156,-148.5 0,-148.5 0,-118.5 156,-118.5 156,-148.5"/>
<text text-anchor="start" x="8" y="-136.5" font-family="Helvetica,sans-Serif" font-size="10.00">elc::defs::base::iterator</text>
<text text-anchor="middle" x="78" y="-125.5" font-family="Helvetica,sans-Serif" font-size="10.00">_n::same_base_t::handle_getter</text>
</a>
</g>
</g>
<!-- Node1&#45;&gt;Node9 -->
<g id="edge8" class="edge">
<title>Node1&#45;&gt;Node9</title>
<path fill="none" stroke="#63b8ff" d="M228.61,-246.51C214.35,-221.15 188.64,-181.69 156,-158.5 150.62,-154.67 144.61,-151.41 138.4,-148.63"/>
<polygon fill="#63b8ff" stroke="#63b8ff" points="225.64,-248.37 233.51,-255.47 231.79,-245.02 225.64,-248.37"/>
</g>
<!-- Node10 -->
<g id="node10" class="node">
<title>Node10</title>
<g id="a_node10"><a xlink:href="classelc_1_1defs_1_1base_1_1iterator__n_1_1same__base__t.html#a35141ca419118090c7c662982969cb9b" target="_top" xlink:title=" ">
<polygon fill="white" stroke="#666666" points="147.5,-100 8.5,-100 8.5,-59 147.5,-59 147.5,-100"/>
<text text-anchor="start" x="16.5" y="-88" font-family="Helvetica,sans-Serif" font-size="10.00">elc::defs::base::iterator</text>
<text text-anchor="start" x="16.5" y="-77" font-family="Helvetica,sans-Serif" font-size="10.00">_n::same_base_t::is_handle</text>
<text text-anchor="middle" x="78" y="-66" font-family="Helvetica,sans-Serif" font-size="10.00">_getter_noexcept</text>
</a>
</g>
</g>
<!-- Node1&#45;&gt;Node10 -->
<g id="edge9" class="edge">
<title>Node1&#45;&gt;Node10</title>
<path fill="none" stroke="#63b8ff" d="M233.93,-245.51C222.83,-210.53 198.11,-147.06 156,-109.5 152.04,-105.97 147.61,-102.83 142.94,-100.04"/>
<polygon fill="#63b8ff" stroke="#63b8ff" points="230.68,-246.85 236.94,-255.39 237.37,-244.8 230.68,-246.85"/>
</g>
<!-- Node11 -->
<g id="node11" class="node">
<title>Node11</title>
<g id="a_node11"><a xlink:href="structelc_1_1defs_1_1memory_1_1others__n_1_1replace__able.html#a6c4c40ad25a3907b6407cd9352f7b52a" target="_top" xlink:title=" ">
<polygon fill="white" stroke="#666666" points="135.5,-41 20.5,-41 20.5,0 135.5,0 135.5,-41"/>
<text text-anchor="start" x="28.5" y="-29" font-family="Helvetica,sans-Serif" font-size="10.00">elc::defs::memory::</text>
<text text-anchor="start" x="28.5" y="-18" font-family="Helvetica,sans-Serif" font-size="10.00">others_n::replace_able</text>
<text text-anchor="middle" x="78" y="-7" font-family="Helvetica,sans-Serif" font-size="10.00">::replaced</text>
</a>
</g>
</g>
<!-- Node1&#45;&gt;Node11 -->
<g id="edge10" class="edge">
<title>Node1&#45;&gt;Node11</title>
<path fill="none" stroke="#63b8ff" d="M237.95,-245.38C231.21,-200.4 211.02,-105.68 156,-50.5 150.23,-44.71 143.21,-40.01 135.78,-36.2"/>
<polygon fill="#63b8ff" stroke="#63b8ff" points="234.51,-246.02 239.36,-255.44 241.44,-245.05 234.51,-246.02"/>
</g>
</g>
</svg>
        <g id="navigator" transform="translate(0 0)" fill="#404254">
                <rect fill="#f2f5e9" fill-opacity="0.5" stroke="#606060" stroke-width=".5" x="0" y="0" width="60" height="60"/>
                <use id="zoomplus" xlink:href="#zoomPlus" x="17" y="9" onmousedown="handleZoom(evt,'in')"/>
                <use id="zoomminus" xlink:href="#zoomMin" x="42" y="9" onmousedown="handleZoom(evt,'out')"/>
                <use id="reset" xlink:href="#resetDef" x="30" y="36" onmousedown="handleReset()"/>
                <g id="arrowUp" xlink:href="#dirArrow" transform="translate(30 24)" onmousedown="handlePan(0,-1)">
                  <use xlink:href="#rim" fill="#404040">
                        <set attributeName="fill" to="#808080" begin="arrowUp.mouseover" end="arrowUp.mouseout"/>
                  </use>
                  <path fill="none" stroke="white" stroke-width="1.5" d="M0,-3.0v7 M-2.5,-0.5L0,-3.0L2.5,-0.5"/>
                </g>
                <g id="arrowRight" xlink:href="#dirArrow" transform="rotate(90) translate(36 -43)" onmousedown="handlePan(1,0)">
                  <use xlink:href="#rim" fill="#404040">
                        <set attributeName="fill" to="#808080" begin="arrowRight.mouseover" end="arrowRight.mouseout"/>
                  </use>
                  <path fill="none" stroke="white" stroke-width="1.5" d="M0,-3.0v7 M-2.5,-0.5L0,-3.0L2.5,-0.5"/>
                </g>
                <g id="arrowDown" xlink:href="#dirArrow" transform="rotate(180) translate(-30 -48)" onmousedown="handlePan(0,1)">
                  <use xlink:href="#rim" fill="#404040">
                        <set attributeName="fill" to="#808080" begin="arrowDown.mouseover" end="arrowDown.mouseout"/>
                  </use>
                  <path fill="none" stroke="white" stroke-width="1.5" d="M0,-3.0v7 M-2.5,-0.5L0,-3.0L2.5,-0.5"/>
                </g>
                <g id="arrowLeft" xlink:href="#dirArrow" transform="rotate(270) translate(-36 17)" onmousedown="handlePan(-1,0)">
                  <use xlink:href="#rim" fill="#404040">
                        <set attributeName="fill" to="#808080" begin="arrowLeft.mouseover" end="arrowLeft.mouseout"/>
                  </use>
                  <path fill="none" stroke="white" stroke-width="1.5" d="M0,-3.0v7 M-2.5,-0.5L0,-3.0L2.5,-0.5"/>
                </g>
        </g>
        <svg viewBox="0 0 15 15" width="100%" height="30px" preserveAspectRatio="xMaxYMin meet">
         <g id="arrow_out" transform="scale(0.3 0.3)">
          <a xlink:href="namespaceelc_1_1defs_1_1base_ac740922dcf0e8db243d073701ef678b7_icgraph_org.svg" target="_base">
           <rect id="button" ry="5" rx="5" y="6" x="6" height="38" width="38"
                fill="#f2f5e9" fill-opacity="0.5" stroke="#606060" stroke-width="1.0"/>
           <path id="arrow"
             d="M 11.500037,31.436501 C 11.940474,20.09759 22.043105,11.32322 32.158766,21.979434 L 37.068811,17.246167 C 37.068811,17.246167 37.088388,32 37.088388,32 L 22.160133,31.978069 C 22.160133,31.978069 26.997745,27.140456 26.997745,27.140456 C 18.528582,18.264221 13.291696,25.230495 11.500037,31.436501 z"
             style="fill:#404040;"/>
          </a>
         </g>
        </svg>
</svg>
