<?xml version="1.0" encoding="UTF-8" standalone="no"?>
<!DOCTYPE svg PUBLIC "-//W3C//DTD SVG 1.1//EN"
 "http://www.w3.org/Graphics/SVG/1.1/DTD/svg11.dtd">
<!-- Generated by graphviz version 6.0.1 (20220911.1526)
 -->
<!-- Title: elc::defs::memory::ptr_n::waiting_for_destroy Pages: 1 -->
<svg width="281pt" height="62pt"
 viewBox="0.00 0.00 281.00 61.50" xmlns="http://www.w3.org/2000/svg" xmlns:xlink="http://www.w3.org/1999/xlink">
<g id="graph0" class="graph" transform="scale(1 1) rotate(0) translate(4 57.5)">
<title>elc::defs::memory::ptr_n::waiting_for_destroy</title>
<!-- Node1 -->
<g id="node1" class="node">
<title>Node1</title>
<g id="a_node1"><a xlink:title=" ">
<polygon fill="#999999" stroke="#666666" points="128,-35.5 0,-35.5 0,-5.5 128,-5.5 128,-35.5"/>
<text text-anchor="start" x="8" y="-23.5" font-family="Helvetica,sans-Serif" font-size="10.00">elc::defs::memory::</text>
<text text-anchor="middle" x="64" y="-12.5" font-family="Helvetica,sans-Serif" font-size="10.00">ptr_n::waiting_for_destroy</text>
</a>
</g>
</g>
<!-- Node1&#45;&gt;Node1 -->
<g id="edge2" class="edge">
<title>Node1&#45;&gt;Node1</title>
<path fill="none" stroke="#63b8ff" d="M36.84,-35.78C30.81,-44.91 39.86,-53.5 64,-53.5 78.33,-53.5 87.35,-50.47 91.04,-46.1"/>
<polygon fill="#63b8ff" stroke="#63b8ff" points="94.55,-45.81 91.16,-35.78 87.55,-45.74 94.55,-45.81"/>
</g>
<!-- Node2 -->
<g id="node2" class="node">
<title>Node2</title>
<g id="a_node2"><a xlink:href="namespaceelc_1_1defs_1_1memory_1_1ptr__n.html#aa9ba109acd601da512261699c45d1276" target="_top" xlink:title=" ">
<polygon fill="white" stroke="#666666" points="273,-41 164,-41 164,0 273,0 273,-41"/>
<text text-anchor="start" x="172" y="-29" font-family="Helvetica,sans-Serif" font-size="10.00">elc::defs::memory::</text>
<text text-anchor="start" x="172" y="-18" font-family="Helvetica,sans-Serif" font-size="10.00">ptr_n::the_waiting_for</text>
<text text-anchor="middle" x="218.5" y="-7" font-family="Helvetica,sans-Serif" font-size="10.00">_destroy</text>
</a>
</g>
</g>
<!-- Node1&#45;&gt;Node2 -->
<g id="edge1" class="edge">
<title>Node1&#45;&gt;Node2</title>
<path fill="none" stroke="#63b8ff" d="M128.35,-20.5C136.73,-20.5 145.32,-20.5 153.7,-20.5"/>
<polygon fill="#63b8ff" stroke="#63b8ff" points="153.8,-24 163.8,-20.5 153.8,-17 153.8,-24"/>
</g>
</g>
</svg>
