<?xml version="1.0" encoding="UTF-8" standalone="no"?>
<!DOCTYPE svg PUBLIC "-//W3C//DTD SVG 1.1//EN"
 "http://www.w3.org/Graphics/SVG/1.1/DTD/svg11.dtd">
<!-- Generated by graphviz version 6.0.1 (20220911.1526)
 -->
<!-- Title: elc::defs::memory::lifetime_n::super_speed_trivial_copy_from_one Pages: 1 -->
<svg width="553pt" height="82pt"
 viewBox="0.00 0.00 553.00 82.00" xmlns="http://www.w3.org/2000/svg" xmlns:xlink="http://www.w3.org/1999/xlink">
<g id="graph0" class="graph" transform="scale(1 1) rotate(0) translate(4 78)">
<title>elc::defs::memory::lifetime_n::super_speed_trivial_copy_from_one</title>
<!-- Node1 -->
<g id="node1" class="node">
<title>Node1</title>
<g id="a_node1"><a xlink:title=" ">
<polygon fill="#999999" stroke="#666666" points="119,-74 0,-74 0,-33 119,-33 119,-74"/>
<text text-anchor="start" x="8" y="-62" font-family="Helvetica,sans-Serif" font-size="10.00">elc::defs::memory::</text>
<text text-anchor="start" x="8" y="-51" font-family="Helvetica,sans-Serif" font-size="10.00">lifetime_n::super_speed</text>
<text text-anchor="middle" x="59.5" y="-40" font-family="Helvetica,sans-Serif" font-size="10.00">_trivial_copy_from_one</text>
</a>
</g>
</g>
<!-- Node2 -->
<g id="node2" class="node">
<title>Node2</title>
<g id="a_node2"><a xlink:href="namespaceelc_1_1defs_1_1base.html#a1677dba1ac38f01832381c3bcb216396" target="_top" xlink:title="Returns true if all bytes in the input are zero.">
<polygon fill="white" stroke="#666666" points="404,-68.5 310,-68.5 310,-38.5 404,-38.5 404,-68.5"/>
<text text-anchor="start" x="318" y="-56.5" font-family="Helvetica,sans-Serif" font-size="10.00">elc::defs::base::is</text>
<text text-anchor="middle" x="357" y="-45.5" font-family="Helvetica,sans-Serif" font-size="10.00">_all_byte_zero</text>
</a>
</g>
</g>
<!-- Node1&#45;&gt;Node2 -->
<g id="edge1" class="edge">
<title>Node1&#45;&gt;Node2</title>
<path fill="none" stroke="#63b8ff" d="M119.06,-64.26C130.91,-66.03 143.33,-67.58 155,-68.5 207.73,-72.66 221.33,-73.28 274,-68.5 282.39,-67.74 291.21,-66.55 299.82,-65.16"/>
<polygon fill="#63b8ff" stroke="#63b8ff" points="300.53,-68.59 309.8,-63.46 299.35,-61.69 300.53,-68.59"/>
</g>
<!-- Node4 -->
<g id="node4" class="node">
<title>Node4</title>
<g id="a_node4"><a xlink:href="namespaceelc_1_1defs_1_1memory_1_1lifetime__n.html#a3538502ddcc1662696b0ae3144d249a2" target="_top" xlink:title=" ">
<polygon fill="white" stroke="#666666" points="274,-41 155,-41 155,0 274,0 274,-41"/>
<text text-anchor="start" x="163" y="-29" font-family="Helvetica,sans-Serif" font-size="10.00">elc::defs::memory::</text>
<text text-anchor="start" x="163" y="-18" font-family="Helvetica,sans-Serif" font-size="10.00">lifetime_n::super_speed</text>
<text text-anchor="middle" x="214.5" y="-7" font-family="Helvetica,sans-Serif" font-size="10.00">_trivial_copy_from_one</text>
</a>
</g>
</g>
<!-- Node1&#45;&gt;Node4 -->
<g id="edge3" class="edge">
<title>Node1&#45;&gt;Node4</title>
<path fill="none" stroke="#63b8ff" d="M119.22,-40.84C127.64,-39.02 136.36,-37.14 144.95,-35.29"/>
<polygon fill="#63b8ff" stroke="#63b8ff" points="145.9,-38.66 154.94,-33.13 144.43,-31.82 145.9,-38.66"/>
</g>
<!-- Node3 -->
<g id="node3" class="node">
<title>Node3</title>
<g id="a_node3"><a xlink:href="namespaceelc_1_1defs_1_1base.html#a51f0e6e825e683bbef6baeb2921de485" target="_top" xlink:title=" ">
<polygon fill="white" stroke="#666666" points="545,-68.5 440,-68.5 440,-38.5 545,-38.5 545,-68.5"/>
<text text-anchor="start" x="448" y="-56.5" font-family="Helvetica,sans-Serif" font-size="10.00">elc::defs::base::cast</text>
<text text-anchor="middle" x="492.5" y="-45.5" font-family="Helvetica,sans-Serif" font-size="10.00">_to_data</text>
</a>
</g>
</g>
<!-- Node2&#45;&gt;Node3 -->
<g id="edge2" class="edge">
<title>Node2&#45;&gt;Node3</title>
<path fill="none" stroke="#63b8ff" d="M404.32,-53.5C412.46,-53.5 421.04,-53.5 429.52,-53.5"/>
<polygon fill="#63b8ff" stroke="#63b8ff" points="429.78,-57 439.78,-53.5 429.78,-50 429.78,-57"/>
</g>
<!-- Node4&#45;&gt;Node2 -->
<g id="edge4" class="edge">
<title>Node4&#45;&gt;Node2</title>
<path fill="none" stroke="#63b8ff" d="M274.27,-34.3C282.81,-36.31 291.58,-38.37 300.06,-40.36"/>
<polygon fill="#63b8ff" stroke="#63b8ff" points="299.32,-43.78 309.86,-42.66 300.92,-36.97 299.32,-43.78"/>
</g>
<!-- Node4&#45;&gt;Node4 -->
<g id="edge5" class="edge">
<title>Node4&#45;&gt;Node4</title>
<path fill="none" stroke="#63b8ff" d="M188.31,-41.1C185.45,-50.65 194.18,-59 214.5,-59 227.2,-59 235.37,-55.74 239.02,-50.96"/>
<polygon fill="#63b8ff" stroke="#63b8ff" points="242.47,-51.54 240.69,-41.1 235.57,-50.37 242.47,-51.54"/>
</g>
</g>
</svg>
