<?xml version="1.0" encoding="UTF-8" standalone="no"?>
<!DOCTYPE svg PUBLIC "-//W3C//DTD SVG 1.1//EN"
 "http://www.w3.org/Graphics/SVG/1.1/DTD/svg11.dtd">
<!-- Generated by graphviz version 6.0.1 (20220911.1526)
 -->
<!-- Title: elc::defs::memory::alloc_n::default_method::base_free Pages: 1 -->
<svg width="282pt" height="67pt"
 viewBox="0.00 0.00 282.00 67.00" xmlns="http://www.w3.org/2000/svg" xmlns:xlink="http://www.w3.org/1999/xlink">
<g id="graph0" class="graph" transform="scale(1 1) rotate(0) translate(4 63)">
<title>elc::defs::memory::alloc_n::default_method::base_free</title>
<!-- Node1 -->
<g id="node1" class="node">
<title>Node1</title>
<g id="a_node1"><a xlink:title="Frees a pointer allocated by base_alloc.">
<polygon fill="#999999" stroke="#666666" points="274,-41 155,-41 155,0 274,0 274,-41"/>
<text text-anchor="start" x="163" y="-29" font-family="Helvetica,sans-Serif" font-size="10.00">elc::defs::memory::</text>
<text text-anchor="start" x="163" y="-18" font-family="Helvetica,sans-Serif" font-size="10.00">alloc_n::default_method</text>
<text text-anchor="middle" x="214.5" y="-7" font-family="Helvetica,sans-Serif" font-size="10.00">::base_free</text>
</a>
</g>
</g>
<!-- Node1&#45;&gt;Node1 -->
<g id="edge1" class="edge">
<title>Node1&#45;&gt;Node1</title>
<path fill="none" stroke="#63b8ff" d="M241.17,-50.96C237.2,-55.74 228.31,-59 214.5,-59 192.4,-59 182.9,-50.65 186.01,-41.1"/>
<polygon fill="#63b8ff" stroke="#63b8ff" points="244.61,-51.57 242.99,-41.1 237.73,-50.3 244.61,-51.57"/>
</g>
<!-- Node2 -->
<g id="node2" class="node">
<title>Node2</title>
<g id="a_node2"><a xlink:href="namespaceelc_1_1defs_1_1memory_1_1alloc__n_1_1default__method.html#a600bffa825c0c2c1695723ba33b28d74" target="_top" xlink:title=" ">
<polygon fill="white" stroke="#666666" points="119,-41 0,-41 0,0 119,0 119,-41"/>
<text text-anchor="start" x="8" y="-29" font-family="Helvetica,sans-Serif" font-size="10.00">elc::defs::memory::</text>
<text text-anchor="start" x="8" y="-18" font-family="Helvetica,sans-Serif" font-size="10.00">alloc_n::default_method</text>
<text text-anchor="middle" x="59.5" y="-7" font-family="Helvetica,sans-Serif" font-size="10.00">::free_method</text>
</a>
</g>
</g>
<!-- Node1&#45;&gt;Node2 -->
<g id="edge2" class="edge">
<title>Node1&#45;&gt;Node2</title>
<path fill="none" stroke="#63b8ff" d="M144.51,-20.5C136.01,-20.5 127.38,-20.5 119.06,-20.5"/>
<polygon fill="#63b8ff" stroke="#63b8ff" points="144.78,-24 154.78,-20.5 144.78,-17 144.78,-24"/>
</g>
<!-- Node2&#45;&gt;Node2 -->
<g id="edge3" class="edge">
<title>Node2&#45;&gt;Node2</title>
<path fill="none" stroke="#63b8ff" d="M86.17,-50.96C82.2,-55.74 73.31,-59 59.5,-59 37.4,-59 27.9,-50.65 31.01,-41.1"/>
<polygon fill="#63b8ff" stroke="#63b8ff" points="89.61,-51.57 87.99,-41.1 82.73,-50.3 89.61,-51.57"/>
</g>
</g>
</svg>
