<?xml version="1.0" encoding="UTF-8" standalone="no"?>
<!DOCTYPE svg PUBLIC "-//W3C//DTD SVG 1.1//EN"
 "http://www.w3.org/Graphics/SVG/1.1/DTD/svg11.dtd">
<!-- Generated by graphviz version 6.0.1 (20220911.1526)
 -->
<!-- Title: elc::defs::base::range_n::in_range Pages: 1 -->
<svg width="437pt" height="250pt"
 viewBox="0.00 0.00 437.00 250.00" xmlns="http://www.w3.org/2000/svg" xmlns:xlink="http://www.w3.org/1999/xlink">
<g id="graph0" class="graph" transform="scale(1 1) rotate(0) translate(4 246)">
<title>elc::defs::base::range_n::in_range</title>
<!-- Node1 -->
<g id="node1" class="node">
<title>Node1</title>
<g id="a_node1"><a xlink:title="若成功找到匹配的数据串，返回其开头，若未找到，返回nullptr">
<polygon fill="#999999" stroke="#666666" points="110,-105.5 0,-105.5 0,-75.5 110,-75.5 110,-105.5"/>
<text text-anchor="start" x="8" y="-93.5" font-family="Helvetica,sans-Serif" font-size="10.00">elc::defs::base::range</text>
<text text-anchor="middle" x="55" y="-82.5" font-family="Helvetica,sans-Serif" font-size="10.00">_n::in_range</text>
</a>
</g>
</g>
<!-- Node2 -->
<g id="node2" class="node">
<title>Node2</title>
<g id="a_node2"><a xlink:href="structelc_1_1defs_1_1base_1_1array__like__n_1_1array__like__view__t.html#a613a7a28045bb8efd320108a432ad775" target="_top" xlink:title=" ">
<polygon fill="white" stroke="#666666" points="269.5,-242 150.5,-242 150.5,-201 269.5,-201 269.5,-242"/>
<text text-anchor="start" x="158.5" y="-230" font-family="Helvetica,sans-Serif" font-size="10.00">elc::defs::base::array</text>
<text text-anchor="start" x="158.5" y="-219" font-family="Helvetica,sans-Serif" font-size="10.00">_like_n::array_like_view</text>
<text text-anchor="middle" x="210" y="-208" font-family="Helvetica,sans-Serif" font-size="10.00">_t::begin</text>
</a>
</g>
</g>
<!-- Node1&#45;&gt;Node2 -->
<g id="edge1" class="edge">
<title>Node1&#45;&gt;Node2</title>
<path fill="none" stroke="#63b8ff" d="M66.32,-105.78C81.6,-127.45 112.08,-167.27 146,-192.5 147.39,-193.54 148.83,-194.55 150.3,-195.54"/>
<polygon fill="#63b8ff" stroke="#63b8ff" points="148.69,-198.65 159.04,-200.91 152.36,-192.69 148.69,-198.65"/>
</g>
<!-- Node3 -->
<g id="node3" class="node">
<title>Node3</title>
<g id="a_node3"><a xlink:href="structelc_1_1defs_1_1base_1_1array__like__n_1_1array__like__view__t.html#ac89cec36abae10678ac1cced715c99c5" target="_top" xlink:title=" ">
<polygon fill="white" stroke="#666666" points="269.5,-183 150.5,-183 150.5,-142 269.5,-142 269.5,-183"/>
<text text-anchor="start" x="158.5" y="-171" font-family="Helvetica,sans-Serif" font-size="10.00">elc::defs::base::array</text>
<text text-anchor="start" x="158.5" y="-160" font-family="Helvetica,sans-Serif" font-size="10.00">_like_n::array_like_view</text>
<text text-anchor="middle" x="210" y="-149" font-family="Helvetica,sans-Serif" font-size="10.00">_t::end</text>
</a>
</g>
</g>
<!-- Node1&#45;&gt;Node3 -->
<g id="edge2" class="edge">
<title>Node1&#45;&gt;Node3</title>
<path fill="none" stroke="#63b8ff" d="M88.07,-105.59C107.79,-114.87 133.53,-126.98 156.19,-137.65"/>
<polygon fill="#63b8ff" stroke="#63b8ff" points="154.82,-140.87 165.36,-141.96 157.8,-134.54 154.82,-140.87"/>
</g>
<!-- Node4 -->
<g id="node4" class="node">
<title>Node4</title>
<g id="a_node4"><a xlink:href="namespaceelc_1_1defs_1_1base_1_1range__n.html#ace6a3a9d079214ee7bcce5acbef1e07f" target="_top" xlink:title="判断一个值是否在某个范围内">
<polygon fill="white" stroke="#666666" points="265,-105.5 155,-105.5 155,-75.5 265,-75.5 265,-105.5"/>
<text text-anchor="start" x="163" y="-93.5" font-family="Helvetica,sans-Serif" font-size="10.00">elc::defs::base::range</text>
<text text-anchor="middle" x="210" y="-82.5" font-family="Helvetica,sans-Serif" font-size="10.00">_n::in_range</text>
</a>
</g>
</g>
<!-- Node1&#45;&gt;Node4 -->
<g id="edge3" class="edge">
<title>Node1&#45;&gt;Node4</title>
<path fill="none" stroke="#63b8ff" d="M110.37,-90.5C121.42,-90.5 133.14,-90.5 144.5,-90.5"/>
<polygon fill="#63b8ff" stroke="#63b8ff" points="144.8,-94 154.8,-90.5 144.8,-87 144.8,-94"/>
</g>
<!-- Node5 -->
<g id="node5" class="node">
<title>Node5</title>
<g id="a_node5"><a xlink:href="structelc_1_1defs_1_1base_1_1range__n_1_1match__pattern.html#a3a2612a90697ed108398363ac21e5e15" target="_top" xlink:title=" ">
<polygon fill="white" stroke="#666666" points="274,-57.5 146,-57.5 146,-27.5 274,-27.5 274,-57.5"/>
<text text-anchor="start" x="154" y="-45.5" font-family="Helvetica,sans-Serif" font-size="10.00">elc::defs::base::range</text>
<text text-anchor="middle" x="210" y="-34.5" font-family="Helvetica,sans-Serif" font-size="10.00">_n::match_pattern::match</text>
</a>
</g>
</g>
<!-- Node1&#45;&gt;Node5 -->
<g id="edge5" class="edge">
<title>Node1&#45;&gt;Node5</title>
<path fill="none" stroke="#63b8ff" d="M103.99,-75.44C119.09,-70.71 135.91,-65.43 151.59,-60.51"/>
<polygon fill="#63b8ff" stroke="#63b8ff" points="152.69,-63.84 161.18,-57.5 150.59,-57.16 152.69,-63.84"/>
</g>
<!-- Node6 -->
<g id="node6" class="node">
<title>Node6</title>
<g id="a_node6"><a xlink:href="structelc_1_1defs_1_1base_1_1array__like__n_1_1array__like__view__t.html#a117c302e797b7abf98c037211c3a1753" target="_top" xlink:title=" ">
<polygon fill="white" stroke="#666666" points="429,-41 310,-41 310,0 429,0 429,-41"/>
<text text-anchor="start" x="318" y="-29" font-family="Helvetica,sans-Serif" font-size="10.00">elc::defs::base::array</text>
<text text-anchor="start" x="318" y="-18" font-family="Helvetica,sans-Serif" font-size="10.00">_like_n::array_like_view</text>
<text text-anchor="middle" x="369.5" y="-7" font-family="Helvetica,sans-Serif" font-size="10.00">_t::size</text>
</a>
</g>
</g>
<!-- Node1&#45;&gt;Node6 -->
<g id="edge7" class="edge">
<title>Node1&#45;&gt;Node6</title>
<path fill="none" stroke="#63b8ff" d="M68.78,-75.39C84.75,-57.82 113.9,-29.76 146,-18.5 195.31,-1.2 254.63,-2.74 299.62,-8.04"/>
<polygon fill="#63b8ff" stroke="#63b8ff" points="299.21,-11.52 309.57,-9.3 300.09,-4.58 299.21,-11.52"/>
</g>
<!-- Node4&#45;&gt;Node4 -->
<g id="edge4" class="edge">
<title>Node4&#45;&gt;Node4</title>
<path fill="none" stroke="#63b8ff" d="M182.75,-105.78C176.7,-114.91 185.78,-123.5 210,-123.5 224.38,-123.5 233.42,-120.47 237.13,-116.1"/>
<polygon fill="#63b8ff" stroke="#63b8ff" points="240.63,-115.81 237.25,-105.78 233.63,-115.74 240.63,-115.81"/>
</g>
<!-- Node5&#45;&gt;Node6 -->
<g id="edge6" class="edge">
<title>Node5&#45;&gt;Node6</title>
<path fill="none" stroke="#63b8ff" d="M274.15,-33.68C282.64,-32.49 291.38,-31.27 299.96,-30.07"/>
<polygon fill="#63b8ff" stroke="#63b8ff" points="300.51,-33.53 309.93,-28.68 299.54,-26.6 300.51,-33.53"/>
</g>
</g>
</svg>
