<?xml version="1.0" encoding="UTF-8" standalone="no"?>
<!DOCTYPE svg PUBLIC "-//W3C//DTD SVG 1.1//EN"
 "http://www.w3.org/Graphics/SVG/1.1/DTD/svg11.dtd">
<!-- Generated by graphviz version 6.0.1 (20220911.1526)
 -->
<!-- Title: elc::defs::base::magic_number::rotr Pages: 1 -->
<svg width="568pt" height="122pt"
 viewBox="0.00 0.00 568.00 122.00" xmlns="http://www.w3.org/2000/svg" xmlns:xlink="http://www.w3.org/1999/xlink">
<g id="graph0" class="graph" transform="scale(1 1) rotate(0) translate(4 118)">
<title>elc::defs::base::magic_number::rotr</title>
<!-- Node1 -->
<g id="node1" class="node">
<title>Node1</title>
<g id="a_node1"><a xlink:title="位操作：循环右移 不使用std版本而是自己写的原因：std版本右操作数只能是int而不能是size_t或别的，标准会傻逼">
<polygon fill="#999999" stroke="#666666" points="113,-51 0,-51 0,-21 113,-21 113,-51"/>
<text text-anchor="start" x="8" y="-39" font-family="Helvetica,sans-Serif" font-size="10.00">elc::defs::base::magic</text>
<text text-anchor="middle" x="56.5" y="-28" font-family="Helvetica,sans-Serif" font-size="10.00">_number::rotr</text>
</a>
</g>
</g>
<!-- Node2 -->
<g id="node2" class="node">
<title>Node2</title>
<g id="a_node2"><a xlink:href="namespaceelc_1_1defs_1_1base_1_1magic__number.html#a284c0b938dba3f5651066172c49dae2e" target="_top" xlink:title="位操作：循环右移 不使用std版本而是自己写的原因：std版本右操作数只能是int而不能是size_t或别的，标准会傻逼">
<polygon fill="white" stroke="#666666" points="262,-73 149,-73 149,-43 262,-43 262,-73"/>
<text text-anchor="start" x="157" y="-61" font-family="Helvetica,sans-Serif" font-size="10.00">elc::defs::base::magic</text>
<text text-anchor="middle" x="205.5" y="-50" font-family="Helvetica,sans-Serif" font-size="10.00">_number::rotr</text>
</a>
</g>
</g>
<!-- Node1&#45;&gt;Node2 -->
<g id="edge1" class="edge">
<title>Node1&#45;&gt;Node2</title>
<path fill="none" stroke="#63b8ff" d="M113.07,-44.32C121.49,-45.58 130.24,-46.89 138.84,-48.17"/>
<polygon fill="#63b8ff" stroke="#63b8ff" points="138.44,-51.65 148.85,-49.67 139.48,-44.73 138.44,-51.65"/>
</g>
<!-- Node4 -->
<g id="node4" class="node">
<title>Node4</title>
<g id="a_node4"><a xlink:href="namespaceelc_1_1defs_1_1base_1_1magic__number.html#ab09241102ee6f2f318ec7d798966587b" target="_top" xlink:title="位操作：循环右移（无mod） 不使用std版本而是自己写的原因：std版本右操作数只能是int而不能是size_t或别的，标准会傻逼">
<polygon fill="white" stroke="#666666" points="411,-30 298,-30 298,0 411,0 411,-30"/>
<text text-anchor="start" x="306" y="-18" font-family="Helvetica,sans-Serif" font-size="10.00">elc::defs::base::magic</text>
<text text-anchor="middle" x="354.5" y="-7" font-family="Helvetica,sans-Serif" font-size="10.00">_number::rotr_nomod</text>
</a>
</g>
</g>
<!-- Node1&#45;&gt;Node4 -->
<g id="edge10" class="edge">
<title>Node1&#45;&gt;Node4</title>
<path fill="none" stroke="#63b8ff" d="M113.18,-32.05C162.71,-28.54 235.22,-23.39 287.62,-19.67"/>
<polygon fill="#63b8ff" stroke="#63b8ff" points="288.1,-23.15 297.82,-18.95 287.6,-16.17 288.1,-23.15"/>
</g>
<!-- Node2&#45;&gt;Node2 -->
<g id="edge4" class="edge">
<title>Node2&#45;&gt;Node2</title>
<path fill="none" stroke="#63b8ff" d="M179.31,-73.28C173.49,-82.41 182.22,-91 205.5,-91 219.32,-91 228.02,-87.97 231.58,-83.6"/>
<polygon fill="#63b8ff" stroke="#63b8ff" points="235.08,-83.31 231.69,-73.28 228.08,-83.24 235.08,-83.31"/>
</g>
<!-- Node3 -->
<g id="node3" class="node">
<title>Node3</title>
<g id="a_node3"><a xlink:href="namespaceelc_1_1defs_1_1base_1_1magic__number.html#a956a811b7ae70abe75ec93ef4f086e60" target="_top" xlink:title=" ">
<polygon fill="white" stroke="#666666" points="411,-96 298,-96 298,-66 411,-66 411,-96"/>
<text text-anchor="start" x="306" y="-84" font-family="Helvetica,sans-Serif" font-size="10.00">elc::defs::base::magic</text>
<text text-anchor="middle" x="354.5" y="-73" font-family="Helvetica,sans-Serif" font-size="10.00">_number::mod</text>
</a>
</g>
</g>
<!-- Node2&#45;&gt;Node3 -->
<g id="edge2" class="edge">
<title>Node2&#45;&gt;Node3</title>
<path fill="none" stroke="#63b8ff" d="M262.07,-66.7C270.49,-68.01 279.24,-69.38 287.84,-70.73"/>
<polygon fill="#63b8ff" stroke="#63b8ff" points="287.43,-74.2 297.85,-72.29 288.51,-67.29 287.43,-74.2"/>
</g>
<!-- Node2&#45;&gt;Node4 -->
<g id="edge5" class="edge">
<title>Node2&#45;&gt;Node4</title>
<path fill="none" stroke="#63b8ff" d="M257.91,-42.96C268.93,-39.74 280.67,-36.3 292.02,-32.98"/>
<polygon fill="#63b8ff" stroke="#63b8ff" points="293.25,-36.27 301.87,-30.1 291.29,-29.55 293.25,-36.27"/>
</g>
<!-- Node3&#45;&gt;Node3 -->
<g id="edge3" class="edge">
<title>Node3&#45;&gt;Node3</title>
<path fill="none" stroke="#63b8ff" d="M328.31,-96.28C322.49,-105.41 331.22,-114 354.5,-114 368.32,-114 377.02,-110.97 380.58,-106.6"/>
<polygon fill="#63b8ff" stroke="#63b8ff" points="384.08,-106.31 380.69,-96.28 377.08,-106.24 384.08,-106.31"/>
</g>
<!-- Node4&#45;&gt;Node4 -->
<g id="edge9" class="edge">
<title>Node4&#45;&gt;Node4</title>
<path fill="none" stroke="#63b8ff" d="M328.31,-30.28C322.49,-39.41 331.22,-48 354.5,-48 368.32,-48 377.02,-44.97 380.58,-40.6"/>
<polygon fill="#63b8ff" stroke="#63b8ff" points="384.08,-40.31 380.69,-30.28 377.08,-40.24 384.08,-40.31"/>
</g>
<!-- Node5 -->
<g id="node5" class="node">
<title>Node5</title>
<g id="a_node5"><a xlink:href="namespaceelc_1_1defs_1_1base_1_1magic__number.html#aab6ca25a1946f5d1af899e05a59b2c97" target="_top" xlink:title="位操作：循环左移（无mod） 不使用std版本而是自己写的原因：std版本右操作数只能是int而不能是size_t或别的，标准会傻逼">
<polygon fill="white" stroke="#666666" points="560,-30 447,-30 447,0 560,0 560,-30"/>
<text text-anchor="start" x="455" y="-18" font-family="Helvetica,sans-Serif" font-size="10.00">elc::defs::base::magic</text>
<text text-anchor="middle" x="503.5" y="-7" font-family="Helvetica,sans-Serif" font-size="10.00">_number::rotl_nomod</text>
</a>
</g>
</g>
<!-- Node4&#45;&gt;Node5 -->
<g id="edge6" class="edge">
<title>Node4&#45;&gt;Node5</title>
<path fill="none" stroke="#63b8ff" d="M411.07,-8.43C419.49,-8.26 428.24,-8.21 436.84,-8.28"/>
<polygon fill="#63b8ff" stroke="#63b8ff" points="436.8,-11.78 446.85,-8.43 436.9,-4.78 436.8,-11.78"/>
</g>
<!-- Node5&#45;&gt;Node4 -->
<g id="edge8" class="edge">
<title>Node5&#45;&gt;Node4</title>
<path fill="none" stroke="#63b8ff" d="M446.85,-21.57C438.43,-21.74 429.68,-21.79 421.08,-21.72"/>
<polygon fill="#63b8ff" stroke="#63b8ff" points="421.12,-18.22 411.07,-21.57 421.02,-25.21 421.12,-18.22"/>
</g>
<!-- Node5&#45;&gt;Node5 -->
<g id="edge7" class="edge">
<title>Node5&#45;&gt;Node5</title>
<path fill="none" stroke="#63b8ff" d="M477.31,-30.28C471.49,-39.41 480.22,-48 503.5,-48 517.32,-48 526.02,-44.97 529.58,-40.6"/>
<polygon fill="#63b8ff" stroke="#63b8ff" points="533.08,-40.31 529.69,-30.28 526.08,-40.24 533.08,-40.31"/>
</g>
</g>
</svg>
