<?xml version="1.0" encoding="UTF-8" standalone="no"?>
<!DOCTYPE svg PUBLIC "-//W3C//DTD SVG 1.1//EN"
 "http://www.w3.org/Graphics/SVG/1.1/DTD/svg11.dtd">
<!-- Generated by graphviz version 6.0.1 (20220911.1526)
 -->
<!-- Title: elc::defs::base::range_n::find_first_not_of Pages: 1 -->
<svg width="434pt" height="182pt"
 viewBox="0.00 0.00 434.00 182.00" xmlns="http://www.w3.org/2000/svg" xmlns:xlink="http://www.w3.org/1999/xlink">
<g id="graph0" class="graph" transform="scale(1 1) rotate(0) translate(4 178)">
<title>elc::defs::base::range_n::find_first_not_of</title>
<!-- Node1 -->
<g id="node1" class="node">
<title>Node1</title>
<g id="a_node1"><a xlink:title="若成功找到不匹配的数据项，返回其开头，若未找到，返回nullptr">
<polygon fill="#999999" stroke="#666666" points="110,-84 0,-84 0,-54 110,-54 110,-84"/>
<text text-anchor="start" x="8" y="-72" font-family="Helvetica,sans-Serif" font-size="10.00">elc::defs::base::range</text>
<text text-anchor="middle" x="55" y="-61" font-family="Helvetica,sans-Serif" font-size="10.00">_n::find_first_not_of</text>
</a>
</g>
</g>
<!-- Node1&#45;&gt;Node1 -->
<g id="edge5" class="edge">
<title>Node1&#45;&gt;Node1</title>
<path fill="none" stroke="#63b8ff" d="M27.23,-84.28C21.05,-93.41 30.31,-102 55,-102 69.66,-102 78.88,-98.97 82.66,-94.6"/>
<polygon fill="#63b8ff" stroke="#63b8ff" points="86.16,-94.31 82.77,-84.28 79.16,-94.23 86.16,-94.31"/>
</g>
<!-- Node2 -->
<g id="node2" class="node">
<title>Node2</title>
<g id="a_node2"><a xlink:href="namespaceelc_1_1defs_1_1base_1_1range__n.html#a54d8c9784e4d97c7984629d1f0cc0714" target="_top" xlink:title="find_first_not_of的朴素实现 若成功找到不匹配的数据项，返回其开头，若未找到，返回nullptr">
<polygon fill="white" stroke="#666666" points="276.5,-156 149.5,-156 149.5,-126 276.5,-126 276.5,-156"/>
<text text-anchor="start" x="157.5" y="-144" font-family="Helvetica,sans-Serif" font-size="10.00">elc::defs::base::range</text>
<text text-anchor="middle" x="213" y="-133" font-family="Helvetica,sans-Serif" font-size="10.00">_n::base_find_first_not_of</text>
</a>
</g>
</g>
<!-- Node1&#45;&gt;Node2 -->
<g id="edge1" class="edge">
<title>Node1&#45;&gt;Node2</title>
<path fill="none" stroke="#63b8ff" d="M81.9,-84.07C99.62,-94.07 123.84,-107.12 146,-117 150.06,-118.81 154.29,-120.59 158.58,-122.31"/>
<polygon fill="#63b8ff" stroke="#63b8ff" points="157.4,-125.61 167.99,-125.98 159.94,-119.08 157.4,-125.61"/>
</g>
<!-- Node4 -->
<g id="node4" class="node">
<title>Node4</title>
<g id="a_node4"><a xlink:href="namespaceelc_1_1defs_1_1base_1_1range__n.html#a563768bc44c8a53706bb1996bcd89785" target="_top" xlink:title="find_first_not_of的bitmark实现 若成功找到不匹配的数据项，返回其开头，若未找到，返回nullptr">
<polygon fill="white" stroke="#666666" points="268,-89.5 158,-89.5 158,-48.5 268,-48.5 268,-89.5"/>
<text text-anchor="start" x="166" y="-77.5" font-family="Helvetica,sans-Serif" font-size="10.00">elc::defs::base::range</text>
<text text-anchor="start" x="166" y="-66.5" font-family="Helvetica,sans-Serif" font-size="10.00">_n::find_first_not_of</text>
<text text-anchor="middle" x="213" y="-55.5" font-family="Helvetica,sans-Serif" font-size="10.00">_bitmark</text>
</a>
</g>
</g>
<!-- Node1&#45;&gt;Node4 -->
<g id="edge6" class="edge">
<title>Node1&#45;&gt;Node4</title>
<path fill="none" stroke="#63b8ff" d="M110.12,-69C122.22,-69 135.17,-69 147.64,-69"/>
<polygon fill="#63b8ff" stroke="#63b8ff" points="147.97,-72.5 157.97,-69 147.97,-65.5 147.97,-72.5"/>
</g>
<!-- Node5 -->
<g id="node5" class="node">
<title>Node5</title>
<g id="a_node5"><a xlink:href="structelc_1_1defs_1_1base_1_1range__n_1_1bitmark__for__finds.html#aac0eaf6119a2810bc00351cb3c7030e0" target="_top" xlink:title=" ">
<polygon fill="white" stroke="#666666" points="280,-30 146,-30 146,0 280,0 280,-30"/>
<text text-anchor="start" x="154" y="-18" font-family="Helvetica,sans-Serif" font-size="10.00">elc::defs::base::range</text>
<text text-anchor="middle" x="213" y="-7" font-family="Helvetica,sans-Serif" font-size="10.00">_n::bitmark_for_finds::mark</text>
</a>
</g>
</g>
<!-- Node1&#45;&gt;Node5 -->
<g id="edge8" class="edge">
<title>Node1&#45;&gt;Node5</title>
<path fill="none" stroke="#63b8ff" d="M99.45,-53.96C117.89,-47.58 139.55,-40.08 158.91,-33.38"/>
<polygon fill="#63b8ff" stroke="#63b8ff" points="160.2,-36.63 168.51,-30.05 157.91,-30.02 160.2,-36.63"/>
</g>
<!-- Node2&#45;&gt;Node2 -->
<g id="edge2" class="edge">
<title>Node2&#45;&gt;Node2</title>
<path fill="none" stroke="#63b8ff" d="M185.23,-156.28C179.05,-165.41 188.31,-174 213,-174 227.66,-174 236.88,-170.97 240.66,-166.6"/>
<polygon fill="#63b8ff" stroke="#63b8ff" points="244.16,-166.31 240.77,-156.28 237.16,-166.23 244.16,-166.31"/>
</g>
<!-- Node3 -->
<g id="node3" class="node">
<title>Node3</title>
<g id="a_node3"><a xlink:href="namespaceelc_1_1defs_1_1base_1_1range__n.html#ace6a3a9d079214ee7bcce5acbef1e07f" target="_top" xlink:title="判断一个值是否在某个范围内">
<polygon fill="white" stroke="#666666" points="426,-156 316,-156 316,-126 426,-126 426,-156"/>
<text text-anchor="start" x="324" y="-144" font-family="Helvetica,sans-Serif" font-size="10.00">elc::defs::base::range</text>
<text text-anchor="middle" x="371" y="-133" font-family="Helvetica,sans-Serif" font-size="10.00">_n::in_range</text>
</a>
</g>
</g>
<!-- Node2&#45;&gt;Node3 -->
<g id="edge3" class="edge">
<title>Node2&#45;&gt;Node3</title>
<path fill="none" stroke="#63b8ff" d="M276.55,-141C286.14,-141 296.05,-141 305.67,-141"/>
<polygon fill="#63b8ff" stroke="#63b8ff" points="305.98,-144.5 315.98,-141 305.98,-137.5 305.98,-144.5"/>
</g>
<!-- Node3&#45;&gt;Node3 -->
<g id="edge4" class="edge">
<title>Node3&#45;&gt;Node3</title>
<path fill="none" stroke="#63b8ff" d="M343.23,-156.28C337.05,-165.41 346.31,-174 371,-174 385.66,-174 394.88,-170.97 398.66,-166.6"/>
<polygon fill="#63b8ff" stroke="#63b8ff" points="402.16,-166.31 398.77,-156.28 395.16,-166.23 402.16,-166.31"/>
</g>
<!-- Node4&#45;&gt;Node4 -->
<g id="edge7" class="edge">
<title>Node4&#45;&gt;Node4</title>
<path fill="none" stroke="#63b8ff" d="M183.96,-89.6C180.79,-99.15 190.47,-107.5 213,-107.5 227.08,-107.5 236.14,-104.24 240.18,-99.46"/>
<polygon fill="#63b8ff" stroke="#63b8ff" points="243.63,-100.07 242.04,-89.6 236.75,-98.78 243.63,-100.07"/>
</g>
</g>
</svg>
