<?xml version="1.0" encoding="UTF-8" standalone="no"?>
<!DOCTYPE svg PUBLIC "-//W3C//DTD SVG 1.1//EN"
 "http://www.w3.org/Graphics/SVG/1.1/DTD/svg11.dtd">
<!-- Generated by graphviz version 6.0.1 (20220911.1526)
 -->
<!-- Title: elc::defs::base::magic_number::log Pages: 1 -->
<svg width="717pt" height="78pt"
 viewBox="0.00 0.00 717.00 78.00" xmlns="http://www.w3.org/2000/svg" xmlns:xlink="http://www.w3.org/1999/xlink">
<g id="graph0" class="graph" transform="scale(1 1) rotate(0) translate(4 74)">
<title>elc::defs::base::magic_number::log</title>
<!-- Node1 -->
<g id="node1" class="node">
<title>Node1</title>
<g id="a_node1"><a xlink:title=" ">
<polygon fill="#999999" stroke="#666666" points="113,-30 0,-30 0,0 113,0 113,-30"/>
<text text-anchor="start" x="8" y="-18" font-family="Helvetica,sans-Serif" font-size="10.00">elc::defs::base::magic</text>
<text text-anchor="middle" x="56.5" y="-7" font-family="Helvetica,sans-Serif" font-size="10.00">_number::log</text>
</a>
</g>
</g>
<!-- Node2 -->
<g id="node2" class="node">
<title>Node2</title>
<g id="a_node2"><a xlink:href="namespaceelc_1_1defs_1_1base_1_1magic__number.html#a9496a23d74b600104f109a789a837bb6" target="_top" xlink:title=" ">
<polygon fill="white" stroke="#666666" points="262,-30 149,-30 149,0 262,0 262,-30"/>
<text text-anchor="start" x="157" y="-18" font-family="Helvetica,sans-Serif" font-size="10.00">elc::defs::base::magic</text>
<text text-anchor="middle" x="205.5" y="-7" font-family="Helvetica,sans-Serif" font-size="10.00">_number::log</text>
</a>
</g>
</g>
<!-- Node1&#45;&gt;Node2 -->
<g id="edge1" class="edge">
<title>Node1&#45;&gt;Node2</title>
<path fill="none" stroke="#63b8ff" d="M113.07,-15C121.49,-15 130.24,-15 138.84,-15"/>
<polygon fill="#63b8ff" stroke="#63b8ff" points="138.85,-18.5 148.85,-15 138.85,-11.5 138.85,-18.5"/>
</g>
<!-- Node2&#45;&gt;Node2 -->
<g id="edge8" class="edge">
<title>Node2&#45;&gt;Node2</title>
<path fill="none" stroke="#63b8ff" d="M179.31,-30.28C173.49,-39.41 182.22,-48 205.5,-48 219.32,-48 228.02,-44.97 231.58,-40.6"/>
<polygon fill="#63b8ff" stroke="#63b8ff" points="235.08,-40.31 231.69,-30.28 228.08,-40.24 235.08,-40.31"/>
</g>
<!-- Node3 -->
<g id="node3" class="node">
<title>Node3</title>
<g id="a_node3"><a xlink:href="namespaceelc_1_1defs_1_1base_1_1magic__number.html#af617871fb504f70d5e186aa33f6ae187" target="_top" xlink:title=" ">
<polygon fill="white" stroke="#666666" points="411,-52 298,-52 298,-22 411,-22 411,-52"/>
<text text-anchor="start" x="306" y="-40" font-family="Helvetica,sans-Serif" font-size="10.00">elc::defs::base::magic</text>
<text text-anchor="middle" x="354.5" y="-29" font-family="Helvetica,sans-Serif" font-size="10.00">_number::exp</text>
</a>
</g>
</g>
<!-- Node2&#45;&gt;Node3 -->
<g id="edge2" class="edge">
<title>Node2&#45;&gt;Node3</title>
<path fill="none" stroke="#63b8ff" d="M262.07,-23.32C270.49,-24.58 279.24,-25.89 287.84,-27.17"/>
<polygon fill="#63b8ff" stroke="#63b8ff" points="287.44,-30.65 297.85,-28.67 288.48,-23.73 287.44,-30.65"/>
</g>
<!-- Node4 -->
<g id="node4" class="node">
<title>Node4</title>
<g id="a_node4"><a xlink:href="namespaceelc_1_1defs_1_1base_1_1magic__number.html#a30e067e5edbc32b8c5bbc09c1b56d04e" target="_top" xlink:title=" ">
<polygon fill="white" stroke="#666666" points="560,-30 447,-30 447,0 560,0 560,-30"/>
<text text-anchor="start" x="455" y="-18" font-family="Helvetica,sans-Serif" font-size="10.00">elc::defs::base::magic</text>
<text text-anchor="middle" x="503.5" y="-7" font-family="Helvetica,sans-Serif" font-size="10.00">_number::feq</text>
</a>
</g>
</g>
<!-- Node2&#45;&gt;Node4 -->
<g id="edge7" class="edge">
<title>Node2&#45;&gt;Node4</title>
<path fill="none" stroke="#63b8ff" d="M262.14,-13.59C273.98,-13.34 286.4,-13.13 298,-13 348.22,-12.45 360.78,-12.45 411,-13 419.34,-13.09 428.1,-13.23 436.76,-13.39"/>
<polygon fill="#63b8ff" stroke="#63b8ff" points="436.79,-16.89 446.86,-13.59 436.93,-9.89 436.79,-16.89"/>
</g>
<!-- Node3&#45;&gt;Node3 -->
<g id="edge3" class="edge">
<title>Node3&#45;&gt;Node3</title>
<path fill="none" stroke="#63b8ff" d="M328.31,-52.28C322.49,-61.41 331.22,-70 354.5,-70 368.32,-70 377.02,-66.97 380.58,-62.6"/>
<polygon fill="#63b8ff" stroke="#63b8ff" points="384.08,-62.31 380.69,-52.28 377.08,-62.24 384.08,-62.31"/>
</g>
<!-- Node3&#45;&gt;Node4 -->
<g id="edge4" class="edge">
<title>Node3&#45;&gt;Node4</title>
<path fill="none" stroke="#63b8ff" d="M411.07,-28.68C419.49,-27.42 428.24,-26.11 436.84,-24.83"/>
<polygon fill="#63b8ff" stroke="#63b8ff" points="437.48,-28.27 446.85,-23.33 436.44,-21.35 437.48,-28.27"/>
</g>
<!-- Node5 -->
<g id="node5" class="node">
<title>Node5</title>
<g id="a_node5"><a xlink:href="namespaceelc_1_1defs_1_1base_1_1magic__number.html#a5e6964aab515dd4705841ebd5f2aacc7" target="_top" xlink:title=" ">
<polygon fill="white" stroke="#666666" points="709,-30 596,-30 596,0 709,0 709,-30"/>
<text text-anchor="start" x="604" y="-18" font-family="Helvetica,sans-Serif" font-size="10.00">elc::defs::base::magic</text>
<text text-anchor="middle" x="652.5" y="-7" font-family="Helvetica,sans-Serif" font-size="10.00">_number::abs</text>
</a>
</g>
</g>
<!-- Node4&#45;&gt;Node5 -->
<g id="edge5" class="edge">
<title>Node4&#45;&gt;Node5</title>
<path fill="none" stroke="#63b8ff" d="M560.07,-15C568.49,-15 577.24,-15 585.84,-15"/>
<polygon fill="#63b8ff" stroke="#63b8ff" points="585.85,-18.5 595.85,-15 585.85,-11.5 585.85,-18.5"/>
</g>
<!-- Node5&#45;&gt;Node5 -->
<g id="edge6" class="edge">
<title>Node5&#45;&gt;Node5</title>
<path fill="none" stroke="#63b8ff" d="M626.31,-30.28C620.49,-39.41 629.22,-48 652.5,-48 666.32,-48 675.02,-44.97 678.58,-40.6"/>
<polygon fill="#63b8ff" stroke="#63b8ff" points="682.08,-40.31 678.69,-30.28 675.08,-40.24 682.08,-40.31"/>
</g>
</g>
</svg>
