<?xml version="1.0" encoding="UTF-8" standalone="no"?>
<!DOCTYPE svg PUBLIC "-//W3C//DTD SVG 1.1//EN"
 "http://www.w3.org/Graphics/SVG/1.1/DTD/svg11.dtd">
<!-- Generated by graphviz version 6.0.1 (20220911.1526)
 -->
<!-- Title: elc::defs::base::range_n::in_range_size_t Pages: 1 -->
<svg width="419pt" height="124pt"
 viewBox="0.00 0.00 419.00 123.50" xmlns="http://www.w3.org/2000/svg" xmlns:xlink="http://www.w3.org/1999/xlink">
<g id="graph0" class="graph" transform="scale(1 1) rotate(0) translate(4 119.5)">
<title>elc::defs::base::range_n::in_range_size_t</title>
<!-- Node1 -->
<g id="node1" class="node">
<title>Node1</title>
<g id="a_node1"><a xlink:title="若成功找到匹配的数据串，返回其距离开头的步数，若未找到，返回npos">
<polygon fill="#999999" stroke="#666666" points="110,-57 0,-57 0,-27 110,-27 110,-57"/>
<text text-anchor="start" x="8" y="-45" font-family="Helvetica,sans-Serif" font-size="10.00">elc::defs::base::range</text>
<text text-anchor="middle" x="55" y="-34" font-family="Helvetica,sans-Serif" font-size="10.00">_n::in_range_size_t</text>
</a>
</g>
</g>
<!-- Node2 -->
<g id="node2" class="node">
<title>Node2</title>
<g id="a_node2"><a xlink:href="structelc_1_1defs_1_1base_1_1array__like__n_1_1array__like__view__t.html#a613a7a28045bb8efd320108a432ad775" target="_top" xlink:title=" ">
<polygon fill="white" stroke="#666666" points="411,-115.5 292,-115.5 292,-74.5 411,-74.5 411,-115.5"/>
<text text-anchor="start" x="300" y="-103.5" font-family="Helvetica,sans-Serif" font-size="10.00">elc::defs::base::array</text>
<text text-anchor="start" x="300" y="-92.5" font-family="Helvetica,sans-Serif" font-size="10.00">_like_n::array_like_view</text>
<text text-anchor="middle" x="351.5" y="-81.5" font-family="Helvetica,sans-Serif" font-size="10.00">_t::begin</text>
</a>
</g>
</g>
<!-- Node1&#45;&gt;Node2 -->
<g id="edge1" class="edge">
<title>Node1&#45;&gt;Node2</title>
<path fill="none" stroke="#63b8ff" d="M81.41,-57.07C98.92,-66.64 123.08,-78.27 146,-84 190.26,-95.08 241.54,-97.81 281.67,-97.78"/>
<polygon fill="#63b8ff" stroke="#63b8ff" points="281.91,-101.28 291.89,-97.72 281.86,-94.28 281.91,-101.28"/>
</g>
<!-- Node3 -->
<g id="node3" class="node">
<title>Node3</title>
<g id="a_node3"><a xlink:href="namespaceelc_1_1defs_1_1base_1_1range__n.html#ace6a3a9d079214ee7bcce5acbef1e07f" target="_top" xlink:title="判断一个值是否在某个范围内">
<polygon fill="white" stroke="#666666" points="406.5,-30 296.5,-30 296.5,0 406.5,0 406.5,-30"/>
<text text-anchor="start" x="304.5" y="-18" font-family="Helvetica,sans-Serif" font-size="10.00">elc::defs::base::range</text>
<text text-anchor="middle" x="351.5" y="-7" font-family="Helvetica,sans-Serif" font-size="10.00">_n::in_range</text>
</a>
</g>
</g>
<!-- Node1&#45;&gt;Node3 -->
<g id="edge2" class="edge">
<title>Node1&#45;&gt;Node3</title>
<path fill="none" stroke="#63b8ff" d="M103.66,-26.96C117.21,-23.32 132.06,-19.93 146,-18 192.69,-11.53 245.95,-10.97 286.41,-11.92"/>
<polygon fill="#63b8ff" stroke="#63b8ff" points="286.31,-15.42 296.4,-12.19 286.5,-8.42 286.31,-15.42"/>
</g>
<!-- Node4 -->
<g id="node4" class="node">
<title>Node4</title>
<g id="a_node4"><a xlink:href="namespaceelc_1_1defs_1_1base_1_1range__n.html#acffb115b660e87c56a876ccc1ae04c39" target="_top" xlink:title="若成功找到匹配的数据项，返回其距离开头的步数，若未找到，返回npos">
<polygon fill="white" stroke="#666666" points="256,-57 146,-57 146,-27 256,-27 256,-57"/>
<text text-anchor="start" x="154" y="-45" font-family="Helvetica,sans-Serif" font-size="10.00">elc::defs::base::range</text>
<text text-anchor="middle" x="201" y="-34" font-family="Helvetica,sans-Serif" font-size="10.00">_n::in_range_size_t</text>
</a>
</g>
</g>
<!-- Node1&#45;&gt;Node4 -->
<g id="edge4" class="edge">
<title>Node1&#45;&gt;Node4</title>
<path fill="none" stroke="#63b8ff" d="M110.03,-42C118.31,-42 126.94,-42 135.42,-42"/>
<polygon fill="#63b8ff" stroke="#63b8ff" points="135.67,-45.5 145.67,-42 135.67,-38.5 135.67,-45.5"/>
</g>
<!-- Node3&#45;&gt;Node3 -->
<g id="edge3" class="edge">
<title>Node3&#45;&gt;Node3</title>
<path fill="none" stroke="#63b8ff" d="M325.04,-30.28C319.17,-39.41 327.98,-48 351.5,-48 365.46,-48 374.24,-44.97 377.84,-40.6"/>
<polygon fill="#63b8ff" stroke="#63b8ff" points="381.35,-40.31 377.96,-30.28 374.35,-40.24 381.35,-40.31"/>
</g>
<!-- Node4&#45;&gt;Node2 -->
<g id="edge5" class="edge">
<title>Node4&#45;&gt;Node2</title>
<path fill="none" stroke="#63b8ff" d="M244.16,-57.05C256.37,-61.4 270.02,-66.28 283.36,-71.04"/>
<polygon fill="#63b8ff" stroke="#63b8ff" points="282.4,-74.41 292.99,-74.47 284.75,-67.82 282.4,-74.41"/>
</g>
<!-- Node4&#45;&gt;Node3 -->
<g id="edge6" class="edge">
<title>Node4&#45;&gt;Node3</title>
<path fill="none" stroke="#63b8ff" d="M256.03,-32.18C265.86,-30.39 276.2,-28.51 286.28,-26.68"/>
<polygon fill="#63b8ff" stroke="#63b8ff" points="287.05,-30.09 296.26,-24.86 285.79,-23.21 287.05,-30.09"/>
</g>
<!-- Node4&#45;&gt;Node4 -->
<g id="edge7" class="edge">
<title>Node4&#45;&gt;Node4</title>
<path fill="none" stroke="#63b8ff" d="M175.34,-57.28C169.63,-66.41 178.19,-75 201,-75 214.54,-75 223.06,-71.97 226.56,-67.6"/>
<polygon fill="#63b8ff" stroke="#63b8ff" points="230.06,-67.31 226.66,-57.28 223.06,-67.24 230.06,-67.31"/>
</g>
</g>
</svg>
