<?xml version="1.0" encoding="UTF-8" standalone="no"?>
<!DOCTYPE svg PUBLIC "-//W3C//DTD SVG 1.1//EN"
 "http://www.w3.org/Graphics/SVG/1.1/DTD/svg11.dtd">
<!-- Generated by graphviz version 6.0.1 (20220911.1526)
 -->
<!-- Title: elc::defs::base::range_n::in_range_but_reverse_size_t Pages: 1 -->
<svg width="455pt" height="122pt"
 viewBox="0.00 0.00 455.00 121.50" xmlns="http://www.w3.org/2000/svg" xmlns:xlink="http://www.w3.org/1999/xlink">
<g id="graph0" class="graph" transform="scale(1 1) rotate(0) translate(4 117.5)">
<title>elc::defs::base::range_n::in_range_but_reverse_size_t</title>
<!-- Node1 -->
<g id="node1" class="node">
<title>Node1</title>
<g id="a_node1"><a xlink:title=" ">
<polygon fill="#999999" stroke="#666666" points="125,-74 0,-74 0,-33 125,-33 125,-74"/>
<text text-anchor="start" x="8" y="-62" font-family="Helvetica,sans-Serif" font-size="10.00">elc::defs::base::range</text>
<text text-anchor="start" x="8" y="-51" font-family="Helvetica,sans-Serif" font-size="10.00">_n::in_range_but_reverse</text>
<text text-anchor="middle" x="62.5" y="-40" font-family="Helvetica,sans-Serif" font-size="10.00">_size_t</text>
</a>
</g>
</g>
<!-- Node2 -->
<g id="node2" class="node">
<title>Node2</title>
<g id="a_node2"><a xlink:href="namespaceelc_1_1defs_1_1base_1_1range__n.html#a34f1fb9d2924b8dc3249d4a7c0accab6" target="_top" xlink:title="若成功找到匹配的数据项，返回其开头，若未找到，返回nullptr">
<polygon fill="white" stroke="#666666" points="447,-95.5 322,-95.5 322,-65.5 447,-65.5 447,-95.5"/>
<text text-anchor="start" x="330" y="-83.5" font-family="Helvetica,sans-Serif" font-size="10.00">elc::defs::base::range</text>
<text text-anchor="middle" x="384.5" y="-72.5" font-family="Helvetica,sans-Serif" font-size="10.00">_n::in_range_but_reverse</text>
</a>
</g>
</g>
<!-- Node1&#45;&gt;Node2 -->
<g id="edge1" class="edge">
<title>Node1&#45;&gt;Node2</title>
<path fill="none" stroke="#63b8ff" d="M125.04,-63.14C136.95,-64.78 149.35,-66.32 161,-67.5 211.08,-72.55 267.71,-75.82 311.3,-77.82"/>
<polygon fill="#63b8ff" stroke="#63b8ff" points="311.38,-81.33 321.53,-78.28 311.69,-74.34 311.38,-81.33"/>
</g>
<!-- Node3 -->
<g id="node3" class="node">
<title>Node3</title>
<g id="a_node3"><a xlink:href="namespaceelc_1_1defs_1_1base_1_1range__n.html#a75e2fce9974e6518db0bb9380f9c315a" target="_top" xlink:title="若成功找到匹配的数据项，返回其距离开头的步数，若未找到，返回npos">
<polygon fill="white" stroke="#666666" points="286,-41 161,-41 161,0 286,0 286,-41"/>
<text text-anchor="start" x="169" y="-29" font-family="Helvetica,sans-Serif" font-size="10.00">elc::defs::base::range</text>
<text text-anchor="start" x="169" y="-18" font-family="Helvetica,sans-Serif" font-size="10.00">_n::in_range_but_reverse</text>
<text text-anchor="middle" x="223.5" y="-7" font-family="Helvetica,sans-Serif" font-size="10.00">_size_t</text>
</a>
</g>
</g>
<!-- Node1&#45;&gt;Node3 -->
<g id="edge3" class="edge">
<title>Node1&#45;&gt;Node3</title>
<path fill="none" stroke="#63b8ff" d="M125.43,-40.65C133.76,-38.92 142.37,-37.13 150.86,-35.37"/>
<polygon fill="#63b8ff" stroke="#63b8ff" points="151.66,-38.78 160.74,-33.32 150.24,-31.92 151.66,-38.78"/>
</g>
<!-- Node2&#45;&gt;Node2 -->
<g id="edge2" class="edge">
<title>Node2&#45;&gt;Node2</title>
<path fill="none" stroke="#63b8ff" d="M356.2,-95.78C349.91,-104.91 359.34,-113.5 384.5,-113.5 399.44,-113.5 408.83,-110.47 412.68,-106.1"/>
<polygon fill="#63b8ff" stroke="#63b8ff" points="416.18,-105.82 412.8,-95.78 409.18,-105.73 416.18,-105.82"/>
</g>
<!-- Node3&#45;&gt;Node2 -->
<g id="edge5" class="edge">
<title>Node3&#45;&gt;Node2</title>
<path fill="none" stroke="#63b8ff" d="M279.22,-41.15C297.11,-47.9 316.85,-55.35 334.31,-61.94"/>
<polygon fill="#63b8ff" stroke="#63b8ff" points="333.15,-65.24 343.74,-65.5 335.62,-58.69 333.15,-65.24"/>
</g>
<!-- Node3&#45;&gt;Node3 -->
<g id="edge6" class="edge">
<title>Node3&#45;&gt;Node3</title>
<path fill="none" stroke="#63b8ff" d="M193.91,-41.1C190.68,-50.65 200.54,-59 223.5,-59 237.85,-59 247.08,-55.74 251.2,-50.96"/>
<polygon fill="#63b8ff" stroke="#63b8ff" points="254.64,-51.58 253.09,-41.1 247.77,-50.26 254.64,-51.58"/>
</g>
<!-- Node4 -->
<g id="node4" class="node">
<title>Node4</title>
<g id="a_node4"><a xlink:href="structelc_1_1defs_1_1base_1_1array__like__n_1_1array__like__view__t.html#a613a7a28045bb8efd320108a432ad775" target="_top" xlink:title=" ">
<polygon fill="white" stroke="#666666" points="444,-41 325,-41 325,0 444,0 444,-41"/>
<text text-anchor="start" x="333" y="-29" font-family="Helvetica,sans-Serif" font-size="10.00">elc::defs::base::array</text>
<text text-anchor="start" x="333" y="-18" font-family="Helvetica,sans-Serif" font-size="10.00">_like_n::array_like_view</text>
<text text-anchor="middle" x="384.5" y="-7" font-family="Helvetica,sans-Serif" font-size="10.00">_t::begin</text>
</a>
</g>
</g>
<!-- Node3&#45;&gt;Node4 -->
<g id="edge4" class="edge">
<title>Node3&#45;&gt;Node4</title>
<path fill="none" stroke="#63b8ff" d="M286.43,-20.5C295.71,-20.5 305.34,-20.5 314.75,-20.5"/>
<polygon fill="#63b8ff" stroke="#63b8ff" points="314.86,-24 324.86,-20.5 314.86,-17 314.86,-24"/>
</g>
</g>
</svg>
