<?xml version="1.0" encoding="UTF-8" standalone="no"?>
<!DOCTYPE svg PUBLIC "-//W3C//DTD SVG 1.1//EN"
 "http://www.w3.org/Graphics/SVG/1.1/DTD/svg11.dtd">
<!-- Generated by graphviz version 6.0.1 (20220911.1526)
 -->
<!-- Title: elc::defs::base::down_cast Pages: 1 -->
<svg width="299pt" height="146pt"
 viewBox="0.00 0.00 299.00 145.50" xmlns="http://www.w3.org/2000/svg" xmlns:xlink="http://www.w3.org/1999/xlink">
<g id="graph0" class="graph" transform="scale(1 1) rotate(0) translate(4 141.5)">
<title>elc::defs::base::down_cast</title>
<!-- Node1 -->
<g id="node1" class="node">
<title>Node1</title>
<g id="a_node1"><a xlink:title="向下转型至">
<polygon fill="#999999" stroke="#666666" points="291,-84 158,-84 158,-65 291,-65 291,-84"/>
<text text-anchor="middle" x="224.5" y="-72" font-family="Helvetica,sans-Serif" font-size="10.00">elc::defs::base::down_cast</text>
</a>
</g>
</g>
<!-- Node2 -->
<g id="node2" class="node">
<title>Node2</title>
<g id="a_node2"><a xlink:href="structelc_1_1defs_1_1core_1_1common__node.html#a24cfb8da8925898961901f0acec4a12e" target="_top" xlink:title=" ">
<polygon fill="white" stroke="#666666" points="122,-137.5 0,-137.5 0,-107.5 122,-107.5 122,-137.5"/>
<text text-anchor="start" x="8" y="-125.5" font-family="Helvetica,sans-Serif" font-size="10.00">elc::defs::core::common</text>
<text text-anchor="middle" x="61" y="-114.5" font-family="Helvetica,sans-Serif" font-size="10.00">_node::equal_with</text>
</a>
</g>
</g>
<!-- Node1&#45;&gt;Node2 -->
<g id="edge1" class="edge">
<title>Node1&#45;&gt;Node2</title>
<path fill="none" stroke="#63b8ff" d="M181.58,-86.96C160.52,-93.22 134.84,-100.85 112.68,-107.44"/>
<polygon fill="#63b8ff" stroke="#63b8ff" points="182.62,-90.3 191.21,-84.1 180.62,-83.59 182.62,-90.3"/>
</g>
<!-- Node3 -->
<g id="node3" class="node">
<title>Node3</title>
<g id="a_node3"><a xlink:href="structelc_1_1defs_1_1core_1_1cons.html#a3693b54b2d49cb7329868940357be9e3" target="_top" xlink:title=" ">
<polygon fill="white" stroke="#666666" points="113.5,-89.5 8.5,-89.5 8.5,-59.5 113.5,-59.5 113.5,-89.5"/>
<text text-anchor="start" x="16.5" y="-77.5" font-family="Helvetica,sans-Serif" font-size="10.00">elc::defs::core::cons</text>
<text text-anchor="middle" x="61" y="-66.5" font-family="Helvetica,sans-Serif" font-size="10.00">::equal_with</text>
</a>
</g>
</g>
<!-- Node1&#45;&gt;Node3 -->
<g id="edge2" class="edge">
<title>Node1&#45;&gt;Node3</title>
<path fill="none" stroke="#63b8ff" d="M147.76,-74.5C136.25,-74.5 124.61,-74.5 113.77,-74.5"/>
<polygon fill="#63b8ff" stroke="#63b8ff" points="147.81,-78 157.81,-74.5 147.81,-71 147.81,-78"/>
</g>
<!-- Node4 -->
<g id="node4" class="node">
<title>Node4</title>
<g id="a_node4"><a xlink:href="structelc_1_1defs_1_1core_1_1base__binary__function__node.html#a0218a539bda95f3c16d05e79c7490482" target="_top" xlink:title=" ">
<polygon fill="white" stroke="#666666" points="117.5,-41 4.5,-41 4.5,0 117.5,0 117.5,-41"/>
<text text-anchor="start" x="12.5" y="-29" font-family="Helvetica,sans-Serif" font-size="10.00">elc::defs::core::base</text>
<text text-anchor="start" x="12.5" y="-18" font-family="Helvetica,sans-Serif" font-size="10.00">_binary_function_node</text>
<text text-anchor="middle" x="61" y="-7" font-family="Helvetica,sans-Serif" font-size="10.00">::equal_with</text>
</a>
</g>
</g>
<!-- Node1&#45;&gt;Node4 -->
<g id="edge3" class="edge">
<title>Node1&#45;&gt;Node4</title>
<path fill="none" stroke="#63b8ff" d="M185.51,-61.8C165.29,-55.04 140.04,-46.59 117.65,-39.11"/>
<polygon fill="#63b8ff" stroke="#63b8ff" points="184.4,-65.12 195,-64.97 186.62,-58.48 184.4,-65.12"/>
</g>
</g>
</svg>
