<?xml version="1.0" encoding="UTF-8" standalone="no"?>
<!DOCTYPE svg PUBLIC "-//W3C//DTD SVG 1.1//EN"
 "http://www.w3.org/Graphics/SVG/1.1/DTD/svg11.dtd">
<!-- Generated by graphviz version 6.0.1 (20220911.1526)
 -->
<!-- Title: elc::defs::base::range_n::in_range_size_t Pages: 1 -->
<svg width="419pt" height="119pt"
 viewBox="0.00 0.00 419.00 118.50" xmlns="http://www.w3.org/2000/svg" xmlns:xlink="http://www.w3.org/1999/xlink">
<g id="graph0" class="graph" transform="scale(1 1) rotate(0) translate(4 114.5)">
<title>elc::defs::base::range_n::in_range_size_t</title>
<!-- Node1 -->
<g id="node1" class="node">
<title>Node1</title>
<g id="a_node1"><a xlink:title=" ">
<polygon fill="#999999" stroke="#666666" points="110,-65.5 0,-65.5 0,-35.5 110,-35.5 110,-65.5"/>
<text text-anchor="start" x="8" y="-53.5" font-family="Helvetica,sans-Serif" font-size="10.00">elc::defs::base::range</text>
<text text-anchor="middle" x="55" y="-42.5" font-family="Helvetica,sans-Serif" font-size="10.00">_n::in_range_size_t</text>
</a>
</g>
</g>
<!-- Node2 -->
<g id="node2" class="node">
<title>Node2</title>
<g id="a_node2"><a xlink:href="namespaceelc_1_1defs_1_1base_1_1range__n.html#ace6a3a9d079214ee7bcce5acbef1e07f" target="_top" xlink:title="判断一个值是否在某个范围内">
<polygon fill="white" stroke="#666666" points="406.5,-92.5 296.5,-92.5 296.5,-62.5 406.5,-62.5 406.5,-92.5"/>
<text text-anchor="start" x="304.5" y="-80.5" font-family="Helvetica,sans-Serif" font-size="10.00">elc::defs::base::range</text>
<text text-anchor="middle" x="351.5" y="-69.5" font-family="Helvetica,sans-Serif" font-size="10.00">_n::in_range</text>
</a>
</g>
</g>
<!-- Node1&#45;&gt;Node2 -->
<g id="edge1" class="edge">
<title>Node1&#45;&gt;Node2</title>
<path fill="none" stroke="#63b8ff" d="M110.19,-58.26C121.98,-59.79 134.4,-61.3 146,-62.5 192.75,-67.33 245.66,-71.16 285.95,-73.75"/>
<polygon fill="#63b8ff" stroke="#63b8ff" points="285.97,-77.26 296.17,-74.4 286.41,-70.27 285.97,-77.26"/>
</g>
<!-- Node3 -->
<g id="node3" class="node">
<title>Node3</title>
<g id="a_node3"><a xlink:href="namespaceelc_1_1defs_1_1base_1_1range__n.html#acffb115b660e87c56a876ccc1ae04c39" target="_top" xlink:title="若成功找到匹配的数据项，返回其距离开头的步数，若未找到，返回npos">
<polygon fill="white" stroke="#666666" points="256,-35.5 146,-35.5 146,-5.5 256,-5.5 256,-35.5"/>
<text text-anchor="start" x="154" y="-23.5" font-family="Helvetica,sans-Serif" font-size="10.00">elc::defs::base::range</text>
<text text-anchor="middle" x="201" y="-12.5" font-family="Helvetica,sans-Serif" font-size="10.00">_n::in_range_size_t</text>
</a>
</g>
</g>
<!-- Node1&#45;&gt;Node3 -->
<g id="edge3" class="edge">
<title>Node1&#45;&gt;Node3</title>
<path fill="none" stroke="#63b8ff" d="M110.03,-39.24C118.4,-37.5 127.13,-35.68 135.7,-33.9"/>
<polygon fill="#63b8ff" stroke="#63b8ff" points="136.59,-37.29 145.67,-31.82 135.16,-30.43 136.59,-37.29"/>
</g>
<!-- Node2&#45;&gt;Node2 -->
<g id="edge2" class="edge">
<title>Node2&#45;&gt;Node2</title>
<path fill="none" stroke="#63b8ff" d="M325.04,-92.78C319.17,-101.91 327.98,-110.5 351.5,-110.5 365.46,-110.5 374.24,-107.47 377.84,-103.1"/>
<polygon fill="#63b8ff" stroke="#63b8ff" points="381.35,-102.81 377.96,-92.78 374.35,-102.74 381.35,-102.81"/>
</g>
<!-- Node3&#45;&gt;Node2 -->
<g id="edge5" class="edge">
<title>Node3&#45;&gt;Node2</title>
<path fill="none" stroke="#63b8ff" d="M241.41,-35.63C259.94,-42.74 282.22,-51.29 301.8,-58.81"/>
<polygon fill="#63b8ff" stroke="#63b8ff" points="300.58,-62.09 311.17,-62.4 303.09,-55.55 300.58,-62.09"/>
</g>
<!-- Node3&#45;&gt;Node3 -->
<g id="edge6" class="edge">
<title>Node3&#45;&gt;Node3</title>
<path fill="none" stroke="#63b8ff" d="M175.34,-35.78C169.63,-44.91 178.19,-53.5 201,-53.5 214.54,-53.5 223.06,-50.47 226.56,-46.1"/>
<polygon fill="#63b8ff" stroke="#63b8ff" points="230.06,-45.81 226.66,-35.78 223.06,-45.74 230.06,-45.81"/>
</g>
<!-- Node4 -->
<g id="node4" class="node">
<title>Node4</title>
<g id="a_node4"><a xlink:href="structelc_1_1defs_1_1base_1_1array__like__n_1_1array__like__view__t.html#a613a7a28045bb8efd320108a432ad775" target="_top" xlink:title=" ">
<polygon fill="white" stroke="#666666" points="411,-41 292,-41 292,0 411,0 411,-41"/>
<text text-anchor="start" x="300" y="-29" font-family="Helvetica,sans-Serif" font-size="10.00">elc::defs::base::array</text>
<text text-anchor="start" x="300" y="-18" font-family="Helvetica,sans-Serif" font-size="10.00">_like_n::array_like_view</text>
<text text-anchor="middle" x="351.5" y="-7" font-family="Helvetica,sans-Serif" font-size="10.00">_t::begin</text>
</a>
</g>
</g>
<!-- Node3&#45;&gt;Node4 -->
<g id="edge4" class="edge">
<title>Node3&#45;&gt;Node4</title>
<path fill="none" stroke="#63b8ff" d="M256.03,-20.5C264.44,-20.5 273.21,-20.5 281.89,-20.5"/>
<polygon fill="#63b8ff" stroke="#63b8ff" points="282,-24 292,-20.5 282,-17 282,-24"/>
</g>
</g>
</svg>
