<?xml version="1.0" encoding="UTF-8" standalone="no"?>
<!DOCTYPE svg PUBLIC "-//W3C//DTD SVG 1.1//EN"
 "http://www.w3.org/Graphics/SVG/1.1/DTD/svg11.dtd">
<!-- Generated by graphviz version 6.0.1 (20220911.1526)
 -->
<!-- Title: elc::defs::base::range_n::base_find_first_not_of Pages: 1 -->
<svg width="427pt" height="67pt"
 viewBox="0.00 0.00 427.00 67.00" xmlns="http://www.w3.org/2000/svg" xmlns:xlink="http://www.w3.org/1999/xlink">
<g id="graph0" class="graph" transform="scale(1 1) rotate(0) translate(4 63)">
<title>elc::defs::base::range_n::base_find_first_not_of</title>
<!-- Node1 -->
<g id="node1" class="node">
<title>Node1</title>
<g id="a_node1"><a xlink:title="find_first_not_of的朴素实现 若成功找到不匹配的数据项，返回其开头，若未找到，返回nullptr">
<polygon fill="#999999" stroke="#666666" points="419,-35.5 292,-35.5 292,-5.5 419,-5.5 419,-35.5"/>
<text text-anchor="start" x="300" y="-23.5" font-family="Helvetica,sans-Serif" font-size="10.00">elc::defs::base::range</text>
<text text-anchor="middle" x="355.5" y="-12.5" font-family="Helvetica,sans-Serif" font-size="10.00">_n::base_find_first_not_of</text>
</a>
</g>
</g>
<!-- Node1&#45;&gt;Node1 -->
<g id="edge1" class="edge">
<title>Node1&#45;&gt;Node1</title>
<path fill="none" stroke="#63b8ff" d="M382.54,-46.1C378.85,-50.47 369.83,-53.5 355.5,-53.5 331.36,-53.5 322.31,-44.91 328.34,-35.78"/>
<polygon fill="#63b8ff" stroke="#63b8ff" points="386.05,-45.81 382.66,-35.78 379.05,-45.74 386.05,-45.81"/>
</g>
<!-- Node2 -->
<g id="node2" class="node">
<title>Node2</title>
<g id="a_node2"><a xlink:href="namespaceelc_1_1defs_1_1base_1_1range__n.html#ae2dbbd141a649cf04c829ccc6d58f30b" target="_top" xlink:title="若成功找到不匹配的数据项，返回其开头，若未找到，返回nullptr">
<polygon fill="white" stroke="#666666" points="256,-35.5 146,-35.5 146,-5.5 256,-5.5 256,-35.5"/>
<text text-anchor="start" x="154" y="-23.5" font-family="Helvetica,sans-Serif" font-size="10.00">elc::defs::base::range</text>
<text text-anchor="middle" x="201" y="-12.5" font-family="Helvetica,sans-Serif" font-size="10.00">_n::find_first_not_of</text>
</a>
</g>
</g>
<!-- Node1&#45;&gt;Node2 -->
<g id="edge2" class="edge">
<title>Node1&#45;&gt;Node2</title>
<path fill="none" stroke="#63b8ff" d="M281.54,-20.5C272.94,-20.5 264.28,-20.5 256.01,-20.5"/>
<polygon fill="#63b8ff" stroke="#63b8ff" points="281.59,-24 291.59,-20.5 281.59,-17 281.59,-24"/>
</g>
<!-- Node2&#45;&gt;Node2 -->
<g id="edge3" class="edge">
<title>Node2&#45;&gt;Node2</title>
<path fill="none" stroke="#63b8ff" d="M226.56,-46.1C223.06,-50.47 214.54,-53.5 201,-53.5 178.19,-53.5 169.63,-44.91 175.34,-35.78"/>
<polygon fill="#63b8ff" stroke="#63b8ff" points="230.06,-45.81 226.66,-35.78 223.06,-45.74 230.06,-45.81"/>
</g>
<!-- Node3 -->
<g id="node3" class="node">
<title>Node3</title>
<g id="a_node3"><a xlink:href="namespaceelc_1_1defs_1_1base_1_1range__n.html#a1acc3f8449649b44d4ba4adc53be00e7" target="_top" xlink:title="若成功找到不匹配的数据项，返回其距离开头的步数，若未找到，返回npos">
<polygon fill="white" stroke="#666666" points="110,-41 0,-41 0,0 110,0 110,-41"/>
<text text-anchor="start" x="8" y="-29" font-family="Helvetica,sans-Serif" font-size="10.00">elc::defs::base::range</text>
<text text-anchor="start" x="8" y="-18" font-family="Helvetica,sans-Serif" font-size="10.00">_n::find_first_not_of</text>
<text text-anchor="middle" x="55" y="-7" font-family="Helvetica,sans-Serif" font-size="10.00">_size_t</text>
</a>
</g>
</g>
<!-- Node2&#45;&gt;Node3 -->
<g id="edge4" class="edge">
<title>Node2&#45;&gt;Node3</title>
<path fill="none" stroke="#63b8ff" d="M135.73,-20.5C127.25,-20.5 118.62,-20.5 110.33,-20.5"/>
<polygon fill="#63b8ff" stroke="#63b8ff" points="135.97,-24 145.97,-20.5 135.97,-17 135.97,-24"/>
</g>
<!-- Node3&#45;&gt;Node3 -->
<g id="edge5" class="edge">
<title>Node3&#45;&gt;Node3</title>
<path fill="none" stroke="#63b8ff" d="M80.12,-50.96C76.38,-55.74 68.01,-59 55,-59 34.18,-59 25.24,-50.65 28.17,-41.1"/>
<polygon fill="#63b8ff" stroke="#63b8ff" points="83.57,-51.55 81.83,-41.1 76.67,-50.35 83.57,-51.55"/>
</g>
</g>
</svg>
