<?xml version="1.0" encoding="UTF-8" standalone="no"?>
<!DOCTYPE svg PUBLIC "-//W3C//DTD SVG 1.1//EN"
 "http://www.w3.org/Graphics/SVG/1.1/DTD/svg11.dtd">
<!-- Generated by graphviz version 6.0.1 (20220911.1526)
 -->
<!-- Title: elc::defs::core::as_value_nothrow_helper Pages: 1 -->
<svg width="275pt" height="94pt"
 viewBox="0.00 0.00 275.00 93.50" xmlns="http://www.w3.org/2000/svg" xmlns:xlink="http://www.w3.org/1999/xlink">
<g id="graph0" class="graph" transform="scale(1 1) rotate(0) translate(4 89.5)">
<title>elc::defs::core::as_value_nothrow_helper</title>
<!-- Node1 -->
<g id="node1" class="node">
<title>Node1</title>
<g id="a_node1"><a xlink:title=" ">
<polygon fill="#999999" stroke="#666666" points="114,-51 0,-51 0,-21 114,-21 114,-51"/>
<text text-anchor="start" x="8" y="-39" font-family="Helvetica,sans-Serif" font-size="10.00">elc::defs::core::as</text>
<text text-anchor="middle" x="57" y="-28" font-family="Helvetica,sans-Serif" font-size="10.00">_value_nothrow_helper</text>
</a>
</g>
</g>
<!-- Node1&#45;&gt;Node1 -->
<g id="edge3" class="edge">
<title>Node1&#45;&gt;Node1</title>
<path fill="none" stroke="#63b8ff" d="M30.37,-51.28C24.45,-60.41 33.33,-69 57,-69 71.06,-69 79.89,-65.97 83.52,-61.6"/>
<polygon fill="#63b8ff" stroke="#63b8ff" points="87.02,-61.31 83.63,-51.28 80.02,-61.24 87.02,-61.31"/>
</g>
<!-- Node2 -->
<g id="node2" class="node">
<title>Node2</title>
<g id="a_node2"><a xlink:href="namespaceelc_1_1defs_1_1core.html#aa4b6b0e46887c02cd097d74031157c5f" target="_top" xlink:title=" ">
<polygon fill="white" stroke="#666666" points="264,-67.5 153,-67.5 153,-48.5 264,-48.5 264,-67.5"/>
<text text-anchor="middle" x="208.5" y="-55.5" font-family="Helvetica,sans-Serif" font-size="10.00">elc::defs::core::as_ptr</text>
</a>
</g>
</g>
<!-- Node1&#45;&gt;Node2 -->
<g id="edge1" class="edge">
<title>Node1&#45;&gt;Node2</title>
<path fill="none" stroke="#63b8ff" d="M114.09,-44.25C123.34,-45.62 133,-47.04 142.44,-48.43"/>
<polygon fill="#63b8ff" stroke="#63b8ff" points="142.18,-51.93 152.58,-49.92 143.2,-45 142.18,-51.93"/>
</g>
<!-- Node3 -->
<g id="node3" class="node">
<title>Node3</title>
<g id="a_node3"><a xlink:href="namespaceelc_1_1defs_1_1base.html#add5f75cca4bdd8a249b12d840b1ff116" target="_top" xlink:title="对引用移除const">
<polygon fill="white" stroke="#666666" points="267,-30 150,-30 150,0 267,0 267,-30"/>
<text text-anchor="start" x="158" y="-18" font-family="Helvetica,sans-Serif" font-size="10.00">elc::defs::base::remove</text>
<text text-anchor="middle" x="208.5" y="-7" font-family="Helvetica,sans-Serif" font-size="10.00">_const</text>
</a>
</g>
</g>
<!-- Node1&#45;&gt;Node3 -->
<g id="edge4" class="edge">
<title>Node1&#45;&gt;Node3</title>
<path fill="none" stroke="#63b8ff" d="M114.09,-28.12C122.43,-26.95 131.1,-25.73 139.65,-24.53"/>
<polygon fill="#63b8ff" stroke="#63b8ff" points="140.18,-27.99 149.6,-23.13 139.21,-21.06 140.18,-27.99"/>
</g>
<!-- Node2&#45;&gt;Node2 -->
<g id="edge2" class="edge">
<title>Node2&#45;&gt;Node2</title>
<path fill="none" stroke="#63b8ff" d="M185.15,-67.58C173.79,-76.23 181.57,-85.5 208.5,-85.5 226.17,-85.5 235.6,-81.51 236.78,-76.32"/>
<polygon fill="#63b8ff" stroke="#63b8ff" points="239.81,-74.57 231.85,-67.58 233.71,-78.01 239.81,-74.57"/>
</g>
</g>
</svg>
