<?xml version="1.0" encoding="UTF-8" standalone="no"?>
<!DOCTYPE svg PUBLIC "-//W3C//DTD SVG 1.1//EN"
 "http://www.w3.org/Graphics/SVG/1.1/DTD/svg11.dtd">
<!-- Generated by graphviz version 6.0.1 (20220911.1526)
 -->
<!-- Title: elc::defs::core::use_by_ref_as Pages: 1 -->
<svg width="255pt" height="112pt"
 viewBox="0.00 0.00 255.00 111.50" xmlns="http://www.w3.org/2000/svg" xmlns:xlink="http://www.w3.org/1999/xlink">
<g id="graph0" class="graph" transform="scale(1 1) rotate(0) translate(4 107.5)">
<title>elc::defs::core::use_by_ref_as</title>
<!-- Node1 -->
<g id="node1" class="node">
<title>Node1</title>
<g id="a_node1"><a xlink:title=" ">
<polygon fill="#999999" stroke="#666666" points="100,-60 0,-60 0,-30 100,-30 100,-60"/>
<text text-anchor="start" x="8" y="-48" font-family="Helvetica,sans-Serif" font-size="10.00">elc::defs::core::use</text>
<text text-anchor="middle" x="50" y="-37" font-family="Helvetica,sans-Serif" font-size="10.00">_by_ref_as</text>
</a>
</g>
</g>
<!-- Node2 -->
<g id="node2" class="node">
<title>Node2</title>
<g id="a_node2"><a xlink:href="namespaceelc_1_1defs_1_1core.html#aa4b6b0e46887c02cd097d74031157c5f" target="_top" xlink:title=" ">
<polygon fill="white" stroke="#666666" points="247,-85.5 136,-85.5 136,-66.5 247,-66.5 247,-85.5"/>
<text text-anchor="middle" x="191.5" y="-73.5" font-family="Helvetica,sans-Serif" font-size="10.00">elc::defs::core::as_ptr</text>
</a>
</g>
</g>
<!-- Node1&#45;&gt;Node2 -->
<g id="edge1" class="edge">
<title>Node1&#45;&gt;Node2</title>
<path fill="none" stroke="#63b8ff" d="M100.18,-55.93C112.19,-58.6 125.1,-61.47 137.29,-64.18"/>
<polygon fill="#63b8ff" stroke="#63b8ff" points="136.8,-67.65 147.33,-66.41 138.32,-60.82 136.8,-67.65"/>
</g>
<!-- Node3 -->
<g id="node3" class="node">
<title>Node3</title>
<g id="a_node3"><a xlink:href="namespaceelc_1_1defs_1_1core.html#ae4d469531b2676734e863ee8c86375e2" target="_top" xlink:title=" ">
<polygon fill="white" stroke="#666666" points="241.5,-30 141.5,-30 141.5,0 241.5,0 241.5,-30"/>
<text text-anchor="start" x="149.5" y="-18" font-family="Helvetica,sans-Serif" font-size="10.00">elc::defs::core::use</text>
<text text-anchor="middle" x="191.5" y="-7" font-family="Helvetica,sans-Serif" font-size="10.00">_by_ref_as</text>
</a>
</g>
</g>
<!-- Node1&#45;&gt;Node3 -->
<g id="edge3" class="edge">
<title>Node1&#45;&gt;Node3</title>
<path fill="none" stroke="#63b8ff" d="M100.18,-34.42C110.29,-32.25 121.03,-29.94 131.44,-27.7"/>
<polygon fill="#63b8ff" stroke="#63b8ff" points="132.25,-31.11 141.29,-25.58 130.78,-24.26 132.25,-31.11"/>
</g>
<!-- Node2&#45;&gt;Node2 -->
<g id="edge2" class="edge">
<title>Node2&#45;&gt;Node2</title>
<path fill="none" stroke="#63b8ff" d="M169.69,-85.58C159.08,-94.23 166.35,-103.5 191.5,-103.5 207.61,-103.5 216.38,-99.7 217.82,-94.69"/>
<polygon fill="#63b8ff" stroke="#63b8ff" points="220.88,-92.99 213.31,-85.58 214.61,-96.1 220.88,-92.99"/>
</g>
<!-- Node3&#45;&gt;Node3 -->
<g id="edge4" class="edge">
<title>Node3&#45;&gt;Node3</title>
<path fill="none" stroke="#63b8ff" d="M166.63,-30.28C161.1,-39.41 169.39,-48 191.5,-48 204.63,-48 212.88,-44.97 216.27,-40.6"/>
<polygon fill="#63b8ff" stroke="#63b8ff" points="219.77,-40.31 216.37,-30.28 212.77,-40.24 219.77,-40.31"/>
</g>
</g>
</svg>
