<?xml version="1.0" encoding="UTF-8" standalone="no"?>
<!DOCTYPE svg PUBLIC "-//W3C//DTD SVG 1.1//EN"
 "http://www.w3.org/Graphics/SVG/1.1/DTD/svg11.dtd">
<!-- Generated by graphviz version 6.0.1 (20220911.1526)
 -->
<!-- Title: elc::defs::base::array_like_n::begin_of_array_like Pages: 1 -->
<svg width="318pt" height="56pt"
 viewBox="0.00 0.00 318.00 56.00" xmlns="http://www.w3.org/2000/svg" xmlns:xlink="http://www.w3.org/1999/xlink">
<g id="graph0" class="graph" transform="scale(1 1) rotate(0) translate(4 52)">
<title>elc::defs::base::array_like_n::begin_of_array_like</title>
<!-- Node1 -->
<g id="node1" class="node">
<title>Node1</title>
<g id="a_node1"><a xlink:title=" ">
<polygon fill="#999999" stroke="#666666" points="137,-30 0,-30 0,0 137,0 137,-30"/>
<text text-anchor="start" x="8" y="-18" font-family="Helvetica,sans-Serif" font-size="10.00">elc::defs::base::array</text>
<text text-anchor="middle" x="68.5" y="-7" font-family="Helvetica,sans-Serif" font-size="10.00">_like_n::begin_of_array_like</text>
</a>
</g>
</g>
<!-- Node2 -->
<g id="node2" class="node">
<title>Node2</title>
<g id="a_node2"><a xlink:href="namespaceelc_1_1defs_1_1base_1_1array__like__n.html#a2b908be784e9b96dab69759b5cdd057e" target="_top" xlink:title=" ">
<polygon fill="white" stroke="#666666" points="310,-30 173,-30 173,0 310,0 310,-30"/>
<text text-anchor="start" x="181" y="-18" font-family="Helvetica,sans-Serif" font-size="10.00">elc::defs::base::array</text>
<text text-anchor="middle" x="241.5" y="-7" font-family="Helvetica,sans-Serif" font-size="10.00">_like_n::begin_of_array_like</text>
</a>
</g>
</g>
<!-- Node1&#45;&gt;Node2 -->
<g id="edge1" class="edge">
<title>Node1&#45;&gt;Node2</title>
<path fill="none" stroke="#63b8ff" d="M137.08,-15C145.54,-15 154.24,-15 162.83,-15"/>
<polygon fill="#63b8ff" stroke="#63b8ff" points="162.85,-18.5 172.85,-15 162.85,-11.5 162.85,-18.5"/>
</g>
<!-- Node2&#45;&gt;Node2 -->
<g id="edge2" class="edge">
<title>Node2&#45;&gt;Node2</title>
<path fill="none" stroke="#63b8ff" d="M211.09,-30.28C204.33,-39.41 214.47,-48 241.5,-48 257.55,-48 267.64,-44.97 271.78,-40.6"/>
<polygon fill="#63b8ff" stroke="#63b8ff" points="275.29,-40.32 271.91,-30.28 268.29,-40.23 275.29,-40.32"/>
</g>
</g>
</svg>
