<?xml version="1.0" encoding="UTF-8" standalone="no"?>
<!DOCTYPE svg PUBLIC "-//W3C//DTD SVG 1.1//EN"
 "http://www.w3.org/Graphics/SVG/1.1/DTD/svg11.dtd">
<!-- Generated by graphviz version 6.0.1 (20220911.1526)
 -->
<!-- Title: elc::defs::base::range_n::find_first_not_of_size_t Pages: 1 -->
<svg width="589pt" height="182pt"
 viewBox="0.00 0.00 589.00 182.00" xmlns="http://www.w3.org/2000/svg" xmlns:xlink="http://www.w3.org/1999/xlink">
<g id="graph0" class="graph" transform="scale(1 1) rotate(0) translate(4 178)">
<title>elc::defs::base::range_n::find_first_not_of_size_t</title>
<!-- Node1 -->
<g id="node1" class="node">
<title>Node1</title>
<g id="a_node1"><a xlink:title="若成功找到不匹配的数据项，返回其距离开头的步数，若未找到，返回npos">
<polygon fill="#999999" stroke="#666666" points="110,-125.5 0,-125.5 0,-84.5 110,-84.5 110,-125.5"/>
<text text-anchor="start" x="8" y="-113.5" font-family="Helvetica,sans-Serif" font-size="10.00">elc::defs::base::range</text>
<text text-anchor="start" x="8" y="-102.5" font-family="Helvetica,sans-Serif" font-size="10.00">_n::find_first_not_of</text>
<text text-anchor="middle" x="55" y="-91.5" font-family="Helvetica,sans-Serif" font-size="10.00">_size_t</text>
</a>
</g>
</g>
<!-- Node1&#45;&gt;Node1 -->
<g id="edge11" class="edge">
<title>Node1&#45;&gt;Node1</title>
<path fill="none" stroke="#63b8ff" d="M27.34,-125.6C24.32,-135.15 33.54,-143.5 55,-143.5 68.41,-143.5 77.04,-140.24 80.89,-135.46"/>
<polygon fill="#63b8ff" stroke="#63b8ff" points="84.34,-136.06 82.66,-125.6 77.45,-134.82 84.34,-136.06"/>
</g>
<!-- Node2 -->
<g id="node2" class="node">
<title>Node2</title>
<g id="a_node2"><a xlink:href="structelc_1_1defs_1_1base_1_1array__like__n_1_1array__like__view__t.html#a613a7a28045bb8efd320108a432ad775" target="_top" xlink:title=" ">
<polygon fill="white" stroke="#666666" points="265,-161.5 146,-161.5 146,-120.5 265,-120.5 265,-161.5"/>
<text text-anchor="start" x="154" y="-149.5" font-family="Helvetica,sans-Serif" font-size="10.00">elc::defs::base::array</text>
<text text-anchor="start" x="154" y="-138.5" font-family="Helvetica,sans-Serif" font-size="10.00">_like_n::array_like_view</text>
<text text-anchor="middle" x="205.5" y="-127.5" font-family="Helvetica,sans-Serif" font-size="10.00">_t::begin</text>
</a>
</g>
</g>
<!-- Node1&#45;&gt;Node2 -->
<g id="edge1" class="edge">
<title>Node1&#45;&gt;Node2</title>
<path fill="none" stroke="#63b8ff" d="M110.03,-118.1C118.53,-120.16 127.41,-122.31 136.17,-124.44"/>
<polygon fill="#63b8ff" stroke="#63b8ff" points="135.45,-127.86 146,-126.82 137.1,-121.06 135.45,-127.86"/>
</g>
<!-- Node3 -->
<g id="node3" class="node">
<title>Node3</title>
<g id="a_node3"><a xlink:href="namespaceelc_1_1defs_1_1base_1_1range__n.html#ae2dbbd141a649cf04c829ccc6d58f30b" target="_top" xlink:title="若成功找到不匹配的数据项，返回其开头，若未找到，返回nullptr">
<polygon fill="white" stroke="#666666" points="260.5,-84 150.5,-84 150.5,-54 260.5,-54 260.5,-84"/>
<text text-anchor="start" x="158.5" y="-72" font-family="Helvetica,sans-Serif" font-size="10.00">elc::defs::base::range</text>
<text text-anchor="middle" x="205.5" y="-61" font-family="Helvetica,sans-Serif" font-size="10.00">_n::find_first_not_of</text>
</a>
</g>
</g>
<!-- Node1&#45;&gt;Node3 -->
<g id="edge2" class="edge">
<title>Node1&#45;&gt;Node3</title>
<path fill="none" stroke="#63b8ff" d="M110.03,-91.9C119.86,-89.52 130.2,-87.01 140.28,-84.57"/>
<polygon fill="#63b8ff" stroke="#63b8ff" points="141.37,-87.91 150.26,-82.15 139.72,-81.1 141.37,-87.91"/>
</g>
<!-- Node3&#45;&gt;Node3 -->
<g id="edge7" class="edge">
<title>Node3&#45;&gt;Node3</title>
<path fill="none" stroke="#63b8ff" d="M179.04,-84.28C173.17,-93.41 181.98,-102 205.5,-102 219.46,-102 228.24,-98.97 231.84,-94.6"/>
<polygon fill="#63b8ff" stroke="#63b8ff" points="235.35,-94.31 231.96,-84.28 228.35,-94.24 235.35,-94.31"/>
</g>
<!-- Node4 -->
<g id="node4" class="node">
<title>Node4</title>
<g id="a_node4"><a xlink:href="namespaceelc_1_1defs_1_1base_1_1range__n.html#a54d8c9784e4d97c7984629d1f0cc0714" target="_top" xlink:title="find_first_not_of的朴素实现 若成功找到不匹配的数据项，返回其开头，若未找到，返回nullptr">
<polygon fill="white" stroke="#666666" points="431.5,-156 304.5,-156 304.5,-126 431.5,-126 431.5,-156"/>
<text text-anchor="start" x="312.5" y="-144" font-family="Helvetica,sans-Serif" font-size="10.00">elc::defs::base::range</text>
<text text-anchor="middle" x="368" y="-133" font-family="Helvetica,sans-Serif" font-size="10.00">_n::base_find_first_not_of</text>
</a>
</g>
</g>
<!-- Node3&#45;&gt;Node4 -->
<g id="edge3" class="edge">
<title>Node3&#45;&gt;Node4</title>
<path fill="none" stroke="#63b8ff" d="M234.19,-84.19C252.81,-94.11 278.04,-107.04 301,-117 305.14,-118.8 309.46,-120.57 313.82,-122.3"/>
<polygon fill="#63b8ff" stroke="#63b8ff" points="312.8,-125.66 323.39,-125.99 315.32,-119.13 312.8,-125.66"/>
</g>
<!-- Node6 -->
<g id="node6" class="node">
<title>Node6</title>
<g id="a_node6"><a xlink:href="namespaceelc_1_1defs_1_1base_1_1range__n.html#a563768bc44c8a53706bb1996bcd89785" target="_top" xlink:title="find_first_not_of的bitmark实现 若成功找到不匹配的数据项，返回其开头，若未找到，返回nullptr">
<polygon fill="white" stroke="#666666" points="423,-89.5 313,-89.5 313,-48.5 423,-48.5 423,-89.5"/>
<text text-anchor="start" x="321" y="-77.5" font-family="Helvetica,sans-Serif" font-size="10.00">elc::defs::base::range</text>
<text text-anchor="start" x="321" y="-66.5" font-family="Helvetica,sans-Serif" font-size="10.00">_n::find_first_not_of</text>
<text text-anchor="middle" x="368" y="-55.5" font-family="Helvetica,sans-Serif" font-size="10.00">_bitmark</text>
</a>
</g>
</g>
<!-- Node3&#45;&gt;Node6 -->
<g id="edge8" class="edge">
<title>Node3&#45;&gt;Node6</title>
<path fill="none" stroke="#63b8ff" d="M260.84,-69C274.38,-69 289.02,-69 302.97,-69"/>
<polygon fill="#63b8ff" stroke="#63b8ff" points="302.99,-72.5 312.99,-69 302.99,-65.5 302.99,-72.5"/>
</g>
<!-- Node7 -->
<g id="node7" class="node">
<title>Node7</title>
<g id="a_node7"><a xlink:href="structelc_1_1defs_1_1base_1_1range__n_1_1bitmark__for__finds.html#aac0eaf6119a2810bc00351cb3c7030e0" target="_top" xlink:title=" ">
<polygon fill="white" stroke="#666666" points="435,-30 301,-30 301,0 435,0 435,-30"/>
<text text-anchor="start" x="309" y="-18" font-family="Helvetica,sans-Serif" font-size="10.00">elc::defs::base::range</text>
<text text-anchor="middle" x="368" y="-7" font-family="Helvetica,sans-Serif" font-size="10.00">_n::bitmark_for_finds::mark</text>
</a>
</g>
</g>
<!-- Node3&#45;&gt;Node7 -->
<g id="edge10" class="edge">
<title>Node3&#45;&gt;Node7</title>
<path fill="none" stroke="#63b8ff" d="M251.21,-53.96C270.26,-47.55 292.66,-40.01 312.66,-33.28"/>
<polygon fill="#63b8ff" stroke="#63b8ff" points="313.89,-36.56 322.25,-30.05 311.66,-29.93 313.89,-36.56"/>
</g>
<!-- Node4&#45;&gt;Node4 -->
<g id="edge4" class="edge">
<title>Node4&#45;&gt;Node4</title>
<path fill="none" stroke="#63b8ff" d="M340.23,-156.28C334.05,-165.41 343.31,-174 368,-174 382.66,-174 391.88,-170.97 395.66,-166.6"/>
<polygon fill="#63b8ff" stroke="#63b8ff" points="399.16,-166.31 395.77,-156.28 392.16,-166.23 399.16,-166.31"/>
</g>
<!-- Node5 -->
<g id="node5" class="node">
<title>Node5</title>
<g id="a_node5"><a xlink:href="namespaceelc_1_1defs_1_1base_1_1range__n.html#ace6a3a9d079214ee7bcce5acbef1e07f" target="_top" xlink:title="判断一个值是否在某个范围内">
<polygon fill="white" stroke="#666666" points="581,-156 471,-156 471,-126 581,-126 581,-156"/>
<text text-anchor="start" x="479" y="-144" font-family="Helvetica,sans-Serif" font-size="10.00">elc::defs::base::range</text>
<text text-anchor="middle" x="526" y="-133" font-family="Helvetica,sans-Serif" font-size="10.00">_n::in_range</text>
</a>
</g>
</g>
<!-- Node4&#45;&gt;Node5 -->
<g id="edge5" class="edge">
<title>Node4&#45;&gt;Node5</title>
<path fill="none" stroke="#63b8ff" d="M431.55,-141C441.14,-141 451.05,-141 460.67,-141"/>
<polygon fill="#63b8ff" stroke="#63b8ff" points="460.98,-144.5 470.98,-141 460.98,-137.5 460.98,-144.5"/>
</g>
<!-- Node5&#45;&gt;Node5 -->
<g id="edge6" class="edge">
<title>Node5&#45;&gt;Node5</title>
<path fill="none" stroke="#63b8ff" d="M498.23,-156.28C492.05,-165.41 501.31,-174 526,-174 540.66,-174 549.88,-170.97 553.66,-166.6"/>
<polygon fill="#63b8ff" stroke="#63b8ff" points="557.16,-166.31 553.77,-156.28 550.16,-166.23 557.16,-166.31"/>
</g>
<!-- Node6&#45;&gt;Node6 -->
<g id="edge9" class="edge">
<title>Node6&#45;&gt;Node6</title>
<path fill="none" stroke="#63b8ff" d="M338.96,-89.6C335.79,-99.15 345.47,-107.5 368,-107.5 382.08,-107.5 391.14,-104.24 395.18,-99.46"/>
<polygon fill="#63b8ff" stroke="#63b8ff" points="398.63,-100.07 397.04,-89.6 391.75,-98.78 398.63,-100.07"/>
</g>
</g>
</svg>
