<?xml version="1.0" encoding="UTF-8" standalone="no"?>
<!DOCTYPE svg PUBLIC "-//W3C//DTD SVG 1.1//EN"
 "http://www.w3.org/Graphics/SVG/1.1/DTD/svg11.dtd">
<!-- Generated by graphviz version 6.0.1 (20220911.1526)
 -->
<!-- Title: elc::defs::base::range_n::find_first_not_of Pages: 1 -->
<svg width="580pt" height="182pt"
 viewBox="0.00 0.00 580.00 181.50" xmlns="http://www.w3.org/2000/svg" xmlns:xlink="http://www.w3.org/1999/xlink">
<g id="graph0" class="graph" transform="scale(1 1) rotate(0) translate(4 177.5)">
<title>elc::defs::base::range_n::find_first_not_of</title>
<!-- Node1 -->
<g id="node1" class="node">
<title>Node1</title>
<g id="a_node1"><a xlink:title=" ">
<polygon fill="#999999" stroke="#666666" points="110,-70.5 0,-70.5 0,-40.5 110,-40.5 110,-70.5"/>
<text text-anchor="start" x="8" y="-58.5" font-family="Helvetica,sans-Serif" font-size="10.00">elc::defs::base::range</text>
<text text-anchor="middle" x="55" y="-47.5" font-family="Helvetica,sans-Serif" font-size="10.00">_n::find_first_not_of</text>
</a>
</g>
</g>
<!-- Node2 -->
<g id="node2" class="node">
<title>Node2</title>
<g id="a_node2"><a xlink:href="namespaceelc_1_1defs_1_1base_1_1range__n.html#ae2dbbd141a649cf04c829ccc6d58f30b" target="_top" xlink:title="若成功找到不匹配的数据项，返回其开头，若未找到，返回nullptr">
<polygon fill="white" stroke="#666666" points="256,-99.5 146,-99.5 146,-69.5 256,-69.5 256,-99.5"/>
<text text-anchor="start" x="154" y="-87.5" font-family="Helvetica,sans-Serif" font-size="10.00">elc::defs::base::range</text>
<text text-anchor="middle" x="201" y="-76.5" font-family="Helvetica,sans-Serif" font-size="10.00">_n::find_first_not_of</text>
</a>
</g>
</g>
<!-- Node1&#45;&gt;Node2 -->
<g id="edge1" class="edge">
<title>Node1&#45;&gt;Node2</title>
<path fill="none" stroke="#63b8ff" d="M110.03,-66.38C118.4,-68.07 127.13,-69.82 135.7,-71.55"/>
<polygon fill="#63b8ff" stroke="#63b8ff" points="135.17,-75.01 145.67,-73.56 136.56,-68.15 135.17,-75.01"/>
</g>
<!-- Node5 -->
<g id="node5" class="node">
<title>Node5</title>
<g id="a_node5"><a xlink:href="namespaceelc_1_1defs_1_1base_1_1range__n.html#a563768bc44c8a53706bb1996bcd89785" target="_top" xlink:title="find_first_not_of的bitmark实现 若成功找到不匹配的数据项，返回其开头，若未找到，返回nullptr">
<polygon fill="white" stroke="#666666" points="414,-41 304,-41 304,0 414,0 414,-41"/>
<text text-anchor="start" x="312" y="-29" font-family="Helvetica,sans-Serif" font-size="10.00">elc::defs::base::range</text>
<text text-anchor="start" x="312" y="-18" font-family="Helvetica,sans-Serif" font-size="10.00">_n::find_first_not_of</text>
<text text-anchor="middle" x="359" y="-7" font-family="Helvetica,sans-Serif" font-size="10.00">_bitmark</text>
</a>
</g>
</g>
<!-- Node1&#45;&gt;Node5 -->
<g id="edge10" class="edge">
<title>Node1&#45;&gt;Node5</title>
<path fill="none" stroke="#63b8ff" d="M110.34,-49.2C161.79,-43.24 239.07,-34.28 293.6,-27.96"/>
<polygon fill="#63b8ff" stroke="#63b8ff" points="294.31,-31.4 303.84,-26.78 293.51,-24.45 294.31,-31.4"/>
</g>
<!-- Node2&#45;&gt;Node2 -->
<g id="edge6" class="edge">
<title>Node2&#45;&gt;Node2</title>
<path fill="none" stroke="#63b8ff" d="M175.34,-99.78C169.63,-108.91 178.19,-117.5 201,-117.5 214.54,-117.5 223.06,-114.47 226.56,-110.1"/>
<polygon fill="#63b8ff" stroke="#63b8ff" points="230.06,-109.81 226.66,-99.78 223.06,-109.74 230.06,-109.81"/>
</g>
<!-- Node3 -->
<g id="node3" class="node">
<title>Node3</title>
<g id="a_node3"><a xlink:href="namespaceelc_1_1defs_1_1base_1_1range__n.html#a54d8c9784e4d97c7984629d1f0cc0714" target="_top" xlink:title="find_first_not_of的朴素实现 若成功找到不匹配的数据项，返回其开头，若未找到，返回nullptr">
<polygon fill="white" stroke="#666666" points="422.5,-155.5 295.5,-155.5 295.5,-125.5 422.5,-125.5 422.5,-155.5"/>
<text text-anchor="start" x="303.5" y="-143.5" font-family="Helvetica,sans-Serif" font-size="10.00">elc::defs::base::range</text>
<text text-anchor="middle" x="359" y="-132.5" font-family="Helvetica,sans-Serif" font-size="10.00">_n::base_find_first_not_of</text>
</a>
</g>
</g>
<!-- Node2&#45;&gt;Node3 -->
<g id="edge2" class="edge">
<title>Node2&#45;&gt;Node3</title>
<path fill="none" stroke="#63b8ff" d="M243.81,-99.51C263.13,-106.44 286.26,-114.75 306.63,-122.06"/>
<polygon fill="#63b8ff" stroke="#63b8ff" points="305.48,-125.37 316.08,-125.45 307.85,-118.78 305.48,-125.37"/>
</g>
<!-- Node2&#45;&gt;Node5 -->
<g id="edge7" class="edge">
<title>Node2&#45;&gt;Node5</title>
<path fill="none" stroke="#63b8ff" d="M238.58,-69.49C256.38,-62.19 278.24,-53.22 298.37,-44.96"/>
<polygon fill="#63b8ff" stroke="#63b8ff" points="299.85,-48.14 307.78,-41.1 297.2,-41.66 299.85,-48.14"/>
</g>
<!-- Node6 -->
<g id="node6" class="node">
<title>Node6</title>
<g id="a_node6"><a xlink:href="structelc_1_1defs_1_1base_1_1range__n_1_1bitmark__for__finds.html#aac0eaf6119a2810bc00351cb3c7030e0" target="_top" xlink:title=" ">
<polygon fill="white" stroke="#666666" points="426,-107.5 292,-107.5 292,-77.5 426,-77.5 426,-107.5"/>
<text text-anchor="start" x="300" y="-95.5" font-family="Helvetica,sans-Serif" font-size="10.00">elc::defs::base::range</text>
<text text-anchor="middle" x="359" y="-84.5" font-family="Helvetica,sans-Serif" font-size="10.00">_n::bitmark_for_finds::mark</text>
</a>
</g>
</g>
<!-- Node2&#45;&gt;Node6 -->
<g id="edge9" class="edge">
<title>Node2&#45;&gt;Node6</title>
<path fill="none" stroke="#63b8ff" d="M256.12,-87.28C264.41,-87.7 273.09,-88.15 281.75,-88.59"/>
<polygon fill="#63b8ff" stroke="#63b8ff" points="281.7,-92.09 291.87,-89.11 282.06,-85.1 281.7,-92.09"/>
</g>
<!-- Node3&#45;&gt;Node3 -->
<g id="edge3" class="edge">
<title>Node3&#45;&gt;Node3</title>
<path fill="none" stroke="#63b8ff" d="M331.23,-155.78C325.05,-164.91 334.31,-173.5 359,-173.5 373.66,-173.5 382.88,-170.47 386.66,-166.1"/>
<polygon fill="#63b8ff" stroke="#63b8ff" points="390.16,-165.81 386.77,-155.78 383.16,-165.73 390.16,-165.81"/>
</g>
<!-- Node4 -->
<g id="node4" class="node">
<title>Node4</title>
<g id="a_node4"><a xlink:href="namespaceelc_1_1defs_1_1base_1_1range__n.html#ace6a3a9d079214ee7bcce5acbef1e07f" target="_top" xlink:title="判断一个值是否在某个范围内">
<polygon fill="white" stroke="#666666" points="572,-155.5 462,-155.5 462,-125.5 572,-125.5 572,-155.5"/>
<text text-anchor="start" x="470" y="-143.5" font-family="Helvetica,sans-Serif" font-size="10.00">elc::defs::base::range</text>
<text text-anchor="middle" x="517" y="-132.5" font-family="Helvetica,sans-Serif" font-size="10.00">_n::in_range</text>
</a>
</g>
</g>
<!-- Node3&#45;&gt;Node4 -->
<g id="edge4" class="edge">
<title>Node3&#45;&gt;Node4</title>
<path fill="none" stroke="#63b8ff" d="M422.55,-140.5C432.14,-140.5 442.05,-140.5 451.67,-140.5"/>
<polygon fill="#63b8ff" stroke="#63b8ff" points="451.98,-144 461.98,-140.5 451.98,-137 451.98,-144"/>
</g>
<!-- Node4&#45;&gt;Node4 -->
<g id="edge5" class="edge">
<title>Node4&#45;&gt;Node4</title>
<path fill="none" stroke="#63b8ff" d="M489.23,-155.78C483.05,-164.91 492.31,-173.5 517,-173.5 531.66,-173.5 540.88,-170.47 544.66,-166.1"/>
<polygon fill="#63b8ff" stroke="#63b8ff" points="548.16,-165.81 544.77,-155.78 541.16,-165.73 548.16,-165.81"/>
</g>
<!-- Node5&#45;&gt;Node5 -->
<g id="edge8" class="edge">
<title>Node5&#45;&gt;Node5</title>
<path fill="none" stroke="#63b8ff" d="M329.96,-41.1C326.79,-50.65 336.47,-59 359,-59 373.08,-59 382.14,-55.74 386.18,-50.96"/>
<polygon fill="#63b8ff" stroke="#63b8ff" points="389.63,-51.57 388.04,-41.1 382.75,-50.28 389.63,-51.57"/>
</g>
</g>
</svg>
