<?xml version="1.0" encoding="UTF-8" standalone="no"?>
<!DOCTYPE svg PUBLIC "-//W3C//DTD SVG 1.1//EN"
 "http://www.w3.org/Graphics/SVG/1.1/DTD/svg11.dtd">
<!-- Generated by graphviz version 6.0.1 (20220911.1526)
 -->
<!-- Title: elc::defs::memory::get_n::forward_alloc_size_cut Pages: 1 -->
<svg width="275pt" height="67pt"
 viewBox="0.00 0.00 275.00 67.00" xmlns="http://www.w3.org/2000/svg" xmlns:xlink="http://www.w3.org/1999/xlink">
<g id="graph0" class="graph" transform="scale(1 1) rotate(0) translate(4 63)">
<title>elc::defs::memory::get_n::forward_alloc_size_cut</title>
<!-- Node1 -->
<g id="node1" class="node">
<title>Node1</title>
<g id="a_node1"><a xlink:title="向前减小数据块大小并转移原有实例的生命周期，但并不析构旧的实例">
<polygon fill="#999999" stroke="#666666" points="267,-41 164,-41 164,0 267,0 267,-41"/>
<text text-anchor="start" x="172" y="-29" font-family="Helvetica,sans-Serif" font-size="10.00">elc::defs::memory::</text>
<text text-anchor="start" x="172" y="-18" font-family="Helvetica,sans-Serif" font-size="10.00">get_n::forward_alloc</text>
<text text-anchor="middle" x="215.5" y="-7" font-family="Helvetica,sans-Serif" font-size="10.00">_size_cut</text>
</a>
</g>
</g>
<!-- Node1&#45;&gt;Node1 -->
<g id="edge2" class="edge">
<title>Node1&#45;&gt;Node1</title>
<path fill="none" stroke="#63b8ff" d="M241.56,-50.96C237.69,-55.74 229,-59 215.5,-59 193.9,-59 184.62,-50.65 187.66,-41.1"/>
<polygon fill="#63b8ff" stroke="#63b8ff" points="245.01,-51.56 243.34,-41.1 238.12,-50.32 245.01,-51.56"/>
</g>
<!-- Node2 -->
<g id="node2" class="node">
<title>Node2</title>
<g id="a_node2"><a xlink:href="structelc_1_1defs_1_1memory_1_1get__n_1_1get__forward__resize__t.html#a40a2e7a29fed3b08b139b963a72533ff" target="_top" xlink:title=" ">
<polygon fill="white" stroke="#666666" points="128,-41 0,-41 0,0 128,0 128,-41"/>
<text text-anchor="start" x="8" y="-29" font-family="Helvetica,sans-Serif" font-size="10.00">elc::defs::memory::</text>
<text text-anchor="start" x="8" y="-18" font-family="Helvetica,sans-Serif" font-size="10.00">get_n::get_forward_resize</text>
<text text-anchor="middle" x="64" y="-7" font-family="Helvetica,sans-Serif" font-size="10.00">_t::base_call</text>
</a>
</g>
</g>
<!-- Node1&#45;&gt;Node2 -->
<g id="edge1" class="edge">
<title>Node1&#45;&gt;Node2</title>
<path fill="none" stroke="#63b8ff" d="M153.71,-20.5C145.24,-20.5 136.53,-20.5 128.02,-20.5"/>
<polygon fill="#63b8ff" stroke="#63b8ff" points="153.89,-24 163.89,-20.5 153.89,-17 153.89,-24"/>
</g>
</g>
</svg>
