<?xml version="1.0" encoding="UTF-8" standalone="no"?>
<!DOCTYPE svg PUBLIC "-//W3C//DTD SVG 1.1//EN"
 "http://www.w3.org/Graphics/SVG/1.1/DTD/svg11.dtd">
<!-- Generated by graphviz version 6.0.1 (20220911.1526)
 -->
<!-- Title: elc::defs::core::use_by_ref_as Pages: 1 -->
<svg width="244pt" height="56pt"
 viewBox="0.00 0.00 244.00 56.00" xmlns="http://www.w3.org/2000/svg" xmlns:xlink="http://www.w3.org/1999/xlink">
<g id="graph0" class="graph" transform="scale(1 1) rotate(0) translate(4 52)">
<title>elc::defs::core::use_by_ref_as</title>
<!-- Node1 -->
<g id="node1" class="node">
<title>Node1</title>
<g id="a_node1"><a xlink:title=" ">
<polygon fill="#999999" stroke="#666666" points="100,-30 0,-30 0,0 100,0 100,-30"/>
<text text-anchor="start" x="8" y="-18" font-family="Helvetica,sans-Serif" font-size="10.00">elc::defs::core::use</text>
<text text-anchor="middle" x="50" y="-7" font-family="Helvetica,sans-Serif" font-size="10.00">_by_ref_as</text>
</a>
</g>
</g>
<!-- Node2 -->
<g id="node2" class="node">
<title>Node2</title>
<g id="a_node2"><a xlink:href="namespaceelc_1_1defs_1_1core.html#ae4d469531b2676734e863ee8c86375e2" target="_top" xlink:title=" ">
<polygon fill="white" stroke="#666666" points="236,-30 136,-30 136,0 236,0 236,-30"/>
<text text-anchor="start" x="144" y="-18" font-family="Helvetica,sans-Serif" font-size="10.00">elc::defs::core::use</text>
<text text-anchor="middle" x="186" y="-7" font-family="Helvetica,sans-Serif" font-size="10.00">_by_ref_as</text>
</a>
</g>
</g>
<!-- Node1&#45;&gt;Node2 -->
<g id="edge1" class="edge">
<title>Node1&#45;&gt;Node2</title>
<path fill="none" stroke="#63b8ff" d="M100.14,-15C108.42,-15 117.1,-15 125.61,-15"/>
<polygon fill="#63b8ff" stroke="#63b8ff" points="125.87,-18.5 135.87,-15 125.87,-11.5 125.87,-18.5"/>
</g>
<!-- Node2&#45;&gt;Node2 -->
<g id="edge2" class="edge">
<title>Node2&#45;&gt;Node2</title>
<path fill="none" stroke="#63b8ff" d="M162.09,-30.28C156.78,-39.41 164.75,-48 186,-48 198.62,-48 206.55,-44.97 209.81,-40.6"/>
<polygon fill="#63b8ff" stroke="#63b8ff" points="213.31,-40.31 209.91,-30.28 206.31,-40.24 213.31,-40.31"/>
</g>
</g>
</svg>
