<?xml version="1.0" encoding="UTF-8" standalone="no"?>
<!DOCTYPE svg PUBLIC "-//W3C//DTD SVG 1.1//EN"
 "http://www.w3.org/Graphics/SVG/1.1/DTD/svg11.dtd">
<!-- Generated by graphviz version 6.0.1 (20220911.1526)
 -->
<!-- Title: elc::defs::base::magic_number::pow Pages: 1 -->
<svg width="717pt" height="99pt"
 viewBox="0.00 0.00 717.00 99.00" xmlns="http://www.w3.org/2000/svg" xmlns:xlink="http://www.w3.org/1999/xlink">
<g id="graph0" class="graph" transform="scale(1 1) rotate(0) translate(4 95)">
<title>elc::defs::base::magic_number::pow</title>
<!-- Node1 -->
<g id="node1" class="node">
<title>Node1</title>
<g id="a_node1"><a xlink:title=" ">
<polygon fill="#999999" stroke="#666666" points="113,-60 0,-60 0,-30 113,-30 113,-60"/>
<text text-anchor="start" x="8" y="-48" font-family="Helvetica,sans-Serif" font-size="10.00">elc::defs::base::magic</text>
<text text-anchor="middle" x="56.5" y="-37" font-family="Helvetica,sans-Serif" font-size="10.00">_number::pow</text>
</a>
</g>
</g>
<!-- Node1&#45;&gt;Node1 -->
<g id="edge10" class="edge">
<title>Node1&#45;&gt;Node1</title>
<path fill="none" stroke="#63b8ff" d="M30.31,-60.28C24.49,-69.41 33.22,-78 56.5,-78 70.32,-78 79.02,-74.97 82.58,-70.6"/>
<polygon fill="#63b8ff" stroke="#63b8ff" points="86.08,-70.31 82.69,-60.28 79.08,-70.24 86.08,-70.31"/>
</g>
<!-- Node2 -->
<g id="node2" class="node">
<title>Node2</title>
<g id="a_node2"><a xlink:href="namespaceelc_1_1defs_1_1base_1_1magic__number.html#af617871fb504f70d5e186aa33f6ae187" target="_top" xlink:title=" ">
<polygon fill="white" stroke="#666666" points="411,-73 298,-73 298,-43 411,-43 411,-73"/>
<text text-anchor="start" x="306" y="-61" font-family="Helvetica,sans-Serif" font-size="10.00">elc::defs::base::magic</text>
<text text-anchor="middle" x="354.5" y="-50" font-family="Helvetica,sans-Serif" font-size="10.00">_number::exp</text>
</a>
</g>
</g>
<!-- Node1&#45;&gt;Node2 -->
<g id="edge1" class="edge">
<title>Node1&#45;&gt;Node2</title>
<path fill="none" stroke="#63b8ff" d="M113.03,-53.42C124.88,-54.89 137.33,-56.21 149,-57 195.27,-60.13 247.57,-60.33 287.69,-59.77"/>
<polygon fill="#63b8ff" stroke="#63b8ff" points="287.94,-63.27 297.88,-59.61 287.83,-56.27 287.94,-63.27"/>
</g>
<!-- Node5 -->
<g id="node5" class="node">
<title>Node5</title>
<g id="a_node5"><a xlink:href="namespaceelc_1_1defs_1_1base_1_1magic__number.html#a9496a23d74b600104f109a789a837bb6" target="_top" xlink:title=" ">
<polygon fill="white" stroke="#666666" points="262,-30 149,-30 149,0 262,0 262,-30"/>
<text text-anchor="start" x="157" y="-18" font-family="Helvetica,sans-Serif" font-size="10.00">elc::defs::base::magic</text>
<text text-anchor="middle" x="205.5" y="-7" font-family="Helvetica,sans-Serif" font-size="10.00">_number::log</text>
</a>
</g>
</g>
<!-- Node1&#45;&gt;Node5 -->
<g id="edge6" class="edge">
<title>Node1&#45;&gt;Node5</title>
<path fill="none" stroke="#63b8ff" d="M113.07,-33.66C121.49,-31.94 130.24,-30.16 138.84,-28.4"/>
<polygon fill="#63b8ff" stroke="#63b8ff" points="139.75,-31.79 148.85,-26.36 138.35,-24.93 139.75,-31.79"/>
</g>
<!-- Node2&#45;&gt;Node2 -->
<g id="edge2" class="edge">
<title>Node2&#45;&gt;Node2</title>
<path fill="none" stroke="#63b8ff" d="M328.31,-73.28C322.49,-82.41 331.22,-91 354.5,-91 368.32,-91 377.02,-87.97 380.58,-83.6"/>
<polygon fill="#63b8ff" stroke="#63b8ff" points="384.08,-83.31 380.69,-73.28 377.08,-83.24 384.08,-83.31"/>
</g>
<!-- Node3 -->
<g id="node3" class="node">
<title>Node3</title>
<g id="a_node3"><a xlink:href="namespaceelc_1_1defs_1_1base_1_1magic__number.html#a30e067e5edbc32b8c5bbc09c1b56d04e" target="_top" xlink:title=" ">
<polygon fill="white" stroke="#666666" points="560,-51 447,-51 447,-21 560,-21 560,-51"/>
<text text-anchor="start" x="455" y="-39" font-family="Helvetica,sans-Serif" font-size="10.00">elc::defs::base::magic</text>
<text text-anchor="middle" x="503.5" y="-28" font-family="Helvetica,sans-Serif" font-size="10.00">_number::feq</text>
</a>
</g>
</g>
<!-- Node2&#45;&gt;Node3 -->
<g id="edge3" class="edge">
<title>Node2&#45;&gt;Node3</title>
<path fill="none" stroke="#63b8ff" d="M411.07,-49.68C419.49,-48.42 428.24,-47.11 436.84,-45.83"/>
<polygon fill="#63b8ff" stroke="#63b8ff" points="437.48,-49.27 446.85,-44.33 436.44,-42.35 437.48,-49.27"/>
</g>
<!-- Node4 -->
<g id="node4" class="node">
<title>Node4</title>
<g id="a_node4"><a xlink:href="namespaceelc_1_1defs_1_1base_1_1magic__number.html#a5e6964aab515dd4705841ebd5f2aacc7" target="_top" xlink:title=" ">
<polygon fill="white" stroke="#666666" points="709,-51 596,-51 596,-21 709,-21 709,-51"/>
<text text-anchor="start" x="604" y="-39" font-family="Helvetica,sans-Serif" font-size="10.00">elc::defs::base::magic</text>
<text text-anchor="middle" x="652.5" y="-28" font-family="Helvetica,sans-Serif" font-size="10.00">_number::abs</text>
</a>
</g>
</g>
<!-- Node3&#45;&gt;Node4 -->
<g id="edge4" class="edge">
<title>Node3&#45;&gt;Node4</title>
<path fill="none" stroke="#63b8ff" d="M560.07,-36C568.49,-36 577.24,-36 585.84,-36"/>
<polygon fill="#63b8ff" stroke="#63b8ff" points="585.85,-39.5 595.85,-36 585.85,-32.5 585.85,-39.5"/>
</g>
<!-- Node4&#45;&gt;Node4 -->
<g id="edge5" class="edge">
<title>Node4&#45;&gt;Node4</title>
<path fill="none" stroke="#63b8ff" d="M626.31,-51.28C620.49,-60.41 629.22,-69 652.5,-69 666.32,-69 675.02,-65.97 678.58,-61.6"/>
<polygon fill="#63b8ff" stroke="#63b8ff" points="682.08,-61.31 678.69,-51.28 675.08,-61.24 682.08,-61.31"/>
</g>
<!-- Node5&#45;&gt;Node2 -->
<g id="edge7" class="edge">
<title>Node5&#45;&gt;Node2</title>
<path fill="none" stroke="#63b8ff" d="M257.91,-30.04C268.93,-33.26 280.67,-36.7 292.02,-40.02"/>
<polygon fill="#63b8ff" stroke="#63b8ff" points="291.29,-43.45 301.87,-42.9 293.25,-36.73 291.29,-43.45"/>
</g>
<!-- Node5&#45;&gt;Node3 -->
<g id="edge8" class="edge">
<title>Node5&#45;&gt;Node3</title>
<path fill="none" stroke="#63b8ff" d="M262.18,-18.95C311.71,-22.46 384.22,-27.61 436.62,-31.33"/>
<polygon fill="#63b8ff" stroke="#63b8ff" points="436.6,-34.83 446.82,-32.05 437.1,-27.85 436.6,-34.83"/>
</g>
<!-- Node5&#45;&gt;Node5 -->
<g id="edge9" class="edge">
<title>Node5&#45;&gt;Node5</title>
<path fill="none" stroke="#63b8ff" d="M179.31,-30.28C173.49,-39.41 182.22,-48 205.5,-48 219.32,-48 228.02,-44.97 231.58,-40.6"/>
<polygon fill="#63b8ff" stroke="#63b8ff" points="235.08,-40.31 231.69,-30.28 228.08,-40.24 235.08,-40.31"/>
</g>
</g>
</svg>
