<?xml version="1.0" encoding="UTF-8" standalone="no"?>
<!DOCTYPE svg PUBLIC "-//W3C//DTD SVG 1.1//EN"
 "http://www.w3.org/Graphics/SVG/1.1/DTD/svg11.dtd">
<!-- Generated by graphviz version 6.0.1 (20220911.1526)
 -->
<!-- Title: elc::defs::base::range_n::in_range Pages: 1 -->
<svg width="264pt" height="86pt"
 viewBox="0.00 0.00 264.00 86.00" xmlns="http://www.w3.org/2000/svg" xmlns:xlink="http://www.w3.org/1999/xlink">
<g id="graph0" class="graph" transform="scale(1 1) rotate(0) translate(4 82)">
<title>elc::defs::base::range_n::in_range</title>
<!-- Node1 -->
<g id="node1" class="node">
<title>Node1</title>
<g id="a_node1"><a xlink:title="判断一个指针是否在某个byte指针范围内">
<polygon fill="#999999" stroke="#666666" points="110,-54 0,-54 0,-24 110,-24 110,-54"/>
<text text-anchor="start" x="8" y="-42" font-family="Helvetica,sans-Serif" font-size="10.00">elc::defs::base::range</text>
<text text-anchor="middle" x="55" y="-31" font-family="Helvetica,sans-Serif" font-size="10.00">_n::in_range</text>
</a>
</g>
</g>
<!-- Node2 -->
<g id="node2" class="node">
<title>Node2</title>
<g id="a_node2"><a xlink:href="structelc_1_1defs_1_1base_1_1range__n_1_1range__t.html#a881ed169eee49fe798ae99e748a696c3" target="_top" xlink:title=" ">
<polygon fill="white" stroke="#666666" points="256,-78 146,-78 146,-48 256,-48 256,-78"/>
<text text-anchor="start" x="154" y="-66" font-family="Helvetica,sans-Serif" font-size="10.00">elc::defs::base::range</text>
<text text-anchor="middle" x="201" y="-55" font-family="Helvetica,sans-Serif" font-size="10.00">_n::range_t::begin</text>
</a>
</g>
</g>
<!-- Node1&#45;&gt;Node2 -->
<g id="edge1" class="edge">
<title>Node1&#45;&gt;Node2</title>
<path fill="none" stroke="#63b8ff" d="M110.03,-48C118.4,-49.4 127.13,-50.85 135.7,-52.28"/>
<polygon fill="#63b8ff" stroke="#63b8ff" points="135.23,-55.75 145.67,-53.94 136.38,-48.85 135.23,-55.75"/>
</g>
<!-- Node3 -->
<g id="node3" class="node">
<title>Node3</title>
<g id="a_node3"><a xlink:href="structelc_1_1defs_1_1base_1_1range__n_1_1range__t.html#aad2a6a1bf43b7ba883f113f399b96656" target="_top" xlink:title=" ">
<polygon fill="white" stroke="#666666" points="256,-30 146,-30 146,0 256,0 256,-30"/>
<text text-anchor="start" x="154" y="-18" font-family="Helvetica,sans-Serif" font-size="10.00">elc::defs::base::range</text>
<text text-anchor="middle" x="201" y="-7" font-family="Helvetica,sans-Serif" font-size="10.00">_n::range_t::end</text>
</a>
</g>
</g>
<!-- Node1&#45;&gt;Node3 -->
<g id="edge2" class="edge">
<title>Node1&#45;&gt;Node3</title>
<path fill="none" stroke="#63b8ff" d="M110.03,-30C118.4,-28.6 127.13,-27.15 135.7,-25.72"/>
<polygon fill="#63b8ff" stroke="#63b8ff" points="136.38,-29.15 145.67,-24.06 135.23,-22.25 136.38,-29.15"/>
</g>
</g>
</svg>
