<?xml version="1.0" encoding="UTF-8" standalone="no"?>
<!DOCTYPE svg PUBLIC "-//W3C//DTD SVG 1.1//EN"
 "http://www.w3.org/Graphics/SVG/1.1/DTD/svg11.dtd">
<!-- Generated by graphviz version 6.0.1 (20220911.1526)
 -->
<!-- Title: elc::defs::memory::get_n::alloc_size_cut Pages: 1 -->
<svg width="258pt" height="108pt"
 viewBox="0.00 0.00 258.00 108.00" xmlns="http://www.w3.org/2000/svg" xmlns:xlink="http://www.w3.org/1999/xlink">
<g id="graph0" class="graph" transform="scale(1 1) rotate(0) translate(4 104)">
<title>elc::defs::memory::get_n::alloc_size_cut</title>
<!-- Node1 -->
<g id="node1" class="node">
<title>Node1</title>
<g id="a_node1"><a xlink:title="向后减小数据块大小并转移原有实例的生命周期，但并不析构旧的实例">
<polygon fill="#999999" stroke="#666666" points="250,-64.5 141,-64.5 141,-34.5 250,-34.5 250,-64.5"/>
<text text-anchor="start" x="149" y="-52.5" font-family="Helvetica,sans-Serif" font-size="10.00">elc::defs::memory::</text>
<text text-anchor="middle" x="195.5" y="-41.5" font-family="Helvetica,sans-Serif" font-size="10.00">get_n::alloc_size_cut</text>
</a>
</g>
</g>
<!-- Node1&#45;&gt;Node1 -->
<g id="edge1" class="edge">
<title>Node1&#45;&gt;Node1</title>
<path fill="none" stroke="#63b8ff" d="M220.53,-75.1C217.11,-79.47 208.77,-82.5 195.5,-82.5 173.16,-82.5 164.78,-73.91 170.36,-64.78"/>
<polygon fill="#63b8ff" stroke="#63b8ff" points="224.03,-74.81 220.64,-64.78 217.03,-74.74 224.03,-74.81"/>
</g>
<!-- Node2 -->
<g id="node2" class="node">
<title>Node2</title>
<g id="a_node2"><a xlink:href="structelc_1_1defs_1_1memory_1_1get__n_1_1get__resize__t.html#a8d53d8b101c60956d97b008b07e2dd1c" target="_top" xlink:title=" ">
<polygon fill="white" stroke="#666666" points="103,-100 2,-100 2,-59 103,-59 103,-100"/>
<text text-anchor="start" x="10" y="-88" font-family="Helvetica,sans-Serif" font-size="10.00">elc::defs::memory::</text>
<text text-anchor="start" x="10" y="-77" font-family="Helvetica,sans-Serif" font-size="10.00">get_n::get_resize_t</text>
<text text-anchor="middle" x="52.5" y="-66" font-family="Helvetica,sans-Serif" font-size="10.00">::base_call</text>
</a>
</g>
</g>
<!-- Node1&#45;&gt;Node2 -->
<g id="edge2" class="edge">
<title>Node1&#45;&gt;Node2</title>
<path fill="none" stroke="#63b8ff" d="M130.87,-63.04C121.64,-65 112.25,-67 103.35,-68.89"/>
<polygon fill="#63b8ff" stroke="#63b8ff" points="131.74,-66.43 140.79,-60.93 130.28,-59.59 131.74,-66.43"/>
</g>
<!-- Node3 -->
<g id="node3" class="node">
<title>Node3</title>
<g id="a_node3"><a xlink:href="structelc_1_1defs_1_1memory_1_1get__n_1_1get__t_1_1remove__t.html#a02ac4cea3f6cd07eaa90eb1d57bc6ef3" target="_top" xlink:title=" ">
<polygon fill="white" stroke="#666666" points="105,-41 0,-41 0,0 105,0 105,-41"/>
<text text-anchor="start" x="8" y="-29" font-family="Helvetica,sans-Serif" font-size="10.00">elc::defs::memory::</text>
<text text-anchor="start" x="8" y="-18" font-family="Helvetica,sans-Serif" font-size="10.00">get_n::get_t::remove</text>
<text text-anchor="middle" x="52.5" y="-7" font-family="Helvetica,sans-Serif" font-size="10.00">_t::operator()</text>
</a>
</g>
</g>
<!-- Node1&#45;&gt;Node3 -->
<g id="edge3" class="edge">
<title>Node1&#45;&gt;Node3</title>
<path fill="none" stroke="#63b8ff" d="M130.82,-36.4C122.24,-34.64 113.53,-32.85 105.2,-31.13"/>
<polygon fill="#63b8ff" stroke="#63b8ff" points="130.29,-39.87 140.79,-38.45 131.7,-33.01 130.29,-39.87"/>
</g>
</g>
</svg>
