<?xml version="1.0" encoding="UTF-8" standalone="no"?>
<!DOCTYPE svg PUBLIC "-//W3C//DTD SVG 1.1//EN"
 "http://www.w3.org/Graphics/SVG/1.1/DTD/svg11.dtd">
<!-- Generated by graphviz version 6.0.1 (20220911.1526)
 -->
<!-- Title: elc::defs::memory::alloc_n::default_method::base_realloc Pages: 1 -->
<svg width="434pt" height="86pt"
 viewBox="0.00 0.00 434.00 86.00" xmlns="http://www.w3.org/2000/svg" xmlns:xlink="http://www.w3.org/1999/xlink">
<g id="graph0" class="graph" transform="scale(1 1) rotate(0) translate(4 82)">
<title>elc::defs::memory::alloc_n::default_method::base_realloc</title>
<!-- Node1 -->
<g id="node1" class="node">
<title>Node1</title>
<g id="a_node1"><a xlink:title="Reallocates a block of memory.">
<polygon fill="#999999" stroke="#666666" points="119,-59.5 0,-59.5 0,-18.5 119,-18.5 119,-59.5"/>
<text text-anchor="start" x="8" y="-47.5" font-family="Helvetica,sans-Serif" font-size="10.00">elc::defs::memory::</text>
<text text-anchor="start" x="8" y="-36.5" font-family="Helvetica,sans-Serif" font-size="10.00">alloc_n::default_method</text>
<text text-anchor="middle" x="59.5" y="-25.5" font-family="Helvetica,sans-Serif" font-size="10.00">::base_realloc</text>
</a>
</g>
</g>
<!-- Node1&#45;&gt;Node1 -->
<g id="edge1" class="edge">
<title>Node1&#45;&gt;Node1</title>
<path fill="none" stroke="#63b8ff" d="M31.2,-59.6C28.11,-69.15 37.54,-77.5 59.5,-77.5 73.22,-77.5 82.05,-74.24 85.99,-69.46"/>
<polygon fill="#63b8ff" stroke="#63b8ff" points="89.44,-70.06 87.8,-59.6 82.56,-68.8 89.44,-70.06"/>
</g>
<!-- Node2 -->
<g id="node2" class="node">
<title>Node2</title>
<g id="a_node2"><a xlink:href="namespaceelc_1_1_a_p_is_1_1alloc.html#af68837cedb7d0167128e99014d1f836c" target="_top" xlink:title=" ">
<polygon fill="white" stroke="#666666" points="272,-48.5 155,-48.5 155,-29.5 272,-29.5 272,-48.5"/>
<text text-anchor="middle" x="213.5" y="-36.5" font-family="Helvetica,sans-Serif" font-size="10.00">elc::APIs::alloc::realloc</text>
</a>
</g>
</g>
<!-- Node1&#45;&gt;Node2 -->
<g id="edge2" class="edge">
<title>Node1&#45;&gt;Node2</title>
<path fill="none" stroke="#63b8ff" d="M119.27,-39C127.58,-39 136.19,-39 144.66,-39"/>
<polygon fill="#63b8ff" stroke="#63b8ff" points="144.89,-42.5 154.89,-39 144.89,-35.5 144.89,-42.5"/>
</g>
<!-- Node3 -->
<g id="node3" class="node">
<title>Node3</title>
<g id="a_node3"><a xlink:href="structelc_1_1_a_p_is_1_1alloc_1_1source__location__info__t.html#a14576ef17c256c280d8fd991d99114df" target="_top" xlink:title=" ">
<polygon fill="white" stroke="#666666" points="426,-78 308,-78 308,-48 426,-48 426,-78"/>
<text text-anchor="start" x="316" y="-66" font-family="Helvetica,sans-Serif" font-size="10.00">elc::APIs::alloc::source</text>
<text text-anchor="middle" x="367" y="-55" font-family="Helvetica,sans-Serif" font-size="10.00">_location_info_t::file</text>
</a>
</g>
</g>
<!-- Node2&#45;&gt;Node3 -->
<g id="edge3" class="edge">
<title>Node2&#45;&gt;Node3</title>
<path fill="none" stroke="#63b8ff" d="M272.21,-48.14C280.62,-49.47 289.35,-50.86 297.95,-52.22"/>
<polygon fill="#63b8ff" stroke="#63b8ff" points="297.53,-55.7 307.95,-53.8 298.62,-48.78 297.53,-55.7"/>
</g>
<!-- Node4 -->
<g id="node4" class="node">
<title>Node4</title>
<g id="a_node4"><a xlink:href="structelc_1_1_a_p_is_1_1alloc_1_1source__location__info__t.html#aa7ac39eab58162d605f8435d2cdc8d40" target="_top" xlink:title=" ">
<polygon fill="white" stroke="#666666" points="426,-30 308,-30 308,0 426,0 426,-30"/>
<text text-anchor="start" x="316" y="-18" font-family="Helvetica,sans-Serif" font-size="10.00">elc::APIs::alloc::source</text>
<text text-anchor="middle" x="367" y="-7" font-family="Helvetica,sans-Serif" font-size="10.00">_location_info_t::line</text>
</a>
</g>
</g>
<!-- Node2&#45;&gt;Node4 -->
<g id="edge4" class="edge">
<title>Node2&#45;&gt;Node4</title>
<path fill="none" stroke="#63b8ff" d="M272.21,-29.86C280.62,-28.53 289.35,-27.14 297.95,-25.78"/>
<polygon fill="#63b8ff" stroke="#63b8ff" points="298.62,-29.22 307.95,-24.2 297.53,-22.3 298.62,-29.22"/>
</g>
</g>
</svg>
