<?xml version="1.0" encoding="UTF-8" standalone="no"?>
<!DOCTYPE svg PUBLIC "-//W3C//DTD SVG 1.1//EN"
 "http://www.w3.org/Graphics/SVG/1.1/DTD/svg11.dtd">
<!-- Generated by graphviz version 6.0.1 (20220911.1526)
 -->
<!-- Title: elc::defs::base::null_ptr_n::operator== Pages: 1 -->
<svg width="280pt" height="124pt"
 viewBox="0.00 0.00 280.00 123.50" xmlns="http://www.w3.org/2000/svg" xmlns:xlink="http://www.w3.org/1999/xlink">
<g id="graph0" class="graph" transform="scale(1 1) rotate(0) translate(4 119.5)">
<title>elc::defs::base::null_ptr_n::operator==</title>
<!-- Node1 -->
<g id="node1" class="node">
<title>Node1</title>
<g id="a_node1"><a xlink:title=" ">
<polygon fill="#999999" stroke="#666666" points="101,-67.5 0,-67.5 0,-37.5 101,-37.5 101,-67.5"/>
<text text-anchor="start" x="8" y="-55.5" font-family="Helvetica,sans-Serif" font-size="10.00">elc::defs::base::null</text>
<text text-anchor="middle" x="50.5" y="-44.5" font-family="Helvetica,sans-Serif" font-size="10.00">_ptr_n::operator==</text>
</a>
</g>
</g>
<!-- Node2 -->
<g id="node2" class="node">
<title>Node2</title>
<g id="a_node2"><a xlink:href="namespaceelc_1_1defs_1_1base.html#aae9be6874a7dd367db08a9a6e1d65639" target="_top" xlink:title="对值追加const">
<polygon fill="white" stroke="#666666" points="255.5,-115.5 153.5,-115.5 153.5,-85.5 255.5,-85.5 255.5,-115.5"/>
<text text-anchor="start" x="161.5" y="-103.5" font-family="Helvetica,sans-Serif" font-size="10.00">elc::defs::base::add</text>
<text text-anchor="middle" x="204.5" y="-92.5" font-family="Helvetica,sans-Serif" font-size="10.00">_const</text>
</a>
</g>
</g>
<!-- Node1&#45;&gt;Node2 -->
<g id="edge1" class="edge">
<title>Node1&#45;&gt;Node2</title>
<path fill="none" stroke="#63b8ff" d="M99.18,-67.56C114.03,-72.25 130.57,-77.47 146.02,-82.35"/>
<polygon fill="#63b8ff" stroke="#63b8ff" points="145.4,-85.82 155.99,-85.5 147.51,-79.15 145.4,-85.82"/>
</g>
<!-- Node3 -->
<g id="node3" class="node">
<title>Node3</title>
<g id="a_node3"><a xlink:href="structelc_1_1defs_1_1base_1_1null__ptr__n_1_1null__ptr__t.html#a42e9fa47f454f35cc88adb415f530462" target="_top" xlink:title=" ">
<polygon fill="white" stroke="#666666" points="272,-67.5 137,-67.5 137,-37.5 272,-37.5 272,-67.5"/>
<text text-anchor="start" x="145" y="-55.5" font-family="Helvetica,sans-Serif" font-size="10.00">elc::defs::base::null</text>
<text text-anchor="middle" x="204.5" y="-44.5" font-family="Helvetica,sans-Serif" font-size="10.00">_ptr_n::null_ptr_t::base_get</text>
</a>
</g>
</g>
<!-- Node1&#45;&gt;Node3 -->
<g id="edge2" class="edge">
<title>Node1&#45;&gt;Node3</title>
<path fill="none" stroke="#63b8ff" d="M101.27,-52.5C109.42,-52.5 118.03,-52.5 126.66,-52.5"/>
<polygon fill="#63b8ff" stroke="#63b8ff" points="126.76,-56 136.76,-52.5 126.76,-49 126.76,-56"/>
</g>
<!-- Node4 -->
<g id="node4" class="node">
<title>Node4</title>
<g id="a_node4"><a xlink:href="namespaceelc_1_1defs_1_1base.html#ac3fc56d91dfe3e48ff7200d8cb92f610" target="_top" xlink:title=" ">
<polygon fill="white" stroke="#666666" points="271.5,-19 137.5,-19 137.5,0 271.5,0 271.5,-19"/>
<text text-anchor="middle" x="204.5" y="-7" font-family="Helvetica,sans-Serif" font-size="10.00">elc::defs::base::operator==</text>
</a>
</g>
</g>
<!-- Node1&#45;&gt;Node4 -->
<g id="edge3" class="edge">
<title>Node1&#45;&gt;Node4</title>
<path fill="none" stroke="#63b8ff" d="M101.27,-38.42C120.12,-33.09 141.42,-27.06 159.68,-21.9"/>
<polygon fill="#63b8ff" stroke="#63b8ff" points="160.81,-25.21 169.48,-19.12 158.9,-18.48 160.81,-25.21"/>
</g>
</g>
</svg>
