<?xml version="1.0" encoding="UTF-8" standalone="no"?>
<!DOCTYPE svg PUBLIC "-//W3C//DTD SVG 1.1//EN"
 "http://www.w3.org/Graphics/SVG/1.1/DTD/svg11.dtd">
<!-- Generated by graphviz version 6.0.1 (20220911.1526)
 -->
<!-- Title: elc::defs::memory::abstract_base_n::get_ptr_after_off_set Pages: 1 -->
<svg width="403pt" height="67pt"
 viewBox="0.00 0.00 403.00 67.00" xmlns="http://www.w3.org/2000/svg" xmlns:xlink="http://www.w3.org/1999/xlink">
<g id="graph0" class="graph" transform="scale(1 1) rotate(0) translate(4 63)">
<title>elc::defs::memory::abstract_base_n::get_ptr_after_off_set</title>
<!-- Node1 -->
<g id="node1" class="node">
<title>Node1</title>
<g id="a_node1"><a xlink:title=" ">
<polygon fill="#999999" stroke="#666666" points="108,-41 0,-41 0,0 108,0 108,-41"/>
<text text-anchor="start" x="8" y="-29" font-family="Helvetica,sans-Serif" font-size="10.00">elc::defs::memory::</text>
<text text-anchor="start" x="8" y="-18" font-family="Helvetica,sans-Serif" font-size="10.00">abstract_base_n::get</text>
<text text-anchor="middle" x="54" y="-7" font-family="Helvetica,sans-Serif" font-size="10.00">_ptr_after_off_set</text>
</a>
</g>
</g>
<!-- Node1&#45;&gt;Node1 -->
<g id="edge3" class="edge">
<title>Node1&#45;&gt;Node1</title>
<path fill="none" stroke="#63b8ff" d="M27.35,-41.1C24.44,-50.65 33.33,-59 54,-59 66.92,-59 75.24,-55.74 78.95,-50.96"/>
<polygon fill="#63b8ff" stroke="#63b8ff" points="82.4,-51.55 80.65,-41.1 75.5,-50.36 82.4,-51.55"/>
</g>
<!-- Node2 -->
<g id="node2" class="node">
<title>Node2</title>
<g id="a_node2"><a xlink:href="namespaceelc_1_1defs_1_1base.html#abe3691006936be1ed88f8529b52edf33" target="_top" xlink:title="应用偏移">
<polygon fill="white" stroke="#666666" points="254,-35.5 144,-35.5 144,-5.5 254,-5.5 254,-35.5"/>
<text text-anchor="start" x="152" y="-23.5" font-family="Helvetica,sans-Serif" font-size="10.00">elc::defs::base::apply</text>
<text text-anchor="middle" x="199" y="-12.5" font-family="Helvetica,sans-Serif" font-size="10.00">_off_set</text>
</a>
</g>
</g>
<!-- Node1&#45;&gt;Node2 -->
<g id="edge1" class="edge">
<title>Node1&#45;&gt;Node2</title>
<path fill="none" stroke="#63b8ff" d="M108.25,-20.5C116.49,-20.5 125.08,-20.5 133.54,-20.5"/>
<polygon fill="#63b8ff" stroke="#63b8ff" points="133.75,-24 143.75,-20.5 133.75,-17 133.75,-24"/>
</g>
<!-- Node3 -->
<g id="node3" class="node">
<title>Node3</title>
<g id="a_node3"><a xlink:href="namespaceelc_1_1defs_1_1base.html#a51f0e6e825e683bbef6baeb2921de485" target="_top" xlink:title=" ">
<polygon fill="white" stroke="#666666" points="395,-35.5 290,-35.5 290,-5.5 395,-5.5 395,-35.5"/>
<text text-anchor="start" x="298" y="-23.5" font-family="Helvetica,sans-Serif" font-size="10.00">elc::defs::base::cast</text>
<text text-anchor="middle" x="342.5" y="-12.5" font-family="Helvetica,sans-Serif" font-size="10.00">_to_data</text>
</a>
</g>
</g>
<!-- Node2&#45;&gt;Node3 -->
<g id="edge2" class="edge">
<title>Node2&#45;&gt;Node3</title>
<path fill="none" stroke="#63b8ff" d="M254.3,-20.5C262.61,-20.5 271.25,-20.5 279.7,-20.5"/>
<polygon fill="#63b8ff" stroke="#63b8ff" points="279.9,-24 289.9,-20.5 279.9,-17 279.9,-24"/>
</g>
</g>
</svg>
