<?xml version="1.0" encoding="UTF-8" standalone="no"?>
<!DOCTYPE svg PUBLIC "-//W3C//DTD SVG 1.1//EN"
 "http://www.w3.org/Graphics/SVG/1.1/DTD/svg11.dtd">
<!-- Generated by graphviz version 6.0.1 (20220911.1526)
 -->
<!-- Title: elc::defs::base::magic_number::feq Pages: 1 -->
<svg width="753pt" height="180pt"
 viewBox="0.00 0.00 753.00 179.50" xmlns="http://www.w3.org/2000/svg" xmlns:xlink="http://www.w3.org/1999/xlink">
<g id="graph0" class="graph" transform="scale(1 1) rotate(0) translate(4 175.5)">
<title>elc::defs::base::magic_number::feq</title>
<!-- Node1 -->
<g id="node1" class="node">
<title>Node1</title>
<g id="a_node1"><a xlink:title=" ">
<polygon fill="#999999" stroke="#666666" points="745,-91 632,-91 632,-61 745,-61 745,-91"/>
<text text-anchor="start" x="640" y="-79" font-family="Helvetica,sans-Serif" font-size="10.00">elc::defs::base::magic</text>
<text text-anchor="middle" x="688.5" y="-68" font-family="Helvetica,sans-Serif" font-size="10.00">_number::feq</text>
</a>
</g>
</g>
<!-- Node2 -->
<g id="node2" class="node">
<title>Node2</title>
<g id="a_node2"><a xlink:href="namespaceelc_1_1defs_1_1base_1_1magic__number.html#a77e063b37c7eb298dcf3bb43d462265e" target="_top" xlink:title=" ">
<polygon fill="white" stroke="#666666" points="596,-136 483,-136 483,-106 596,-106 596,-136"/>
<text text-anchor="start" x="491" y="-124" font-family="Helvetica,sans-Serif" font-size="10.00">elc::defs::base::magic</text>
<text text-anchor="middle" x="539.5" y="-113" font-family="Helvetica,sans-Serif" font-size="10.00">_number::ceil</text>
</a>
</g>
</g>
<!-- Node1&#45;&gt;Node2 -->
<g id="edge1" class="edge">
<title>Node1&#45;&gt;Node2</title>
<path fill="none" stroke="#63b8ff" d="M628.46,-94.07C615.61,-98.01 602.15,-102.13 589.73,-105.93"/>
<polygon fill="#63b8ff" stroke="#63b8ff" points="629.6,-97.38 638.14,-91.11 627.56,-90.69 629.6,-97.38"/>
</g>
<!-- Node6 -->
<g id="node6" class="node">
<title>Node6</title>
<g id="a_node6"><a xlink:href="namespaceelc_1_1defs_1_1base_1_1magic__number.html#af617871fb504f70d5e186aa33f6ae187" target="_top" xlink:title=" ">
<polygon fill="white" stroke="#666666" points="596,-30 483,-30 483,0 596,0 596,-30"/>
<text text-anchor="start" x="491" y="-18" font-family="Helvetica,sans-Serif" font-size="10.00">elc::defs::base::magic</text>
<text text-anchor="middle" x="539.5" y="-7" font-family="Helvetica,sans-Serif" font-size="10.00">_number::exp</text>
</a>
</g>
</g>
<!-- Node1&#45;&gt;Node6 -->
<g id="edge8" class="edge">
<title>Node1&#45;&gt;Node6</title>
<path fill="none" stroke="#63b8ff" d="M641.81,-57.04C620.84,-48.34 596.33,-38.17 576.67,-30.01"/>
<polygon fill="#63b8ff" stroke="#63b8ff" points="640.59,-60.32 651.16,-60.92 643.27,-53.86 640.59,-60.32"/>
</g>
<!-- Node7 -->
<g id="node7" class="node">
<title>Node7</title>
<g id="a_node7"><a xlink:href="namespaceelc_1_1defs_1_1base_1_1magic__number.html#a9496a23d74b600104f109a789a837bb6" target="_top" xlink:title=" ">
<polygon fill="white" stroke="#666666" points="443,-70 330,-70 330,-40 443,-40 443,-70"/>
<text text-anchor="start" x="338" y="-58" font-family="Helvetica,sans-Serif" font-size="10.00">elc::defs::base::magic</text>
<text text-anchor="middle" x="386.5" y="-47" font-family="Helvetica,sans-Serif" font-size="10.00">_number::log</text>
</a>
</g>
</g>
<!-- Node1&#45;&gt;Node7 -->
<g id="edge15" class="edge">
<title>Node1&#45;&gt;Node7</title>
<path fill="none" stroke="#63b8ff" d="M621.72,-71.4C568.27,-67.65 493.71,-62.43 443.18,-58.9"/>
<polygon fill="#63b8ff" stroke="#63b8ff" points="621.56,-74.89 631.78,-72.1 622.04,-67.91 621.56,-74.89"/>
</g>
<!-- Node2&#45;&gt;Node2 -->
<g id="edge2" class="edge">
<title>Node2&#45;&gt;Node2</title>
<path fill="none" stroke="#63b8ff" d="M565.58,-146.6C562.02,-150.97 553.32,-154 539.5,-154 516.22,-154 507.49,-145.41 513.31,-136.28"/>
<polygon fill="#63b8ff" stroke="#63b8ff" points="569.08,-146.31 565.69,-136.28 562.08,-146.24 569.08,-146.31"/>
</g>
<!-- Node3 -->
<g id="node3" class="node">
<title>Node3</title>
<g id="a_node3"><a xlink:href="namespaceelc_1_1defs_1_1base_1_1magic__number.html#afdc8b347fae01a759b499664eb8fffe5" target="_top" xlink:title="求大于某数的素数">
<polygon fill="white" stroke="#666666" points="290,-153.5 163,-153.5 163,-112.5 290,-112.5 290,-153.5"/>
<text text-anchor="start" x="171" y="-141.5" font-family="Helvetica,sans-Serif" font-size="10.00">elc::defs::base::magic</text>
<text text-anchor="start" x="171" y="-130.5" font-family="Helvetica,sans-Serif" font-size="10.00">_number::get_prime_num</text>
<text text-anchor="middle" x="226.5" y="-119.5" font-family="Helvetica,sans-Serif" font-size="10.00">_big_or_eq_than</text>
</a>
</g>
</g>
<!-- Node2&#45;&gt;Node3 -->
<g id="edge3" class="edge">
<title>Node2&#45;&gt;Node3</title>
<path fill="none" stroke="#63b8ff" d="M480.55,-138.58C469.51,-141.25 457.97,-143.58 447,-145 394.39,-151.79 334.2,-147.66 290.17,-142.48"/>
<polygon fill="#63b8ff" stroke="#63b8ff" points="481.69,-141.91 490.52,-136.05 479.97,-135.12 481.69,-141.91"/>
</g>
<!-- Node5 -->
<g id="node5" class="node">
<title>Node5</title>
<g id="a_node5"><a xlink:href="namespaceelc_1_1defs_1_1base_1_1magic__number.html#abe10e28dd1b440665a49ca358a141e0d" target="_top" xlink:title=" ">
<polygon fill="white" stroke="#666666" points="447,-136 326,-136 326,-106 447,-106 447,-136"/>
<text text-anchor="start" x="334" y="-124" font-family="Helvetica,sans-Serif" font-size="10.00">elc::defs::base::magic</text>
<text text-anchor="middle" x="386.5" y="-113" font-family="Helvetica,sans-Serif" font-size="10.00">_number::is_prime_num</text>
</a>
</g>
</g>
<!-- Node2&#45;&gt;Node5 -->
<g id="edge6" class="edge">
<title>Node2&#45;&gt;Node5</title>
<path fill="none" stroke="#63b8ff" d="M472.51,-121C464.07,-121 455.46,-121 447.12,-121"/>
<polygon fill="#63b8ff" stroke="#63b8ff" points="472.7,-124.5 482.7,-121 472.7,-117.5 472.7,-124.5"/>
</g>
<!-- Node4 -->
<g id="node4" class="node">
<title>Node4</title>
<g id="a_node4"><a xlink:href="namespaceelc_1_1defs_1_1base_1_1magic__number.html#a5a0615480539fa32fb57f797cab6b87e" target="_top" xlink:title="已知当前hash table的size，求下一个合适的桶大小">
<polygon fill="white" stroke="#666666" points="127,-153.5 0,-153.5 0,-112.5 127,-112.5 127,-153.5"/>
<text text-anchor="start" x="8" y="-141.5" font-family="Helvetica,sans-Serif" font-size="10.00">elc::defs::base::magic</text>
<text text-anchor="start" x="8" y="-130.5" font-family="Helvetica,sans-Serif" font-size="10.00">_number::get_next_gold</text>
<text text-anchor="middle" x="63.5" y="-119.5" font-family="Helvetica,sans-Serif" font-size="10.00">_size_to_resize_for_hash</text>
</a>
</g>
</g>
<!-- Node3&#45;&gt;Node4 -->
<g id="edge4" class="edge">
<title>Node3&#45;&gt;Node4</title>
<path fill="none" stroke="#63b8ff" d="M152.78,-133C144.19,-133 135.47,-133 127.04,-133"/>
<polygon fill="#63b8ff" stroke="#63b8ff" points="152.79,-136.5 162.79,-133 152.79,-129.5 152.79,-136.5"/>
</g>
<!-- Node4&#45;&gt;Node4 -->
<g id="edge5" class="edge">
<title>Node4&#45;&gt;Node4</title>
<path fill="none" stroke="#63b8ff" d="M91.54,-163.46C87.37,-168.24 78.03,-171.5 63.5,-171.5 40.26,-171.5 30.27,-163.15 33.54,-153.6"/>
<polygon fill="#63b8ff" stroke="#63b8ff" points="94.99,-164.08 93.46,-153.6 88.12,-162.75 94.99,-164.08"/>
</g>
<!-- Node5&#45;&gt;Node3 -->
<g id="edge7" class="edge">
<title>Node5&#45;&gt;Node3</title>
<path fill="none" stroke="#63b8ff" d="M315.57,-126.31C307.12,-126.95 298.54,-127.6 290.21,-128.24"/>
<polygon fill="#63b8ff" stroke="#63b8ff" points="316.06,-129.78 325.77,-125.54 315.53,-122.8 316.06,-129.78"/>
</g>
<!-- Node6&#45;&gt;Node6 -->
<g id="edge9" class="edge">
<title>Node6&#45;&gt;Node6</title>
<path fill="none" stroke="#63b8ff" d="M565.58,-40.6C562.02,-44.97 553.32,-48 539.5,-48 516.22,-48 507.49,-39.41 513.31,-30.28"/>
<polygon fill="#63b8ff" stroke="#63b8ff" points="569.08,-40.31 565.69,-30.28 562.08,-40.24 569.08,-40.31"/>
</g>
<!-- Node6&#45;&gt;Node7 -->
<g id="edge10" class="edge">
<title>Node6&#45;&gt;Node7</title>
<path fill="none" stroke="#63b8ff" d="M472.87,-32.39C462.93,-35.02 452.76,-37.71 443.07,-40.28"/>
<polygon fill="#63b8ff" stroke="#63b8ff" points="473.93,-35.72 482.7,-29.78 472.14,-28.96 473.93,-35.72"/>
</g>
<!-- Node8 -->
<g id="node8" class="node">
<title>Node8</title>
<g id="a_node8"><a xlink:href="namespaceelc_1_1defs_1_1base_1_1magic__number.html#a4e85faf4c3b39c3c8246f799eca1d941" target="_top" xlink:title=" ">
<polygon fill="white" stroke="#666666" points="283,-58 170,-58 170,-28 283,-28 283,-58"/>
<text text-anchor="start" x="178" y="-46" font-family="Helvetica,sans-Serif" font-size="10.00">elc::defs::base::magic</text>
<text text-anchor="middle" x="226.5" y="-35" font-family="Helvetica,sans-Serif" font-size="10.00">_number::pow</text>
</a>
</g>
</g>
<!-- Node6&#45;&gt;Node8 -->
<g id="edge14" class="edge">
<title>Node6&#45;&gt;Node8</title>
<path fill="none" stroke="#63b8ff" d="M472.85,-19.16C430.82,-22.02 375.15,-26.16 326,-31 312.11,-32.37 297.15,-34.07 283.19,-35.76"/>
<polygon fill="#63b8ff" stroke="#63b8ff" points="473.22,-22.64 482.96,-18.48 472.75,-15.66 473.22,-22.64"/>
</g>
<!-- Node7&#45;&gt;Node7 -->
<g id="edge11" class="edge">
<title>Node7&#45;&gt;Node7</title>
<path fill="none" stroke="#63b8ff" d="M413.28,-80.6C409.62,-84.97 400.69,-88 386.5,-88 362.59,-88 353.63,-79.41 359.61,-70.28"/>
<polygon fill="#63b8ff" stroke="#63b8ff" points="416.78,-80.31 413.39,-70.28 409.78,-80.24 416.78,-80.31"/>
</g>
<!-- Node7&#45;&gt;Node8 -->
<g id="edge12" class="edge">
<title>Node7&#45;&gt;Node8</title>
<path fill="none" stroke="#63b8ff" d="M319.73,-50C307.6,-49.08 295.04,-48.13 283.23,-47.23"/>
<polygon fill="#63b8ff" stroke="#63b8ff" points="319.56,-53.5 329.8,-50.77 320.09,-46.52 319.56,-53.5"/>
</g>
<!-- Node8&#45;&gt;Node8 -->
<g id="edge13" class="edge">
<title>Node8&#45;&gt;Node8</title>
<path fill="none" stroke="#63b8ff" d="M254.51,-68.6C250.68,-72.97 241.34,-76 226.5,-76 201.5,-76 192.12,-67.41 198.38,-58.28"/>
<polygon fill="#63b8ff" stroke="#63b8ff" points="258.01,-68.32 254.62,-58.28 251.01,-68.23 258.01,-68.32"/>
</g>
</g>
</svg>
