<?xml version="1.0" encoding="UTF-8" standalone="no"?>
<!DOCTYPE svg PUBLIC "-//W3C//DTD SVG 1.1//EN"
 "http://www.w3.org/Graphics/SVG/1.1/DTD/svg11.dtd">
<!-- Generated by graphviz version 6.0.1 (20220911.1526)
 -->
<!-- Title: elc::defs::memory::alloc_n::default_method::get_size_of_alloc_method Pages: 1 -->
<svg width="441pt" height="116pt"
 viewBox="0.00 0.00 441.00 115.50" xmlns="http://www.w3.org/2000/svg" xmlns:xlink="http://www.w3.org/1999/xlink">
<g id="graph0" class="graph" transform="scale(1 1) rotate(0) translate(4 111.5)">
<title>elc::defs::memory::alloc_n::default_method::get_size_of_alloc_method</title>
<!-- Node1 -->
<g id="node1" class="node">
<title>Node1</title>
<g id="a_node1"><a xlink:title=" ">
<polygon fill="#999999" stroke="#666666" points="135,-62.5 0,-62.5 0,-21.5 135,-21.5 135,-62.5"/>
<text text-anchor="start" x="8" y="-50.5" font-family="Helvetica,sans-Serif" font-size="10.00">elc::defs::memory::</text>
<text text-anchor="start" x="8" y="-39.5" font-family="Helvetica,sans-Serif" font-size="10.00">alloc_n::default_method</text>
<text text-anchor="middle" x="67.5" y="-28.5" font-family="Helvetica,sans-Serif" font-size="10.00">::get_size_of_alloc_method</text>
</a>
</g>
</g>
<!-- Node1&#45;&gt;Node1 -->
<g id="edge5" class="edge">
<title>Node1&#45;&gt;Node1</title>
<path fill="none" stroke="#63b8ff" d="M37.08,-62.6C33.76,-72.15 43.9,-80.5 67.5,-80.5 82.25,-80.5 91.74,-77.24 95.97,-72.46"/>
<polygon fill="#63b8ff" stroke="#63b8ff" points="99.42,-73.09 97.92,-62.6 92.55,-71.73 99.42,-73.09"/>
</g>
<!-- Node2 -->
<g id="node2" class="node">
<title>Node2</title>
<g id="a_node2"><a xlink:href="namespaceelc_1_1defs_1_1memory_1_1alloc__n_1_1default__method.html#a3bf36ca55ad7729b38238e5ca5ff567d" target="_top" xlink:title="Computes the size of an allocation.">
<polygon fill="white" stroke="#666666" points="295,-89.5 171,-89.5 171,-48.5 295,-48.5 295,-89.5"/>
<text text-anchor="start" x="179" y="-77.5" font-family="Helvetica,sans-Serif" font-size="10.00">elc::defs::memory::</text>
<text text-anchor="start" x="179" y="-66.5" font-family="Helvetica,sans-Serif" font-size="10.00">alloc_n::default_method</text>
<text text-anchor="middle" x="233" y="-55.5" font-family="Helvetica,sans-Serif" font-size="10.00">::base_get_size_of_alloc</text>
</a>
</g>
</g>
<!-- Node1&#45;&gt;Node2 -->
<g id="edge1" class="edge">
<title>Node1&#45;&gt;Node2</title>
<path fill="none" stroke="#63b8ff" d="M135,-52.98C143.52,-54.39 152.26,-55.83 160.85,-57.25"/>
<polygon fill="#63b8ff" stroke="#63b8ff" points="160.39,-60.72 170.83,-58.9 161.53,-53.82 160.39,-60.72"/>
</g>
<!-- Node4 -->
<g id="node4" class="node">
<title>Node4</title>
<g id="a_node4"><a xlink:href="namespaceelc_1_1defs_1_1base.html#a51f0e6e825e683bbef6baeb2921de485" target="_top" xlink:title=" ">
<polygon fill="white" stroke="#666666" points="285.5,-30 180.5,-30 180.5,0 285.5,0 285.5,-30"/>
<text text-anchor="start" x="188.5" y="-18" font-family="Helvetica,sans-Serif" font-size="10.00">elc::defs::base::cast</text>
<text text-anchor="middle" x="233" y="-7" font-family="Helvetica,sans-Serif" font-size="10.00">_to_data</text>
</a>
</g>
</g>
<!-- Node1&#45;&gt;Node4 -->
<g id="edge4" class="edge">
<title>Node1&#45;&gt;Node4</title>
<path fill="none" stroke="#63b8ff" d="M135,-31.02C146.69,-29.09 158.82,-27.08 170.37,-25.18"/>
<polygon fill="#63b8ff" stroke="#63b8ff" points="171.06,-28.61 180.35,-23.53 169.92,-21.71 171.06,-28.61"/>
</g>
<!-- Node2&#45;&gt;Node2 -->
<g id="edge2" class="edge">
<title>Node2&#45;&gt;Node2</title>
<path fill="none" stroke="#63b8ff" d="M205.61,-89.6C202.63,-99.15 211.76,-107.5 233,-107.5 246.28,-107.5 254.82,-104.24 258.63,-99.46"/>
<polygon fill="#63b8ff" stroke="#63b8ff" points="262.08,-100.05 260.39,-89.6 255.19,-98.83 262.08,-100.05"/>
</g>
<!-- Node3 -->
<g id="node3" class="node">
<title>Node3</title>
<g id="a_node3"><a xlink:href="namespaceelc_1_1_a_p_is_1_1alloc.html#a1aa6b76b00cae31f4cf4941de23ea219" target="_top" xlink:title=" ">
<polygon fill="white" stroke="#666666" points="433,-84 331,-84 331,-54 433,-54 433,-84"/>
<text text-anchor="start" x="339" y="-72" font-family="Helvetica,sans-Serif" font-size="10.00">elc::APIs::alloc::get</text>
<text text-anchor="middle" x="382" y="-61" font-family="Helvetica,sans-Serif" font-size="10.00">_size_of_alloc</text>
</a>
</g>
</g>
<!-- Node2&#45;&gt;Node3 -->
<g id="edge3" class="edge">
<title>Node2&#45;&gt;Node3</title>
<path fill="none" stroke="#63b8ff" d="M295.06,-69C303.48,-69 312.11,-69 320.51,-69"/>
<polygon fill="#63b8ff" stroke="#63b8ff" points="320.62,-72.5 330.61,-69 320.61,-65.5 320.62,-72.5"/>
</g>
</g>
</svg>
