<?xml version="1.0" encoding="UTF-8" standalone="no"?>
<!DOCTYPE svg PUBLIC "-//W3C//DTD SVG 1.1//EN"
 "http://www.w3.org/Graphics/SVG/1.1/DTD/svg11.dtd">
<!-- Generated by graphviz version 6.0.1 (20220911.1526)
 -->
<!-- Title: elc::defs::memory::lifetime_n::super_speed_trivial_copy_from_one Pages: 1 -->
<svg width="398pt" height="67pt"
 viewBox="0.00 0.00 398.00 67.00" xmlns="http://www.w3.org/2000/svg" xmlns:xlink="http://www.w3.org/1999/xlink">
<g id="graph0" class="graph" transform="scale(1 1) rotate(0) translate(4 63)">
<title>elc::defs::memory::lifetime_n::super_speed_trivial_copy_from_one</title>
<!-- Node1 -->
<g id="node1" class="node">
<title>Node1</title>
<g id="a_node1"><a xlink:title=" ">
<polygon fill="#999999" stroke="#666666" points="119,-41 0,-41 0,0 119,0 119,-41"/>
<text text-anchor="start" x="8" y="-29" font-family="Helvetica,sans-Serif" font-size="10.00">elc::defs::memory::</text>
<text text-anchor="start" x="8" y="-18" font-family="Helvetica,sans-Serif" font-size="10.00">lifetime_n::super_speed</text>
<text text-anchor="middle" x="59.5" y="-7" font-family="Helvetica,sans-Serif" font-size="10.00">_trivial_copy_from_one</text>
</a>
</g>
</g>
<!-- Node1&#45;&gt;Node1 -->
<g id="edge3" class="edge">
<title>Node1&#45;&gt;Node1</title>
<path fill="none" stroke="#63b8ff" d="M33.31,-41.1C30.45,-50.65 39.18,-59 59.5,-59 72.2,-59 80.37,-55.74 84.02,-50.96"/>
<polygon fill="#63b8ff" stroke="#63b8ff" points="87.47,-51.54 85.69,-41.1 80.57,-50.37 87.47,-51.54"/>
</g>
<!-- Node2 -->
<g id="node2" class="node">
<title>Node2</title>
<g id="a_node2"><a xlink:href="namespaceelc_1_1defs_1_1base.html#a1677dba1ac38f01832381c3bcb216396" target="_top" xlink:title="Returns true if all bytes in the input are zero.">
<polygon fill="white" stroke="#666666" points="249,-35.5 155,-35.5 155,-5.5 249,-5.5 249,-35.5"/>
<text text-anchor="start" x="163" y="-23.5" font-family="Helvetica,sans-Serif" font-size="10.00">elc::defs::base::is</text>
<text text-anchor="middle" x="202" y="-12.5" font-family="Helvetica,sans-Serif" font-size="10.00">_all_byte_zero</text>
</a>
</g>
</g>
<!-- Node1&#45;&gt;Node2 -->
<g id="edge1" class="edge">
<title>Node1&#45;&gt;Node2</title>
<path fill="none" stroke="#63b8ff" d="M119.27,-20.5C127.72,-20.5 136.39,-20.5 144.79,-20.5"/>
<polygon fill="#63b8ff" stroke="#63b8ff" points="144.86,-24 154.86,-20.5 144.86,-17 144.86,-24"/>
</g>
<!-- Node3 -->
<g id="node3" class="node">
<title>Node3</title>
<g id="a_node3"><a xlink:href="namespaceelc_1_1defs_1_1base.html#a51f0e6e825e683bbef6baeb2921de485" target="_top" xlink:title=" ">
<polygon fill="white" stroke="#666666" points="390,-35.5 285,-35.5 285,-5.5 390,-5.5 390,-35.5"/>
<text text-anchor="start" x="293" y="-23.5" font-family="Helvetica,sans-Serif" font-size="10.00">elc::defs::base::cast</text>
<text text-anchor="middle" x="337.5" y="-12.5" font-family="Helvetica,sans-Serif" font-size="10.00">_to_data</text>
</a>
</g>
</g>
<!-- Node2&#45;&gt;Node3 -->
<g id="edge2" class="edge">
<title>Node2&#45;&gt;Node3</title>
<path fill="none" stroke="#63b8ff" d="M249.32,-20.5C257.46,-20.5 266.04,-20.5 274.52,-20.5"/>
<polygon fill="#63b8ff" stroke="#63b8ff" points="274.78,-24 284.78,-20.5 274.78,-17 274.78,-24"/>
</g>
</g>
</svg>
