<?xml version="1.0" encoding="UTF-8" standalone="no"?>
<!DOCTYPE svg PUBLIC "-//W3C//DTD SVG 1.1//EN"
 "http://www.w3.org/Graphics/SVG/1.1/DTD/svg11.dtd">
<!-- Generated by graphviz version 6.0.1 (20220911.1526)
 -->
<!-- Title: elc::defs::base::iterator_n::swap Pages: 1 -->
<svg width="303pt" height="56pt"
 viewBox="0.00 0.00 303.00 56.00" xmlns="http://www.w3.org/2000/svg" xmlns:xlink="http://www.w3.org/1999/xlink">
<g id="graph0" class="graph" transform="scale(1 1) rotate(0) translate(4 52)">
<title>elc::defs::base::iterator_n::swap</title>
<!-- Node1 -->
<g id="node1" class="node">
<title>Node1</title>
<g id="a_node1"><a xlink:title=" ">
<polygon fill="#999999" stroke="#666666" points="116,-30 0,-30 0,0 116,0 116,-30"/>
<text text-anchor="start" x="8" y="-18" font-family="Helvetica,sans-Serif" font-size="10.00">elc::defs::base::iterator</text>
<text text-anchor="middle" x="58" y="-7" font-family="Helvetica,sans-Serif" font-size="10.00">_n::swap</text>
</a>
</g>
</g>
<!-- Node1&#45;&gt;Node1 -->
<g id="edge1" class="edge">
<title>Node1&#45;&gt;Node1</title>
<path fill="none" stroke="#63b8ff" d="M28.91,-30.28C22.44,-39.41 32.14,-48 58,-48 73.35,-48 83.01,-44.97 86.97,-40.6"/>
<polygon fill="#63b8ff" stroke="#63b8ff" points="90.47,-40.32 87.09,-30.28 83.47,-40.23 90.47,-40.32"/>
</g>
<!-- Node2 -->
<g id="node2" class="node">
<title>Node2</title>
<g id="a_node2"><a xlink:href="classelc_1_1defs_1_1base_1_1iterator__n_1_1same__base__t.html#a726bff94028581f0aea873090739a94b" target="_top" xlink:title=" ">
<polygon fill="white" stroke="#666666" points="295,-30 152,-30 152,0 295,0 295,-30"/>
<text text-anchor="start" x="160" y="-18" font-family="Helvetica,sans-Serif" font-size="10.00">elc::defs::base::iterator</text>
<text text-anchor="middle" x="223.5" y="-7" font-family="Helvetica,sans-Serif" font-size="10.00">_n::same_base_t::swap_with</text>
</a>
</g>
</g>
<!-- Node1&#45;&gt;Node2 -->
<g id="edge2" class="edge">
<title>Node1&#45;&gt;Node2</title>
<path fill="none" stroke="#63b8ff" d="M116.18,-8.53C124.46,-8.34 133.1,-8.24 141.73,-8.25"/>
<polygon fill="#63b8ff" stroke="#63b8ff" points="141.81,-11.75 151.83,-8.31 141.85,-4.75 141.81,-11.75"/>
</g>
<!-- Node2&#45;&gt;Node1 -->
<g id="edge3" class="edge">
<title>Node2&#45;&gt;Node1</title>
<path fill="none" stroke="#63b8ff" d="M151.83,-21.69C143.36,-21.78 134.74,-21.77 126.32,-21.66"/>
<polygon fill="#63b8ff" stroke="#63b8ff" points="126.25,-18.15 116.18,-21.47 126.12,-25.15 126.25,-18.15"/>
</g>
</g>
</svg>
