<?xml version="1.0" encoding="UTF-8" standalone="no"?>
<!DOCTYPE svg PUBLIC "-//W3C//DTD SVG 1.1//EN"
 "http://www.w3.org/Graphics/SVG/1.1/DTD/svg11.dtd">
<!-- Generated by graphviz version 6.0.1 (20220911.1526)
 -->
<!-- Title: elc::defs::memory::alloc_n::default_method::base_aligned_alloc Pages: 1 -->
<svg width="436pt" height="86pt"
 viewBox="0.00 0.00 436.00 86.00" xmlns="http://www.w3.org/2000/svg" xmlns:xlink="http://www.w3.org/1999/xlink">
<g id="graph0" class="graph" transform="scale(1 1) rotate(0) translate(4 82)">
<title>elc::defs::memory::alloc_n::default_method::base_aligned_alloc</title>
<!-- Node1 -->
<g id="node1" class="node">
<title>Node1</title>
<g id="a_node1"><a xlink:title="Allocates aligned memory.">
<polygon fill="#999999" stroke="#666666" points="119,-59.5 0,-59.5 0,-18.5 119,-18.5 119,-59.5"/>
<text text-anchor="start" x="8" y="-47.5" font-family="Helvetica,sans-Serif" font-size="10.00">elc::defs::memory::</text>
<text text-anchor="start" x="8" y="-36.5" font-family="Helvetica,sans-Serif" font-size="10.00">alloc_n::default_method</text>
<text text-anchor="middle" x="59.5" y="-25.5" font-family="Helvetica,sans-Serif" font-size="10.00">::base_aligned_alloc</text>
</a>
</g>
</g>
<!-- Node1&#45;&gt;Node1 -->
<g id="edge5" class="edge">
<title>Node1&#45;&gt;Node1</title>
<path fill="none" stroke="#63b8ff" d="M31.01,-59.6C27.9,-69.15 37.4,-77.5 59.5,-77.5 73.31,-77.5 82.2,-74.24 86.17,-69.46"/>
<polygon fill="#63b8ff" stroke="#63b8ff" points="89.61,-70.07 87.99,-59.6 82.73,-68.8 89.61,-70.07"/>
</g>
<!-- Node2 -->
<g id="node2" class="node">
<title>Node2</title>
<g id="a_node2"><a xlink:href="namespaceelc_1_1_a_p_is_1_1alloc.html#af1389f594af5ccc37accd580df042dd3" target="_top" xlink:title=" ">
<polygon fill="white" stroke="#666666" points="274,-54 155,-54 155,-24 274,-24 274,-54"/>
<text text-anchor="start" x="163" y="-42" font-family="Helvetica,sans-Serif" font-size="10.00">elc::APIs::alloc::aligned</text>
<text text-anchor="middle" x="214.5" y="-31" font-family="Helvetica,sans-Serif" font-size="10.00">_alloc</text>
</a>
</g>
</g>
<!-- Node1&#45;&gt;Node2 -->
<g id="edge1" class="edge">
<title>Node1&#45;&gt;Node2</title>
<path fill="none" stroke="#63b8ff" d="M119.22,-39C127.54,-39 136.17,-39 144.67,-39"/>
<polygon fill="#63b8ff" stroke="#63b8ff" points="144.94,-42.5 154.94,-39 144.94,-35.5 144.94,-42.5"/>
</g>
<!-- Node2&#45;&gt;Node2 -->
<g id="edge2" class="edge">
<title>Node2&#45;&gt;Node2</title>
<path fill="none" stroke="#63b8ff" d="M187.34,-54.28C181.31,-63.41 190.36,-72 214.5,-72 228.83,-72 237.85,-68.97 241.54,-64.6"/>
<polygon fill="#63b8ff" stroke="#63b8ff" points="245.05,-64.31 241.66,-54.28 238.05,-64.24 245.05,-64.31"/>
</g>
<!-- Node3 -->
<g id="node3" class="node">
<title>Node3</title>
<g id="a_node3"><a xlink:href="structelc_1_1_a_p_is_1_1alloc_1_1source__location__info__t.html#a14576ef17c256c280d8fd991d99114df" target="_top" xlink:title=" ">
<polygon fill="white" stroke="#666666" points="428,-78 310,-78 310,-48 428,-48 428,-78"/>
<text text-anchor="start" x="318" y="-66" font-family="Helvetica,sans-Serif" font-size="10.00">elc::APIs::alloc::source</text>
<text text-anchor="middle" x="369" y="-55" font-family="Helvetica,sans-Serif" font-size="10.00">_location_info_t::file</text>
</a>
</g>
</g>
<!-- Node2&#45;&gt;Node3 -->
<g id="edge3" class="edge">
<title>Node2&#45;&gt;Node3</title>
<path fill="none" stroke="#63b8ff" d="M274.02,-48.21C282.48,-49.54 291.24,-50.92 299.86,-52.28"/>
<polygon fill="#63b8ff" stroke="#63b8ff" points="299.46,-55.76 309.88,-53.85 300.55,-48.84 299.46,-55.76"/>
</g>
<!-- Node4 -->
<g id="node4" class="node">
<title>Node4</title>
<g id="a_node4"><a xlink:href="structelc_1_1_a_p_is_1_1alloc_1_1source__location__info__t.html#aa7ac39eab58162d605f8435d2cdc8d40" target="_top" xlink:title=" ">
<polygon fill="white" stroke="#666666" points="428,-30 310,-30 310,0 428,0 428,-30"/>
<text text-anchor="start" x="318" y="-18" font-family="Helvetica,sans-Serif" font-size="10.00">elc::APIs::alloc::source</text>
<text text-anchor="middle" x="369" y="-7" font-family="Helvetica,sans-Serif" font-size="10.00">_location_info_t::line</text>
</a>
</g>
</g>
<!-- Node2&#45;&gt;Node4 -->
<g id="edge4" class="edge">
<title>Node2&#45;&gt;Node4</title>
<path fill="none" stroke="#63b8ff" d="M274.02,-29.79C282.48,-28.46 291.24,-27.08 299.86,-25.72"/>
<polygon fill="#63b8ff" stroke="#63b8ff" points="300.55,-29.16 309.88,-24.15 299.46,-22.24 300.55,-29.16"/>
</g>
</g>
</svg>
