<?xml version="1.0" encoding="UTF-8" standalone="no"?>
<!DOCTYPE svg PUBLIC "-//W3C//DTD SVG 1.1//EN"
 "http://www.w3.org/Graphics/SVG/1.1/DTD/svg11.dtd">
<!-- Generated by graphviz version 6.0.1 (20220911.1526)
 -->
<!-- Title: elc::defs::base::magic_number::get_next_gold_size_to_resize_for_hash Pages: 1 -->
<svg width="905pt" height="190pt"
 viewBox="0.00 0.00 905.00 190.00" xmlns="http://www.w3.org/2000/svg" xmlns:xlink="http://www.w3.org/1999/xlink">
<g id="graph0" class="graph" transform="scale(1 1) rotate(0) translate(4 186)">
<title>elc::defs::base::magic_number::get_next_gold_size_to_resize_for_hash</title>
<!-- Node1 -->
<g id="node1" class="node">
<title>Node1</title>
<g id="a_node1"><a xlink:title="已知当前hash table的size，求下一个合适的桶大小">
<polygon fill="#999999" stroke="#666666" points="127,-117.5 0,-117.5 0,-76.5 127,-76.5 127,-117.5"/>
<text text-anchor="start" x="8" y="-105.5" font-family="Helvetica,sans-Serif" font-size="10.00">elc::defs::base::magic</text>
<text text-anchor="start" x="8" y="-94.5" font-family="Helvetica,sans-Serif" font-size="10.00">_number::get_next_gold</text>
<text text-anchor="middle" x="63.5" y="-83.5" font-family="Helvetica,sans-Serif" font-size="10.00">_size_to_resize_for_hash</text>
</a>
</g>
</g>
<!-- Node1&#45;&gt;Node1 -->
<g id="edge1" class="edge">
<title>Node1&#45;&gt;Node1</title>
<path fill="none" stroke="#63b8ff" d="M33.54,-117.6C30.27,-127.15 40.26,-135.5 63.5,-135.5 78.03,-135.5 87.37,-132.24 91.54,-127.46"/>
<polygon fill="#63b8ff" stroke="#63b8ff" points="94.99,-128.08 93.46,-117.6 88.12,-126.75 94.99,-128.08"/>
</g>
<!-- Node2 -->
<g id="node2" class="node">
<title>Node2</title>
<g id="a_node2"><a xlink:href="namespaceelc_1_1defs_1_1base_1_1magic__number.html#afdc8b347fae01a759b499664eb8fffe5" target="_top" xlink:title="求大于某数的素数">
<polygon fill="white" stroke="#666666" points="290,-117.5 163,-117.5 163,-76.5 290,-76.5 290,-117.5"/>
<text text-anchor="start" x="171" y="-105.5" font-family="Helvetica,sans-Serif" font-size="10.00">elc::defs::base::magic</text>
<text text-anchor="start" x="171" y="-94.5" font-family="Helvetica,sans-Serif" font-size="10.00">_number::get_prime_num</text>
<text text-anchor="middle" x="226.5" y="-83.5" font-family="Helvetica,sans-Serif" font-size="10.00">_big_or_eq_than</text>
</a>
</g>
</g>
<!-- Node1&#45;&gt;Node2 -->
<g id="edge2" class="edge">
<title>Node1&#45;&gt;Node2</title>
<path fill="none" stroke="#63b8ff" d="M127.21,-97C135.65,-97 144.36,-97 152.96,-97"/>
<polygon fill="#63b8ff" stroke="#63b8ff" points="152.96,-100.5 162.96,-97 152.96,-93.5 152.96,-100.5"/>
</g>
<!-- Node3 -->
<g id="node3" class="node">
<title>Node3</title>
<g id="a_node3"><a xlink:href="namespaceelc_1_1defs_1_1base_1_1magic__number.html#a77e063b37c7eb298dcf3bb43d462265e" target="_top" xlink:title=" ">
<polygon fill="white" stroke="#666666" points="596,-134 483,-134 483,-104 596,-104 596,-134"/>
<text text-anchor="start" x="491" y="-122" font-family="Helvetica,sans-Serif" font-size="10.00">elc::defs::base::magic</text>
<text text-anchor="middle" x="539.5" y="-111" font-family="Helvetica,sans-Serif" font-size="10.00">_number::ceil</text>
</a>
</g>
</g>
<!-- Node2&#45;&gt;Node3 -->
<g id="edge3" class="edge">
<title>Node2&#45;&gt;Node3</title>
<path fill="none" stroke="#63b8ff" d="M290.06,-101.43C343.05,-105.17 418.79,-110.53 472.68,-114.34"/>
<polygon fill="#63b8ff" stroke="#63b8ff" points="472.6,-117.85 482.82,-115.06 473.09,-110.86 472.6,-117.85"/>
</g>
<!-- Node7 -->
<g id="node7" class="node">
<title>Node7</title>
<g id="a_node7"><a xlink:href="namespaceelc_1_1defs_1_1base_1_1magic__number.html#abe10e28dd1b440665a49ca358a141e0d" target="_top" xlink:title=" ">
<polygon fill="white" stroke="#666666" points="447,-91 326,-91 326,-61 447,-61 447,-91"/>
<text text-anchor="start" x="334" y="-79" font-family="Helvetica,sans-Serif" font-size="10.00">elc::defs::base::magic</text>
<text text-anchor="middle" x="386.5" y="-68" font-family="Helvetica,sans-Serif" font-size="10.00">_number::is_prime_num</text>
</a>
</g>
</g>
<!-- Node2&#45;&gt;Node7 -->
<g id="edge9" class="edge">
<title>Node2&#45;&gt;Node7</title>
<path fill="none" stroke="#63b8ff" d="M290.4,-88.64C298.72,-87.53 307.29,-86.4 315.72,-85.27"/>
<polygon fill="#63b8ff" stroke="#63b8ff" points="316.45,-88.71 325.9,-83.92 315.53,-81.77 316.45,-88.71"/>
</g>
<!-- Node3&#45;&gt;Node3 -->
<g id="edge4" class="edge">
<title>Node3&#45;&gt;Node3</title>
<path fill="none" stroke="#63b8ff" d="M513.04,-134.28C507.17,-143.41 515.98,-152 539.5,-152 553.46,-152 562.24,-148.97 565.84,-144.6"/>
<polygon fill="#63b8ff" stroke="#63b8ff" points="569.35,-144.31 565.96,-134.28 562.35,-144.24 569.35,-144.31"/>
</g>
<!-- Node4 -->
<g id="node4" class="node">
<title>Node4</title>
<g id="a_node4"><a xlink:href="namespaceelc_1_1defs_1_1base_1_1magic__number.html#a30e067e5edbc32b8c5bbc09c1b56d04e" target="_top" xlink:title=" ">
<polygon fill="white" stroke="#666666" points="746.5,-182 633.5,-182 633.5,-152 746.5,-152 746.5,-182"/>
<text text-anchor="start" x="641.5" y="-170" font-family="Helvetica,sans-Serif" font-size="10.00">elc::defs::base::magic</text>
<text text-anchor="middle" x="690" y="-159" font-family="Helvetica,sans-Serif" font-size="10.00">_number::feq</text>
</a>
</g>
</g>
<!-- Node3&#45;&gt;Node4 -->
<g id="edge5" class="edge">
<title>Node3&#45;&gt;Node4</title>
<path fill="none" stroke="#63b8ff" d="M587.08,-134.06C601.59,-138.75 617.75,-143.97 632.85,-148.85"/>
<polygon fill="#63b8ff" stroke="#63b8ff" points="631.99,-152.25 642.59,-152 634.15,-145.59 631.99,-152.25"/>
</g>
<!-- Node6 -->
<g id="node6" class="node">
<title>Node6</title>
<g id="a_node6"><a xlink:href="namespaceelc_1_1defs_1_1base_1_1magic__number.html#ad4240149af3f1d0968ffdf3652da6b23" target="_top" xlink:title=" ">
<polygon fill="white" stroke="#666666" points="748,-134 632,-134 632,-104 748,-104 748,-134"/>
<text text-anchor="start" x="640" y="-122" font-family="Helvetica,sans-Serif" font-size="10.00">elc::defs::base::magic</text>
<text text-anchor="middle" x="690" y="-111" font-family="Helvetica,sans-Serif" font-size="10.00">_number::to_uintmax_t</text>
</a>
</g>
</g>
<!-- Node3&#45;&gt;Node6 -->
<g id="edge8" class="edge">
<title>Node3&#45;&gt;Node6</title>
<path fill="none" stroke="#63b8ff" d="M596.22,-119C604.62,-119 613.36,-119 621.96,-119"/>
<polygon fill="#63b8ff" stroke="#63b8ff" points="621.98,-122.5 631.98,-119 621.98,-115.5 621.98,-122.5"/>
</g>
<!-- Node5 -->
<g id="node5" class="node">
<title>Node5</title>
<g id="a_node5"><a xlink:href="namespaceelc_1_1defs_1_1base_1_1magic__number.html#a5e6964aab515dd4705841ebd5f2aacc7" target="_top" xlink:title=" ">
<polygon fill="white" stroke="#666666" points="897,-136 784,-136 784,-106 897,-106 897,-136"/>
<text text-anchor="start" x="792" y="-124" font-family="Helvetica,sans-Serif" font-size="10.00">elc::defs::base::magic</text>
<text text-anchor="middle" x="840.5" y="-113" font-family="Helvetica,sans-Serif" font-size="10.00">_number::abs</text>
</a>
</g>
</g>
<!-- Node4&#45;&gt;Node5 -->
<g id="edge6" class="edge">
<title>Node4&#45;&gt;Node5</title>
<path fill="none" stroke="#63b8ff" d="M739.62,-151.94C752.9,-147.83 767.42,-143.33 781.17,-139.07"/>
<polygon fill="#63b8ff" stroke="#63b8ff" points="782.5,-142.32 791.02,-136.02 780.43,-135.63 782.5,-142.32"/>
</g>
<!-- Node5&#45;&gt;Node5 -->
<g id="edge7" class="edge">
<title>Node5&#45;&gt;Node5</title>
<path fill="none" stroke="#63b8ff" d="M814.04,-136.28C808.17,-145.41 816.98,-154 840.5,-154 854.46,-154 863.24,-150.97 866.84,-146.6"/>
<polygon fill="#63b8ff" stroke="#63b8ff" points="870.35,-146.31 866.96,-136.28 863.35,-146.24 870.35,-146.31"/>
</g>
<!-- Node7&#45;&gt;Node3 -->
<g id="edge11" class="edge">
<title>Node7&#45;&gt;Node3</title>
<path fill="none" stroke="#63b8ff" d="M440.31,-91.04C451.81,-94.31 464.08,-97.81 475.91,-101.18"/>
<polygon fill="#63b8ff" stroke="#63b8ff" points="475.14,-104.6 485.72,-103.97 477.06,-97.86 475.14,-104.6"/>
</g>
<!-- Node7&#45;&gt;Node5 -->
<g id="edge10" class="edge">
<title>Node7&#45;&gt;Node5</title>
<path fill="none" stroke="#63b8ff" d="M447.27,-75.07C519.14,-74.9 643.21,-77.58 748,-95 759.84,-96.97 772.32,-99.91 784.14,-103.12"/>
<polygon fill="#63b8ff" stroke="#63b8ff" points="783.3,-106.52 793.88,-105.86 785.2,-99.79 783.3,-106.52"/>
</g>
<!-- Node8 -->
<g id="node8" class="node">
<title>Node8</title>
<g id="a_node8"><a xlink:href="namespaceelc_1_1defs_1_1base_1_1magic__number.html#a956a811b7ae70abe75ec93ef4f086e60" target="_top" xlink:title=" ">
<polygon fill="white" stroke="#666666" points="596,-30 483,-30 483,0 596,0 596,-30"/>
<text text-anchor="start" x="491" y="-18" font-family="Helvetica,sans-Serif" font-size="10.00">elc::defs::base::magic</text>
<text text-anchor="middle" x="539.5" y="-7" font-family="Helvetica,sans-Serif" font-size="10.00">_number::mod</text>
</a>
</g>
</g>
<!-- Node7&#45;&gt;Node8 -->
<g id="edge12" class="edge">
<title>Node7&#45;&gt;Node8</title>
<path fill="none" stroke="#63b8ff" d="M424.83,-60.92C445.14,-52.72 470.45,-42.49 492.03,-33.77"/>
<polygon fill="#63b8ff" stroke="#63b8ff" points="493.38,-37 501.34,-30.01 490.76,-30.51 493.38,-37"/>
</g>
<!-- Node8&#45;&gt;Node8 -->
<g id="edge13" class="edge">
<title>Node8&#45;&gt;Node8</title>
<path fill="none" stroke="#63b8ff" d="M513.04,-30.28C507.17,-39.41 515.98,-48 539.5,-48 553.46,-48 562.24,-44.97 565.84,-40.6"/>
<polygon fill="#63b8ff" stroke="#63b8ff" points="569.35,-40.31 565.96,-30.28 562.35,-40.24 569.35,-40.31"/>
</g>
</g>
</svg>
