<?xml version="1.0" encoding="UTF-8" standalone="no"?>
<!DOCTYPE svg PUBLIC "-//W3C//DTD SVG 1.1//EN"
 "http://www.w3.org/Graphics/SVG/1.1/DTD/svg11.dtd">
<!-- Generated by graphviz version 6.0.1 (20220911.1526)
 -->
<!-- Title: elc::defs::base::range_n::find_last_not_of_bitmark Pages: 1 -->
<svg width="460pt" height="56pt"
 viewBox="0.00 0.00 460.00 56.00" xmlns="http://www.w3.org/2000/svg" xmlns:xlink="http://www.w3.org/1999/xlink">
<g id="graph0" class="graph" transform="scale(1 1) rotate(0) translate(4 52)">
<title>elc::defs::base::range_n::find_last_not_of_bitmark</title>
<!-- Node1 -->
<g id="node1" class="node">
<title>Node1</title>
<g id="a_node1"><a xlink:title="find_last_not_of的bitmark实现 若成功找到不匹配的数据项，返回其开头，若未找到，返回nullptr">
<polygon fill="#999999" stroke="#666666" points="452,-30 314,-30 314,0 452,0 452,-30"/>
<text text-anchor="start" x="322" y="-18" font-family="Helvetica,sans-Serif" font-size="10.00">elc::defs::base::range</text>
<text text-anchor="middle" x="383" y="-7" font-family="Helvetica,sans-Serif" font-size="10.00">_n::find_last_not_of_bitmark</text>
</a>
</g>
</g>
<!-- Node1&#45;&gt;Node1 -->
<g id="edge5" class="edge">
<title>Node1&#45;&gt;Node1</title>
<path fill="none" stroke="#63b8ff" d="M411.01,-40.6C407.18,-44.97 397.84,-48 383,-48 358,-48 348.62,-39.41 354.88,-30.28"/>
<polygon fill="#63b8ff" stroke="#63b8ff" points="414.51,-40.32 411.12,-30.28 407.51,-40.23 414.51,-40.32"/>
</g>
<!-- Node2 -->
<g id="node2" class="node">
<title>Node2</title>
<g id="a_node2"><a xlink:href="namespaceelc_1_1defs_1_1base_1_1range__n.html#afb48d0642ddade3a47f3ee70331ef624" target="_top" xlink:title="若成功找到不匹配的数据项，返回其开头，若未找到，返回nullptr">
<polygon fill="white" stroke="#666666" points="278,-30 168,-30 168,0 278,0 278,-30"/>
<text text-anchor="start" x="176" y="-18" font-family="Helvetica,sans-Serif" font-size="10.00">elc::defs::base::range</text>
<text text-anchor="middle" x="223" y="-7" font-family="Helvetica,sans-Serif" font-size="10.00">_n::find_last_not_of</text>
</a>
</g>
</g>
<!-- Node1&#45;&gt;Node2 -->
<g id="edge1" class="edge">
<title>Node1&#45;&gt;Node2</title>
<path fill="none" stroke="#63b8ff" d="M303.57,-15C294.99,-15 286.4,-15 278.21,-15"/>
<polygon fill="#63b8ff" stroke="#63b8ff" points="303.62,-18.5 313.62,-15 303.62,-11.5 303.62,-18.5"/>
</g>
<!-- Node2&#45;&gt;Node2 -->
<g id="edge2" class="edge">
<title>Node2&#45;&gt;Node2</title>
<path fill="none" stroke="#63b8ff" d="M250.48,-40.6C246.73,-44.97 237.57,-48 223,-48 198.47,-48 189.27,-39.41 195.4,-30.28"/>
<polygon fill="#63b8ff" stroke="#63b8ff" points="253.98,-40.31 250.6,-30.28 246.98,-40.24 253.98,-40.31"/>
</g>
<!-- Node3 -->
<g id="node3" class="node">
<title>Node3</title>
<g id="a_node3"><a xlink:href="namespaceelc_1_1defs_1_1base_1_1range__n.html#a5a03c47024fc946bd206c626c755d01e" target="_top" xlink:title="若成功找到不匹配的数据项，返回其距离开头的步数，若未找到，返回npos">
<polygon fill="white" stroke="#666666" points="132,-30 0,-30 0,0 132,0 132,-30"/>
<text text-anchor="start" x="8" y="-18" font-family="Helvetica,sans-Serif" font-size="10.00">elc::defs::base::range</text>
<text text-anchor="middle" x="66" y="-7" font-family="Helvetica,sans-Serif" font-size="10.00">_n::find_last_not_of_size_t</text>
</a>
</g>
</g>
<!-- Node2&#45;&gt;Node3 -->
<g id="edge3" class="edge">
<title>Node2&#45;&gt;Node3</title>
<path fill="none" stroke="#63b8ff" d="M157.63,-15C149.2,-15 140.55,-15 132.1,-15"/>
<polygon fill="#63b8ff" stroke="#63b8ff" points="157.79,-18.5 167.79,-15 157.79,-11.5 157.79,-18.5"/>
</g>
<!-- Node3&#45;&gt;Node3 -->
<g id="edge4" class="edge">
<title>Node3&#45;&gt;Node3</title>
<path fill="none" stroke="#63b8ff" d="M93.48,-40.6C89.73,-44.97 80.57,-48 66,-48 41.47,-48 32.27,-39.41 38.4,-30.28"/>
<polygon fill="#63b8ff" stroke="#63b8ff" points="96.98,-40.31 93.6,-30.28 89.98,-40.24 96.98,-40.31"/>
</g>
</g>
</svg>
