<?xml version="1.0" encoding="UTF-8" standalone="no"?>
<!DOCTYPE svg PUBLIC "-//W3C//DTD SVG 1.1//EN"
 "http://www.w3.org/Graphics/SVG/1.1/DTD/svg11.dtd">
<!-- Generated by graphviz version 6.0.1 (20220911.1526)
 -->
<!-- Title: elc::APIs::library_load::base_free_library Pages: 1 -->
<svg width="393pt" height="49pt"
 viewBox="0.00 0.00 393.00 49.00" xmlns="http://www.w3.org/2000/svg" xmlns:xlink="http://www.w3.org/1999/xlink">
<g id="graph0" class="graph" transform="scale(1 1) rotate(0) translate(4 45)">
<title>elc::APIs::library_load::base_free_library</title>
<!-- Node1 -->
<g id="node1" class="node">
<title>Node1</title>
<g id="a_node1"><a xlink:title=" ">
<polygon fill="#999999" stroke="#666666" points="385,-35.5 266,-35.5 266,-5.5 385,-5.5 385,-35.5"/>
<text text-anchor="start" x="274" y="-23.5" font-family="Helvetica,sans-Serif" font-size="10.00">elc::APIs::library</text>
<text text-anchor="middle" x="325.5" y="-12.5" font-family="Helvetica,sans-Serif" font-size="10.00">_load::base_free_library</text>
</a>
</g>
</g>
<!-- Node2 -->
<g id="node2" class="node">
<title>Node2</title>
<g id="a_node2"><a xlink:href="namespaceelc_1_1_a_p_is_1_1library__load.html#acaf25f8c7eef2ee3149b29320a04d640" target="_top" xlink:title=" ">
<polygon fill="white" stroke="#666666" points="230,-35.5 137,-35.5 137,-5.5 230,-5.5 230,-35.5"/>
<text text-anchor="start" x="145" y="-23.5" font-family="Helvetica,sans-Serif" font-size="10.00">elc::APIs::library</text>
<text text-anchor="middle" x="183.5" y="-12.5" font-family="Helvetica,sans-Serif" font-size="10.00">_load::free_library</text>
</a>
</g>
</g>
<!-- Node1&#45;&gt;Node2 -->
<g id="edge1" class="edge">
<title>Node1&#45;&gt;Node2</title>
<path fill="none" stroke="#63b8ff" d="M255.75,-20.5C247.03,-20.5 238.28,-20.5 230.05,-20.5"/>
<polygon fill="#63b8ff" stroke="#63b8ff" points="255.94,-24 265.94,-20.5 255.94,-17 255.94,-24"/>
</g>
<!-- Node3 -->
<g id="node3" class="node">
<title>Node3</title>
<g id="a_node3"><a xlink:href="structelc_1_1defs_1_1lib__loader__n_1_1library__info__t.html#a458d385d6af664206e888f319b9e955d" target="_top" xlink:title=" ">
<polygon fill="white" stroke="#666666" points="101,-41 0,-41 0,0 101,0 101,-41"/>
<text text-anchor="start" x="8" y="-29" font-family="Helvetica,sans-Serif" font-size="10.00">elc::defs::lib_loader</text>
<text text-anchor="start" x="8" y="-18" font-family="Helvetica,sans-Serif" font-size="10.00">_n::library_info_t::</text>
<text text-anchor="middle" x="50.5" y="-7" font-family="Helvetica,sans-Serif" font-size="10.00">~library_info_t</text>
</a>
</g>
</g>
<!-- Node2&#45;&gt;Node3 -->
<g id="edge2" class="edge">
<title>Node2&#45;&gt;Node3</title>
<path fill="none" stroke="#63b8ff" d="M126.52,-20.5C118.06,-20.5 109.39,-20.5 101.08,-20.5"/>
<polygon fill="#63b8ff" stroke="#63b8ff" points="126.68,-24 136.68,-20.5 126.68,-17 126.68,-24"/>
</g>
</g>
</svg>
