<?xml version="1.0" encoding="UTF-8" standalone="no"?>
<!DOCTYPE svg PUBLIC "-//W3C//DTD SVG 1.1//EN"
 "http://www.w3.org/Graphics/SVG/1.1/DTD/svg11.dtd">
<!-- Generated by graphviz version 6.0.1 (20220911.1526)
 -->
<!-- Title: elc::defs::base::magic_number::ceil Pages: 1 -->
<svg width="422pt" height="104pt"
 viewBox="0.00 0.00 422.00 104.00" xmlns="http://www.w3.org/2000/svg" xmlns:xlink="http://www.w3.org/1999/xlink">
<g id="graph0" class="graph" transform="scale(1 1) rotate(0) translate(4 100)">
<title>elc::defs::base::magic_number::ceil</title>
<!-- Node1 -->
<g id="node1" class="node">
<title>Node1</title>
<g id="a_node1"><a xlink:title=" ">
<polygon fill="#999999" stroke="#666666" points="113,-54 0,-54 0,-24 113,-24 113,-54"/>
<text text-anchor="start" x="8" y="-42" font-family="Helvetica,sans-Serif" font-size="10.00">elc::defs::base::magic</text>
<text text-anchor="middle" x="56.5" y="-31" font-family="Helvetica,sans-Serif" font-size="10.00">_number::ceil</text>
</a>
</g>
</g>
<!-- Node1&#45;&gt;Node1 -->
<g id="edge1" class="edge">
<title>Node1&#45;&gt;Node1</title>
<path fill="none" stroke="#63b8ff" d="M30.04,-54.28C24.17,-63.41 32.98,-72 56.5,-72 70.46,-72 79.24,-68.97 82.84,-64.6"/>
<polygon fill="#63b8ff" stroke="#63b8ff" points="86.35,-64.31 82.96,-54.28 79.35,-64.24 86.35,-64.31"/>
</g>
<!-- Node2 -->
<g id="node2" class="node">
<title>Node2</title>
<g id="a_node2"><a xlink:href="namespaceelc_1_1defs_1_1base_1_1magic__number.html#a30e067e5edbc32b8c5bbc09c1b56d04e" target="_top" xlink:title=" ">
<polygon fill="white" stroke="#666666" points="263.5,-78 150.5,-78 150.5,-48 263.5,-48 263.5,-78"/>
<text text-anchor="start" x="158.5" y="-66" font-family="Helvetica,sans-Serif" font-size="10.00">elc::defs::base::magic</text>
<text text-anchor="middle" x="207" y="-55" font-family="Helvetica,sans-Serif" font-size="10.00">_number::feq</text>
</a>
</g>
</g>
<!-- Node1&#45;&gt;Node2 -->
<g id="edge2" class="edge">
<title>Node1&#45;&gt;Node2</title>
<path fill="none" stroke="#63b8ff" d="M113.22,-48C122.07,-49.44 131.29,-50.93 140.35,-52.39"/>
<polygon fill="#63b8ff" stroke="#63b8ff" points="140.03,-55.88 150.46,-54.02 141.15,-48.97 140.03,-55.88"/>
</g>
<!-- Node4 -->
<g id="node4" class="node">
<title>Node4</title>
<g id="a_node4"><a xlink:href="namespaceelc_1_1defs_1_1base_1_1magic__number.html#ad4240149af3f1d0968ffdf3652da6b23" target="_top" xlink:title=" ">
<polygon fill="white" stroke="#666666" points="265,-30 149,-30 149,0 265,0 265,-30"/>
<text text-anchor="start" x="157" y="-18" font-family="Helvetica,sans-Serif" font-size="10.00">elc::defs::base::magic</text>
<text text-anchor="middle" x="207" y="-7" font-family="Helvetica,sans-Serif" font-size="10.00">_number::to_uintmax_t</text>
</a>
</g>
</g>
<!-- Node1&#45;&gt;Node4 -->
<g id="edge5" class="edge">
<title>Node1&#45;&gt;Node4</title>
<path fill="none" stroke="#63b8ff" d="M113.22,-30C121.62,-28.64 130.36,-27.23 138.96,-25.83"/>
<polygon fill="#63b8ff" stroke="#63b8ff" points="139.67,-29.27 148.98,-24.22 138.55,-22.36 139.67,-29.27"/>
</g>
<!-- Node3 -->
<g id="node3" class="node">
<title>Node3</title>
<g id="a_node3"><a xlink:href="namespaceelc_1_1defs_1_1base_1_1magic__number.html#a5e6964aab515dd4705841ebd5f2aacc7" target="_top" xlink:title=" ">
<polygon fill="white" stroke="#666666" points="414,-78 301,-78 301,-48 414,-48 414,-78"/>
<text text-anchor="start" x="309" y="-66" font-family="Helvetica,sans-Serif" font-size="10.00">elc::defs::base::magic</text>
<text text-anchor="middle" x="357.5" y="-55" font-family="Helvetica,sans-Serif" font-size="10.00">_number::abs</text>
</a>
</g>
</g>
<!-- Node2&#45;&gt;Node3 -->
<g id="edge3" class="edge">
<title>Node2&#45;&gt;Node3</title>
<path fill="none" stroke="#63b8ff" d="M263.72,-63C272.57,-63 281.79,-63 290.85,-63"/>
<polygon fill="#63b8ff" stroke="#63b8ff" points="290.96,-66.5 300.96,-63 290.96,-59.5 290.96,-66.5"/>
</g>
<!-- Node3&#45;&gt;Node3 -->
<g id="edge4" class="edge">
<title>Node3&#45;&gt;Node3</title>
<path fill="none" stroke="#63b8ff" d="M331.04,-78.28C325.17,-87.41 333.98,-96 357.5,-96 371.46,-96 380.24,-92.97 383.84,-88.6"/>
<polygon fill="#63b8ff" stroke="#63b8ff" points="387.35,-88.31 383.96,-78.28 380.35,-88.24 387.35,-88.31"/>
</g>
</g>
</svg>
