<?xml version="1.0" encoding="UTF-8" standalone="no"?>
<!DOCTYPE svg PUBLIC "-//W3C//DTD SVG 1.1//EN"
 "http://www.w3.org/Graphics/SVG/1.1/DTD/svg11.dtd">
<!-- Generated by graphviz version 6.0.1 (20220911.1526)
 -->
<!-- Title: elc::defs::core::make_list Pages: 1 -->
<svg width="296pt" height="100pt"
 viewBox="0.00 0.00 296.00 100.00" xmlns="http://www.w3.org/2000/svg" xmlns:xlink="http://www.w3.org/1999/xlink">
<g id="graph0" class="graph" transform="scale(1 1) rotate(0) translate(4 96)">
<title>elc::defs::core::make_list</title>
<!-- Node1 -->
<g id="node1" class="node">
<title>Node1</title>
<g id="a_node1"><a xlink:title=" ">
<polygon fill="#999999" stroke="#666666" points="126,-46 0,-46 0,-27 126,-27 126,-46"/>
<text text-anchor="middle" x="63" y="-34" font-family="Helvetica,sans-Serif" font-size="10.00">elc::defs::core::make_list</text>
</a>
</g>
</g>
<!-- Node2 -->
<g id="node2" class="node">
<title>Node2</title>
<g id="a_node2"><a xlink:href="namespaceelc_1_1defs_1_1core.html#aa4b6b0e46887c02cd097d74031157c5f" target="_top" xlink:title=" ">
<polygon fill="white" stroke="#666666" points="280.5,-74 169.5,-74 169.5,-55 280.5,-55 280.5,-74"/>
<text text-anchor="middle" x="225" y="-62" font-family="Helvetica,sans-Serif" font-size="10.00">elc::defs::core::as_ptr</text>
</a>
</g>
</g>
<!-- Node1&#45;&gt;Node2 -->
<g id="edge1" class="edge">
<title>Node1&#45;&gt;Node2</title>
<path fill="none" stroke="#63b8ff" d="M118.62,-46.06C131.74,-48.36 145.89,-50.83 159.43,-53.2"/>
<polygon fill="#63b8ff" stroke="#63b8ff" points="159.18,-56.71 169.63,-54.99 160.38,-49.81 159.18,-56.71"/>
</g>
<!-- Node3 -->
<g id="node3" class="node">
<title>Node3</title>
<g id="a_node3"><a xlink:href="namespaceelc_1_1defs_1_1core.html#ab4cf4e3ddd5f73ad2574c3e980489a8e" target="_top" xlink:title=" ">
<polygon fill="white" stroke="#666666" points="288,-19 162,-19 162,0 288,0 288,-19"/>
<text text-anchor="middle" x="225" y="-7" font-family="Helvetica,sans-Serif" font-size="10.00">elc::defs::core::make_list</text>
</a>
</g>
</g>
<!-- Node1&#45;&gt;Node3 -->
<g id="edge3" class="edge">
<title>Node1&#45;&gt;Node3</title>
<path fill="none" stroke="#63b8ff" d="M120.41,-26.98C132.36,-24.96 145.08,-22.82 157.37,-20.74"/>
<polygon fill="#63b8ff" stroke="#63b8ff" points="158.28,-24.14 167.56,-19.02 157.12,-17.24 158.28,-24.14"/>
</g>
<!-- Node2&#45;&gt;Node2 -->
<g id="edge2" class="edge">
<title>Node2&#45;&gt;Node2</title>
<path fill="none" stroke="#63b8ff" d="M200.03,-74.08C187.88,-82.73 196.21,-92 225,-92 243.9,-92 253.98,-88.01 255.24,-82.82"/>
<polygon fill="#63b8ff" stroke="#63b8ff" points="258.13,-80.84 249.97,-74.08 252.14,-84.45 258.13,-80.84"/>
</g>
<!-- Node3&#45;&gt;Node3 -->
<g id="edge4" class="edge">
<title>Node3&#45;&gt;Node3</title>
<path fill="none" stroke="#63b8ff" d="M200.03,-19.08C187.88,-27.73 196.21,-37 225,-37 243.9,-37 253.98,-33.01 255.24,-27.82"/>
<polygon fill="#63b8ff" stroke="#63b8ff" points="258.13,-25.84 249.97,-19.08 252.14,-29.45 258.13,-25.84"/>
</g>
</g>
</svg>
