<?xml version="1.0" encoding="UTF-8" standalone="no"?>
<!DOCTYPE svg PUBLIC "-//W3C//DTD SVG 1.1//EN"
 "http://www.w3.org/Graphics/SVG/1.1/DTD/svg11.dtd">
<!-- Generated by graphviz version 6.0.1 (20220911.1526)
 -->
<!-- Title: elc::defs::core::node_like::operator[] Pages: 1 -->
<svg width="397pt" height="94pt"
 viewBox="0.00 0.00 397.00 93.50" xmlns="http://www.w3.org/2000/svg" xmlns:xlink="http://www.w3.org/1999/xlink">
<g id="graph0" class="graph" transform="scale(1 1) rotate(0) translate(4 89.5)">
<title>elc::defs::core::node_like::operator[]</title>
<!-- Node1 -->
<g id="node1" class="node">
<title>Node1</title>
<g id="a_node1"><a xlink:title=" ">
<polygon fill="#999999" stroke="#666666" points="105,-51 0,-51 0,-21 105,-21 105,-51"/>
<text text-anchor="start" x="8" y="-39" font-family="Helvetica,sans-Serif" font-size="10.00">elc::defs::core::node</text>
<text text-anchor="middle" x="52.5" y="-28" font-family="Helvetica,sans-Serif" font-size="10.00">_like::operator[]</text>
</a>
</g>
</g>
<!-- Node2 -->
<g id="node2" class="node">
<title>Node2</title>
<g id="a_node2"><a xlink:href="namespaceelc_1_1defs_1_1core.html#a476a30e4da2e29b52c54c7a59dc3f4f3" target="_top" xlink:title=" ">
<polygon fill="white" stroke="#666666" points="236,-51 141,-51 141,-21 236,-21 236,-51"/>
<text text-anchor="start" x="149" y="-39" font-family="Helvetica,sans-Serif" font-size="10.00">elc::defs::core::as</text>
<text text-anchor="middle" x="188.5" y="-28" font-family="Helvetica,sans-Serif" font-size="10.00">_value</text>
</a>
</g>
</g>
<!-- Node1&#45;&gt;Node2 -->
<g id="edge1" class="edge">
<title>Node1&#45;&gt;Node2</title>
<path fill="none" stroke="#63b8ff" d="M105.31,-36C113.58,-36 122.18,-36 130.56,-36"/>
<polygon fill="#63b8ff" stroke="#63b8ff" points="130.65,-39.5 140.65,-36 130.65,-32.5 130.65,-39.5"/>
</g>
<!-- Node2&#45;&gt;Node2 -->
<g id="edge4" class="edge">
<title>Node2&#45;&gt;Node2</title>
<path fill="none" stroke="#63b8ff" d="M164.59,-51.28C159.28,-60.41 167.25,-69 188.5,-69 201.12,-69 209.05,-65.97 212.31,-61.6"/>
<polygon fill="#63b8ff" stroke="#63b8ff" points="215.81,-61.31 212.41,-51.28 208.81,-61.24 215.81,-61.31"/>
</g>
<!-- Node3 -->
<g id="node3" class="node">
<title>Node3</title>
<g id="a_node3"><a xlink:href="namespaceelc_1_1defs_1_1core.html#aa4b6b0e46887c02cd097d74031157c5f" target="_top" xlink:title=" ">
<polygon fill="white" stroke="#666666" points="386,-67.5 275,-67.5 275,-48.5 386,-48.5 386,-67.5"/>
<text text-anchor="middle" x="330.5" y="-55.5" font-family="Helvetica,sans-Serif" font-size="10.00">elc::defs::core::as_ptr</text>
</a>
</g>
</g>
<!-- Node2&#45;&gt;Node3 -->
<g id="edge2" class="edge">
<title>Node2&#45;&gt;Node3</title>
<path fill="none" stroke="#63b8ff" d="M236.12,-43.33C245.33,-44.77 255.15,-46.32 264.83,-47.84"/>
<polygon fill="#63b8ff" stroke="#63b8ff" points="264.42,-51.32 274.84,-49.41 265.5,-44.4 264.42,-51.32"/>
</g>
<!-- Node4 -->
<g id="node4" class="node">
<title>Node4</title>
<g id="a_node4"><a xlink:href="namespaceelc_1_1defs_1_1base.html#add5f75cca4bdd8a249b12d840b1ff116" target="_top" xlink:title="对引用移除const">
<polygon fill="white" stroke="#666666" points="389,-30 272,-30 272,0 389,0 389,-30"/>
<text text-anchor="start" x="280" y="-18" font-family="Helvetica,sans-Serif" font-size="10.00">elc::defs::base::remove</text>
<text text-anchor="middle" x="330.5" y="-7" font-family="Helvetica,sans-Serif" font-size="10.00">_const</text>
</a>
</g>
</g>
<!-- Node2&#45;&gt;Node4 -->
<g id="edge5" class="edge">
<title>Node2&#45;&gt;Node4</title>
<path fill="none" stroke="#63b8ff" d="M236.12,-29.01C244.35,-27.77 253.07,-26.46 261.75,-25.16"/>
<polygon fill="#63b8ff" stroke="#63b8ff" points="262.5,-28.59 271.87,-23.64 261.47,-21.67 262.5,-28.59"/>
</g>
<!-- Node3&#45;&gt;Node3 -->
<g id="edge3" class="edge">
<title>Node3&#45;&gt;Node3</title>
<path fill="none" stroke="#63b8ff" d="M308.61,-67.58C297.97,-76.23 305.26,-85.5 330.5,-85.5 346.67,-85.5 355.47,-81.7 356.91,-76.69"/>
<polygon fill="#63b8ff" stroke="#63b8ff" points="359.97,-74.98 352.39,-67.58 353.7,-78.1 359.97,-74.98"/>
</g>
</g>
</svg>
