<?xml version="1.0" encoding="UTF-8" standalone="no"?>
<!DOCTYPE svg PUBLIC "-//W3C//DTD SVG 1.1//EN"
 "http://www.w3.org/Graphics/SVG/1.1/DTD/svg11.dtd">
<!-- Generated by graphviz version 6.0.1 (20220911.1526)
 -->
<!-- Title: elc::defs::memory::get_n::get_t&lt; T &gt; Pages: 1 -->
<svg width="343pt" height="194pt"
 viewBox="0.00 0.00 343.00 194.00" xmlns="http://www.w3.org/2000/svg" xmlns:xlink="http://www.w3.org/1999/xlink">
<g id="graph0" class="graph" transform="scale(1 1) rotate(0) translate(4 190)">
<title>elc::defs::memory::get_n::get_t&lt; T &gt;</title>
<!-- Node1 -->
<g id="node1" class="node">
<title>Node1</title>
<g id="a_node1"><a xlink:title=" ">
<polygon fill="#999999" stroke="#666666" points="335,-105 234,-105 234,-75 335,-75 335,-105"/>
<text text-anchor="start" x="242" y="-93" font-family="Helvetica,sans-Serif" font-size="10.00">elc::defs::memory::</text>
<text text-anchor="middle" x="284.5" y="-82" font-family="Helvetica,sans-Serif" font-size="10.00">get_n::get_t&lt; T &gt;</text>
</a>
</g>
</g>
<!-- Node2 -->
<g id="node2" class="node">
<title>Node2</title>
<g id="a_node2"><a xlink:href="structelc_1_1defs_1_1memory_1_1get__n_1_1base__get__t.html" target="_top" xlink:title=" ">
<polygon fill="white" stroke="#666666" points="125.5,-186 24.5,-186 24.5,-156 125.5,-156 125.5,-186"/>
<text text-anchor="start" x="32.5" y="-174" font-family="Helvetica,sans-Serif" font-size="10.00">elc::defs::memory::</text>
<text text-anchor="middle" x="75" y="-163" font-family="Helvetica,sans-Serif" font-size="10.00">get_n::base_get_t</text>
</a>
</g>
</g>
<!-- Node2&#45;&gt;Node1 -->
<g id="edge1" class="edge">
<title>Node2&#45;&gt;Node1</title>
<path fill="none" stroke="#63b8ff" d="M134.09,-152.7C139.49,-150.83 144.86,-148.92 150,-147 179.85,-135.85 186.7,-131.51 216,-119 226.56,-114.49 238.03,-109.57 248.48,-105.08"/>
<polygon fill="#63b8ff" stroke="#63b8ff" points="132.73,-149.46 124.38,-155.99 134.97,-156.09 132.73,-149.46"/>
</g>
<!-- Node3 -->
<g id="node3" class="node">
<title>Node3</title>
<g id="a_node3"><a xlink:href="structelc_1_1defs_1_1memory_1_1get__n_1_1get__t_1_1as__array__t.html" target="_top" xlink:title=" ">
<polygon fill="white" stroke="#666666" points="129,-137.5 21,-137.5 21,-96.5 129,-96.5 129,-137.5"/>
<text text-anchor="start" x="29" y="-125.5" font-family="Helvetica,sans-Serif" font-size="10.00">elc::defs::memory::</text>
<text text-anchor="start" x="29" y="-114.5" font-family="Helvetica,sans-Serif" font-size="10.00">get_n::get_t&lt; T &gt;::as</text>
<text text-anchor="middle" x="75" y="-103.5" font-family="Helvetica,sans-Serif" font-size="10.00">_array_t</text>
</a>
</g>
</g>
<!-- Node3&#45;&gt;Node1 -->
<g id="edge2" class="edge">
<title>Node3&#45;&gt;Node1</title>
<path fill="none" stroke="#9a32cd" stroke-dasharray="5,2" d="M139.22,-108.77C169.54,-104.83 205.33,-100.17 233.68,-96.48"/>
<polygon fill="#9a32cd" stroke="#9a32cd" points="138.63,-105.32 129.17,-110.08 139.54,-112.26 138.63,-105.32"/>
<text text-anchor="middle" x="192" y="-107" font-family="Helvetica,sans-Serif" font-size="10.00"> as_array</text>
</g>
<!-- Node4 -->
<g id="node4" class="node">
<title>Node4</title>
<g id="a_node4"><a xlink:href="structelc_1_1defs_1_1memory_1_1get__n_1_1get__t_1_1apply__end__t.html" target="_top" xlink:title=" ">
<polygon fill="white" stroke="#666666" points="150,-78 0,-78 0,-48 150,-48 150,-78"/>
<text text-anchor="start" x="8" y="-66" font-family="Helvetica,sans-Serif" font-size="10.00">elc::defs::memory::</text>
<text text-anchor="middle" x="75" y="-55" font-family="Helvetica,sans-Serif" font-size="10.00">get_n::get_t&lt; T &gt;::apply_end_t</text>
</a>
</g>
</g>
<!-- Node4&#45;&gt;Node1 -->
<g id="edge3" class="edge">
<title>Node4&#45;&gt;Node1</title>
<path fill="none" stroke="#9a32cd" stroke-dasharray="5,2" d="M160.26,-73.96C185.26,-77.22 211.82,-80.67 233.85,-83.54"/>
<polygon fill="#9a32cd" stroke="#9a32cd" points="160.4,-70.45 150.03,-72.63 159.5,-77.39 160.4,-70.45"/>
<text text-anchor="middle" x="192" y="-83" font-family="Helvetica,sans-Serif" font-size="10.00"> apply_end</text>
</g>
<!-- Node5 -->
<g id="node5" class="node">
<title>Node5</title>
<g id="a_node5"><a xlink:href="structelc_1_1defs_1_1memory_1_1get__n_1_1get__t_1_1remove__t.html" target="_top" xlink:title=" ">
<polygon fill="white" stroke="#666666" points="143.5,-30 6.5,-30 6.5,0 143.5,0 143.5,-30"/>
<text text-anchor="start" x="14.5" y="-18" font-family="Helvetica,sans-Serif" font-size="10.00">elc::defs::memory::</text>
<text text-anchor="middle" x="75" y="-7" font-family="Helvetica,sans-Serif" font-size="10.00">get_n::get_t&lt; T &gt;::remove_t</text>
</a>
</g>
</g>
<!-- Node5&#45;&gt;Node1 -->
<g id="edge4" class="edge">
<title>Node5&#45;&gt;Node1</title>
<path fill="none" stroke="#9a32cd" stroke-dasharray="5,2" d="M136.95,-33.03C161.69,-40.75 190.42,-50.24 216,-60 227.74,-64.48 240.39,-69.93 251.52,-74.94"/>
<polygon fill="#9a32cd" stroke="#9a32cd" points="137.92,-29.67 127.33,-30.05 135.85,-36.35 137.92,-29.67"/>
<text text-anchor="middle" x="192" y="-63" font-family="Helvetica,sans-Serif" font-size="10.00"> remove</text>
</g>
</g>
</svg>
