<?xml version="1.0" encoding="UTF-8" standalone="no"?>
<!DOCTYPE svg PUBLIC "-//W3C//DTD SVG 1.1//EN"
 "http://www.w3.org/Graphics/SVG/1.1/DTD/svg11.dtd">
<!-- Generated by graphviz version 6.0.1 (20220911.1526)
 -->
<!-- Title: elc::defs::base::type_info_t&lt; T &gt;::with_common_attribute&lt; common_attribute_names &gt;::and_special_attribute&lt; special_attribute_names &gt; Pages: 1 -->
<svg width="342pt" height="98pt"
 viewBox="0.00 0.00 342.00 97.50" xmlns="http://www.w3.org/2000/svg" xmlns:xlink="http://www.w3.org/1999/xlink">
<g id="graph0" class="graph" transform="scale(1 1) rotate(0) translate(4 93.5)">
<title>elc::defs::base::type_info_t&lt; T &gt;::with_common_attribute&lt; common_attribute_names &gt;::and_special_attribute&lt; special_attribute_names &gt;</title>
<!-- Node1 -->
<g id="node1" class="node">
<title>Node1</title>
<g id="a_node1"><a xlink:title=" ">
<polygon fill="#999999" stroke="#666666" points="334,-79 176,-79 176,-16 334,-16 334,-79"/>
<text text-anchor="start" x="184" y="-67" font-family="Helvetica,sans-Serif" font-size="10.00">elc::defs::base::type</text>
<text text-anchor="start" x="184" y="-56" font-family="Helvetica,sans-Serif" font-size="10.00">_info_t&lt; T &gt;::with_common</text>
<text text-anchor="start" x="184" y="-45" font-family="Helvetica,sans-Serif" font-size="10.00">_attribute&lt; common_attribute</text>
<text text-anchor="start" x="184" y="-34" font-family="Helvetica,sans-Serif" font-size="10.00">_names &gt;::and_special_attribute</text>
<text text-anchor="middle" x="255" y="-23" font-family="Helvetica,sans-Serif" font-size="10.00">&lt; special_attribute_names &gt;</text>
</a>
</g>
</g>
<!-- Node2 -->
<g id="node2" class="node">
<title>Node2</title>
<g id="a_node2"><a xlink:title=" ">
<polygon fill="white" stroke="#666666" points="130.5,-89.5 9.5,-89.5 9.5,-59.5 130.5,-59.5 130.5,-89.5"/>
<text text-anchor="start" x="17.5" y="-77.5" font-family="Helvetica,sans-Serif" font-size="10.00">common_attribute_pack</text>
<text text-anchor="middle" x="70" y="-66.5" font-family="Helvetica,sans-Serif" font-size="10.00">::template on_type&lt; T &gt;</text>
</a>
</g>
</g>
<!-- Node2&#45;&gt;Node1 -->
<g id="edge1" class="edge">
<title>Node2&#45;&gt;Node1</title>
<path fill="none" stroke="#63b8ff" d="M140.62,-64.23C152.1,-62.53 164.08,-60.77 175.76,-59.04"/>
<polygon fill="#63b8ff" stroke="#63b8ff" points="140.05,-60.77 130.67,-65.7 141.07,-67.7 140.05,-60.77"/>
</g>
<!-- Node3 -->
<g id="node3" class="node">
<title>Node3</title>
<g id="a_node3"><a xlink:title=" ">
<polygon fill="white" stroke="#666666" points="140,-41 0,-41 0,0 140,0 140,-41"/>
<text text-anchor="start" x="8" y="-29" font-family="Helvetica,sans-Serif" font-size="10.00">special_attribute_pack</text>
<text text-anchor="start" x="8" y="-18" font-family="Helvetica,sans-Serif" font-size="10.00">&lt; special_attribute_names...</text>
<text text-anchor="middle" x="70" y="-7" font-family="Helvetica,sans-Serif" font-size="10.00"> &gt;:: template &#160;on_type&lt; T &gt;</text>
</a>
</g>
</g>
<!-- Node3&#45;&gt;Node1 -->
<g id="edge2" class="edge">
<title>Node3&#45;&gt;Node1</title>
<path fill="none" stroke="#63b8ff" d="M150.11,-32.17C158.64,-33.43 167.31,-34.71 175.83,-35.97"/>
<polygon fill="#63b8ff" stroke="#63b8ff" points="150.59,-28.7 140.18,-30.71 149.57,-35.63 150.59,-28.7"/>
</g>
</g>
</svg>
