<?xml version="1.0" encoding="UTF-8" standalone="no"?>
<!DOCTYPE svg PUBLIC "-//W3C//DTD SVG 1.1//EN"
 "http://www.w3.org/Graphics/SVG/1.1/DTD/svg11.dtd">
<!-- Generated by graphviz version 6.0.1 (20220911.1526)
 -->
<!-- Title: elc::defs::base::type_name_t::type_name_t Pages: 1 -->
<svg width="461pt" height="98pt"
 viewBox="0.00 0.00 461.00 97.50" xmlns="http://www.w3.org/2000/svg" xmlns:xlink="http://www.w3.org/1999/xlink">
<g id="graph0" class="graph" transform="scale(1 1) rotate(0) translate(4 93.5)">
<title>elc::defs::base::type_name_t::type_name_t</title>
<!-- Node1 -->
<g id="node1" class="node">
<title>Node1</title>
<g id="a_node1"><a xlink:title="复制构造函数">
<polygon fill="#999999" stroke="#666666" points="116,-62.5 0,-62.5 0,-32.5 116,-32.5 116,-62.5"/>
<text text-anchor="start" x="8" y="-50.5" font-family="Helvetica,sans-Serif" font-size="10.00">elc::defs::base::type</text>
<text text-anchor="middle" x="58" y="-39.5" font-family="Helvetica,sans-Serif" font-size="10.00">_name_t::type_name_t</text>
</a>
</g>
</g>
<!-- Node2 -->
<g id="node2" class="node">
<title>Node2</title>
<g id="a_node2"><a xlink:href="structelc_1_1defs_1_1base_1_1type__name__t.html#ae5b76394d2b0fa538969d4016f5a63ca" target="_top" xlink:title="复制重整结果">
<polygon fill="white" stroke="#666666" points="280,-62.5 152,-62.5 152,-32.5 280,-32.5 280,-62.5"/>
<text text-anchor="start" x="160" y="-50.5" font-family="Helvetica,sans-Serif" font-size="10.00">elc::defs::base::type</text>
<text text-anchor="middle" x="216" y="-39.5" font-family="Helvetica,sans-Serif" font-size="10.00">_name_t::copy_demangle</text>
</a>
</g>
</g>
<!-- Node1&#45;&gt;Node2 -->
<g id="edge1" class="edge">
<title>Node1&#45;&gt;Node2</title>
<path fill="none" stroke="#63b8ff" d="M116.2,-47.5C124.52,-47.5 133.17,-47.5 141.74,-47.5"/>
<polygon fill="#63b8ff" stroke="#63b8ff" points="141.75,-51 151.75,-47.5 141.75,-44 141.75,-51"/>
</g>
<!-- Node3 -->
<g id="node3" class="node">
<title>Node3</title>
<g id="a_node3"><a xlink:href="structelc_1_1defs_1_1base_1_1string__view__n_1_1string__view__t.html#afa30357641e2ff7ecadeaa3011f8fa53" target="_top" xlink:title=" ">
<polygon fill="white" stroke="#666666" points="453,-89.5 316,-89.5 316,-59.5 453,-59.5 453,-89.5"/>
<text text-anchor="start" x="324" y="-77.5" font-family="Helvetica,sans-Serif" font-size="10.00">elc::defs::base::string</text>
<text text-anchor="middle" x="384.5" y="-66.5" font-family="Helvetica,sans-Serif" font-size="10.00">_view_n::string_view_t::data</text>
</a>
</g>
</g>
<!-- Node2&#45;&gt;Node3 -->
<g id="edge2" class="edge">
<title>Node2&#45;&gt;Node3</title>
<path fill="none" stroke="#63b8ff" d="M280.42,-57.78C288.74,-59.13 297.35,-60.53 305.87,-61.91"/>
<polygon fill="#63b8ff" stroke="#63b8ff" points="305.39,-65.38 315.82,-63.53 306.51,-58.47 305.39,-65.38"/>
</g>
<!-- Node4 -->
<g id="node4" class="node">
<title>Node4</title>
<g id="a_node4"><a xlink:href="structelc_1_1defs_1_1base_1_1array__like__n_1_1array__like__view__t.html#a117c302e797b7abf98c037211c3a1753" target="_top" xlink:title=" ">
<polygon fill="white" stroke="#666666" points="444,-41 325,-41 325,0 444,0 444,-41"/>
<text text-anchor="start" x="333" y="-29" font-family="Helvetica,sans-Serif" font-size="10.00">elc::defs::base::array</text>
<text text-anchor="start" x="333" y="-18" font-family="Helvetica,sans-Serif" font-size="10.00">_like_n::array_like_view</text>
<text text-anchor="middle" x="384.5" y="-7" font-family="Helvetica,sans-Serif" font-size="10.00">_t::size</text>
</a>
</g>
</g>
<!-- Node2&#45;&gt;Node4 -->
<g id="edge3" class="edge">
<title>Node2&#45;&gt;Node4</title>
<path fill="none" stroke="#63b8ff" d="M280.42,-37.22C291.72,-35.38 303.54,-33.47 314.98,-31.61"/>
<polygon fill="#63b8ff" stroke="#63b8ff" points="315.6,-35.06 324.91,-30 314.48,-28.15 315.6,-35.06"/>
</g>
</g>
</svg>
