<?xml version="1.0" encoding="UTF-8" standalone="no"?>
<!DOCTYPE svg PUBLIC "-//W3C//DTD SVG 1.1//EN"
 "http://www.w3.org/Graphics/SVG/1.1/DTD/svg11.dtd">
<!-- Generated by graphviz version 6.0.1 (20220911.1526)
 -->
<!-- Title: elc::defs::core::cons::equal_with Pages: 1 -->
<svg width="451pt" height="172pt"
 viewBox="0.00 0.00 451.00 171.50" xmlns="http://www.w3.org/2000/svg" xmlns:xlink="http://www.w3.org/1999/xlink">
<g id="graph0" class="graph" transform="scale(1 1) rotate(0) translate(4 167.5)">
<title>elc::defs::core::cons::equal_with</title>
<!-- Node1 -->
<g id="node1" class="node">
<title>Node1</title>
<g id="a_node1"><a xlink:title=" ">
<polygon fill="#999999" stroke="#666666" points="105,-102 0,-102 0,-72 105,-72 105,-102"/>
<text text-anchor="start" x="8" y="-90" font-family="Helvetica,sans-Serif" font-size="10.00">elc::defs::core::cons</text>
<text text-anchor="middle" x="52.5" y="-79" font-family="Helvetica,sans-Serif" font-size="10.00">::equal_with</text>
</a>
</g>
</g>
<!-- Node2 -->
<g id="node2" class="node">
<title>Node2</title>
<g id="a_node2"><a xlink:href="namespaceelc_1_1defs_1_1base.html#a229f73871b87264d73d8785b0541fdad" target="_top" xlink:title="向下转型至">
<polygon fill="white" stroke="#666666" points="274,-163.5 141,-163.5 141,-144.5 274,-144.5 274,-163.5"/>
<text text-anchor="middle" x="207.5" y="-151.5" font-family="Helvetica,sans-Serif" font-size="10.00">elc::defs::base::down_cast</text>
</a>
</g>
</g>
<!-- Node1&#45;&gt;Node2 -->
<g id="edge1" class="edge">
<title>Node1&#45;&gt;Node2</title>
<path fill="none" stroke="#63b8ff" d="M77.68,-102.15C94.86,-112.44 118.74,-125.8 141,-135 146.54,-137.29 152.45,-139.42 158.36,-141.36"/>
<polygon fill="#63b8ff" stroke="#63b8ff" points="157.67,-144.81 168.26,-144.44 159.75,-138.12 157.67,-144.81"/>
</g>
<!-- Node3 -->
<g id="node3" class="node">
<title>Node3</title>
<g id="a_node3"><a xlink:href="structelc_1_1defs_1_1memory_1_1ptr__n_1_1ptr__t.html#afa7ec8ea3b1c71df95fdfc05b7d726d8" target="_top" xlink:title=" ">
<polygon fill="white" stroke="#666666" points="258,-126 157,-126 157,-96 258,-96 258,-126"/>
<text text-anchor="start" x="165" y="-114" font-family="Helvetica,sans-Serif" font-size="10.00">elc::defs::memory::</text>
<text text-anchor="middle" x="207.5" y="-103" font-family="Helvetica,sans-Serif" font-size="10.00">ptr_n::ptr_t::get</text>
</a>
</g>
</g>
<!-- Node1&#45;&gt;Node3 -->
<g id="edge2" class="edge">
<title>Node1&#45;&gt;Node3</title>
<path fill="none" stroke="#63b8ff" d="M105.3,-95.13C118.56,-97.21 132.94,-99.46 146.57,-101.6"/>
<polygon fill="#63b8ff" stroke="#63b8ff" points="146.4,-105.12 156.83,-103.21 147.49,-98.2 146.4,-105.12"/>
</g>
<!-- Node5 -->
<g id="node5" class="node">
<title>Node5</title>
<g id="a_node5"><a xlink:href="structelc_1_1defs_1_1core_1_1cons.html#a8fb6994d499ee3630b1d446a08735994" target="_top" xlink:title=" ">
<polygon fill="white" stroke="#666666" points="260,-78 155,-78 155,-48 260,-48 260,-78"/>
<text text-anchor="start" x="163" y="-66" font-family="Helvetica,sans-Serif" font-size="10.00">elc::defs::core::cons</text>
<text text-anchor="middle" x="207.5" y="-55" font-family="Helvetica,sans-Serif" font-size="10.00">::get_type_info</text>
</a>
</g>
</g>
<!-- Node1&#45;&gt;Node5 -->
<g id="edge4" class="edge">
<title>Node1&#45;&gt;Node5</title>
<path fill="none" stroke="#63b8ff" d="M105.3,-78.87C118.01,-76.88 131.74,-74.73 144.86,-72.67"/>
<polygon fill="#63b8ff" stroke="#63b8ff" points="145.42,-76.12 154.75,-71.12 144.33,-69.21 145.42,-76.12"/>
</g>
<!-- Node6 -->
<g id="node6" class="node">
<title>Node6</title>
<g id="a_node6"><a xlink:href="structelc_1_1defs_1_1base_1_1base__type__info__t.html#a83a5d152aaf6d18aa5f3956d90380acc" target="_top" xlink:title=" ">
<polygon fill="white" stroke="#666666" points="268.5,-30 146.5,-30 146.5,0 268.5,0 268.5,-30"/>
<text text-anchor="start" x="154.5" y="-18" font-family="Helvetica,sans-Serif" font-size="10.00">elc::defs::base::base</text>
<text text-anchor="middle" x="207.5" y="-7" font-family="Helvetica,sans-Serif" font-size="10.00">_type_info_t::operator==</text>
</a>
</g>
</g>
<!-- Node1&#45;&gt;Node6 -->
<g id="edge5" class="edge">
<title>Node1&#45;&gt;Node6</title>
<path fill="none" stroke="#63b8ff" d="M78.63,-71.89C95.85,-61.88 119.39,-48.82 141,-39 144.85,-37.25 148.86,-35.54 152.92,-33.87"/>
<polygon fill="#63b8ff" stroke="#63b8ff" points="154.43,-37.04 162.44,-30.11 151.86,-30.53 154.43,-37.04"/>
</g>
<!-- Node4 -->
<g id="node4" class="node">
<title>Node4</title>
<g id="a_node4"><a xlink:href="structelc_1_1defs_1_1memory_1_1ptr__n_1_1ptr__t.html#ab0ddc2cf5279d67e43eedad6d7301ae1" target="_top" xlink:title=" ">
<polygon fill="white" stroke="#666666" points="443,-126 310,-126 310,-96 443,-96 443,-126"/>
<text text-anchor="start" x="318" y="-114" font-family="Helvetica,sans-Serif" font-size="10.00">elc::defs::memory::</text>
<text text-anchor="middle" x="376.5" y="-103" font-family="Helvetica,sans-Serif" font-size="10.00">ptr_n::ptr_t::replace_check</text>
</a>
</g>
</g>
<!-- Node3&#45;&gt;Node4 -->
<g id="edge3" class="edge">
<title>Node3&#45;&gt;Node4</title>
<path fill="none" stroke="#63b8ff" d="M258.15,-111C271.23,-111 285.64,-111 299.75,-111"/>
<polygon fill="#63b8ff" stroke="#63b8ff" points="299.95,-114.5 309.95,-111 299.95,-107.5 299.95,-114.5"/>
</g>
</g>
</svg>
