<?xml version="1.0" encoding="UTF-8" standalone="no"?>
<!DOCTYPE svg PUBLIC "-//W3C//DTD SVG 1.1//EN"
 "http://www.w3.org/Graphics/SVG/1.1/DTD/svg11.dtd">
<!-- Generated by graphviz version 6.0.1 (20220911.1526)
 -->
<!-- Title: elc::defs::core::value::constexpr_data_t Pages: 1 -->
<svg width="582pt" height="120pt"
 viewBox="0.00 0.00 582.00 119.50" xmlns="http://www.w3.org/2000/svg" xmlns:xlink="http://www.w3.org/1999/xlink">
<g id="graph0" class="graph" transform="scale(1 1) rotate(0) translate(4 115.5)">
<title>elc::defs::core::value::constexpr_data_t</title>
<!-- Node1 -->
<g id="node1" class="node">
<title>Node1</title>
<g id="a_node1"><a xlink:title=" ">
<polygon fill="#999999" stroke="#666666" points="574,-86 468,-86 468,-56 574,-56 574,-86"/>
<text text-anchor="start" x="476" y="-74" font-family="Helvetica,sans-Serif" font-size="10.00">elc::defs::core::value</text>
<text text-anchor="middle" x="521" y="-63" font-family="Helvetica,sans-Serif" font-size="10.00">::constexpr_data_t</text>
</a>
</g>
</g>
<!-- Node2 -->
<g id="node2" class="node">
<title>Node2</title>
<g id="a_node2"><a xlink:title=" ">
<polygon fill="white" stroke="#666666" points="432,-110 297,-110 297,-80 432,-80 432,-110"/>
<text text-anchor="start" x="305" y="-98" font-family="Helvetica,sans-Serif" font-size="10.00">instance_struct&lt; constexpr</text>
<text text-anchor="middle" x="364.5" y="-87" font-family="Helvetica,sans-Serif" font-size="10.00">_data_t &gt;</text>
</a>
</g>
</g>
<!-- Node2&#45;&gt;Node1 -->
<g id="edge1" class="edge">
<title>Node2&#45;&gt;Node1</title>
<path fill="none" stroke="#63b8ff" d="M442.47,-83.04C451.1,-81.7 459.73,-80.36 467.93,-79.09"/>
<polygon fill="#63b8ff" stroke="#63b8ff" points="441.71,-79.62 432.37,-84.61 442.79,-86.54 441.71,-79.62"/>
</g>
<!-- Node3 -->
<g id="node3" class="node">
<title>Node3</title>
<g id="a_node3"><a xlink:href="structelc_1_1defs_1_1core_1_1value_1_1base__data__t.html" target="_top" xlink:title=" ">
<polygon fill="white" stroke="#666666" points="417.5,-62 311.5,-62 311.5,-32 417.5,-32 417.5,-62"/>
<text text-anchor="start" x="319.5" y="-50" font-family="Helvetica,sans-Serif" font-size="10.00">elc::defs::core::value</text>
<text text-anchor="middle" x="364.5" y="-39" font-family="Helvetica,sans-Serif" font-size="10.00">::base_data_t</text>
</a>
</g>
</g>
<!-- Node3&#45;&gt;Node1 -->
<g id="edge2" class="edge">
<title>Node3&#45;&gt;Node1</title>
<path fill="none" stroke="#63b8ff" d="M427.8,-56.68C441.05,-58.74 454.91,-60.89 467.75,-62.88"/>
<polygon fill="#63b8ff" stroke="#63b8ff" points="428.23,-53.2 417.81,-55.13 427.15,-60.12 428.23,-53.2"/>
</g>
<!-- Node4 -->
<g id="node4" class="node">
<title>Node4</title>
<g id="a_node4"><a xlink:title=" ">
<polygon fill="white" stroke="#666666" points="261,-111.5 0,-111.5 0,-48.5 261,-48.5 261,-111.5"/>
<text text-anchor="start" x="8" y="-99.5" font-family="Helvetica,sans-Serif" font-size="10.00">type_info_t&lt; base_data</text>
<text text-anchor="middle" x="130.5" y="-88.5" font-family="Helvetica,sans-Serif" font-size="10.00">_t &gt;:: template </text>
<text text-anchor="start" x="8" y="-77.5" font-family="Helvetica,sans-Serif" font-size="10.00">						with_common_attribute</text>
<text text-anchor="start" x="8" y="-66.5" font-family="Helvetica,sans-Serif" font-size="10.00">&lt; abstract_base, ref_able,</text>
<text text-anchor="middle" x="130.5" y="-55.5" font-family="Helvetica,sans-Serif" font-size="10.00"> never_in_array, replace_able &gt;</text>
</a>
</g>
</g>
<!-- Node4&#45;&gt;Node3 -->
<g id="edge3" class="edge">
<title>Node4&#45;&gt;Node3</title>
<path fill="none" stroke="#63b8ff" d="M270.99,-60.16C285.23,-58.13 298.98,-56.18 311.33,-54.42"/>
<polygon fill="#63b8ff" stroke="#63b8ff" points="270.47,-56.7 261.07,-61.57 271.46,-63.63 270.47,-56.7"/>
</g>
<!-- Node5 -->
<g id="node5" class="node">
<title>Node5</title>
<g id="a_node5"><a xlink:href="classelc_1_1defs_1_1base_1_1build__by__get__only.html" target="_top" xlink:title=" ">
<polygon fill="white" stroke="#666666" points="184,-30 77,-30 77,0 184,0 184,-30"/>
<text text-anchor="start" x="85" y="-18" font-family="Helvetica,sans-Serif" font-size="10.00">elc::defs::base::build</text>
<text text-anchor="middle" x="130.5" y="-7" font-family="Helvetica,sans-Serif" font-size="10.00">_by_get_only</text>
</a>
</g>
</g>
<!-- Node5&#45;&gt;Node3 -->
<g id="edge4" class="edge">
<title>Node5&#45;&gt;Node3</title>
<path fill="none" stroke="#63b8ff" d="M194.24,-23.65C230.96,-28.72 276.77,-35.04 311.46,-39.82"/>
<polygon fill="#63b8ff" stroke="#63b8ff" points="194.53,-20.16 184.14,-22.26 193.57,-27.09 194.53,-20.16"/>
</g>
</g>
</svg>
