<?xml version="1.0" encoding="UTF-8" standalone="no"?>
<!DOCTYPE svg PUBLIC "-//W3C//DTD SVG 1.1//EN"
 "http://www.w3.org/Graphics/SVG/1.1/DTD/svg11.dtd">
<!-- Generated by graphviz version 6.0.1 (20220911.1526)
 -->
<!-- Title: elc::defs::core::core_runtime_internal_helper_n::base_t Pages: 1 -->
<svg width="561pt" height="108pt"
 viewBox="0.00 0.00 561.00 108.00" xmlns="http://www.w3.org/2000/svg" xmlns:xlink="http://www.w3.org/1999/xlink">
<g id="graph0" class="graph" transform="scale(1 1) rotate(0) translate(4 104)">
<title>elc::defs::core::core_runtime_internal_helper_n::base_t</title>
<!-- Node1 -->
<g id="node1" class="node">
<title>Node1</title>
<g id="a_node1"><a xlink:title=" ">
<polygon fill="#999999" stroke="#666666" points="395,-70 273,-70 273,-29 395,-29 395,-70"/>
<text text-anchor="start" x="281" y="-58" font-family="Helvetica,sans-Serif" font-size="10.00">elc::defs::core::core</text>
<text text-anchor="start" x="281" y="-47" font-family="Helvetica,sans-Serif" font-size="10.00">_runtime_internal_helper</text>
<text text-anchor="middle" x="334" y="-36" font-family="Helvetica,sans-Serif" font-size="10.00">_n::base_t</text>
</a>
</g>
</g>
<!-- Node4 -->
<g id="node4" class="node">
<title>Node4</title>
<g id="a_node4"><a xlink:href="structelc_1_1defs_1_1core_1_1core__runtime__internal__helper__n_1_1goto__t.html" target="_top" xlink:title=" ">
<polygon fill="white" stroke="#666666" points="553,-100 431,-100 431,-59 553,-59 553,-100"/>
<text text-anchor="start" x="439" y="-88" font-family="Helvetica,sans-Serif" font-size="10.00">elc::defs::core::core</text>
<text text-anchor="start" x="439" y="-77" font-family="Helvetica,sans-Serif" font-size="10.00">_runtime_internal_helper</text>
<text text-anchor="middle" x="492" y="-66" font-family="Helvetica,sans-Serif" font-size="10.00">_n::goto_t</text>
</a>
</g>
</g>
<!-- Node1&#45;&gt;Node4 -->
<g id="edge3" class="edge">
<title>Node1&#45;&gt;Node4</title>
<path fill="none" stroke="#63b8ff" d="M405.26,-63.01C413.8,-64.65 422.47,-66.32 430.85,-67.93"/>
<polygon fill="#63b8ff" stroke="#63b8ff" points="405.79,-59.55 395.31,-61.1 404.47,-66.42 405.79,-59.55"/>
</g>
<!-- Node5 -->
<g id="node5" class="node">
<title>Node5</title>
<g id="a_node5"><a xlink:href="structelc_1_1defs_1_1core_1_1core__runtime__internal__helper__n_1_1return__t.html" target="_top" xlink:title=" ">
<polygon fill="white" stroke="#666666" points="553,-41 431,-41 431,0 553,0 553,-41"/>
<text text-anchor="start" x="439" y="-29" font-family="Helvetica,sans-Serif" font-size="10.00">elc::defs::core::core</text>
<text text-anchor="start" x="439" y="-18" font-family="Helvetica,sans-Serif" font-size="10.00">_runtime_internal_helper</text>
<text text-anchor="middle" x="492" y="-7" font-family="Helvetica,sans-Serif" font-size="10.00">_n::return_t</text>
</a>
</g>
</g>
<!-- Node1&#45;&gt;Node5 -->
<g id="edge4" class="edge">
<title>Node1&#45;&gt;Node5</title>
<path fill="none" stroke="#63b8ff" d="M405.26,-36.44C413.8,-34.85 422.47,-33.24 430.85,-31.68"/>
<polygon fill="#63b8ff" stroke="#63b8ff" points="404.51,-33.02 395.31,-38.29 405.78,-39.9 404.51,-33.02"/>
</g>
<!-- Node2 -->
<g id="node2" class="node">
<title>Node2</title>
<g id="a_node2"><a xlink:href="structelc_1_1defs_1_1core_1_1base__runtime__exception.html" target="_top" xlink:title=" ">
<polygon fill="white" stroke="#666666" points="237,-64.5 132,-64.5 132,-34.5 237,-34.5 237,-64.5"/>
<text text-anchor="start" x="140" y="-52.5" font-family="Helvetica,sans-Serif" font-size="10.00">elc::defs::core::base</text>
<text text-anchor="middle" x="184.5" y="-41.5" font-family="Helvetica,sans-Serif" font-size="10.00">_runtime_exception</text>
</a>
</g>
</g>
<!-- Node2&#45;&gt;Node1 -->
<g id="edge1" class="edge">
<title>Node2&#45;&gt;Node1</title>
<path fill="none" stroke="#63b8ff" d="M247.27,-49.5C255.73,-49.5 264.41,-49.5 272.84,-49.5"/>
<polygon fill="#63b8ff" stroke="#63b8ff" points="247.09,-46 237.09,-49.5 247.09,-53 247.09,-46"/>
</g>
<!-- Node3 -->
<g id="node3" class="node">
<title>Node3</title>
<g id="a_node3"><a xlink:title=" ">
<polygon fill="white" stroke="#666666" points="96,-59 0,-59 0,-40 96,-40 96,-59"/>
<text text-anchor="middle" x="48" y="-47" font-family="Helvetica,sans-Serif" font-size="10.00">runtime_exception</text>
</a>
</g>
</g>
<!-- Node3&#45;&gt;Node2 -->
<g id="edge2" class="edge">
<title>Node3&#45;&gt;Node2</title>
<path fill="none" stroke="#63b8ff" d="M106.21,-49.5C114.66,-49.5 123.33,-49.5 131.67,-49.5"/>
<polygon fill="#63b8ff" stroke="#63b8ff" points="106.04,-46 96.04,-49.5 106.04,-53 106.04,-46"/>
</g>
</g>
</svg>
