<?xml version="1.0" encoding="UTF-8" standalone="no"?>
<!DOCTYPE svg PUBLIC "-//W3C//DTD SVG 1.1//EN"
 "http://www.w3.org/Graphics/SVG/1.1/DTD/svg11.dtd">
<!-- Generated by graphviz version 6.0.1 (20220911.1526)
 -->
<!-- Title: elc::defs::memory::lifetime_n::construct_t::placement_construct_t::operator() Pages: 1 -->
<svg width="556pt" height="73pt"
 viewBox="0.00 0.00 556.00 72.50" xmlns="http://www.w3.org/2000/svg" xmlns:xlink="http://www.w3.org/1999/xlink">
<g id="graph0" class="graph" transform="scale(1 1) rotate(0) translate(4 68.5)">
<title>elc::defs::memory::lifetime_n::construct_t::placement_construct_t::operator()</title>
<!-- Node1 -->
<g id="node1" class="node">
<title>Node1</title>
<g id="a_node1"><a xlink:title=" ">
<polygon fill="#999999" stroke="#666666" points="122,-52 0,-52 0,0 122,0 122,-52"/>
<text text-anchor="start" x="8" y="-40" font-family="Helvetica,sans-Serif" font-size="10.00">elc::defs::memory::</text>
<text text-anchor="start" x="8" y="-29" font-family="Helvetica,sans-Serif" font-size="10.00">lifetime_n::construct</text>
<text text-anchor="start" x="8" y="-18" font-family="Helvetica,sans-Serif" font-size="10.00">_t::placement_construct</text>
<text text-anchor="middle" x="61" y="-7" font-family="Helvetica,sans-Serif" font-size="10.00">_t::operator()</text>
</a>
</g>
</g>
<!-- Node2 -->
<g id="node2" class="node">
<title>Node2</title>
<g id="a_node2"><a xlink:href="namespaceelc_1_1defs_1_1memory_1_1lifetime__n.html#a3538502ddcc1662696b0ae3144d249a2" target="_top" xlink:title=" ">
<polygon fill="white" stroke="#666666" points="277,-46.5 158,-46.5 158,-5.5 277,-5.5 277,-46.5"/>
<text text-anchor="start" x="166" y="-34.5" font-family="Helvetica,sans-Serif" font-size="10.00">elc::defs::memory::</text>
<text text-anchor="start" x="166" y="-23.5" font-family="Helvetica,sans-Serif" font-size="10.00">lifetime_n::super_speed</text>
<text text-anchor="middle" x="217.5" y="-12.5" font-family="Helvetica,sans-Serif" font-size="10.00">_trivial_copy_from_one</text>
</a>
</g>
</g>
<!-- Node1&#45;&gt;Node2 -->
<g id="edge1" class="edge">
<title>Node1&#45;&gt;Node2</title>
<path fill="none" stroke="#63b8ff" d="M122.18,-26C130.49,-26 139.08,-26 147.54,-26"/>
<polygon fill="#63b8ff" stroke="#63b8ff" points="147.76,-29.5 157.76,-26 147.76,-22.5 147.76,-29.5"/>
</g>
<!-- Node2&#45;&gt;Node2 -->
<g id="edge4" class="edge">
<title>Node2&#45;&gt;Node2</title>
<path fill="none" stroke="#63b8ff" d="M191.31,-46.6C188.45,-56.15 197.18,-64.5 217.5,-64.5 230.2,-64.5 238.37,-61.24 242.02,-56.46"/>
<polygon fill="#63b8ff" stroke="#63b8ff" points="245.47,-57.04 243.69,-46.6 238.57,-55.87 245.47,-57.04"/>
</g>
<!-- Node3 -->
<g id="node3" class="node">
<title>Node3</title>
<g id="a_node3"><a xlink:href="namespaceelc_1_1defs_1_1base.html#a1677dba1ac38f01832381c3bcb216396" target="_top" xlink:title="Returns true if all bytes in the input are zero.">
<polygon fill="white" stroke="#666666" points="407,-41 313,-41 313,-11 407,-11 407,-41"/>
<text text-anchor="start" x="321" y="-29" font-family="Helvetica,sans-Serif" font-size="10.00">elc::defs::base::is</text>
<text text-anchor="middle" x="360" y="-18" font-family="Helvetica,sans-Serif" font-size="10.00">_all_byte_zero</text>
</a>
</g>
</g>
<!-- Node2&#45;&gt;Node3 -->
<g id="edge2" class="edge">
<title>Node2&#45;&gt;Node3</title>
<path fill="none" stroke="#63b8ff" d="M277.27,-26C285.72,-26 294.39,-26 302.79,-26"/>
<polygon fill="#63b8ff" stroke="#63b8ff" points="302.86,-29.5 312.86,-26 302.86,-22.5 302.86,-29.5"/>
</g>
<!-- Node4 -->
<g id="node4" class="node">
<title>Node4</title>
<g id="a_node4"><a xlink:href="namespaceelc_1_1defs_1_1base.html#a51f0e6e825e683bbef6baeb2921de485" target="_top" xlink:title=" ">
<polygon fill="white" stroke="#666666" points="548,-41 443,-41 443,-11 548,-11 548,-41"/>
<text text-anchor="start" x="451" y="-29" font-family="Helvetica,sans-Serif" font-size="10.00">elc::defs::base::cast</text>
<text text-anchor="middle" x="495.5" y="-18" font-family="Helvetica,sans-Serif" font-size="10.00">_to_data</text>
</a>
</g>
</g>
<!-- Node3&#45;&gt;Node4 -->
<g id="edge3" class="edge">
<title>Node3&#45;&gt;Node4</title>
<path fill="none" stroke="#63b8ff" d="M407.32,-26C415.46,-26 424.04,-26 432.52,-26"/>
<polygon fill="#63b8ff" stroke="#63b8ff" points="432.78,-29.5 442.78,-26 432.78,-22.5 432.78,-29.5"/>
</g>
</g>
</svg>
