<?xml version="1.0" encoding="UTF-8" standalone="no"?>
<!DOCTYPE svg PUBLIC "-//W3C//DTD SVG 1.1//EN"
 "http://www.w3.org/Graphics/SVG/1.1/DTD/svg11.dtd">
<!-- Generated by graphviz version 6.0.1 (20220911.1526)
 -->
<!-- Title: elc::defs::base::non_copy_assign_able Pages: 1 -->
<svg width="601pt" height="517pt"
 viewBox="0.00 0.00 601.00 516.50" xmlns="http://www.w3.org/2000/svg" xmlns:xlink="http://www.w3.org/1999/xlink">
<g id="graph0" class="graph" transform="scale(1 1) rotate(0) translate(4 512.5)">
<title>elc::defs::base::non_copy_assign_able</title>
<!-- Node1 -->
<g id="node1" class="node">
<title>Node1</title>
<g id="a_node1"><a xlink:title="禁止复制赋值">
<polygon fill="#999999" stroke="#666666" points="102,-229.5 0,-229.5 0,-199.5 102,-199.5 102,-229.5"/>
<text text-anchor="start" x="8" y="-217.5" font-family="Helvetica,sans-Serif" font-size="10.00">elc::defs::base::non</text>
<text text-anchor="middle" x="51" y="-206.5" font-family="Helvetica,sans-Serif" font-size="10.00">_copy_assign_able</text>
</a>
</g>
</g>
<!-- Node2 -->
<g id="node2" class="node">
<title>Node2</title>
<g id="a_node2"><a xlink:href="structelc_1_1defs_1_1base_1_1non__copyable.html" target="_top" xlink:title="禁止默认合成的复制">
<polygon fill="white" stroke="#666666" points="242.5,-277.5 140.5,-277.5 140.5,-247.5 242.5,-247.5 242.5,-277.5"/>
<text text-anchor="start" x="148.5" y="-265.5" font-family="Helvetica,sans-Serif" font-size="10.00">elc::defs::base::non</text>
<text text-anchor="middle" x="191.5" y="-254.5" font-family="Helvetica,sans-Serif" font-size="10.00">_copyable</text>
</a>
</g>
</g>
<!-- Node1&#45;&gt;Node2 -->
<g id="edge1" class="edge">
<title>Node1&#45;&gt;Node2</title>
<path fill="none" stroke="#63b8ff" d="M104.93,-232.85C118.91,-237.69 133.82,-242.86 147.21,-247.5"/>
<polygon fill="#63b8ff" stroke="#63b8ff" points="106.04,-229.52 95.44,-229.56 103.74,-236.14 106.04,-229.52"/>
</g>
<!-- Node18 -->
<g id="node18" class="node">
<title>Node18</title>
<g id="a_node18"><a xlink:href="structelc_1_1defs_1_1base_1_1non__default__assign__able.html" target="_top" xlink:title="禁止默认合成的赋值">
<polygon fill="white" stroke="#666666" points="245,-229.5 138,-229.5 138,-199.5 245,-199.5 245,-229.5"/>
<text text-anchor="start" x="146" y="-217.5" font-family="Helvetica,sans-Serif" font-size="10.00">elc::defs::base::non</text>
<text text-anchor="middle" x="191.5" y="-206.5" font-family="Helvetica,sans-Serif" font-size="10.00">_default_assign_able</text>
</a>
</g>
</g>
<!-- Node1&#45;&gt;Node18 -->
<g id="edge17" class="edge">
<title>Node1&#45;&gt;Node18</title>
<path fill="none" stroke="#63b8ff" d="M112.24,-214.5C120.74,-214.5 129.43,-214.5 137.77,-214.5"/>
<polygon fill="#63b8ff" stroke="#63b8ff" points="112,-211 102,-214.5 112,-218 112,-211"/>
</g>
<!-- Node19 -->
<g id="node19" class="node">
<title>Node19</title>
<g id="a_node19"><a xlink:href="structelc_1_1defs_1_1core_1_1value.html" target="_top" xlink:title=" ">
<polygon fill="white" stroke="#666666" points="244.5,-181 138.5,-181 138.5,-162 244.5,-162 244.5,-181"/>
<text text-anchor="middle" x="191.5" y="-169" font-family="Helvetica,sans-Serif" font-size="10.00">elc::defs::core::value</text>
</a>
</g>
</g>
<!-- Node1&#45;&gt;Node19 -->
<g id="edge18" class="edge">
<title>Node1&#45;&gt;Node19</title>
<path fill="none" stroke="#63b8ff" d="M110.28,-196.4C127.23,-191.14 145.08,-185.6 159.62,-181.09"/>
<polygon fill="#63b8ff" stroke="#63b8ff" points="108.95,-193.15 100.44,-199.46 111.03,-199.84 108.95,-193.15"/>
</g>
<!-- Node3 -->
<g id="node3" class="node">
<title>Node3</title>
<g id="a_node3"><a xlink:href="structelc_1_1defs_1_1base_1_1cons__t.html" target="_top" xlink:title=" ">
<polygon fill="white" stroke="#666666" points="410.5,-508.5 289.5,-508.5 289.5,-478.5 410.5,-478.5 410.5,-508.5"/>
<text text-anchor="start" x="297.5" y="-496.5" font-family="Helvetica,sans-Serif" font-size="10.00">elc::defs::base::cons</text>
<text text-anchor="middle" x="350" y="-485.5" font-family="Helvetica,sans-Serif" font-size="10.00">_t&lt; can_map_all&lt; T &gt; &gt;</text>
</a>
</g>
</g>
<!-- Node2&#45;&gt;Node3 -->
<g id="edge2" class="edge">
<title>Node2&#45;&gt;Node3</title>
<path fill="none" stroke="#63b8ff" d="M196.5,-287.56C204.66,-330.68 227.24,-419.11 281,-469.5 284.65,-472.92 288.83,-475.86 293.27,-478.39"/>
<polygon fill="#63b8ff" stroke="#63b8ff" points="199.93,-286.85 194.72,-277.63 193.04,-288.09 199.93,-286.85"/>
</g>
<!-- Node5 -->
<g id="node5" class="node">
<title>Node5</title>
<g id="a_node5"><a xlink:href="structelc_1_1defs_1_1base_1_1cons__t.html" target="_top" xlink:title=" ">
<polygon fill="white" stroke="#666666" points="415,-460 285,-460 285,-419 415,-419 415,-460"/>
<text text-anchor="start" x="293" y="-448" font-family="Helvetica,sans-Serif" font-size="10.00">elc::defs::base::cons</text>
<text text-anchor="start" x="293" y="-437" font-family="Helvetica,sans-Serif" font-size="10.00">_t&lt; elc::defs::memory</text>
<text text-anchor="middle" x="350" y="-426" font-family="Helvetica,sans-Serif" font-size="10.00">::others_n::can_map_all &gt;</text>
</a>
</g>
</g>
<!-- Node2&#45;&gt;Node5 -->
<g id="edge4" class="edge">
<title>Node2&#45;&gt;Node5</title>
<path fill="none" stroke="#63b8ff" d="M201.92,-287.45C215.15,-319.54 242.07,-375.21 281,-409.5 284.97,-413 289.41,-416.14 294.07,-418.96"/>
<polygon fill="#63b8ff" stroke="#63b8ff" points="205.07,-285.91 198.1,-277.92 198.57,-288.51 205.07,-285.91"/>
</g>
<!-- Node6 -->
<g id="node6" class="node">
<title>Node6</title>
<g id="a_node6"><a xlink:href="structelc_1_1defs_1_1base_1_1cons__t.html" target="_top" xlink:title=" ">
<polygon fill="white" stroke="#666666" points="403.5,-400.5 296.5,-400.5 296.5,-370.5 403.5,-370.5 403.5,-400.5"/>
<text text-anchor="start" x="304.5" y="-388.5" font-family="Helvetica,sans-Serif" font-size="10.00">elc::defs::base::cons</text>
<text text-anchor="middle" x="350" y="-377.5" font-family="Helvetica,sans-Serif" font-size="10.00">_t&lt; T &gt;</text>
</a>
</g>
</g>
<!-- Node2&#45;&gt;Node6 -->
<g id="edge5" class="edge">
<title>Node2&#45;&gt;Node6</title>
<path fill="none" stroke="#63b8ff" d="M208.17,-285.99C224.11,-308.26 250.73,-341.22 281,-361.5 286.1,-364.91 291.73,-367.9 297.52,-370.5"/>
<polygon fill="#63b8ff" stroke="#63b8ff" points="211,-283.93 202.4,-277.75 205.26,-287.95 211,-283.93"/>
</g>
<!-- Node7 -->
<g id="node7" class="node">
<title>Node7</title>
<g id="a_node7"><a xlink:href="structelc_1_1defs_1_1base_1_1data__block.html" target="_top" xlink:title=" ">
<polygon fill="white" stroke="#666666" points="402.5,-352.5 297.5,-352.5 297.5,-322.5 402.5,-322.5 402.5,-352.5"/>
<text text-anchor="start" x="305.5" y="-340.5" font-family="Helvetica,sans-Serif" font-size="10.00">elc::defs::base::data</text>
<text text-anchor="middle" x="350" y="-329.5" font-family="Helvetica,sans-Serif" font-size="10.00">_block&lt; Ts &gt;</text>
</a>
</g>
</g>
<!-- Node2&#45;&gt;Node7 -->
<g id="edge6" class="edge">
<title>Node2&#45;&gt;Node7</title>
<path fill="none" stroke="#63b8ff" d="M224.6,-282.91C241.08,-292.88 261.7,-304.62 281,-313.5 287.94,-316.69 295.43,-319.72 302.82,-322.49"/>
<polygon fill="#63b8ff" stroke="#63b8ff" points="226.26,-279.82 215.91,-277.57 222.6,-285.79 226.26,-279.82"/>
</g>
<!-- Node8 -->
<g id="node8" class="node">
<title>Node8</title>
<g id="a_node8"><a xlink:href="classelc_1_1defs_1_1base_1_1mark__able.html" target="_top" xlink:title=" ">
<polygon fill="white" stroke="#666666" points="404,-304.5 296,-304.5 296,-274.5 404,-274.5 404,-304.5"/>
<text text-anchor="start" x="304" y="-292.5" font-family="Helvetica,sans-Serif" font-size="10.00">elc::defs::base::mark</text>
<text text-anchor="middle" x="350" y="-281.5" font-family="Helvetica,sans-Serif" font-size="10.00">_able&lt; T &gt;</text>
</a>
</g>
</g>
<!-- Node2&#45;&gt;Node8 -->
<g id="edge7" class="edge">
<title>Node2&#45;&gt;Node8</title>
<path fill="none" stroke="#8b1a1a" d="M252.97,-272.93C267.07,-275.37 281.99,-277.94 295.75,-280.31"/>
<polygon fill="#8b1a1a" stroke="#8b1a1a" points="253.33,-269.44 242.88,-271.19 252.14,-276.34 253.33,-269.44"/>
</g>
<!-- Node10 -->
<g id="node10" class="node">
<title>Node10</title>
<g id="a_node10"><a xlink:href="classelc_1_1defs_1_1container_1_1stack__n_1_1base__stack__t.html" target="_top" xlink:title=" ">
<polygon fill="white" stroke="#666666" points="406.5,-256 293.5,-256 293.5,-215 406.5,-215 406.5,-256"/>
<text text-anchor="start" x="301.5" y="-244" font-family="Helvetica,sans-Serif" font-size="10.00">elc::defs::container</text>
<text text-anchor="start" x="301.5" y="-233" font-family="Helvetica,sans-Serif" font-size="10.00">::stack_n::base_stack</text>
<text text-anchor="middle" x="350" y="-222" font-family="Helvetica,sans-Serif" font-size="10.00">_t&lt; T &gt;</text>
</a>
</g>
</g>
<!-- Node2&#45;&gt;Node10 -->
<g id="edge9" class="edge">
<title>Node2&#45;&gt;Node10</title>
<path fill="none" stroke="#8b1a1a" d="M252.88,-252.08C266.17,-249.79 280.19,-247.37 293.29,-245.11"/>
<polygon fill="#8b1a1a" stroke="#8b1a1a" points="252.14,-248.66 242.88,-253.81 253.33,-255.56 252.14,-248.66"/>
</g>
<!-- Node12 -->
<g id="node12" class="node">
<title>Node12</title>
<g id="a_node12"><a xlink:href="structelc_1_1defs_1_1memory_1_1others__n_1_1replace__able.html" target="_top" xlink:title=" ">
<polygon fill="white" stroke="#666666" points="419,-196.5 281,-196.5 281,-166.5 419,-166.5 419,-196.5"/>
<text text-anchor="start" x="289" y="-184.5" font-family="Helvetica,sans-Serif" font-size="10.00">elc::defs::memory::</text>
<text text-anchor="middle" x="350" y="-173.5" font-family="Helvetica,sans-Serif" font-size="10.00">others_n::replace_able&lt; T &gt;</text>
</a>
</g>
</g>
<!-- Node2&#45;&gt;Node12 -->
<g id="edge11" class="edge">
<title>Node2&#45;&gt;Node12</title>
<path fill="none" stroke="#63b8ff" d="M238.25,-242.61C240.57,-241.28 242.83,-239.91 245,-238.5 262.93,-226.81 262.63,-217.5 281,-206.5 287.26,-202.75 294.17,-199.42 301.12,-196.51"/>
<polygon fill="#63b8ff" stroke="#63b8ff" points="236.3,-239.68 229.12,-247.47 239.59,-245.86 236.3,-239.68"/>
</g>
<!-- Node13 -->
<g id="node13" class="node">
<title>Node13</title>
<g id="a_node13"><a xlink:href="classelc_1_1defs_1_1memory_1_1ptr__n_1_1ref__t.html" target="_top" xlink:title=" ">
<polygon fill="white" stroke="#666666" points="400.5,-148.5 299.5,-148.5 299.5,-118.5 400.5,-118.5 400.5,-148.5"/>
<text text-anchor="start" x="307.5" y="-136.5" font-family="Helvetica,sans-Serif" font-size="10.00">elc::defs::memory::</text>
<text text-anchor="middle" x="350" y="-125.5" font-family="Helvetica,sans-Serif" font-size="10.00">ptr_n::ref_t</text>
</a>
</g>
</g>
<!-- Node2&#45;&gt;Node13 -->
<g id="edge12" class="edge">
<title>Node2&#45;&gt;Node13</title>
<path fill="none" stroke="#8b1a1a" d="M241.67,-241.58C242.83,-240.59 243.94,-239.57 245,-238.5 272.71,-210.5 252.07,-184.24 281,-157.5 286.33,-152.57 292.74,-148.65 299.46,-145.52"/>
<polygon fill="#8b1a1a" stroke="#8b1a1a" points="239.53,-238.81 233.45,-247.49 243.62,-244.49 239.53,-238.81"/>
</g>
<!-- Node16 -->
<g id="node16" class="node">
<title>Node16</title>
<g id="a_node16"><a xlink:href="classelc_1_1defs_1_1string__n_1_1string__t_1_1arec__t.html" target="_top" xlink:title=" ">
<polygon fill="white" stroke="#666666" points="401,-100 299,-100 299,-59 401,-59 401,-100"/>
<text text-anchor="start" x="307" y="-88" font-family="Helvetica,sans-Serif" font-size="10.00">elc::defs::string_n</text>
<text text-anchor="start" x="307" y="-77" font-family="Helvetica,sans-Serif" font-size="10.00">::string_t&lt; char_T &gt;</text>
<text text-anchor="middle" x="350" y="-66" font-family="Helvetica,sans-Serif" font-size="10.00">::arec_t</text>
</a>
</g>
</g>
<!-- Node2&#45;&gt;Node16 -->
<g id="edge15" class="edge">
<title>Node2&#45;&gt;Node16</title>
<path fill="none" stroke="#8b1a1a" d="M242.7,-240.99C243.5,-240.19 244.27,-239.36 245,-238.5 283.67,-193.25 242.03,-154.5 281,-109.5 285.9,-103.84 292.07,-99.21 298.68,-95.43"/>
<polygon fill="#8b1a1a" stroke="#8b1a1a" points="240.29,-238.43 234.73,-247.45 244.7,-243.87 240.29,-238.43"/>
</g>
<!-- Node17 -->
<g id="node17" class="node">
<title>Node17</title>
<g id="a_node17"><a xlink:href="classelc_1_1defs_1_1string__n_1_1string__t_1_1floating__arec__t.html" target="_top" xlink:title=" ">
<polygon fill="white" stroke="#666666" points="401,-41 299,-41 299,0 401,0 401,-41"/>
<text text-anchor="start" x="307" y="-29" font-family="Helvetica,sans-Serif" font-size="10.00">elc::defs::string_n</text>
<text text-anchor="start" x="307" y="-18" font-family="Helvetica,sans-Serif" font-size="10.00">::string_t&lt; char_T &gt;</text>
<text text-anchor="middle" x="350" y="-7" font-family="Helvetica,sans-Serif" font-size="10.00">::floating_arec_t</text>
</a>
</g>
</g>
<!-- Node2&#45;&gt;Node17 -->
<g id="edge16" class="edge">
<title>Node2&#45;&gt;Node17</title>
<path fill="none" stroke="#8b1a1a" d="M243.48,-240.32C244.01,-239.73 244.51,-239.12 245,-238.5 297.77,-171.22 227.37,-116.1 281,-49.5 285.83,-43.5 292.13,-38.72 298.95,-34.92"/>
<polygon fill="#8b1a1a" stroke="#8b1a1a" points="240.92,-237.91 235.78,-247.17 245.58,-243.14 240.92,-237.91"/>
</g>
<!-- Node4 -->
<g id="node4" class="node">
<title>Node4</title>
<g id="a_node4"><a xlink:href="structelc_1_1defs_1_1memory_1_1others__n_1_1can__map__all.html" target="_top" xlink:title=" ">
<polygon fill="white" stroke="#666666" points="593,-508.5 455,-508.5 455,-478.5 593,-478.5 593,-508.5"/>
<text text-anchor="start" x="463" y="-496.5" font-family="Helvetica,sans-Serif" font-size="10.00">elc::defs::memory::</text>
<text text-anchor="middle" x="524" y="-485.5" font-family="Helvetica,sans-Serif" font-size="10.00">others_n::can_map_all&lt; T &gt;</text>
</a>
</g>
</g>
<!-- Node3&#45;&gt;Node4 -->
<g id="edge3" class="edge">
<title>Node3&#45;&gt;Node4</title>
<path fill="none" stroke="#63b8ff" d="M420.86,-493.5C432.08,-493.5 443.69,-493.5 454.88,-493.5"/>
<polygon fill="#63b8ff" stroke="#63b8ff" points="420.67,-490 410.67,-493.5 420.67,-497 420.67,-490"/>
</g>
<!-- Node9 -->
<g id="node9" class="node">
<title>Node9</title>
<g id="a_node9"><a xlink:href="structelc_1_1defs_1_1memory_1_1gc__n_1_1mark__able__for__gc.html" target="_top" xlink:title=" ">
<polygon fill="white" stroke="#666666" points="576,-312 472,-312 472,-271 576,-271 576,-312"/>
<text text-anchor="start" x="480" y="-300" font-family="Helvetica,sans-Serif" font-size="10.00">elc::defs::memory::</text>
<text text-anchor="start" x="480" y="-289" font-family="Helvetica,sans-Serif" font-size="10.00">gc_n::mark_able_for</text>
<text text-anchor="middle" x="524" y="-278" font-family="Helvetica,sans-Serif" font-size="10.00">_gc&lt; T &gt;</text>
</a>
</g>
</g>
<!-- Node8&#45;&gt;Node9 -->
<g id="edge8" class="edge">
<title>Node8&#45;&gt;Node9</title>
<path fill="none" stroke="#63b8ff" d="M414.09,-290.23C433.13,-290.46 453.78,-290.7 471.93,-290.91"/>
<polygon fill="#63b8ff" stroke="#63b8ff" points="414.05,-286.73 404.01,-290.12 413.97,-293.73 414.05,-286.73"/>
</g>
<!-- Node11 -->
<g id="node11" class="node">
<title>Node11</title>
<g id="a_node11"><a xlink:href="structelc_1_1defs_1_1container_1_1stack__n_1_1auto__stack__t.html" target="_top" xlink:title=" ">
<polygon fill="white" stroke="#666666" points="579.5,-253 468.5,-253 468.5,-212 579.5,-212 579.5,-253"/>
<text text-anchor="start" x="476.5" y="-241" font-family="Helvetica,sans-Serif" font-size="10.00">elc::defs::container</text>
<text text-anchor="start" x="476.5" y="-230" font-family="Helvetica,sans-Serif" font-size="10.00">::stack_n::auto_stack</text>
<text text-anchor="middle" x="524" y="-219" font-family="Helvetica,sans-Serif" font-size="10.00">_t&lt; T &gt;</text>
</a>
</g>
</g>
<!-- Node10&#45;&gt;Node11 -->
<g id="edge10" class="edge">
<title>Node10&#45;&gt;Node11</title>
<path fill="none" stroke="#63b8ff" d="M417.2,-234.35C434.1,-234.05 452.07,-233.74 468.32,-233.45"/>
<polygon fill="#63b8ff" stroke="#63b8ff" points="416.78,-230.85 406.84,-234.53 416.9,-237.85 416.78,-230.85"/>
</g>
<!-- Node14 -->
<g id="node14" class="node">
<title>Node14</title>
<g id="a_node14"><a xlink:href="classelc_1_1defs_1_1memory_1_1ptr__n_1_1ref__able.html" target="_top" xlink:title=" ">
<polygon fill="white" stroke="#666666" points="574.5,-169.5 473.5,-169.5 473.5,-139.5 574.5,-139.5 574.5,-169.5"/>
<text text-anchor="start" x="481.5" y="-157.5" font-family="Helvetica,sans-Serif" font-size="10.00">elc::defs::memory::</text>
<text text-anchor="middle" x="524" y="-146.5" font-family="Helvetica,sans-Serif" font-size="10.00">ptr_n::ref_able&lt; T &gt;</text>
</a>
</g>
</g>
<!-- Node13&#45;&gt;Node14 -->
<g id="edge13" class="edge">
<title>Node13&#45;&gt;Node14</title>
<path fill="none" stroke="#63b8ff" d="M410.88,-140.81C431.28,-143.3 453.85,-146.06 473.36,-148.44"/>
<polygon fill="#63b8ff" stroke="#63b8ff" points="411.1,-137.31 400.75,-139.57 410.25,-144.26 411.1,-137.31"/>
</g>
<!-- Node15 -->
<g id="node15" class="node">
<title>Node15</title>
<g id="a_node15"><a xlink:href="classelc_1_1defs_1_1memory_1_1ptr__n_1_1weak__ref__able.html" target="_top" xlink:title=" ">
<polygon fill="white" stroke="#666666" points="588.5,-121.5 459.5,-121.5 459.5,-91.5 588.5,-91.5 588.5,-121.5"/>
<text text-anchor="start" x="467.5" y="-109.5" font-family="Helvetica,sans-Serif" font-size="10.00">elc::defs::memory::</text>
<text text-anchor="middle" x="524" y="-98.5" font-family="Helvetica,sans-Serif" font-size="10.00">ptr_n::weak_ref_able&lt; T &gt;</text>
</a>
</g>
</g>
<!-- Node13&#45;&gt;Node15 -->
<g id="edge14" class="edge">
<title>Node13&#45;&gt;Node15</title>
<path fill="none" stroke="#63b8ff" d="M410.82,-124.11C426.47,-121.65 443.4,-119 459.24,-116.51"/>
<polygon fill="#63b8ff" stroke="#63b8ff" points="410.09,-120.68 400.75,-125.69 411.17,-127.6 410.09,-120.68"/>
</g>
</g>
</svg>
