<?xml version="1.0" encoding="UTF-8" standalone="no"?>
<!DOCTYPE svg PUBLIC "-//W3C//DTD SVG 1.1//EN"
 "http://www.w3.org/Graphics/SVG/1.1/DTD/svg11.dtd">
<!-- Generated by graphviz version 6.0.1 (20220911.1526)
 -->
<!-- Title: elc::defs::base::string_view_n::string_view_t&lt; char_T &gt; Pages: 1 -->
<svg width="608pt" height="98pt"
 viewBox="0.00 0.00 608.00 97.50" xmlns="http://www.w3.org/2000/svg" xmlns:xlink="http://www.w3.org/1999/xlink">
<g id="graph0" class="graph" transform="scale(1 1) rotate(0) translate(4 93.5)">
<title>elc::defs::base::string_view_n::string_view_t&lt; char_T &gt;</title>
<!-- Node1 -->
<g id="node1" class="node">
<title>Node1</title>
<g id="a_node1"><a xlink:title="array_like_view_t的特化类型，表明这是字符串">
<polygon fill="#999999" stroke="#666666" points="267,-62.5 155,-62.5 155,-21.5 267,-21.5 267,-62.5"/>
<text text-anchor="start" x="163" y="-50.5" font-family="Helvetica,sans-Serif" font-size="10.00">elc::defs::base::string</text>
<text text-anchor="start" x="163" y="-39.5" font-family="Helvetica,sans-Serif" font-size="10.00">_view_n::string_view_t</text>
<text text-anchor="middle" x="211" y="-28.5" font-family="Helvetica,sans-Serif" font-size="10.00">&lt; char_T &gt;</text>
</a>
</g>
</g>
<!-- Node3 -->
<g id="node3" class="node">
<title>Node3</title>
<g id="a_node3"><a xlink:href="structelc_1_1defs_1_1base_1_1constexpr__str__n_1_1constexpr__str__view__t.html" target="_top" xlink:title="constexpr_str_t的退化类型，表明这是常量字符串，但没有可用的额外信息">
<polygon fill="white" stroke="#666666" points="435,-89.5 303,-89.5 303,-48.5 435,-48.5 435,-89.5"/>
<text text-anchor="start" x="311" y="-77.5" font-family="Helvetica,sans-Serif" font-size="10.00">elc::defs::base::constexpr</text>
<text text-anchor="start" x="311" y="-66.5" font-family="Helvetica,sans-Serif" font-size="10.00">_str_n::constexpr_str_view</text>
<text text-anchor="middle" x="369" y="-55.5" font-family="Helvetica,sans-Serif" font-size="10.00">_t&lt; char_T &gt;</text>
</a>
</g>
</g>
<!-- Node1&#45;&gt;Node3 -->
<g id="edge2" class="edge">
<title>Node1&#45;&gt;Node3</title>
<path fill="none" stroke="#63b8ff" d="M277.54,-53.34C285.92,-54.79 294.5,-56.28 302.88,-57.73"/>
<polygon fill="#63b8ff" stroke="#63b8ff" points="277.89,-49.85 267.44,-51.6 276.7,-56.75 277.89,-49.85"/>
</g>
<!-- Node5 -->
<g id="node5" class="node">
<title>Node5</title>
<g id="a_node5"><a xlink:href="structelc_1_1defs_1_1base_1_1type__name__t.html" target="_top" xlink:title=" ">
<polygon fill="white" stroke="#666666" points="421.5,-30 316.5,-30 316.5,0 421.5,0 421.5,-30"/>
<text text-anchor="start" x="324.5" y="-18" font-family="Helvetica,sans-Serif" font-size="10.00">elc::defs::base::type</text>
<text text-anchor="middle" x="369" y="-7" font-family="Helvetica,sans-Serif" font-size="10.00">_name_t&lt; char &gt;</text>
</a>
</g>
</g>
<!-- Node1&#45;&gt;Node5 -->
<g id="edge4" class="edge">
<title>Node1&#45;&gt;Node5</title>
<path fill="none" stroke="#63b8ff" d="M277.3,-30.7C290.34,-28.44 303.88,-26.1 316.39,-23.93"/>
<polygon fill="#63b8ff" stroke="#63b8ff" points="276.7,-27.25 267.44,-32.4 277.89,-34.15 276.7,-27.25"/>
</g>
<!-- Node2 -->
<g id="node2" class="node">
<title>Node2</title>
<g id="a_node2"><a xlink:href="structelc_1_1defs_1_1base_1_1array__like__n_1_1array__like__view__t.html" target="_top" xlink:title=" ">
<polygon fill="white" stroke="#666666" points="119,-62.5 0,-62.5 0,-21.5 119,-21.5 119,-62.5"/>
<text text-anchor="start" x="8" y="-50.5" font-family="Helvetica,sans-Serif" font-size="10.00">elc::defs::base::array</text>
<text text-anchor="start" x="8" y="-39.5" font-family="Helvetica,sans-Serif" font-size="10.00">_like_n::array_like_view</text>
<text text-anchor="middle" x="59.5" y="-28.5" font-family="Helvetica,sans-Serif" font-size="10.00">_t&lt; T &gt;</text>
</a>
</g>
</g>
<!-- Node2&#45;&gt;Node1 -->
<g id="edge1" class="edge">
<title>Node2&#45;&gt;Node1</title>
<path fill="none" stroke="#63b8ff" d="M129.2,-42C137.82,-42 146.55,-42 154.93,-42"/>
<polygon fill="#63b8ff" stroke="#63b8ff" points="129.16,-38.5 119.16,-42 129.16,-45.5 129.16,-38.5"/>
</g>
<!-- Node4 -->
<g id="node4" class="node">
<title>Node4</title>
<g id="a_node4"><a xlink:href="structelc_1_1defs_1_1base_1_1constexpr__str__n_1_1constexpr__str__t.html" target="_top" xlink:title="告知其他elc库接口这是编译时常量字符串，并提供编译时计算好的内容，包括但不限于hash、bmh头、bitmark等，用于加速库操作">
<polygon fill="white" stroke="#666666" points="600,-89.5 471,-89.5 471,-48.5 600,-48.5 600,-89.5"/>
<text text-anchor="start" x="479" y="-77.5" font-family="Helvetica,sans-Serif" font-size="10.00">elc::defs::base::constexpr</text>
<text text-anchor="start" x="479" y="-66.5" font-family="Helvetica,sans-Serif" font-size="10.00">_str_n::constexpr_str_t</text>
<text text-anchor="middle" x="535.5" y="-55.5" font-family="Helvetica,sans-Serif" font-size="10.00">&lt; char_T &gt;</text>
</a>
</g>
</g>
<!-- Node3&#45;&gt;Node4 -->
<g id="edge3" class="edge">
<title>Node3&#45;&gt;Node4</title>
<path fill="none" stroke="#63b8ff" d="M445.04,-69C453.63,-69 462.33,-69 470.76,-69"/>
<polygon fill="#63b8ff" stroke="#63b8ff" points="445.01,-65.5 435.01,-69 445.01,-72.5 445.01,-65.5"/>
</g>
</g>
</svg>
