<?xml version="1.0" encoding="UTF-8" standalone="no"?>
<!DOCTYPE svg PUBLIC "-//W3C//DTD SVG 1.1//EN"
 "http://www.w3.org/Graphics/SVG/1.1/DTD/svg11.dtd">
<!-- Generated by graphviz version 6.0.1 (20220911.1526)
 -->
<!-- Title: elc::defs::namespace_n::namespace_t::namespace_t Pages: 1 -->
<svg width="337pt" height="194pt"
 viewBox="0.00 0.00 337.00 193.50" xmlns="http://www.w3.org/2000/svg" xmlns:xlink="http://www.w3.org/1999/xlink">
<g id="graph0" class="graph" transform="scale(1 1) rotate(0) translate(4 189.5)">
<title>elc::defs::namespace_n::namespace_t::namespace_t</title>
<!-- Node1 -->
<g id="node1" class="node">
<title>Node1</title>
<g id="a_node1"><a xlink:title=" ">
<polygon fill="#999999" stroke="#666666" points="156,-102 0,-102 0,-72 156,-72 156,-102"/>
<text text-anchor="start" x="8" y="-90" font-family="Helvetica,sans-Serif" font-size="10.00">elc::defs::namespace</text>
<text text-anchor="middle" x="78" y="-79" font-family="Helvetica,sans-Serif" font-size="10.00">_n::namespace_t::namespace_t</text>
</a>
</g>
</g>
<!-- Node2 -->
<g id="node2" class="node">
<title>Node2</title>
<g id="a_node2"><a xlink:href="structelc_1_1defs_1_1namespace__n_1_1namespace__t.html#a93cc5782c73c0dbcbab53b64307359f7" target="_top" xlink:title=" ">
<polygon fill="white" stroke="#666666" points="316,-185.5 205,-185.5 205,-144.5 316,-144.5 316,-185.5"/>
<text text-anchor="start" x="213" y="-173.5" font-family="Helvetica,sans-Serif" font-size="10.00">elc::defs::namespace</text>
<text text-anchor="start" x="213" y="-162.5" font-family="Helvetica,sans-Serif" font-size="10.00">_n::namespace_t::get</text>
<text text-anchor="middle" x="260.5" y="-151.5" font-family="Helvetica,sans-Serif" font-size="10.00">_symbol_type_map</text>
</a>
</g>
</g>
<!-- Node1&#45;&gt;Node2 -->
<g id="edge1" class="edge">
<title>Node1&#45;&gt;Node2</title>
<path fill="none" stroke="#63b8ff" d="M113.8,-102.04C138.95,-112.9 173.46,-127.82 202.59,-140.41"/>
<polygon fill="#63b8ff" stroke="#63b8ff" points="201.27,-143.65 211.84,-144.4 204.05,-137.22 201.27,-143.65"/>
</g>
<!-- Node3 -->
<g id="node3" class="node">
<title>Node3</title>
<g id="a_node3"><a xlink:href="structelc_1_1defs_1_1core_1_1node__like.html#a598fc97568cbdde47683e1ef79ae619b" target="_top" xlink:title=" ">
<polygon fill="white" stroke="#666666" points="313,-126 208,-126 208,-96 313,-96 313,-126"/>
<text text-anchor="start" x="216" y="-114" font-family="Helvetica,sans-Serif" font-size="10.00">elc::defs::core::node</text>
<text text-anchor="middle" x="260.5" y="-103" font-family="Helvetica,sans-Serif" font-size="10.00">_like::operator&amp;</text>
</a>
</g>
</g>
<!-- Node1&#45;&gt;Node3 -->
<g id="edge2" class="edge">
<title>Node1&#45;&gt;Node3</title>
<path fill="none" stroke="#63b8ff" d="M156.07,-97.25C170.04,-99.11 184.45,-101.02 197.9,-102.81"/>
<polygon fill="#63b8ff" stroke="#63b8ff" points="197.61,-106.3 207.99,-104.15 198.53,-99.36 197.61,-106.3"/>
</g>
<!-- Node4 -->
<g id="node4" class="node">
<title>Node4</title>
<g id="a_node4"><a xlink:href="structelc_1_1defs_1_1memory_1_1ptr__n_1_1base__ptr__t.html#a01704df2c5d7644d23f29ad567e5b481" target="_top" xlink:title=" ">
<polygon fill="white" stroke="#666666" points="328,-78 193,-78 193,-48 328,-48 328,-78"/>
<text text-anchor="start" x="201" y="-66" font-family="Helvetica,sans-Serif" font-size="10.00">elc::defs::memory::</text>
<text text-anchor="middle" x="260.5" y="-55" font-family="Helvetica,sans-Serif" font-size="10.00">ptr_n::base_ptr_t::operator*</text>
</a>
</g>
</g>
<!-- Node1&#45;&gt;Node4 -->
<g id="edge3" class="edge">
<title>Node1&#45;&gt;Node4</title>
<path fill="none" stroke="#63b8ff" d="M156.07,-76.75C164.98,-75.57 174.07,-74.36 182.97,-73.18"/>
<polygon fill="#63b8ff" stroke="#63b8ff" points="183.48,-76.64 192.93,-71.85 182.56,-69.7 183.48,-76.64"/>
</g>
<!-- Node5 -->
<g id="node5" class="node">
<title>Node5</title>
<g id="a_node5"><a xlink:href="structelc_1_1defs_1_1memory_1_1ptr__n_1_1base__ptr__t.html#a145161e074a26342128088443eee94cf" target="_top" xlink:title=" ">
<polygon fill="white" stroke="#666666" points="329,-30 192,-30 192,0 329,0 329,-30"/>
<text text-anchor="start" x="200" y="-18" font-family="Helvetica,sans-Serif" font-size="10.00">elc::defs::memory::</text>
<text text-anchor="middle" x="260.5" y="-7" font-family="Helvetica,sans-Serif" font-size="10.00">ptr_n::base_ptr_t::operator=</text>
</a>
</g>
</g>
<!-- Node1&#45;&gt;Node5 -->
<g id="edge4" class="edge">
<title>Node1&#45;&gt;Node5</title>
<path fill="none" stroke="#63b8ff" d="M112.9,-71.97C135.23,-62.23 165.19,-49.45 192,-39 196.54,-37.23 201.27,-35.44 206.03,-33.68"/>
<polygon fill="#63b8ff" stroke="#63b8ff" points="207.6,-36.83 215.79,-30.11 205.19,-30.26 207.6,-36.83"/>
</g>
</g>
</svg>
