<?xml version="1.0" encoding="UTF-8" standalone="no"?>
<!DOCTYPE svg PUBLIC "-//W3C//DTD SVG 1.1//EN"
 "http://www.w3.org/Graphics/SVG/1.1/DTD/svg11.dtd">
<!-- Generated by graphviz version 6.0.1 (20220911.1526)
 -->
<!-- Title: elc::defs::string_n::string_data_n::base_string_data_t::positive_gc_profit Pages: 1 -->
<!--zoomable 125 -->
<svg id="main" version="1.1" xmlns="http://www.w3.org/2000/svg" xmlns:xlink="http://www.w3.org/1999/xlink" xml:space="preserve" onload="init(evt)">
<style type="text/css"><![CDATA[
.edge:hover path { stroke: red; }
.edge:hover polygon { stroke: red; fill: red; }
]]></style>
<script type="text/javascript"><![CDATA[
var edges = document.getElementsByTagName('g');
if (edges && edges.length) {
  for (var i=0;i<edges.length;i++) {
    if (edges[i].id.substr(0,4)=='edge') {
      edges[i].setAttribute('class','edge');
    }
  }
}
]]></script>
        <defs>
                <circle id="rim" cx="0" cy="0" r="7"/>
                <circle id="rim2" cx="0" cy="0" r="3.5"/>
                <g id="zoomPlus">
                        <use xlink:href="#rim" fill="#404040">
                                <set attributeName="fill" to="#808080" begin="zoomplus.mouseover" end="zoomplus.mouseout"/>
                        </use>
                        <path d="M-4,0h8M0,-4v8" fill="none" stroke="white" stroke-width="1.5" pointer-events="none"/>
                </g>
                <g id="zoomMin">
                        <use xlink:href="#rim" fill="#404040">
                                <set attributeName="fill" to="#808080" begin="zoomminus.mouseover" end="zoomminus.mouseout"/>
                        </use>
                        <path d="M-4,0h8" fill="none" stroke="white" stroke-width="1.5" pointer-events="none"/>
                </g>
                <g id="dirArrow">
                        <path fill="none" stroke="white" stroke-width="1.5" d="M0,-3.0v7 M-2.5,-0.5L0,-3.0L2.5,-0.5"/>
                </g>
               <g id="resetDef">
                       <use xlink:href="#rim2" fill="#404040">
                               <set attributeName="fill" to="#808080" begin="reset.mouseover" end="reset.mouseout"/>
                       </use>
               </g>
        </defs>

<script type="text/javascript">
var viewWidth = 631;
var viewHeight = 125;
var sectionId = 'dynsection-41';
</script>
<script xlink:href="svgpan.js"/>
<svg id="graph" class="graph">
<g id="viewport">
<title>elc::defs::string_n::string_data_n::base_string_data_t::positive_gc_profit</title>
<!-- Node1 -->
<g id="node1" class="node">
<title>Node1</title>
<g id="a_node1"><a xlink:title=" ">
<polygon fill="#999999" stroke="#666666" points="116,-84 0,-84 0,-32 116,-32 116,-84"/>
<text text-anchor="start" x="8" y="-72" font-family="Helvetica,sans-Serif" font-size="10.00">elc::defs::string_n</text>
<text text-anchor="start" x="8" y="-61" font-family="Helvetica,sans-Serif" font-size="10.00">::string_data_n::base</text>
<text text-anchor="start" x="8" y="-50" font-family="Helvetica,sans-Serif" font-size="10.00">_string_data_t::positive</text>
<text text-anchor="middle" x="58" y="-39" font-family="Helvetica,sans-Serif" font-size="10.00">_gc_profit</text>
</a>
</g>
</g>
<!-- Node2 -->
<g id="node2" class="node">
<title>Node2</title>
<g id="a_node2"><a xlink:href="structelc_1_1defs_1_1string__n_1_1string__data__n_1_1base__string__data__t.html#a4310bddc1aa2f4c61118c83cfda142a3" target="_top" xlink:title=" ">
<polygon fill="white" stroke="#666666" points="265,-84 152,-84 152,-32 265,-32 265,-84"/>
<text text-anchor="start" x="160" y="-72" font-family="Helvetica,sans-Serif" font-size="10.00">elc::defs::string_n</text>
<text text-anchor="start" x="160" y="-61" font-family="Helvetica,sans-Serif" font-size="10.00">::string_data_n::base</text>
<text text-anchor="start" x="160" y="-50" font-family="Helvetica,sans-Serif" font-size="10.00">_string_data_t::get_gc</text>
<text text-anchor="middle" x="208.5" y="-39" font-family="Helvetica,sans-Serif" font-size="10.00">_profit</text>
</a>
</g>
</g>
<!-- Node1&#45;&gt;Node2 -->
<g id="edge1" class="edge">
<title>Node1&#45;&gt;Node2</title>
<path fill="none" stroke="#63b8ff" d="M116.41,-58C124.65,-58 133.18,-58 141.57,-58"/>
<polygon fill="#63b8ff" stroke="#63b8ff" points="141.7,-61.5 151.7,-58 141.7,-54.5 141.7,-61.5"/>
</g>
<!-- Node3 -->
<g id="node3" class="node">
<title>Node3</title>
<g id="a_node3"><a xlink:href="structelc_1_1defs_1_1string__n_1_1string__data__n_1_1base__string__data__t.html#ae456734a95cc74c83fd9cfd7d7724c00" target="_top" xlink:title=" ">
<polygon fill="white" stroke="#666666" points="463,-111.5 301,-111.5 301,-70.5 463,-70.5 463,-111.5"/>
<text text-anchor="start" x="309" y="-99.5" font-family="Helvetica,sans-Serif" font-size="10.00">elc::defs::string_n</text>
<text text-anchor="start" x="309" y="-88.5" font-family="Helvetica,sans-Serif" font-size="10.00">::string_data_n::base</text>
<text text-anchor="middle" x="382" y="-77.5" font-family="Helvetica,sans-Serif" font-size="10.00">_string_data_t::get_memory_cost</text>
</a>
</g>
</g>
<!-- Node2&#45;&gt;Node3 -->
<g id="edge2" class="edge">
<title>Node2&#45;&gt;Node3</title>
<path fill="none" stroke="#63b8ff" d="M265.18,-68.71C273.5,-70.31 282.24,-72 291.05,-73.69"/>
<polygon fill="#63b8ff" stroke="#63b8ff" points="290.51,-77.15 300.99,-75.61 291.84,-70.28 290.51,-77.15"/>
</g>
<!-- Node5 -->
<g id="node5" class="node">
<title>Node5</title>
<g id="a_node5"><a xlink:href="structelc_1_1defs_1_1string__n_1_1string__data__n_1_1base__string__data__t.html#a7384849ba6050fa2a369c8408921029e" target="_top" xlink:title=" ">
<polygon fill="white" stroke="#666666" points="451,-52 313,-52 313,0 451,0 451,-52"/>
<text text-anchor="start" x="321" y="-40" font-family="Helvetica,sans-Serif" font-size="10.00">elc::defs::string_n</text>
<text text-anchor="start" x="321" y="-29" font-family="Helvetica,sans-Serif" font-size="10.00">::string_data_n::base</text>
<text text-anchor="start" x="321" y="-18" font-family="Helvetica,sans-Serif" font-size="10.00">_string_data_t::get_memory</text>
<text text-anchor="middle" x="382" y="-7" font-family="Helvetica,sans-Serif" font-size="10.00">_cost_after_gc</text>
</a>
</g>
</g>
<!-- Node2&#45;&gt;Node5 -->
<g id="edge4" class="edge">
<title>Node2&#45;&gt;Node5</title>
<path fill="none" stroke="#63b8ff" d="M265.18,-47.61C277.14,-45.38 290,-42.98 302.64,-40.62"/>
<polygon fill="#63b8ff" stroke="#63b8ff" points="303.52,-44.02 312.71,-38.74 302.24,-37.14 303.52,-44.02"/>
</g>
<!-- Node4 -->
<g id="node4" class="node">
<title>Node4</title>
<g id="a_node4"><a xlink:href="structelc_1_1defs_1_1string__n_1_1string__data__n_1_1base__string__data__t.html#a30a518bb1035e437a55ad0aaec957940" target="_top" xlink:title=" ">
<polygon fill="white" stroke="#666666" points="623,-117 499,-117 499,-65 623,-65 623,-117"/>
<text text-anchor="start" x="507" y="-105" font-family="Helvetica,sans-Serif" font-size="10.00">elc::defs::string_n</text>
<text text-anchor="start" x="507" y="-94" font-family="Helvetica,sans-Serif" font-size="10.00">::string_data_n::base</text>
<text text-anchor="start" x="507" y="-83" font-family="Helvetica,sans-Serif" font-size="10.00">_string_data_t::get_base</text>
<text text-anchor="middle" x="561" y="-72" font-family="Helvetica,sans-Serif" font-size="10.00">_memory_cost</text>
</a>
</g>
</g>
<!-- Node3&#45;&gt;Node4 -->
<g id="edge3" class="edge">
<title>Node3&#45;&gt;Node4</title>
<path fill="none" stroke="#63b8ff" d="M463.21,-91C471.73,-91 480.35,-91 488.76,-91"/>
<polygon fill="#63b8ff" stroke="#63b8ff" points="488.89,-94.5 498.89,-91 488.89,-87.5 488.89,-94.5"/>
</g>
</g>
</svg>
        <g id="navigator" transform="translate(0 0)" fill="#404254">
                <rect fill="#f2f5e9" fill-opacity="0.5" stroke="#606060" stroke-width=".5" x="0" y="0" width="60" height="60"/>
                <use id="zoomplus" xlink:href="#zoomPlus" x="17" y="9" onmousedown="handleZoom(evt,'in')"/>
                <use id="zoomminus" xlink:href="#zoomMin" x="42" y="9" onmousedown="handleZoom(evt,'out')"/>
                <use id="reset" xlink:href="#resetDef" x="30" y="36" onmousedown="handleReset()"/>
                <g id="arrowUp" xlink:href="#dirArrow" transform="translate(30 24)" onmousedown="handlePan(0,-1)">
                  <use xlink:href="#rim" fill="#404040">
                        <set attributeName="fill" to="#808080" begin="arrowUp.mouseover" end="arrowUp.mouseout"/>
                  </use>
                  <path fill="none" stroke="white" stroke-width="1.5" d="M0,-3.0v7 M-2.5,-0.5L0,-3.0L2.5,-0.5"/>
                </g>
                <g id="arrowRight" xlink:href="#dirArrow" transform="rotate(90) translate(36 -43)" onmousedown="handlePan(1,0)">
                  <use xlink:href="#rim" fill="#404040">
                        <set attributeName="fill" to="#808080" begin="arrowRight.mouseover" end="arrowRight.mouseout"/>
                  </use>
                  <path fill="none" stroke="white" stroke-width="1.5" d="M0,-3.0v7 M-2.5,-0.5L0,-3.0L2.5,-0.5"/>
                </g>
                <g id="arrowDown" xlink:href="#dirArrow" transform="rotate(180) translate(-30 -48)" onmousedown="handlePan(0,1)">
                  <use xlink:href="#rim" fill="#404040">
                        <set attributeName="fill" to="#808080" begin="arrowDown.mouseover" end="arrowDown.mouseout"/>
                  </use>
                  <path fill="none" stroke="white" stroke-width="1.5" d="M0,-3.0v7 M-2.5,-0.5L0,-3.0L2.5,-0.5"/>
                </g>
                <g id="arrowLeft" xlink:href="#dirArrow" transform="rotate(270) translate(-36 17)" onmousedown="handlePan(-1,0)">
                  <use xlink:href="#rim" fill="#404040">
                        <set attributeName="fill" to="#808080" begin="arrowLeft.mouseover" end="arrowLeft.mouseout"/>
                  </use>
                  <path fill="none" stroke="white" stroke-width="1.5" d="M0,-3.0v7 M-2.5,-0.5L0,-3.0L2.5,-0.5"/>
                </g>
        </g>
        <svg viewBox="0 0 15 15" width="100%" height="30px" preserveAspectRatio="xMaxYMin meet">
         <g id="arrow_out" transform="scale(0.3 0.3)">
          <a xlink:href="structelc_1_1defs_1_1string__n_1_1string__data__n_1_1base__string__data__t_a227895efa43cef13ea08acbb270d1fd6_cgraph_org.svg" target="_base">
           <rect id="button" ry="5" rx="5" y="6" x="6" height="38" width="38"
                fill="#f2f5e9" fill-opacity="0.5" stroke="#606060" stroke-width="1.0"/>
           <path id="arrow"
             d="M 11.500037,31.436501 C 11.940474,20.09759 22.043105,11.32322 32.158766,21.979434 L 37.068811,17.246167 C 37.068811,17.246167 37.088388,32 37.088388,32 L 22.160133,31.978069 C 22.160133,31.978069 26.997745,27.140456 26.997745,27.140456 C 18.528582,18.264221 13.291696,25.230495 11.500037,31.436501 z"
             style="fill:#404040;"/>
          </a>
         </g>
        </svg>
</svg>
