<?xml version="1.0" encoding="UTF-8" standalone="no"?>
<!DOCTYPE svg PUBLIC "-//W3C//DTD SVG 1.1//EN"
 "http://www.w3.org/Graphics/SVG/1.1/DTD/svg11.dtd">
<!-- Generated by graphviz version 6.0.1 (20220911.1526)
 -->
<!-- Title: elc::defs::core::node_like::operator() Pages: 1 -->
<svg width="275pt" height="51pt"
 viewBox="0.00 0.00 275.00 50.50" xmlns="http://www.w3.org/2000/svg" xmlns:xlink="http://www.w3.org/1999/xlink">
<g id="graph0" class="graph" transform="scale(1 1) rotate(0) translate(4 46.5)">
<title>elc::defs::core::node_like::operator()</title>
<!-- Node1 -->
<g id="node1" class="node">
<title>Node1</title>
<g id="a_node1"><a xlink:title=" ">
<polygon fill="#999999" stroke="#666666" points="105,-30 0,-30 0,0 105,0 105,-30"/>
<text text-anchor="start" x="8" y="-18" font-family="Helvetica,sans-Serif" font-size="10.00">elc::defs::core::node</text>
<text text-anchor="middle" x="52.5" y="-7" font-family="Helvetica,sans-Serif" font-size="10.00">_like::operator()</text>
</a>
</g>
</g>
<!-- Node2 -->
<g id="node2" class="node">
<title>Node2</title>
<g id="a_node2"><a xlink:href="namespaceelc_1_1defs_1_1core.html#ab4cf4e3ddd5f73ad2574c3e980489a8e" target="_top" xlink:title=" ">
<polygon fill="white" stroke="#666666" points="267,-24.5 141,-24.5 141,-5.5 267,-5.5 267,-24.5"/>
<text text-anchor="middle" x="204" y="-12.5" font-family="Helvetica,sans-Serif" font-size="10.00">elc::defs::core::make_list</text>
</a>
</g>
</g>
<!-- Node1&#45;&gt;Node2 -->
<g id="edge1" class="edge">
<title>Node1&#45;&gt;Node2</title>
<path fill="none" stroke="#63b8ff" d="M105.37,-15C113.61,-15 122.27,-15 130.87,-15"/>
<polygon fill="#63b8ff" stroke="#63b8ff" points="130.93,-18.5 140.93,-15 130.93,-11.5 130.93,-18.5"/>
</g>
<!-- Node2&#45;&gt;Node2 -->
<g id="edge2" class="edge">
<title>Node2&#45;&gt;Node2</title>
<path fill="none" stroke="#63b8ff" d="M180.65,-24.58C169.29,-33.23 177.07,-42.5 204,-42.5 221.67,-42.5 231.1,-38.51 232.28,-33.32"/>
<polygon fill="#63b8ff" stroke="#63b8ff" points="235.31,-31.57 227.35,-24.58 229.21,-35.01 235.31,-31.57"/>
</g>
</g>
</svg>
