<?xml version="1.0" encoding="UTF-8" standalone="no"?>
<!DOCTYPE svg PUBLIC "-//W3C//DTD SVG 1.1//EN"
 "http://www.w3.org/Graphics/SVG/1.1/DTD/svg11.dtd">
<!-- Generated by graphviz version 6.0.1 (20220911.1526)
 -->
<!-- Title: elc::defs::core::cons Pages: 1 -->
<svg width="618pt" height="86pt"
 viewBox="0.00 0.00 618.00 86.00" xmlns="http://www.w3.org/2000/svg" xmlns:xlink="http://www.w3.org/1999/xlink">
<g id="graph0" class="graph" transform="scale(1 1) rotate(0) translate(4 82)">
<title>elc::defs::core::cons</title>
<!-- Node1 -->
<g id="node1" class="node">
<title>Node1</title>
<g id="a_node1"><a xlink:title=" ">
<polygon fill="#999999" stroke="#666666" points="451,-37 346,-37 346,-18 451,-18 451,-37"/>
<text text-anchor="middle" x="398.5" y="-25" font-family="Helvetica,sans-Serif" font-size="10.00">elc::defs::core::cons</text>
</a>
</g>
</g>
<!-- Node5 -->
<g id="node5" class="node">
<title>Node5</title>
<g id="a_node5"><a xlink:href="structelc_1_1defs_1_1core_1_1code__list.html" target="_top" xlink:title=" ">
<polygon fill="white" stroke="#666666" points="610,-56 487,-56 487,-37 610,-37 610,-56"/>
<text text-anchor="middle" x="548.5" y="-44" font-family="Helvetica,sans-Serif" font-size="10.00">elc::defs::core::code_list</text>
</a>
</g>
</g>
<!-- Node1&#45;&gt;Node5 -->
<g id="edge4" class="edge">
<title>Node1&#45;&gt;Node5</title>
<path fill="none" stroke="#63b8ff" d="M461.41,-35.45C469.83,-36.53 478.48,-37.64 486.88,-38.72"/>
<polygon fill="#63b8ff" stroke="#63b8ff" points="461.63,-31.95 451.26,-34.15 460.74,-38.89 461.63,-31.95"/>
</g>
<!-- Node6 -->
<g id="node6" class="node">
<title>Node6</title>
<g id="a_node6"><a xlink:href="structelc_1_1defs_1_1core_1_1expr.html" target="_top" xlink:title=" ">
<polygon fill="white" stroke="#666666" points="600,-19 497,-19 497,0 600,0 600,-19"/>
<text text-anchor="middle" x="548.5" y="-7" font-family="Helvetica,sans-Serif" font-size="10.00">elc::defs::core::expr</text>
</a>
</g>
</g>
<!-- Node1&#45;&gt;Node6 -->
<g id="edge5" class="edge">
<title>Node1&#45;&gt;Node6</title>
<path fill="none" stroke="#63b8ff" d="M461.4,-19.97C473.1,-18.55 485.2,-17.08 496.52,-15.7"/>
<polygon fill="#63b8ff" stroke="#63b8ff" points="460.77,-16.52 451.26,-21.2 461.61,-23.47 460.77,-16.52"/>
</g>
<!-- Node2 -->
<g id="node2" class="node">
<title>Node2</title>
<g id="a_node2"><a xlink:href="structelc_1_1defs_1_1core_1_1node__like.html" target="_top" xlink:title=" ">
<polygon fill="white" stroke="#666666" points="310,-56 185,-56 185,-37 310,-37 310,-56"/>
<text text-anchor="middle" x="247.5" y="-44" font-family="Helvetica,sans-Serif" font-size="10.00">elc::defs::core::node_like</text>
</a>
</g>
</g>
<!-- Node2&#45;&gt;Node1 -->
<g id="edge1" class="edge">
<title>Node2&#45;&gt;Node1</title>
<path fill="none" stroke="#63b8ff" d="M320.46,-37.32C329.07,-36.23 337.72,-35.12 345.97,-34.07"/>
<polygon fill="#63b8ff" stroke="#63b8ff" points="319.87,-33.87 310.39,-38.61 320.76,-40.81 319.87,-33.87"/>
</g>
<!-- Node3 -->
<g id="node3" class="node">
<title>Node3</title>
<g id="a_node3"><a xlink:title=" ">
<polygon fill="white" stroke="#666666" points="149,-78 0,-78 0,-15 149,-15 149,-78"/>
<text text-anchor="start" x="8" y="-66" font-family="Helvetica,sans-Serif" font-size="10.00">type_info_t&lt; node_like</text>
<text text-anchor="middle" x="74.5" y="-55" font-family="Helvetica,sans-Serif" font-size="10.00"> &gt;:: template </text>
<text text-anchor="start" x="8" y="-44" font-family="Helvetica,sans-Serif" font-size="10.00">	with_common_attribute</text>
<text text-anchor="start" x="8" y="-33" font-family="Helvetica,sans-Serif" font-size="10.00">&lt; abstract_base, weak_ref</text>
<text text-anchor="middle" x="74.5" y="-22" font-family="Helvetica,sans-Serif" font-size="10.00">_able, replace_able, ref_able &gt;</text>
</a>
</g>
</g>
<!-- Node3&#45;&gt;Node2 -->
<g id="edge2" class="edge">
<title>Node3&#45;&gt;Node2</title>
<path fill="none" stroke="#63b8ff" d="M159.15,-46.5C167.81,-46.5 176.5,-46.5 184.86,-46.5"/>
<polygon fill="#63b8ff" stroke="#63b8ff" points="159.01,-43 149.01,-46.5 159.01,-50 159.01,-43"/>
</g>
<!-- Node4 -->
<g id="node4" class="node">
<title>Node4</title>
<g id="a_node4"><a xlink:title=" ">
<polygon fill="white" stroke="#666666" points="308.5,-19 186.5,-19 186.5,0 308.5,0 308.5,-19"/>
<text text-anchor="middle" x="247.5" y="-7" font-family="Helvetica,sans-Serif" font-size="10.00">instance_struct&lt; cons &gt;</text>
</a>
</g>
</g>
<!-- Node4&#45;&gt;Node1 -->
<g id="edge3" class="edge">
<title>Node4&#45;&gt;Node1</title>
<path fill="none" stroke="#63b8ff" d="M318.84,-18C327.9,-19.09 337.04,-20.2 345.72,-21.24"/>
<polygon fill="#63b8ff" stroke="#63b8ff" points="319.02,-14.49 308.67,-16.77 318.18,-21.44 319.02,-14.49"/>
</g>
</g>
</svg>
