<?xml version="1.0" encoding="UTF-8" standalone="no"?>
<!DOCTYPE svg PUBLIC "-//W3C//DTD SVG 1.1//EN"
 "http://www.w3.org/Graphics/SVG/1.1/DTD/svg11.dtd">
<!-- Generated by graphviz version 6.0.1 (20220911.1526)
 -->
<!-- Title: elc::defs::memory::ptr_n::base_ptr_t::operator= Pages: 1 -->
<svg width="337pt" height="98pt"
 viewBox="0.00 0.00 337.00 97.50" xmlns="http://www.w3.org/2000/svg" xmlns:xlink="http://www.w3.org/1999/xlink">
<g id="graph0" class="graph" transform="scale(1 1) rotate(0) translate(4 93.5)">
<title>elc::defs::memory::ptr_n::base_ptr_t::operator=</title>
<!-- Node1 -->
<g id="node1" class="node">
<title>Node1</title>
<g id="a_node1"><a xlink:title=" ">
<polygon fill="#999999" stroke="#666666" points="329,-57 192,-57 192,-27 329,-27 329,-57"/>
<text text-anchor="start" x="200" y="-45" font-family="Helvetica,sans-Serif" font-size="10.00">elc::defs::memory::</text>
<text text-anchor="middle" x="260.5" y="-34" font-family="Helvetica,sans-Serif" font-size="10.00">ptr_n::base_ptr_t::operator=</text>
</a>
</g>
</g>
<!-- Node2 -->
<g id="node2" class="node">
<title>Node2</title>
<g id="a_node2"><a xlink:href="structelc_1_1defs_1_1namespace__n_1_1namespace__t.html#a4a68970b6308e8c8ad2c332e9122f631" target="_top" xlink:title=" ">
<polygon fill="white" stroke="#666666" points="136,-89.5 20,-89.5 20,-48.5 136,-48.5 136,-89.5"/>
<text text-anchor="start" x="28" y="-77.5" font-family="Helvetica,sans-Serif" font-size="10.00">elc::defs::namespace</text>
<text text-anchor="start" x="28" y="-66.5" font-family="Helvetica,sans-Serif" font-size="10.00">_n::namespace_t::inter</text>
<text text-anchor="middle" x="78" y="-55.5" font-family="Helvetica,sans-Serif" font-size="10.00">_namespace</text>
</a>
</g>
</g>
<!-- Node1&#45;&gt;Node2 -->
<g id="edge1" class="edge">
<title>Node1&#45;&gt;Node2</title>
<path fill="none" stroke="#63b8ff" d="M181.8,-53.62C166.48,-55.91 150.67,-58.28 136.18,-60.45"/>
<polygon fill="#63b8ff" stroke="#63b8ff" points="182.4,-57.07 191.77,-52.13 181.37,-50.15 182.4,-57.07"/>
</g>
<!-- Node3 -->
<g id="node3" class="node">
<title>Node3</title>
<g id="a_node3"><a xlink:href="structelc_1_1defs_1_1namespace__n_1_1namespace__t.html#ace260d2875d03bf69aa2b02fa36fe6eb" target="_top" xlink:title=" ">
<polygon fill="white" stroke="#666666" points="156,-30 0,-30 0,0 156,0 156,-30"/>
<text text-anchor="start" x="8" y="-18" font-family="Helvetica,sans-Serif" font-size="10.00">elc::defs::namespace</text>
<text text-anchor="middle" x="78" y="-7" font-family="Helvetica,sans-Serif" font-size="10.00">_n::namespace_t::namespace_t</text>
</a>
</g>
</g>
<!-- Node1&#45;&gt;Node3 -->
<g id="edge2" class="edge">
<title>Node1&#45;&gt;Node3</title>
<path fill="none" stroke="#63b8ff" d="M181.88,-30.39C173.37,-29.12 164.71,-27.82 156.21,-26.55"/>
<polygon fill="#63b8ff" stroke="#63b8ff" points="181.37,-33.85 191.77,-31.87 182.4,-26.93 181.37,-33.85"/>
</g>
</g>
</svg>
