<?xml version="1.0" encoding="UTF-8" standalone="no"?>
<!DOCTYPE svg PUBLIC "-//W3C//DTD SVG 1.1//EN"
 "http://www.w3.org/Graphics/SVG/1.1/DTD/svg11.dtd">
<!-- Generated by graphviz version 6.0.1 (20220911.1526)
 -->
<!-- Title: elc::defs::core::node_like::destroy Pages: 1 -->
<svg width="575pt" height="146pt"
 viewBox="0.00 0.00 575.00 145.50" xmlns="http://www.w3.org/2000/svg" xmlns:xlink="http://www.w3.org/1999/xlink">
<g id="graph0" class="graph" transform="scale(1 1) rotate(0) translate(4 141.5)">
<title>elc::defs::core::node_like::destroy</title>
<!-- Node1 -->
<g id="node1" class="node">
<title>Node1</title>
<g id="a_node1"><a xlink:title=" ">
<polygon fill="#999999" stroke="#666666" points="105,-78 0,-78 0,-48 105,-48 105,-78"/>
<text text-anchor="start" x="8" y="-66" font-family="Helvetica,sans-Serif" font-size="10.00">elc::defs::core::node</text>
<text text-anchor="middle" x="52.5" y="-55" font-family="Helvetica,sans-Serif" font-size="10.00">_like::destroy</text>
</a>
</g>
</g>
<!-- Node2 -->
<g id="node2" class="node">
<title>Node2</title>
<g id="a_node2"><a xlink:href="structelc_1_1defs_1_1core_1_1node__like.html#a772b69c7911dabdc464ae71efa6f6318" target="_top" xlink:title=" ">
<polygon fill="white" stroke="#666666" points="247,-78 141,-78 141,-48 247,-48 247,-78"/>
<text text-anchor="start" x="149" y="-66" font-family="Helvetica,sans-Serif" font-size="10.00">elc::defs::core::node</text>
<text text-anchor="middle" x="194" y="-55" font-family="Helvetica,sans-Serif" font-size="10.00">_like::be_replace_as</text>
</a>
</g>
</g>
<!-- Node1&#45;&gt;Node2 -->
<g id="edge1" class="edge">
<title>Node1&#45;&gt;Node2</title>
<path fill="none" stroke="#63b8ff" d="M105.05,-63C113.33,-63 121.97,-63 130.47,-63"/>
<polygon fill="#63b8ff" stroke="#63b8ff" points="130.73,-66.5 140.73,-63 130.73,-59.5 130.73,-66.5"/>
</g>
<!-- Node3 -->
<g id="node3" class="node">
<title>Node3</title>
<g id="a_node3"><a xlink:href="structelc_1_1defs_1_1memory_1_1others__n_1_1replace__able.html#a098536625acaf5d31620b07fe3221fff" target="_top" xlink:title=" ">
<polygon fill="white" stroke="#666666" points="398,-137.5 283,-137.5 283,-96.5 398,-96.5 398,-137.5"/>
<text text-anchor="start" x="291" y="-125.5" font-family="Helvetica,sans-Serif" font-size="10.00">elc::defs::memory::</text>
<text text-anchor="start" x="291" y="-114.5" font-family="Helvetica,sans-Serif" font-size="10.00">others_n::replace_able</text>
<text text-anchor="middle" x="340.5" y="-103.5" font-family="Helvetica,sans-Serif" font-size="10.00">::be_replace_as</text>
</a>
</g>
</g>
<!-- Node2&#45;&gt;Node3 -->
<g id="edge2" class="edge">
<title>Node2&#45;&gt;Node3</title>
<path fill="none" stroke="#63b8ff" d="M235.25,-78.04C247.55,-82.64 261.4,-87.81 274.88,-92.85"/>
<polygon fill="#63b8ff" stroke="#63b8ff" points="274.02,-96.27 284.61,-96.49 276.47,-89.71 274.02,-96.27"/>
</g>
<!-- Node5 -->
<g id="node5" class="node">
<title>Node5</title>
<g id="a_node5"><a xlink:href="structelc_1_1defs_1_1core_1_1node__like.html#aefcdaffad816fe7ead26436a92ac268a" target="_top" xlink:title=" ">
<polygon fill="white" stroke="#666666" points="393,-78 288,-78 288,-48 393,-48 393,-78"/>
<text text-anchor="start" x="296" y="-66" font-family="Helvetica,sans-Serif" font-size="10.00">elc::defs::core::node</text>
<text text-anchor="middle" x="340.5" y="-55" font-family="Helvetica,sans-Serif" font-size="10.00">_like::clear</text>
</a>
</g>
</g>
<!-- Node2&#45;&gt;Node5 -->
<g id="edge4" class="edge">
<title>Node2&#45;&gt;Node5</title>
<path fill="none" stroke="#63b8ff" d="M247.17,-63C257.11,-63 267.61,-63 277.81,-63"/>
<polygon fill="#63b8ff" stroke="#63b8ff" points="277.89,-66.5 287.89,-63 277.89,-59.5 277.89,-66.5"/>
</g>
<!-- Node6 -->
<g id="node6" class="node">
<title>Node6</title>
<g id="a_node6"><a xlink:href="structelc_1_1defs_1_1memory_1_1ptr__n_1_1ptr__t.html#afa7ec8ea3b1c71df95fdfc05b7d726d8" target="_top" xlink:title=" ">
<polygon fill="white" stroke="#666666" points="391,-30 290,-30 290,0 391,0 391,-30"/>
<text text-anchor="start" x="298" y="-18" font-family="Helvetica,sans-Serif" font-size="10.00">elc::defs::memory::</text>
<text text-anchor="middle" x="340.5" y="-7" font-family="Helvetica,sans-Serif" font-size="10.00">ptr_n::ptr_t::get</text>
</a>
</g>
</g>
<!-- Node2&#45;&gt;Node6 -->
<g id="edge5" class="edge">
<title>Node2&#45;&gt;Node6</title>
<path fill="none" stroke="#63b8ff" d="M240.32,-47.94C254.31,-43.3 269.87,-38.13 284.44,-33.29"/>
<polygon fill="#63b8ff" stroke="#63b8ff" points="285.95,-36.48 294.34,-30 283.74,-29.83 285.95,-36.48"/>
</g>
<!-- Node4 -->
<g id="node4" class="node">
<title>Node4</title>
<g id="a_node4"><a xlink:href="structelc_1_1defs_1_1memory_1_1others__n_1_1replace__able.html#a6c4c40ad25a3907b6407cd9352f7b52a" target="_top" xlink:title=" ">
<polygon fill="white" stroke="#666666" points="558,-137.5 443,-137.5 443,-96.5 558,-96.5 558,-137.5"/>
<text text-anchor="start" x="451" y="-125.5" font-family="Helvetica,sans-Serif" font-size="10.00">elc::defs::memory::</text>
<text text-anchor="start" x="451" y="-114.5" font-family="Helvetica,sans-Serif" font-size="10.00">others_n::replace_able</text>
<text text-anchor="middle" x="500.5" y="-103.5" font-family="Helvetica,sans-Serif" font-size="10.00">::replaced</text>
</a>
</g>
</g>
<!-- Node3&#45;&gt;Node4 -->
<g id="edge3" class="edge">
<title>Node3&#45;&gt;Node4</title>
<path fill="none" stroke="#63b8ff" d="M398.1,-117C409.33,-117 421.22,-117 432.75,-117"/>
<polygon fill="#63b8ff" stroke="#63b8ff" points="432.77,-120.5 442.77,-117 432.77,-113.5 432.77,-120.5"/>
</g>
<!-- Node7 -->
<g id="node7" class="node">
<title>Node7</title>
<g id="a_node7"><a xlink:href="structelc_1_1defs_1_1memory_1_1ptr__n_1_1ptr__t.html#ab0ddc2cf5279d67e43eedad6d7301ae1" target="_top" xlink:title=" ">
<polygon fill="white" stroke="#666666" points="567,-30 434,-30 434,0 567,0 567,-30"/>
<text text-anchor="start" x="442" y="-18" font-family="Helvetica,sans-Serif" font-size="10.00">elc::defs::memory::</text>
<text text-anchor="middle" x="500.5" y="-7" font-family="Helvetica,sans-Serif" font-size="10.00">ptr_n::ptr_t::replace_check</text>
</a>
</g>
</g>
<!-- Node6&#45;&gt;Node7 -->
<g id="edge6" class="edge">
<title>Node6&#45;&gt;Node7</title>
<path fill="none" stroke="#63b8ff" d="M391.06,-15C401.45,-15 412.64,-15 423.74,-15"/>
<polygon fill="#63b8ff" stroke="#63b8ff" points="423.89,-18.5 433.89,-15 423.89,-11.5 423.89,-18.5"/>
</g>
</g>
</svg>
