<?xml version="1.0" encoding="UTF-8" standalone="no"?>
<!DOCTYPE svg PUBLIC "-//W3C//DTD SVG 1.1//EN"
 "http://www.w3.org/Graphics/SVG/1.1/DTD/svg11.dtd">
<!-- Generated by graphviz version 6.0.1 (20220911.1526)
 -->
<!-- Title: elc::defs::string_n::string_t::operator&lt;=&gt; Pages: 1 -->
<svg width="256pt" height="98pt"
 viewBox="0.00 0.00 256.00 97.50" xmlns="http://www.w3.org/2000/svg" xmlns:xlink="http://www.w3.org/1999/xlink">
<g id="graph0" class="graph" transform="scale(1 1) rotate(0) translate(4 93.5)">
<title>elc::defs::string_n::string_t::operator&lt;=&gt;</title>
<!-- Node1 -->
<g id="node1" class="node">
<title>Node1</title>
<g id="a_node1"><a xlink:title=" ">
<polygon fill="#999999" stroke="#666666" points="114,-62.5 0,-62.5 0,-32.5 114,-32.5 114,-62.5"/>
<text text-anchor="start" x="8" y="-50.5" font-family="Helvetica,sans-Serif" font-size="10.00">elc::defs::string_n</text>
<text text-anchor="middle" x="57" y="-39.5" font-family="Helvetica,sans-Serif" font-size="10.00">::string_t::operator&lt;=&gt;</text>
</a>
</g>
</g>
<!-- Node2 -->
<g id="node2" class="node">
<title>Node2</title>
<g id="a_node2"><a xlink:href="structelc_1_1defs_1_1string__n_1_1string__t.html#a0e8ed3f8eb3c1ca049b494100580fa5c" target="_top" xlink:title=" ">
<polygon fill="white" stroke="#666666" points="246,-89.5 152,-89.5 152,-59.5 246,-59.5 246,-89.5"/>
<text text-anchor="start" x="160" y="-77.5" font-family="Helvetica,sans-Serif" font-size="10.00">elc::defs::string_n</text>
<text text-anchor="middle" x="199" y="-66.5" font-family="Helvetica,sans-Serif" font-size="10.00">::string_t::size</text>
</a>
</g>
</g>
<!-- Node1&#45;&gt;Node2 -->
<g id="edge1" class="edge">
<title>Node1&#45;&gt;Node2</title>
<path fill="none" stroke="#63b8ff" d="M114.14,-58.33C123.2,-60.07 132.59,-61.88 141.66,-63.63"/>
<polygon fill="#63b8ff" stroke="#63b8ff" points="141.25,-67.12 151.73,-65.58 142.57,-60.25 141.25,-67.12"/>
</g>
<!-- Node3 -->
<g id="node3" class="node">
<title>Node3</title>
<g id="a_node3"><a xlink:href="structelc_1_1defs_1_1string__n_1_1string__t.html#aeef82d670836d68d65c361dc35cd528c" target="_top" xlink:title=" ">
<polygon fill="white" stroke="#666666" points="248,-41 150,-41 150,0 248,0 248,-41"/>
<text text-anchor="start" x="158" y="-29" font-family="Helvetica,sans-Serif" font-size="10.00">elc::defs::string_n</text>
<text text-anchor="start" x="158" y="-18" font-family="Helvetica,sans-Serif" font-size="10.00">::string_t::to_string</text>
<text text-anchor="middle" x="199" y="-7" font-family="Helvetica,sans-Serif" font-size="10.00">_view_t</text>
</a>
</g>
</g>
<!-- Node1&#45;&gt;Node3 -->
<g id="edge2" class="edge">
<title>Node1&#45;&gt;Node3</title>
<path fill="none" stroke="#63b8ff" d="M114.14,-36.67C122.67,-35.03 131.48,-33.33 140.05,-31.68"/>
<polygon fill="#63b8ff" stroke="#63b8ff" points="140.8,-35.1 149.96,-29.76 139.48,-28.22 140.8,-35.1"/>
</g>
</g>
</svg>
