<?xml version="1.0" encoding="UTF-8" standalone="no"?>
<!DOCTYPE svg PUBLIC "-//W3C//DTD SVG 1.1//EN"
 "http://www.w3.org/Graphics/SVG/1.1/DTD/svg11.dtd">
<!-- Generated by graphviz version 6.0.1 (20220911.1526)
 -->
<!-- Title: elc::defs::memory::ptr_n::ptr_t::operator== Pages: 1 -->
<svg width="413pt" height="86pt"
 viewBox="0.00 0.00 413.00 86.00" xmlns="http://www.w3.org/2000/svg" xmlns:xlink="http://www.w3.org/1999/xlink">
<g id="graph0" class="graph" transform="scale(1 1) rotate(0) translate(4 82)">
<title>elc::defs::memory::ptr_n::ptr_t::operator==</title>
<!-- Node1 -->
<g id="node1" class="node">
<title>Node1</title>
<g id="a_node1"><a xlink:title=" ">
<polygon fill="#999999" stroke="#666666" points="117,-54 0,-54 0,-24 117,-24 117,-54"/>
<text text-anchor="start" x="8" y="-42" font-family="Helvetica,sans-Serif" font-size="10.00">elc::defs::memory::</text>
<text text-anchor="middle" x="58.5" y="-31" font-family="Helvetica,sans-Serif" font-size="10.00">ptr_n::ptr_t::operator==</text>
</a>
</g>
</g>
<!-- Node2 -->
<g id="node2" class="node">
<title>Node2</title>
<g id="a_node2"><a xlink:href="namespaceelc_1_1defs_1_1base.html#aae9be6874a7dd367db08a9a6e1d65639" target="_top" xlink:title="对值追加const">
<polygon fill="white" stroke="#666666" points="262,-78 160,-78 160,-48 262,-48 262,-78"/>
<text text-anchor="start" x="168" y="-66" font-family="Helvetica,sans-Serif" font-size="10.00">elc::defs::base::add</text>
<text text-anchor="middle" x="211" y="-55" font-family="Helvetica,sans-Serif" font-size="10.00">_const</text>
</a>
</g>
</g>
<!-- Node1&#45;&gt;Node2 -->
<g id="edge1" class="edge">
<title>Node1&#45;&gt;Node2</title>
<path fill="none" stroke="#63b8ff" d="M117.26,-48.21C127.81,-49.89 138.85,-51.65 149.48,-53.35"/>
<polygon fill="#63b8ff" stroke="#63b8ff" points="149.09,-56.83 159.52,-54.95 150.2,-49.92 149.09,-56.83"/>
</g>
<!-- Node3 -->
<g id="node3" class="node">
<title>Node3</title>
<g id="a_node3"><a xlink:href="namespaceelc_1_1defs_1_1base.html#a7d7867f29ab0c6027c3d983f5f249fa0" target="_top" xlink:title="指针比较的重载接口，允许类对此进行自定义 elc内部的指针比较应当视情况使用默认配置或此重载接口">
<polygon fill="white" stroke="#666666" points="269,-30 153,-30 153,0 269,0 269,-30"/>
<text text-anchor="start" x="161" y="-18" font-family="Helvetica,sans-Serif" font-size="10.00">elc::defs::base::pointer</text>
<text text-anchor="middle" x="211" y="-7" font-family="Helvetica,sans-Serif" font-size="10.00">_equal</text>
</a>
</g>
</g>
<!-- Node1&#45;&gt;Node3 -->
<g id="edge2" class="edge">
<title>Node1&#45;&gt;Node3</title>
<path fill="none" stroke="#63b8ff" d="M117.26,-29.79C125.6,-28.46 134.24,-27.08 142.75,-25.72"/>
<polygon fill="#63b8ff" stroke="#63b8ff" points="143.32,-29.18 152.65,-24.15 142.22,-22.26 143.32,-29.18"/>
</g>
<!-- Node4 -->
<g id="node4" class="node">
<title>Node4</title>
<g id="a_node4"><a xlink:href="namespaceelc_1_1defs_1_1base.html#adbc7bf5e482480d8dd0fe0ac40dbccea" target="_top" xlink:title=" ">
<polygon fill="white" stroke="#666666" points="405,-30 305,-30 305,0 405,0 405,-30"/>
<text text-anchor="start" x="313" y="-18" font-family="Helvetica,sans-Serif" font-size="10.00">elc::defs::base::the</text>
<text text-anchor="middle" x="355" y="-7" font-family="Helvetica,sans-Serif" font-size="10.00">_pointer_equal</text>
</a>
</g>
</g>
<!-- Node3&#45;&gt;Node4 -->
<g id="edge3" class="edge">
<title>Node3&#45;&gt;Node4</title>
<path fill="none" stroke="#63b8ff" d="M269.35,-15C277.67,-15 286.24,-15 294.6,-15"/>
<polygon fill="#63b8ff" stroke="#63b8ff" points="294.65,-18.5 304.65,-15 294.65,-11.5 294.65,-18.5"/>
</g>
</g>
</svg>
