<?xml version="1.0" encoding="UTF-8" standalone="no"?>
<!DOCTYPE svg PUBLIC "-//W3C//DTD SVG 1.1//EN"
 "http://www.w3.org/Graphics/SVG/1.1/DTD/svg11.dtd">
<!-- Generated by graphviz version 6.0.1 (20220911.1526)
 -->
<!-- Title: elc::defs::string_n::string_data_n::base_string_data_t::equivalent_optimization Pages: 1 -->
<!--zoomable 1004 -->
<svg id="main" version="1.1" xmlns="http://www.w3.org/2000/svg" xmlns:xlink="http://www.w3.org/1999/xlink" xml:space="preserve" onload="init(evt)">
<style type="text/css"><![CDATA[
.edge:hover path { stroke: red; }
.edge:hover polygon { stroke: red; fill: red; }
]]></style>
<script type="text/javascript"><![CDATA[
var edges = document.getElementsByTagName('g');
if (edges && edges.length) {
  for (var i=0;i<edges.length;i++) {
    if (edges[i].id.substr(0,4)=='edge') {
      edges[i].setAttribute('class','edge');
    }
  }
}
]]></script>
        <defs>
                <circle id="rim" cx="0" cy="0" r="7"/>
                <circle id="rim2" cx="0" cy="0" r="3.5"/>
                <g id="zoomPlus">
                        <use xlink:href="#rim" fill="#404040">
                                <set attributeName="fill" to="#808080" begin="zoomplus.mouseover" end="zoomplus.mouseout"/>
                        </use>
                        <path d="M-4,0h8M0,-4v8" fill="none" stroke="white" stroke-width="1.5" pointer-events="none"/>
                </g>
                <g id="zoomMin">
                        <use xlink:href="#rim" fill="#404040">
                                <set attributeName="fill" to="#808080" begin="zoomminus.mouseover" end="zoomminus.mouseout"/>
                        </use>
                        <path d="M-4,0h8" fill="none" stroke="white" stroke-width="1.5" pointer-events="none"/>
                </g>
                <g id="dirArrow">
                        <path fill="none" stroke="white" stroke-width="1.5" d="M0,-3.0v7 M-2.5,-0.5L0,-3.0L2.5,-0.5"/>
                </g>
               <g id="resetDef">
                       <use xlink:href="#rim2" fill="#404040">
                               <set attributeName="fill" to="#808080" begin="reset.mouseover" end="reset.mouseout"/>
                       </use>
               </g>
        </defs>

<script type="text/javascript">
var viewWidth = 329;
var viewHeight = 1004;
var sectionId = 'dynsection-21';
</script>
<script xlink:href="svgpan.js"/>
<svg id="graph" class="graph">
<g id="viewport">
<title>elc::defs::string_n::string_data_n::base_string_data_t::equivalent_optimization</title>
<!-- Node1 -->
<g id="node1" class="node">
<title>Node1</title>
<g id="a_node1"><a xlink:title=" ">
<polygon fill="#999999" stroke="#666666" points="321,-512.5 194,-512.5 194,-460.5 321,-460.5 321,-512.5"/>
<text text-anchor="start" x="202" y="-500.5" font-family="Helvetica,sans-Serif" font-size="10.00">elc::defs::string_n</text>
<text text-anchor="start" x="202" y="-489.5" font-family="Helvetica,sans-Serif" font-size="10.00">::string_data_n::base</text>
<text text-anchor="start" x="202" y="-478.5" font-family="Helvetica,sans-Serif" font-size="10.00">_string_data_t::equivalent</text>
<text text-anchor="middle" x="257.5" y="-467.5" font-family="Helvetica,sans-Serif" font-size="10.00">_optimization</text>
</a>
</g>
</g>
<!-- Node1&#45;&gt;Node1 -->
<g id="edge8" class="edge">
<title>Node1&#45;&gt;Node1</title>
<path fill="none" stroke="#63b8ff" d="M287.34,-522.26C282.41,-527.2 272.46,-530.5 257.5,-530.5 234.14,-530.5 223.01,-522.46 224.1,-512.7"/>
<polygon fill="#63b8ff" stroke="#63b8ff" points="290.69,-523.29 290.9,-512.7 284.13,-520.85 290.69,-523.29"/>
</g>
<!-- Node2 -->
<g id="node2" class="node">
<title>Node2</title>
<g id="a_node2"><a xlink:href="structelc_1_1defs_1_1string__n_1_1string__data__n_1_1base__string__data__t.html#a0ab7bbbb03e8e38fcd31587df8af3b54" target="_top" xlink:title=" ">
<polygon fill="white" stroke="#666666" points="144.5,-996 13.5,-996 13.5,-955 144.5,-955 144.5,-996"/>
<text text-anchor="start" x="21.5" y="-984" font-family="Helvetica,sans-Serif" font-size="10.00">elc::defs::string_n</text>
<text text-anchor="start" x="21.5" y="-973" font-family="Helvetica,sans-Serif" font-size="10.00">::string_data_n::base</text>
<text text-anchor="middle" x="79" y="-962" font-family="Helvetica,sans-Serif" font-size="10.00">_string_data_t::be_replace</text>
</a>
</g>
</g>
<!-- Node1&#45;&gt;Node2 -->
<g id="edge1" class="edge">
<title>Node1&#45;&gt;Node2</title>
<path fill="none" stroke="#63b8ff" d="M253.2,-522.91C243.7,-620.07 213.41,-882.41 158,-946.5 154.22,-950.87 149.72,-954.59 144.81,-957.74"/>
<polygon fill="#63b8ff" stroke="#63b8ff" points="256.71,-522.99 254.18,-512.7 249.74,-522.32 256.71,-522.99"/>
</g>
<!-- Node3 -->
<g id="node3" class="node">
<title>Node3</title>
<g id="a_node3"><a xlink:href="structelc_1_1defs_1_1string__n_1_1string__data__n_1_1base__string__data__t.html#a0e9146e3126d6e08cd6b00521b362e00" target="_top" xlink:title=" ">
<polygon fill="white" stroke="#666666" points="151,-937 7,-937 7,-896 151,-896 151,-937"/>
<text text-anchor="start" x="15" y="-925" font-family="Helvetica,sans-Serif" font-size="10.00">elc::defs::string_n</text>
<text text-anchor="start" x="15" y="-914" font-family="Helvetica,sans-Serif" font-size="10.00">::string_data_n::base</text>
<text text-anchor="middle" x="79" y="-903" font-family="Helvetica,sans-Serif" font-size="10.00">_string_data_t::compare_with</text>
</a>
</g>
</g>
<!-- Node1&#45;&gt;Node3 -->
<g id="edge2" class="edge">
<title>Node1&#45;&gt;Node3</title>
<path fill="none" stroke="#63b8ff" d="M251.92,-522.59C240.13,-610.35 206.23,-831.79 158,-886.5 154.93,-889.98 151.41,-893.06 147.6,-895.79"/>
<polygon fill="#63b8ff" stroke="#63b8ff" points="255.41,-522.94 253.25,-512.57 248.47,-522.02 255.41,-522.94"/>
</g>
<!-- Node4 -->
<g id="node4" class="node">
<title>Node4</title>
<g id="a_node4"><a xlink:href="structelc_1_1defs_1_1string__n_1_1string__data__n_1_1base__string__data__t.html#ade9b4e8ea57d9c777db585ee7cd12a9c" target="_top" xlink:title=" ">
<polygon fill="white" stroke="#666666" points="140,-877.5 18,-877.5 18,-825.5 140,-825.5 140,-877.5"/>
<text text-anchor="start" x="26" y="-865.5" font-family="Helvetica,sans-Serif" font-size="10.00">elc::defs::string_n</text>
<text text-anchor="start" x="26" y="-854.5" font-family="Helvetica,sans-Serif" font-size="10.00">::string_data_n::base</text>
<text text-anchor="start" x="26" y="-843.5" font-family="Helvetica,sans-Serif" font-size="10.00">_string_data_t::compare</text>
<text text-anchor="middle" x="79" y="-832.5" font-family="Helvetica,sans-Serif" font-size="10.00">_with_same_size</text>
</a>
</g>
</g>
<!-- Node1&#45;&gt;Node4 -->
<g id="edge3" class="edge">
<title>Node1&#45;&gt;Node4</title>
<path fill="none" stroke="#63b8ff" d="M255.22,-523.04C251.03,-589.37 233.21,-730.67 158,-816.5 153.01,-822.19 146.91,-827.01 140.35,-831.07"/>
<polygon fill="#63b8ff" stroke="#63b8ff" points="258.74,-522.86 255.8,-512.68 251.75,-522.47 258.74,-522.86"/>
</g>
<!-- Node5 -->
<g id="node5" class="node">
<title>Node5</title>
<g id="a_node5"><a xlink:href="structelc_1_1defs_1_1string__n_1_1string__data__n_1_1base__string__data__t.html#a6b7e18abe38ef3942a29306962ca6a1a" target="_top" xlink:title=" ">
<polygon fill="white" stroke="#666666" points="135.5,-807.5 22.5,-807.5 22.5,-755.5 135.5,-755.5 135.5,-807.5"/>
<text text-anchor="start" x="30.5" y="-795.5" font-family="Helvetica,sans-Serif" font-size="10.00">elc::defs::string_n</text>
<text text-anchor="start" x="30.5" y="-784.5" font-family="Helvetica,sans-Serif" font-size="10.00">::string_data_n::base</text>
<text text-anchor="start" x="30.5" y="-773.5" font-family="Helvetica,sans-Serif" font-size="10.00">_string_data_t::default</text>
<text text-anchor="middle" x="79" y="-762.5" font-family="Helvetica,sans-Serif" font-size="10.00">_compare_method</text>
</a>
</g>
</g>
<!-- Node1&#45;&gt;Node5 -->
<g id="edge4" class="edge">
<title>Node1&#45;&gt;Node5</title>
<path fill="none" stroke="#63b8ff" d="M251.71,-522.86C242.68,-577.83 218.32,-682.47 158,-746.5 151.69,-753.2 143.86,-758.7 135.62,-763.2"/>
<polygon fill="#63b8ff" stroke="#63b8ff" points="255.18,-523.29 253.26,-512.87 248.26,-522.21 255.18,-523.29"/>
</g>
<!-- Node6 -->
<g id="node6" class="node">
<title>Node6</title>
<g id="a_node6"><a xlink:href="structelc_1_1defs_1_1string__n_1_1string__data__n_1_1base__string__data__t.html#aeeeacaf1dfaf56299213f4ec33f0fd25" target="_top" xlink:title=" ">
<polygon fill="white" stroke="#666666" points="135.5,-737.5 22.5,-737.5 22.5,-685.5 135.5,-685.5 135.5,-737.5"/>
<text text-anchor="start" x="30.5" y="-725.5" font-family="Helvetica,sans-Serif" font-size="10.00">elc::defs::string_n</text>
<text text-anchor="start" x="30.5" y="-714.5" font-family="Helvetica,sans-Serif" font-size="10.00">::string_data_n::base</text>
<text text-anchor="start" x="30.5" y="-703.5" font-family="Helvetica,sans-Serif" font-size="10.00">_string_data_t::default</text>
<text text-anchor="middle" x="79" y="-692.5" font-family="Helvetica,sans-Serif" font-size="10.00">_equal_method</text>
</a>
</g>
</g>
<!-- Node1&#45;&gt;Node6 -->
<g id="edge5" class="edge">
<title>Node1&#45;&gt;Node6</title>
<path fill="none" stroke="#63b8ff" d="M246.02,-522.16C232.09,-564.04 203.75,-633.26 158,-676.5 151.53,-682.62 143.8,-687.79 135.77,-692.12"/>
<polygon fill="#63b8ff" stroke="#63b8ff" points="249.35,-523.24 249.09,-512.65 242.69,-521.08 249.35,-523.24"/>
</g>
<!-- Node7 -->
<g id="node7" class="node">
<title>Node7</title>
<g id="a_node7"><a xlink:href="structelc_1_1defs_1_1string__n_1_1string__data__n_1_1base__string__data__t.html#a468584806b9d4699a58bff77c8712761" target="_top" xlink:title=" ">
<polygon fill="white" stroke="#666666" points="144,-667 14,-667 14,-626 144,-626 144,-667"/>
<text text-anchor="start" x="22" y="-655" font-family="Helvetica,sans-Serif" font-size="10.00">elc::defs::string_n</text>
<text text-anchor="start" x="22" y="-644" font-family="Helvetica,sans-Serif" font-size="10.00">::string_data_n::base</text>
<text text-anchor="middle" x="79" y="-633" font-family="Helvetica,sans-Serif" font-size="10.00">_string_data_t::equal_with</text>
</a>
</g>
</g>
<!-- Node1&#45;&gt;Node7 -->
<g id="edge6" class="edge">
<title>Node1&#45;&gt;Node7</title>
<path fill="none" stroke="#63b8ff" d="M237.37,-521.64C220.02,-550.6 192,-590.93 158,-616.5 153.36,-619.99 148.27,-623.12 142.98,-625.92"/>
<polygon fill="#63b8ff" stroke="#63b8ff" points="240.59,-523.07 242.62,-512.67 234.54,-519.53 240.59,-523.07"/>
</g>
<!-- Node8 -->
<g id="node8" class="node">
<title>Node8</title>
<g id="a_node8"><a xlink:href="structelc_1_1defs_1_1string__n_1_1string__data__n_1_1base__string__data__t.html#af65b3583986258218e370d3bd77f1da4" target="_top" xlink:title=" ">
<polygon fill="white" stroke="#666666" points="133,-607.5 25,-607.5 25,-555.5 133,-555.5 133,-607.5"/>
<text text-anchor="start" x="33" y="-595.5" font-family="Helvetica,sans-Serif" font-size="10.00">elc::defs::string_n</text>
<text text-anchor="start" x="33" y="-584.5" font-family="Helvetica,sans-Serif" font-size="10.00">::string_data_n::base</text>
<text text-anchor="start" x="33" y="-573.5" font-family="Helvetica,sans-Serif" font-size="10.00">_string_data_t::equal</text>
<text text-anchor="middle" x="79" y="-562.5" font-family="Helvetica,sans-Serif" font-size="10.00">_with_same_size</text>
</a>
</g>
</g>
<!-- Node1&#45;&gt;Node8 -->
<g id="edge7" class="edge">
<title>Node1&#45;&gt;Node8</title>
<path fill="none" stroke="#63b8ff" d="M207.07,-518.27C191.59,-527.77 174.29,-537.93 158,-546.5 150.12,-550.65 141.65,-554.77 133.3,-558.66"/>
<polygon fill="#63b8ff" stroke="#63b8ff" points="209.29,-521.02 215.95,-512.78 205.6,-515.06 209.29,-521.02"/>
</g>
<!-- Node9 -->
<g id="node9" class="node">
<title>Node9</title>
<g id="a_node9"><a xlink:href="structelc_1_1defs_1_1string__n_1_1string__data__n_1_1base__string__data__t.html#a35675b03d057d5a20aea48b419e98635" target="_top" xlink:title=" ">
<polygon fill="white" stroke="#666666" points="141,-537 17,-537 17,-496 141,-496 141,-537"/>
<text text-anchor="start" x="25" y="-525" font-family="Helvetica,sans-Serif" font-size="10.00">elc::defs::string_n</text>
<text text-anchor="start" x="25" y="-514" font-family="Helvetica,sans-Serif" font-size="10.00">::string_data_n::base</text>
<text text-anchor="middle" x="79" y="-503" font-family="Helvetica,sans-Serif" font-size="10.00">_string_data_t::get_hash</text>
</a>
</g>
</g>
<!-- Node1&#45;&gt;Node9 -->
<g id="edge9" class="edge">
<title>Node1&#45;&gt;Node9</title>
<path fill="none" stroke="#63b8ff" d="M183.59,-498.89C169.45,-501.3 154.76,-503.79 141.04,-506.12"/>
<polygon fill="#63b8ff" stroke="#63b8ff" points="184.5,-502.29 193.78,-497.16 183.33,-495.39 184.5,-502.29"/>
</g>
<!-- Node10 -->
<g id="node10" class="node">
<title>Node10</title>
<g id="a_node10"><a xlink:href="structelc_1_1defs_1_1string__n_1_1string__data__n_1_1base__string__data__t.html#a9a8593b536971164bf6fe7d5cf1caa92" target="_top" xlink:title=" ">
<polygon fill="white" stroke="#666666" points="156.5,-478 1.5,-478 1.5,-437 156.5,-437 156.5,-478"/>
<text text-anchor="start" x="9.5" y="-466" font-family="Helvetica,sans-Serif" font-size="10.00">elc::defs::string_n</text>
<text text-anchor="start" x="9.5" y="-455" font-family="Helvetica,sans-Serif" font-size="10.00">::string_data_n::base</text>
<text text-anchor="middle" x="79" y="-444" font-family="Helvetica,sans-Serif" font-size="10.00">_string_data_t::get_hash_cache</text>
</a>
</g>
</g>
<!-- Node1&#45;&gt;Node10 -->
<g id="edge10" class="edge">
<title>Node1&#45;&gt;Node10</title>
<path fill="none" stroke="#63b8ff" d="M183.81,-474.56C174.88,-473.09 165.73,-471.59 156.74,-470.11"/>
<polygon fill="#63b8ff" stroke="#63b8ff" points="183.34,-478.03 193.78,-476.19 184.48,-471.12 183.34,-478.03"/>
</g>
<!-- Node11 -->
<g id="node11" class="node">
<title>Node11</title>
<g id="a_node11"><a xlink:href="structelc_1_1defs_1_1string__n_1_1string__data__n_1_1base__string__data__t.html#a94bcdabce441e44a2d247e7b59fe2988" target="_top" xlink:title=" ">
<polygon fill="white" stroke="#666666" points="152,-418.5 6,-418.5 6,-366.5 152,-366.5 152,-418.5"/>
<text text-anchor="start" x="14" y="-406.5" font-family="Helvetica,sans-Serif" font-size="10.00">elc::defs::string_n</text>
<text text-anchor="start" x="14" y="-395.5" font-family="Helvetica,sans-Serif" font-size="10.00">::string_data_n::base</text>
<text text-anchor="start" x="14" y="-384.5" font-family="Helvetica,sans-Serif" font-size="10.00">_string_data_t::get_others</text>
<text text-anchor="middle" x="79" y="-373.5" font-family="Helvetica,sans-Serif" font-size="10.00">_hash_with_calculated_before</text>
</a>
</g>
</g>
<!-- Node1&#45;&gt;Node11 -->
<g id="edge11" class="edge">
<title>Node1&#45;&gt;Node11</title>
<path fill="none" stroke="#63b8ff" d="M205.64,-455.25C190.49,-446.29 173.73,-436.73 158,-428.5 151.66,-425.18 144.95,-421.84 138.24,-418.6"/>
<polygon fill="#63b8ff" stroke="#63b8ff" points="203.97,-458.33 214.36,-460.44 207.55,-452.31 203.97,-458.33"/>
</g>
<!-- Node12 -->
<g id="node12" class="node">
<title>Node12</title>
<g id="a_node12"><a xlink:href="structelc_1_1defs_1_1string__n_1_1string__data__n_1_1base__string__data__t.html#a6749063564d9c1ac9fa3bb633c9902c1" target="_top" xlink:title=" ">
<polygon fill="white" stroke="#666666" points="158,-348 0,-348 0,-307 158,-307 158,-348"/>
<text text-anchor="start" x="8" y="-336" font-family="Helvetica,sans-Serif" font-size="10.00">elc::defs::string_n</text>
<text text-anchor="start" x="8" y="-325" font-family="Helvetica,sans-Serif" font-size="10.00">::string_data_n::base</text>
<text text-anchor="middle" x="79" y="-314" font-family="Helvetica,sans-Serif" font-size="10.00">_string_data_t::has_hash_cache</text>
</a>
</g>
</g>
<!-- Node1&#45;&gt;Node12 -->
<g id="edge12" class="edge">
<title>Node1&#45;&gt;Node12</title>
<path fill="none" stroke="#63b8ff" d="M237.15,-451.38C219.75,-422.66 191.78,-382.81 158,-357.5 153.36,-354.02 148.26,-350.9 142.96,-348.1"/>
<polygon fill="#63b8ff" stroke="#63b8ff" points="234.31,-453.46 242.42,-460.28 240.33,-449.89 234.31,-453.46"/>
</g>
<!-- Node13 -->
<g id="node13" class="node">
<title>Node13</title>
<g id="a_node13"><a xlink:href="structelc_1_1defs_1_1string__n_1_1string__data__n_1_1base__string__data__t.html#a2d5d50082a06707263a9956be2eaaeee" target="_top" xlink:title=" ">
<polygon fill="white" stroke="#666666" points="141.5,-289 16.5,-289 16.5,-248 141.5,-248 141.5,-289"/>
<text text-anchor="start" x="24.5" y="-277" font-family="Helvetica,sans-Serif" font-size="10.00">elc::defs::string_n</text>
<text text-anchor="start" x="24.5" y="-266" font-family="Helvetica,sans-Serif" font-size="10.00">::string_data_n::base</text>
<text text-anchor="middle" x="79" y="-255" font-family="Helvetica,sans-Serif" font-size="10.00">_string_data_t::is_unique</text>
</a>
</g>
</g>
<!-- Node1&#45;&gt;Node13 -->
<g id="edge13" class="edge">
<title>Node1&#45;&gt;Node13</title>
<path fill="none" stroke="#63b8ff" d="M246.23,-450.52C232.55,-408.63 204.52,-339.93 158,-298.5 153.12,-294.16 147.55,-290.41 141.68,-287.19"/>
<polygon fill="#63b8ff" stroke="#63b8ff" points="242.97,-451.82 249.32,-460.3 249.65,-449.71 242.97,-451.82"/>
</g>
<!-- Node14 -->
<g id="node14" class="node">
<title>Node14</title>
<g id="a_node14"><a xlink:href="structelc_1_1defs_1_1string__n_1_1string__data__n_1_1base__string__data__t.html#ab3435598067fdb8f59e12451d4eb9742" target="_top" xlink:title=" ">
<polygon fill="white" stroke="#666666" points="133,-229.5 25,-229.5 25,-177.5 133,-177.5 133,-229.5"/>
<text text-anchor="start" x="33" y="-217.5" font-family="Helvetica,sans-Serif" font-size="10.00">elc::defs::string_n</text>
<text text-anchor="start" x="33" y="-206.5" font-family="Helvetica,sans-Serif" font-size="10.00">::string_data_n::base</text>
<text text-anchor="start" x="33" y="-195.5" font-family="Helvetica,sans-Serif" font-size="10.00">_string_data_t::reset</text>
<text text-anchor="middle" x="79" y="-184.5" font-family="Helvetica,sans-Serif" font-size="10.00">_hash_cache</text>
</a>
</g>
</g>
<!-- Node1&#45;&gt;Node14 -->
<g id="edge14" class="edge">
<title>Node1&#45;&gt;Node14</title>
<path fill="none" stroke="#63b8ff" d="M250.81,-450.47C240.78,-397.92 215.33,-299.95 158,-239.5 151.02,-232.14 142.25,-226.15 133.12,-221.32"/>
<polygon fill="#63b8ff" stroke="#63b8ff" points="247.37,-451.14 252.61,-460.35 254.26,-449.88 247.37,-451.14"/>
</g>
<!-- Node15 -->
<g id="node15" class="node">
<title>Node15</title>
<g id="a_node15"><a xlink:href="structelc_1_1defs_1_1string__n_1_1string__data__n_1_1base__string__data__t.html#af5163393e3743c8cb01d7148001138e0" target="_top" xlink:title=" ">
<polygon fill="white" stroke="#666666" points="145,-159 13,-159 13,-118 145,-118 145,-159"/>
<text text-anchor="start" x="21" y="-147" font-family="Helvetica,sans-Serif" font-size="10.00">elc::defs::string_n</text>
<text text-anchor="start" x="21" y="-136" font-family="Helvetica,sans-Serif" font-size="10.00">::string_data_n::base</text>
<text text-anchor="middle" x="79" y="-125" font-family="Helvetica,sans-Serif" font-size="10.00">_string_data_t::same_type</text>
</a>
</g>
</g>
<!-- Node1&#45;&gt;Node15 -->
<g id="edge15" class="edge">
<title>Node1&#45;&gt;Node15</title>
<path fill="none" stroke="#63b8ff" d="M255.19,-449.91C250.92,-384.92 232.98,-248.67 158,-168.5 154.23,-164.47 149.87,-160.98 145.16,-157.95"/>
<polygon fill="#63b8ff" stroke="#63b8ff" points="251.7,-450.3 255.78,-460.07 258.69,-449.89 251.7,-450.3"/>
</g>
<!-- Node16 -->
<g id="node16" class="node">
<title>Node16</title>
<g id="a_node16"><a xlink:href="structelc_1_1defs_1_1string__n_1_1string__data__n_1_1base__string__data__t.html#a62865e7b3d202fdfbca6fbe36379a4cc" target="_top" xlink:title=" ">
<polygon fill="white" stroke="#666666" points="149.5,-100 8.5,-100 8.5,-59 149.5,-59 149.5,-100"/>
<text text-anchor="start" x="16.5" y="-88" font-family="Helvetica,sans-Serif" font-size="10.00">elc::defs::string_n</text>
<text text-anchor="start" x="16.5" y="-77" font-family="Helvetica,sans-Serif" font-size="10.00">::string_data_n::base</text>
<text text-anchor="middle" x="79" y="-66" font-family="Helvetica,sans-Serif" font-size="10.00">_string_data_t::self_changed</text>
</a>
</g>
</g>
<!-- Node1&#45;&gt;Node16 -->
<g id="edge16" class="edge">
<title>Node1&#45;&gt;Node16</title>
<path fill="none" stroke="#63b8ff" d="M257.37,-450.22C257.15,-376.59 246.32,-208.27 158,-109.5 154.81,-105.93 151.14,-102.78 147.18,-100.01"/>
<polygon fill="#63b8ff" stroke="#63b8ff" points="253.87,-450.36 257.33,-460.37 260.87,-450.39 253.87,-450.36"/>
</g>
<!-- Node17 -->
<g id="node17" class="node">
<title>Node17</title>
<g id="a_node17"><a xlink:href="structelc_1_1defs_1_1string__n_1_1string__data__n_1_1base__string__data__t.html#acaebf29956bb83c20086734c06fd2954" target="_top" xlink:title=" ">
<polygon fill="white" stroke="#666666" points="156.5,-41 1.5,-41 1.5,0 156.5,0 156.5,-41"/>
<text text-anchor="start" x="9.5" y="-29" font-family="Helvetica,sans-Serif" font-size="10.00">elc::defs::string_n</text>
<text text-anchor="start" x="9.5" y="-18" font-family="Helvetica,sans-Serif" font-size="10.00">::string_data_n::base</text>
<text text-anchor="middle" x="79" y="-7" font-family="Helvetica,sans-Serif" font-size="10.00">_string_data_t::set_hash_cache</text>
</a>
</g>
</g>
<!-- Node1&#45;&gt;Node17 -->
<g id="edge17" class="edge">
<title>Node1&#45;&gt;Node17</title>
<path fill="none" stroke="#63b8ff" d="M252.69,-450.1C242.22,-356.58 210.29,-110.98 158,-50.5 154.96,-46.99 151.47,-43.89 147.67,-41.14"/>
<polygon fill="#63b8ff" stroke="#63b8ff" points="249.23,-450.66 253.8,-460.22 256.19,-449.89 249.23,-450.66"/>
</g>
</g>
</svg>
        <g id="navigator" transform="translate(0 0)" fill="#404254">
                <rect fill="#f2f5e9" fill-opacity="0.5" stroke="#606060" stroke-width=".5" x="0" y="0" width="60" height="60"/>
                <use id="zoomplus" xlink:href="#zoomPlus" x="17" y="9" onmousedown="handleZoom(evt,'in')"/>
                <use id="zoomminus" xlink:href="#zoomMin" x="42" y="9" onmousedown="handleZoom(evt,'out')"/>
                <use id="reset" xlink:href="#resetDef" x="30" y="36" onmousedown="handleReset()"/>
                <g id="arrowUp" xlink:href="#dirArrow" transform="translate(30 24)" onmousedown="handlePan(0,-1)">
                  <use xlink:href="#rim" fill="#404040">
                        <set attributeName="fill" to="#808080" begin="arrowUp.mouseover" end="arrowUp.mouseout"/>
                  </use>
                  <path fill="none" stroke="white" stroke-width="1.5" d="M0,-3.0v7 M-2.5,-0.5L0,-3.0L2.5,-0.5"/>
                </g>
                <g id="arrowRight" xlink:href="#dirArrow" transform="rotate(90) translate(36 -43)" onmousedown="handlePan(1,0)">
                  <use xlink:href="#rim" fill="#404040">
                        <set attributeName="fill" to="#808080" begin="arrowRight.mouseover" end="arrowRight.mouseout"/>
                  </use>
                  <path fill="none" stroke="white" stroke-width="1.5" d="M0,-3.0v7 M-2.5,-0.5L0,-3.0L2.5,-0.5"/>
                </g>
                <g id="arrowDown" xlink:href="#dirArrow" transform="rotate(180) translate(-30 -48)" onmousedown="handlePan(0,1)">
                  <use xlink:href="#rim" fill="#404040">
                        <set attributeName="fill" to="#808080" begin="arrowDown.mouseover" end="arrowDown.mouseout"/>
                  </use>
                  <path fill="none" stroke="white" stroke-width="1.5" d="M0,-3.0v7 M-2.5,-0.5L0,-3.0L2.5,-0.5"/>
                </g>
                <g id="arrowLeft" xlink:href="#dirArrow" transform="rotate(270) translate(-36 17)" onmousedown="handlePan(-1,0)">
                  <use xlink:href="#rim" fill="#404040">
                        <set attributeName="fill" to="#808080" begin="arrowLeft.mouseover" end="arrowLeft.mouseout"/>
                  </use>
                  <path fill="none" stroke="white" stroke-width="1.5" d="M0,-3.0v7 M-2.5,-0.5L0,-3.0L2.5,-0.5"/>
                </g>
        </g>
        <svg viewBox="0 0 15 15" width="100%" height="30px" preserveAspectRatio="xMaxYMin meet">
         <g id="arrow_out" transform="scale(0.3 0.3)">
          <a xlink:href="structelc_1_1defs_1_1string__n_1_1string__data__n_1_1base__string__data__t_ab457c64f5c77a1ab773762cb361f2daf_icgraph_org.svg" target="_base">
           <rect id="button" ry="5" rx="5" y="6" x="6" height="38" width="38"
                fill="#f2f5e9" fill-opacity="0.5" stroke="#606060" stroke-width="1.0"/>
           <path id="arrow"
             d="M 11.500037,31.436501 C 11.940474,20.09759 22.043105,11.32322 32.158766,21.979434 L 37.068811,17.246167 C 37.068811,17.246167 37.088388,32 37.088388,32 L 22.160133,31.978069 C 22.160133,31.978069 26.997745,27.140456 26.997745,27.140456 C 18.528582,18.264221 13.291696,25.230495 11.500037,31.436501 z"
             style="fill:#404040;"/>
          </a>
         </g>
        </svg>
</svg>
