<?xml version="1.0" encoding="UTF-8" standalone="no"?>
<!DOCTYPE svg PUBLIC "-//W3C//DTD SVG 1.1//EN"
 "http://www.w3.org/Graphics/SVG/1.1/DTD/svg11.dtd">
<!-- Generated by graphviz version 6.0.1 (20220911.1526)
 -->
<!-- Title: elc::defs::core::nil_t::equal_with Pages: 1 -->
<svg width="252pt" height="86pt"
 viewBox="0.00 0.00 252.00 86.00" xmlns="http://www.w3.org/2000/svg" xmlns:xlink="http://www.w3.org/1999/xlink">
<g id="graph0" class="graph" transform="scale(1 1) rotate(0) translate(4 82)">
<title>elc::defs::core::nil_t::equal_with</title>
<!-- Node1 -->
<g id="node1" class="node">
<title>Node1</title>
<g id="a_node1"><a xlink:title=" ">
<polygon fill="#999999" stroke="#666666" points="94,-54 0,-54 0,-24 94,-24 94,-54"/>
<text text-anchor="start" x="8" y="-42" font-family="Helvetica,sans-Serif" font-size="10.00">elc::defs::core::nil</text>
<text text-anchor="middle" x="47" y="-31" font-family="Helvetica,sans-Serif" font-size="10.00">_t::equal_with</text>
</a>
</g>
</g>
<!-- Node2 -->
<g id="node2" class="node">
<title>Node2</title>
<g id="a_node2"><a xlink:href="structelc_1_1defs_1_1base_1_1logical__bool.html#a8654a79e521d836d81d0608e9a19dc4b" target="_top" xlink:title=" ">
<polygon fill="white" stroke="#666666" points="244,-78 130,-78 130,-48 244,-48 244,-78"/>
<text text-anchor="start" x="138" y="-66" font-family="Helvetica,sans-Serif" font-size="10.00">elc::defs::base::logical</text>
<text text-anchor="middle" x="187" y="-55" font-family="Helvetica,sans-Serif" font-size="10.00">_bool::logical_bool</text>
</a>
</g>
</g>
<!-- Node1&#45;&gt;Node2 -->
<g id="edge1" class="edge">
<title>Node1&#45;&gt;Node2</title>
<path fill="none" stroke="#63b8ff" d="M94.34,-47.06C102.55,-48.49 111.25,-50 119.89,-51.5"/>
<polygon fill="#63b8ff" stroke="#63b8ff" points="119.52,-54.99 129.97,-53.26 120.72,-48.09 119.52,-54.99"/>
</g>
<!-- Node3 -->
<g id="node3" class="node">
<title>Node3</title>
<g id="a_node3"><a xlink:href="structelc_1_1defs_1_1base_1_1logical__bool.html#ac2fe78b41f1274df929a9e1561d79408" target="_top" xlink:title=" ">
<polygon fill="white" stroke="#666666" points="244,-30 130,-30 130,0 244,0 244,-30"/>
<text text-anchor="start" x="138" y="-18" font-family="Helvetica,sans-Serif" font-size="10.00">elc::defs::base::logical</text>
<text text-anchor="middle" x="187" y="-7" font-family="Helvetica,sans-Serif" font-size="10.00">_bool::operator!</text>
</a>
</g>
</g>
<!-- Node1&#45;&gt;Node3 -->
<g id="edge2" class="edge">
<title>Node1&#45;&gt;Node3</title>
<path fill="none" stroke="#63b8ff" d="M94.34,-30.94C102.55,-29.51 111.25,-28 119.89,-26.5"/>
<polygon fill="#63b8ff" stroke="#63b8ff" points="120.72,-29.91 129.97,-24.74 119.52,-23.01 120.72,-29.91"/>
</g>
</g>
</svg>
