<?xml version="1.0" encoding="UTF-8" standalone="no"?>
<!DOCTYPE svg PUBLIC "-//W3C//DTD SVG 1.1//EN"
 "http://www.w3.org/Graphics/SVG/1.1/DTD/svg11.dtd">
<!-- Generated by graphviz version 6.0.1 (20220911.1526)
 -->
<!-- Title: elc::defs::base::non_copy_construct_able Pages: 1 -->
<svg width="623pt" height="517pt"
 viewBox="0.00 0.00 623.00 516.50" xmlns="http://www.w3.org/2000/svg" xmlns:xlink="http://www.w3.org/1999/xlink">
<g id="graph0" class="graph" transform="scale(1 1) rotate(0) translate(4 512.5)">
<title>elc::defs::base::non_copy_construct_able</title>
<!-- Node1 -->
<g id="node1" class="node">
<title>Node1</title>
<g id="a_node1"><a xlink:title=" ">
<polygon fill="#999999" stroke="#666666" points="112,-253.5 0,-253.5 0,-223.5 112,-223.5 112,-253.5"/>
<text text-anchor="start" x="8" y="-241.5" font-family="Helvetica,sans-Serif" font-size="10.00">elc::defs::base::non</text>
<text text-anchor="middle" x="56" y="-230.5" font-family="Helvetica,sans-Serif" font-size="10.00">_copy_construct_able</text>
</a>
</g>
</g>
<!-- Node2 -->
<g id="node2" class="node">
<title>Node2</title>
<g id="a_node2"><a xlink:href="structelc_1_1defs_1_1base_1_1non__copyable.html" target="_top" xlink:title=" ">
<polygon fill="white" stroke="#666666" points="258.5,-277.5 156.5,-277.5 156.5,-247.5 258.5,-247.5 258.5,-277.5"/>
<text text-anchor="start" x="164.5" y="-265.5" font-family="Helvetica,sans-Serif" font-size="10.00">elc::defs::base::non</text>
<text text-anchor="middle" x="207.5" y="-254.5" font-family="Helvetica,sans-Serif" font-size="10.00">_copyable</text>
</a>
</g>
</g>
<!-- Node1&#45;&gt;Node2 -->
<g id="edge1" class="edge">
<title>Node1&#45;&gt;Node2</title>
<path fill="none" stroke="#63b8ff" d="M122.21,-248.97C133.68,-250.81 145.45,-252.7 156.42,-254.46"/>
<polygon fill="#63b8ff" stroke="#63b8ff" points="122.67,-245.5 112.24,-247.37 121.56,-252.41 122.67,-245.5"/>
</g>
<!-- Node18 -->
<g id="node18" class="node">
<title>Node18</title>
<g id="a_node18"><a xlink:href="structelc_1_1defs_1_1base_1_1non__default__construct__able.html" target="_top" xlink:title=" ">
<polygon fill="white" stroke="#666666" points="267,-229.5 148,-229.5 148,-199.5 267,-199.5 267,-229.5"/>
<text text-anchor="start" x="156" y="-217.5" font-family="Helvetica,sans-Serif" font-size="10.00">elc::defs::base::non</text>
<text text-anchor="middle" x="207.5" y="-206.5" font-family="Helvetica,sans-Serif" font-size="10.00">_default_construct_able</text>
</a>
</g>
</g>
<!-- Node1&#45;&gt;Node18 -->
<g id="edge17" class="edge">
<title>Node1&#45;&gt;Node18</title>
<path fill="none" stroke="#63b8ff" d="M122.2,-228.03C130.78,-226.66 139.52,-225.25 147.97,-223.9"/>
<polygon fill="#63b8ff" stroke="#63b8ff" points="121.56,-224.59 112.24,-229.63 122.67,-231.5 121.56,-224.59"/>
</g>
<!-- Node3 -->
<g id="node3" class="node">
<title>Node3</title>
<g id="a_node3"><a xlink:href="structelc_1_1defs_1_1base_1_1cons__t.html" target="_top" xlink:title=" ">
<polygon fill="white" stroke="#666666" points="432.5,-508.5 311.5,-508.5 311.5,-478.5 432.5,-478.5 432.5,-508.5"/>
<text text-anchor="start" x="319.5" y="-496.5" font-family="Helvetica,sans-Serif" font-size="10.00">elc::defs::base::cons</text>
<text text-anchor="middle" x="372" y="-485.5" font-family="Helvetica,sans-Serif" font-size="10.00">_t&lt; can_map_all&lt; T &gt; &gt;</text>
</a>
</g>
</g>
<!-- Node2&#45;&gt;Node3 -->
<g id="edge2" class="edge">
<title>Node2&#45;&gt;Node3</title>
<path fill="none" stroke="#63b8ff" d="M213.28,-287.59C222.78,-330.74 248.05,-419.23 303,-469.5 306.79,-472.96 311.11,-475.93 315.69,-478.48"/>
<polygon fill="#63b8ff" stroke="#63b8ff" points="216.67,-286.71 211.2,-277.64 209.82,-288.15 216.67,-286.71"/>
</g>
<!-- Node5 -->
<g id="node5" class="node">
<title>Node5</title>
<g id="a_node5"><a xlink:href="structelc_1_1defs_1_1base_1_1cons__t.html" target="_top" xlink:title=" ">
<polygon fill="white" stroke="#666666" points="437,-460 307,-460 307,-419 437,-419 437,-460"/>
<text text-anchor="start" x="315" y="-448" font-family="Helvetica,sans-Serif" font-size="10.00">elc::defs::base::cons</text>
<text text-anchor="start" x="315" y="-437" font-family="Helvetica,sans-Serif" font-size="10.00">_t&lt; elc::defs::memory</text>
<text text-anchor="middle" x="372" y="-426" font-family="Helvetica,sans-Serif" font-size="10.00">::others_n::can_map_all &gt;</text>
</a>
</g>
</g>
<!-- Node2&#45;&gt;Node5 -->
<g id="edge4" class="edge">
<title>Node2&#45;&gt;Node5</title>
<path fill="none" stroke="#63b8ff" d="M218.99,-287.44C233.59,-319.51 262.84,-375.16 303,-409.5 307.02,-412.94 311.5,-416.04 316.18,-418.84"/>
<polygon fill="#63b8ff" stroke="#63b8ff" points="222.02,-285.64 214.77,-277.91 215.62,-288.47 222.02,-285.64"/>
</g>
<!-- Node6 -->
<g id="node6" class="node">
<title>Node6</title>
<g id="a_node6"><a xlink:href="structelc_1_1defs_1_1base_1_1cons__t.html" target="_top" xlink:title=" ">
<polygon fill="white" stroke="#666666" points="425.5,-400.5 318.5,-400.5 318.5,-370.5 425.5,-370.5 425.5,-400.5"/>
<text text-anchor="start" x="326.5" y="-388.5" font-family="Helvetica,sans-Serif" font-size="10.00">elc::defs::base::cons</text>
<text text-anchor="middle" x="372" y="-377.5" font-family="Helvetica,sans-Serif" font-size="10.00">_t&lt; T &gt;</text>
</a>
</g>
</g>
<!-- Node2&#45;&gt;Node6 -->
<g id="edge5" class="edge">
<title>Node2&#45;&gt;Node6</title>
<path fill="none" stroke="#63b8ff" d="M225.58,-285.94C242.86,-308.17 271.47,-341.11 303,-361.5 308.26,-364.9 314.05,-367.89 319.98,-370.49"/>
<polygon fill="#63b8ff" stroke="#63b8ff" points="228.15,-283.55 219.31,-277.71 222.58,-287.79 228.15,-283.55"/>
</g>
<!-- Node7 -->
<g id="node7" class="node">
<title>Node7</title>
<g id="a_node7"><a xlink:href="structelc_1_1defs_1_1base_1_1data__block.html" target="_top" xlink:title=" ">
<polygon fill="white" stroke="#666666" points="424.5,-352.5 319.5,-352.5 319.5,-322.5 424.5,-322.5 424.5,-352.5"/>
<text text-anchor="start" x="327.5" y="-340.5" font-family="Helvetica,sans-Serif" font-size="10.00">elc::defs::base::data</text>
<text text-anchor="middle" x="372" y="-329.5" font-family="Helvetica,sans-Serif" font-size="10.00">_block&lt; Ts &gt;</text>
</a>
</g>
</g>
<!-- Node2&#45;&gt;Node7 -->
<g id="edge6" class="edge">
<title>Node2&#45;&gt;Node7</title>
<path fill="none" stroke="#63b8ff" d="M242.83,-282.7C260.48,-292.65 282.53,-304.43 303,-313.5 310.1,-316.64 317.74,-319.67 325.26,-322.46"/>
<polygon fill="#63b8ff" stroke="#63b8ff" points="244.45,-279.59 234.03,-277.68 240.98,-285.67 244.45,-279.59"/>
</g>
<!-- Node8 -->
<g id="node8" class="node">
<title>Node8</title>
<g id="a_node8"><a xlink:href="classelc_1_1defs_1_1base_1_1mark__able.html" target="_top" xlink:title=" ">
<polygon fill="white" stroke="#666666" points="426,-304.5 318,-304.5 318,-274.5 426,-274.5 426,-304.5"/>
<text text-anchor="start" x="326" y="-292.5" font-family="Helvetica,sans-Serif" font-size="10.00">elc::defs::base::mark</text>
<text text-anchor="middle" x="372" y="-281.5" font-family="Helvetica,sans-Serif" font-size="10.00">_able&lt; T &gt;</text>
</a>
</g>
</g>
<!-- Node2&#45;&gt;Node8 -->
<g id="edge7" class="edge">
<title>Node2&#45;&gt;Node8</title>
<path fill="none" stroke="#8b1a1a" d="M268.5,-272.47C284.73,-275.17 302.17,-278.06 317.99,-280.69"/>
<polygon fill="#8b1a1a" stroke="#8b1a1a" points="269.02,-269.01 258.58,-270.82 267.87,-275.91 269.02,-269.01"/>
</g>
<!-- Node10 -->
<g id="node10" class="node">
<title>Node10</title>
<g id="a_node10"><a xlink:href="classelc_1_1defs_1_1container_1_1stack__n_1_1base__stack__t.html" target="_top" xlink:title=" ">
<polygon fill="white" stroke="#666666" points="428.5,-256 315.5,-256 315.5,-215 428.5,-215 428.5,-256"/>
<text text-anchor="start" x="323.5" y="-244" font-family="Helvetica,sans-Serif" font-size="10.00">elc::defs::container</text>
<text text-anchor="start" x="323.5" y="-233" font-family="Helvetica,sans-Serif" font-size="10.00">::stack_n::base_stack</text>
<text text-anchor="middle" x="372" y="-222" font-family="Helvetica,sans-Serif" font-size="10.00">_t&lt; T &gt;</text>
</a>
</g>
</g>
<!-- Node2&#45;&gt;Node10 -->
<g id="edge9" class="edge">
<title>Node2&#45;&gt;Node10</title>
<path fill="none" stroke="#8b1a1a" d="M268.49,-252.53C283.85,-249.98 300.3,-247.25 315.42,-244.73"/>
<polygon fill="#8b1a1a" stroke="#8b1a1a" points="267.87,-249.09 258.58,-254.18 269.02,-255.99 267.87,-249.09"/>
</g>
<!-- Node12 -->
<g id="node12" class="node">
<title>Node12</title>
<g id="a_node12"><a xlink:href="structelc_1_1defs_1_1memory_1_1others__n_1_1replace__able.html" target="_top" xlink:title=" ">
<polygon fill="white" stroke="#666666" points="441,-196.5 303,-196.5 303,-166.5 441,-166.5 441,-196.5"/>
<text text-anchor="start" x="311" y="-184.5" font-family="Helvetica,sans-Serif" font-size="10.00">elc::defs::memory::</text>
<text text-anchor="middle" x="372" y="-173.5" font-family="Helvetica,sans-Serif" font-size="10.00">others_n::replace_able&lt; T &gt;</text>
</a>
</g>
</g>
<!-- Node2&#45;&gt;Node12 -->
<g id="edge11" class="edge">
<title>Node2&#45;&gt;Node12</title>
<path fill="none" stroke="#63b8ff" d="M259.37,-242.89C262,-241.49 264.56,-240.03 267,-238.5 285.16,-227.17 284.63,-217.5 303,-206.5 309.26,-202.75 316.17,-199.42 323.12,-196.51"/>
<polygon fill="#63b8ff" stroke="#63b8ff" points="257.68,-239.82 250.28,-247.4 260.79,-246.1 257.68,-239.82"/>
</g>
<!-- Node13 -->
<g id="node13" class="node">
<title>Node13</title>
<g id="a_node13"><a xlink:href="classelc_1_1defs_1_1memory_1_1ptr__n_1_1ref__t.html" target="_top" xlink:title=" ">
<polygon fill="white" stroke="#666666" points="422.5,-148.5 321.5,-148.5 321.5,-118.5 422.5,-118.5 422.5,-148.5"/>
<text text-anchor="start" x="329.5" y="-136.5" font-family="Helvetica,sans-Serif" font-size="10.00">elc::defs::memory::</text>
<text text-anchor="middle" x="372" y="-125.5" font-family="Helvetica,sans-Serif" font-size="10.00">ptr_n::ref_t</text>
</a>
</g>
</g>
<!-- Node2&#45;&gt;Node13 -->
<g id="edge12" class="edge">
<title>Node2&#45;&gt;Node13</title>
<path fill="none" stroke="#8b1a1a" d="M263.52,-241.59C264.73,-240.61 265.89,-239.58 267,-238.5 295.26,-211.05 274.07,-184.24 303,-157.5 308.33,-152.57 314.74,-148.65 321.46,-145.52"/>
<polygon fill="#8b1a1a" stroke="#8b1a1a" points="261.23,-238.92 254.99,-247.48 265.21,-244.68 261.23,-238.92"/>
</g>
<!-- Node16 -->
<g id="node16" class="node">
<title>Node16</title>
<g id="a_node16"><a xlink:href="classelc_1_1defs_1_1string__n_1_1string__t_1_1arec__t.html" target="_top" xlink:title=" ">
<polygon fill="white" stroke="#666666" points="423,-100 321,-100 321,-59 423,-59 423,-100"/>
<text text-anchor="start" x="329" y="-88" font-family="Helvetica,sans-Serif" font-size="10.00">elc::defs::string_n</text>
<text text-anchor="start" x="329" y="-77" font-family="Helvetica,sans-Serif" font-size="10.00">::string_t&lt; char_T &gt;</text>
<text text-anchor="middle" x="372" y="-66" font-family="Helvetica,sans-Serif" font-size="10.00">::arec_t</text>
</a>
</g>
</g>
<!-- Node2&#45;&gt;Node16 -->
<g id="edge15" class="edge">
<title>Node2&#45;&gt;Node16</title>
<path fill="none" stroke="#8b1a1a" d="M264.29,-241.29C265.23,-240.4 266.14,-239.47 267,-238.5 306.55,-194.02 264.03,-154.5 303,-109.5 307.9,-103.84 314.07,-99.21 320.68,-95.43"/>
<polygon fill="#8b1a1a" stroke="#8b1a1a" points="262.12,-238.55 256.37,-247.45 266.41,-244.07 262.12,-238.55"/>
</g>
<!-- Node17 -->
<g id="node17" class="node">
<title>Node17</title>
<g id="a_node17"><a xlink:href="classelc_1_1defs_1_1string__n_1_1string__t_1_1floating__arec__t.html" target="_top" xlink:title=" ">
<polygon fill="white" stroke="#666666" points="423,-41 321,-41 321,0 423,0 423,-41"/>
<text text-anchor="start" x="329" y="-29" font-family="Helvetica,sans-Serif" font-size="10.00">elc::defs::string_n</text>
<text text-anchor="start" x="329" y="-18" font-family="Helvetica,sans-Serif" font-size="10.00">::string_t&lt; char_T &gt;</text>
<text text-anchor="middle" x="372" y="-7" font-family="Helvetica,sans-Serif" font-size="10.00">::floating_arec_t</text>
</a>
</g>
</g>
<!-- Node2&#45;&gt;Node17 -->
<g id="edge16" class="edge">
<title>Node2&#45;&gt;Node17</title>
<path fill="none" stroke="#8b1a1a" d="M265.1,-240.66C265.76,-239.97 266.39,-239.24 267,-238.5 321.09,-172.27 249.37,-116.1 303,-49.5 307.83,-43.5 314.13,-38.72 320.95,-34.92"/>
<polygon fill="#8b1a1a" stroke="#8b1a1a" points="262.59,-238.2 257.23,-247.34 267.12,-243.54 262.59,-238.2"/>
</g>
<!-- Node4 -->
<g id="node4" class="node">
<title>Node4</title>
<g id="a_node4"><a xlink:href="structelc_1_1defs_1_1memory_1_1others__n_1_1can__map__all.html" target="_top" xlink:title=" ">
<polygon fill="white" stroke="#666666" points="615,-508.5 477,-508.5 477,-478.5 615,-478.5 615,-508.5"/>
<text text-anchor="start" x="485" y="-496.5" font-family="Helvetica,sans-Serif" font-size="10.00">elc::defs::memory::</text>
<text text-anchor="middle" x="546" y="-485.5" font-family="Helvetica,sans-Serif" font-size="10.00">others_n::can_map_all&lt; T &gt;</text>
</a>
</g>
</g>
<!-- Node3&#45;&gt;Node4 -->
<g id="edge3" class="edge">
<title>Node3&#45;&gt;Node4</title>
<path fill="none" stroke="#63b8ff" d="M442.86,-493.5C454.08,-493.5 465.69,-493.5 476.88,-493.5"/>
<polygon fill="#63b8ff" stroke="#63b8ff" points="442.67,-490 432.67,-493.5 442.67,-497 442.67,-490"/>
</g>
<!-- Node9 -->
<g id="node9" class="node">
<title>Node9</title>
<g id="a_node9"><a xlink:href="structelc_1_1defs_1_1memory_1_1gc__n_1_1mark__able__for__gc.html" target="_top" xlink:title=" ">
<polygon fill="white" stroke="#666666" points="598,-312 494,-312 494,-271 598,-271 598,-312"/>
<text text-anchor="start" x="502" y="-300" font-family="Helvetica,sans-Serif" font-size="10.00">elc::defs::memory::</text>
<text text-anchor="start" x="502" y="-289" font-family="Helvetica,sans-Serif" font-size="10.00">gc_n::mark_able_for</text>
<text text-anchor="middle" x="546" y="-278" font-family="Helvetica,sans-Serif" font-size="10.00">_gc&lt; T &gt;</text>
</a>
</g>
</g>
<!-- Node8&#45;&gt;Node9 -->
<g id="edge8" class="edge">
<title>Node8&#45;&gt;Node9</title>
<path fill="none" stroke="#63b8ff" d="M436.09,-290.23C455.13,-290.46 475.78,-290.7 493.93,-290.91"/>
<polygon fill="#63b8ff" stroke="#63b8ff" points="436.05,-286.73 426.01,-290.12 435.97,-293.73 436.05,-286.73"/>
</g>
<!-- Node11 -->
<g id="node11" class="node">
<title>Node11</title>
<g id="a_node11"><a xlink:href="structelc_1_1defs_1_1container_1_1stack__n_1_1auto__stack__t.html" target="_top" xlink:title=" ">
<polygon fill="white" stroke="#666666" points="601.5,-253 490.5,-253 490.5,-212 601.5,-212 601.5,-253"/>
<text text-anchor="start" x="498.5" y="-241" font-family="Helvetica,sans-Serif" font-size="10.00">elc::defs::container</text>
<text text-anchor="start" x="498.5" y="-230" font-family="Helvetica,sans-Serif" font-size="10.00">::stack_n::auto_stack</text>
<text text-anchor="middle" x="546" y="-219" font-family="Helvetica,sans-Serif" font-size="10.00">_t&lt; T &gt;</text>
</a>
</g>
</g>
<!-- Node10&#45;&gt;Node11 -->
<g id="edge10" class="edge">
<title>Node10&#45;&gt;Node11</title>
<path fill="none" stroke="#63b8ff" d="M439.2,-234.35C456.1,-234.05 474.07,-233.74 490.32,-233.45"/>
<polygon fill="#63b8ff" stroke="#63b8ff" points="438.78,-230.85 428.84,-234.53 438.9,-237.85 438.78,-230.85"/>
</g>
<!-- Node14 -->
<g id="node14" class="node">
<title>Node14</title>
<g id="a_node14"><a xlink:href="classelc_1_1defs_1_1memory_1_1ptr__n_1_1ref__able.html" target="_top" xlink:title=" ">
<polygon fill="white" stroke="#666666" points="596.5,-169.5 495.5,-169.5 495.5,-139.5 596.5,-139.5 596.5,-169.5"/>
<text text-anchor="start" x="503.5" y="-157.5" font-family="Helvetica,sans-Serif" font-size="10.00">elc::defs::memory::</text>
<text text-anchor="middle" x="546" y="-146.5" font-family="Helvetica,sans-Serif" font-size="10.00">ptr_n::ref_able&lt; T &gt;</text>
</a>
</g>
</g>
<!-- Node13&#45;&gt;Node14 -->
<g id="edge13" class="edge">
<title>Node13&#45;&gt;Node14</title>
<path fill="none" stroke="#63b8ff" d="M432.88,-140.81C453.28,-143.3 475.85,-146.06 495.36,-148.44"/>
<polygon fill="#63b8ff" stroke="#63b8ff" points="433.1,-137.31 422.75,-139.57 432.25,-144.26 433.1,-137.31"/>
</g>
<!-- Node15 -->
<g id="node15" class="node">
<title>Node15</title>
<g id="a_node15"><a xlink:href="classelc_1_1defs_1_1memory_1_1ptr__n_1_1weak__ref__able.html" target="_top" xlink:title=" ">
<polygon fill="white" stroke="#666666" points="610.5,-121.5 481.5,-121.5 481.5,-91.5 610.5,-91.5 610.5,-121.5"/>
<text text-anchor="start" x="489.5" y="-109.5" font-family="Helvetica,sans-Serif" font-size="10.00">elc::defs::memory::</text>
<text text-anchor="middle" x="546" y="-98.5" font-family="Helvetica,sans-Serif" font-size="10.00">ptr_n::weak_ref_able&lt; T &gt;</text>
</a>
</g>
</g>
<!-- Node13&#45;&gt;Node15 -->
<g id="edge14" class="edge">
<title>Node13&#45;&gt;Node15</title>
<path fill="none" stroke="#63b8ff" d="M432.82,-124.11C448.47,-121.65 465.4,-119 481.24,-116.51"/>
<polygon fill="#63b8ff" stroke="#63b8ff" points="432.09,-120.68 422.75,-125.69 433.17,-127.6 432.09,-120.68"/>
</g>
</g>
</svg>
