<?xml version="1.0" encoding="UTF-8" standalone="no"?>
<!DOCTYPE svg PUBLIC "-//W3C//DTD SVG 1.1//EN"
 "http://www.w3.org/Graphics/SVG/1.1/DTD/svg11.dtd">
<!-- Generated by graphviz version 6.0.1 (20220911.1526)
 -->
<!-- Title: elc::defs::core::cons::arec Pages: 1 -->
<svg width="259pt" height="100pt"
 viewBox="0.00 0.00 259.00 100.00" xmlns="http://www.w3.org/2000/svg" xmlns:xlink="http://www.w3.org/1999/xlink">
<g id="graph0" class="graph" transform="scale(1 1) rotate(0) translate(4 96)">
<title>elc::defs::core::cons::arec</title>
<!-- Node1 -->
<g id="node1" class="node">
<title>Node1</title>
<g id="a_node1"><a xlink:title=" ">
<polygon fill="#999999" stroke="#666666" points="105,-51.5 0,-51.5 0,-21.5 105,-21.5 105,-51.5"/>
<text text-anchor="start" x="8" y="-39.5" font-family="Helvetica,sans-Serif" font-size="10.00">elc::defs::core::cons</text>
<text text-anchor="middle" x="52.5" y="-28.5" font-family="Helvetica,sans-Serif" font-size="10.00">::arec</text>
</a>
</g>
</g>
<!-- Node2 -->
<g id="node2" class="node">
<title>Node2</title>
<g id="a_node2"><a xlink:href="namespaceelc_1_1defs_1_1core.html#a72636fe7dced40c72eb59b1d7e77e15e" target="_top" xlink:title=" ">
<polygon fill="white" stroke="#666666" points="251,-74 141,-74 141,-55 251,-55 251,-74"/>
<text text-anchor="middle" x="196" y="-62" font-family="Helvetica,sans-Serif" font-size="10.00">elc::defs::core::car_of</text>
</a>
</g>
</g>
<!-- Node1&#45;&gt;Node2 -->
<g id="edge1" class="edge">
<title>Node1&#45;&gt;Node2</title>
<path fill="none" stroke="#63b8ff" d="M105.39,-46.77C115.67,-48.8 126.52,-50.95 136.99,-53.02"/>
<polygon fill="#63b8ff" stroke="#63b8ff" points="136.39,-56.47 146.88,-54.98 137.75,-49.6 136.39,-56.47"/>
</g>
<!-- Node3 -->
<g id="node3" class="node">
<title>Node3</title>
<g id="a_node3"><a xlink:href="namespaceelc_1_1defs_1_1core.html#a44028d2ee30d52c14d515a577dfc0461" target="_top" xlink:title=" ">
<polygon fill="white" stroke="#666666" points="251,-19 141,-19 141,0 251,0 251,-19"/>
<text text-anchor="middle" x="196" y="-7" font-family="Helvetica,sans-Serif" font-size="10.00">elc::defs::core::cdr_of</text>
</a>
</g>
</g>
<!-- Node1&#45;&gt;Node3 -->
<g id="edge3" class="edge">
<title>Node1&#45;&gt;Node3</title>
<path fill="none" stroke="#63b8ff" d="M105.39,-26.6C114.99,-24.77 125.09,-22.84 134.91,-20.97"/>
<polygon fill="#63b8ff" stroke="#63b8ff" points="135.84,-24.35 145.01,-19.04 134.53,-17.48 135.84,-24.35"/>
</g>
<!-- Node2&#45;&gt;Node2 -->
<g id="edge2" class="edge">
<title>Node2&#45;&gt;Node2</title>
<path fill="none" stroke="#63b8ff" d="M173.88,-74.08C163.12,-82.73 170.5,-92 196,-92 212.34,-92 221.24,-88.2 222.69,-83.19"/>
<polygon fill="#63b8ff" stroke="#63b8ff" points="225.73,-81.45 218.12,-74.08 219.48,-84.59 225.73,-81.45"/>
</g>
<!-- Node3&#45;&gt;Node3 -->
<g id="edge4" class="edge">
<title>Node3&#45;&gt;Node3</title>
<path fill="none" stroke="#63b8ff" d="M173.88,-19.08C163.12,-27.73 170.5,-37 196,-37 212.34,-37 221.24,-33.2 222.69,-28.19"/>
<polygon fill="#63b8ff" stroke="#63b8ff" points="225.73,-26.45 218.12,-19.08 219.48,-29.59 225.73,-26.45"/>
</g>
</g>
</svg>
