<?xml version="1.0" encoding="UTF-8" standalone="no"?>
<!DOCTYPE svg PUBLIC "-//W3C//DTD SVG 1.1//EN"
 "http://www.w3.org/Graphics/SVG/1.1/DTD/svg11.dtd">
<!-- Generated by graphviz version 6.0.1 (20220911.1526)
 -->
<!-- Title: elc::defs::base::array_like_n::array_like_view_t::array_like_view_t Pages: 1 -->
<svg width="300pt" height="122pt"
 viewBox="0.00 0.00 300.00 122.00" xmlns="http://www.w3.org/2000/svg" xmlns:xlink="http://www.w3.org/1999/xlink">
<g id="graph0" class="graph" transform="scale(1 1) rotate(0) translate(4 118)">
<title>elc::defs::base::array_like_n::array_like_view_t::array_like_view_t</title>
<!-- Node1 -->
<g id="node1" class="node">
<title>Node1</title>
<g id="a_node1"><a xlink:title=" ">
<polygon fill="#999999" stroke="#666666" points="119,-68.5 0,-68.5 0,-27.5 119,-27.5 119,-68.5"/>
<text text-anchor="start" x="8" y="-56.5" font-family="Helvetica,sans-Serif" font-size="10.00">elc::defs::base::array</text>
<text text-anchor="start" x="8" y="-45.5" font-family="Helvetica,sans-Serif" font-size="10.00">_like_n::array_like_view</text>
<text text-anchor="middle" x="59.5" y="-34.5" font-family="Helvetica,sans-Serif" font-size="10.00">_t::array_like_view_t</text>
</a>
</g>
</g>
<!-- Node2 -->
<g id="node2" class="node">
<title>Node2</title>
<g id="a_node2"><a xlink:href="namespaceelc_1_1defs_1_1base_1_1array__like__n.html#a2b908be784e9b96dab69759b5cdd057e" target="_top" xlink:title=" ">
<polygon fill="white" stroke="#666666" points="292,-96 155,-96 155,-66 292,-66 292,-96"/>
<text text-anchor="start" x="163" y="-84" font-family="Helvetica,sans-Serif" font-size="10.00">elc::defs::base::array</text>
<text text-anchor="middle" x="223.5" y="-73" font-family="Helvetica,sans-Serif" font-size="10.00">_like_n::begin_of_array_like</text>
</a>
</g>
</g>
<!-- Node1&#45;&gt;Node2 -->
<g id="edge1" class="edge">
<title>Node1&#45;&gt;Node2</title>
<path fill="none" stroke="#63b8ff" d="M119.44,-60.01C127.7,-61.69 136.29,-63.44 144.83,-65.18"/>
<polygon fill="#63b8ff" stroke="#63b8ff" points="144.31,-68.64 154.81,-67.21 145.71,-61.79 144.31,-68.64"/>
</g>
<!-- Node3 -->
<g id="node3" class="node">
<title>Node3</title>
<g id="a_node3"><a xlink:href="namespaceelc_1_1defs_1_1base_1_1array__like__n.html#a3ba2be23b4671a1ec08aab7a8734579e" target="_top" xlink:title=" ">
<polygon fill="white" stroke="#666666" points="289,-30 158,-30 158,0 289,0 289,-30"/>
<text text-anchor="start" x="166" y="-18" font-family="Helvetica,sans-Serif" font-size="10.00">elc::defs::base::array</text>
<text text-anchor="middle" x="223.5" y="-7" font-family="Helvetica,sans-Serif" font-size="10.00">_like_n::size_of_array_like</text>
</a>
</g>
</g>
<!-- Node1&#45;&gt;Node3 -->
<g id="edge3" class="edge">
<title>Node1&#45;&gt;Node3</title>
<path fill="none" stroke="#63b8ff" d="M119.44,-35.99C128.71,-34.11 138.39,-32.13 147.95,-30.19"/>
<polygon fill="#63b8ff" stroke="#63b8ff" points="148.75,-33.59 157.85,-28.17 147.36,-26.74 148.75,-33.59"/>
</g>
<!-- Node2&#45;&gt;Node2 -->
<g id="edge2" class="edge">
<title>Node2&#45;&gt;Node2</title>
<path fill="none" stroke="#63b8ff" d="M194.67,-96.28C188.27,-105.41 197.88,-114 223.5,-114 238.71,-114 248.28,-110.97 252.21,-106.6"/>
<polygon fill="#63b8ff" stroke="#63b8ff" points="255.71,-106.32 252.33,-96.28 248.71,-106.23 255.71,-106.32"/>
</g>
<!-- Node3&#45;&gt;Node3 -->
<g id="edge4" class="edge">
<title>Node3&#45;&gt;Node3</title>
<path fill="none" stroke="#63b8ff" d="M194.67,-30.28C188.27,-39.41 197.88,-48 223.5,-48 238.71,-48 248.28,-44.97 252.21,-40.6"/>
<polygon fill="#63b8ff" stroke="#63b8ff" points="255.71,-40.32 252.33,-30.28 248.71,-40.23 255.71,-40.32"/>
</g>
</g>
</svg>
