<?xml version="1.0" encoding="UTF-8" standalone="no"?>
<!DOCTYPE svg PUBLIC "-//W3C//DTD SVG 1.1//EN"
 "http://www.w3.org/Graphics/SVG/1.1/DTD/svg11.dtd">
<!-- Generated by graphviz version 6.0.1 (20220911.1526)
 -->
<!-- Title: elc::defs::stream_n::noexcept_data_istream Pages: 1 -->
<svg width="226pt" height="236pt"
 viewBox="0.00 0.00 226.00 236.00" xmlns="http://www.w3.org/2000/svg" xmlns:xlink="http://www.w3.org/1999/xlink">
<g id="graph0" class="graph" transform="scale(1 1) rotate(0) translate(4 232)">
<title>elc::defs::stream_n::noexcept_data_istream</title>
<!-- Node1 -->
<g id="node1" class="node">
<title>Node1</title>
<g id="a_node1"><a xlink:title=" ">
<polygon fill="#999999" stroke="#666666" points="171,-30 47,-30 47,0 171,0 171,-30"/>
<text text-anchor="start" x="55" y="-18" font-family="Helvetica,sans-Serif" font-size="10.00">elc::defs::stream_n</text>
<text text-anchor="middle" x="109" y="-7" font-family="Helvetica,sans-Serif" font-size="10.00">::noexcept_data_istream</text>
</a>
</g>
</g>
<!-- Node2 -->
<g id="node2" class="node">
<title>Node2</title>
<g id="a_node2"><a xlink:href="structelc_1_1defs_1_1stream__n_1_1noexcept__istream.html" target="_top" xlink:title=" ">
<polygon fill="white" stroke="#666666" points="100,-96 0,-96 0,-66 100,-66 100,-96"/>
<text text-anchor="start" x="8" y="-84" font-family="Helvetica,sans-Serif" font-size="10.00">elc::defs::stream_n</text>
<text text-anchor="middle" x="50" y="-73" font-family="Helvetica,sans-Serif" font-size="10.00">::noexcept_istream</text>
</a>
</g>
</g>
<!-- Node2&#45;&gt;Node1 -->
<g id="edge1" class="edge">
<title>Node2&#45;&gt;Node1</title>
<path fill="none" stroke="#63b8ff" d="M69.94,-58.37C78.52,-49.06 88.31,-38.44 95.94,-30.16"/>
<polygon fill="#63b8ff" stroke="#63b8ff" points="67.3,-56.07 63.09,-65.8 72.45,-60.82 67.3,-56.07"/>
</g>
<!-- Node3 -->
<g id="node3" class="node">
<title>Node3</title>
<g id="a_node3"><a xlink:href="structelc_1_1defs_1_1stream__n_1_1base__istream.html" target="_top" xlink:title=" ">
<polygon fill="white" stroke="#666666" points="218,-162 118,-162 118,-132 218,-132 218,-162"/>
<text text-anchor="start" x="126" y="-150" font-family="Helvetica,sans-Serif" font-size="10.00">elc::defs::stream_n</text>
<text text-anchor="middle" x="168" y="-139" font-family="Helvetica,sans-Serif" font-size="10.00">::base_istream</text>
</a>
</g>
</g>
<!-- Node3&#45;&gt;Node2 -->
<g id="edge2" class="edge">
<title>Node3&#45;&gt;Node2</title>
<path fill="none" stroke="#63b8ff" d="M133.16,-127.11C114.8,-117.14 92.65,-105.13 75.84,-96.01"/>
<polygon fill="#63b8ff" stroke="#63b8ff" points="131.65,-130.26 142.1,-131.95 134.98,-124.11 131.65,-130.26"/>
</g>
<!-- Node6 -->
<g id="node6" class="node">
<title>Node6</title>
<g id="a_node6"><a xlink:href="structelc_1_1defs_1_1stream__n_1_1data__istream.html" target="_top" xlink:title=" ">
<polygon fill="white" stroke="#666666" points="218,-96 118,-96 118,-66 218,-66 218,-96"/>
<text text-anchor="start" x="126" y="-84" font-family="Helvetica,sans-Serif" font-size="10.00">elc::defs::stream_n</text>
<text text-anchor="middle" x="168" y="-73" font-family="Helvetica,sans-Serif" font-size="10.00">::data_istream</text>
</a>
</g>
</g>
<!-- Node3&#45;&gt;Node6 -->
<g id="edge7" class="edge">
<title>Node3&#45;&gt;Node6</title>
<path fill="none" stroke="#63b8ff" d="M168,-121.54C168,-112.96 168,-103.61 168,-96.16"/>
<polygon fill="#63b8ff" stroke="#63b8ff" points="164.5,-121.8 168,-131.8 171.5,-121.8 164.5,-121.8"/>
</g>
<!-- Node4 -->
<g id="node4" class="node">
<title>Node4</title>
<g id="a_node4"><a xlink:href="structelc_1_1defs_1_1stream__n_1_1base__stream.html" target="_top" xlink:title=" ">
<polygon fill="white" stroke="#666666" points="159,-228 59,-228 59,-198 159,-198 159,-228"/>
<text text-anchor="start" x="67" y="-216" font-family="Helvetica,sans-Serif" font-size="10.00">elc::defs::stream_n</text>
<text text-anchor="middle" x="109" y="-205" font-family="Helvetica,sans-Serif" font-size="10.00">::base_stream</text>
</a>
</g>
</g>
<!-- Node4&#45;&gt;Node3 -->
<g id="edge3" class="edge">
<title>Node4&#45;&gt;Node3</title>
<path fill="none" stroke="#63b8ff" d="M128.94,-190.37C137.52,-181.06 147.31,-170.44 154.94,-162.16"/>
<polygon fill="#63b8ff" stroke="#63b8ff" points="126.3,-188.07 122.09,-197.8 131.45,-192.82 126.3,-188.07"/>
</g>
<!-- Node5 -->
<g id="node5" class="node">
<title>Node5</title>
<g id="a_node5"><a xlink:href="structelc_1_1defs_1_1stream__n_1_1noexcept__stream.html" target="_top" xlink:title=" ">
<polygon fill="white" stroke="#666666" points="100,-162 0,-162 0,-132 100,-132 100,-162"/>
<text text-anchor="start" x="8" y="-150" font-family="Helvetica,sans-Serif" font-size="10.00">elc::defs::stream_n</text>
<text text-anchor="middle" x="50" y="-139" font-family="Helvetica,sans-Serif" font-size="10.00">::noexcept_stream</text>
</a>
</g>
</g>
<!-- Node4&#45;&gt;Node5 -->
<g id="edge5" class="edge">
<title>Node4&#45;&gt;Node5</title>
<path fill="none" stroke="#63b8ff" d="M89.06,-190.37C80.48,-181.06 70.69,-170.44 63.06,-162.16"/>
<polygon fill="#63b8ff" stroke="#63b8ff" points="86.55,-192.82 95.91,-197.8 91.7,-188.07 86.55,-192.82"/>
</g>
<!-- Node5&#45;&gt;Node2 -->
<g id="edge4" class="edge">
<title>Node5&#45;&gt;Node2</title>
<path fill="none" stroke="#63b8ff" d="M50,-121.54C50,-112.96 50,-103.61 50,-96.16"/>
<polygon fill="#63b8ff" stroke="#63b8ff" points="46.5,-121.8 50,-131.8 53.5,-121.8 46.5,-121.8"/>
</g>
<!-- Node6&#45;&gt;Node1 -->
<g id="edge6" class="edge">
<title>Node6&#45;&gt;Node1</title>
<path fill="none" stroke="#63b8ff" d="M148.06,-58.37C139.48,-49.06 129.69,-38.44 122.06,-30.16"/>
<polygon fill="#63b8ff" stroke="#63b8ff" points="145.55,-60.82 154.91,-65.8 150.7,-56.07 145.55,-60.82"/>
</g>
</g>
</svg>
