<?xml version="1.0" encoding="UTF-8" standalone="no"?>
<!DOCTYPE svg PUBLIC "-//W3C//DTD SVG 1.1//EN"
 "http://www.w3.org/Graphics/SVG/1.1/DTD/svg11.dtd">
<!-- Generated by graphviz version 6.0.1 (20220911.1526)
 -->
<!-- Title: elc::defs::base::hash_n::hash_t::operator() Pages: 1 -->
<svg width="404pt" height="56pt"
 viewBox="0.00 0.00 404.00 56.00" xmlns="http://www.w3.org/2000/svg" xmlns:xlink="http://www.w3.org/1999/xlink">
<g id="graph0" class="graph" transform="scale(1 1) rotate(0) translate(4 52)">
<title>elc::defs::base::hash_n::hash_t::operator()</title>
<!-- Node1 -->
<g id="node1" class="node">
<title>Node1</title>
<g id="a_node1"><a xlink:title="Computes the hash value of a value.">
<polygon fill="#999999" stroke="#666666" points="110,-30 0,-30 0,0 110,0 110,-30"/>
<text text-anchor="start" x="8" y="-18" font-family="Helvetica,sans-Serif" font-size="10.00">elc::defs::base::hash</text>
<text text-anchor="middle" x="55" y="-7" font-family="Helvetica,sans-Serif" font-size="10.00">_n::hash_t::operator()</text>
</a>
</g>
</g>
<!-- Node2 -->
<g id="node2" class="node">
<title>Node2</title>
<g id="a_node2"><a xlink:href="namespaceelc_1_1defs_1_1base_1_1hash__n.html#a283ac78c2359bd59925093a9da4db995" target="_top" xlink:title="Computes the hash value of a pointer.">
<polygon fill="white" stroke="#666666" points="253,-30 146,-30 146,0 253,0 253,-30"/>
<text text-anchor="start" x="154" y="-18" font-family="Helvetica,sans-Serif" font-size="10.00">elc::defs::base::hash</text>
<text text-anchor="middle" x="199.5" y="-7" font-family="Helvetica,sans-Serif" font-size="10.00">_n::pointer_hash</text>
</a>
</g>
</g>
<!-- Node1&#45;&gt;Node2 -->
<g id="edge1" class="edge">
<title>Node1&#45;&gt;Node2</title>
<path fill="none" stroke="#63b8ff" d="M110.28,-15C118.56,-15 127.16,-15 135.6,-15"/>
<polygon fill="#63b8ff" stroke="#63b8ff" points="135.78,-18.5 145.78,-15 135.78,-11.5 135.78,-18.5"/>
</g>
<!-- Node2&#45;&gt;Node2 -->
<g id="edge2" class="edge">
<title>Node2&#45;&gt;Node2</title>
<path fill="none" stroke="#63b8ff" d="M174.36,-30.28C168.78,-39.41 177.16,-48 199.5,-48 212.77,-48 221.11,-44.97 224.53,-40.6"/>
<polygon fill="#63b8ff" stroke="#63b8ff" points="228.03,-40.31 224.64,-30.28 221.03,-40.24 228.03,-40.31"/>
</g>
<!-- Node3 -->
<g id="node3" class="node">
<title>Node3</title>
<g id="a_node3"><a xlink:href="namespaceelc_1_1defs_1_1base_1_1hash__n.html#a0fffe4324b4de8519efc8b007f077418" target="_top" xlink:title=" ">
<polygon fill="white" stroke="#666666" points="396,-30 289,-30 289,0 396,0 396,-30"/>
<text text-anchor="start" x="297" y="-18" font-family="Helvetica,sans-Serif" font-size="10.00">elc::defs::base::hash</text>
<text text-anchor="middle" x="342.5" y="-7" font-family="Helvetica,sans-Serif" font-size="10.00">_n::the_pointer_hash</text>
</a>
</g>
</g>
<!-- Node2&#45;&gt;Node3 -->
<g id="edge3" class="edge">
<title>Node2&#45;&gt;Node3</title>
<path fill="none" stroke="#63b8ff" d="M253,-15C261.44,-15 270.26,-15 278.9,-15"/>
<polygon fill="#63b8ff" stroke="#63b8ff" points="278.95,-18.5 288.95,-15 278.95,-11.5 278.95,-18.5"/>
</g>
</g>
</svg>
