<?xml version="1.0" encoding="UTF-8" standalone="no"?>
<!DOCTYPE svg PUBLIC "-//W3C//DTD SVG 1.1//EN"
 "http://www.w3.org/Graphics/SVG/1.1/DTD/svg11.dtd">
<!-- Generated by graphviz version 6.0.1 (20220911.1526)
 -->
<!-- Title: elc::defs::base::array_like_n::array_like_view_t&lt; T &gt; Pages: 1 -->
<svg width="608pt" height="286pt"
 viewBox="0.00 0.00 608.00 285.50" xmlns="http://www.w3.org/2000/svg" xmlns:xlink="http://www.w3.org/1999/xlink">
<g id="graph0" class="graph" transform="scale(1 1) rotate(0) translate(4 281.5)">
<title>elc::defs::base::array_like_n::array_like_view_t&lt; T &gt;</title>
<!-- Node1 -->
<g id="node1" class="node">
<title>Node1</title>
<g id="a_node1"><a xlink:title=" ">
<polygon fill="#999999" stroke="#666666" points="119,-164.5 0,-164.5 0,-123.5 119,-123.5 119,-164.5"/>
<text text-anchor="start" x="8" y="-152.5" font-family="Helvetica,sans-Serif" font-size="10.00">elc::defs::base::array</text>
<text text-anchor="start" x="8" y="-141.5" font-family="Helvetica,sans-Serif" font-size="10.00">_like_n::array_like_view</text>
<text text-anchor="middle" x="59.5" y="-130.5" font-family="Helvetica,sans-Serif" font-size="10.00">_t&lt; T &gt;</text>
</a>
</g>
</g>
<!-- Node2 -->
<g id="node2" class="node">
<title>Node2</title>
<g id="a_node2"><a xlink:href="structelc_1_1defs_1_1base_1_1string__view__n_1_1string__view__t.html" target="_top" xlink:title=" ">
<polygon fill="white" stroke="#666666" points="267,-277.5 155,-277.5 155,-236.5 267,-236.5 267,-277.5"/>
<text text-anchor="start" x="163" y="-265.5" font-family="Helvetica,sans-Serif" font-size="10.00">elc::defs::base::string</text>
<text text-anchor="start" x="163" y="-254.5" font-family="Helvetica,sans-Serif" font-size="10.00">_view_n::string_view_t</text>
<text text-anchor="middle" x="211" y="-243.5" font-family="Helvetica,sans-Serif" font-size="10.00">&lt; char &gt;</text>
</a>
</g>
</g>
<!-- Node1&#45;&gt;Node2 -->
<g id="edge1" class="edge">
<title>Node1&#45;&gt;Node2</title>
<path fill="none" stroke="#63b8ff" d="M88.01,-171.68C106.11,-189.06 130.85,-211.26 155,-228 159.17,-230.89 163.66,-233.7 168.22,-236.35"/>
<polygon fill="#63b8ff" stroke="#63b8ff" points="90.29,-169.02 80.68,-164.56 85.41,-174.04 90.29,-169.02"/>
</g>
<!-- Node3 -->
<g id="node3" class="node">
<title>Node3</title>
<g id="a_node3"><a xlink:href="structelc_1_1defs_1_1base_1_1array__like__n_1_1array__end__by__zero__t.html" target="_top" xlink:title=" ">
<polygon fill="white" stroke="#666666" points="267,-218.5 155,-218.5 155,-177.5 267,-177.5 267,-218.5"/>
<text text-anchor="start" x="163" y="-206.5" font-family="Helvetica,sans-Serif" font-size="10.00">elc::defs::base::array</text>
<text text-anchor="start" x="163" y="-195.5" font-family="Helvetica,sans-Serif" font-size="10.00">_like_n::array_end_by</text>
<text text-anchor="middle" x="211" y="-184.5" font-family="Helvetica,sans-Serif" font-size="10.00">_zero_t&lt; T &gt;</text>
</a>
</g>
</g>
<!-- Node1&#45;&gt;Node3 -->
<g id="edge2" class="edge">
<title>Node1&#45;&gt;Node3</title>
<path fill="none" stroke="#63b8ff" d="M127,-168.02C136.25,-171.36 145.68,-174.77 154.69,-178.02"/>
<polygon fill="#63b8ff" stroke="#63b8ff" points="128.04,-164.67 117.45,-164.57 125.66,-171.26 128.04,-164.67"/>
</g>
<!-- Node4 -->
<g id="node4" class="node">
<title>Node4</title>
<g id="a_node4"><a xlink:href="structelc_1_1defs_1_1base_1_1data__view.html" target="_top" xlink:title=" ">
<polygon fill="white" stroke="#666666" points="263.5,-159 158.5,-159 158.5,-129 263.5,-129 263.5,-159"/>
<text text-anchor="start" x="166.5" y="-147" font-family="Helvetica,sans-Serif" font-size="10.00">elc::defs::base::data</text>
<text text-anchor="middle" x="211" y="-136" font-family="Helvetica,sans-Serif" font-size="10.00">_view&lt; T &gt;</text>
</a>
</g>
</g>
<!-- Node1&#45;&gt;Node4 -->
<g id="edge3" class="edge">
<title>Node1&#45;&gt;Node4</title>
<path fill="none" stroke="#63b8ff" d="M129.26,-144C139.03,-144 148.94,-144 158.31,-144"/>
<polygon fill="#63b8ff" stroke="#63b8ff" points="129.16,-140.5 119.16,-144 129.16,-147.5 129.16,-140.5"/>
</g>
<!-- Node5 -->
<g id="node5" class="node">
<title>Node5</title>
<g id="a_node5"><a xlink:href="structelc_1_1defs_1_1base_1_1data__view_3_01const_01_t_01_4.html" target="_top" xlink:title=" ">
<polygon fill="white" stroke="#666666" points="263.5,-111 158.5,-111 158.5,-81 263.5,-81 263.5,-111"/>
<text text-anchor="start" x="166.5" y="-99" font-family="Helvetica,sans-Serif" font-size="10.00">elc::defs::base::data</text>
<text text-anchor="middle" x="211" y="-88" font-family="Helvetica,sans-Serif" font-size="10.00">_view&lt; const T &gt;</text>
</a>
</g>
</g>
<!-- Node1&#45;&gt;Node5 -->
<g id="edge4" class="edge">
<title>Node1&#45;&gt;Node5</title>
<path fill="none" stroke="#63b8ff" d="M128.81,-122.07C140.39,-118.35 152.18,-114.56 163.05,-111.07"/>
<polygon fill="#63b8ff" stroke="#63b8ff" points="127.61,-118.78 119.16,-125.17 129.75,-125.44 127.61,-118.78"/>
</g>
<!-- Node6 -->
<g id="node6" class="node">
<title>Node6</title>
<g id="a_node6"><a xlink:href="structelc_1_1defs_1_1base_1_1string__view__n_1_1string__view__t.html" target="_top" xlink:title="array_like_view_t的特化类型，表明这是字符串">
<polygon fill="white" stroke="#666666" points="267,-62.5 155,-62.5 155,-21.5 267,-21.5 267,-62.5"/>
<text text-anchor="start" x="163" y="-50.5" font-family="Helvetica,sans-Serif" font-size="10.00">elc::defs::base::string</text>
<text text-anchor="start" x="163" y="-39.5" font-family="Helvetica,sans-Serif" font-size="10.00">_view_n::string_view_t</text>
<text text-anchor="middle" x="211" y="-28.5" font-family="Helvetica,sans-Serif" font-size="10.00">&lt; char_T &gt;</text>
</a>
</g>
</g>
<!-- Node1&#45;&gt;Node6 -->
<g id="edge5" class="edge">
<title>Node1&#45;&gt;Node6</title>
<path fill="none" stroke="#63b8ff" d="M93.22,-117.12C111.01,-103 133.69,-85.82 155,-72 159.93,-68.8 165.22,-65.62 170.51,-62.59"/>
<polygon fill="#63b8ff" stroke="#63b8ff" points="91.03,-114.38 85.41,-123.36 95.4,-119.85 91.03,-114.38"/>
</g>
<!-- Node7 -->
<g id="node7" class="node">
<title>Node7</title>
<g id="a_node7"><a xlink:href="structelc_1_1defs_1_1base_1_1constexpr__str__n_1_1constexpr__str__view__t.html" target="_top" xlink:title="constexpr_str_t的退化类型，表明这是常量字符串，但没有可用的额外信息">
<polygon fill="white" stroke="#666666" points="435,-89.5 303,-89.5 303,-48.5 435,-48.5 435,-89.5"/>
<text text-anchor="start" x="311" y="-77.5" font-family="Helvetica,sans-Serif" font-size="10.00">elc::defs::base::constexpr</text>
<text text-anchor="start" x="311" y="-66.5" font-family="Helvetica,sans-Serif" font-size="10.00">_str_n::constexpr_str_view</text>
<text text-anchor="middle" x="369" y="-55.5" font-family="Helvetica,sans-Serif" font-size="10.00">_t&lt; char_T &gt;</text>
</a>
</g>
</g>
<!-- Node6&#45;&gt;Node7 -->
<g id="edge6" class="edge">
<title>Node6&#45;&gt;Node7</title>
<path fill="none" stroke="#63b8ff" d="M277.54,-53.34C285.92,-54.79 294.5,-56.28 302.88,-57.73"/>
<polygon fill="#63b8ff" stroke="#63b8ff" points="277.89,-49.85 267.44,-51.6 276.7,-56.75 277.89,-49.85"/>
</g>
<!-- Node9 -->
<g id="node9" class="node">
<title>Node9</title>
<g id="a_node9"><a xlink:href="structelc_1_1defs_1_1base_1_1type__name__t.html" target="_top" xlink:title=" ">
<polygon fill="white" stroke="#666666" points="421.5,-30 316.5,-30 316.5,0 421.5,0 421.5,-30"/>
<text text-anchor="start" x="324.5" y="-18" font-family="Helvetica,sans-Serif" font-size="10.00">elc::defs::base::type</text>
<text text-anchor="middle" x="369" y="-7" font-family="Helvetica,sans-Serif" font-size="10.00">_name_t&lt; char &gt;</text>
</a>
</g>
</g>
<!-- Node6&#45;&gt;Node9 -->
<g id="edge8" class="edge">
<title>Node6&#45;&gt;Node9</title>
<path fill="none" stroke="#63b8ff" d="M277.3,-30.7C290.34,-28.44 303.88,-26.1 316.39,-23.93"/>
<polygon fill="#63b8ff" stroke="#63b8ff" points="276.7,-27.25 267.44,-32.4 277.89,-34.15 276.7,-27.25"/>
</g>
<!-- Node8 -->
<g id="node8" class="node">
<title>Node8</title>
<g id="a_node8"><a xlink:href="structelc_1_1defs_1_1base_1_1constexpr__str__n_1_1constexpr__str__t.html" target="_top" xlink:title="告知其他elc库接口这是编译时常量字符串，并提供编译时计算好的内容，包括但不限于hash、bmh头、bitmark等，用于加速库操作">
<polygon fill="white" stroke="#666666" points="600,-89.5 471,-89.5 471,-48.5 600,-48.5 600,-89.5"/>
<text text-anchor="start" x="479" y="-77.5" font-family="Helvetica,sans-Serif" font-size="10.00">elc::defs::base::constexpr</text>
<text text-anchor="start" x="479" y="-66.5" font-family="Helvetica,sans-Serif" font-size="10.00">_str_n::constexpr_str_t</text>
<text text-anchor="middle" x="535.5" y="-55.5" font-family="Helvetica,sans-Serif" font-size="10.00">&lt; char_T &gt;</text>
</a>
</g>
</g>
<!-- Node7&#45;&gt;Node8 -->
<g id="edge7" class="edge">
<title>Node7&#45;&gt;Node8</title>
<path fill="none" stroke="#63b8ff" d="M445.04,-69C453.63,-69 462.33,-69 470.76,-69"/>
<polygon fill="#63b8ff" stroke="#63b8ff" points="445.01,-65.5 435.01,-69 445.01,-72.5 445.01,-65.5"/>
</g>
</g>
</svg>
