<?xml version="1.0" encoding="UTF-8" standalone="no"?>
<!DOCTYPE svg PUBLIC "-//W3C//DTD SVG 1.1//EN"
 "http://www.w3.org/Graphics/SVG/1.1/DTD/svg11.dtd">
<!-- Generated by graphviz version 6.0.1 (20220911.1526)
 -->
<!-- Title: elc::defs::base::constexpr_str_n::constexpr_str_t&lt; char_T &gt; Pages: 1 -->
<svg width="757pt" height="275pt"
 viewBox="0.00 0.00 757.00 275.00" xmlns="http://www.w3.org/2000/svg" xmlns:xlink="http://www.w3.org/1999/xlink">
<g id="graph0" class="graph" transform="scale(1 1) rotate(0) translate(4 271)">
<title>elc::defs::base::constexpr_str_n::constexpr_str_t&lt; char_T &gt;</title>
<!-- Node1 -->
<g id="node1" class="node">
<title>Node1</title>
<g id="a_node1"><a xlink:title="告知其他elc库接口这是编译时常量字符串，并提供编译时计算好的内容，包括但不限于hash、bmh头、bitmark等，用于加速库操作">
<polygon fill="#999999" stroke="#666666" points="749,-159 620,-159 620,-118 749,-118 749,-159"/>
<text text-anchor="start" x="628" y="-147" font-family="Helvetica,sans-Serif" font-size="10.00">elc::defs::base::constexpr</text>
<text text-anchor="start" x="628" y="-136" font-family="Helvetica,sans-Serif" font-size="10.00">_str_n::constexpr_str_t</text>
<text text-anchor="middle" x="684.5" y="-125" font-family="Helvetica,sans-Serif" font-size="10.00">&lt; char_T &gt;</text>
</a>
</g>
</g>
<!-- Node2 -->
<g id="node2" class="node">
<title>Node2</title>
<g id="a_node2"><a xlink:href="structelc_1_1defs_1_1base_1_1constexpr__str__n_1_1constexpr__str__view__t.html" target="_top" xlink:title="constexpr_str_t的退化类型，表明这是常量字符串，但没有可用的额外信息">
<polygon fill="white" stroke="#666666" points="482,-267 350,-267 350,-226 482,-226 482,-267"/>
<text text-anchor="start" x="358" y="-255" font-family="Helvetica,sans-Serif" font-size="10.00">elc::defs::base::constexpr</text>
<text text-anchor="start" x="358" y="-244" font-family="Helvetica,sans-Serif" font-size="10.00">_str_n::constexpr_str_view</text>
<text text-anchor="middle" x="416" y="-233" font-family="Helvetica,sans-Serif" font-size="10.00">_t&lt; char_T &gt;</text>
</a>
</g>
</g>
<!-- Node2&#45;&gt;Node1 -->
<g id="edge1" class="edge">
<title>Node2&#45;&gt;Node1</title>
<path fill="none" stroke="#63b8ff" d="M492.25,-228.11C526.5,-218.54 567.09,-205.47 602,-189.5 620.37,-181.1 639.58,-169.25 654.73,-159.08"/>
<polygon fill="#63b8ff" stroke="#63b8ff" points="491.02,-224.82 482.31,-230.84 492.88,-231.57 491.02,-224.82"/>
</g>
<!-- Node3 -->
<g id="node3" class="node">
<title>Node3</title>
<g id="a_node3"><a xlink:href="structelc_1_1defs_1_1base_1_1string__view__n_1_1string__view__t.html" target="_top" xlink:title="array_like_view_t的特化类型，表明这是字符串">
<polygon fill="white" stroke="#666666" points="271.5,-267 159.5,-267 159.5,-226 271.5,-226 271.5,-267"/>
<text text-anchor="start" x="167.5" y="-255" font-family="Helvetica,sans-Serif" font-size="10.00">elc::defs::base::string</text>
<text text-anchor="start" x="167.5" y="-244" font-family="Helvetica,sans-Serif" font-size="10.00">_view_n::string_view_t</text>
<text text-anchor="middle" x="215.5" y="-233" font-family="Helvetica,sans-Serif" font-size="10.00">&lt; char_T &gt;</text>
</a>
</g>
</g>
<!-- Node3&#45;&gt;Node2 -->
<g id="edge2" class="edge">
<title>Node3&#45;&gt;Node2</title>
<path fill="none" stroke="#63b8ff" d="M281.69,-246.5C303.5,-246.5 327.82,-246.5 349.65,-246.5"/>
<polygon fill="#63b8ff" stroke="#63b8ff" points="281.53,-243 271.53,-246.5 281.53,-250 281.53,-243"/>
</g>
<!-- Node4 -->
<g id="node4" class="node">
<title>Node4</title>
<g id="a_node4"><a xlink:href="structelc_1_1defs_1_1base_1_1array__like__n_1_1array__like__view__t.html" target="_top" xlink:title=" ">
<polygon fill="white" stroke="#666666" points="119,-267 0,-267 0,-226 119,-226 119,-267"/>
<text text-anchor="start" x="8" y="-255" font-family="Helvetica,sans-Serif" font-size="10.00">elc::defs::base::array</text>
<text text-anchor="start" x="8" y="-244" font-family="Helvetica,sans-Serif" font-size="10.00">_like_n::array_like_view</text>
<text text-anchor="middle" x="59.5" y="-233" font-family="Helvetica,sans-Serif" font-size="10.00">_t&lt; T &gt;</text>
</a>
</g>
</g>
<!-- Node4&#45;&gt;Node3 -->
<g id="edge3" class="edge">
<title>Node4&#45;&gt;Node3</title>
<path fill="none" stroke="#63b8ff" d="M129.47,-246.5C139.46,-246.5 149.63,-246.5 159.3,-246.5"/>
<polygon fill="#63b8ff" stroke="#63b8ff" points="129.16,-243 119.16,-246.5 129.16,-250 129.16,-243"/>
</g>
<!-- Node5 -->
<g id="node5" class="node">
<title>Node5</title>
<g id="a_node5"><a xlink:href="structelc_1_1defs_1_1base_1_1hash__n_1_1hash__value__t.html" target="_top" xlink:title=" ">
<polygon fill="white" stroke="#666666" points="469.5,-207.5 362.5,-207.5 362.5,-177.5 469.5,-177.5 469.5,-207.5"/>
<text text-anchor="start" x="370.5" y="-195.5" font-family="Helvetica,sans-Serif" font-size="10.00">elc::defs::base::hash</text>
<text text-anchor="middle" x="416" y="-184.5" font-family="Helvetica,sans-Serif" font-size="10.00">_n::hash_value_t</text>
</a>
</g>
</g>
<!-- Node5&#45;&gt;Node1 -->
<g id="edge4" class="edge">
<title>Node5&#45;&gt;Node1</title>
<path fill="none" stroke="#9a32cd" stroke-dasharray="5,2" d="M479.53,-179.83C521.72,-171.28 577.22,-160.04 619.68,-151.43"/>
<polygon fill="#9a32cd" stroke="#9a32cd" points="478.76,-176.42 469.65,-181.83 480.15,-183.28 478.76,-176.42"/>
<text text-anchor="middle" x="551" y="-177.5" font-family="Helvetica,sans-Serif" font-size="10.00"> hash_result</text>
</g>
<!-- Node6 -->
<g id="node6" class="node">
<title>Node6</title>
<g id="a_node6"><a xlink:href="structelc_1_1defs_1_1base_1_1range__n_1_1match__pattern.html" target="_top" xlink:title=" ">
<polygon fill="white" stroke="#666666" points="480,-159 352,-159 352,-118 480,-118 480,-159"/>
<text text-anchor="start" x="360" y="-147" font-family="Helvetica,sans-Serif" font-size="10.00">elc::defs::base::range</text>
<text text-anchor="start" x="360" y="-136" font-family="Helvetica,sans-Serif" font-size="10.00">_n::match_pattern&lt; const</text>
<text text-anchor="middle" x="416" y="-125" font-family="Helvetica,sans-Serif" font-size="10.00"> char_T &gt;</text>
</a>
</g>
</g>
<!-- Node6&#45;&gt;Node1 -->
<g id="edge5" class="edge">
<title>Node6&#45;&gt;Node1</title>
<path fill="none" stroke="#9a32cd" stroke-dasharray="5,2" d="M490.27,-138.5C530.89,-138.5 580.9,-138.5 619.87,-138.5"/>
<polygon fill="#9a32cd" stroke="#9a32cd" points="490.16,-135 480.16,-138.5 490.16,-142 490.16,-135"/>
<text text-anchor="middle" x="551" y="-141.5" font-family="Helvetica,sans-Serif" font-size="10.00"> match_pattern</text>
</g>
<!-- Node7 -->
<g id="node7" class="node">
<title>Node7</title>
<g id="a_node7"><a xlink:href="structelc_1_1defs_1_1base_1_1array__like__n_1_1array__like__view__t.html" target="_top" xlink:title=" ">
<polygon fill="white" stroke="#666666" points="275,-127 156,-127 156,-86 275,-86 275,-127"/>
<text text-anchor="start" x="164" y="-115" font-family="Helvetica,sans-Serif" font-size="10.00">elc::defs::base::array</text>
<text text-anchor="start" x="164" y="-104" font-family="Helvetica,sans-Serif" font-size="10.00">_like_n::array_like_view</text>
<text text-anchor="middle" x="215.5" y="-93" font-family="Helvetica,sans-Serif" font-size="10.00">_t&lt; const char_T &gt;</text>
</a>
</g>
</g>
<!-- Node7&#45;&gt;Node6 -->
<g id="edge6" class="edge">
<title>Node7&#45;&gt;Node6</title>
<path fill="none" stroke="#9a32cd" stroke-dasharray="5,2" d="M285.34,-117.6C306.96,-121.08 330.7,-124.91 351.9,-128.33"/>
<polygon fill="#9a32cd" stroke="#9a32cd" points="285.68,-114.11 275.25,-115.97 284.57,-121.02 285.68,-114.11"/>
<text text-anchor="middle" x="312.5" y="-126.5" font-family="Helvetica,sans-Serif" font-size="10.00"> _pattern</text>
</g>
<!-- Node8 -->
<g id="node8" class="node">
<title>Node8</title>
<g id="a_node8"><a xlink:href="structelc_1_1defs_1_1base_1_1range__n_1_1reverse__match__pattern.html" target="_top" xlink:title=" ">
<polygon fill="white" stroke="#666666" points="481.5,-100 350.5,-100 350.5,-59 481.5,-59 481.5,-100"/>
<text text-anchor="start" x="358.5" y="-88" font-family="Helvetica,sans-Serif" font-size="10.00">elc::defs::base::range</text>
<text text-anchor="start" x="358.5" y="-77" font-family="Helvetica,sans-Serif" font-size="10.00">_n::reverse_match_pattern</text>
<text text-anchor="middle" x="416" y="-66" font-family="Helvetica,sans-Serif" font-size="10.00">&lt; const char_T &gt;</text>
</a>
</g>
</g>
<!-- Node7&#45;&gt;Node8 -->
<g id="edge8" class="edge">
<title>Node7&#45;&gt;Node8</title>
<path fill="none" stroke="#9a32cd" stroke-dasharray="5,2" d="M285.36,-94.62C287.94,-94.23 290.49,-93.86 293,-93.5 311.57,-90.86 331.79,-88.38 350.33,-86.26"/>
<polygon fill="#9a32cd" stroke="#9a32cd" points="284.69,-91.18 275.34,-96.17 285.76,-98.1 284.69,-91.18"/>
<text text-anchor="middle" x="312.5" y="-96.5" font-family="Helvetica,sans-Serif" font-size="10.00"> _pattern</text>
</g>
<!-- Node8&#45;&gt;Node1 -->
<g id="edge7" class="edge">
<title>Node8&#45;&gt;Node1</title>
<path fill="none" stroke="#9a32cd" stroke-dasharray="5,2" d="M491.29,-95.95C531.63,-104.88 580.98,-115.8 619.58,-124.35"/>
<polygon fill="#9a32cd" stroke="#9a32cd" points="492.03,-92.53 481.51,-93.78 490.52,-99.36 492.03,-92.53"/>
<text text-anchor="middle" x="551" y="-121.5" font-family="Helvetica,sans-Serif" font-size="10.00"> reverse_match_pattern</text>
</g>
<!-- Node9 -->
<g id="node9" class="node">
<title>Node9</title>
<g id="a_node9"><a xlink:href="structelc_1_1defs_1_1base_1_1range__n_1_1bitmark__for__finds.html" target="_top" xlink:title=" ">
<polygon fill="white" stroke="#666666" points="471,-41 361,-41 361,0 471,0 471,-41"/>
<text text-anchor="start" x="369" y="-29" font-family="Helvetica,sans-Serif" font-size="10.00">elc::defs::base::range</text>
<text text-anchor="start" x="369" y="-18" font-family="Helvetica,sans-Serif" font-size="10.00">_n::bitmark_for_finds</text>
<text text-anchor="middle" x="416" y="-7" font-family="Helvetica,sans-Serif" font-size="10.00">&lt; const char_T &gt;</text>
</a>
</g>
</g>
<!-- Node9&#45;&gt;Node1 -->
<g id="edge9" class="edge">
<title>Node9&#45;&gt;Node1</title>
<path fill="none" stroke="#9a32cd" stroke-dasharray="5,2" d="M481.14,-37.76C517.54,-48.67 563.39,-64.33 602,-83.5 621.26,-93.07 641.31,-106.54 656.7,-117.76"/>
<polygon fill="#9a32cd" stroke="#9a32cd" points="481.72,-34.28 471.14,-34.8 479.74,-40.99 481.72,-34.28"/>
<text text-anchor="middle" x="551" y="-86.5" font-family="Helvetica,sans-Serif" font-size="10.00"> bitmark_for_finds</text>
</g>
</g>
</svg>
