<?xml version="1.0" encoding="UTF-8" standalone="no"?>
<!DOCTYPE svg PUBLIC "-//W3C//DTD SVG 1.1//EN"
 "http://www.w3.org/Graphics/SVG/1.1/DTD/svg11.dtd">
<!-- Generated by graphviz version 6.0.1 (20220911.1526)
 -->
<!-- Title: elc::defs::core::value::operator ptr Pages: 1 -->
<svg width="398pt" height="86pt"
 viewBox="0.00 0.00 398.00 86.00" xmlns="http://www.w3.org/2000/svg" xmlns:xlink="http://www.w3.org/1999/xlink">
<g id="graph0" class="graph" transform="scale(1 1) rotate(0) translate(4 82)">
<title>elc::defs::core::value::operator ptr</title>
<!-- Node1 -->
<g id="node1" class="node">
<title>Node1</title>
<g id="a_node1"><a xlink:title=" ">
<polygon fill="#999999" stroke="#666666" points="390,-54 284,-54 284,-24 390,-24 390,-54"/>
<text text-anchor="start" x="292" y="-42" font-family="Helvetica,sans-Serif" font-size="10.00">elc::defs::core::value</text>
<text text-anchor="middle" x="337" y="-31" font-family="Helvetica,sans-Serif" font-size="10.00">::operator ptr</text>
</a>
</g>
</g>
<!-- Node2 -->
<g id="node2" class="node">
<title>Node2</title>
<g id="a_node2"><a xlink:href="structelc_1_1defs_1_1core_1_1value.html#ab5fb050cbffc44b68278d440175013ae" target="_top" xlink:title=" ">
<polygon fill="white" stroke="#666666" points="248,-54 142,-54 142,-24 248,-24 248,-54"/>
<text text-anchor="start" x="150" y="-42" font-family="Helvetica,sans-Serif" font-size="10.00">elc::defs::core::value</text>
<text text-anchor="middle" x="195" y="-31" font-family="Helvetica,sans-Serif" font-size="10.00">::operator&amp;</text>
</a>
</g>
</g>
<!-- Node1&#45;&gt;Node2 -->
<g id="edge1" class="edge">
<title>Node1&#45;&gt;Node2</title>
<path fill="none" stroke="#63b8ff" d="M273.61,-39C265.12,-39 256.47,-39 248.17,-39"/>
<polygon fill="#63b8ff" stroke="#63b8ff" points="273.87,-42.5 283.87,-39 273.87,-35.5 273.87,-42.5"/>
</g>
<!-- Node3 -->
<g id="node3" class="node">
<title>Node3</title>
<g id="a_node3"><a xlink:href="structelc_1_1defs_1_1core_1_1value.html#a064266fb65d89dbaede26b072f4f09e9" target="_top" xlink:title=" ">
<polygon fill="white" stroke="#666666" points="106,-78 0,-78 0,-48 106,-48 106,-78"/>
<text text-anchor="start" x="8" y="-66" font-family="Helvetica,sans-Serif" font-size="10.00">elc::defs::core::value</text>
<text text-anchor="middle" x="53" y="-55" font-family="Helvetica,sans-Serif" font-size="10.00">::operator()</text>
</a>
</g>
</g>
<!-- Node2&#45;&gt;Node3 -->
<g id="edge2" class="edge">
<title>Node2&#45;&gt;Node3</title>
<path fill="none" stroke="#63b8ff" d="M131.89,-49.65C123.31,-51.12 114.56,-52.62 106.17,-54.06"/>
<polygon fill="#63b8ff" stroke="#63b8ff" points="132.6,-53.08 141.87,-47.94 131.42,-46.18 132.6,-53.08"/>
</g>
<!-- Node4 -->
<g id="node4" class="node">
<title>Node4</title>
<g id="a_node4"><a xlink:href="structelc_1_1defs_1_1core_1_1value.html#a4236d768c466220881619212d9779fa1" target="_top" xlink:title=" ">
<polygon fill="white" stroke="#666666" points="106,-30 0,-30 0,0 106,0 106,-30"/>
<text text-anchor="start" x="8" y="-18" font-family="Helvetica,sans-Serif" font-size="10.00">elc::defs::core::value</text>
<text text-anchor="middle" x="53" y="-7" font-family="Helvetica,sans-Serif" font-size="10.00">::operator[]</text>
</a>
</g>
</g>
<!-- Node2&#45;&gt;Node4 -->
<g id="edge3" class="edge">
<title>Node2&#45;&gt;Node4</title>
<path fill="none" stroke="#63b8ff" d="M131.89,-28.35C123.31,-26.88 114.56,-25.38 106.17,-23.94"/>
<polygon fill="#63b8ff" stroke="#63b8ff" points="131.42,-31.82 141.87,-30.06 132.6,-24.92 131.42,-31.82"/>
</g>
</g>
</svg>
