<?xml version="1.0" encoding="UTF-8" standalone="no"?>
<!DOCTYPE svg PUBLIC "-//W3C//DTD SVG 1.1//EN"
 "http://www.w3.org/Graphics/SVG/1.1/DTD/svg11.dtd">
<!-- Generated by graphviz version 6.0.1 (20220911.1526)
 -->
<!-- Title: elc::defs::memory::others_n::replace_able&lt; T &gt; Pages: 1 -->
<svg width="455pt" height="182pt"
 viewBox="0.00 0.00 455.00 182.00" xmlns="http://www.w3.org/2000/svg" xmlns:xlink="http://www.w3.org/1999/xlink">
<g id="graph0" class="graph" transform="scale(1 1) rotate(0) translate(4 178)">
<title>elc::defs::memory::others_n::replace_able&lt; T &gt;</title>
<!-- Node1 -->
<g id="node1" class="node">
<title>Node1</title>
<g id="a_node1"><a xlink:title=" ">
<polygon fill="#999999" stroke="#666666" points="447,-78 309,-78 309,-48 447,-48 447,-78"/>
<text text-anchor="start" x="317" y="-66" font-family="Helvetica,sans-Serif" font-size="10.00">elc::defs::memory::</text>
<text text-anchor="middle" x="378" y="-55" font-family="Helvetica,sans-Serif" font-size="10.00">others_n::replace_able&lt; T &gt;</text>
</a>
</g>
</g>
<!-- Node2 -->
<g id="node2" class="node">
<title>Node2</title>
<g id="a_node2"><a xlink:href="structelc_1_1defs_1_1base_1_1non__copyable.html" target="_top" xlink:title=" ">
<polygon fill="white" stroke="#666666" points="262,-126 160,-126 160,-96 262,-96 262,-126"/>
<text text-anchor="start" x="168" y="-114" font-family="Helvetica,sans-Serif" font-size="10.00">elc::defs::base::non</text>
<text text-anchor="middle" x="211" y="-103" font-family="Helvetica,sans-Serif" font-size="10.00">_copyable</text>
</a>
</g>
</g>
<!-- Node2&#45;&gt;Node1 -->
<g id="edge1" class="edge">
<title>Node2&#45;&gt;Node1</title>
<path fill="none" stroke="#63b8ff" d="M272.41,-93.43C289.73,-88.39 308.45,-82.94 325.2,-78.07"/>
<polygon fill="#63b8ff" stroke="#63b8ff" points="271.03,-90.18 262.4,-96.34 272.98,-96.9 271.03,-90.18"/>
</g>
<!-- Node3 -->
<g id="node3" class="node">
<title>Node3</title>
<g id="a_node3"><a xlink:href="structelc_1_1defs_1_1base_1_1non__copy__assign__able.html" target="_top" xlink:title=" ">
<polygon fill="white" stroke="#666666" points="107.5,-174 5.5,-174 5.5,-144 107.5,-144 107.5,-174"/>
<text text-anchor="start" x="13.5" y="-162" font-family="Helvetica,sans-Serif" font-size="10.00">elc::defs::base::non</text>
<text text-anchor="middle" x="56.5" y="-151" font-family="Helvetica,sans-Serif" font-size="10.00">_copy_assign_able</text>
</a>
</g>
</g>
<!-- Node3&#45;&gt;Node2 -->
<g id="edge2" class="edge">
<title>Node3&#45;&gt;Node2</title>
<path fill="none" stroke="#63b8ff" d="M114.9,-140.93C130.54,-136.01 147.3,-130.73 162.34,-126"/>
<polygon fill="#63b8ff" stroke="#63b8ff" points="113.82,-137.6 105.33,-143.94 115.92,-144.28 113.82,-137.6"/>
</g>
<!-- Node4 -->
<g id="node4" class="node">
<title>Node4</title>
<g id="a_node4"><a xlink:href="structelc_1_1defs_1_1base_1_1non__copy__construct__able.html" target="_top" xlink:title=" ">
<polygon fill="white" stroke="#666666" points="112.5,-126 0.5,-126 0.5,-96 112.5,-96 112.5,-126"/>
<text text-anchor="start" x="8.5" y="-114" font-family="Helvetica,sans-Serif" font-size="10.00">elc::defs::base::non</text>
<text text-anchor="middle" x="56.5" y="-103" font-family="Helvetica,sans-Serif" font-size="10.00">_copy_construct_able</text>
</a>
</g>
</g>
<!-- Node4&#45;&gt;Node2 -->
<g id="edge3" class="edge">
<title>Node4&#45;&gt;Node2</title>
<path fill="none" stroke="#63b8ff" d="M122.84,-111C135.23,-111 148.01,-111 159.84,-111"/>
<polygon fill="#63b8ff" stroke="#63b8ff" points="122.56,-107.5 112.56,-111 122.56,-114.5 122.56,-107.5"/>
</g>
<!-- Node5 -->
<g id="node5" class="node">
<title>Node5</title>
<g id="a_node5"><a xlink:href="structelc_1_1defs_1_1base_1_1non__moveable.html" target="_top" xlink:title=" ">
<polygon fill="white" stroke="#666666" points="262,-78 160,-78 160,-48 262,-48 262,-78"/>
<text text-anchor="start" x="168" y="-66" font-family="Helvetica,sans-Serif" font-size="10.00">elc::defs::base::non</text>
<text text-anchor="middle" x="211" y="-55" font-family="Helvetica,sans-Serif" font-size="10.00">_moveable</text>
</a>
</g>
</g>
<!-- Node5&#45;&gt;Node1 -->
<g id="edge4" class="edge">
<title>Node5&#45;&gt;Node1</title>
<path fill="none" stroke="#63b8ff" d="M272.61,-63C284.44,-63 296.92,-63 308.98,-63"/>
<polygon fill="#63b8ff" stroke="#63b8ff" points="272.4,-59.5 262.4,-63 272.4,-66.5 272.4,-59.5"/>
</g>
<!-- Node6 -->
<g id="node6" class="node">
<title>Node6</title>
<g id="a_node6"><a xlink:href="structelc_1_1defs_1_1base_1_1non__move__assign__able.html" target="_top" xlink:title=" ">
<polygon fill="white" stroke="#666666" points="107.5,-78 5.5,-78 5.5,-48 107.5,-48 107.5,-78"/>
<text text-anchor="start" x="13.5" y="-66" font-family="Helvetica,sans-Serif" font-size="10.00">elc::defs::base::non</text>
<text text-anchor="middle" x="56.5" y="-55" font-family="Helvetica,sans-Serif" font-size="10.00">_move_assign_able</text>
</a>
</g>
</g>
<!-- Node6&#45;&gt;Node5 -->
<g id="edge5" class="edge">
<title>Node6&#45;&gt;Node5</title>
<path fill="none" stroke="#63b8ff" d="M118.26,-63C132.09,-63 146.63,-63 159.96,-63"/>
<polygon fill="#63b8ff" stroke="#63b8ff" points="117.86,-59.5 107.86,-63 117.86,-66.5 117.86,-59.5"/>
</g>
<!-- Node7 -->
<g id="node7" class="node">
<title>Node7</title>
<g id="a_node7"><a xlink:href="structelc_1_1defs_1_1base_1_1non__move__construct__able.html" target="_top" xlink:title=" ">
<polygon fill="white" stroke="#666666" points="113,-30 0,-30 0,0 113,0 113,-30"/>
<text text-anchor="start" x="8" y="-18" font-family="Helvetica,sans-Serif" font-size="10.00">elc::defs::base::non</text>
<text text-anchor="middle" x="56.5" y="-7" font-family="Helvetica,sans-Serif" font-size="10.00">_move_construct_able</text>
</a>
</g>
</g>
<!-- Node7&#45;&gt;Node5 -->
<g id="edge6" class="edge">
<title>Node7&#45;&gt;Node5</title>
<path fill="none" stroke="#63b8ff" d="M114.9,-33.07C130.54,-37.99 147.3,-43.27 162.34,-48"/>
<polygon fill="#63b8ff" stroke="#63b8ff" points="115.92,-29.72 105.33,-30.06 113.82,-36.4 115.92,-29.72"/>
</g>
<!-- Node8 -->
<g id="node8" class="node">
<title>Node8</title>
<g id="a_node8"><a xlink:href="structelc_1_1defs_1_1base_1_1attribute.html" target="_top" xlink:title=" ">
<polygon fill="white" stroke="#666666" points="273,-30 149,-30 149,0 273,0 273,-30"/>
<text text-anchor="start" x="157" y="-18" font-family="Helvetica,sans-Serif" font-size="10.00">elc::defs::base::attribute</text>
<text text-anchor="middle" x="211" y="-7" font-family="Helvetica,sans-Serif" font-size="10.00">&lt; T, replace_able&lt; T &gt; &gt;</text>
</a>
</g>
</g>
<!-- Node8&#45;&gt;Node1 -->
<g id="edge7" class="edge">
<title>Node8&#45;&gt;Node1</title>
<path fill="none" stroke="#63b8ff" d="M273.63,-32.93C290.68,-37.89 309.01,-43.22 325.43,-48"/>
<polygon fill="#63b8ff" stroke="#63b8ff" points="274.33,-29.49 263.75,-30.06 272.38,-36.21 274.33,-29.49"/>
</g>
</g>
</svg>
