<?xml version="1.0" encoding="UTF-8" standalone="no"?>
<!DOCTYPE svg PUBLIC "-//W3C//DTD SVG 1.1//EN"
 "http://www.w3.org/Graphics/SVG/1.1/DTD/svg11.dtd">
<!-- Generated by graphviz version 6.0.1 (20220911.1526)
 -->
<!-- Title: elc::defs::string_n::string_data_n::base_string_data_t&lt; char_T &gt; Pages: 1 -->
<svg width="383pt" height="178pt"
 viewBox="0.00 0.00 383.00 178.00" xmlns="http://www.w3.org/2000/svg" xmlns:xlink="http://www.w3.org/1999/xlink">
<g id="graph0" class="graph" transform="scale(1 1) rotate(0) translate(4 174)">
<title>elc::defs::string_n::string_data_n::base_string_data_t&lt; char_T &gt;</title>
<!-- Node1 -->
<g id="node1" class="node">
<title>Node1</title>
<g id="a_node1"><a xlink:title=" ">
<polygon fill="#999999" stroke="#666666" points="375,-83.5 250,-83.5 250,-42.5 375,-42.5 375,-83.5"/>
<text text-anchor="start" x="258" y="-71.5" font-family="Helvetica,sans-Serif" font-size="10.00">elc::defs::string_n</text>
<text text-anchor="start" x="258" y="-60.5" font-family="Helvetica,sans-Serif" font-size="10.00">::string_data_n::base</text>
<text text-anchor="middle" x="312.5" y="-49.5" font-family="Helvetica,sans-Serif" font-size="10.00">_string_data_t&lt; char_T &gt;</text>
</a>
</g>
</g>
<!-- Node2 -->
<g id="node2" class="node">
<title>Node2</title>
<g id="a_node2"><a xlink:title=" ">
<polygon fill="white" stroke="#666666" points="153,-170 0,-170 0,-96 153,-96 153,-170"/>
<text text-anchor="start" x="8" y="-158" font-family="Helvetica,sans-Serif" font-size="10.00">type_info_t&lt; base_string</text>
<text text-anchor="start" x="8" y="-147" font-family="Helvetica,sans-Serif" font-size="10.00">_data_t&lt; char_T &gt; &gt;:: template</text>
<text text-anchor="middle" x="76.5" y="-136" font-family="Helvetica,sans-Serif" font-size="10.00"> </text>
<text text-anchor="start" x="8" y="-125" font-family="Helvetica,sans-Serif" font-size="10.00">	with_common_attribute</text>
<text text-anchor="start" x="8" y="-114" font-family="Helvetica,sans-Serif" font-size="10.00">&lt; abstract_base, never_in</text>
<text text-anchor="middle" x="76.5" y="-103" font-family="Helvetica,sans-Serif" font-size="10.00">_array, replace_able, ref_able &gt;</text>
</a>
</g>
</g>
<!-- Node2&#45;&gt;Node1 -->
<g id="edge1" class="edge">
<title>Node2&#45;&gt;Node1</title>
<path fill="none" stroke="#63b8ff" d="M162.8,-107.48C191.6,-98.87 223.17,-89.42 249.78,-81.46"/>
<polygon fill="#63b8ff" stroke="#63b8ff" points="161.73,-104.15 153.15,-110.37 163.73,-110.86 161.73,-104.15"/>
</g>
<!-- Node3 -->
<g id="node3" class="node">
<title>Node3</title>
<g id="a_node3"><a xlink:href="classelc_1_1defs_1_1base_1_1build__by__get__only.html" target="_top" xlink:title=" ">
<polygon fill="white" stroke="#666666" points="130,-78 23,-78 23,-48 130,-48 130,-78"/>
<text text-anchor="start" x="31" y="-66" font-family="Helvetica,sans-Serif" font-size="10.00">elc::defs::base::build</text>
<text text-anchor="middle" x="76.5" y="-55" font-family="Helvetica,sans-Serif" font-size="10.00">_by_get_only</text>
</a>
</g>
</g>
<!-- Node3&#45;&gt;Node1 -->
<g id="edge2" class="edge">
<title>Node3&#45;&gt;Node1</title>
<path fill="none" stroke="#63b8ff" d="M140.27,-63C174.17,-63 215.86,-63 249.62,-63"/>
<polygon fill="#63b8ff" stroke="#63b8ff" points="140.01,-59.5 130.01,-63 140.01,-66.5 140.01,-59.5"/>
</g>
<!-- Node4 -->
<g id="node4" class="node">
<title>Node4</title>
<g id="a_node4"><a xlink:href="structelc_1_1defs_1_1base_1_1hash__n_1_1hash__value__t.html" target="_top" xlink:title=" ">
<polygon fill="white" stroke="#666666" points="130,-30 23,-30 23,0 130,0 130,-30"/>
<text text-anchor="start" x="31" y="-18" font-family="Helvetica,sans-Serif" font-size="10.00">elc::defs::base::hash</text>
<text text-anchor="middle" x="76.5" y="-7" font-family="Helvetica,sans-Serif" font-size="10.00">_n::hash_value_t</text>
</a>
</g>
</g>
<!-- Node4&#45;&gt;Node1 -->
<g id="edge3" class="edge">
<title>Node4&#45;&gt;Node1</title>
<path fill="none" stroke="#9a32cd" stroke-dasharray="5,2" d="M139.83,-27.79C173.81,-34.75 215.72,-43.35 249.62,-50.31"/>
<polygon fill="#9a32cd" stroke="#9a32cd" points="140.51,-24.35 130.01,-25.77 139.11,-31.21 140.51,-24.35"/>
<text text-anchor="middle" x="201.5" y="-49" font-family="Helvetica,sans-Serif" font-size="10.00"> _hash_cache</text>
</g>
</g>
</svg>
