<?xml version="1.0" encoding="UTF-8" standalone="no"?>
<!DOCTYPE svg PUBLIC "-//W3C//DTD SVG 1.1//EN"
 "http://www.w3.org/Graphics/SVG/1.1/DTD/svg11.dtd">
<!-- Generated by graphviz version 6.0.1 (20220911.1526)
 -->
<!-- Title: elc::defs::core::code_list::be_eval Pages: 1 -->
<svg width="259pt" height="155pt"
 viewBox="0.00 0.00 259.00 155.00" xmlns="http://www.w3.org/2000/svg" xmlns:xlink="http://www.w3.org/1999/xlink">
<g id="graph0" class="graph" transform="scale(1 1) rotate(0) translate(4 151)">
<title>elc::defs::core::code_list::be_eval</title>
<!-- Node1 -->
<g id="node1" class="node">
<title>Node1</title>
<g id="a_node1"><a xlink:title=" ">
<polygon fill="#999999" stroke="#666666" points="105,-79.5 0,-79.5 0,-49.5 105,-49.5 105,-79.5"/>
<text text-anchor="start" x="8" y="-67.5" font-family="Helvetica,sans-Serif" font-size="10.00">elc::defs::core::code</text>
<text text-anchor="middle" x="52.5" y="-56.5" font-family="Helvetica,sans-Serif" font-size="10.00">_list::be_eval</text>
</a>
</g>
</g>
<!-- Node2 -->
<g id="node2" class="node">
<title>Node2</title>
<g id="a_node2"><a xlink:href="namespaceelc_1_1defs_1_1core.html#a72636fe7dced40c72eb59b1d7e77e15e" target="_top" xlink:title=" ">
<polygon fill="white" stroke="#666666" points="251,-129 141,-129 141,-110 251,-110 251,-129"/>
<text text-anchor="middle" x="196" y="-117" font-family="Helvetica,sans-Serif" font-size="10.00">elc::defs::core::car_of</text>
</a>
</g>
</g>
<!-- Node1&#45;&gt;Node2 -->
<g id="edge1" class="edge">
<title>Node1&#45;&gt;Node2</title>
<path fill="none" stroke="#63b8ff" d="M87.32,-79.53C103.46,-86.51 123.1,-94.74 141,-101.5 145.56,-103.22 150.36,-104.94 155.15,-106.61"/>
<polygon fill="#63b8ff" stroke="#63b8ff" points="154.27,-110.01 164.86,-109.92 156.52,-103.38 154.27,-110.01"/>
</g>
<!-- Node3 -->
<g id="node3" class="node">
<title>Node3</title>
<g id="a_node3"><a xlink:href="namespaceelc_1_1defs_1_1core.html#a44028d2ee30d52c14d515a577dfc0461" target="_top" xlink:title=" ">
<polygon fill="white" stroke="#666666" points="251,-74 141,-74 141,-55 251,-55 251,-74"/>
<text text-anchor="middle" x="196" y="-62" font-family="Helvetica,sans-Serif" font-size="10.00">elc::defs::core::cdr_of</text>
</a>
</g>
</g>
<!-- Node1&#45;&gt;Node3 -->
<g id="edge3" class="edge">
<title>Node1&#45;&gt;Node3</title>
<path fill="none" stroke="#63b8ff" d="M105.39,-64.5C113.57,-64.5 122.12,-64.5 130.55,-64.5"/>
<polygon fill="#63b8ff" stroke="#63b8ff" points="130.74,-68 140.74,-64.5 130.74,-61 130.74,-68"/>
</g>
<!-- Node4 -->
<g id="node4" class="node">
<title>Node4</title>
<g id="a_node4"><a xlink:href="namespaceelc_1_1defs_1_1core.html#a25facafc70fea8b2815220792440c9aa" target="_top" xlink:title=" ">
<polygon fill="white" stroke="#666666" points="246.5,-19 145.5,-19 145.5,0 246.5,0 246.5,-19"/>
<text text-anchor="middle" x="196" y="-7" font-family="Helvetica,sans-Serif" font-size="10.00">elc::defs::core::eval</text>
</a>
</g>
</g>
<!-- Node1&#45;&gt;Node4 -->
<g id="edge5" class="edge">
<title>Node1&#45;&gt;Node4</title>
<path fill="none" stroke="#63b8ff" d="M92.17,-49.47C113.64,-41.12 140.12,-30.83 160.83,-22.78"/>
<polygon fill="#63b8ff" stroke="#63b8ff" points="162.14,-26.03 170.19,-19.14 159.6,-19.5 162.14,-26.03"/>
</g>
<!-- Node2&#45;&gt;Node2 -->
<g id="edge2" class="edge">
<title>Node2&#45;&gt;Node2</title>
<path fill="none" stroke="#63b8ff" d="M173.88,-129.08C163.12,-137.73 170.5,-147 196,-147 212.34,-147 221.24,-143.2 222.69,-138.19"/>
<polygon fill="#63b8ff" stroke="#63b8ff" points="225.73,-136.45 218.12,-129.08 219.48,-139.59 225.73,-136.45"/>
</g>
<!-- Node3&#45;&gt;Node3 -->
<g id="edge4" class="edge">
<title>Node3&#45;&gt;Node3</title>
<path fill="none" stroke="#63b8ff" d="M173.88,-74.08C163.12,-82.73 170.5,-92 196,-92 212.34,-92 221.24,-88.2 222.69,-83.19"/>
<polygon fill="#63b8ff" stroke="#63b8ff" points="225.73,-81.45 218.12,-74.08 219.48,-84.59 225.73,-81.45"/>
</g>
<!-- Node4&#45;&gt;Node4 -->
<g id="edge6" class="edge">
<title>Node4&#45;&gt;Node4</title>
<path fill="none" stroke="#63b8ff" d="M173.88,-19.08C163.12,-27.73 170.5,-37 196,-37 212.34,-37 221.24,-33.2 222.69,-28.19"/>
<polygon fill="#63b8ff" stroke="#63b8ff" points="225.73,-26.45 218.12,-19.08 219.48,-29.59 225.73,-26.45"/>
</g>
</g>
</svg>
