<?xml version="1.0" encoding="UTF-8" standalone="no"?>
<!DOCTYPE svg PUBLIC "-//W3C//DTD SVG 1.1//EN"
 "http://www.w3.org/Graphics/SVG/1.1/DTD/svg11.dtd">
<!-- Generated by graphviz version 6.0.1 (20220911.1526)
 -->
<!-- Title: elc::defs::string_n::string_data_n::base_string_data_t::get_data Pages: 1 -->
<svg width="341pt" height="130pt"
 viewBox="0.00 0.00 341.00 130.00" xmlns="http://www.w3.org/2000/svg" xmlns:xlink="http://www.w3.org/1999/xlink">
<g id="graph0" class="graph" transform="scale(1 1) rotate(0) translate(4 126)">
<title>elc::defs::string_n::string_data_n::base_string_data_t::get_data</title>
<!-- Node1 -->
<g id="node1" class="node">
<title>Node1</title>
<g id="a_node1"><a xlink:title=" ">
<polygon fill="#999999" stroke="#666666" points="333,-81.5 211,-81.5 211,-40.5 333,-40.5 333,-81.5"/>
<text text-anchor="start" x="219" y="-69.5" font-family="Helvetica,sans-Serif" font-size="10.00">elc::defs::string_n</text>
<text text-anchor="start" x="219" y="-58.5" font-family="Helvetica,sans-Serif" font-size="10.00">::string_data_n::base</text>
<text text-anchor="middle" x="272" y="-47.5" font-family="Helvetica,sans-Serif" font-size="10.00">_string_data_t::get_data</text>
</a>
</g>
</g>
<!-- Node2 -->
<g id="node2" class="node">
<title>Node2</title>
<g id="a_node2"><a xlink:href="structelc_1_1defs_1_1string__n_1_1string__data__n_1_1base__string__data__t.html#aaba32ac4b54bb8e1b53b60faaecd97c7" target="_top" xlink:title=" ">
<polygon fill="white" stroke="#666666" points="149.5,-122 25.5,-122 25.5,-70 149.5,-70 149.5,-122"/>
<text text-anchor="start" x="33.5" y="-110" font-family="Helvetica,sans-Serif" font-size="10.00">elc::defs::string_n</text>
<text text-anchor="start" x="33.5" y="-99" font-family="Helvetica,sans-Serif" font-size="10.00">::string_data_n::base</text>
<text text-anchor="start" x="33.5" y="-88" font-family="Helvetica,sans-Serif" font-size="10.00">_string_data_t::get_hash</text>
<text text-anchor="middle" x="87.5" y="-77" font-family="Helvetica,sans-Serif" font-size="10.00">_detail</text>
</a>
</g>
</g>
<!-- Node1&#45;&gt;Node2 -->
<g id="edge1" class="edge">
<title>Node1&#45;&gt;Node2</title>
<path fill="none" stroke="#63b8ff" d="M201.17,-74.39C184.25,-77.64 166.29,-81.08 149.8,-84.24"/>
<polygon fill="#63b8ff" stroke="#63b8ff" points="201.83,-77.83 210.99,-72.51 200.51,-70.95 201.83,-77.83"/>
</g>
<!-- Node3 -->
<g id="node3" class="node">
<title>Node3</title>
<g id="a_node3"><a xlink:href="structelc_1_1defs_1_1string__n_1_1string__data__n_1_1base__string__data__t.html#aa3494a4bee3098dd32856bc773d6bd62" target="_top" xlink:title=" ">
<polygon fill="white" stroke="#666666" points="175,-52 0,-52 0,0 175,0 175,-52"/>
<text text-anchor="start" x="8" y="-40" font-family="Helvetica,sans-Serif" font-size="10.00">elc::defs::string_n</text>
<text text-anchor="start" x="8" y="-29" font-family="Helvetica,sans-Serif" font-size="10.00">::string_data_n::base</text>
<text text-anchor="start" x="8" y="-18" font-family="Helvetica,sans-Serif" font-size="10.00">_string_data_t::get_others</text>
<text text-anchor="middle" x="87.5" y="-7" font-family="Helvetica,sans-Serif" font-size="10.00">_hash_with_calculated_before_detail</text>
</a>
</g>
</g>
<!-- Node1&#45;&gt;Node3 -->
<g id="edge2" class="edge">
<title>Node1&#45;&gt;Node3</title>
<path fill="none" stroke="#63b8ff" d="M200.91,-47.56C192.53,-45.95 183.9,-44.3 175.32,-42.65"/>
<polygon fill="#63b8ff" stroke="#63b8ff" points="200.51,-51.05 210.99,-49.49 201.83,-44.17 200.51,-51.05"/>
</g>
</g>
</svg>
