<?xml version="1.0" encoding="UTF-8" standalone="no"?>
<!DOCTYPE svg PUBLIC "-//W3C//DTD SVG 1.1//EN"
 "http://www.w3.org/Graphics/SVG/1.1/DTD/svg11.dtd">
<!-- Generated by graphviz version 6.0.1 (20220911.1526)
 -->
<!-- Title: elc::defs::string_n::string_data_n::base_string_data_t::get_data Pages: 1 -->
<svg width="950pt" height="125pt"
 viewBox="0.00 0.00 950.00 125.00" xmlns="http://www.w3.org/2000/svg" xmlns:xlink="http://www.w3.org/1999/xlink">
<g id="graph0" class="graph" transform="scale(1 1) rotate(0) translate(4 121)">
<title>elc::defs::string_n::string_data_n::base_string_data_t::get_data</title>
<!-- Node1 -->
<g id="node1" class="node">
<title>Node1</title>
<g id="a_node1"><a xlink:title=" ">
<polygon fill="#999999" stroke="#666666" points="122,-78.5 0,-78.5 0,-37.5 122,-37.5 122,-78.5"/>
<text text-anchor="start" x="8" y="-66.5" font-family="Helvetica,sans-Serif" font-size="10.00">elc::defs::string_n</text>
<text text-anchor="start" x="8" y="-55.5" font-family="Helvetica,sans-Serif" font-size="10.00">::string_data_n::base</text>
<text text-anchor="middle" x="61" y="-44.5" font-family="Helvetica,sans-Serif" font-size="10.00">_string_data_t::get_data</text>
</a>
</g>
</g>
<!-- Node2 -->
<g id="node2" class="node">
<title>Node2</title>
<g id="a_node2"><a xlink:href="structelc_1_1defs_1_1string__n_1_1string__data__n_1_1base__string__data__t.html#aa5f5e87e2c8bfafa419e22ffd0031e83" target="_top" xlink:title=" ">
<polygon fill="white" stroke="#666666" points="283,-78.5 158,-78.5 158,-37.5 283,-37.5 283,-78.5"/>
<text text-anchor="start" x="166" y="-66.5" font-family="Helvetica,sans-Serif" font-size="10.00">elc::defs::string_n</text>
<text text-anchor="start" x="166" y="-55.5" font-family="Helvetica,sans-Serif" font-size="10.00">::string_data_n::base</text>
<text text-anchor="middle" x="220.5" y="-44.5" font-family="Helvetica,sans-Serif" font-size="10.00">_string_data_t::get_c_str</text>
</a>
</g>
</g>
<!-- Node1&#45;&gt;Node2 -->
<g id="edge1" class="edge">
<title>Node1&#45;&gt;Node2</title>
<path fill="none" stroke="#63b8ff" d="M122.44,-58C130.71,-58 139.26,-58 147.7,-58"/>
<polygon fill="#63b8ff" stroke="#63b8ff" points="147.92,-61.5 157.92,-58 147.92,-54.5 147.92,-61.5"/>
</g>
<!-- Node3 -->
<g id="node3" class="node">
<title>Node3</title>
<g id="a_node3"><a xlink:href="structelc_1_1defs_1_1string__n_1_1string__data__n_1_1base__string__data__t.html#a227895efa43cef13ea08acbb270d1fd6" target="_top" xlink:title=" ">
<polygon fill="white" stroke="#666666" points="435,-84 319,-84 319,-32 435,-32 435,-84"/>
<text text-anchor="start" x="327" y="-72" font-family="Helvetica,sans-Serif" font-size="10.00">elc::defs::string_n</text>
<text text-anchor="start" x="327" y="-61" font-family="Helvetica,sans-Serif" font-size="10.00">::string_data_n::base</text>
<text text-anchor="start" x="327" y="-50" font-family="Helvetica,sans-Serif" font-size="10.00">_string_data_t::positive</text>
<text text-anchor="middle" x="377" y="-39" font-family="Helvetica,sans-Serif" font-size="10.00">_gc_profit</text>
</a>
</g>
</g>
<!-- Node2&#45;&gt;Node3 -->
<g id="edge2" class="edge">
<title>Node2&#45;&gt;Node3</title>
<path fill="none" stroke="#63b8ff" d="M283.01,-58C291.38,-58 300.02,-58 308.49,-58"/>
<polygon fill="#63b8ff" stroke="#63b8ff" points="308.72,-61.5 318.72,-58 308.72,-54.5 308.72,-61.5"/>
</g>
<!-- Node4 -->
<g id="node4" class="node">
<title>Node4</title>
<g id="a_node4"><a xlink:href="structelc_1_1defs_1_1string__n_1_1string__data__n_1_1base__string__data__t.html#a4310bddc1aa2f4c61118c83cfda142a3" target="_top" xlink:title=" ">
<polygon fill="white" stroke="#666666" points="584,-84 471,-84 471,-32 584,-32 584,-84"/>
<text text-anchor="start" x="479" y="-72" font-family="Helvetica,sans-Serif" font-size="10.00">elc::defs::string_n</text>
<text text-anchor="start" x="479" y="-61" font-family="Helvetica,sans-Serif" font-size="10.00">::string_data_n::base</text>
<text text-anchor="start" x="479" y="-50" font-family="Helvetica,sans-Serif" font-size="10.00">_string_data_t::get_gc</text>
<text text-anchor="middle" x="527.5" y="-39" font-family="Helvetica,sans-Serif" font-size="10.00">_profit</text>
</a>
</g>
</g>
<!-- Node3&#45;&gt;Node4 -->
<g id="edge3" class="edge">
<title>Node3&#45;&gt;Node4</title>
<path fill="none" stroke="#63b8ff" d="M435.41,-58C443.65,-58 452.18,-58 460.57,-58"/>
<polygon fill="#63b8ff" stroke="#63b8ff" points="460.7,-61.5 470.7,-58 460.7,-54.5 460.7,-61.5"/>
</g>
<!-- Node5 -->
<g id="node5" class="node">
<title>Node5</title>
<g id="a_node5"><a xlink:href="structelc_1_1defs_1_1string__n_1_1string__data__n_1_1base__string__data__t.html#ae456734a95cc74c83fd9cfd7d7724c00" target="_top" xlink:title=" ">
<polygon fill="white" stroke="#666666" points="782,-111.5 620,-111.5 620,-70.5 782,-70.5 782,-111.5"/>
<text text-anchor="start" x="628" y="-99.5" font-family="Helvetica,sans-Serif" font-size="10.00">elc::defs::string_n</text>
<text text-anchor="start" x="628" y="-88.5" font-family="Helvetica,sans-Serif" font-size="10.00">::string_data_n::base</text>
<text text-anchor="middle" x="701" y="-77.5" font-family="Helvetica,sans-Serif" font-size="10.00">_string_data_t::get_memory_cost</text>
</a>
</g>
</g>
<!-- Node4&#45;&gt;Node5 -->
<g id="edge4" class="edge">
<title>Node4&#45;&gt;Node5</title>
<path fill="none" stroke="#63b8ff" d="M584.18,-68.71C592.5,-70.31 601.24,-72 610.05,-73.69"/>
<polygon fill="#63b8ff" stroke="#63b8ff" points="609.51,-77.15 619.99,-75.61 610.84,-70.28 609.51,-77.15"/>
</g>
<!-- Node7 -->
<g id="node7" class="node">
<title>Node7</title>
<g id="a_node7"><a xlink:href="structelc_1_1defs_1_1string__n_1_1string__data__n_1_1base__string__data__t.html#a7384849ba6050fa2a369c8408921029e" target="_top" xlink:title=" ">
<polygon fill="white" stroke="#666666" points="770,-52 632,-52 632,0 770,0 770,-52"/>
<text text-anchor="start" x="640" y="-40" font-family="Helvetica,sans-Serif" font-size="10.00">elc::defs::string_n</text>
<text text-anchor="start" x="640" y="-29" font-family="Helvetica,sans-Serif" font-size="10.00">::string_data_n::base</text>
<text text-anchor="start" x="640" y="-18" font-family="Helvetica,sans-Serif" font-size="10.00">_string_data_t::get_memory</text>
<text text-anchor="middle" x="701" y="-7" font-family="Helvetica,sans-Serif" font-size="10.00">_cost_after_gc</text>
</a>
</g>
</g>
<!-- Node4&#45;&gt;Node7 -->
<g id="edge6" class="edge">
<title>Node4&#45;&gt;Node7</title>
<path fill="none" stroke="#63b8ff" d="M584.18,-47.61C596.14,-45.38 609,-42.98 621.64,-40.62"/>
<polygon fill="#63b8ff" stroke="#63b8ff" points="622.52,-44.02 631.71,-38.74 621.24,-37.14 622.52,-44.02"/>
</g>
<!-- Node6 -->
<g id="node6" class="node">
<title>Node6</title>
<g id="a_node6"><a xlink:href="structelc_1_1defs_1_1string__n_1_1string__data__n_1_1base__string__data__t.html#a30a518bb1035e437a55ad0aaec957940" target="_top" xlink:title=" ">
<polygon fill="white" stroke="#666666" points="942,-117 818,-117 818,-65 942,-65 942,-117"/>
<text text-anchor="start" x="826" y="-105" font-family="Helvetica,sans-Serif" font-size="10.00">elc::defs::string_n</text>
<text text-anchor="start" x="826" y="-94" font-family="Helvetica,sans-Serif" font-size="10.00">::string_data_n::base</text>
<text text-anchor="start" x="826" y="-83" font-family="Helvetica,sans-Serif" font-size="10.00">_string_data_t::get_base</text>
<text text-anchor="middle" x="880" y="-72" font-family="Helvetica,sans-Serif" font-size="10.00">_memory_cost</text>
</a>
</g>
</g>
<!-- Node5&#45;&gt;Node6 -->
<g id="edge5" class="edge">
<title>Node5&#45;&gt;Node6</title>
<path fill="none" stroke="#63b8ff" d="M782.21,-91C790.73,-91 799.35,-91 807.76,-91"/>
<polygon fill="#63b8ff" stroke="#63b8ff" points="807.89,-94.5 817.89,-91 807.89,-87.5 807.89,-94.5"/>
</g>
</g>
</svg>
