<?xml version="1.0" encoding="UTF-8" standalone="no"?>
<!DOCTYPE svg PUBLIC "-//W3C//DTD SVG 1.1//EN"
 "http://www.w3.org/Graphics/SVG/1.1/DTD/svg11.dtd">
<!-- Generated by graphviz version 6.0.1 (20220911.1526)
 -->
<!-- Title: elc::defs::base::hash_n::hash_t::repeat_times Pages: 1 -->
<svg width="282pt" height="98pt"
 viewBox="0.00 0.00 282.00 97.50" xmlns="http://www.w3.org/2000/svg" xmlns:xlink="http://www.w3.org/1999/xlink">
<g id="graph0" class="graph" transform="scale(1 1) rotate(0) translate(4 93.5)">
<title>elc::defs::base::hash_n::hash_t::repeat_times</title>
<!-- Node1 -->
<g id="node1" class="node">
<title>Node1</title>
<g id="a_node1"><a xlink:title="计算此hash重复N次的数组的hash结果">
<polygon fill="#999999" stroke="#666666" points="125,-57 0,-57 0,-27 125,-27 125,-57"/>
<text text-anchor="start" x="8" y="-45" font-family="Helvetica,sans-Serif" font-size="10.00">elc::defs::base::hash</text>
<text text-anchor="middle" x="62.5" y="-34" font-family="Helvetica,sans-Serif" font-size="10.00">_n::hash_t::repeat_times</text>
</a>
</g>
</g>
<!-- Node2 -->
<g id="node2" class="node">
<title>Node2</title>
<g id="a_node2"><a xlink:href="classelc_1_1defs_1_1base_1_1magic__number_1_1rot__iterator.html#a2a3d9e53b57eed3b2cd7799c20f3b844" target="_top" xlink:title=" ">
<polygon fill="white" stroke="#666666" points="274,-89.5 161,-89.5 161,-48.5 274,-48.5 274,-89.5"/>
<text text-anchor="start" x="169" y="-77.5" font-family="Helvetica,sans-Serif" font-size="10.00">elc::defs::base::magic</text>
<text text-anchor="start" x="169" y="-66.5" font-family="Helvetica,sans-Serif" font-size="10.00">_number::rot_iterator</text>
<text text-anchor="middle" x="217.5" y="-55.5" font-family="Helvetica,sans-Serif" font-size="10.00">::operator&#45;&#45;</text>
</a>
</g>
</g>
<!-- Node1&#45;&gt;Node2 -->
<g id="edge1" class="edge">
<title>Node1&#45;&gt;Node2</title>
<path fill="none" stroke="#63b8ff" d="M125.29,-52.9C133.75,-54.4 142.47,-55.94 151,-57.44"/>
<polygon fill="#63b8ff" stroke="#63b8ff" points="150.44,-60.9 160.9,-59.19 151.66,-54 150.44,-60.9"/>
</g>
<!-- Node3 -->
<g id="node3" class="node">
<title>Node3</title>
<g id="a_node3"><a xlink:href="namespaceelc_1_1defs_1_1base_1_1magic__number.html#abe886a1ba5e58561f5be14e28e7631fe" target="_top" xlink:title="位操作：循环左移 不使用std版本而是自己写的原因：std版本右操作数只能是int而不能是size_t或别的，标准会傻逼">
<polygon fill="white" stroke="#666666" points="274,-30 161,-30 161,0 274,0 274,-30"/>
<text text-anchor="start" x="169" y="-18" font-family="Helvetica,sans-Serif" font-size="10.00">elc::defs::base::magic</text>
<text text-anchor="middle" x="217.5" y="-7" font-family="Helvetica,sans-Serif" font-size="10.00">_number::rotl</text>
</a>
</g>
</g>
<!-- Node1&#45;&gt;Node3 -->
<g id="edge2" class="edge">
<title>Node1&#45;&gt;Node3</title>
<path fill="none" stroke="#63b8ff" d="M125.29,-31.1C133.75,-29.6 142.47,-28.06 151,-26.56"/>
<polygon fill="#63b8ff" stroke="#63b8ff" points="151.66,-30 160.9,-24.81 150.44,-23.1 151.66,-30"/>
</g>
</g>
</svg>
