<?xml version="1.0" encoding="UTF-8" standalone="no"?>
<!DOCTYPE svg PUBLIC "-//W3C//DTD SVG 1.1//EN"
 "http://www.w3.org/Graphics/SVG/1.1/DTD/svg11.dtd">
<!-- Generated by graphviz version 6.0.1 (20220911.1526)
 -->
<!-- Title: elc::defs::core::value::un_ref Pages: 1 -->
<svg width="290pt" height="134pt"
 viewBox="0.00 0.00 290.00 134.00" xmlns="http://www.w3.org/2000/svg" xmlns:xlink="http://www.w3.org/1999/xlink">
<g id="graph0" class="graph" transform="scale(1 1) rotate(0) translate(4 130)">
<title>elc::defs::core::value::un_ref</title>
<!-- Node1 -->
<g id="node1" class="node">
<title>Node1</title>
<g id="a_node1"><a xlink:title=" ">
<polygon fill="#999999" stroke="#666666" points="106,-78 0,-78 0,-48 106,-48 106,-78"/>
<text text-anchor="start" x="8" y="-66" font-family="Helvetica,sans-Serif" font-size="10.00">elc::defs::core::value</text>
<text text-anchor="middle" x="53" y="-55" font-family="Helvetica,sans-Serif" font-size="10.00">::un_ref</text>
</a>
</g>
</g>
<!-- Node2 -->
<g id="node2" class="node">
<title>Node2</title>
<g id="a_node2"><a xlink:href="structelc_1_1defs_1_1core_1_1value_1_1base__data__t.html#a5990bc6650979abf1410e994be8d813e" target="_top" xlink:title=" ">
<polygon fill="white" stroke="#666666" points="265,-126 159,-126 159,-96 265,-96 265,-126"/>
<text text-anchor="start" x="167" y="-114" font-family="Helvetica,sans-Serif" font-size="10.00">elc::defs::core::value</text>
<text text-anchor="middle" x="212" y="-103" font-family="Helvetica,sans-Serif" font-size="10.00">::base_data_t::copy</text>
</a>
</g>
</g>
<!-- Node1&#45;&gt;Node2 -->
<g id="edge1" class="edge">
<title>Node1&#45;&gt;Node2</title>
<path fill="none" stroke="#63b8ff" d="M103.25,-78.06C118.74,-82.79 136,-88.07 152.09,-92.99"/>
<polygon fill="#63b8ff" stroke="#63b8ff" points="151.34,-96.42 161.93,-96 153.39,-89.73 151.34,-96.42"/>
</g>
<!-- Node3 -->
<g id="node3" class="node">
<title>Node3</title>
<g id="a_node3"><a xlink:href="structelc_1_1defs_1_1memory_1_1ptr__n_1_1base__ptr__t.html#a44f476e6f5ff22f85494d86ac2125fb3" target="_top" xlink:title=" ">
<polygon fill="white" stroke="#666666" points="282,-78 142,-78 142,-48 282,-48 282,-78"/>
<text text-anchor="start" x="150" y="-66" font-family="Helvetica,sans-Serif" font-size="10.00">elc::defs::memory::</text>
<text text-anchor="middle" x="212" y="-55" font-family="Helvetica,sans-Serif" font-size="10.00">ptr_n::base_ptr_t::operator&#45;&gt;</text>
</a>
</g>
</g>
<!-- Node1&#45;&gt;Node3 -->
<g id="edge2" class="edge">
<title>Node1&#45;&gt;Node3</title>
<path fill="none" stroke="#63b8ff" d="M106.28,-63C114.49,-63 123.12,-63 131.77,-63"/>
<polygon fill="#63b8ff" stroke="#63b8ff" points="131.91,-66.5 141.91,-63 131.91,-59.5 131.91,-66.5"/>
</g>
<!-- Node4 -->
<g id="node4" class="node">
<title>Node4</title>
<g id="a_node4"><a xlink:href="structelc_1_1defs_1_1memory_1_1ptr__n_1_1base__ptr__t.html#afe9eff7345c606ca7d7b860d05ee7b3a" target="_top" xlink:title=" ">
<polygon fill="white" stroke="#666666" points="280.5,-30 143.5,-30 143.5,0 280.5,0 280.5,-30"/>
<text text-anchor="start" x="151.5" y="-18" font-family="Helvetica,sans-Serif" font-size="10.00">elc::defs::memory::</text>
<text text-anchor="middle" x="212" y="-7" font-family="Helvetica,sans-Serif" font-size="10.00">ptr_n::base_ptr_t::operator=</text>
</a>
</g>
</g>
<!-- Node1&#45;&gt;Node4 -->
<g id="edge3" class="edge">
<title>Node1&#45;&gt;Node4</title>
<path fill="none" stroke="#63b8ff" d="M103.25,-47.94C118.74,-43.21 136,-37.93 152.09,-33.01"/>
<polygon fill="#63b8ff" stroke="#63b8ff" points="153.39,-36.27 161.93,-30 151.34,-29.58 153.39,-36.27"/>
</g>
</g>
</svg>
