<?xml version="1.0" encoding="UTF-8" standalone="no"?>
<!DOCTYPE svg PUBLIC "-//W3C//DTD SVG 1.1//EN"
 "http://www.w3.org/Graphics/SVG/1.1/DTD/svg11.dtd">
<!-- Generated by graphviz version 6.0.1 (20220911.1526)
 -->
<!-- Title: elc::defs::string_n::string_t::c_str Pages: 1 -->
<svg width="254pt" height="86pt"
 viewBox="0.00 0.00 254.00 86.00" xmlns="http://www.w3.org/2000/svg" xmlns:xlink="http://www.w3.org/1999/xlink">
<g id="graph0" class="graph" transform="scale(1 1) rotate(0) translate(4 82)">
<title>elc::defs::string_n::string_t::c_str</title>
<!-- Node1 -->
<g id="node1" class="node">
<title>Node1</title>
<g id="a_node1"><a xlink:title=" ">
<polygon fill="#999999" stroke="#666666" points="246,-54 152,-54 152,-24 246,-24 246,-54"/>
<text text-anchor="start" x="160" y="-42" font-family="Helvetica,sans-Serif" font-size="10.00">elc::defs::string_n</text>
<text text-anchor="middle" x="199" y="-31" font-family="Helvetica,sans-Serif" font-size="10.00">::string_t::c_str</text>
</a>
</g>
</g>
<!-- Node2 -->
<g id="node2" class="node">
<title>Node2</title>
<g id="a_node2"><a xlink:href="namespaceelc_1_1_a_p_is_1_1str__code__convert.html#ac4972ce7087f5f7c4b6d34f53023eb10" target="_top" xlink:title=" ">
<polygon fill="white" stroke="#666666" points="111.5,-78 4.5,-78 4.5,-48 111.5,-48 111.5,-78"/>
<text text-anchor="start" x="12.5" y="-66" font-family="Helvetica,sans-Serif" font-size="10.00">elc::APIs::str_code</text>
<text text-anchor="middle" x="58" y="-55" font-family="Helvetica,sans-Serif" font-size="10.00">_convert::to_char_str</text>
</a>
</g>
</g>
<!-- Node1&#45;&gt;Node2 -->
<g id="edge1" class="edge">
<title>Node1&#45;&gt;Node2</title>
<path fill="none" stroke="#63b8ff" d="M141.62,-48.74C131.77,-50.44 121.56,-52.2 111.81,-53.88"/>
<polygon fill="#63b8ff" stroke="#63b8ff" points="142.46,-52.14 151.72,-46.99 141.27,-45.24 142.46,-52.14"/>
</g>
<!-- Node3 -->
<g id="node3" class="node">
<title>Node3</title>
<g id="a_node3"><a xlink:href="namespaceelc_1_1_a_p_is_1_1str__code__convert.html#a991ccc4810a5a911b213f9c38be0ccc3" target="_top" xlink:title=" ">
<polygon fill="white" stroke="#666666" points="116,-30 0,-30 0,0 116,0 116,-30"/>
<text text-anchor="start" x="8" y="-18" font-family="Helvetica,sans-Serif" font-size="10.00">elc::APIs::str_code</text>
<text text-anchor="middle" x="58" y="-7" font-family="Helvetica,sans-Serif" font-size="10.00">_convert::to_char_t_str</text>
</a>
</g>
</g>
<!-- Node1&#45;&gt;Node3 -->
<g id="edge2" class="edge">
<title>Node1&#45;&gt;Node3</title>
<path fill="none" stroke="#63b8ff" d="M141.65,-29.27C133.27,-27.82 124.62,-26.33 116.21,-24.88"/>
<polygon fill="#63b8ff" stroke="#63b8ff" points="141.27,-32.76 151.72,-31.01 142.46,-25.86 141.27,-32.76"/>
</g>
</g>
</svg>
