<?xml version="1.0" encoding="UTF-8" standalone="no"?>
<!DOCTYPE svg PUBLIC "-//W3C//DTD SVG 1.1//EN"
 "http://www.w3.org/Graphics/SVG/1.1/DTD/svg11.dtd">
<!-- Generated by graphviz version 6.0.1 (20220911.1526)
 -->
<!-- Title: elc::defs::memory::get_n::get_forward_resize_t Pages: 1 -->
<svg width="390pt" height="108pt"
 viewBox="0.00 0.00 390.00 108.00" xmlns="http://www.w3.org/2000/svg" xmlns:xlink="http://www.w3.org/1999/xlink">
<g id="graph0" class="graph" transform="scale(1 1) rotate(0) translate(4 104)">
<title>elc::defs::memory::get_n::get_forward_resize_t</title>
<!-- Node1 -->
<g id="node1" class="node">
<title>Node1</title>
<g id="a_node1"><a xlink:title=" ">
<polygon fill="#999999" stroke="#666666" points="382,-64.5 246,-64.5 246,-34.5 382,-34.5 382,-64.5"/>
<text text-anchor="start" x="254" y="-52.5" font-family="Helvetica,sans-Serif" font-size="10.00">elc::defs::memory::</text>
<text text-anchor="middle" x="314" y="-41.5" font-family="Helvetica,sans-Serif" font-size="10.00">get_n::get_forward_resize_t</text>
</a>
</g>
</g>
<!-- Node2 -->
<g id="node2" class="node">
<title>Node2</title>
<g id="a_node2"><a xlink:href="structelc_1_1defs_1_1memory_1_1get__n_1_1get__forward__resize__t_1_1insert__t.html" target="_top" xlink:title=" ">
<polygon fill="white" stroke="#666666" points="128,-100 0,-100 0,-59 128,-59 128,-100"/>
<text text-anchor="start" x="8" y="-88" font-family="Helvetica,sans-Serif" font-size="10.00">elc::defs::memory::</text>
<text text-anchor="start" x="8" y="-77" font-family="Helvetica,sans-Serif" font-size="10.00">get_n::get_forward_resize</text>
<text text-anchor="middle" x="64" y="-66" font-family="Helvetica,sans-Serif" font-size="10.00">_t::insert_t</text>
</a>
</g>
</g>
<!-- Node2&#45;&gt;Node1 -->
<g id="edge1" class="edge">
<title>Node2&#45;&gt;Node1</title>
<path fill="none" stroke="#9a32cd" stroke-dasharray="5,2" d="M138.58,-70.6C172.63,-66.48 212.79,-61.62 245.99,-57.61"/>
<polygon fill="#9a32cd" stroke="#9a32cd" points="137.73,-67.18 128.22,-71.85 138.57,-74.13 137.73,-67.18"/>
<text text-anchor="middle" x="187" y="-71.5" font-family="Helvetica,sans-Serif" font-size="10.00"> insert</text>
</g>
<!-- Node3 -->
<g id="node3" class="node">
<title>Node3</title>
<g id="a_node3"><a xlink:href="structelc_1_1defs_1_1memory_1_1get__n_1_1get__forward__resize__t_1_1insert__resize__t.html" target="_top" xlink:title=" ">
<polygon fill="white" stroke="#666666" points="128,-41 0,-41 0,0 128,0 128,-41"/>
<text text-anchor="start" x="8" y="-29" font-family="Helvetica,sans-Serif" font-size="10.00">elc::defs::memory::</text>
<text text-anchor="start" x="8" y="-18" font-family="Helvetica,sans-Serif" font-size="10.00">get_n::get_forward_resize</text>
<text text-anchor="middle" x="64" y="-7" font-family="Helvetica,sans-Serif" font-size="10.00">_t::insert_resize_t</text>
</a>
</g>
</g>
<!-- Node3&#45;&gt;Node1 -->
<g id="edge2" class="edge">
<title>Node3&#45;&gt;Node1</title>
<path fill="none" stroke="#9a32cd" stroke-dasharray="5,2" d="M138.58,-29.1C172.63,-33.09 212.79,-37.78 245.99,-41.66"/>
<polygon fill="#9a32cd" stroke="#9a32cd" points="138.56,-25.58 128.22,-27.89 137.75,-32.53 138.56,-25.58"/>
<text text-anchor="middle" x="187" y="-41.5" font-family="Helvetica,sans-Serif" font-size="10.00"> insert_with_resize</text>
</g>
</g>
</svg>
