<?xml version="1.0" encoding="UTF-8" standalone="no"?>
<!DOCTYPE svg PUBLIC "-//W3C//DTD SVG 1.1//EN"
 "http://www.w3.org/Graphics/SVG/1.1/DTD/svg11.dtd">
<!-- Generated by graphviz version 6.0.1 (20220911.1526)
 -->
<!-- Title: elc::defs::stream_n::noexcept_ostream Pages: 1 -->
<svg width="721pt" height="134pt"
 viewBox="0.00 0.00 721.00 134.00" xmlns="http://www.w3.org/2000/svg" xmlns:xlink="http://www.w3.org/1999/xlink">
<g id="graph0" class="graph" transform="scale(1 1) rotate(0) translate(4 130)">
<title>elc::defs::stream_n::noexcept_ostream</title>
<!-- Node1 -->
<g id="node1" class="node">
<title>Node1</title>
<g id="a_node1"><a xlink:title=" ">
<polygon fill="#999999" stroke="#666666" points="375,-78 272,-78 272,-48 375,-48 375,-78"/>
<text text-anchor="start" x="280" y="-66" font-family="Helvetica,sans-Serif" font-size="10.00">elc::defs::stream_n</text>
<text text-anchor="middle" x="323.5" y="-55" font-family="Helvetica,sans-Serif" font-size="10.00">::noexcept_ostream</text>
</a>
</g>
</g>
<!-- Node5 -->
<g id="node5" class="node">
<title>Node5</title>
<g id="a_node5"><a xlink:href="structelc_1_1defs_1_1stream__n_1_1noexcept__data__ostream.html" target="_top" xlink:title=" ">
<polygon fill="white" stroke="#666666" points="540.5,-126 413.5,-126 413.5,-96 540.5,-96 540.5,-126"/>
<text text-anchor="start" x="421.5" y="-114" font-family="Helvetica,sans-Serif" font-size="10.00">elc::defs::stream_n</text>
<text text-anchor="middle" x="477" y="-103" font-family="Helvetica,sans-Serif" font-size="10.00">::noexcept_data_ostream</text>
</a>
</g>
</g>
<!-- Node1&#45;&gt;Node5 -->
<g id="edge5" class="edge">
<title>Node1&#45;&gt;Node5</title>
<path fill="none" stroke="#63b8ff" d="M381.96,-81.21C397.37,-86.09 413.86,-91.31 428.65,-96"/>
<polygon fill="#63b8ff" stroke="#63b8ff" points="382.61,-77.74 372.02,-78.06 380.5,-84.41 382.61,-77.74"/>
</g>
<!-- Node7 -->
<g id="node7" class="node">
<title>Node7</title>
<g id="a_node7"><a xlink:href="structelc_1_1defs_1_1stream__n_1_1noexcept__iostream.html" target="_top" xlink:title=" ">
<polygon fill="white" stroke="#666666" points="529.5,-78 424.5,-78 424.5,-48 529.5,-48 529.5,-78"/>
<text text-anchor="start" x="432.5" y="-66" font-family="Helvetica,sans-Serif" font-size="10.00">elc::defs::stream_n</text>
<text text-anchor="middle" x="477" y="-55" font-family="Helvetica,sans-Serif" font-size="10.00">::noexcept_iostream</text>
</a>
</g>
</g>
<!-- Node1&#45;&gt;Node7 -->
<g id="edge7" class="edge">
<title>Node1&#45;&gt;Node7</title>
<path fill="none" stroke="#63b8ff" d="M385.57,-63C398.47,-63 411.98,-63 424.49,-63"/>
<polygon fill="#63b8ff" stroke="#63b8ff" points="385.37,-59.5 375.37,-63 385.37,-66.5 385.37,-59.5"/>
</g>
<!-- Node10 -->
<g id="node10" class="node">
<title>Node10</title>
<g id="a_node10"><a xlink:href="structelc_1_1defs_1_1stream__n_1_1noexcept__string__ostream.html" target="_top" xlink:title=" ">
<polygon fill="white" stroke="#666666" points="543,-30 411,-30 411,0 543,0 543,-30"/>
<text text-anchor="start" x="419" y="-18" font-family="Helvetica,sans-Serif" font-size="10.00">elc::defs::stream_n</text>
<text text-anchor="middle" x="477" y="-7" font-family="Helvetica,sans-Serif" font-size="10.00">::noexcept_string_ostream</text>
</a>
</g>
</g>
<!-- Node1&#45;&gt;Node10 -->
<g id="edge11" class="edge">
<title>Node1&#45;&gt;Node10</title>
<path fill="none" stroke="#63b8ff" d="M381.96,-44.79C397.37,-39.91 413.86,-34.69 428.65,-30"/>
<polygon fill="#63b8ff" stroke="#63b8ff" points="380.5,-41.59 372.02,-47.94 382.61,-48.26 380.5,-41.59"/>
</g>
<!-- Node2 -->
<g id="node2" class="node">
<title>Node2</title>
<g id="a_node2"><a xlink:href="structelc_1_1defs_1_1stream__n_1_1base__ostream.html" target="_top" xlink:title=" ">
<polygon fill="white" stroke="#666666" points="236,-102 136,-102 136,-72 236,-72 236,-102"/>
<text text-anchor="start" x="144" y="-90" font-family="Helvetica,sans-Serif" font-size="10.00">elc::defs::stream_n</text>
<text text-anchor="middle" x="186" y="-79" font-family="Helvetica,sans-Serif" font-size="10.00">::base_ostream</text>
</a>
</g>
</g>
<!-- Node2&#45;&gt;Node1 -->
<g id="edge1" class="edge">
<title>Node2&#45;&gt;Node1</title>
<path fill="none" stroke="#63b8ff" d="M246.16,-76.52C254.65,-75.02 263.33,-73.48 271.64,-72.01"/>
<polygon fill="#63b8ff" stroke="#63b8ff" points="245.54,-73.08 236.3,-78.27 246.76,-79.97 245.54,-73.08"/>
</g>
<!-- Node3 -->
<g id="node3" class="node">
<title>Node3</title>
<g id="a_node3"><a xlink:href="structelc_1_1defs_1_1stream__n_1_1base__stream.html" target="_top" xlink:title=" ">
<polygon fill="white" stroke="#666666" points="100,-78 0,-78 0,-48 100,-48 100,-78"/>
<text text-anchor="start" x="8" y="-66" font-family="Helvetica,sans-Serif" font-size="10.00">elc::defs::stream_n</text>
<text text-anchor="middle" x="50" y="-55" font-family="Helvetica,sans-Serif" font-size="10.00">::base_stream</text>
</a>
</g>
</g>
<!-- Node3&#45;&gt;Node2 -->
<g id="edge2" class="edge">
<title>Node3&#45;&gt;Node2</title>
<path fill="none" stroke="#63b8ff" d="M110.12,-73.59C118.72,-75.13 127.5,-76.7 135.87,-78.2"/>
<polygon fill="#63b8ff" stroke="#63b8ff" points="110.6,-70.12 100.14,-71.8 109.36,-77.01 110.6,-70.12"/>
</g>
<!-- Node4 -->
<g id="node4" class="node">
<title>Node4</title>
<g id="a_node4"><a xlink:href="structelc_1_1defs_1_1stream__n_1_1noexcept__stream.html" target="_top" xlink:title=" ">
<polygon fill="white" stroke="#666666" points="236,-54 136,-54 136,-24 236,-24 236,-54"/>
<text text-anchor="start" x="144" y="-42" font-family="Helvetica,sans-Serif" font-size="10.00">elc::defs::stream_n</text>
<text text-anchor="middle" x="186" y="-31" font-family="Helvetica,sans-Serif" font-size="10.00">::noexcept_stream</text>
</a>
</g>
</g>
<!-- Node3&#45;&gt;Node4 -->
<g id="edge4" class="edge">
<title>Node3&#45;&gt;Node4</title>
<path fill="none" stroke="#63b8ff" d="M110.12,-52.41C118.72,-50.87 127.5,-49.3 135.87,-47.8"/>
<polygon fill="#63b8ff" stroke="#63b8ff" points="109.36,-48.99 100.14,-54.2 110.6,-55.88 109.36,-48.99"/>
</g>
<!-- Node4&#45;&gt;Node1 -->
<g id="edge3" class="edge">
<title>Node4&#45;&gt;Node1</title>
<path fill="none" stroke="#63b8ff" d="M246.16,-49.48C254.65,-50.98 263.33,-52.52 271.64,-53.99"/>
<polygon fill="#63b8ff" stroke="#63b8ff" points="246.76,-46.03 236.3,-47.73 245.54,-52.92 246.76,-46.03"/>
</g>
<!-- Node6 -->
<g id="node6" class="node">
<title>Node6</title>
<g id="a_node6"><a xlink:href="structelc_1_1defs_1_1stream__n_1_1noexcept__data__iostream.html" target="_top" xlink:title=" ">
<polygon fill="white" stroke="#666666" points="710.5,-126 581.5,-126 581.5,-96 710.5,-96 710.5,-126"/>
<text text-anchor="start" x="589.5" y="-114" font-family="Helvetica,sans-Serif" font-size="10.00">elc::defs::stream_n</text>
<text text-anchor="middle" x="646" y="-103" font-family="Helvetica,sans-Serif" font-size="10.00">::noexcept_data_iostream</text>
</a>
</g>
</g>
<!-- Node5&#45;&gt;Node6 -->
<g id="edge6" class="edge">
<title>Node5&#45;&gt;Node6</title>
<path fill="none" stroke="#63b8ff" d="M550.77,-111C560.98,-111 571.41,-111 581.43,-111"/>
<polygon fill="#63b8ff" stroke="#63b8ff" points="550.66,-107.5 540.66,-111 550.66,-114.5 550.66,-107.5"/>
</g>
<!-- Node7&#45;&gt;Node6 -->
<g id="edge9" class="edge">
<title>Node7&#45;&gt;Node6</title>
<path fill="none" stroke="#63b8ff" d="M539.93,-80.8C557.22,-85.77 575.84,-91.12 592.53,-95.92"/>
<polygon fill="#63b8ff" stroke="#63b8ff" points="540.5,-77.32 529.92,-77.92 538.57,-84.05 540.5,-77.32"/>
</g>
<!-- Node8 -->
<g id="node8" class="node">
<title>Node8</title>
<g id="a_node8"><a xlink:href="structelc_1_1defs_1_1stream__n_1_1memory__stream.html" target="_top" xlink:title=" ">
<polygon fill="white" stroke="#666666" points="696,-78 596,-78 596,-48 696,-48 696,-78"/>
<text text-anchor="start" x="604" y="-66" font-family="Helvetica,sans-Serif" font-size="10.00">elc::defs::stream_n</text>
<text text-anchor="middle" x="646" y="-55" font-family="Helvetica,sans-Serif" font-size="10.00">::memory_stream</text>
</a>
</g>
</g>
<!-- Node7&#45;&gt;Node8 -->
<g id="edge8" class="edge">
<title>Node7&#45;&gt;Node8</title>
<path fill="none" stroke="#63b8ff" d="M540,-63C558.47,-63 578.44,-63 595.96,-63"/>
<polygon fill="#63b8ff" stroke="#63b8ff" points="539.92,-59.5 529.92,-63 539.92,-66.5 539.92,-59.5"/>
</g>
<!-- Node9 -->
<g id="node9" class="node">
<title>Node9</title>
<g id="a_node9"><a xlink:href="structelc_1_1defs_1_1stream__n_1_1noexcept__string__iostream.html" target="_top" xlink:title=" ">
<polygon fill="white" stroke="#666666" points="713,-30 579,-30 579,0 713,0 713,-30"/>
<text text-anchor="start" x="587" y="-18" font-family="Helvetica,sans-Serif" font-size="10.00">elc::defs::stream_n</text>
<text text-anchor="middle" x="646" y="-7" font-family="Helvetica,sans-Serif" font-size="10.00">::noexcept_string_iostream</text>
</a>
</g>
</g>
<!-- Node7&#45;&gt;Node9 -->
<g id="edge10" class="edge">
<title>Node7&#45;&gt;Node9</title>
<path fill="none" stroke="#63b8ff" d="M539.93,-45.2C557.22,-40.23 575.84,-34.88 592.53,-30.08"/>
<polygon fill="#63b8ff" stroke="#63b8ff" points="538.57,-41.95 529.92,-48.08 540.5,-48.68 538.57,-41.95"/>
</g>
<!-- Node10&#45;&gt;Node9 -->
<g id="edge12" class="edge">
<title>Node10&#45;&gt;Node9</title>
<path fill="none" stroke="#63b8ff" d="M553.31,-15C561.8,-15 570.4,-15 578.76,-15"/>
<polygon fill="#63b8ff" stroke="#63b8ff" points="553.04,-11.5 543.04,-15 553.04,-18.5 553.04,-11.5"/>
</g>
</g>
</svg>
