<?xml version="1.0" encoding="UTF-8" standalone="no"?>
<!DOCTYPE svg PUBLIC "-//W3C//DTD SVG 1.1//EN"
 "http://www.w3.org/Graphics/SVG/1.1/DTD/svg11.dtd">
<!-- Generated by graphviz version 6.0.1 (20220911.1526)
 -->
<!-- Title: elc::defs::core::value::operator== Pages: 1 -->
<svg width="398pt" height="94pt"
 viewBox="0.00 0.00 398.00 93.50" xmlns="http://www.w3.org/2000/svg" xmlns:xlink="http://www.w3.org/1999/xlink">
<g id="graph0" class="graph" transform="scale(1 1) rotate(0) translate(4 89.5)">
<title>elc::defs::core::value::operator==</title>
<!-- Node1 -->
<g id="node1" class="node">
<title>Node1</title>
<g id="a_node1"><a xlink:title=" ">
<polygon fill="#999999" stroke="#666666" points="106,-51 0,-51 0,-21 106,-21 106,-51"/>
<text text-anchor="start" x="8" y="-39" font-family="Helvetica,sans-Serif" font-size="10.00">elc::defs::core::value</text>
<text text-anchor="middle" x="53" y="-28" font-family="Helvetica,sans-Serif" font-size="10.00">::operator==</text>
</a>
</g>
</g>
<!-- Node2 -->
<g id="node2" class="node">
<title>Node2</title>
<g id="a_node2"><a xlink:href="namespaceelc_1_1defs_1_1core.html#a476a30e4da2e29b52c54c7a59dc3f4f3" target="_top" xlink:title=" ">
<polygon fill="white" stroke="#666666" points="237,-51 142,-51 142,-21 237,-21 237,-51"/>
<text text-anchor="start" x="150" y="-39" font-family="Helvetica,sans-Serif" font-size="10.00">elc::defs::core::as</text>
<text text-anchor="middle" x="189.5" y="-28" font-family="Helvetica,sans-Serif" font-size="10.00">_value</text>
</a>
</g>
</g>
<!-- Node1&#45;&gt;Node2 -->
<g id="edge1" class="edge">
<title>Node1&#45;&gt;Node2</title>
<path fill="none" stroke="#63b8ff" d="M106,-36C114.41,-36 123.15,-36 131.67,-36"/>
<polygon fill="#63b8ff" stroke="#63b8ff" points="131.91,-39.5 141.91,-36 131.91,-32.5 131.91,-39.5"/>
</g>
<!-- Node2&#45;&gt;Node2 -->
<g id="edge4" class="edge">
<title>Node2&#45;&gt;Node2</title>
<path fill="none" stroke="#63b8ff" d="M165.51,-51.28C160.17,-60.41 168.17,-69 189.5,-69 202.16,-69 210.13,-65.97 213.39,-61.6"/>
<polygon fill="#63b8ff" stroke="#63b8ff" points="216.9,-61.31 213.49,-51.28 209.9,-61.24 216.9,-61.31"/>
</g>
<!-- Node3 -->
<g id="node3" class="node">
<title>Node3</title>
<g id="a_node3"><a xlink:href="namespaceelc_1_1defs_1_1core.html#aa4b6b0e46887c02cd097d74031157c5f" target="_top" xlink:title=" ">
<polygon fill="white" stroke="#666666" points="387,-67.5 276,-67.5 276,-48.5 387,-48.5 387,-67.5"/>
<text text-anchor="middle" x="331.5" y="-55.5" font-family="Helvetica,sans-Serif" font-size="10.00">elc::defs::core::as_ptr</text>
</a>
</g>
</g>
<!-- Node2&#45;&gt;Node3 -->
<g id="edge2" class="edge">
<title>Node2&#45;&gt;Node3</title>
<path fill="none" stroke="#63b8ff" d="M237.12,-43.33C246.33,-44.77 256.15,-46.32 265.83,-47.84"/>
<polygon fill="#63b8ff" stroke="#63b8ff" points="265.42,-51.32 275.84,-49.41 266.5,-44.4 265.42,-51.32"/>
</g>
<!-- Node4 -->
<g id="node4" class="node">
<title>Node4</title>
<g id="a_node4"><a xlink:href="namespaceelc_1_1defs_1_1base.html#add5f75cca4bdd8a249b12d840b1ff116" target="_top" xlink:title="对引用移除const">
<polygon fill="white" stroke="#666666" points="390,-30 273,-30 273,0 390,0 390,-30"/>
<text text-anchor="start" x="281" y="-18" font-family="Helvetica,sans-Serif" font-size="10.00">elc::defs::base::remove</text>
<text text-anchor="middle" x="331.5" y="-7" font-family="Helvetica,sans-Serif" font-size="10.00">_const</text>
</a>
</g>
</g>
<!-- Node2&#45;&gt;Node4 -->
<g id="edge5" class="edge">
<title>Node2&#45;&gt;Node4</title>
<path fill="none" stroke="#63b8ff" d="M237.12,-29.01C245.35,-27.77 254.07,-26.46 262.75,-25.16"/>
<polygon fill="#63b8ff" stroke="#63b8ff" points="263.5,-28.59 272.87,-23.64 262.47,-21.67 263.5,-28.59"/>
</g>
<!-- Node3&#45;&gt;Node3 -->
<g id="edge3" class="edge">
<title>Node3&#45;&gt;Node3</title>
<path fill="none" stroke="#63b8ff" d="M309.61,-67.58C298.97,-76.23 306.26,-85.5 331.5,-85.5 347.67,-85.5 356.47,-81.7 357.91,-76.69"/>
<polygon fill="#63b8ff" stroke="#63b8ff" points="360.97,-74.98 353.39,-67.58 354.7,-78.1 360.97,-74.98"/>
</g>
</g>
</svg>
