<?xml version="1.0" encoding="UTF-8" standalone="no"?>
<!DOCTYPE svg PUBLIC "-//W3C//DTD SVG 1.1//EN"
 "http://www.w3.org/Graphics/SVG/1.1/DTD/svg11.dtd">
<!-- Generated by graphviz version 6.0.1 (20220911.1526)
 -->
<!-- Title: elc::defs::core::value::constexpr_data_t Pages: 1 -->
<svg width="486pt" height="120pt"
 viewBox="0.00 0.00 486.00 119.50" xmlns="http://www.w3.org/2000/svg" xmlns:xlink="http://www.w3.org/1999/xlink">
<g id="graph0" class="graph" transform="scale(1 1) rotate(0) translate(4 115.5)">
<title>elc::defs::core::value::constexpr_data_t</title>
<!-- Node1 -->
<g id="node1" class="node">
<title>Node1</title>
<g id="a_node1"><a xlink:title=" ">
<polygon fill="#999999" stroke="#666666" points="478,-86 372,-86 372,-56 478,-56 478,-86"/>
<text text-anchor="start" x="380" y="-74" font-family="Helvetica,sans-Serif" font-size="10.00">elc::defs::core::value</text>
<text text-anchor="middle" x="425" y="-63" font-family="Helvetica,sans-Serif" font-size="10.00">::constexpr_data_t</text>
</a>
</g>
</g>
<!-- Node2 -->
<g id="node2" class="node">
<title>Node2</title>
<g id="a_node2"><a xlink:title=" ">
<polygon fill="white" stroke="#666666" points="336,-110 201,-110 201,-80 336,-80 336,-110"/>
<text text-anchor="start" x="209" y="-98" font-family="Helvetica,sans-Serif" font-size="10.00">instance_struct&lt; constexpr</text>
<text text-anchor="middle" x="268.5" y="-87" font-family="Helvetica,sans-Serif" font-size="10.00">_data_t &gt;</text>
</a>
</g>
</g>
<!-- Node2&#45;&gt;Node1 -->
<g id="edge1" class="edge">
<title>Node2&#45;&gt;Node1</title>
<path fill="none" stroke="#63b8ff" d="M346.47,-83.04C355.1,-81.7 363.73,-80.36 371.93,-79.09"/>
<polygon fill="#63b8ff" stroke="#63b8ff" points="345.71,-79.62 336.37,-84.61 346.79,-86.54 345.71,-79.62"/>
</g>
<!-- Node3 -->
<g id="node3" class="node">
<title>Node3</title>
<g id="a_node3"><a xlink:href="structelc_1_1defs_1_1core_1_1value_1_1base__data__t.html" target="_top" xlink:title=" ">
<polygon fill="white" stroke="#666666" points="321.5,-62 215.5,-62 215.5,-32 321.5,-32 321.5,-62"/>
<text text-anchor="start" x="223.5" y="-50" font-family="Helvetica,sans-Serif" font-size="10.00">elc::defs::core::value</text>
<text text-anchor="middle" x="268.5" y="-39" font-family="Helvetica,sans-Serif" font-size="10.00">::base_data_t</text>
</a>
</g>
</g>
<!-- Node3&#45;&gt;Node1 -->
<g id="edge2" class="edge">
<title>Node3&#45;&gt;Node1</title>
<path fill="none" stroke="#63b8ff" d="M331.8,-56.68C345.05,-58.74 358.91,-60.89 371.75,-62.88"/>
<polygon fill="#63b8ff" stroke="#63b8ff" points="332.23,-53.2 321.81,-55.13 331.15,-60.12 332.23,-53.2"/>
</g>
<!-- Node4 -->
<g id="node4" class="node">
<title>Node4</title>
<g id="a_node4"><a xlink:title=" ">
<polygon fill="white" stroke="#666666" points="165,-111.5 0,-111.5 0,-48.5 165,-48.5 165,-111.5"/>
<text text-anchor="start" x="8" y="-99.5" font-family="Helvetica,sans-Serif" font-size="10.00">type_info_t&lt; base_data</text>
<text text-anchor="middle" x="82.5" y="-88.5" font-family="Helvetica,sans-Serif" font-size="10.00">_t &gt;:: template </text>
<text text-anchor="start" x="8" y="-77.5" font-family="Helvetica,sans-Serif" font-size="10.00">		with_common_attribute</text>
<text text-anchor="start" x="8" y="-66.5" font-family="Helvetica,sans-Serif" font-size="10.00">&lt; abstract_base, ref_able,</text>
<text text-anchor="middle" x="82.5" y="-55.5" font-family="Helvetica,sans-Serif" font-size="10.00"> never_in_array, replace_able &gt;</text>
</a>
</g>
</g>
<!-- Node4&#45;&gt;Node3 -->
<g id="edge3" class="edge">
<title>Node4&#45;&gt;Node3</title>
<path fill="none" stroke="#63b8ff" d="M175.07,-63.58C188.92,-61.09 202.78,-58.61 215.4,-56.34"/>
<polygon fill="#63b8ff" stroke="#63b8ff" points="174.23,-60.17 165.01,-65.38 175.47,-67.06 174.23,-60.17"/>
</g>
<!-- Node5 -->
<g id="node5" class="node">
<title>Node5</title>
<g id="a_node5"><a xlink:href="classelc_1_1defs_1_1base_1_1build__by__get__only.html" target="_top" xlink:title=" ">
<polygon fill="white" stroke="#666666" points="136,-30 29,-30 29,0 136,0 136,-30"/>
<text text-anchor="start" x="37" y="-18" font-family="Helvetica,sans-Serif" font-size="10.00">elc::defs::base::build</text>
<text text-anchor="middle" x="82.5" y="-7" font-family="Helvetica,sans-Serif" font-size="10.00">_by_get_only</text>
</a>
</g>
</g>
<!-- Node5&#45;&gt;Node3 -->
<g id="edge4" class="edge">
<title>Node5&#45;&gt;Node3</title>
<path fill="none" stroke="#63b8ff" d="M146.35,-25.93C168.84,-29.84 193.92,-34.2 215.4,-37.94"/>
<polygon fill="#63b8ff" stroke="#63b8ff" points="146.68,-22.44 136.23,-24.17 145.48,-29.33 146.68,-22.44"/>
</g>
</g>
</svg>
