<?xml version="1.0" encoding="UTF-8" standalone="no"?>
<!DOCTYPE svg PUBLIC "-//W3C//DTD SVG 1.1//EN"
 "http://www.w3.org/Graphics/SVG/1.1/DTD/svg11.dtd">
<!-- Generated by graphviz version 6.0.1 (20220911.1526)
 -->
<!-- Title: elc::defs::core::code_list Pages: 1 -->
<svg width="626pt" height="116pt"
 viewBox="0.00 0.00 626.00 115.50" xmlns="http://www.w3.org/2000/svg" xmlns:xlink="http://www.w3.org/1999/xlink">
<g id="graph0" class="graph" transform="scale(1 1) rotate(0) translate(4 111.5)">
<title>elc::defs::core::code_list</title>
<!-- Node1 -->
<g id="node1" class="node">
<title>Node1</title>
<g id="a_node1"><a xlink:title=" ">
<polygon fill="#999999" stroke="#666666" points="618,-45.5 495,-45.5 495,-26.5 618,-26.5 618,-45.5"/>
<text text-anchor="middle" x="556.5" y="-33.5" font-family="Helvetica,sans-Serif" font-size="10.00">elc::defs::core::code_list</text>
</a>
</g>
</g>
<!-- Node2 -->
<g id="node2" class="node">
<title>Node2</title>
<g id="a_node2"><a xlink:href="structelc_1_1defs_1_1core_1_1cons.html" target="_top" xlink:title=" ">
<polygon fill="white" stroke="#666666" points="455,-67.5 350,-67.5 350,-48.5 455,-48.5 455,-67.5"/>
<text text-anchor="middle" x="402.5" y="-55.5" font-family="Helvetica,sans-Serif" font-size="10.00">elc::defs::core::cons</text>
</a>
</g>
</g>
<!-- Node2&#45;&gt;Node1 -->
<g id="edge1" class="edge">
<title>Node2&#45;&gt;Node1</title>
<path fill="none" stroke="#63b8ff" d="M465.4,-49.04C475.15,-47.63 485.22,-46.17 494.94,-44.76"/>
<polygon fill="#63b8ff" stroke="#63b8ff" points="464.78,-45.59 455.38,-50.49 465.78,-52.52 464.78,-45.59"/>
</g>
<!-- Node3 -->
<g id="node3" class="node">
<title>Node3</title>
<g id="a_node3"><a xlink:href="structelc_1_1defs_1_1core_1_1node__like.html" target="_top" xlink:title=" ">
<polygon fill="white" stroke="#666666" points="310,-85.5 185,-85.5 185,-66.5 310,-66.5 310,-85.5"/>
<text text-anchor="middle" x="247.5" y="-73.5" font-family="Helvetica,sans-Serif" font-size="10.00">elc::defs::core::node_like</text>
</a>
</g>
</g>
<!-- Node3&#45;&gt;Node2 -->
<g id="edge2" class="edge">
<title>Node3&#45;&gt;Node2</title>
<path fill="none" stroke="#63b8ff" d="M320.52,-67.53C330.39,-66.37 340.37,-65.19 349.78,-64.08"/>
<polygon fill="#63b8ff" stroke="#63b8ff" points="319.81,-64.09 310.29,-68.73 320.63,-71.04 319.81,-64.09"/>
</g>
<!-- Node4 -->
<g id="node4" class="node">
<title>Node4</title>
<g id="a_node4"><a xlink:title=" ">
<polygon fill="white" stroke="#666666" points="149,-107.5 0,-107.5 0,-44.5 149,-44.5 149,-107.5"/>
<text text-anchor="start" x="8" y="-95.5" font-family="Helvetica,sans-Serif" font-size="10.00">type_info_t&lt; node_like</text>
<text text-anchor="middle" x="74.5" y="-84.5" font-family="Helvetica,sans-Serif" font-size="10.00"> &gt;:: template </text>
<text text-anchor="start" x="8" y="-73.5" font-family="Helvetica,sans-Serif" font-size="10.00">	with_common_attribute</text>
<text text-anchor="start" x="8" y="-62.5" font-family="Helvetica,sans-Serif" font-size="10.00">&lt; abstract_base, weak_ref</text>
<text text-anchor="middle" x="74.5" y="-51.5" font-family="Helvetica,sans-Serif" font-size="10.00">_able, replace_able, ref_able &gt;</text>
</a>
</g>
</g>
<!-- Node4&#45;&gt;Node3 -->
<g id="edge3" class="edge">
<title>Node4&#45;&gt;Node3</title>
<path fill="none" stroke="#63b8ff" d="M159.15,-76C167.81,-76 176.5,-76 184.86,-76"/>
<polygon fill="#63b8ff" stroke="#63b8ff" points="159.01,-72.5 149.01,-76 159.01,-79.5 159.01,-72.5"/>
</g>
<!-- Node5 -->
<g id="node5" class="node">
<title>Node5</title>
<g id="a_node5"><a xlink:title=" ">
<polygon fill="white" stroke="#666666" points="308.5,-48.5 186.5,-48.5 186.5,-29.5 308.5,-29.5 308.5,-48.5"/>
<text text-anchor="middle" x="247.5" y="-36.5" font-family="Helvetica,sans-Serif" font-size="10.00">instance_struct&lt; cons &gt;</text>
</a>
</g>
</g>
<!-- Node5&#45;&gt;Node2 -->
<g id="edge4" class="edge">
<title>Node5&#45;&gt;Node2</title>
<path fill="none" stroke="#63b8ff" d="M318.49,-47.69C328.95,-48.99 339.58,-50.31 349.58,-51.55"/>
<polygon fill="#63b8ff" stroke="#63b8ff" points="318.89,-44.21 308.53,-46.45 318.02,-51.16 318.89,-44.21"/>
</g>
<!-- Node6 -->
<g id="node6" class="node">
<title>Node6</title>
<g id="a_node6"><a xlink:title=" ">
<polygon fill="white" stroke="#666666" points="459,-30 346,-30 346,0 459,0 459,-30"/>
<text text-anchor="start" x="354" y="-18" font-family="Helvetica,sans-Serif" font-size="10.00">instance_struct&lt; code</text>
<text text-anchor="middle" x="402.5" y="-7" font-family="Helvetica,sans-Serif" font-size="10.00">_list &gt;</text>
</a>
</g>
</g>
<!-- Node6&#45;&gt;Node1 -->
<g id="edge5" class="edge">
<title>Node6&#45;&gt;Node1</title>
<path fill="none" stroke="#63b8ff" d="M469.16,-24.07C477.72,-25.25 486.44,-26.46 494.91,-27.63"/>
<polygon fill="#63b8ff" stroke="#63b8ff" points="469.62,-20.6 459.24,-22.7 468.66,-27.54 469.62,-20.6"/>
</g>
</g>
</svg>
