<?xml version="1.0" encoding="UTF-8" standalone="no"?>
<!DOCTYPE svg PUBLIC "-//W3C//DTD SVG 1.1//EN"
 "http://www.w3.org/Graphics/SVG/1.1/DTD/svg11.dtd">
<!-- Generated by graphviz version 6.0.1 (20220911.1526)
 -->
<!-- Title: elc::defs::string_n::string_data_n::base_string_data_t&lt; char_T &gt; Pages: 1 -->
<svg width="488pt" height="616pt"
 viewBox="0.00 0.00 488.00 616.00" xmlns="http://www.w3.org/2000/svg" xmlns:xlink="http://www.w3.org/1999/xlink">
<g id="graph0" class="graph" transform="scale(1 1) rotate(0) translate(4 612)">
<title>elc::defs::string_n::string_data_n::base_string_data_t&lt; char_T &gt;</title>
<!-- Node1 -->
<g id="node1" class="node">
<title>Node1</title>
<g id="a_node1"><a xlink:title=" ">
<polygon fill="#999999" stroke="#666666" points="314,-321 189,-321 189,-280 314,-280 314,-321"/>
<text text-anchor="start" x="197" y="-309" font-family="Helvetica,sans-Serif" font-size="10.00">elc::defs::string_n</text>
<text text-anchor="start" x="197" y="-298" font-family="Helvetica,sans-Serif" font-size="10.00">::string_data_n::base</text>
<text text-anchor="middle" x="251.5" y="-287" font-family="Helvetica,sans-Serif" font-size="10.00">_string_data_t&lt; char_T &gt;</text>
</a>
</g>
</g>
<!-- Node4 -->
<g id="node4" class="node">
<title>Node4</title>
<g id="a_node4"><a xlink:href="structelc_1_1defs_1_1string__n_1_1string__data__n_1_1comn__string__data__t.html" target="_top" xlink:title=" ">
<polygon fill="white" stroke="#666666" points="477.5,-608 352.5,-608 352.5,-567 477.5,-567 477.5,-608"/>
<text text-anchor="start" x="360.5" y="-596" font-family="Helvetica,sans-Serif" font-size="10.00">elc::defs::string_n</text>
<text text-anchor="start" x="360.5" y="-585" font-family="Helvetica,sans-Serif" font-size="10.00">::string_data_n::comn</text>
<text text-anchor="middle" x="415" y="-574" font-family="Helvetica,sans-Serif" font-size="10.00">_string_data_t&lt; char_T &gt;</text>
</a>
</g>
</g>
<!-- Node1&#45;&gt;Node4 -->
<g id="edge3" class="edge">
<title>Node1&#45;&gt;Node4</title>
<path fill="none" stroke="#63b8ff" d="M256.38,-331.11C264.57,-383.88 288.25,-492.66 350,-558.5 352.92,-561.61 356.24,-564.42 359.79,-566.94"/>
<polygon fill="#63b8ff" stroke="#63b8ff" points="259.82,-330.42 254.9,-321.03 252.89,-331.43 259.82,-330.42"/>
</g>
<!-- Node5 -->
<g id="node5" class="node">
<title>Node5</title>
<g id="a_node5"><a xlink:href="structelc_1_1defs_1_1string__n_1_1string__data__n_1_1constexpr__string__data__t.html" target="_top" xlink:title=" ">
<polygon fill="white" stroke="#666666" points="480,-549 350,-549 350,-508 480,-508 480,-549"/>
<text text-anchor="start" x="358" y="-537" font-family="Helvetica,sans-Serif" font-size="10.00">elc::defs::string_n</text>
<text text-anchor="start" x="358" y="-526" font-family="Helvetica,sans-Serif" font-size="10.00">::string_data_n::constexpr</text>
<text text-anchor="middle" x="415" y="-515" font-family="Helvetica,sans-Serif" font-size="10.00">_string_data_t&lt; char_T &gt;</text>
</a>
</g>
</g>
<!-- Node1&#45;&gt;Node5 -->
<g id="edge4" class="edge">
<title>Node1&#45;&gt;Node5</title>
<path fill="none" stroke="#63b8ff" d="M260.52,-330.93C273.1,-373.41 301.23,-450.66 350,-498.5 353.5,-501.94 357.48,-505.03 361.68,-507.81"/>
<polygon fill="#63b8ff" stroke="#63b8ff" points="263.84,-329.81 257.72,-321.16 257.11,-331.74 263.84,-329.81"/>
</g>
<!-- Node6 -->
<g id="node6" class="node">
<title>Node6</title>
<g id="a_node6"><a xlink:href="structelc_1_1defs_1_1string__n_1_1string__data__n_1_1end__apply__string__data__t.html" target="_top" xlink:title=" ">
<polygon fill="white" stroke="#666666" points="468.5,-489.5 361.5,-489.5 361.5,-437.5 468.5,-437.5 468.5,-489.5"/>
<text text-anchor="start" x="369.5" y="-477.5" font-family="Helvetica,sans-Serif" font-size="10.00">elc::defs::string_n</text>
<text text-anchor="start" x="369.5" y="-466.5" font-family="Helvetica,sans-Serif" font-size="10.00">::string_data_n::end</text>
<text text-anchor="start" x="369.5" y="-455.5" font-family="Helvetica,sans-Serif" font-size="10.00">_apply_string_data_t</text>
<text text-anchor="middle" x="415" y="-444.5" font-family="Helvetica,sans-Serif" font-size="10.00">&lt; char_T &gt;</text>
</a>
</g>
</g>
<!-- Node1&#45;&gt;Node6 -->
<g id="edge5" class="edge">
<title>Node1&#45;&gt;Node6</title>
<path fill="none" stroke="#63b8ff" d="M269.74,-329.81C287.27,-357.76 316.55,-399.74 350,-428.5 353.65,-431.64 357.62,-434.61 361.75,-437.41"/>
<polygon fill="#63b8ff" stroke="#63b8ff" points="272.7,-327.94 264.47,-321.26 266.74,-331.61 272.7,-327.94"/>
</g>
<!-- Node7 -->
<g id="node7" class="node">
<title>Node7</title>
<g id="a_node7"><a xlink:href="structelc_1_1defs_1_1string__n_1_1string__data__n_1_1erased__string__data__t.html" target="_top" xlink:title=" ">
<polygon fill="white" stroke="#666666" points="477.5,-419 352.5,-419 352.5,-378 477.5,-378 477.5,-419"/>
<text text-anchor="start" x="360.5" y="-407" font-family="Helvetica,sans-Serif" font-size="10.00">elc::defs::string_n</text>
<text text-anchor="start" x="360.5" y="-396" font-family="Helvetica,sans-Serif" font-size="10.00">::string_data_n::erased</text>
<text text-anchor="middle" x="415" y="-385" font-family="Helvetica,sans-Serif" font-size="10.00">_string_data_t&lt; char_T &gt;</text>
</a>
</g>
</g>
<!-- Node1&#45;&gt;Node7 -->
<g id="edge6" class="edge">
<title>Node1&#45;&gt;Node7</title>
<path fill="none" stroke="#63b8ff" d="M287.9,-327.38C306,-340.54 328.65,-356.17 350,-368.5 355.63,-371.75 361.68,-374.94 367.72,-377.96"/>
<polygon fill="#63b8ff" stroke="#63b8ff" points="289.55,-324.24 279.41,-321.14 285.4,-329.88 289.55,-324.24"/>
</g>
<!-- Node8 -->
<g id="node8" class="node">
<title>Node8</title>
<g id="a_node8"><a xlink:href="structelc_1_1defs_1_1string__n_1_1string__data__n_1_1head__apply__string__data__t.html" target="_top" xlink:title=" ">
<polygon fill="white" stroke="#666666" points="471.5,-359.5 358.5,-359.5 358.5,-307.5 471.5,-307.5 471.5,-359.5"/>
<text text-anchor="start" x="366.5" y="-347.5" font-family="Helvetica,sans-Serif" font-size="10.00">elc::defs::string_n</text>
<text text-anchor="start" x="366.5" y="-336.5" font-family="Helvetica,sans-Serif" font-size="10.00">::string_data_n::head</text>
<text text-anchor="start" x="366.5" y="-325.5" font-family="Helvetica,sans-Serif" font-size="10.00">_apply_string_data_t&lt;</text>
<text text-anchor="middle" x="415" y="-314.5" font-family="Helvetica,sans-Serif" font-size="10.00"> char_T &gt;</text>
</a>
</g>
</g>
<!-- Node1&#45;&gt;Node8 -->
<g id="edge7" class="edge">
<title>Node1&#45;&gt;Node8</title>
<path fill="none" stroke="#63b8ff" d="M324.07,-315.12C335.6,-317.48 347.4,-319.89 358.48,-322.16"/>
<polygon fill="#63b8ff" stroke="#63b8ff" points="324.52,-311.64 314.02,-313.07 323.11,-318.5 324.52,-311.64"/>
</g>
<!-- Node9 -->
<g id="node9" class="node">
<title>Node9</title>
<g id="a_node9"><a xlink:href="structelc_1_1defs_1_1string__n_1_1string__data__n_1_1inserted__string__data__t.html" target="_top" xlink:title=" ">
<polygon fill="white" stroke="#666666" points="477.5,-289 352.5,-289 352.5,-248 477.5,-248 477.5,-289"/>
<text text-anchor="start" x="360.5" y="-277" font-family="Helvetica,sans-Serif" font-size="10.00">elc::defs::string_n</text>
<text text-anchor="start" x="360.5" y="-266" font-family="Helvetica,sans-Serif" font-size="10.00">::string_data_n::inserted</text>
<text text-anchor="middle" x="415" y="-255" font-family="Helvetica,sans-Serif" font-size="10.00">_string_data_t&lt; char_T &gt;</text>
</a>
</g>
</g>
<!-- Node1&#45;&gt;Node9 -->
<g id="edge8" class="edge">
<title>Node1&#45;&gt;Node9</title>
<path fill="none" stroke="#63b8ff" d="M323.85,-286.36C333.36,-284.48 343.06,-282.56 352.39,-280.71"/>
<polygon fill="#63b8ff" stroke="#63b8ff" points="323.15,-282.93 314.02,-288.31 324.51,-289.8 323.15,-282.93"/>
</g>
<!-- Node10 -->
<g id="node10" class="node">
<title>Node10</title>
<g id="a_node10"><a xlink:href="structelc_1_1defs_1_1string__n_1_1string__data__n_1_1null__string__data__t.html" target="_top" xlink:title=" ">
<polygon fill="white" stroke="#666666" points="477.5,-230 352.5,-230 352.5,-189 477.5,-189 477.5,-230"/>
<text text-anchor="start" x="360.5" y="-218" font-family="Helvetica,sans-Serif" font-size="10.00">elc::defs::string_n</text>
<text text-anchor="start" x="360.5" y="-207" font-family="Helvetica,sans-Serif" font-size="10.00">::string_data_n::null</text>
<text text-anchor="middle" x="415" y="-196" font-family="Helvetica,sans-Serif" font-size="10.00">_string_data_t&lt; char_T &gt;</text>
</a>
</g>
</g>
<!-- Node1&#45;&gt;Node10 -->
<g id="edge9" class="edge">
<title>Node1&#45;&gt;Node10</title>
<path fill="none" stroke="#63b8ff" d="M291.4,-273.99C308.95,-262.49 330.17,-249.23 350,-238.5 355.26,-235.66 360.85,-232.84 366.45,-230.14"/>
<polygon fill="#63b8ff" stroke="#63b8ff" points="288.99,-271.39 282.57,-279.82 292.85,-277.23 288.99,-271.39"/>
</g>
<!-- Node11 -->
<g id="node11" class="node">
<title>Node11</title>
<g id="a_node11"><a xlink:href="structelc_1_1defs_1_1string__n_1_1string__data__n_1_1same__value__compress__string__data__t.html" target="_top" xlink:title=" ">
<polygon fill="white" stroke="#666666" points="475.5,-170.5 354.5,-170.5 354.5,-118.5 475.5,-118.5 475.5,-170.5"/>
<text text-anchor="start" x="362.5" y="-158.5" font-family="Helvetica,sans-Serif" font-size="10.00">elc::defs::string_n</text>
<text text-anchor="start" x="362.5" y="-147.5" font-family="Helvetica,sans-Serif" font-size="10.00">::string_data_n::same</text>
<text text-anchor="start" x="362.5" y="-136.5" font-family="Helvetica,sans-Serif" font-size="10.00">_value_compress_string</text>
<text text-anchor="middle" x="415" y="-125.5" font-family="Helvetica,sans-Serif" font-size="10.00">_data_t&lt; char_T &gt;</text>
</a>
</g>
</g>
<!-- Node1&#45;&gt;Node11 -->
<g id="edge10" class="edge">
<title>Node1&#45;&gt;Node11</title>
<path fill="none" stroke="#63b8ff" d="M271.24,-271.15C289.12,-244.79 318.02,-206.25 350,-179.5 353.69,-176.41 357.7,-173.47 361.84,-170.7"/>
<polygon fill="#63b8ff" stroke="#63b8ff" points="268.25,-269.32 265.61,-279.58 274.07,-273.21 268.25,-269.32"/>
</g>
<!-- Node12 -->
<g id="node12" class="node">
<title>Node12</title>
<g id="a_node12"><a xlink:href="structelc_1_1defs_1_1string__n_1_1string__data__n_1_1substr__string__data__t.html" target="_top" xlink:title=" ">
<polygon fill="white" stroke="#666666" points="477.5,-100 352.5,-100 352.5,-59 477.5,-59 477.5,-100"/>
<text text-anchor="start" x="360.5" y="-88" font-family="Helvetica,sans-Serif" font-size="10.00">elc::defs::string_n</text>
<text text-anchor="start" x="360.5" y="-77" font-family="Helvetica,sans-Serif" font-size="10.00">::string_data_n::substr</text>
<text text-anchor="middle" x="415" y="-66" font-family="Helvetica,sans-Serif" font-size="10.00">_string_data_t&lt; char_T &gt;</text>
</a>
</g>
</g>
<!-- Node1&#45;&gt;Node12 -->
<g id="edge11" class="edge">
<title>Node1&#45;&gt;Node12</title>
<path fill="none" stroke="#63b8ff" d="M261.09,-270.25C274.15,-229.08 302.63,-155.31 350,-109.5 353.62,-106 357.72,-102.86 362.05,-100.04"/>
<polygon fill="#63b8ff" stroke="#63b8ff" points="257.69,-269.39 258.1,-279.97 264.38,-271.44 257.69,-269.39"/>
</g>
<!-- Node13 -->
<g id="node13" class="node">
<title>Node13</title>
<g id="a_node13"><a xlink:href="structelc_1_1defs_1_1string__n_1_1string__data__n_1_1sum__string__data__t.html" target="_top" xlink:title=" ">
<polygon fill="white" stroke="#666666" points="477.5,-41 352.5,-41 352.5,0 477.5,0 477.5,-41"/>
<text text-anchor="start" x="360.5" y="-29" font-family="Helvetica,sans-Serif" font-size="10.00">elc::defs::string_n</text>
<text text-anchor="start" x="360.5" y="-18" font-family="Helvetica,sans-Serif" font-size="10.00">::string_data_n::sum</text>
<text text-anchor="middle" x="415" y="-7" font-family="Helvetica,sans-Serif" font-size="10.00">_string_data_t&lt; char_T &gt;</text>
</a>
</g>
</g>
<!-- Node1&#45;&gt;Node13 -->
<g id="edge12" class="edge">
<title>Node1&#45;&gt;Node13</title>
<path fill="none" stroke="#63b8ff" d="M256.75,-269.94C265.43,-218.3 289.72,-113.19 350,-49.5 352.93,-46.4 356.26,-43.6 359.82,-41.09"/>
<polygon fill="#63b8ff" stroke="#63b8ff" points="253.3,-269.4 255.18,-279.82 260.21,-270.5 253.3,-269.4"/>
</g>
<!-- Node2 -->
<g id="node2" class="node">
<title>Node2</title>
<g id="a_node2"><a xlink:title=" ">
<polygon fill="white" stroke="#666666" points="153,-372.5 0,-372.5 0,-298.5 153,-298.5 153,-372.5"/>
<text text-anchor="start" x="8" y="-360.5" font-family="Helvetica,sans-Serif" font-size="10.00">type_info_t&lt; base_string</text>
<text text-anchor="start" x="8" y="-349.5" font-family="Helvetica,sans-Serif" font-size="10.00">_data_t&lt; char_T &gt; &gt;:: template</text>
<text text-anchor="middle" x="76.5" y="-338.5" font-family="Helvetica,sans-Serif" font-size="10.00"> </text>
<text text-anchor="start" x="8" y="-327.5" font-family="Helvetica,sans-Serif" font-size="10.00">	with_common_attribute</text>
<text text-anchor="start" x="8" y="-316.5" font-family="Helvetica,sans-Serif" font-size="10.00">&lt; abstract_base, never_in</text>
<text text-anchor="middle" x="76.5" y="-305.5" font-family="Helvetica,sans-Serif" font-size="10.00">_array, replace_able, ref_able &gt;</text>
</a>
</g>
</g>
<!-- Node2&#45;&gt;Node1 -->
<g id="edge1" class="edge">
<title>Node2&#45;&gt;Node1</title>
<path fill="none" stroke="#63b8ff" d="M162.94,-318.21C171.66,-316.45 180.39,-314.68 188.78,-312.99"/>
<polygon fill="#63b8ff" stroke="#63b8ff" points="162.24,-314.79 153.13,-320.2 163.62,-321.65 162.24,-314.79"/>
</g>
<!-- Node3 -->
<g id="node3" class="node">
<title>Node3</title>
<g id="a_node3"><a xlink:href="classelc_1_1defs_1_1base_1_1build__by__get__only.html" target="_top" xlink:title=" ">
<polygon fill="white" stroke="#666666" points="130,-280.5 23,-280.5 23,-250.5 130,-250.5 130,-280.5"/>
<text text-anchor="start" x="31" y="-268.5" font-family="Helvetica,sans-Serif" font-size="10.00">elc::defs::base::build</text>
<text text-anchor="middle" x="76.5" y="-257.5" font-family="Helvetica,sans-Serif" font-size="10.00">_by_get_only</text>
</a>
</g>
</g>
<!-- Node3&#45;&gt;Node1 -->
<g id="edge2" class="edge">
<title>Node3&#45;&gt;Node1</title>
<path fill="none" stroke="#63b8ff" d="M140.52,-278.25C156.29,-281.44 173.18,-284.86 188.87,-288.03"/>
<polygon fill="#63b8ff" stroke="#63b8ff" points="140.84,-274.74 130.35,-276.19 139.45,-281.6 140.84,-274.74"/>
</g>
</g>
</svg>
