<?xml version="1.0" encoding="UTF-8" standalone="no"?>
<!DOCTYPE svg PUBLIC "-//W3C//DTD SVG 1.1//EN"
 "http://www.w3.org/Graphics/SVG/1.1/DTD/svg11.dtd">
<!-- Generated by graphviz version 6.0.1 (20220911.1526)
 -->
<!-- Title: elc::defs::lib_loader_n::symbol_t&lt; Ret_t(Args_t...) noexcept(nothrow)&gt; Pages: 1 -->
<svg width="295pt" height="98pt"
 viewBox="0.00 0.00 295.00 97.50" xmlns="http://www.w3.org/2000/svg" xmlns:xlink="http://www.w3.org/1999/xlink">
<g id="graph0" class="graph" transform="scale(1 1) rotate(0) translate(4 93.5)">
<title>elc::defs::lib_loader_n::symbol_t&lt; Ret_t(Args_t...) noexcept(nothrow)&gt;</title>
<!-- Node1 -->
<g id="node1" class="node">
<title>Node1</title>
<g id="a_node1"><a xlink:title=" ">
<polygon fill="#999999" stroke="#666666" points="287,-62.5 159,-62.5 159,-21.5 287,-21.5 287,-62.5"/>
<text text-anchor="start" x="167" y="-50.5" font-family="Helvetica,sans-Serif" font-size="10.00">elc::defs::lib_loader</text>
<text text-anchor="start" x="167" y="-39.5" font-family="Helvetica,sans-Serif" font-size="10.00">_n::symbol_t&lt; Ret_t(Args</text>
<text text-anchor="middle" x="223" y="-28.5" font-family="Helvetica,sans-Serif" font-size="10.00">_t...) noexcept(nothrow)&gt;</text>
</a>
</g>
</g>
<!-- Node2 -->
<g id="node2" class="node">
<title>Node2</title>
<g id="a_node2"><a xlink:href="classelc_1_1defs_1_1base_1_1function__base__n_1_1function__data__warpper__t.html" target="_top" xlink:title=" ">
<polygon fill="white" stroke="#666666" points="123,-89.5 0,-89.5 0,-48.5 123,-48.5 123,-89.5"/>
<text text-anchor="start" x="8" y="-77.5" font-family="Helvetica,sans-Serif" font-size="10.00">elc::defs::base::function</text>
<text text-anchor="start" x="8" y="-66.5" font-family="Helvetica,sans-Serif" font-size="10.00">_base_n::function_data</text>
<text text-anchor="middle" x="61.5" y="-55.5" font-family="Helvetica,sans-Serif" font-size="10.00">_warpper_t&lt; T, Func_t &gt;</text>
</a>
</g>
</g>
<!-- Node2&#45;&gt;Node1 -->
<g id="edge1" class="edge">
<title>Node2&#45;&gt;Node1</title>
<path fill="none" stroke="#63b8ff" d="M133.17,-57.04C141.69,-55.59 150.36,-54.13 158.76,-52.7"/>
<polygon fill="#63b8ff" stroke="#63b8ff" points="132.53,-53.6 123.26,-58.72 133.7,-60.5 132.53,-53.6"/>
</g>
<!-- Node3 -->
<g id="node3" class="node">
<title>Node3</title>
<g id="a_node3"><a xlink:href="structelc_1_1defs_1_1lib__loader__n_1_1base__symbol__t.html" target="_top" xlink:title=" ">
<polygon fill="white" stroke="#666666" points="112,-30 11,-30 11,0 112,0 112,-30"/>
<text text-anchor="start" x="19" y="-18" font-family="Helvetica,sans-Serif" font-size="10.00">elc::defs::lib_loader</text>
<text text-anchor="middle" x="61.5" y="-7" font-family="Helvetica,sans-Serif" font-size="10.00">_n::base_symbol_t</text>
</a>
</g>
</g>
<!-- Node3&#45;&gt;Node1 -->
<g id="edge2" class="edge">
<title>Node3&#45;&gt;Node1</title>
<path fill="none" stroke="#63b8ff" d="M122.02,-25.08C134.06,-27.11 146.75,-29.26 158.91,-31.32"/>
<polygon fill="#63b8ff" stroke="#63b8ff" points="122.54,-21.61 112.09,-23.39 121.37,-28.51 122.54,-21.61"/>
</g>
</g>
</svg>
