<?xml version="1.0" encoding="UTF-8" standalone="no"?>
<!DOCTYPE svg PUBLIC "-//W3C//DTD SVG 1.1//EN"
 "http://www.w3.org/Graphics/SVG/1.1/DTD/svg11.dtd">
<!-- Generated by graphviz version 6.0.1 (20220911.1526)
 -->
<!-- Title: elc::defs::core::value::base_data_t::get_value Pages: 1 -->
<svg width="556pt" height="182pt"
 viewBox="0.00 0.00 556.00 182.00" xmlns="http://www.w3.org/2000/svg" xmlns:xlink="http://www.w3.org/1999/xlink">
<g id="graph0" class="graph" transform="scale(1 1) rotate(0) translate(4 178)">
<title>elc::defs::core::value::base_data_t::get_value</title>
<!-- Node1 -->
<g id="node1" class="node">
<title>Node1</title>
<g id="a_node1"><a xlink:title=" ">
<polygon fill="#999999" stroke="#666666" points="548,-102 426,-102 426,-72 548,-72 548,-102"/>
<text text-anchor="start" x="434" y="-90" font-family="Helvetica,sans-Serif" font-size="10.00">elc::defs::core::value</text>
<text text-anchor="middle" x="487" y="-79" font-family="Helvetica,sans-Serif" font-size="10.00">::base_data_t::get_value</text>
</a>
</g>
</g>
<!-- Node2 -->
<g id="node2" class="node">
<title>Node2</title>
<g id="a_node2"><a xlink:href="structelc_1_1defs_1_1core_1_1value.html#a345c944e2a8058f5adbfc9187b4aea5d" target="_top" xlink:title=" ">
<polygon fill="white" stroke="#666666" points="390,-174 284,-174 284,-144 390,-144 390,-174"/>
<text text-anchor="start" x="292" y="-162" font-family="Helvetica,sans-Serif" font-size="10.00">elc::defs::core::value</text>
<text text-anchor="middle" x="337" y="-151" font-family="Helvetica,sans-Serif" font-size="10.00">::operator bool</text>
</a>
</g>
</g>
<!-- Node1&#45;&gt;Node2 -->
<g id="edge1" class="edge">
<title>Node1&#45;&gt;Node2</title>
<path fill="none" stroke="#63b8ff" d="M447,-106.84C429.62,-115.6 408.85,-125.94 390,-135 383.91,-137.93 377.38,-141 371.08,-143.92"/>
<polygon fill="#63b8ff" stroke="#63b8ff" points="448.93,-109.79 456.28,-102.16 445.78,-103.54 448.93,-109.79"/>
</g>
<!-- Node3 -->
<g id="node3" class="node">
<title>Node3</title>
<g id="a_node3"><a xlink:href="structelc_1_1defs_1_1core_1_1value.html#a0eac49dca48f54d2cd4579e66bbd63b1" target="_top" xlink:title=" ">
<polygon fill="white" stroke="#666666" points="390,-126 284,-126 284,-96 390,-96 390,-126"/>
<text text-anchor="start" x="292" y="-114" font-family="Helvetica,sans-Serif" font-size="10.00">elc::defs::core::value</text>
<text text-anchor="middle" x="337" y="-103" font-family="Helvetica,sans-Serif" font-size="10.00">::operator const_ptr</text>
</a>
</g>
</g>
<!-- Node1&#45;&gt;Node3 -->
<g id="edge2" class="edge">
<title>Node1&#45;&gt;Node3</title>
<path fill="none" stroke="#63b8ff" d="M415.72,-98.4C407.08,-99.8 398.38,-101.21 390.08,-102.56"/>
<polygon fill="#63b8ff" stroke="#63b8ff" points="416.49,-101.82 425.8,-96.76 415.37,-94.91 416.49,-101.82"/>
</g>
<!-- Node5 -->
<g id="node5" class="node">
<title>Node5</title>
<g id="a_node5"><a xlink:href="structelc_1_1defs_1_1core_1_1value.html#a7fc91a401233272a670ebbeca186adfc" target="_top" xlink:title=" ">
<polygon fill="white" stroke="#666666" points="390,-78 284,-78 284,-48 390,-48 390,-78"/>
<text text-anchor="start" x="292" y="-66" font-family="Helvetica,sans-Serif" font-size="10.00">elc::defs::core::value</text>
<text text-anchor="middle" x="337" y="-55" font-family="Helvetica,sans-Serif" font-size="10.00">::operator ptr</text>
</a>
</g>
</g>
<!-- Node1&#45;&gt;Node5 -->
<g id="edge4" class="edge">
<title>Node1&#45;&gt;Node5</title>
<path fill="none" stroke="#63b8ff" d="M415.72,-75.6C407.08,-74.2 398.38,-72.79 390.08,-71.44"/>
<polygon fill="#63b8ff" stroke="#63b8ff" points="415.37,-79.09 425.8,-77.24 416.49,-72.18 415.37,-79.09"/>
</g>
<!-- Node9 -->
<g id="node9" class="node">
<title>Node9</title>
<g id="a_node9"><a xlink:href="structelc_1_1defs_1_1core_1_1value.html#a53e21a4941385d5c0998575d990a5cda" target="_top" xlink:title=" ">
<polygon fill="white" stroke="#666666" points="390,-30 284,-30 284,0 390,0 390,-30"/>
<text text-anchor="start" x="292" y="-18" font-family="Helvetica,sans-Serif" font-size="10.00">elc::defs::core::value</text>
<text text-anchor="middle" x="337" y="-7" font-family="Helvetica,sans-Serif" font-size="10.00">::for_delete_t *</text>
</a>
</g>
</g>
<!-- Node1&#45;&gt;Node9 -->
<g id="edge8" class="edge">
<title>Node1&#45;&gt;Node9</title>
<path fill="none" stroke="#63b8ff" d="M447,-67.16C429.62,-58.4 408.85,-48.06 390,-39 383.91,-36.07 377.38,-33 371.08,-30.08"/>
<polygon fill="#63b8ff" stroke="#63b8ff" points="445.78,-70.46 456.28,-71.84 448.93,-64.21 445.78,-70.46"/>
</g>
<!-- Node4 -->
<g id="node4" class="node">
<title>Node4</title>
<g id="a_node4"><a xlink:href="structelc_1_1defs_1_1core_1_1value.html#a44499d0148e9cef5142a11819e04d50b" target="_top" xlink:title=" ">
<polygon fill="white" stroke="#666666" points="248,-126 142,-126 142,-96 248,-96 248,-126"/>
<text text-anchor="start" x="150" y="-114" font-family="Helvetica,sans-Serif" font-size="10.00">elc::defs::core::value</text>
<text text-anchor="middle" x="195" y="-103" font-family="Helvetica,sans-Serif" font-size="10.00">::operator&amp;</text>
</a>
</g>
</g>
<!-- Node3&#45;&gt;Node4 -->
<g id="edge3" class="edge">
<title>Node3&#45;&gt;Node4</title>
<path fill="none" stroke="#63b8ff" d="M273.61,-111C265.12,-111 256.47,-111 248.17,-111"/>
<polygon fill="#63b8ff" stroke="#63b8ff" points="273.87,-114.5 283.87,-111 273.87,-107.5 273.87,-114.5"/>
</g>
<!-- Node6 -->
<g id="node6" class="node">
<title>Node6</title>
<g id="a_node6"><a xlink:href="structelc_1_1defs_1_1core_1_1value.html#ab5fb050cbffc44b68278d440175013ae" target="_top" xlink:title=" ">
<polygon fill="white" stroke="#666666" points="248,-78 142,-78 142,-48 248,-48 248,-78"/>
<text text-anchor="start" x="150" y="-66" font-family="Helvetica,sans-Serif" font-size="10.00">elc::defs::core::value</text>
<text text-anchor="middle" x="195" y="-55" font-family="Helvetica,sans-Serif" font-size="10.00">::operator&amp;</text>
</a>
</g>
</g>
<!-- Node5&#45;&gt;Node6 -->
<g id="edge5" class="edge">
<title>Node5&#45;&gt;Node6</title>
<path fill="none" stroke="#63b8ff" d="M273.61,-63C265.12,-63 256.47,-63 248.17,-63"/>
<polygon fill="#63b8ff" stroke="#63b8ff" points="273.87,-66.5 283.87,-63 273.87,-59.5 273.87,-66.5"/>
</g>
<!-- Node7 -->
<g id="node7" class="node">
<title>Node7</title>
<g id="a_node7"><a xlink:href="structelc_1_1defs_1_1core_1_1value.html#a064266fb65d89dbaede26b072f4f09e9" target="_top" xlink:title=" ">
<polygon fill="white" stroke="#666666" points="106,-102 0,-102 0,-72 106,-72 106,-102"/>
<text text-anchor="start" x="8" y="-90" font-family="Helvetica,sans-Serif" font-size="10.00">elc::defs::core::value</text>
<text text-anchor="middle" x="53" y="-79" font-family="Helvetica,sans-Serif" font-size="10.00">::operator()</text>
</a>
</g>
</g>
<!-- Node6&#45;&gt;Node7 -->
<g id="edge6" class="edge">
<title>Node6&#45;&gt;Node7</title>
<path fill="none" stroke="#63b8ff" d="M131.89,-73.65C123.31,-75.12 114.56,-76.62 106.17,-78.06"/>
<polygon fill="#63b8ff" stroke="#63b8ff" points="132.6,-77.08 141.87,-71.94 131.42,-70.18 132.6,-77.08"/>
</g>
<!-- Node8 -->
<g id="node8" class="node">
<title>Node8</title>
<g id="a_node8"><a xlink:href="structelc_1_1defs_1_1core_1_1value.html#a4236d768c466220881619212d9779fa1" target="_top" xlink:title=" ">
<polygon fill="white" stroke="#666666" points="106,-54 0,-54 0,-24 106,-24 106,-54"/>
<text text-anchor="start" x="8" y="-42" font-family="Helvetica,sans-Serif" font-size="10.00">elc::defs::core::value</text>
<text text-anchor="middle" x="53" y="-31" font-family="Helvetica,sans-Serif" font-size="10.00">::operator[]</text>
</a>
</g>
</g>
<!-- Node6&#45;&gt;Node8 -->
<g id="edge7" class="edge">
<title>Node6&#45;&gt;Node8</title>
<path fill="none" stroke="#63b8ff" d="M131.89,-52.35C123.31,-50.88 114.56,-49.38 106.17,-47.94"/>
<polygon fill="#63b8ff" stroke="#63b8ff" points="131.42,-55.82 141.87,-54.06 132.6,-48.92 131.42,-55.82"/>
</g>
</g>
</svg>
