<?xml version="1.0" encoding="UTF-8" standalone="no"?>
<!DOCTYPE svg PUBLIC "-//W3C//DTD SVG 1.1//EN"
 "http://www.w3.org/Graphics/SVG/1.1/DTD/svg11.dtd">
<!-- Generated by graphviz version 6.0.1 (20220911.1526)
 -->
<!-- Title: elc::defs::core::binary_node_t&lt; T &gt; Pages: 1 -->
<svg width="707pt" height="103pt"
 viewBox="0.00 0.00 707.00 102.50" xmlns="http://www.w3.org/2000/svg" xmlns:xlink="http://www.w3.org/1999/xlink">
<g id="graph0" class="graph" transform="scale(1 1) rotate(0) translate(4 98.5)">
<title>elc::defs::core::binary_node_t&lt; T &gt;</title>
<!-- Node1 -->
<g id="node1" class="node">
<title>Node1</title>
<g id="a_node1"><a xlink:title=" ">
<polygon fill="#999999" stroke="#666666" points="699,-54 589,-54 589,-24 699,-24 699,-54"/>
<text text-anchor="start" x="597" y="-42" font-family="Helvetica,sans-Serif" font-size="10.00">elc::defs::core::binary</text>
<text text-anchor="middle" x="644" y="-31" font-family="Helvetica,sans-Serif" font-size="10.00">_node_t&lt; T &gt;</text>
</a>
</g>
</g>
<!-- Node2 -->
<g id="node2" class="node">
<title>Node2</title>
<g id="a_node2"><a xlink:href="structelc_1_1defs_1_1core_1_1binary__node__base__t.html" target="_top" xlink:title=" ">
<polygon fill="white" stroke="#666666" points="548.5,-78 438.5,-78 438.5,-48 548.5,-48 548.5,-78"/>
<text text-anchor="start" x="446.5" y="-66" font-family="Helvetica,sans-Serif" font-size="10.00">elc::defs::core::binary</text>
<text text-anchor="middle" x="493.5" y="-55" font-family="Helvetica,sans-Serif" font-size="10.00">_node_base_t</text>
</a>
</g>
</g>
<!-- Node2&#45;&gt;Node1 -->
<g id="edge1" class="edge">
<title>Node2&#45;&gt;Node1</title>
<path fill="none" stroke="#63b8ff" d="M558.5,-52.66C568.58,-51.03 578.93,-49.36 588.76,-47.77"/>
<polygon fill="#63b8ff" stroke="#63b8ff" points="557.85,-49.22 548.53,-54.27 558.96,-56.13 557.85,-49.22"/>
</g>
<!-- Node3 -->
<g id="node3" class="node">
<title>Node3</title>
<g id="a_node3"><a xlink:href="structelc_1_1defs_1_1core_1_1node__like.html" target="_top" xlink:title=" ">
<polygon fill="white" stroke="#666666" points="398,-72.5 273,-72.5 273,-53.5 398,-53.5 398,-72.5"/>
<text text-anchor="middle" x="335.5" y="-60.5" font-family="Helvetica,sans-Serif" font-size="10.00">elc::defs::core::node_like</text>
</a>
</g>
</g>
<!-- Node3&#45;&gt;Node2 -->
<g id="edge2" class="edge">
<title>Node3&#45;&gt;Node2</title>
<path fill="none" stroke="#63b8ff" d="M408.22,-63C418.35,-63 428.63,-63 438.36,-63"/>
<polygon fill="#63b8ff" stroke="#63b8ff" points="408.16,-59.5 398.16,-63 408.16,-66.5 408.16,-59.5"/>
</g>
<!-- Node4 -->
<g id="node4" class="node">
<title>Node4</title>
<g id="a_node4"><a xlink:title=" ">
<polygon fill="white" stroke="#666666" points="237,-94.5 0,-94.5 0,-31.5 237,-31.5 237,-94.5"/>
<text text-anchor="start" x="8" y="-82.5" font-family="Helvetica,sans-Serif" font-size="10.00">type_info_t&lt; node_like</text>
<text text-anchor="middle" x="118.5" y="-71.5" font-family="Helvetica,sans-Serif" font-size="10.00"> &gt;:: template </text>
<text text-anchor="start" x="8" y="-60.5" font-family="Helvetica,sans-Serif" font-size="10.00">					with_common_attribute</text>
<text text-anchor="start" x="8" y="-49.5" font-family="Helvetica,sans-Serif" font-size="10.00">&lt; abstract_base, weak_ref</text>
<text text-anchor="middle" x="118.5" y="-38.5" font-family="Helvetica,sans-Serif" font-size="10.00">_able, replace_able, ref_able &gt;</text>
</a>
</g>
</g>
<!-- Node4&#45;&gt;Node3 -->
<g id="edge3" class="edge">
<title>Node4&#45;&gt;Node3</title>
<path fill="none" stroke="#63b8ff" d="M247.14,-63C256.01,-63 264.69,-63 272.93,-63"/>
<polygon fill="#63b8ff" stroke="#63b8ff" points="247.07,-59.5 237.07,-63 247.06,-66.5 247.07,-59.5"/>
</g>
<!-- Node5 -->
<g id="node5" class="node">
<title>Node5</title>
<g id="a_node5"><a xlink:title=" ">
<polygon fill="white" stroke="#666666" points="553,-30 434,-30 434,0 553,0 553,-30"/>
<text text-anchor="start" x="442" y="-18" font-family="Helvetica,sans-Serif" font-size="10.00">instance_struct&lt; binary</text>
<text text-anchor="middle" x="493.5" y="-7" font-family="Helvetica,sans-Serif" font-size="10.00">_node_t&lt; T &gt; &gt;</text>
</a>
</g>
</g>
<!-- Node5&#45;&gt;Node1 -->
<g id="edge4" class="edge">
<title>Node5&#45;&gt;Node1</title>
<path fill="none" stroke="#63b8ff" d="M563.14,-26.09C571.68,-27.47 580.32,-28.87 588.6,-30.21"/>
<polygon fill="#63b8ff" stroke="#63b8ff" points="563.62,-22.63 553.19,-24.49 562.5,-29.54 563.62,-22.63"/>
</g>
</g>
</svg>
