<?xml version="1.0" encoding="UTF-8" standalone="no"?>
<!DOCTYPE svg PUBLIC "-//W3C//DTD SVG 1.1//EN"
 "http://www.w3.org/Graphics/SVG/1.1/DTD/svg11.dtd">
<!-- Generated by graphviz version 6.0.1 (20220911.1526)
 -->
<!-- Title: elc::defs::memory::ptr_n::base_ptr_t::operator= Pages: 1 -->
<svg width="303pt" height="134pt"
 viewBox="0.00 0.00 303.00 134.00" xmlns="http://www.w3.org/2000/svg" xmlns:xlink="http://www.w3.org/1999/xlink">
<g id="graph0" class="graph" transform="scale(1 1) rotate(0) translate(4 130)">
<title>elc::defs::memory::ptr_n::base_ptr_t::operator=</title>
<!-- Node1 -->
<g id="node1" class="node">
<title>Node1</title>
<g id="a_node1"><a xlink:title=" ">
<polygon fill="#999999" stroke="#666666" points="295,-78 158,-78 158,-48 295,-48 295,-78"/>
<text text-anchor="start" x="166" y="-66" font-family="Helvetica,sans-Serif" font-size="10.00">elc::defs::memory::</text>
<text text-anchor="middle" x="226.5" y="-55" font-family="Helvetica,sans-Serif" font-size="10.00">ptr_n::base_ptr_t::operator=</text>
</a>
</g>
</g>
<!-- Node2 -->
<g id="node2" class="node">
<title>Node2</title>
<g id="a_node2"><a xlink:href="structelc_1_1defs_1_1core_1_1code__list.html#ac4978915e4a32e36633795620da976f8" target="_top" xlink:title=" ">
<polygon fill="white" stroke="#666666" points="113.5,-126 8.5,-126 8.5,-96 113.5,-96 113.5,-126"/>
<text text-anchor="start" x="16.5" y="-114" font-family="Helvetica,sans-Serif" font-size="10.00">elc::defs::core::code</text>
<text text-anchor="middle" x="61" y="-103" font-family="Helvetica,sans-Serif" font-size="10.00">_list::be_eval</text>
</a>
</g>
</g>
<!-- Node1&#45;&gt;Node2 -->
<g id="edge1" class="edge">
<title>Node1&#45;&gt;Node2</title>
<path fill="none" stroke="#63b8ff" d="M164.44,-80.93C147.53,-85.89 129.37,-91.22 113.1,-96"/>
<polygon fill="#63b8ff" stroke="#63b8ff" points="165.61,-84.23 174.22,-78.06 163.64,-77.51 165.61,-84.23"/>
</g>
<!-- Node3 -->
<g id="node3" class="node">
<title>Node3</title>
<g id="a_node3"><a xlink:href="structelc_1_1defs_1_1core_1_1value_1_1variable__data__t.html#a59ed3ff833e01ce63ddc6e3b3a19286d" target="_top" xlink:title=" ">
<polygon fill="white" stroke="#666666" points="122,-78 0,-78 0,-48 122,-48 122,-78"/>
<text text-anchor="start" x="8" y="-66" font-family="Helvetica,sans-Serif" font-size="10.00">elc::defs::core::value</text>
<text text-anchor="middle" x="61" y="-55" font-family="Helvetica,sans-Serif" font-size="10.00">::variable_data_t::be_set</text>
</a>
</g>
</g>
<!-- Node1&#45;&gt;Node3 -->
<g id="edge2" class="edge">
<title>Node1&#45;&gt;Node3</title>
<path fill="none" stroke="#63b8ff" d="M147.31,-63C138.85,-63 130.34,-63 122.14,-63"/>
<polygon fill="#63b8ff" stroke="#63b8ff" points="147.58,-66.5 157.58,-63 147.58,-59.5 147.58,-66.5"/>
</g>
<!-- Node4 -->
<g id="node4" class="node">
<title>Node4</title>
<g id="a_node4"><a xlink:href="structelc_1_1defs_1_1core_1_1value.html#a58fb7cbd9cfe7ae76fe373c3457f4d19" target="_top" xlink:title=" ">
<polygon fill="white" stroke="#666666" points="114,-30 8,-30 8,0 114,0 114,-30"/>
<text text-anchor="start" x="16" y="-18" font-family="Helvetica,sans-Serif" font-size="10.00">elc::defs::core::value</text>
<text text-anchor="middle" x="61" y="-7" font-family="Helvetica,sans-Serif" font-size="10.00">::re_ref_to</text>
</a>
</g>
</g>
<!-- Node1&#45;&gt;Node4 -->
<g id="edge3" class="edge">
<title>Node1&#45;&gt;Node4</title>
<path fill="none" stroke="#63b8ff" d="M164.44,-45.07C147.53,-40.11 129.37,-34.78 113.1,-30"/>
<polygon fill="#63b8ff" stroke="#63b8ff" points="163.64,-48.49 174.22,-47.94 165.61,-41.77 163.64,-48.49"/>
</g>
</g>
</svg>
