<?xml version="1.0" encoding="UTF-8" standalone="no"?>
<!DOCTYPE svg PUBLIC "-//W3C//DTD SVG 1.1//EN"
 "http://www.w3.org/Graphics/SVG/1.1/DTD/svg11.dtd">
<!-- Generated by graphviz version 6.0.1 (20220911.1526)
 -->
<!-- Title: elc::defs::memory::get_n::get_size_of_get_t::operator() Pages: 1 -->
<svg width="444pt" height="49pt"
 viewBox="0.00 0.00 444.00 49.00" xmlns="http://www.w3.org/2000/svg" xmlns:xlink="http://www.w3.org/1999/xlink">
<g id="graph0" class="graph" transform="scale(1 1) rotate(0) translate(4 45)">
<title>elc::defs::memory::get_n::get_size_of_get_t::operator()</title>
<!-- Node1 -->
<g id="node1" class="node">
<title>Node1</title>
<g id="a_node1"><a xlink:title=" ">
<polygon fill="#999999" stroke="#666666" points="436,-41 321,-41 321,0 436,0 436,-41"/>
<text text-anchor="start" x="329" y="-29" font-family="Helvetica,sans-Serif" font-size="10.00">elc::defs::memory::</text>
<text text-anchor="start" x="329" y="-18" font-family="Helvetica,sans-Serif" font-size="10.00">get_n::get_size_of_get</text>
<text text-anchor="middle" x="378.5" y="-7" font-family="Helvetica,sans-Serif" font-size="10.00">_t::operator()</text>
</a>
</g>
</g>
<!-- Node2 -->
<g id="node2" class="node">
<title>Node2</title>
<g id="a_node2"><a xlink:href="structelc_1_1defs_1_1stream__n_1_1memory__stream.html#a65e818ceeadd10356f40d84f13e108e9" target="_top" xlink:title=" ">
<polygon fill="white" stroke="#666666" points="285,-35.5 155,-35.5 155,-5.5 285,-5.5 285,-35.5"/>
<text text-anchor="start" x="163" y="-23.5" font-family="Helvetica,sans-Serif" font-size="10.00">elc::defs::stream_n</text>
<text text-anchor="middle" x="220" y="-12.5" font-family="Helvetica,sans-Serif" font-size="10.00">::memory_stream::bufsize</text>
</a>
</g>
</g>
<!-- Node1&#45;&gt;Node2 -->
<g id="edge1" class="edge">
<title>Node1&#45;&gt;Node2</title>
<path fill="none" stroke="#63b8ff" d="M310.75,-20.5C302.26,-20.5 293.57,-20.5 285.12,-20.5"/>
<polygon fill="#63b8ff" stroke="#63b8ff" points="311,-24 321,-20.5 311,-17 311,-24"/>
</g>
<!-- Node3 -->
<g id="node3" class="node">
<title>Node3</title>
<g id="a_node3"><a xlink:href="structelc_1_1defs_1_1stream__n_1_1memory__stream.html#a67ff24027a516e8c388b3a8093d1ad5a" target="_top" xlink:title=" ">
<polygon fill="white" stroke="#666666" points="119,-35.5 0,-35.5 0,-5.5 119,-5.5 119,-35.5"/>
<text text-anchor="start" x="8" y="-23.5" font-family="Helvetica,sans-Serif" font-size="10.00">elc::defs::stream_n</text>
<text text-anchor="middle" x="59.5" y="-12.5" font-family="Helvetica,sans-Serif" font-size="10.00">::memory_stream::write</text>
</a>
</g>
</g>
<!-- Node2&#45;&gt;Node3 -->
<g id="edge2" class="edge">
<title>Node2&#45;&gt;Node3</title>
<path fill="none" stroke="#63b8ff" d="M144.9,-20.5C136.25,-20.5 127.52,-20.5 119.12,-20.5"/>
<polygon fill="#63b8ff" stroke="#63b8ff" points="144.99,-24 154.99,-20.5 144.99,-17 144.99,-24"/>
</g>
</g>
</svg>
