<?xml version="1.0" encoding="UTF-8" standalone="no"?>
<!DOCTYPE svg PUBLIC "-//W3C//DTD SVG 1.1//EN"
 "http://www.w3.org/Graphics/SVG/1.1/DTD/svg11.dtd">
<!-- Generated by graphviz version 6.0.1 (20220911.1526)
 -->
<!-- Title: elc::defs::string_n::string_data_n::base_string_data_t::get_substr_data Pages: 1 -->
<svg width="340pt" height="108pt"
 viewBox="0.00 0.00 340.00 108.00" xmlns="http://www.w3.org/2000/svg" xmlns:xlink="http://www.w3.org/1999/xlink">
<g id="graph0" class="graph" transform="scale(1 1) rotate(0) translate(4 104)">
<title>elc::defs::string_n::string_data_n::base_string_data_t::get_substr_data</title>
<!-- Node1 -->
<g id="node1" class="node">
<title>Node1</title>
<g id="a_node1"><a xlink:title=" ">
<polygon fill="#999999" stroke="#666666" points="332,-70 178,-70 178,-29 332,-29 332,-70"/>
<text text-anchor="start" x="186" y="-58" font-family="Helvetica,sans-Serif" font-size="10.00">elc::defs::string_n</text>
<text text-anchor="start" x="186" y="-47" font-family="Helvetica,sans-Serif" font-size="10.00">::string_data_n::base</text>
<text text-anchor="middle" x="255" y="-36" font-family="Helvetica,sans-Serif" font-size="10.00">_string_data_t::get_substr_data</text>
</a>
</g>
</g>
<!-- Node2 -->
<g id="node2" class="node">
<title>Node2</title>
<g id="a_node2"><a xlink:href="structelc_1_1defs_1_1string__n_1_1string__data__n_1_1base__string__data__t.html#a50c4053c2dc3faed2203026d56bd1420" target="_top" xlink:title=" ">
<polygon fill="white" stroke="#666666" points="142,-100 0,-100 0,-59 142,-59 142,-100"/>
<text text-anchor="start" x="8" y="-88" font-family="Helvetica,sans-Serif" font-size="10.00">elc::defs::string_n</text>
<text text-anchor="start" x="8" y="-77" font-family="Helvetica,sans-Serif" font-size="10.00">::string_data_n::base</text>
<text text-anchor="middle" x="71" y="-66" font-family="Helvetica,sans-Serif" font-size="10.00">_string_data_t::do_pop_back</text>
</a>
</g>
</g>
<!-- Node1&#45;&gt;Node2 -->
<g id="edge1" class="edge">
<title>Node1&#45;&gt;Node2</title>
<path fill="none" stroke="#63b8ff" d="M167.78,-63.71C159.15,-65.14 150.45,-66.57 142.02,-67.96"/>
<polygon fill="#63b8ff" stroke="#63b8ff" points="168.57,-67.13 177.87,-62.05 167.43,-60.22 168.57,-67.13"/>
</g>
<!-- Node3 -->
<g id="node3" class="node">
<title>Node3</title>
<g id="a_node3"><a xlink:href="structelc_1_1defs_1_1string__n_1_1string__data__n_1_1base__string__data__t.html#a159e87e96c2b7c351bddeca06f9258df" target="_top" xlink:title=" ">
<polygon fill="white" stroke="#666666" points="141,-41 1,-41 1,0 141,0 141,-41"/>
<text text-anchor="start" x="9" y="-29" font-family="Helvetica,sans-Serif" font-size="10.00">elc::defs::string_n</text>
<text text-anchor="start" x="9" y="-18" font-family="Helvetica,sans-Serif" font-size="10.00">::string_data_n::base</text>
<text text-anchor="middle" x="71" y="-7" font-family="Helvetica,sans-Serif" font-size="10.00">_string_data_t::do_pop_front</text>
</a>
</g>
</g>
<!-- Node1&#45;&gt;Node3 -->
<g id="edge2" class="edge">
<title>Node1&#45;&gt;Node3</title>
<path fill="none" stroke="#63b8ff" d="M167.82,-35.77C158.88,-34.34 149.87,-32.91 141.15,-31.52"/>
<polygon fill="#63b8ff" stroke="#63b8ff" points="167.44,-39.25 177.87,-37.37 168.55,-32.34 167.44,-39.25"/>
</g>
</g>
</svg>
