<?xml version="1.0" encoding="UTF-8" standalone="no"?>
<!DOCTYPE svg PUBLIC "-//W3C//DTD SVG 1.1//EN"
 "http://www.w3.org/Graphics/SVG/1.1/DTD/svg11.dtd">
<!-- Generated by graphviz version 6.0.1 (20220911.1526)
 -->
<!-- Title: elc::defs::stream_n::noexcept_data_istream Pages: 1 -->
<svg width="226pt" height="302pt"
 viewBox="0.00 0.00 226.00 302.00" xmlns="http://www.w3.org/2000/svg" xmlns:xlink="http://www.w3.org/1999/xlink">
<g id="graph0" class="graph" transform="scale(1 1) rotate(0) translate(4 298)">
<title>elc::defs::stream_n::noexcept_data_istream</title>
<!-- Node1 -->
<g id="node1" class="node">
<title>Node1</title>
<g id="a_node1"><a xlink:title=" ">
<polygon fill="#999999" stroke="#666666" points="171,-96 47,-96 47,-66 171,-66 171,-96"/>
<text text-anchor="start" x="55" y="-84" font-family="Helvetica,sans-Serif" font-size="10.00">elc::defs::stream_n</text>
<text text-anchor="middle" x="109" y="-73" font-family="Helvetica,sans-Serif" font-size="10.00">::noexcept_data_istream</text>
</a>
</g>
</g>
<!-- Node7 -->
<g id="node7" class="node">
<title>Node7</title>
<g id="a_node7"><a xlink:href="structelc_1_1defs_1_1stream__n_1_1noexcept__data__iostream.html" target="_top" xlink:title=" ">
<polygon fill="white" stroke="#666666" points="173.5,-30 44.5,-30 44.5,0 173.5,0 173.5,-30"/>
<text text-anchor="start" x="52.5" y="-18" font-family="Helvetica,sans-Serif" font-size="10.00">elc::defs::stream_n</text>
<text text-anchor="middle" x="109" y="-7" font-family="Helvetica,sans-Serif" font-size="10.00">::noexcept_data_iostream</text>
</a>
</g>
</g>
<!-- Node1&#45;&gt;Node7 -->
<g id="edge8" class="edge">
<title>Node1&#45;&gt;Node7</title>
<path fill="none" stroke="#63b8ff" d="M109,-55.54C109,-46.96 109,-37.61 109,-30.16"/>
<polygon fill="#63b8ff" stroke="#63b8ff" points="105.5,-55.8 109,-65.8 112.5,-55.8 105.5,-55.8"/>
</g>
<!-- Node2 -->
<g id="node2" class="node">
<title>Node2</title>
<g id="a_node2"><a xlink:href="structelc_1_1defs_1_1stream__n_1_1noexcept__istream.html" target="_top" xlink:title=" ">
<polygon fill="white" stroke="#666666" points="100,-162 0,-162 0,-132 100,-132 100,-162"/>
<text text-anchor="start" x="8" y="-150" font-family="Helvetica,sans-Serif" font-size="10.00">elc::defs::stream_n</text>
<text text-anchor="middle" x="50" y="-139" font-family="Helvetica,sans-Serif" font-size="10.00">::noexcept_istream</text>
</a>
</g>
</g>
<!-- Node2&#45;&gt;Node1 -->
<g id="edge1" class="edge">
<title>Node2&#45;&gt;Node1</title>
<path fill="none" stroke="#63b8ff" d="M69.94,-124.37C78.52,-115.06 88.31,-104.44 95.94,-96.16"/>
<polygon fill="#63b8ff" stroke="#63b8ff" points="67.3,-122.07 63.09,-131.8 72.45,-126.82 67.3,-122.07"/>
</g>
<!-- Node3 -->
<g id="node3" class="node">
<title>Node3</title>
<g id="a_node3"><a xlink:href="structelc_1_1defs_1_1stream__n_1_1base__istream.html" target="_top" xlink:title=" ">
<polygon fill="white" stroke="#666666" points="218,-228 118,-228 118,-198 218,-198 218,-228"/>
<text text-anchor="start" x="126" y="-216" font-family="Helvetica,sans-Serif" font-size="10.00">elc::defs::stream_n</text>
<text text-anchor="middle" x="168" y="-205" font-family="Helvetica,sans-Serif" font-size="10.00">::base_istream</text>
</a>
</g>
</g>
<!-- Node3&#45;&gt;Node2 -->
<g id="edge2" class="edge">
<title>Node3&#45;&gt;Node2</title>
<path fill="none" stroke="#63b8ff" d="M133.16,-193.11C114.8,-183.14 92.65,-171.13 75.84,-162.01"/>
<polygon fill="#63b8ff" stroke="#63b8ff" points="131.65,-196.26 142.1,-197.95 134.98,-190.11 131.65,-196.26"/>
</g>
<!-- Node6 -->
<g id="node6" class="node">
<title>Node6</title>
<g id="a_node6"><a xlink:href="structelc_1_1defs_1_1stream__n_1_1data__istream.html" target="_top" xlink:title=" ">
<polygon fill="white" stroke="#666666" points="218,-162 118,-162 118,-132 218,-132 218,-162"/>
<text text-anchor="start" x="126" y="-150" font-family="Helvetica,sans-Serif" font-size="10.00">elc::defs::stream_n</text>
<text text-anchor="middle" x="168" y="-139" font-family="Helvetica,sans-Serif" font-size="10.00">::data_istream</text>
</a>
</g>
</g>
<!-- Node3&#45;&gt;Node6 -->
<g id="edge7" class="edge">
<title>Node3&#45;&gt;Node6</title>
<path fill="none" stroke="#63b8ff" d="M168,-187.54C168,-178.96 168,-169.61 168,-162.16"/>
<polygon fill="#63b8ff" stroke="#63b8ff" points="164.5,-187.8 168,-197.8 171.5,-187.8 164.5,-187.8"/>
</g>
<!-- Node4 -->
<g id="node4" class="node">
<title>Node4</title>
<g id="a_node4"><a xlink:href="structelc_1_1defs_1_1stream__n_1_1base__stream.html" target="_top" xlink:title=" ">
<polygon fill="white" stroke="#666666" points="159,-294 59,-294 59,-264 159,-264 159,-294"/>
<text text-anchor="start" x="67" y="-282" font-family="Helvetica,sans-Serif" font-size="10.00">elc::defs::stream_n</text>
<text text-anchor="middle" x="109" y="-271" font-family="Helvetica,sans-Serif" font-size="10.00">::base_stream</text>
</a>
</g>
</g>
<!-- Node4&#45;&gt;Node3 -->
<g id="edge3" class="edge">
<title>Node4&#45;&gt;Node3</title>
<path fill="none" stroke="#63b8ff" d="M128.94,-256.37C137.52,-247.06 147.31,-236.44 154.94,-228.16"/>
<polygon fill="#63b8ff" stroke="#63b8ff" points="126.3,-254.07 122.09,-263.8 131.45,-258.82 126.3,-254.07"/>
</g>
<!-- Node5 -->
<g id="node5" class="node">
<title>Node5</title>
<g id="a_node5"><a xlink:href="structelc_1_1defs_1_1stream__n_1_1noexcept__stream.html" target="_top" xlink:title=" ">
<polygon fill="white" stroke="#666666" points="100,-228 0,-228 0,-198 100,-198 100,-228"/>
<text text-anchor="start" x="8" y="-216" font-family="Helvetica,sans-Serif" font-size="10.00">elc::defs::stream_n</text>
<text text-anchor="middle" x="50" y="-205" font-family="Helvetica,sans-Serif" font-size="10.00">::noexcept_stream</text>
</a>
</g>
</g>
<!-- Node4&#45;&gt;Node5 -->
<g id="edge5" class="edge">
<title>Node4&#45;&gt;Node5</title>
<path fill="none" stroke="#63b8ff" d="M89.06,-256.37C80.48,-247.06 70.69,-236.44 63.06,-228.16"/>
<polygon fill="#63b8ff" stroke="#63b8ff" points="86.55,-258.82 95.91,-263.8 91.7,-254.07 86.55,-258.82"/>
</g>
<!-- Node5&#45;&gt;Node2 -->
<g id="edge4" class="edge">
<title>Node5&#45;&gt;Node2</title>
<path fill="none" stroke="#63b8ff" d="M50,-187.54C50,-178.96 50,-169.61 50,-162.16"/>
<polygon fill="#63b8ff" stroke="#63b8ff" points="46.5,-187.8 50,-197.8 53.5,-187.8 46.5,-187.8"/>
</g>
<!-- Node6&#45;&gt;Node1 -->
<g id="edge6" class="edge">
<title>Node6&#45;&gt;Node1</title>
<path fill="none" stroke="#63b8ff" d="M148.06,-124.37C139.48,-115.06 129.69,-104.44 122.06,-96.16"/>
<polygon fill="#63b8ff" stroke="#63b8ff" points="145.55,-126.82 154.91,-131.8 150.7,-122.07 145.55,-126.82"/>
</g>
</g>
</svg>
