<?xml version="1.0" encoding="UTF-8" standalone="no"?>
<!DOCTYPE svg PUBLIC "-//W3C//DTD SVG 1.1//EN"
 "http://www.w3.org/Graphics/SVG/1.1/DTD/svg11.dtd">
<!-- Generated by graphviz version 6.0.1 (20220911.1526)
 -->
<!-- Title: elc::defs::base::non_copyable Pages: 1 -->
<svg width="606pt" height="517pt"
 viewBox="0.00 0.00 606.00 516.50" xmlns="http://www.w3.org/2000/svg" xmlns:xlink="http://www.w3.org/1999/xlink">
<g id="graph0" class="graph" transform="scale(1 1) rotate(0) translate(4 512.5)">
<title>elc::defs::base::non_copyable</title>
<!-- Node1 -->
<g id="node1" class="node">
<title>Node1</title>
<g id="a_node1"><a xlink:title=" ">
<polygon fill="#999999" stroke="#666666" points="250,-277.5 148,-277.5 148,-247.5 250,-247.5 250,-277.5"/>
<text text-anchor="start" x="156" y="-265.5" font-family="Helvetica,sans-Serif" font-size="10.00">elc::defs::base::non</text>
<text text-anchor="middle" x="199" y="-254.5" font-family="Helvetica,sans-Serif" font-size="10.00">_copyable</text>
</a>
</g>
</g>
<!-- Node4 -->
<g id="node4" class="node">
<title>Node4</title>
<g id="a_node4"><a xlink:href="structelc_1_1defs_1_1base_1_1cons__t.html" target="_top" xlink:title=" ">
<polygon fill="white" stroke="#666666" points="415.5,-508.5 294.5,-508.5 294.5,-478.5 415.5,-478.5 415.5,-508.5"/>
<text text-anchor="start" x="302.5" y="-496.5" font-family="Helvetica,sans-Serif" font-size="10.00">elc::defs::base::cons</text>
<text text-anchor="middle" x="355" y="-485.5" font-family="Helvetica,sans-Serif" font-size="10.00">_t&lt; can_map_all&lt; T &gt; &gt;</text>
</a>
</g>
</g>
<!-- Node1&#45;&gt;Node4 -->
<g id="edge3" class="edge">
<title>Node1&#45;&gt;Node4</title>
<path fill="none" stroke="#63b8ff" d="M203.67,-287.55C211.28,-330.65 232.73,-419.05 286,-469.5 289.64,-472.94 293.8,-475.9 298.23,-478.43"/>
<polygon fill="#63b8ff" stroke="#63b8ff" points="207.11,-286.91 202.03,-277.62 200.21,-288.06 207.11,-286.91"/>
</g>
<!-- Node6 -->
<g id="node6" class="node">
<title>Node6</title>
<g id="a_node6"><a xlink:href="structelc_1_1defs_1_1base_1_1cons__t.html" target="_top" xlink:title=" ">
<polygon fill="white" stroke="#666666" points="420,-460 290,-460 290,-419 420,-419 420,-460"/>
<text text-anchor="start" x="298" y="-448" font-family="Helvetica,sans-Serif" font-size="10.00">elc::defs::base::cons</text>
<text text-anchor="start" x="298" y="-437" font-family="Helvetica,sans-Serif" font-size="10.00">_t&lt; elc::defs::memory</text>
<text text-anchor="middle" x="355" y="-426" font-family="Helvetica,sans-Serif" font-size="10.00">::others_n::can_map_all &gt;</text>
</a>
</g>
</g>
<!-- Node1&#45;&gt;Node6 -->
<g id="edge5" class="edge">
<title>Node1&#45;&gt;Node6</title>
<path fill="none" stroke="#63b8ff" d="M208.97,-287.46C221.63,-319.55 247.58,-375.22 286,-409.5 289.85,-412.94 294.16,-416.03 298.69,-418.81"/>
<polygon fill="#63b8ff" stroke="#63b8ff" points="212.16,-286.02 205.33,-277.92 205.63,-288.51 212.16,-286.02"/>
</g>
<!-- Node7 -->
<g id="node7" class="node">
<title>Node7</title>
<g id="a_node7"><a xlink:href="structelc_1_1defs_1_1base_1_1cons__t.html" target="_top" xlink:title=" ">
<polygon fill="white" stroke="#666666" points="408.5,-400.5 301.5,-400.5 301.5,-370.5 408.5,-370.5 408.5,-400.5"/>
<text text-anchor="start" x="309.5" y="-388.5" font-family="Helvetica,sans-Serif" font-size="10.00">elc::defs::base::cons</text>
<text text-anchor="middle" x="355" y="-377.5" font-family="Helvetica,sans-Serif" font-size="10.00">_t&lt; T &gt;</text>
</a>
</g>
</g>
<!-- Node1&#45;&gt;Node7 -->
<g id="edge6" class="edge">
<title>Node1&#45;&gt;Node7</title>
<path fill="none" stroke="#63b8ff" d="M215.28,-286.31C230.69,-308.58 256.39,-341.35 286,-361.5 290.97,-364.88 296.46,-367.84 302.12,-370.41"/>
<polygon fill="#63b8ff" stroke="#63b8ff" points="218.01,-284.09 209.52,-277.76 212.21,-288.01 218.01,-284.09"/>
</g>
<!-- Node8 -->
<g id="node8" class="node">
<title>Node8</title>
<g id="a_node8"><a xlink:href="structelc_1_1defs_1_1base_1_1data__block.html" target="_top" xlink:title=" ">
<polygon fill="white" stroke="#666666" points="407.5,-352.5 302.5,-352.5 302.5,-322.5 407.5,-322.5 407.5,-352.5"/>
<text text-anchor="start" x="310.5" y="-340.5" font-family="Helvetica,sans-Serif" font-size="10.00">elc::defs::base::data</text>
<text text-anchor="middle" x="355" y="-329.5" font-family="Helvetica,sans-Serif" font-size="10.00">_block&lt; Ts &gt;</text>
</a>
</g>
</g>
<!-- Node1&#45;&gt;Node8 -->
<g id="edge7" class="edge">
<title>Node1&#45;&gt;Node8</title>
<path fill="none" stroke="#63b8ff" d="M231.57,-283.24C247.49,-293.18 267.33,-304.77 286,-313.5 292.8,-316.68 300.16,-319.69 307.42,-322.43"/>
<polygon fill="#63b8ff" stroke="#63b8ff" points="233.01,-280.01 222.69,-277.62 229.27,-285.93 233.01,-280.01"/>
</g>
<!-- Node9 -->
<g id="node9" class="node">
<title>Node9</title>
<g id="a_node9"><a xlink:href="classelc_1_1defs_1_1base_1_1mark__able.html" target="_top" xlink:title=" ">
<polygon fill="white" stroke="#666666" points="409,-304.5 301,-304.5 301,-274.5 409,-274.5 409,-304.5"/>
<text text-anchor="start" x="309" y="-292.5" font-family="Helvetica,sans-Serif" font-size="10.00">elc::defs::base::mark</text>
<text text-anchor="middle" x="355" y="-281.5" font-family="Helvetica,sans-Serif" font-size="10.00">_able&lt; T &gt;</text>
</a>
</g>
</g>
<!-- Node1&#45;&gt;Node9 -->
<g id="edge8" class="edge">
<title>Node1&#45;&gt;Node9</title>
<path fill="none" stroke="#8b1a1a" d="M260.45,-273.1C273.78,-275.44 287.8,-277.89 300.81,-280.18"/>
<polygon fill="#8b1a1a" stroke="#8b1a1a" points="260.88,-269.62 250.43,-271.34 259.67,-276.52 260.88,-269.62"/>
</g>
<!-- Node11 -->
<g id="node11" class="node">
<title>Node11</title>
<g id="a_node11"><a xlink:href="classelc_1_1defs_1_1container_1_1stack__n_1_1base__stack__t.html" target="_top" xlink:title=" ">
<polygon fill="white" stroke="#666666" points="411.5,-256 298.5,-256 298.5,-215 411.5,-215 411.5,-256"/>
<text text-anchor="start" x="306.5" y="-244" font-family="Helvetica,sans-Serif" font-size="10.00">elc::defs::container</text>
<text text-anchor="start" x="306.5" y="-233" font-family="Helvetica,sans-Serif" font-size="10.00">::stack_n::base_stack</text>
<text text-anchor="middle" x="355" y="-222" font-family="Helvetica,sans-Serif" font-size="10.00">_t&lt; T &gt;</text>
</a>
</g>
</g>
<!-- Node1&#45;&gt;Node11 -->
<g id="edge10" class="edge">
<title>Node1&#45;&gt;Node11</title>
<path fill="none" stroke="#8b1a1a" d="M260.33,-251.92C272.87,-249.72 286.04,-247.42 298.41,-245.25"/>
<polygon fill="#8b1a1a" stroke="#8b1a1a" points="259.67,-248.48 250.43,-253.66 260.88,-255.38 259.67,-248.48"/>
</g>
<!-- Node13 -->
<g id="node13" class="node">
<title>Node13</title>
<g id="a_node13"><a xlink:href="structelc_1_1defs_1_1memory_1_1others__n_1_1replace__able.html" target="_top" xlink:title=" ">
<polygon fill="white" stroke="#666666" points="424,-196.5 286,-196.5 286,-166.5 424,-166.5 424,-196.5"/>
<text text-anchor="start" x="294" y="-184.5" font-family="Helvetica,sans-Serif" font-size="10.00">elc::defs::memory::</text>
<text text-anchor="middle" x="355" y="-173.5" font-family="Helvetica,sans-Serif" font-size="10.00">others_n::replace_able&lt; T &gt;</text>
</a>
</g>
</g>
<!-- Node1&#45;&gt;Node13 -->
<g id="edge12" class="edge">
<title>Node1&#45;&gt;Node13</title>
<path fill="none" stroke="#63b8ff" d="M228.16,-241.27C244.46,-229.66 265.71,-215.61 286,-205.5 292.5,-202.26 299.54,-199.26 306.55,-196.55"/>
<polygon fill="#63b8ff" stroke="#63b8ff" points="225.7,-238.74 219.65,-247.44 229.81,-244.41 225.7,-238.74"/>
</g>
<!-- Node14 -->
<g id="node14" class="node">
<title>Node14</title>
<g id="a_node14"><a xlink:href="classelc_1_1defs_1_1memory_1_1ptr__n_1_1ref__t.html" target="_top" xlink:title=" ">
<polygon fill="white" stroke="#666666" points="405.5,-148.5 304.5,-148.5 304.5,-118.5 405.5,-118.5 405.5,-148.5"/>
<text text-anchor="start" x="312.5" y="-136.5" font-family="Helvetica,sans-Serif" font-size="10.00">elc::defs::memory::</text>
<text text-anchor="middle" x="355" y="-125.5" font-family="Helvetica,sans-Serif" font-size="10.00">ptr_n::ref_t</text>
</a>
</g>
</g>
<!-- Node1&#45;&gt;Node14 -->
<g id="edge13" class="edge">
<title>Node1&#45;&gt;Node14</title>
<path fill="none" stroke="#8b1a1a" d="M214,-238.71C229.04,-215.06 255.01,-179.25 286,-157.5 291.64,-153.54 297.99,-150.18 304.49,-147.34"/>
<polygon fill="#8b1a1a" stroke="#8b1a1a" points="210.89,-237.08 208.6,-247.43 216.85,-240.77 210.89,-237.08"/>
</g>
<!-- Node17 -->
<g id="node17" class="node">
<title>Node17</title>
<g id="a_node17"><a xlink:href="classelc_1_1defs_1_1string__n_1_1string__t_1_1arec__t.html" target="_top" xlink:title=" ">
<polygon fill="white" stroke="#666666" points="406,-100 304,-100 304,-59 406,-59 406,-100"/>
<text text-anchor="start" x="312" y="-88" font-family="Helvetica,sans-Serif" font-size="10.00">elc::defs::string_n</text>
<text text-anchor="start" x="312" y="-77" font-family="Helvetica,sans-Serif" font-size="10.00">::string_t&lt; char_T &gt;</text>
<text text-anchor="middle" x="355" y="-66" font-family="Helvetica,sans-Serif" font-size="10.00">::arec_t</text>
</a>
</g>
</g>
<!-- Node1&#45;&gt;Node17 -->
<g id="edge16" class="edge">
<title>Node1&#45;&gt;Node17</title>
<path fill="none" stroke="#8b1a1a" d="M208.32,-237.55C220.55,-204.32 246.3,-145.54 286,-109.5 291.25,-104.73 297.39,-100.62 303.79,-97.12"/>
<polygon fill="#8b1a1a" stroke="#8b1a1a" points="204.88,-236.79 204.83,-247.38 211.47,-239.13 204.88,-236.79"/>
</g>
<!-- Node18 -->
<g id="node18" class="node">
<title>Node18</title>
<g id="a_node18"><a xlink:href="classelc_1_1defs_1_1string__n_1_1string__t_1_1floating__arec__t.html" target="_top" xlink:title=" ">
<polygon fill="white" stroke="#666666" points="406,-41 304,-41 304,0 406,0 406,-41"/>
<text text-anchor="start" x="312" y="-29" font-family="Helvetica,sans-Serif" font-size="10.00">elc::defs::string_n</text>
<text text-anchor="start" x="312" y="-18" font-family="Helvetica,sans-Serif" font-size="10.00">::string_t&lt; char_T &gt;</text>
<text text-anchor="middle" x="355" y="-7" font-family="Helvetica,sans-Serif" font-size="10.00">::floating_arec_t</text>
</a>
</g>
</g>
<!-- Node1&#45;&gt;Node18 -->
<g id="edge17" class="edge">
<title>Node1&#45;&gt;Node18</title>
<path fill="none" stroke="#8b1a1a" d="M203.75,-237.41C211.5,-193.75 233.23,-103.31 286,-49.5 291.12,-44.28 297.34,-39.94 303.9,-36.36"/>
<polygon fill="#8b1a1a" stroke="#8b1a1a" points="200.26,-237.02 202.06,-247.46 207.17,-238.17 200.26,-237.02"/>
</g>
<!-- Node2 -->
<g id="node2" class="node">
<title>Node2</title>
<g id="a_node2"><a xlink:href="structelc_1_1defs_1_1base_1_1non__copy__assign__able.html" target="_top" xlink:title=" ">
<polygon fill="white" stroke="#666666" points="107,-301.5 5,-301.5 5,-271.5 107,-271.5 107,-301.5"/>
<text text-anchor="start" x="13" y="-289.5" font-family="Helvetica,sans-Serif" font-size="10.00">elc::defs::base::non</text>
<text text-anchor="middle" x="56" y="-278.5" font-family="Helvetica,sans-Serif" font-size="10.00">_copy_assign_able</text>
</a>
</g>
</g>
<!-- Node2&#45;&gt;Node1 -->
<g id="edge1" class="edge">
<title>Node2&#45;&gt;Node1</title>
<path fill="none" stroke="#63b8ff" d="M117.12,-276.27C127.27,-274.54 137.71,-272.76 147.58,-271.08"/>
<polygon fill="#63b8ff" stroke="#63b8ff" points="116.38,-272.84 107.11,-277.97 117.55,-279.74 116.38,-272.84"/>
</g>
<!-- Node3 -->
<g id="node3" class="node">
<title>Node3</title>
<g id="a_node3"><a xlink:href="structelc_1_1defs_1_1base_1_1non__copy__construct__able.html" target="_top" xlink:title=" ">
<polygon fill="white" stroke="#666666" points="112,-253.5 0,-253.5 0,-223.5 112,-223.5 112,-253.5"/>
<text text-anchor="start" x="8" y="-241.5" font-family="Helvetica,sans-Serif" font-size="10.00">elc::defs::base::non</text>
<text text-anchor="middle" x="56" y="-230.5" font-family="Helvetica,sans-Serif" font-size="10.00">_copy_construct_able</text>
</a>
</g>
</g>
<!-- Node3&#45;&gt;Node1 -->
<g id="edge2" class="edge">
<title>Node3&#45;&gt;Node1</title>
<path fill="none" stroke="#63b8ff" d="M122.33,-249.62C130.91,-251.08 139.6,-252.56 147.89,-253.97"/>
<polygon fill="#63b8ff" stroke="#63b8ff" points="122.77,-246.14 112.32,-247.92 121.59,-253.05 122.77,-246.14"/>
</g>
<!-- Node5 -->
<g id="node5" class="node">
<title>Node5</title>
<g id="a_node5"><a xlink:href="structelc_1_1defs_1_1memory_1_1others__n_1_1can__map__all.html" target="_top" xlink:title=" ">
<polygon fill="white" stroke="#666666" points="598,-508.5 460,-508.5 460,-478.5 598,-478.5 598,-508.5"/>
<text text-anchor="start" x="468" y="-496.5" font-family="Helvetica,sans-Serif" font-size="10.00">elc::defs::memory::</text>
<text text-anchor="middle" x="529" y="-485.5" font-family="Helvetica,sans-Serif" font-size="10.00">others_n::can_map_all&lt; T &gt;</text>
</a>
</g>
</g>
<!-- Node4&#45;&gt;Node5 -->
<g id="edge4" class="edge">
<title>Node4&#45;&gt;Node5</title>
<path fill="none" stroke="#63b8ff" d="M425.86,-493.5C437.08,-493.5 448.69,-493.5 459.88,-493.5"/>
<polygon fill="#63b8ff" stroke="#63b8ff" points="425.67,-490 415.67,-493.5 425.67,-497 425.67,-490"/>
</g>
<!-- Node10 -->
<g id="node10" class="node">
<title>Node10</title>
<g id="a_node10"><a xlink:href="structelc_1_1defs_1_1memory_1_1gc__n_1_1mark__able__for__gc.html" target="_top" xlink:title=" ">
<polygon fill="white" stroke="#666666" points="581,-312 477,-312 477,-271 581,-271 581,-312"/>
<text text-anchor="start" x="485" y="-300" font-family="Helvetica,sans-Serif" font-size="10.00">elc::defs::memory::</text>
<text text-anchor="start" x="485" y="-289" font-family="Helvetica,sans-Serif" font-size="10.00">gc_n::mark_able_for</text>
<text text-anchor="middle" x="529" y="-278" font-family="Helvetica,sans-Serif" font-size="10.00">_gc&lt; T &gt;</text>
</a>
</g>
</g>
<!-- Node9&#45;&gt;Node10 -->
<g id="edge9" class="edge">
<title>Node9&#45;&gt;Node10</title>
<path fill="none" stroke="#63b8ff" d="M419.09,-290.23C438.13,-290.46 458.78,-290.7 476.93,-290.91"/>
<polygon fill="#63b8ff" stroke="#63b8ff" points="419.05,-286.73 409.01,-290.12 418.97,-293.73 419.05,-286.73"/>
</g>
<!-- Node12 -->
<g id="node12" class="node">
<title>Node12</title>
<g id="a_node12"><a xlink:href="structelc_1_1defs_1_1container_1_1stack__n_1_1auto__stack__t.html" target="_top" xlink:title=" ">
<polygon fill="white" stroke="#666666" points="584.5,-253 473.5,-253 473.5,-212 584.5,-212 584.5,-253"/>
<text text-anchor="start" x="481.5" y="-241" font-family="Helvetica,sans-Serif" font-size="10.00">elc::defs::container</text>
<text text-anchor="start" x="481.5" y="-230" font-family="Helvetica,sans-Serif" font-size="10.00">::stack_n::auto_stack</text>
<text text-anchor="middle" x="529" y="-219" font-family="Helvetica,sans-Serif" font-size="10.00">_t&lt; T &gt;</text>
</a>
</g>
</g>
<!-- Node11&#45;&gt;Node12 -->
<g id="edge11" class="edge">
<title>Node11&#45;&gt;Node12</title>
<path fill="none" stroke="#63b8ff" d="M422.2,-234.35C439.1,-234.05 457.07,-233.74 473.32,-233.45"/>
<polygon fill="#63b8ff" stroke="#63b8ff" points="421.78,-230.85 411.84,-234.53 421.9,-237.85 421.78,-230.85"/>
</g>
<!-- Node15 -->
<g id="node15" class="node">
<title>Node15</title>
<g id="a_node15"><a xlink:href="classelc_1_1defs_1_1memory_1_1ptr__n_1_1ref__able.html" target="_top" xlink:title=" ">
<polygon fill="white" stroke="#666666" points="579.5,-169.5 478.5,-169.5 478.5,-139.5 579.5,-139.5 579.5,-169.5"/>
<text text-anchor="start" x="486.5" y="-157.5" font-family="Helvetica,sans-Serif" font-size="10.00">elc::defs::memory::</text>
<text text-anchor="middle" x="529" y="-146.5" font-family="Helvetica,sans-Serif" font-size="10.00">ptr_n::ref_able&lt; T &gt;</text>
</a>
</g>
</g>
<!-- Node14&#45;&gt;Node15 -->
<g id="edge14" class="edge">
<title>Node14&#45;&gt;Node15</title>
<path fill="none" stroke="#63b8ff" d="M415.88,-140.81C436.28,-143.3 458.85,-146.06 478.36,-148.44"/>
<polygon fill="#63b8ff" stroke="#63b8ff" points="416.1,-137.31 405.75,-139.57 415.25,-144.26 416.1,-137.31"/>
</g>
<!-- Node16 -->
<g id="node16" class="node">
<title>Node16</title>
<g id="a_node16"><a xlink:href="classelc_1_1defs_1_1memory_1_1ptr__n_1_1weak__ref__able.html" target="_top" xlink:title=" ">
<polygon fill="white" stroke="#666666" points="593.5,-121.5 464.5,-121.5 464.5,-91.5 593.5,-91.5 593.5,-121.5"/>
<text text-anchor="start" x="472.5" y="-109.5" font-family="Helvetica,sans-Serif" font-size="10.00">elc::defs::memory::</text>
<text text-anchor="middle" x="529" y="-98.5" font-family="Helvetica,sans-Serif" font-size="10.00">ptr_n::weak_ref_able&lt; T &gt;</text>
</a>
</g>
</g>
<!-- Node14&#45;&gt;Node16 -->
<g id="edge15" class="edge">
<title>Node14&#45;&gt;Node16</title>
<path fill="none" stroke="#63b8ff" d="M415.82,-124.11C431.47,-121.65 448.4,-119 464.24,-116.51"/>
<polygon fill="#63b8ff" stroke="#63b8ff" points="415.09,-120.68 405.75,-125.69 416.17,-127.6 415.09,-120.68"/>
</g>
</g>
</svg>
