<?xml version="1.0" encoding="UTF-8" standalone="no"?>
<!DOCTYPE svg PUBLIC "-//W3C//DTD SVG 1.1//EN"
 "http://www.w3.org/Graphics/SVG/1.1/DTD/svg11.dtd">
<!-- Generated by graphviz version 6.0.1 (20220911.1526)
 -->
<!-- Title: elc::defs::base::logical_bool::logical_bool Pages: 1 -->
<svg width="252pt" height="86pt"
 viewBox="0.00 0.00 252.00 86.00" xmlns="http://www.w3.org/2000/svg" xmlns:xlink="http://www.w3.org/1999/xlink">
<g id="graph0" class="graph" transform="scale(1 1) rotate(0) translate(4 82)">
<title>elc::defs::base::logical_bool::logical_bool</title>
<!-- Node1 -->
<g id="node1" class="node">
<title>Node1</title>
<g id="a_node1"><a xlink:title=" ">
<polygon fill="#999999" stroke="#666666" points="244,-54 130,-54 130,-24 244,-24 244,-54"/>
<text text-anchor="start" x="138" y="-42" font-family="Helvetica,sans-Serif" font-size="10.00">elc::defs::base::logical</text>
<text text-anchor="middle" x="187" y="-31" font-family="Helvetica,sans-Serif" font-size="10.00">_bool::logical_bool</text>
</a>
</g>
</g>
<!-- Node2 -->
<g id="node2" class="node">
<title>Node2</title>
<g id="a_node2"><a xlink:href="structelc_1_1defs_1_1core_1_1nil__t.html#aa100ceda79ad0d5ce793c0487e0658ca" target="_top" xlink:title=" ">
<polygon fill="white" stroke="#666666" points="94,-78 0,-78 0,-48 94,-48 94,-78"/>
<text text-anchor="start" x="8" y="-66" font-family="Helvetica,sans-Serif" font-size="10.00">elc::defs::core::nil</text>
<text text-anchor="middle" x="47" y="-55" font-family="Helvetica,sans-Serif" font-size="10.00">_t::equal_with</text>
</a>
</g>
</g>
<!-- Node1&#45;&gt;Node2 -->
<g id="edge1" class="edge">
<title>Node1&#45;&gt;Node2</title>
<path fill="none" stroke="#63b8ff" d="M119.83,-50.51C111.23,-52 102.57,-53.51 94.38,-54.93"/>
<polygon fill="#63b8ff" stroke="#63b8ff" points="120.62,-53.92 129.87,-48.76 119.42,-47.03 120.62,-53.92"/>
</g>
<!-- Node3 -->
<g id="node3" class="node">
<title>Node3</title>
<g id="a_node3"><a xlink:href="structelc_1_1defs_1_1core_1_1t__t.html#ab4847b28d892d96d0495fceac9cdd226" target="_top" xlink:title=" ">
<polygon fill="white" stroke="#666666" points="90.5,-30 3.5,-30 3.5,0 90.5,0 90.5,-30"/>
<text text-anchor="start" x="11.5" y="-18" font-family="Helvetica,sans-Serif" font-size="10.00">elc::defs::core::t</text>
<text text-anchor="middle" x="47" y="-7" font-family="Helvetica,sans-Serif" font-size="10.00">_t::equal_with</text>
</a>
</g>
</g>
<!-- Node1&#45;&gt;Node3 -->
<g id="edge2" class="edge">
<title>Node1&#45;&gt;Node3</title>
<path fill="none" stroke="#63b8ff" d="M119.93,-27.51C109.93,-25.77 99.85,-24.02 90.53,-22.4"/>
<polygon fill="#63b8ff" stroke="#63b8ff" points="119.42,-30.97 129.87,-29.24 120.62,-24.08 119.42,-30.97"/>
</g>
</g>
</svg>
