<?xml version="1.0" encoding="UTF-8" standalone="no"?>
<!DOCTYPE svg PUBLIC "-//W3C//DTD SVG 1.1//EN"
 "http://www.w3.org/Graphics/SVG/1.1/DTD/svg11.dtd">
<!-- Generated by graphviz version 6.0.1 (20220911.1526)
 -->
<!-- Title: elc::defs::container::function_n::default_func_data_t&lt; Ret_t(Args_t...)&gt; Pages: 1 -->
<svg width="483pt" height="151pt"
 viewBox="0.00 0.00 483.00 151.00" xmlns="http://www.w3.org/2000/svg" xmlns:xlink="http://www.w3.org/1999/xlink">
<g id="graph0" class="graph" transform="scale(1 1) rotate(0) translate(4 147)">
<title>elc::defs::container::function_n::default_func_data_t&lt; Ret_t(Args_t...)&gt;</title>
<!-- Node1 -->
<g id="node1" class="node">
<title>Node1</title>
<g id="a_node1"><a xlink:title=" ">
<polygon fill="#999999" stroke="#666666" points="475,-75.5 347,-75.5 347,-23.5 475,-23.5 475,-75.5"/>
<text text-anchor="start" x="355" y="-63.5" font-family="Helvetica,sans-Serif" font-size="10.00">elc::defs::container</text>
<text text-anchor="start" x="355" y="-52.5" font-family="Helvetica,sans-Serif" font-size="10.00">::function_n::default</text>
<text text-anchor="start" x="355" y="-41.5" font-family="Helvetica,sans-Serif" font-size="10.00">_func_data_t&lt; Ret_t(Args</text>
<text text-anchor="middle" x="411" y="-30.5" font-family="Helvetica,sans-Serif" font-size="10.00">_t...)&gt;</text>
</a>
</g>
</g>
<!-- Node2 -->
<g id="node2" class="node">
<title>Node2</title>
<g id="a_node2"><a xlink:href="structelc_1_1defs_1_1container_1_1function__n_1_1base__func__data__t_3_01_ret__t_07_args__t_8_8_8_08_4.html" target="_top" xlink:title=" ">
<polygon fill="white" stroke="#666666" points="311,-100 180,-100 180,-59 311,-59 311,-100"/>
<text text-anchor="start" x="188" y="-88" font-family="Helvetica,sans-Serif" font-size="10.00">elc::defs::container</text>
<text text-anchor="start" x="188" y="-77" font-family="Helvetica,sans-Serif" font-size="10.00">::function_n::base_func</text>
<text text-anchor="middle" x="245.5" y="-66" font-family="Helvetica,sans-Serif" font-size="10.00">_data_t&lt; Ret_t(Args_t...)&gt;</text>
</a>
</g>
</g>
<!-- Node2&#45;&gt;Node1 -->
<g id="edge1" class="edge">
<title>Node2&#45;&gt;Node1</title>
<path fill="none" stroke="#63b8ff" d="M321.16,-65.8C329.77,-64.22 338.48,-62.62 346.92,-61.07"/>
<polygon fill="#63b8ff" stroke="#63b8ff" points="320.32,-62.4 311.12,-67.64 321.59,-69.28 320.32,-62.4"/>
</g>
<!-- Node3 -->
<g id="node3" class="node">
<title>Node3</title>
<g id="a_node3"><a xlink:title=" ">
<polygon fill="white" stroke="#666666" points="144,-143 0,-143 0,-80 144,-80 144,-143"/>
<text text-anchor="start" x="8" y="-131" font-family="Helvetica,sans-Serif" font-size="10.00">type_info_t&lt; base_func</text>
<text text-anchor="start" x="8" y="-120" font-family="Helvetica,sans-Serif" font-size="10.00">_data_t&lt; Ret_t(Args_t...)</text>
<text text-anchor="start" x="8" y="-109" font-family="Helvetica,sans-Serif" font-size="10.00">&gt; &gt;:: template &#160;with_common</text>
<text text-anchor="start" x="8" y="-98" font-family="Helvetica,sans-Serif" font-size="10.00">_attribute&lt; abstract_base,</text>
<text text-anchor="middle" x="72" y="-87" font-family="Helvetica,sans-Serif" font-size="10.00"> ref_able, never_in_array &gt;</text>
</a>
</g>
</g>
<!-- Node3&#45;&gt;Node2 -->
<g id="edge2" class="edge">
<title>Node3&#45;&gt;Node2</title>
<path fill="none" stroke="#63b8ff" d="M154.25,-96.34C162.82,-94.74 171.44,-93.13 179.79,-91.58"/>
<polygon fill="#63b8ff" stroke="#63b8ff" points="153.43,-92.93 144.24,-98.21 154.71,-99.81 153.43,-92.93"/>
</g>
<!-- Node4 -->
<g id="node4" class="node">
<title>Node4</title>
<g id="a_node4"><a xlink:href="classelc_1_1defs_1_1base_1_1build__by__get__only.html" target="_top" xlink:title=" ">
<polygon fill="white" stroke="#666666" points="125.5,-61.5 18.5,-61.5 18.5,-31.5 125.5,-31.5 125.5,-61.5"/>
<text text-anchor="start" x="26.5" y="-49.5" font-family="Helvetica,sans-Serif" font-size="10.00">elc::defs::base::build</text>
<text text-anchor="middle" x="72" y="-38.5" font-family="Helvetica,sans-Serif" font-size="10.00">_by_get_only</text>
</a>
</g>
</g>
<!-- Node4&#45;&gt;Node2 -->
<g id="edge3" class="edge">
<title>Node4&#45;&gt;Node2</title>
<path fill="none" stroke="#63b8ff" d="M136.04,-58.63C150.28,-61.37 165.42,-64.28 179.73,-67.04"/>
<polygon fill="#63b8ff" stroke="#63b8ff" points="136.34,-55.12 125.86,-56.67 135.01,-62 136.34,-55.12"/>
</g>
<!-- Node5 -->
<g id="node5" class="node">
<title>Node5</title>
<g id="a_node5"><a xlink:title=" ">
<polygon fill="white" stroke="#666666" points="309.5,-41 181.5,-41 181.5,0 309.5,0 309.5,-41"/>
<text text-anchor="start" x="189.5" y="-29" font-family="Helvetica,sans-Serif" font-size="10.00">instance_struct&lt; default</text>
<text text-anchor="start" x="189.5" y="-18" font-family="Helvetica,sans-Serif" font-size="10.00">_func_data_t&lt; Ret_t(Args</text>
<text text-anchor="middle" x="245.5" y="-7" font-family="Helvetica,sans-Serif" font-size="10.00">_t...)&gt; &gt;</text>
</a>
</g>
</g>
<!-- Node5&#45;&gt;Node1 -->
<g id="edge4" class="edge">
<title>Node5&#45;&gt;Node1</title>
<path fill="none" stroke="#63b8ff" d="M319.85,-33.51C328.89,-35.11 338.08,-36.74 346.95,-38.32"/>
<polygon fill="#63b8ff" stroke="#63b8ff" points="320.17,-30.01 309.71,-31.71 318.95,-36.9 320.17,-30.01"/>
</g>
</g>
</svg>
