<?xml version="1.0" encoding="UTF-8" standalone="no"?>
<!DOCTYPE svg PUBLIC "-//W3C//DTD SVG 1.1//EN"
 "http://www.w3.org/Graphics/SVG/1.1/DTD/svg11.dtd">
<!-- Generated by graphviz version 6.0.1 (20220911.1526)
 -->
<!-- Title: elc::defs::string_n::string_data_n::constexpr_string_data_t::constexpr_string_data_t Pages: 1 -->
<svg width="305pt" height="108pt"
 viewBox="0.00 0.00 305.00 108.00" xmlns="http://www.w3.org/2000/svg" xmlns:xlink="http://www.w3.org/1999/xlink">
<g id="graph0" class="graph" transform="scale(1 1) rotate(0) translate(4 104)">
<title>elc::defs::string_n::string_data_n::constexpr_string_data_t::constexpr_string_data_t</title>
<!-- Node1 -->
<g id="node1" class="node">
<title>Node1</title>
<g id="a_node1"><a xlink:title=" ">
<polygon fill="#999999" stroke="#666666" points="130,-75.5 0,-75.5 0,-23.5 130,-23.5 130,-75.5"/>
<text text-anchor="start" x="8" y="-63.5" font-family="Helvetica,sans-Serif" font-size="10.00">elc::defs::string_n</text>
<text text-anchor="start" x="8" y="-52.5" font-family="Helvetica,sans-Serif" font-size="10.00">::string_data_n::constexpr</text>
<text text-anchor="start" x="8" y="-41.5" font-family="Helvetica,sans-Serif" font-size="10.00">_string_data_t::constexpr</text>
<text text-anchor="middle" x="65" y="-30.5" font-family="Helvetica,sans-Serif" font-size="10.00">_string_data_t</text>
</a>
</g>
</g>
<!-- Node2 -->
<g id="node2" class="node">
<title>Node2</title>
<g id="a_node2"><a xlink:href="structelc_1_1defs_1_1base_1_1range__n_1_1match__pattern.html#adfad19f8ecdb5e27a20c9d3295cec59f" target="_top" xlink:title=" ">
<polygon fill="white" stroke="#666666" points="295.5,-100 167.5,-100 167.5,-59 295.5,-59 295.5,-100"/>
<text text-anchor="start" x="175.5" y="-88" font-family="Helvetica,sans-Serif" font-size="10.00">elc::defs::base::range</text>
<text text-anchor="start" x="175.5" y="-77" font-family="Helvetica,sans-Serif" font-size="10.00">_n::match_pattern::match</text>
<text text-anchor="middle" x="231.5" y="-66" font-family="Helvetica,sans-Serif" font-size="10.00">_pattern</text>
</a>
</g>
</g>
<!-- Node1&#45;&gt;Node2 -->
<g id="edge1" class="edge">
<title>Node1&#45;&gt;Node2</title>
<path fill="none" stroke="#63b8ff" d="M130.07,-61.18C139.08,-62.83 148.4,-64.53 157.56,-66.2"/>
<polygon fill="#63b8ff" stroke="#63b8ff" points="156.95,-69.64 167.41,-68 158.2,-62.76 156.95,-69.64"/>
</g>
<!-- Node3 -->
<g id="node3" class="node">
<title>Node3</title>
<g id="a_node3"><a xlink:href="structelc_1_1defs_1_1base_1_1range__n_1_1reverse__match__pattern.html#a4975e88929225b3b8f868362c78e1bb6" target="_top" xlink:title=" ">
<polygon fill="white" stroke="#666666" points="297,-41 166,-41 166,0 297,0 297,-41"/>
<text text-anchor="start" x="174" y="-29" font-family="Helvetica,sans-Serif" font-size="10.00">elc::defs::base::range</text>
<text text-anchor="start" x="174" y="-18" font-family="Helvetica,sans-Serif" font-size="10.00">_n::reverse_match_pattern</text>
<text text-anchor="middle" x="231.5" y="-7" font-family="Helvetica,sans-Serif" font-size="10.00">::reverse_match_pattern</text>
</a>
</g>
</g>
<!-- Node1&#45;&gt;Node3 -->
<g id="edge2" class="edge">
<title>Node1&#45;&gt;Node3</title>
<path fill="none" stroke="#63b8ff" d="M130.07,-38.2C138.5,-36.72 147.2,-35.19 155.78,-33.67"/>
<polygon fill="#63b8ff" stroke="#63b8ff" points="156.55,-37.09 165.79,-31.91 155.34,-30.2 156.55,-37.09"/>
</g>
</g>
</svg>
