<?xml version="1.0" encoding="UTF-8" standalone="no"?>
<!DOCTYPE svg PUBLIC "-//W3C//DTD SVG 1.1//EN"
 "http://www.w3.org/Graphics/SVG/1.1/DTD/svg11.dtd">
<!-- Generated by graphviz version 6.0.1 (20220911.1526)
 -->
<!-- Title: elc::defs::memory::others_n::replace_able::replaced Pages: 1 -->
<svg width="691pt" height="186pt"
 viewBox="0.00 0.00 691.00 185.50" xmlns="http://www.w3.org/2000/svg" xmlns:xlink="http://www.w3.org/1999/xlink">
<g id="graph0" class="graph" transform="scale(1 1) rotate(0) translate(4 181.5)">
<title>elc::defs::memory::others_n::replace_able::replaced</title>
<!-- Node1 -->
<g id="node1" class="node">
<title>Node1</title>
<g id="a_node1"><a xlink:title=" ">
<polygon fill="#999999" stroke="#666666" points="683,-100 568,-100 568,-59 683,-59 683,-100"/>
<text text-anchor="start" x="576" y="-88" font-family="Helvetica,sans-Serif" font-size="10.00">elc::defs::memory::</text>
<text text-anchor="start" x="576" y="-77" font-family="Helvetica,sans-Serif" font-size="10.00">others_n::replace_able</text>
<text text-anchor="middle" x="625.5" y="-66" font-family="Helvetica,sans-Serif" font-size="10.00">::replaced</text>
</a>
</g>
</g>
<!-- Node2 -->
<g id="node2" class="node">
<title>Node2</title>
<g id="a_node2"><a xlink:href="structelc_1_1defs_1_1memory_1_1others__n_1_1replace__able.html#a098536625acaf5d31620b07fe3221fff" target="_top" xlink:title=" ">
<polygon fill="white" stroke="#666666" points="532,-159 417,-159 417,-118 532,-118 532,-159"/>
<text text-anchor="start" x="425" y="-147" font-family="Helvetica,sans-Serif" font-size="10.00">elc::defs::memory::</text>
<text text-anchor="start" x="425" y="-136" font-family="Helvetica,sans-Serif" font-size="10.00">others_n::replace_able</text>
<text text-anchor="middle" x="474.5" y="-125" font-family="Helvetica,sans-Serif" font-size="10.00">::be_replace_as</text>
</a>
</g>
</g>
<!-- Node1&#45;&gt;Node2 -->
<g id="edge1" class="edge">
<title>Node1&#45;&gt;Node2</title>
<path fill="none" stroke="#63b8ff" d="M563,-103.85C551.15,-108.55 538.84,-113.42 527.33,-117.98"/>
<polygon fill="#63b8ff" stroke="#63b8ff" points="564.38,-107.07 572.39,-100.14 561.8,-100.56 564.38,-107.07"/>
</g>
<!-- Node7 -->
<g id="node7" class="node">
<title>Node7</title>
<g id="a_node7"><a xlink:href="structelc_1_1defs_1_1memory_1_1others__n_1_1replace__able.html#ae0241cbb5ed33548158dee200878a2b3" target="_top" xlink:title=" ">
<polygon fill="white" stroke="#666666" points="532,-100 417,-100 417,-59 532,-59 532,-100"/>
<text text-anchor="start" x="425" y="-88" font-family="Helvetica,sans-Serif" font-size="10.00">elc::defs::memory::</text>
<text text-anchor="start" x="425" y="-77" font-family="Helvetica,sans-Serif" font-size="10.00">others_n::replace_able</text>
<text text-anchor="middle" x="474.5" y="-66" font-family="Helvetica,sans-Serif" font-size="10.00">::get_ptr</text>
</a>
</g>
</g>
<!-- Node1&#45;&gt;Node7 -->
<g id="edge6" class="edge">
<title>Node1&#45;&gt;Node7</title>
<path fill="none" stroke="#63b8ff" d="M557.49,-79.5C549.01,-79.5 540.4,-79.5 532.1,-79.5"/>
<polygon fill="#63b8ff" stroke="#63b8ff" points="557.74,-83 567.74,-79.5 557.74,-76 557.74,-83"/>
</g>
<!-- Node8 -->
<g id="node8" class="node">
<title>Node8</title>
<g id="a_node8"><a xlink:href="structelc_1_1defs_1_1memory_1_1others__n_1_1replace__able.html#a77c44ea2a8bb3c116a084bb910282e18" target="_top" xlink:title=" ">
<polygon fill="white" stroke="#666666" points="532,-41 417,-41 417,0 532,0 532,-41"/>
<text text-anchor="start" x="425" y="-29" font-family="Helvetica,sans-Serif" font-size="10.00">elc::defs::memory::</text>
<text text-anchor="start" x="425" y="-18" font-family="Helvetica,sans-Serif" font-size="10.00">others_n::replace_able</text>
<text text-anchor="middle" x="474.5" y="-7" font-family="Helvetica,sans-Serif" font-size="10.00">::~replace_able</text>
</a>
</g>
</g>
<!-- Node1&#45;&gt;Node8 -->
<g id="edge7" class="edge">
<title>Node1&#45;&gt;Node8</title>
<path fill="none" stroke="#63b8ff" d="M563,-55.15C551.15,-50.45 538.84,-45.58 527.33,-41.02"/>
<polygon fill="#63b8ff" stroke="#63b8ff" points="561.8,-58.44 572.39,-58.86 564.38,-51.93 561.8,-58.44"/>
</g>
<!-- Node3 -->
<g id="node3" class="node">
<title>Node3</title>
<g id="a_node3"><a xlink:href="structelc_1_1defs_1_1core_1_1node__like.html#a772b69c7911dabdc464ae71efa6f6318" target="_top" xlink:title=" ">
<polygon fill="white" stroke="#666666" points="381,-153.5 275,-153.5 275,-123.5 381,-123.5 381,-153.5"/>
<text text-anchor="start" x="283" y="-141.5" font-family="Helvetica,sans-Serif" font-size="10.00">elc::defs::core::node</text>
<text text-anchor="middle" x="328" y="-130.5" font-family="Helvetica,sans-Serif" font-size="10.00">_like::be_replace_as</text>
</a>
</g>
</g>
<!-- Node2&#45;&gt;Node3 -->
<g id="edge2" class="edge">
<title>Node2&#45;&gt;Node3</title>
<path fill="none" stroke="#63b8ff" d="M406.55,-138.5C398.07,-138.5 389.49,-138.5 381.29,-138.5"/>
<polygon fill="#63b8ff" stroke="#63b8ff" points="406.8,-142 416.8,-138.5 406.8,-135 406.8,-142"/>
</g>
<!-- Node4 -->
<g id="node4" class="node">
<title>Node4</title>
<g id="a_node4"><a xlink:href="structelc_1_1defs_1_1core_1_1cons.html#a2ecac97973c620f052a65545c84efb8e" target="_top" xlink:title=" ">
<polygon fill="white" stroke="#666666" points="239,-177.5 134,-177.5 134,-147.5 239,-147.5 239,-177.5"/>
<text text-anchor="start" x="142" y="-165.5" font-family="Helvetica,sans-Serif" font-size="10.00">elc::defs::core::cons</text>
<text text-anchor="middle" x="186.5" y="-154.5" font-family="Helvetica,sans-Serif" font-size="10.00">::arec</text>
</a>
</g>
</g>
<!-- Node3&#45;&gt;Node4 -->
<g id="edge3" class="edge">
<title>Node3&#45;&gt;Node4</title>
<path fill="none" stroke="#63b8ff" d="M264.74,-149.21C256.21,-150.68 247.52,-152.17 239.21,-153.6"/>
<polygon fill="#63b8ff" stroke="#63b8ff" points="265.4,-152.65 274.66,-147.5 264.21,-145.75 265.4,-152.65"/>
</g>
<!-- Node5 -->
<g id="node5" class="node">
<title>Node5</title>
<g id="a_node5"><a xlink:href="structelc_1_1defs_1_1core_1_1node__like.html#a53e3ac38b813a6248a6687e60392ca64" target="_top" xlink:title=" ">
<polygon fill="white" stroke="#666666" points="239,-129.5 134,-129.5 134,-99.5 239,-99.5 239,-129.5"/>
<text text-anchor="start" x="142" y="-117.5" font-family="Helvetica,sans-Serif" font-size="10.00">elc::defs::core::node</text>
<text text-anchor="middle" x="186.5" y="-106.5" font-family="Helvetica,sans-Serif" font-size="10.00">_like::destroy</text>
</a>
</g>
</g>
<!-- Node3&#45;&gt;Node5 -->
<g id="edge4" class="edge">
<title>Node3&#45;&gt;Node5</title>
<path fill="none" stroke="#63b8ff" d="M264.74,-127.79C256.21,-126.32 247.52,-124.83 239.21,-123.4"/>
<polygon fill="#63b8ff" stroke="#63b8ff" points="264.21,-131.25 274.66,-129.5 265.4,-124.35 264.21,-131.25"/>
</g>
<!-- Node6 -->
<g id="node6" class="node">
<title>Node6</title>
<g id="a_node6"><a xlink:href="namespaceelc_1_1defs_1_1core.html#acffc812090610314e52fdecd03d4de28" target="_top" xlink:title=" ">
<polygon fill="white" stroke="#666666" points="98,-129.5 0,-129.5 0,-99.5 98,-99.5 98,-129.5"/>
<text text-anchor="start" x="8" y="-117.5" font-family="Helvetica,sans-Serif" font-size="10.00">elc::defs::core::the</text>
<text text-anchor="middle" x="49" y="-106.5" font-family="Helvetica,sans-Serif" font-size="10.00">_destroy</text>
</a>
</g>
</g>
<!-- Node5&#45;&gt;Node6 -->
<g id="edge5" class="edge">
<title>Node5&#45;&gt;Node6</title>
<path fill="none" stroke="#63b8ff" d="M123.64,-114.5C115.15,-114.5 106.54,-114.5 98.35,-114.5"/>
<polygon fill="#63b8ff" stroke="#63b8ff" points="123.89,-118 133.89,-114.5 123.89,-111 123.89,-118"/>
</g>
</g>
</svg>
