<?xml version="1.0" encoding="UTF-8" standalone="no"?>
<!DOCTYPE svg PUBLIC "-//W3C//DTD SVG 1.1//EN"
 "http://www.w3.org/Graphics/SVG/1.1/DTD/svg11.dtd">
<!-- Generated by graphviz version 6.0.1 (20220911.1526)
 -->
<!-- Title: elc::defs::memory::alloc_n::realloc_t::base_call Pages: 1 -->
<svg width="568pt" height="114pt"
 viewBox="0.00 0.00 568.00 114.00" xmlns="http://www.w3.org/2000/svg" xmlns:xlink="http://www.w3.org/1999/xlink">
<g id="graph0" class="graph" transform="scale(1 1) rotate(0) translate(4 110)">
<title>elc::defs::memory::alloc_n::realloc_t::base_call</title>
<!-- Node1 -->
<g id="node1" class="node">
<title>Node1</title>
<g id="a_node1"><a xlink:title=" ">
<polygon fill="#999999" stroke="#666666" points="101,-68 0,-68 0,-27 101,-27 101,-68"/>
<text text-anchor="start" x="8" y="-56" font-family="Helvetica,sans-Serif" font-size="10.00">elc::defs::memory::</text>
<text text-anchor="start" x="8" y="-45" font-family="Helvetica,sans-Serif" font-size="10.00">alloc_n::realloc_t::</text>
<text text-anchor="middle" x="50.5" y="-34" font-family="Helvetica,sans-Serif" font-size="10.00">base_call</text>
</a>
</g>
</g>
<!-- Node2 -->
<g id="node2" class="node">
<title>Node2</title>
<g id="a_node2"><a xlink:href="namespaceelc_1_1defs_1_1memory_1_1gc__n.html#aa5c109eeeee57a3082468528e936ccc6" target="_top" xlink:title="当alloc失败时调用此函数">
<polygon fill="white" stroke="#666666" points="247.5,-89.5 146.5,-89.5 146.5,-59.5 247.5,-59.5 247.5,-89.5"/>
<text text-anchor="start" x="154.5" y="-77.5" font-family="Helvetica,sans-Serif" font-size="10.00">elc::defs::memory::</text>
<text text-anchor="middle" x="197" y="-66.5" font-family="Helvetica,sans-Serif" font-size="10.00">gc_n::gc_for_alloc</text>
</a>
</g>
</g>
<!-- Node1&#45;&gt;Node2 -->
<g id="edge1" class="edge">
<title>Node1&#45;&gt;Node2</title>
<path fill="none" stroke="#63b8ff" d="M101.23,-56.79C112.47,-58.89 124.52,-61.14 136.12,-63.31"/>
<polygon fill="#63b8ff" stroke="#63b8ff" points="135.71,-66.79 146.18,-65.19 136.99,-59.91 135.71,-66.79"/>
</g>
<!-- Node6 -->
<g id="node6" class="node">
<title>Node6</title>
<g id="a_node6"><a xlink:href="structelc_1_1_a_p_is_1_1alloc_1_1source__location__guard.html#ab05fb1252fc9873cc0136b2f9322c4f1" target="_top" xlink:title=" ">
<polygon fill="white" stroke="#666666" points="257,-41 137,-41 137,0 257,0 257,-41"/>
<text text-anchor="start" x="145" y="-29" font-family="Helvetica,sans-Serif" font-size="10.00">elc::APIs::alloc::source</text>
<text text-anchor="start" x="145" y="-18" font-family="Helvetica,sans-Serif" font-size="10.00">_location_guard::source</text>
<text text-anchor="middle" x="197" y="-7" font-family="Helvetica,sans-Serif" font-size="10.00">_location_guard</text>
</a>
</g>
</g>
<!-- Node1&#45;&gt;Node6 -->
<g id="edge5" class="edge">
<title>Node1&#45;&gt;Node6</title>
<path fill="none" stroke="#63b8ff" d="M101.23,-38.21C109.5,-36.66 118.21,-35.03 126.87,-33.42"/>
<polygon fill="#63b8ff" stroke="#63b8ff" points="127.78,-36.81 136.96,-31.53 126.49,-29.93 127.78,-36.81"/>
</g>
<!-- Node3 -->
<g id="node3" class="node">
<title>Node3</title>
<g id="a_node3"><a xlink:href="classelc_1_1defs_1_1memory_1_1gc__n_1_1gc__t.html#a44bd3718534432f70ee2cf4741fa8a74" target="_top" xlink:title=" ">
<polygon fill="white" stroke="#666666" points="403,-89.5 293,-89.5 293,-59.5 403,-59.5 403,-89.5"/>
<text text-anchor="start" x="301" y="-77.5" font-family="Helvetica,sans-Serif" font-size="10.00">elc::defs::memory::</text>
<text text-anchor="middle" x="348" y="-66.5" font-family="Helvetica,sans-Serif" font-size="10.00">gc_n::gc_t::operator()</text>
</a>
</g>
</g>
<!-- Node2&#45;&gt;Node3 -->
<g id="edge2" class="edge">
<title>Node2&#45;&gt;Node3</title>
<path fill="none" stroke="#63b8ff" d="M247.61,-74.5C258.88,-74.5 271,-74.5 282.77,-74.5"/>
<polygon fill="#63b8ff" stroke="#63b8ff" points="282.99,-78 292.99,-74.5 282.99,-71 282.99,-78"/>
</g>
<!-- Node4 -->
<g id="node4" class="node">
<title>Node4</title>
<g id="a_node4"><a xlink:href="classelc_1_1defs_1_1base_1_1flag.html#a276b6522d8614b03a610d6ed8640982e" target="_top" xlink:title=" ">
<polygon fill="white" stroke="#666666" points="560,-106 439,-106 439,-87 560,-87 560,-106"/>
<text text-anchor="middle" x="499.5" y="-94" font-family="Helvetica,sans-Serif" font-size="10.00">elc::defs::base::flag::set</text>
</a>
</g>
</g>
<!-- Node3&#45;&gt;Node4 -->
<g id="edge3" class="edge">
<title>Node3&#45;&gt;Node4</title>
<path fill="none" stroke="#63b8ff" d="M403.4,-82.5C411.68,-83.72 420.32,-85 428.87,-86.25"/>
<polygon fill="#63b8ff" stroke="#63b8ff" points="428.44,-89.73 438.84,-87.72 429.46,-82.8 428.44,-89.73"/>
</g>
<!-- Node5 -->
<g id="node5" class="node">
<title>Node5</title>
<g id="a_node5"><a xlink:href="classelc_1_1defs_1_1base_1_1flag.html#a52efee8cf2903f94119aafaf8f1335f4" target="_top" xlink:title=" ">
<polygon fill="white" stroke="#666666" points="550,-68.5 449,-68.5 449,-38.5 550,-38.5 550,-68.5"/>
<text text-anchor="start" x="457" y="-56.5" font-family="Helvetica,sans-Serif" font-size="10.00">elc::defs::base::flag</text>
<text text-anchor="middle" x="499.5" y="-45.5" font-family="Helvetica,sans-Serif" font-size="10.00">::unset</text>
</a>
</g>
</g>
<!-- Node3&#45;&gt;Node5 -->
<g id="edge4" class="edge">
<title>Node3&#45;&gt;Node5</title>
<path fill="none" stroke="#63b8ff" d="M403.4,-66.86C414.89,-65.24 427.08,-63.53 438.76,-61.89"/>
<polygon fill="#63b8ff" stroke="#63b8ff" points="439.44,-65.33 448.86,-60.47 438.47,-58.4 439.44,-65.33"/>
</g>
</g>
</svg>
