<?xml version="1.0" encoding="UTF-8" standalone="no"?>
<!DOCTYPE svg PUBLIC "-//W3C//DTD SVG 1.1//EN"
 "http://www.w3.org/Graphics/SVG/1.1/DTD/svg11.dtd">
<!-- Generated by graphviz version 6.0.1 (20220911.1526)
 -->
<!-- Title: elc::defs::string_n::string_t::substr Pages: 1 -->
<svg width="246pt" height="86pt"
 viewBox="0.00 0.00 246.00 86.00" xmlns="http://www.w3.org/2000/svg" xmlns:xlink="http://www.w3.org/1999/xlink">
<g id="graph0" class="graph" transform="scale(1 1) rotate(0) translate(4 82)">
<title>elc::defs::string_n::string_t::substr</title>
<!-- Node1 -->
<g id="node1" class="node">
<title>Node1</title>
<g id="a_node1"><a xlink:title=" ">
<polygon fill="#999999" stroke="#666666" points="238,-54 144,-54 144,-24 238,-24 238,-54"/>
<text text-anchor="start" x="152" y="-42" font-family="Helvetica,sans-Serif" font-size="10.00">elc::defs::string_n</text>
<text text-anchor="middle" x="191" y="-31" font-family="Helvetica,sans-Serif" font-size="10.00">::string_t::substr</text>
</a>
</g>
</g>
<!-- Node2 -->
<g id="node2" class="node">
<title>Node2</title>
<g id="a_node2"><a xlink:href="structelc_1_1defs_1_1string__n_1_1string__t.html#ae09e348981e403ae921f0f4244d2c2bf" target="_top" xlink:title=" ">
<polygon fill="white" stroke="#666666" points="106,-78 2,-78 2,-48 106,-48 106,-78"/>
<text text-anchor="start" x="10" y="-66" font-family="Helvetica,sans-Serif" font-size="10.00">elc::defs::string_n</text>
<text text-anchor="middle" x="54" y="-55" font-family="Helvetica,sans-Serif" font-size="10.00">::string_t::ends_with</text>
</a>
</g>
</g>
<!-- Node1&#45;&gt;Node2 -->
<g id="edge1" class="edge">
<title>Node1&#45;&gt;Node2</title>
<path fill="none" stroke="#63b8ff" d="M133.83,-48.99C124.75,-50.6 115.39,-52.26 106.43,-53.86"/>
<polygon fill="#63b8ff" stroke="#63b8ff" points="134.69,-52.39 143.92,-47.19 133.46,-45.5 134.69,-52.39"/>
</g>
<!-- Node3 -->
<g id="node3" class="node">
<title>Node3</title>
<g id="a_node3"><a xlink:href="structelc_1_1defs_1_1string__n_1_1string__t.html#ae2e67a5747757ccc897c784c7b6b51ab" target="_top" xlink:title=" ">
<polygon fill="white" stroke="#666666" points="108,-30 0,-30 0,0 108,0 108,-30"/>
<text text-anchor="start" x="8" y="-18" font-family="Helvetica,sans-Serif" font-size="10.00">elc::defs::string_n</text>
<text text-anchor="middle" x="54" y="-7" font-family="Helvetica,sans-Serif" font-size="10.00">::string_t::starts_with</text>
</a>
</g>
</g>
<!-- Node1&#45;&gt;Node3 -->
<g id="edge2" class="edge">
<title>Node1&#45;&gt;Node3</title>
<path fill="none" stroke="#63b8ff" d="M134.07,-29.06C125.55,-27.54 116.77,-25.98 108.31,-24.48"/>
<polygon fill="#63b8ff" stroke="#63b8ff" points="133.46,-32.5 143.92,-30.81 134.69,-25.61 133.46,-32.5"/>
</g>
</g>
</svg>
