<?xml version="1.0" encoding="UTF-8" standalone="no"?>
<!DOCTYPE svg PUBLIC "-//W3C//DTD SVG 1.1//EN"
 "http://www.w3.org/Graphics/SVG/1.1/DTD/svg11.dtd">
<!-- Generated by graphviz version 6.0.1 (20220911.1526)
 -->
<!-- Title: elc::defs::base::range_n::bitmark_for_finds::mark Pages: 1 -->
<svg width="456pt" height="266pt"
 viewBox="0.00 0.00 456.00 265.50" xmlns="http://www.w3.org/2000/svg" xmlns:xlink="http://www.w3.org/1999/xlink">
<g id="graph0" class="graph" transform="scale(1 1) rotate(0) translate(4 261.5)">
<title>elc::defs::base::range_n::bitmark_for_finds::mark</title>
<!-- Node1 -->
<g id="node1" class="node">
<title>Node1</title>
<g id="a_node1"><a xlink:title=" ">
<polygon fill="#999999" stroke="#666666" points="448,-129 314,-129 314,-99 448,-99 448,-129"/>
<text text-anchor="start" x="322" y="-117" font-family="Helvetica,sans-Serif" font-size="10.00">elc::defs::base::range</text>
<text text-anchor="middle" x="381" y="-106" font-family="Helvetica,sans-Serif" font-size="10.00">_n::bitmark_for_finds::mark</text>
</a>
</g>
</g>
<!-- Node2 -->
<g id="node2" class="node">
<title>Node2</title>
<g id="a_node2"><a xlink:href="namespaceelc_1_1defs_1_1base_1_1range__n.html#ae2dbbd141a649cf04c829ccc6d58f30b" target="_top" xlink:title="若成功找到不匹配的数据项，返回其开头，若未找到，返回nullptr">
<polygon fill="white" stroke="#666666" points="278,-231 168,-231 168,-201 278,-201 278,-231"/>
<text text-anchor="start" x="176" y="-219" font-family="Helvetica,sans-Serif" font-size="10.00">elc::defs::base::range</text>
<text text-anchor="middle" x="223" y="-208" font-family="Helvetica,sans-Serif" font-size="10.00">_n::find_first_not_of</text>
</a>
</g>
</g>
<!-- Node1&#45;&gt;Node2 -->
<g id="edge1" class="edge">
<title>Node1&#45;&gt;Node2</title>
<path fill="none" stroke="#63b8ff" d="M353.44,-135.48C333.35,-151.23 304.75,-172.65 278,-189 271.2,-193.16 263.68,-197.22 256.47,-200.89"/>
<polygon fill="#63b8ff" stroke="#63b8ff" points="355.83,-138.05 361.5,-129.1 351.48,-132.56 355.83,-138.05"/>
</g>
<!-- Node4 -->
<g id="node4" class="node">
<title>Node4</title>
<g id="a_node4"><a xlink:href="namespaceelc_1_1defs_1_1base_1_1range__n.html#a6ac1bd58a416955da7938bc7bba2f2ae" target="_top" xlink:title="若成功找到匹配的数据项，返回其开头，若未找到，返回nullptr">
<polygon fill="white" stroke="#666666" points="278,-162 168,-162 168,-132 278,-132 278,-162"/>
<text text-anchor="start" x="176" y="-150" font-family="Helvetica,sans-Serif" font-size="10.00">elc::defs::base::range</text>
<text text-anchor="middle" x="223" y="-139" font-family="Helvetica,sans-Serif" font-size="10.00">_n::find_first_of</text>
</a>
</g>
</g>
<!-- Node1&#45;&gt;Node4 -->
<g id="edge5" class="edge">
<title>Node1&#45;&gt;Node4</title>
<path fill="none" stroke="#63b8ff" d="M303.83,-130.11C295.27,-131.92 286.68,-133.74 278.47,-135.48"/>
<polygon fill="#63b8ff" stroke="#63b8ff" points="304.78,-133.49 313.84,-127.99 303.33,-126.64 304.78,-133.49"/>
</g>
<!-- Node6 -->
<g id="node6" class="node">
<title>Node6</title>
<g id="a_node6"><a xlink:href="namespaceelc_1_1defs_1_1base_1_1range__n.html#afb48d0642ddade3a47f3ee70331ef624" target="_top" xlink:title="若成功找到不匹配的数据项，返回其开头，若未找到，返回nullptr">
<polygon fill="white" stroke="#666666" points="278,-96 168,-96 168,-66 278,-66 278,-96"/>
<text text-anchor="start" x="176" y="-84" font-family="Helvetica,sans-Serif" font-size="10.00">elc::defs::base::range</text>
<text text-anchor="middle" x="223" y="-73" font-family="Helvetica,sans-Serif" font-size="10.00">_n::find_last_not_of</text>
</a>
</g>
</g>
<!-- Node1&#45;&gt;Node6 -->
<g id="edge9" class="edge">
<title>Node1&#45;&gt;Node6</title>
<path fill="none" stroke="#63b8ff" d="M303.83,-97.89C295.27,-96.08 286.68,-94.26 278.47,-92.52"/>
<polygon fill="#63b8ff" stroke="#63b8ff" points="303.33,-101.36 313.84,-100.01 304.78,-94.51 303.33,-101.36"/>
</g>
<!-- Node8 -->
<g id="node8" class="node">
<title>Node8</title>
<g id="a_node8"><a xlink:href="namespaceelc_1_1defs_1_1base_1_1range__n.html#a543781983fe9ec71e31537054056d8df" target="_top" xlink:title="若成功找到匹配的数据项，返回其开头，若未找到，返回nullptr">
<polygon fill="white" stroke="#666666" points="278,-30 168,-30 168,0 278,0 278,-30"/>
<text text-anchor="start" x="176" y="-18" font-family="Helvetica,sans-Serif" font-size="10.00">elc::defs::base::range</text>
<text text-anchor="middle" x="223" y="-7" font-family="Helvetica,sans-Serif" font-size="10.00">_n::find_last_of</text>
</a>
</g>
</g>
<!-- Node1&#45;&gt;Node8 -->
<g id="edge13" class="edge">
<title>Node1&#45;&gt;Node8</title>
<path fill="none" stroke="#63b8ff" d="M347.53,-93.39C317.73,-74.48 274.3,-46.92 247.66,-30.01"/>
<polygon fill="#63b8ff" stroke="#63b8ff" points="345.99,-96.56 356.31,-98.96 349.74,-90.65 345.99,-96.56"/>
</g>
<!-- Node2&#45;&gt;Node2 -->
<g id="edge2" class="edge">
<title>Node2&#45;&gt;Node2</title>
<path fill="none" stroke="#63b8ff" d="M250.48,-241.6C246.73,-245.97 237.57,-249 223,-249 198.47,-249 189.27,-240.41 195.4,-231.28"/>
<polygon fill="#63b8ff" stroke="#63b8ff" points="253.98,-241.31 250.6,-231.28 246.98,-241.24 253.98,-241.31"/>
</g>
<!-- Node3 -->
<g id="node3" class="node">
<title>Node3</title>
<g id="a_node3"><a xlink:href="namespaceelc_1_1defs_1_1base_1_1range__n.html#a1acc3f8449649b44d4ba4adc53be00e7" target="_top" xlink:title="若成功找到不匹配的数据项，返回其距离开头的步数，若未找到，返回npos">
<polygon fill="white" stroke="#666666" points="121,-239.5 11,-239.5 11,-198.5 121,-198.5 121,-239.5"/>
<text text-anchor="start" x="19" y="-227.5" font-family="Helvetica,sans-Serif" font-size="10.00">elc::defs::base::range</text>
<text text-anchor="start" x="19" y="-216.5" font-family="Helvetica,sans-Serif" font-size="10.00">_n::find_first_not_of</text>
<text text-anchor="middle" x="66" y="-205.5" font-family="Helvetica,sans-Serif" font-size="10.00">_size_t</text>
</a>
</g>
</g>
<!-- Node2&#45;&gt;Node3 -->
<g id="edge3" class="edge">
<title>Node2&#45;&gt;Node3</title>
<path fill="none" stroke="#63b8ff" d="M157.72,-217.24C145.57,-217.48 132.98,-217.72 121.18,-217.95"/>
<polygon fill="#63b8ff" stroke="#63b8ff" points="157.86,-220.74 167.79,-217.05 157.72,-213.74 157.86,-220.74"/>
</g>
<!-- Node3&#45;&gt;Node3 -->
<g id="edge4" class="edge">
<title>Node3&#45;&gt;Node3</title>
<path fill="none" stroke="#63b8ff" d="M93.01,-249.46C88.99,-254.24 79.99,-257.5 66,-257.5 43.62,-257.5 34,-249.15 37.14,-239.6"/>
<polygon fill="#63b8ff" stroke="#63b8ff" points="96.46,-250.07 94.86,-239.6 89.58,-248.78 96.46,-250.07"/>
</g>
<!-- Node4&#45;&gt;Node4 -->
<g id="edge6" class="edge">
<title>Node4&#45;&gt;Node4</title>
<path fill="none" stroke="#63b8ff" d="M250.48,-172.6C246.73,-176.97 237.57,-180 223,-180 198.47,-180 189.27,-171.41 195.4,-162.28"/>
<polygon fill="#63b8ff" stroke="#63b8ff" points="253.98,-172.31 250.6,-162.28 246.98,-172.24 253.98,-172.31"/>
</g>
<!-- Node5 -->
<g id="node5" class="node">
<title>Node5</title>
<g id="a_node5"><a xlink:href="namespaceelc_1_1defs_1_1base_1_1range__n.html#a885b44667becc0b12424b80427b1fb33" target="_top" xlink:title="若成功找到匹配的数据项，返回其距离开头的步数，若未找到，返回npos">
<polygon fill="white" stroke="#666666" points="122.5,-162 9.5,-162 9.5,-132 122.5,-132 122.5,-162"/>
<text text-anchor="start" x="17.5" y="-150" font-family="Helvetica,sans-Serif" font-size="10.00">elc::defs::base::range</text>
<text text-anchor="middle" x="66" y="-139" font-family="Helvetica,sans-Serif" font-size="10.00">_n::find_first_of_size_t</text>
</a>
</g>
</g>
<!-- Node4&#45;&gt;Node5 -->
<g id="edge7" class="edge">
<title>Node4&#45;&gt;Node5</title>
<path fill="none" stroke="#63b8ff" d="M157.72,-147C146.11,-147 134.1,-147 122.76,-147"/>
<polygon fill="#63b8ff" stroke="#63b8ff" points="157.79,-150.5 167.79,-147 157.79,-143.5 157.79,-150.5"/>
</g>
<!-- Node5&#45;&gt;Node5 -->
<g id="edge8" class="edge">
<title>Node5&#45;&gt;Node5</title>
<path fill="none" stroke="#63b8ff" d="M93.48,-172.6C89.73,-176.97 80.57,-180 66,-180 41.47,-180 32.27,-171.41 38.4,-162.28"/>
<polygon fill="#63b8ff" stroke="#63b8ff" points="96.98,-172.31 93.6,-162.28 89.98,-172.24 96.98,-172.31"/>
</g>
<!-- Node6&#45;&gt;Node6 -->
<g id="edge10" class="edge">
<title>Node6&#45;&gt;Node6</title>
<path fill="none" stroke="#63b8ff" d="M250.48,-106.6C246.73,-110.97 237.57,-114 223,-114 198.47,-114 189.27,-105.41 195.4,-96.28"/>
<polygon fill="#63b8ff" stroke="#63b8ff" points="253.98,-106.31 250.6,-96.28 246.98,-106.24 253.98,-106.31"/>
</g>
<!-- Node7 -->
<g id="node7" class="node">
<title>Node7</title>
<g id="a_node7"><a xlink:href="namespaceelc_1_1defs_1_1base_1_1range__n.html#a5a03c47024fc946bd206c626c755d01e" target="_top" xlink:title="若成功找到不匹配的数据项，返回其距离开头的步数，若未找到，返回npos">
<polygon fill="white" stroke="#666666" points="132,-96 0,-96 0,-66 132,-66 132,-96"/>
<text text-anchor="start" x="8" y="-84" font-family="Helvetica,sans-Serif" font-size="10.00">elc::defs::base::range</text>
<text text-anchor="middle" x="66" y="-73" font-family="Helvetica,sans-Serif" font-size="10.00">_n::find_last_not_of_size_t</text>
</a>
</g>
</g>
<!-- Node6&#45;&gt;Node7 -->
<g id="edge11" class="edge">
<title>Node6&#45;&gt;Node7</title>
<path fill="none" stroke="#63b8ff" d="M157.63,-81C149.2,-81 140.55,-81 132.1,-81"/>
<polygon fill="#63b8ff" stroke="#63b8ff" points="157.79,-84.5 167.79,-81 157.79,-77.5 157.79,-84.5"/>
</g>
<!-- Node7&#45;&gt;Node7 -->
<g id="edge12" class="edge">
<title>Node7&#45;&gt;Node7</title>
<path fill="none" stroke="#63b8ff" d="M93.48,-106.6C89.73,-110.97 80.57,-114 66,-114 41.47,-114 32.27,-105.41 38.4,-96.28"/>
<polygon fill="#63b8ff" stroke="#63b8ff" points="96.98,-106.31 93.6,-96.28 89.98,-106.24 96.98,-106.31"/>
</g>
<!-- Node8&#45;&gt;Node8 -->
<g id="edge14" class="edge">
<title>Node8&#45;&gt;Node8</title>
<path fill="none" stroke="#63b8ff" d="M250.48,-40.6C246.73,-44.97 237.57,-48 223,-48 198.47,-48 189.27,-39.41 195.4,-30.28"/>
<polygon fill="#63b8ff" stroke="#63b8ff" points="253.98,-40.31 250.6,-30.28 246.98,-40.24 253.98,-40.31"/>
</g>
<!-- Node9 -->
<g id="node9" class="node">
<title>Node9</title>
<g id="a_node9"><a xlink:href="namespaceelc_1_1defs_1_1base_1_1range__n.html#a67bc8bf901f9fde202c8a61db93221c3" target="_top" xlink:title="若成功找到匹配的数据项，返回其距离开头的步数，若未找到，返回npos">
<polygon fill="white" stroke="#666666" points="122.5,-30 9.5,-30 9.5,0 122.5,0 122.5,-30"/>
<text text-anchor="start" x="17.5" y="-18" font-family="Helvetica,sans-Serif" font-size="10.00">elc::defs::base::range</text>
<text text-anchor="middle" x="66" y="-7" font-family="Helvetica,sans-Serif" font-size="10.00">_n::find_last_of_size_t</text>
</a>
</g>
</g>
<!-- Node8&#45;&gt;Node9 -->
<g id="edge15" class="edge">
<title>Node8&#45;&gt;Node9</title>
<path fill="none" stroke="#63b8ff" d="M157.72,-15C146.11,-15 134.1,-15 122.76,-15"/>
<polygon fill="#63b8ff" stroke="#63b8ff" points="157.79,-18.5 167.79,-15 157.79,-11.5 157.79,-18.5"/>
</g>
<!-- Node9&#45;&gt;Node9 -->
<g id="edge16" class="edge">
<title>Node9&#45;&gt;Node9</title>
<path fill="none" stroke="#63b8ff" d="M93.48,-40.6C89.73,-44.97 80.57,-48 66,-48 41.47,-48 32.27,-39.41 38.4,-30.28"/>
<polygon fill="#63b8ff" stroke="#63b8ff" points="96.98,-40.31 93.6,-30.28 89.98,-40.24 96.98,-40.31"/>
</g>
</g>
</svg>
