<?xml version="1.0" encoding="UTF-8" standalone="no"?>
<!DOCTYPE svg PUBLIC "-//W3C//DTD SVG 1.1//EN"
 "http://www.w3.org/Graphics/SVG/1.1/DTD/svg11.dtd">
<!-- Generated by graphviz version 6.0.1 (20220911.1526)
 -->
<!-- Title: elc::defs::string_n::string_data_n::base_string_data_t::compare_with_same_size Pages: 1 -->
<svg width="293pt" height="78pt"
 viewBox="0.00 0.00 293.00 78.00" xmlns="http://www.w3.org/2000/svg" xmlns:xlink="http://www.w3.org/1999/xlink">
<g id="graph0" class="graph" transform="scale(1 1) rotate(0) translate(4 74)">
<title>elc::defs::string_n::string_data_n::base_string_data_t::compare_with_same_size</title>
<!-- Node1 -->
<g id="node1" class="node">
<title>Node1</title>
<g id="a_node1"><a xlink:title=" ">
<polygon fill="#999999" stroke="#666666" points="122,-52 0,-52 0,0 122,0 122,-52"/>
<text text-anchor="start" x="8" y="-40" font-family="Helvetica,sans-Serif" font-size="10.00">elc::defs::string_n</text>
<text text-anchor="start" x="8" y="-29" font-family="Helvetica,sans-Serif" font-size="10.00">::string_data_n::base</text>
<text text-anchor="start" x="8" y="-18" font-family="Helvetica,sans-Serif" font-size="10.00">_string_data_t::compare</text>
<text text-anchor="middle" x="61" y="-7" font-family="Helvetica,sans-Serif" font-size="10.00">_with_same_size</text>
</a>
</g>
</g>
<!-- Node2 -->
<g id="node2" class="node">
<title>Node2</title>
<g id="a_node2"><a xlink:href="structelc_1_1defs_1_1string__n_1_1string__data__n_1_1base__string__data__t.html#ab457c64f5c77a1ab773762cb361f2daf" target="_top" xlink:title=" ">
<polygon fill="white" stroke="#666666" points="285,-52 158,-52 158,0 285,0 285,-52"/>
<text text-anchor="start" x="166" y="-40" font-family="Helvetica,sans-Serif" font-size="10.00">elc::defs::string_n</text>
<text text-anchor="start" x="166" y="-29" font-family="Helvetica,sans-Serif" font-size="10.00">::string_data_n::base</text>
<text text-anchor="start" x="166" y="-18" font-family="Helvetica,sans-Serif" font-size="10.00">_string_data_t::equivalent</text>
<text text-anchor="middle" x="221.5" y="-7" font-family="Helvetica,sans-Serif" font-size="10.00">_optimization</text>
</a>
</g>
</g>
<!-- Node1&#45;&gt;Node2 -->
<g id="edge1" class="edge">
<title>Node1&#45;&gt;Node2</title>
<path fill="none" stroke="#63b8ff" d="M122.37,-26C130.65,-26 139.21,-26 147.67,-26"/>
<polygon fill="#63b8ff" stroke="#63b8ff" points="147.93,-29.5 157.93,-26 147.93,-22.5 147.93,-29.5"/>
</g>
<!-- Node2&#45;&gt;Node2 -->
<g id="edge2" class="edge">
<title>Node2&#45;&gt;Node2</title>
<path fill="none" stroke="#63b8ff" d="M191.47,-52.2C190.49,-61.96 200.5,-70 221.5,-70 234.96,-70 243.9,-66.7 248.33,-61.76"/>
<polygon fill="#63b8ff" stroke="#63b8ff" points="251.68,-62.79 251.53,-52.2 245.04,-60.57 251.68,-62.79"/>
</g>
</g>
</svg>
