<?xml version="1.0" encoding="UTF-8" standalone="no"?>
<!DOCTYPE svg PUBLIC "-//W3C//DTD SVG 1.1//EN"
 "http://www.w3.org/Graphics/SVG/1.1/DTD/svg11.dtd">
<!-- Generated by graphviz version 6.0.1 (20220911.1526)
 -->
<!-- Title: elc::defs::lib_loader_n::library_info_t Pages: 1 -->
<svg width="342pt" height="130pt"
 viewBox="0.00 0.00 342.00 130.00" xmlns="http://www.w3.org/2000/svg" xmlns:xlink="http://www.w3.org/1999/xlink">
<g id="graph0" class="graph" transform="scale(1 1) rotate(0) translate(4 126)">
<title>elc::defs::lib_loader_n::library_info_t</title>
<!-- Node1 -->
<g id="node1" class="node">
<title>Node1</title>
<g id="a_node1"><a xlink:title=" ">
<polygon fill="#999999" stroke="#666666" points="334,-65 233,-65 233,-35 334,-35 334,-65"/>
<text text-anchor="start" x="241" y="-53" font-family="Helvetica,sans-Serif" font-size="10.00">elc::defs::lib_loader</text>
<text text-anchor="middle" x="283.5" y="-42" font-family="Helvetica,sans-Serif" font-size="10.00">_n::library_info_t</text>
</a>
</g>
</g>
<!-- Node2 -->
<g id="node2" class="node">
<title>Node2</title>
<g id="a_node2"><a xlink:title=" ">
<polygon fill="white" stroke="#666666" points="197,-122 0,-122 0,-48 197,-48 197,-122"/>
<text text-anchor="start" x="8" y="-110" font-family="Helvetica,sans-Serif" font-size="10.00">type_info_t&lt; library</text>
<text text-anchor="start" x="8" y="-99" font-family="Helvetica,sans-Serif" font-size="10.00">_info_t &gt;:: template</text>
<text text-anchor="middle" x="98.5" y="-88" font-family="Helvetica,sans-Serif" font-size="10.00"> </text>
<text text-anchor="start" x="8" y="-77" font-family="Helvetica,sans-Serif" font-size="10.00">					with_common</text>
<text text-anchor="start" x="8" y="-66" font-family="Helvetica,sans-Serif" font-size="10.00">_attribute&lt; ref_able,</text>
<text text-anchor="middle" x="98.5" y="-55" font-family="Helvetica,sans-Serif" font-size="10.00"> never_in_array &gt;</text>
</a>
</g>
</g>
<!-- Node2&#45;&gt;Node1 -->
<g id="edge1" class="edge">
<title>Node2&#45;&gt;Node1</title>
<path fill="none" stroke="#63b8ff" d="M207.17,-64.41C215.97,-62.72 224.57,-61.08 232.62,-59.54"/>
<polygon fill="#63b8ff" stroke="#63b8ff" points="206.33,-61.01 197.16,-66.32 207.64,-67.88 206.33,-61.01"/>
</g>
<!-- Node3 -->
<g id="node3" class="node">
<title>Node3</title>
<g id="a_node3"><a xlink:href="classelc_1_1defs_1_1base_1_1build__by__get__only.html" target="_top" xlink:title=" ">
<polygon fill="white" stroke="#666666" points="152,-30 45,-30 45,0 152,0 152,-30"/>
<text text-anchor="start" x="53" y="-18" font-family="Helvetica,sans-Serif" font-size="10.00">elc::defs::base::build</text>
<text text-anchor="middle" x="98.5" y="-7" font-family="Helvetica,sans-Serif" font-size="10.00">_by_get_only</text>
</a>
</g>
</g>
<!-- Node3&#45;&gt;Node1 -->
<g id="edge2" class="edge">
<title>Node3&#45;&gt;Node1</title>
<path fill="none" stroke="#63b8ff" d="M162.45,-27.04C185.45,-31.44 211.14,-36.35 232.83,-40.5"/>
<polygon fill="#63b8ff" stroke="#63b8ff" points="162.91,-23.56 152.43,-25.12 161.6,-30.44 162.91,-23.56"/>
</g>
</g>
</svg>
