<?xml version="1.0" encoding="UTF-8" standalone="no"?>
<!DOCTYPE svg PUBLIC "-//W3C//DTD SVG 1.1//EN"
 "http://www.w3.org/Graphics/SVG/1.1/DTD/svg11.dtd">
<!-- Generated by graphviz version 6.0.1 (20220911.1526)
 -->
<!-- Title: elc::defs::stream_n::base_iostream Pages: 1 -->
<svg width="691pt" height="134pt"
 viewBox="0.00 0.00 691.00 134.00" xmlns="http://www.w3.org/2000/svg" xmlns:xlink="http://www.w3.org/1999/xlink">
<g id="graph0" class="graph" transform="scale(1 1) rotate(0) translate(4 130)">
<title>elc::defs::stream_n::base_iostream</title>
<!-- Node1 -->
<g id="node1" class="node">
<title>Node1</title>
<g id="a_node1"><a xlink:title=" ">
<polygon fill="#999999" stroke="#666666" points="372,-78 272,-78 272,-48 372,-48 372,-78"/>
<text text-anchor="start" x="280" y="-66" font-family="Helvetica,sans-Serif" font-size="10.00">elc::defs::stream_n</text>
<text text-anchor="middle" x="322" y="-55" font-family="Helvetica,sans-Serif" font-size="10.00">::base_iostream</text>
</a>
</g>
</g>
<!-- Node5 -->
<g id="node5" class="node">
<title>Node5</title>
<g id="a_node5"><a xlink:href="structelc_1_1defs_1_1stream__n_1_1data__iostream.html" target="_top" xlink:title=" ">
<polygon fill="white" stroke="#666666" points="510.5,-126 410.5,-126 410.5,-96 510.5,-96 510.5,-126"/>
<text text-anchor="start" x="418.5" y="-114" font-family="Helvetica,sans-Serif" font-size="10.00">elc::defs::stream_n</text>
<text text-anchor="middle" x="460.5" y="-103" font-family="Helvetica,sans-Serif" font-size="10.00">::data_iostream</text>
</a>
</g>
</g>
<!-- Node1&#45;&gt;Node5 -->
<g id="edge5" class="edge">
<title>Node1&#45;&gt;Node5</title>
<path fill="none" stroke="#63b8ff" d="M375.57,-81.49C389.22,-86.29 403.76,-91.4 416.84,-96"/>
<polygon fill="#63b8ff" stroke="#63b8ff" points="376.41,-78.07 365.81,-78.06 374.09,-84.68 376.41,-78.07"/>
</g>
<!-- Node7 -->
<g id="node7" class="node">
<title>Node7</title>
<g id="a_node7"><a xlink:href="structelc_1_1defs_1_1stream__n_1_1noexcept__iostream.html" target="_top" xlink:title=" ">
<polygon fill="white" stroke="#666666" points="513,-78 408,-78 408,-48 513,-48 513,-78"/>
<text text-anchor="start" x="416" y="-66" font-family="Helvetica,sans-Serif" font-size="10.00">elc::defs::stream_n</text>
<text text-anchor="middle" x="460.5" y="-55" font-family="Helvetica,sans-Serif" font-size="10.00">::noexcept_iostream</text>
</a>
</g>
</g>
<!-- Node1&#45;&gt;Node7 -->
<g id="edge7" class="edge">
<title>Node1&#45;&gt;Node7</title>
<path fill="none" stroke="#63b8ff" d="M382.51,-63C391,-63 399.67,-63 407.99,-63"/>
<polygon fill="#63b8ff" stroke="#63b8ff" points="382.28,-59.5 372.28,-63 382.28,-66.5 382.28,-59.5"/>
</g>
<!-- Node10 -->
<g id="node10" class="node">
<title>Node10</title>
<g id="a_node10"><a xlink:href="structelc_1_1defs_1_1stream__n_1_1string__iostream.html" target="_top" xlink:title=" ">
<polygon fill="white" stroke="#666666" points="510.5,-30 410.5,-30 410.5,0 510.5,0 510.5,-30"/>
<text text-anchor="start" x="418.5" y="-18" font-family="Helvetica,sans-Serif" font-size="10.00">elc::defs::stream_n</text>
<text text-anchor="middle" x="460.5" y="-7" font-family="Helvetica,sans-Serif" font-size="10.00">::string_iostream</text>
</a>
</g>
</g>
<!-- Node1&#45;&gt;Node10 -->
<g id="edge11" class="edge">
<title>Node1&#45;&gt;Node10</title>
<path fill="none" stroke="#63b8ff" d="M375.57,-44.51C389.22,-39.71 403.76,-34.6 416.84,-30"/>
<polygon fill="#63b8ff" stroke="#63b8ff" points="374.09,-41.32 365.81,-47.94 376.41,-47.93 374.09,-41.32"/>
</g>
<!-- Node2 -->
<g id="node2" class="node">
<title>Node2</title>
<g id="a_node2"><a xlink:href="structelc_1_1defs_1_1stream__n_1_1base__istream.html" target="_top" xlink:title=" ">
<polygon fill="white" stroke="#666666" points="236,-102 136,-102 136,-72 236,-72 236,-102"/>
<text text-anchor="start" x="144" y="-90" font-family="Helvetica,sans-Serif" font-size="10.00">elc::defs::stream_n</text>
<text text-anchor="middle" x="186" y="-79" font-family="Helvetica,sans-Serif" font-size="10.00">::base_istream</text>
</a>
</g>
</g>
<!-- Node2&#45;&gt;Node1 -->
<g id="edge1" class="edge">
<title>Node2&#45;&gt;Node1</title>
<path fill="none" stroke="#63b8ff" d="M246.12,-76.41C254.72,-74.87 263.5,-73.3 271.87,-71.8"/>
<polygon fill="#63b8ff" stroke="#63b8ff" points="245.36,-72.99 236.14,-78.2 246.6,-79.88 245.36,-72.99"/>
</g>
<!-- Node3 -->
<g id="node3" class="node">
<title>Node3</title>
<g id="a_node3"><a xlink:href="structelc_1_1defs_1_1stream__n_1_1base__stream.html" target="_top" xlink:title=" ">
<polygon fill="white" stroke="#666666" points="100,-78 0,-78 0,-48 100,-48 100,-78"/>
<text text-anchor="start" x="8" y="-66" font-family="Helvetica,sans-Serif" font-size="10.00">elc::defs::stream_n</text>
<text text-anchor="middle" x="50" y="-55" font-family="Helvetica,sans-Serif" font-size="10.00">::base_stream</text>
</a>
</g>
</g>
<!-- Node3&#45;&gt;Node2 -->
<g id="edge2" class="edge">
<title>Node3&#45;&gt;Node2</title>
<path fill="none" stroke="#63b8ff" d="M110.12,-73.59C118.72,-75.13 127.5,-76.7 135.87,-78.2"/>
<polygon fill="#63b8ff" stroke="#63b8ff" points="110.6,-70.12 100.14,-71.8 109.36,-77.01 110.6,-70.12"/>
</g>
<!-- Node4 -->
<g id="node4" class="node">
<title>Node4</title>
<g id="a_node4"><a xlink:href="structelc_1_1defs_1_1stream__n_1_1base__ostream.html" target="_top" xlink:title=" ">
<polygon fill="white" stroke="#666666" points="236,-54 136,-54 136,-24 236,-24 236,-54"/>
<text text-anchor="start" x="144" y="-42" font-family="Helvetica,sans-Serif" font-size="10.00">elc::defs::stream_n</text>
<text text-anchor="middle" x="186" y="-31" font-family="Helvetica,sans-Serif" font-size="10.00">::base_ostream</text>
</a>
</g>
</g>
<!-- Node3&#45;&gt;Node4 -->
<g id="edge4" class="edge">
<title>Node3&#45;&gt;Node4</title>
<path fill="none" stroke="#63b8ff" d="M110.12,-52.41C118.72,-50.87 127.5,-49.3 135.87,-47.8"/>
<polygon fill="#63b8ff" stroke="#63b8ff" points="109.36,-48.99 100.14,-54.2 110.6,-55.88 109.36,-48.99"/>
</g>
<!-- Node4&#45;&gt;Node1 -->
<g id="edge3" class="edge">
<title>Node4&#45;&gt;Node1</title>
<path fill="none" stroke="#63b8ff" d="M246.12,-49.59C254.72,-51.13 263.5,-52.7 271.87,-54.2"/>
<polygon fill="#63b8ff" stroke="#63b8ff" points="246.6,-46.12 236.14,-47.8 245.36,-53.01 246.6,-46.12"/>
</g>
<!-- Node6 -->
<g id="node6" class="node">
<title>Node6</title>
<g id="a_node6"><a xlink:href="structelc_1_1defs_1_1stream__n_1_1noexcept__data__iostream.html" target="_top" xlink:title=" ">
<polygon fill="white" stroke="#666666" points="680.5,-126 551.5,-126 551.5,-96 680.5,-96 680.5,-126"/>
<text text-anchor="start" x="559.5" y="-114" font-family="Helvetica,sans-Serif" font-size="10.00">elc::defs::stream_n</text>
<text text-anchor="middle" x="616" y="-103" font-family="Helvetica,sans-Serif" font-size="10.00">::noexcept_data_iostream</text>
</a>
</g>
</g>
<!-- Node5&#45;&gt;Node6 -->
<g id="edge6" class="edge">
<title>Node5&#45;&gt;Node6</title>
<path fill="none" stroke="#63b8ff" d="M521.08,-111C531.01,-111 541.34,-111 551.37,-111"/>
<polygon fill="#63b8ff" stroke="#63b8ff" points="520.91,-107.5 510.91,-111 520.91,-114.5 520.91,-107.5"/>
</g>
<!-- Node7&#45;&gt;Node6 -->
<g id="edge9" class="edge">
<title>Node7&#45;&gt;Node6</title>
<path fill="none" stroke="#63b8ff" d="M519.28,-81.07C535.02,-85.99 551.89,-91.27 567.02,-96"/>
<polygon fill="#63b8ff" stroke="#63b8ff" points="520.24,-77.7 509.65,-78.06 518.15,-84.38 520.24,-77.7"/>
</g>
<!-- Node8 -->
<g id="node8" class="node">
<title>Node8</title>
<g id="a_node8"><a xlink:href="structelc_1_1defs_1_1stream__n_1_1memory__stream.html" target="_top" xlink:title=" ">
<polygon fill="white" stroke="#666666" points="666,-78 566,-78 566,-48 666,-48 666,-78"/>
<text text-anchor="start" x="574" y="-66" font-family="Helvetica,sans-Serif" font-size="10.00">elc::defs::stream_n</text>
<text text-anchor="middle" x="616" y="-55" font-family="Helvetica,sans-Serif" font-size="10.00">::memory_stream</text>
</a>
</g>
</g>
<!-- Node7&#45;&gt;Node8 -->
<g id="edge8" class="edge">
<title>Node7&#45;&gt;Node8</title>
<path fill="none" stroke="#63b8ff" d="M523.23,-63C537.43,-63 552.35,-63 565.93,-63"/>
<polygon fill="#63b8ff" stroke="#63b8ff" points="523.04,-59.5 513.04,-63 523.04,-66.5 523.04,-59.5"/>
</g>
<!-- Node9 -->
<g id="node9" class="node">
<title>Node9</title>
<g id="a_node9"><a xlink:href="structelc_1_1defs_1_1stream__n_1_1noexcept__string__iostream.html" target="_top" xlink:title=" ">
<polygon fill="white" stroke="#666666" points="683,-30 549,-30 549,0 683,0 683,-30"/>
<text text-anchor="start" x="557" y="-18" font-family="Helvetica,sans-Serif" font-size="10.00">elc::defs::stream_n</text>
<text text-anchor="middle" x="616" y="-7" font-family="Helvetica,sans-Serif" font-size="10.00">::noexcept_string_iostream</text>
</a>
</g>
</g>
<!-- Node7&#45;&gt;Node9 -->
<g id="edge10" class="edge">
<title>Node7&#45;&gt;Node9</title>
<path fill="none" stroke="#63b8ff" d="M519.28,-44.93C535.02,-40.01 551.89,-34.73 567.02,-30"/>
<polygon fill="#63b8ff" stroke="#63b8ff" points="518.15,-41.62 509.65,-47.94 520.24,-48.3 518.15,-41.62"/>
</g>
<!-- Node10&#45;&gt;Node9 -->
<g id="edge12" class="edge">
<title>Node10&#45;&gt;Node9</title>
<path fill="none" stroke="#63b8ff" d="M521.04,-15C530.16,-15 539.63,-15 548.88,-15"/>
<polygon fill="#63b8ff" stroke="#63b8ff" points="520.91,-11.5 510.91,-15 520.91,-18.5 520.91,-11.5"/>
</g>
</g>
</svg>
