<?xml version="1.0" encoding="UTF-8" standalone="no"?>
<!DOCTYPE svg PUBLIC "-//W3C//DTD SVG 1.1//EN"
 "http://www.w3.org/Graphics/SVG/1.1/DTD/svg11.dtd">
<!-- Generated by graphviz version 6.0.1 (20220911.1526)
 -->
<!-- Title: elc::defs::string_n::string_data_n::base_string_data_t::get_base_memory_cost Pages: 1 -->
<svg width="1193pt" height="149pt"
 viewBox="0.00 0.00 1193.00 148.50" xmlns="http://www.w3.org/2000/svg" xmlns:xlink="http://www.w3.org/1999/xlink">
<g id="graph0" class="graph" transform="scale(1 1) rotate(0) translate(4 144.5)">
<title>elc::defs::string_n::string_data_n::base_string_data_t::get_base_memory_cost</title>
<!-- Node1 -->
<g id="node1" class="node">
<title>Node1</title>
<g id="a_node1"><a xlink:title=" ">
<polygon fill="#999999" stroke="#666666" points="1185,-116 1061,-116 1061,-64 1185,-64 1185,-116"/>
<text text-anchor="start" x="1069" y="-104" font-family="Helvetica,sans-Serif" font-size="10.00">elc::defs::string_n</text>
<text text-anchor="start" x="1069" y="-93" font-family="Helvetica,sans-Serif" font-size="10.00">::string_data_n::base</text>
<text text-anchor="start" x="1069" y="-82" font-family="Helvetica,sans-Serif" font-size="10.00">_string_data_t::get_base</text>
<text text-anchor="middle" x="1123" y="-71" font-family="Helvetica,sans-Serif" font-size="10.00">_memory_cost</text>
</a>
</g>
</g>
<!-- Node2 -->
<g id="node2" class="node">
<title>Node2</title>
<g id="a_node2"><a xlink:href="structelc_1_1defs_1_1string__n_1_1string__data__n_1_1base__string__data__t.html#ae456734a95cc74c83fd9cfd7d7724c00" target="_top" xlink:title=" ">
<polygon fill="white" stroke="#666666" points="1025,-110.5 863,-110.5 863,-69.5 1025,-69.5 1025,-110.5"/>
<text text-anchor="start" x="871" y="-98.5" font-family="Helvetica,sans-Serif" font-size="10.00">elc::defs::string_n</text>
<text text-anchor="start" x="871" y="-87.5" font-family="Helvetica,sans-Serif" font-size="10.00">::string_data_n::base</text>
<text text-anchor="middle" x="944" y="-76.5" font-family="Helvetica,sans-Serif" font-size="10.00">_string_data_t::get_memory_cost</text>
</a>
</g>
</g>
<!-- Node1&#45;&gt;Node2 -->
<g id="edge1" class="edge">
<title>Node1&#45;&gt;Node2</title>
<path fill="none" stroke="#63b8ff" d="M1050.49,-90C1042.1,-90 1033.5,-90 1025.01,-90"/>
<polygon fill="#63b8ff" stroke="#63b8ff" points="1050.59,-93.5 1060.59,-90 1050.59,-86.5 1050.59,-93.5"/>
</g>
<!-- Node3 -->
<g id="node3" class="node">
<title>Node3</title>
<g id="a_node3"><a xlink:href="structelc_1_1defs_1_1string__n_1_1string__data__n_1_1base__string__data__t.html#a4310bddc1aa2f4c61118c83cfda142a3" target="_top" xlink:title=" ">
<polygon fill="white" stroke="#666666" points="827,-116 714,-116 714,-64 827,-64 827,-116"/>
<text text-anchor="start" x="722" y="-104" font-family="Helvetica,sans-Serif" font-size="10.00">elc::defs::string_n</text>
<text text-anchor="start" x="722" y="-93" font-family="Helvetica,sans-Serif" font-size="10.00">::string_data_n::base</text>
<text text-anchor="start" x="722" y="-82" font-family="Helvetica,sans-Serif" font-size="10.00">_string_data_t::get_gc</text>
<text text-anchor="middle" x="770.5" y="-71" font-family="Helvetica,sans-Serif" font-size="10.00">_profit</text>
</a>
</g>
</g>
<!-- Node2&#45;&gt;Node3 -->
<g id="edge2" class="edge">
<title>Node2&#45;&gt;Node3</title>
<path fill="none" stroke="#63b8ff" d="M852.61,-90C843.96,-90 835.37,-90 827.2,-90"/>
<polygon fill="#63b8ff" stroke="#63b8ff" points="852.77,-93.5 862.77,-90 852.77,-86.5 852.77,-93.5"/>
</g>
<!-- Node4 -->
<g id="node4" class="node">
<title>Node4</title>
<g id="a_node4"><a xlink:href="structelc_1_1defs_1_1string__n_1_1string__data__n_1_1base__string__data__t.html#a227895efa43cef13ea08acbb270d1fd6" target="_top" xlink:title=" ">
<polygon fill="white" stroke="#666666" points="678,-116 562,-116 562,-64 678,-64 678,-116"/>
<text text-anchor="start" x="570" y="-104" font-family="Helvetica,sans-Serif" font-size="10.00">elc::defs::string_n</text>
<text text-anchor="start" x="570" y="-93" font-family="Helvetica,sans-Serif" font-size="10.00">::string_data_n::base</text>
<text text-anchor="start" x="570" y="-82" font-family="Helvetica,sans-Serif" font-size="10.00">_string_data_t::positive</text>
<text text-anchor="middle" x="620" y="-71" font-family="Helvetica,sans-Serif" font-size="10.00">_gc_profit</text>
</a>
</g>
</g>
<!-- Node3&#45;&gt;Node4 -->
<g id="edge3" class="edge">
<title>Node3&#45;&gt;Node4</title>
<path fill="none" stroke="#63b8ff" d="M703.51,-90C695.01,-90 686.36,-90 678.02,-90"/>
<polygon fill="#63b8ff" stroke="#63b8ff" points="703.78,-93.5 713.78,-90 703.78,-86.5 703.78,-93.5"/>
</g>
<!-- Node5 -->
<g id="node5" class="node">
<title>Node5</title>
<g id="a_node5"><a xlink:href="structelc_1_1defs_1_1string__n_1_1string__data__n_1_1base__string__data__t.html#aa5f5e87e2c8bfafa419e22ffd0031e83" target="_top" xlink:title=" ">
<polygon fill="white" stroke="#666666" points="526,-110.5 401,-110.5 401,-69.5 526,-69.5 526,-110.5"/>
<text text-anchor="start" x="409" y="-98.5" font-family="Helvetica,sans-Serif" font-size="10.00">elc::defs::string_n</text>
<text text-anchor="start" x="409" y="-87.5" font-family="Helvetica,sans-Serif" font-size="10.00">::string_data_n::base</text>
<text text-anchor="middle" x="463.5" y="-76.5" font-family="Helvetica,sans-Serif" font-size="10.00">_string_data_t::get_c_str</text>
</a>
</g>
</g>
<!-- Node4&#45;&gt;Node5 -->
<g id="edge4" class="edge">
<title>Node4&#45;&gt;Node5</title>
<path fill="none" stroke="#63b8ff" d="M551.63,-90C543.12,-90 534.44,-90 526.03,-90"/>
<polygon fill="#63b8ff" stroke="#63b8ff" points="551.91,-93.5 561.91,-90 551.91,-86.5 551.91,-93.5"/>
</g>
<!-- Node6 -->
<g id="node6" class="node">
<title>Node6</title>
<g id="a_node6"><a xlink:href="structelc_1_1defs_1_1string__n_1_1string__data__n_1_1base__string__data__t.html#a8dfc7e35e2c8f6cf1b698207c27e2c52" target="_top" xlink:title=" ">
<polygon fill="white" stroke="#666666" points="365,-140.5 211,-140.5 211,-99.5 365,-99.5 365,-140.5"/>
<text text-anchor="start" x="219" y="-128.5" font-family="Helvetica,sans-Serif" font-size="10.00">elc::defs::string_n</text>
<text text-anchor="start" x="219" y="-117.5" font-family="Helvetica,sans-Serif" font-size="10.00">::string_data_n::base</text>
<text text-anchor="middle" x="288" y="-106.5" font-family="Helvetica,sans-Serif" font-size="10.00">_string_data_t::get_const_c_str</text>
</a>
</g>
</g>
<!-- Node5&#45;&gt;Node6 -->
<g id="edge5" class="edge">
<title>Node5&#45;&gt;Node6</title>
<path fill="none" stroke="#63b8ff" d="M390.93,-102.38C382.39,-103.85 373.64,-105.36 365.04,-106.85"/>
<polygon fill="#63b8ff" stroke="#63b8ff" points="391.58,-105.81 400.84,-100.66 390.39,-98.92 391.58,-105.81"/>
</g>
<!-- Node7 -->
<g id="node7" class="node">
<title>Node7</title>
<g id="a_node7"><a xlink:href="structelc_1_1defs_1_1string__n_1_1string__data__n_1_1base__string__data__t.html#ac8eacd5ea9613716709d8c0288883971" target="_top" xlink:title=" ">
<polygon fill="white" stroke="#666666" points="349,-81.5 227,-81.5 227,-40.5 349,-40.5 349,-81.5"/>
<text text-anchor="start" x="235" y="-69.5" font-family="Helvetica,sans-Serif" font-size="10.00">elc::defs::string_n</text>
<text text-anchor="start" x="235" y="-58.5" font-family="Helvetica,sans-Serif" font-size="10.00">::string_data_n::base</text>
<text text-anchor="middle" x="288" y="-47.5" font-family="Helvetica,sans-Serif" font-size="10.00">_string_data_t::get_data</text>
</a>
</g>
</g>
<!-- Node5&#45;&gt;Node7 -->
<g id="edge6" class="edge">
<title>Node5&#45;&gt;Node7</title>
<path fill="none" stroke="#63b8ff" d="M390.83,-78.02C376.93,-75.7 362.49,-73.28 349,-71.03"/>
<polygon fill="#63b8ff" stroke="#63b8ff" points="390.4,-81.5 400.84,-79.69 391.56,-74.59 390.4,-81.5"/>
</g>
<!-- Node8 -->
<g id="node8" class="node">
<title>Node8</title>
<g id="a_node8"><a xlink:href="structelc_1_1defs_1_1string__n_1_1string__data__n_1_1base__string__data__t.html#aaba32ac4b54bb8e1b53b60faaecd97c7" target="_top" xlink:title=" ">
<polygon fill="white" stroke="#666666" points="149.5,-122 25.5,-122 25.5,-70 149.5,-70 149.5,-122"/>
<text text-anchor="start" x="33.5" y="-110" font-family="Helvetica,sans-Serif" font-size="10.00">elc::defs::string_n</text>
<text text-anchor="start" x="33.5" y="-99" font-family="Helvetica,sans-Serif" font-size="10.00">::string_data_n::base</text>
<text text-anchor="start" x="33.5" y="-88" font-family="Helvetica,sans-Serif" font-size="10.00">_string_data_t::get_hash</text>
<text text-anchor="middle" x="87.5" y="-77" font-family="Helvetica,sans-Serif" font-size="10.00">_detail</text>
</a>
</g>
</g>
<!-- Node7&#45;&gt;Node8 -->
<g id="edge7" class="edge">
<title>Node7&#45;&gt;Node8</title>
<path fill="none" stroke="#63b8ff" d="M216.99,-73.34C195.06,-77.21 171.04,-81.45 149.76,-85.2"/>
<polygon fill="#63b8ff" stroke="#63b8ff" points="217.66,-76.78 226.9,-71.6 216.45,-69.89 217.66,-76.78"/>
</g>
<!-- Node9 -->
<g id="node9" class="node">
<title>Node9</title>
<g id="a_node9"><a xlink:href="structelc_1_1defs_1_1string__n_1_1string__data__n_1_1base__string__data__t.html#aa3494a4bee3098dd32856bc773d6bd62" target="_top" xlink:title=" ">
<polygon fill="white" stroke="#666666" points="175,-52 0,-52 0,0 175,0 175,-52"/>
<text text-anchor="start" x="8" y="-40" font-family="Helvetica,sans-Serif" font-size="10.00">elc::defs::string_n</text>
<text text-anchor="start" x="8" y="-29" font-family="Helvetica,sans-Serif" font-size="10.00">::string_data_n::base</text>
<text text-anchor="start" x="8" y="-18" font-family="Helvetica,sans-Serif" font-size="10.00">_string_data_t::get_others</text>
<text text-anchor="middle" x="87.5" y="-7" font-family="Helvetica,sans-Serif" font-size="10.00">_hash_with_calculated_before_detail</text>
</a>
</g>
</g>
<!-- Node7&#45;&gt;Node9 -->
<g id="edge8" class="edge">
<title>Node7&#45;&gt;Node9</title>
<path fill="none" stroke="#63b8ff" d="M216.77,-48.62C203.3,-46.24 189.04,-43.73 175.12,-41.27"/>
<polygon fill="#63b8ff" stroke="#63b8ff" points="216.45,-52.11 226.9,-50.4 217.66,-45.22 216.45,-52.11"/>
</g>
</g>
</svg>
