<?xml version="1.0" encoding="UTF-8" standalone="no"?>
<!DOCTYPE svg PUBLIC "-//W3C//DTD SVG 1.1//EN"
 "http://www.w3.org/Graphics/SVG/1.1/DTD/svg11.dtd">
<!-- Generated by graphviz version 6.0.1 (20220911.1526)
 -->
<!-- Title: elc::defs::memory::get_n::get_resize_t Pages: 1 -->
<svg width="328pt" height="108pt"
 viewBox="0.00 0.00 328.00 108.00" xmlns="http://www.w3.org/2000/svg" xmlns:xlink="http://www.w3.org/1999/xlink">
<g id="graph0" class="graph" transform="scale(1 1) rotate(0) translate(4 104)">
<title>elc::defs::memory::get_n::get_resize_t</title>
<!-- Node1 -->
<g id="node1" class="node">
<title>Node1</title>
<g id="a_node1"><a xlink:title=" ">
<polygon fill="#999999" stroke="#666666" points="320,-64.5 219,-64.5 219,-34.5 320,-34.5 320,-64.5"/>
<text text-anchor="start" x="227" y="-52.5" font-family="Helvetica,sans-Serif" font-size="10.00">elc::defs::memory::</text>
<text text-anchor="middle" x="269.5" y="-41.5" font-family="Helvetica,sans-Serif" font-size="10.00">get_n::get_resize_t</text>
</a>
</g>
</g>
<!-- Node2 -->
<g id="node2" class="node">
<title>Node2</title>
<g id="a_node2"><a xlink:href="structelc_1_1defs_1_1memory_1_1get__n_1_1get__resize__t_1_1insert__t.html" target="_top" xlink:title=" ">
<polygon fill="white" stroke="#666666" points="101,-100 0,-100 0,-59 101,-59 101,-100"/>
<text text-anchor="start" x="8" y="-88" font-family="Helvetica,sans-Serif" font-size="10.00">elc::defs::memory::</text>
<text text-anchor="start" x="8" y="-77" font-family="Helvetica,sans-Serif" font-size="10.00">get_n::get_resize_t</text>
<text text-anchor="middle" x="50.5" y="-66" font-family="Helvetica,sans-Serif" font-size="10.00">::insert_t</text>
</a>
</g>
</g>
<!-- Node2&#45;&gt;Node1 -->
<g id="edge1" class="edge">
<title>Node2&#45;&gt;Node1</title>
<path fill="none" stroke="#9a32cd" stroke-dasharray="5,2" d="M111.23,-71.24C145.04,-66.57 186.82,-60.79 218.83,-56.37"/>
<polygon fill="#9a32cd" stroke="#9a32cd" points="110.44,-67.82 101.01,-72.65 111.4,-74.75 110.44,-67.82"/>
<text text-anchor="middle" x="160" y="-72.5" font-family="Helvetica,sans-Serif" font-size="10.00"> insert</text>
</g>
<!-- Node3 -->
<g id="node3" class="node">
<title>Node3</title>
<g id="a_node3"><a xlink:href="structelc_1_1defs_1_1memory_1_1get__n_1_1get__resize__t_1_1insert__resize__t.html" target="_top" xlink:title=" ">
<polygon fill="white" stroke="#666666" points="101,-41 0,-41 0,0 101,0 101,-41"/>
<text text-anchor="start" x="8" y="-29" font-family="Helvetica,sans-Serif" font-size="10.00">elc::defs::memory::</text>
<text text-anchor="start" x="8" y="-18" font-family="Helvetica,sans-Serif" font-size="10.00">get_n::get_resize_t</text>
<text text-anchor="middle" x="50.5" y="-7" font-family="Helvetica,sans-Serif" font-size="10.00">::insert_resize_t</text>
</a>
</g>
</g>
<!-- Node3&#45;&gt;Node1 -->
<g id="edge2" class="edge">
<title>Node3&#45;&gt;Node1</title>
<path fill="none" stroke="#9a32cd" stroke-dasharray="5,2" d="M111.23,-28.48C145.04,-33 186.82,-38.58 218.83,-42.86"/>
<polygon fill="#9a32cd" stroke="#9a32cd" points="111.39,-24.97 101.01,-27.12 110.46,-31.91 111.39,-24.97"/>
<text text-anchor="middle" x="160" y="-42.5" font-family="Helvetica,sans-Serif" font-size="10.00"> insert_with_resize</text>
</g>
</g>
</svg>
