<?xml version="1.0" encoding="UTF-8" standalone="no"?>
<!DOCTYPE svg PUBLIC "-//W3C//DTD SVG 1.1//EN"
 "http://www.w3.org/Graphics/SVG/1.1/DTD/svg11.dtd">
<!-- Generated by graphviz version 6.0.1 (20220911.1526)
 -->
<!-- Title: elc::defs::memory::ptr_n::ptr_t::operator== Pages: 1 -->
<svg width="413pt" height="134pt"
 viewBox="0.00 0.00 413.00 134.00" xmlns="http://www.w3.org/2000/svg" xmlns:xlink="http://www.w3.org/1999/xlink">
<g id="graph0" class="graph" transform="scale(1 1) rotate(0) translate(4 130)">
<title>elc::defs::memory::ptr_n::ptr_t::operator==</title>
<!-- Node1 -->
<g id="node1" class="node">
<title>Node1</title>
<g id="a_node1"><a xlink:title=" ">
<polygon fill="#999999" stroke="#666666" points="117,-78 0,-78 0,-48 117,-48 117,-78"/>
<text text-anchor="start" x="8" y="-66" font-family="Helvetica,sans-Serif" font-size="10.00">elc::defs::memory::</text>
<text text-anchor="middle" x="58.5" y="-55" font-family="Helvetica,sans-Serif" font-size="10.00">ptr_n::ptr_t::operator==</text>
</a>
</g>
</g>
<!-- Node2 -->
<g id="node2" class="node">
<title>Node2</title>
<g id="a_node2"><a xlink:href="namespaceelc_1_1defs_1_1base.html#aae9be6874a7dd367db08a9a6e1d65639" target="_top" xlink:title="对值追加const">
<polygon fill="white" stroke="#666666" points="262,-126 160,-126 160,-96 262,-96 262,-126"/>
<text text-anchor="start" x="168" y="-114" font-family="Helvetica,sans-Serif" font-size="10.00">elc::defs::base::add</text>
<text text-anchor="middle" x="211" y="-103" font-family="Helvetica,sans-Serif" font-size="10.00">_const</text>
</a>
</g>
</g>
<!-- Node1&#45;&gt;Node2 -->
<g id="edge1" class="edge">
<title>Node1&#45;&gt;Node2</title>
<path fill="none" stroke="#63b8ff" d="M106.71,-78.06C121.41,-82.75 137.79,-87.97 153.09,-92.85"/>
<polygon fill="#63b8ff" stroke="#63b8ff" points="152.37,-96.29 162.96,-96 154.5,-89.62 152.37,-96.29"/>
</g>
<!-- Node3 -->
<g id="node3" class="node">
<title>Node3</title>
<g id="a_node3"><a xlink:href="structelc_1_1defs_1_1memory_1_1ptr__n_1_1ptr__t.html#afa7ec8ea3b1c71df95fdfc05b7d726d8" target="_top" xlink:title=" ">
<polygon fill="white" stroke="#666666" points="261.5,-78 160.5,-78 160.5,-48 261.5,-48 261.5,-78"/>
<text text-anchor="start" x="168.5" y="-66" font-family="Helvetica,sans-Serif" font-size="10.00">elc::defs::memory::</text>
<text text-anchor="middle" x="211" y="-55" font-family="Helvetica,sans-Serif" font-size="10.00">ptr_n::ptr_t::get</text>
</a>
</g>
</g>
<!-- Node1&#45;&gt;Node3 -->
<g id="edge2" class="edge">
<title>Node1&#45;&gt;Node3</title>
<path fill="none" stroke="#63b8ff" d="M117.26,-63C128.06,-63 139.38,-63 150.24,-63"/>
<polygon fill="#63b8ff" stroke="#63b8ff" points="150.49,-66.5 160.49,-63 150.49,-59.5 150.49,-66.5"/>
</g>
<!-- Node4 -->
<g id="node4" class="node">
<title>Node4</title>
<g id="a_node4"><a xlink:href="namespaceelc_1_1defs_1_1base.html#a7d7867f29ab0c6027c3d983f5f249fa0" target="_top" xlink:title="指针比较的重载接口，允许类对此进行自定义 elc内部的指针比较应当视情况使用默认配置或此重载接口">
<polygon fill="white" stroke="#666666" points="269,-30 153,-30 153,0 269,0 269,-30"/>
<text text-anchor="start" x="161" y="-18" font-family="Helvetica,sans-Serif" font-size="10.00">elc::defs::base::pointer</text>
<text text-anchor="middle" x="211" y="-7" font-family="Helvetica,sans-Serif" font-size="10.00">_equal</text>
</a>
</g>
</g>
<!-- Node1&#45;&gt;Node4 -->
<g id="edge3" class="edge">
<title>Node1&#45;&gt;Node4</title>
<path fill="none" stroke="#63b8ff" d="M106.71,-47.94C121.41,-43.25 137.79,-38.03 153.09,-33.15"/>
<polygon fill="#63b8ff" stroke="#63b8ff" points="154.5,-36.38 162.96,-30 152.37,-29.71 154.5,-36.38"/>
</g>
<!-- Node5 -->
<g id="node5" class="node">
<title>Node5</title>
<g id="a_node5"><a xlink:href="namespaceelc_1_1defs_1_1base.html#adbc7bf5e482480d8dd0fe0ac40dbccea" target="_top" xlink:title=" ">
<polygon fill="white" stroke="#666666" points="405,-30 305,-30 305,0 405,0 405,-30"/>
<text text-anchor="start" x="313" y="-18" font-family="Helvetica,sans-Serif" font-size="10.00">elc::defs::base::the</text>
<text text-anchor="middle" x="355" y="-7" font-family="Helvetica,sans-Serif" font-size="10.00">_pointer_equal</text>
</a>
</g>
</g>
<!-- Node4&#45;&gt;Node5 -->
<g id="edge4" class="edge">
<title>Node4&#45;&gt;Node5</title>
<path fill="none" stroke="#63b8ff" d="M269.35,-15C277.67,-15 286.24,-15 294.6,-15"/>
<polygon fill="#63b8ff" stroke="#63b8ff" points="294.65,-18.5 304.65,-15 294.65,-11.5 294.65,-18.5"/>
</g>
</g>
</svg>
