<?xml version="1.0" encoding="UTF-8" standalone="no"?>
<!DOCTYPE svg PUBLIC "-//W3C//DTD SVG 1.1//EN"
 "http://www.w3.org/Graphics/SVG/1.1/DTD/svg11.dtd">
<!-- Generated by graphviz version 6.0.1 (20220911.1526)
 -->
<!-- Title: elc::defs::base::array_like_n::array_like_view_t::end Pages: 1 -->
<svg width="288pt" height="86pt"
 viewBox="0.00 0.00 288.00 86.00" xmlns="http://www.w3.org/2000/svg" xmlns:xlink="http://www.w3.org/1999/xlink">
<g id="graph0" class="graph" transform="scale(1 1) rotate(0) translate(4 82)">
<title>elc::defs::base::array_like_n::array_like_view_t::end</title>
<!-- Node1 -->
<g id="node1" class="node">
<title>Node1</title>
<g id="a_node1"><a xlink:title=" ">
<polygon fill="#999999" stroke="#666666" points="280,-59.5 161,-59.5 161,-18.5 280,-18.5 280,-59.5"/>
<text text-anchor="start" x="169" y="-47.5" font-family="Helvetica,sans-Serif" font-size="10.00">elc::defs::base::array</text>
<text text-anchor="start" x="169" y="-36.5" font-family="Helvetica,sans-Serif" font-size="10.00">_like_n::array_like_view</text>
<text text-anchor="middle" x="220.5" y="-25.5" font-family="Helvetica,sans-Serif" font-size="10.00">_t::end</text>
</a>
</g>
</g>
<!-- Node2 -->
<g id="node2" class="node">
<title>Node2</title>
<g id="a_node2"><a xlink:href="namespaceelc_1_1defs_1_1base_1_1range__n.html#a9cb7c2ca09bd752a8a3bd78f792bd259" target="_top" xlink:title="若成功找到匹配的数据串，返回其开头，若未找到，返回nullptr">
<polygon fill="white" stroke="#666666" points="117.5,-78 7.5,-78 7.5,-48 117.5,-48 117.5,-78"/>
<text text-anchor="start" x="15.5" y="-66" font-family="Helvetica,sans-Serif" font-size="10.00">elc::defs::base::range</text>
<text text-anchor="middle" x="62.5" y="-55" font-family="Helvetica,sans-Serif" font-size="10.00">_n::in_range</text>
</a>
</g>
</g>
<!-- Node1&#45;&gt;Node2 -->
<g id="edge1" class="edge">
<title>Node1&#45;&gt;Node2</title>
<path fill="none" stroke="#63b8ff" d="M150.87,-49.56C139.77,-51.27 128.42,-53.01 117.72,-54.66"/>
<polygon fill="#63b8ff" stroke="#63b8ff" points="151.62,-52.98 160.97,-48 150.55,-46.07 151.62,-52.98"/>
</g>
<!-- Node3 -->
<g id="node3" class="node">
<title>Node3</title>
<g id="a_node3"><a xlink:href="namespaceelc_1_1defs_1_1base_1_1range__n.html#a7de35b587745884ffb0468a9551ee579" target="_top" xlink:title="若成功找到匹配的数据串，返回其开头，若未找到，返回nullptr">
<polygon fill="white" stroke="#666666" points="125,-30 0,-30 0,0 125,0 125,-30"/>
<text text-anchor="start" x="8" y="-18" font-family="Helvetica,sans-Serif" font-size="10.00">elc::defs::base::range</text>
<text text-anchor="middle" x="62.5" y="-7" font-family="Helvetica,sans-Serif" font-size="10.00">_n::in_range_but_reverse</text>
</a>
</g>
</g>
<!-- Node1&#45;&gt;Node3 -->
<g id="edge2" class="edge">
<title>Node1&#45;&gt;Node3</title>
<path fill="none" stroke="#63b8ff" d="M151,-28.46C142.42,-27.14 133.69,-25.8 125.23,-24.5"/>
<polygon fill="#63b8ff" stroke="#63b8ff" points="150.55,-31.93 160.97,-30 151.62,-25.02 150.55,-31.93"/>
</g>
</g>
</svg>
