<?xml version="1.0" encoding="UTF-8" standalone="no"?>
<!DOCTYPE svg PUBLIC "-//W3C//DTD SVG 1.1//EN"
 "http://www.w3.org/Graphics/SVG/1.1/DTD/svg11.dtd">
<!-- Generated by graphviz version 6.0.1 (20220911.1526)
 -->
<!-- Title: elc::defs::package_symbol_loader_n::package_symbol_loader_t::package_symbol_loader_t Pages: 1 -->
<svg width="428pt" height="62pt"
 viewBox="0.00 0.00 428.00 61.50" xmlns="http://www.w3.org/2000/svg" xmlns:xlink="http://www.w3.org/1999/xlink">
<g id="graph0" class="graph" transform="scale(1 1) rotate(0) translate(4 57.5)">
<title>elc::defs::package_symbol_loader_n::package_symbol_loader_t::package_symbol_loader_t</title>
<!-- Node1 -->
<g id="node1" class="node">
<title>Node1</title>
<g id="a_node1"><a xlink:title=" ">
<polygon fill="#999999" stroke="#666666" points="138,-52 0,-52 0,0 138,0 138,-52"/>
<text text-anchor="start" x="8" y="-40" font-family="Helvetica,sans-Serif" font-size="10.00">elc::defs::package</text>
<text text-anchor="start" x="8" y="-29" font-family="Helvetica,sans-Serif" font-size="10.00">_symbol_loader_n::package</text>
<text text-anchor="start" x="8" y="-18" font-family="Helvetica,sans-Serif" font-size="10.00">_symbol_loader_t::package</text>
<text text-anchor="middle" x="69" y="-7" font-family="Helvetica,sans-Serif" font-size="10.00">_symbol_loader_t</text>
</a>
</g>
</g>
<!-- Node2 -->
<g id="node2" class="node">
<title>Node2</title>
<g id="a_node2"><a xlink:href="namespaceelc_1_1_a_p_is_1_1die.html#a28cf7600d7c7ef256be89d56df83e293" target="_top" xlink:title="同 die ，但是有详细的错误信息">
<polygon fill="white" stroke="#666666" points="290,-35.5 174,-35.5 174,-16.5 290,-16.5 290,-35.5"/>
<text text-anchor="middle" x="232" y="-23.5" font-family="Helvetica,sans-Serif" font-size="10.00">elc::APIs::die::die_with</text>
</a>
</g>
</g>
<!-- Node1&#45;&gt;Node2 -->
<g id="edge1" class="edge">
<title>Node1&#45;&gt;Node2</title>
<path fill="none" stroke="#63b8ff" d="M138.28,-26C146.69,-26 155.28,-26 163.67,-26"/>
<polygon fill="#63b8ff" stroke="#63b8ff" points="163.79,-29.5 173.79,-26 163.79,-22.5 163.79,-29.5"/>
</g>
<!-- Node2&#45;&gt;Node2 -->
<g id="edge4" class="edge">
<title>Node2&#45;&gt;Node2</title>
<path fill="none" stroke="#63b8ff" d="M210.27,-35.58C199.7,-44.23 206.94,-53.5 232,-53.5 248.05,-53.5 256.8,-49.7 258.23,-44.69"/>
<polygon fill="#63b8ff" stroke="#63b8ff" points="261.3,-43 253.73,-35.58 255.02,-46.1 261.3,-43"/>
</g>
<!-- Node3 -->
<g id="node3" class="node">
<title>Node3</title>
<g id="a_node3"><a xlink:href="namespaceelc_1_1_a_p_is_1_1die.html#a3ccd3adb91ebb3e2322baf0fed97fce6" target="_top" xlink:title="终止整个程序并可能的触发断点或输出错误信息">
<polygon fill="white" stroke="#666666" points="420,-35.5 326,-35.5 326,-16.5 420,-16.5 420,-35.5"/>
<text text-anchor="middle" x="373" y="-23.5" font-family="Helvetica,sans-Serif" font-size="10.00">elc::APIs::die::die</text>
</a>
</g>
</g>
<!-- Node2&#45;&gt;Node3 -->
<g id="edge2" class="edge">
<title>Node2&#45;&gt;Node3</title>
<path fill="none" stroke="#63b8ff" d="M290.34,-26C298.74,-26 307.38,-26 315.76,-26"/>
<polygon fill="#63b8ff" stroke="#63b8ff" points="315.81,-29.5 325.81,-26 315.81,-22.5 315.81,-29.5"/>
</g>
<!-- Node3&#45;&gt;Node3 -->
<g id="edge3" class="edge">
<title>Node3&#45;&gt;Node3</title>
<path fill="none" stroke="#63b8ff" d="M351.27,-35.58C340.7,-44.23 347.94,-53.5 373,-53.5 389.05,-53.5 397.8,-49.7 399.23,-44.69"/>
<polygon fill="#63b8ff" stroke="#63b8ff" points="402.3,-43 394.73,-35.58 396.02,-46.1 402.3,-43"/>
</g>
</g>
</svg>
