<?xml version="1.0" encoding="UTF-8" standalone="no"?>
<!DOCTYPE svg PUBLIC "-//W3C//DTD SVG 1.1//EN"
 "http://www.w3.org/Graphics/SVG/1.1/DTD/svg11.dtd">
<!-- Generated by graphviz version 6.0.1 (20220911.1526)
 -->
<!-- Title: elc::defs::string_n::string_t::arec_set Pages: 1 -->
<svg width="238pt" height="108pt"
 viewBox="0.00 0.00 238.00 108.00" xmlns="http://www.w3.org/2000/svg" xmlns:xlink="http://www.w3.org/1999/xlink">
<g id="graph0" class="graph" transform="scale(1 1) rotate(0) translate(4 104)">
<title>elc::defs::string_n::string_t::arec_set</title>
<!-- Node1 -->
<g id="node1" class="node">
<title>Node1</title>
<g id="a_node1"><a xlink:title=" ">
<polygon fill="#999999" stroke="#666666" points="230,-64.5 132,-64.5 132,-34.5 230,-34.5 230,-64.5"/>
<text text-anchor="start" x="140" y="-52.5" font-family="Helvetica,sans-Serif" font-size="10.00">elc::defs::string_n</text>
<text text-anchor="middle" x="181" y="-41.5" font-family="Helvetica,sans-Serif" font-size="10.00">::string_t::arec_set</text>
</a>
</g>
</g>
<!-- Node2 -->
<g id="node2" class="node">
<title>Node2</title>
<g id="a_node2"><a xlink:href="classelc_1_1defs_1_1string__n_1_1string__t_1_1arec__t.html#a57c7e9a110cae44fa8e92705a518f316" target="_top" xlink:title=" ">
<polygon fill="white" stroke="#666666" points="95,-100 1,-100 1,-59 95,-59 95,-100"/>
<text text-anchor="start" x="9" y="-88" font-family="Helvetica,sans-Serif" font-size="10.00">elc::defs::string_n</text>
<text text-anchor="start" x="9" y="-77" font-family="Helvetica,sans-Serif" font-size="10.00">::string_t::arec_t::</text>
<text text-anchor="middle" x="48" y="-66" font-family="Helvetica,sans-Serif" font-size="10.00">operator=</text>
</a>
</g>
</g>
<!-- Node1&#45;&gt;Node2 -->
<g id="edge1" class="edge">
<title>Node1&#45;&gt;Node2</title>
<path fill="none" stroke="#63b8ff" d="M121.99,-62.79C113.05,-64.83 103.92,-66.92 95.28,-68.9"/>
<polygon fill="#63b8ff" stroke="#63b8ff" points="123,-66.14 131.96,-60.5 121.44,-59.32 123,-66.14"/>
</g>
<!-- Node3 -->
<g id="node3" class="node">
<title>Node3</title>
<g id="a_node3"><a xlink:href="classelc_1_1defs_1_1string__n_1_1string__t_1_1floating__arec__t.html#a22df93fad285d80555d6b71370f999d2" target="_top" xlink:title=" ">
<polygon fill="white" stroke="#666666" points="96,-41 0,-41 0,0 96,0 96,-41"/>
<text text-anchor="start" x="8" y="-29" font-family="Helvetica,sans-Serif" font-size="10.00">elc::defs::string_n</text>
<text text-anchor="start" x="8" y="-18" font-family="Helvetica,sans-Serif" font-size="10.00">::string_t::floating</text>
<text text-anchor="middle" x="48" y="-7" font-family="Helvetica,sans-Serif" font-size="10.00">_arec_t::operator=</text>
</a>
</g>
</g>
<!-- Node1&#45;&gt;Node3 -->
<g id="edge2" class="edge">
<title>Node1&#45;&gt;Node3</title>
<path fill="none" stroke="#63b8ff" d="M121.95,-36.65C113.33,-34.74 104.52,-32.79 96.16,-30.94"/>
<polygon fill="#63b8ff" stroke="#63b8ff" points="121.44,-40.12 131.96,-38.87 122.96,-33.29 121.44,-40.12"/>
</g>
</g>
</svg>
