<?xml version="1.0" encoding="UTF-8" standalone="no"?>
<!DOCTYPE svg PUBLIC "-//W3C//DTD SVG 1.1//EN"
 "http://www.w3.org/Graphics/SVG/1.1/DTD/svg11.dtd">
<!-- Generated by graphviz version 6.0.1 (20220911.1526)
 -->
<!-- Title: elc::defs::core::node_like Pages: 1 -->
<!--zoomable 242 -->
<svg id="main" version="1.1" xmlns="http://www.w3.org/2000/svg" xmlns:xlink="http://www.w3.org/1999/xlink" xml:space="preserve" onload="init(evt)">
<style type="text/css"><![CDATA[
.edge:hover path { stroke: red; }
.edge:hover polygon { stroke: red; fill: red; }
]]></style>
<script type="text/javascript"><![CDATA[
var edges = document.getElementsByTagName('g');
if (edges && edges.length) {
  for (var i=0;i<edges.length;i++) {
    if (edges[i].id.substr(0,4)=='edge') {
      edges[i].setAttribute('class','edge');
    }
  }
}
]]></script>
        <defs>
                <circle id="rim" cx="0" cy="0" r="7"/>
                <circle id="rim2" cx="0" cy="0" r="3.5"/>
                <g id="zoomPlus">
                        <use xlink:href="#rim" fill="#404040">
                                <set attributeName="fill" to="#808080" begin="zoomplus.mouseover" end="zoomplus.mouseout"/>
                        </use>
                        <path d="M-4,0h8M0,-4v8" fill="none" stroke="white" stroke-width="1.5" pointer-events="none"/>
                </g>
                <g id="zoomMin">
                        <use xlink:href="#rim" fill="#404040">
                                <set attributeName="fill" to="#808080" begin="zoomminus.mouseover" end="zoomminus.mouseout"/>
                        </use>
                        <path d="M-4,0h8" fill="none" stroke="white" stroke-width="1.5" pointer-events="none"/>
                </g>
                <g id="dirArrow">
                        <path fill="none" stroke="white" stroke-width="1.5" d="M0,-3.0v7 M-2.5,-0.5L0,-3.0L2.5,-0.5"/>
                </g>
               <g id="resetDef">
                       <use xlink:href="#rim2" fill="#404040">
                               <set attributeName="fill" to="#808080" begin="reset.mouseover" end="reset.mouseout"/>
                       </use>
               </g>
        </defs>

<script type="text/javascript">
var viewWidth = 749;
var viewHeight = 242;
var sectionId = 'dynsection-0';
</script>
<script xlink:href="svgpan.js"/>
<svg id="graph" class="graph">
<g id="viewport">
<title>elc::defs::core::node_like</title>
<!-- Node1 -->
<g id="node1" class="node">
<title>Node1</title>
<g id="a_node1"><a xlink:title=" ">
<polygon fill="#999999" stroke="#666666" points="398,-126 273,-126 273,-107 398,-107 398,-126"/>
<text text-anchor="middle" x="335.5" y="-114" font-family="Helvetica,sans-Serif" font-size="10.00">elc::defs::core::node_like</text>
</a>
</g>
</g>
<!-- Node3 -->
<g id="node3" class="node">
<title>Node3</title>
<g id="a_node3"><a xlink:href="structelc_1_1defs_1_1core_1_1base__binary__function__node.html" target="_top" xlink:title=" ">
<polygon fill="white" stroke="#666666" points="564.5,-227.5 451.5,-227.5 451.5,-197.5 564.5,-197.5 564.5,-227.5"/>
<text text-anchor="start" x="459.5" y="-215.5" font-family="Helvetica,sans-Serif" font-size="10.00">elc::defs::core::base</text>
<text text-anchor="middle" x="508" y="-204.5" font-family="Helvetica,sans-Serif" font-size="10.00">_binary_function_node</text>
</a>
</g>
</g>
<!-- Node1&#45;&gt;Node3 -->
<g id="edge2" class="edge">
<title>Node1&#45;&gt;Node3</title>
<path fill="none" stroke="#63b8ff" d="M354.88,-132.89C373.65,-148.92 404.17,-173.09 434,-188.5 440.4,-191.81 447.35,-194.79 454.33,-197.43"/>
<polygon fill="#63b8ff" stroke="#63b8ff" points="356.98,-130.08 347.14,-126.17 352.39,-135.36 356.98,-130.08"/>
</g>
<!-- Node4 -->
<g id="node4" class="node">
<title>Node4</title>
<g id="a_node4"><a xlink:href="structelc_1_1defs_1_1core_1_1base__constexpr__t.html" target="_top" xlink:title=" ">
<polygon fill="white" stroke="#666666" points="560.5,-179.5 455.5,-179.5 455.5,-149.5 560.5,-149.5 560.5,-179.5"/>
<text text-anchor="start" x="463.5" y="-167.5" font-family="Helvetica,sans-Serif" font-size="10.00">elc::defs::core::base</text>
<text text-anchor="middle" x="508" y="-156.5" font-family="Helvetica,sans-Serif" font-size="10.00">_constexpr_t</text>
</a>
</g>
</g>
<!-- Node1&#45;&gt;Node4 -->
<g id="edge3" class="edge">
<title>Node1&#45;&gt;Node4</title>
<path fill="none" stroke="#63b8ff" d="M380.4,-128.86C403.33,-135.31 431.53,-143.25 455.48,-150"/>
<polygon fill="#63b8ff" stroke="#63b8ff" points="381.17,-125.44 370.59,-126.1 379.27,-132.18 381.17,-125.44"/>
</g>
<!-- Node8 -->
<g id="node8" class="node">
<title>Node8</title>
<g id="a_node8"><a xlink:href="structelc_1_1defs_1_1core_1_1binary__node__base__t.html" target="_top" xlink:title=" ">
<polygon fill="white" stroke="#666666" points="563,-131.5 453,-131.5 453,-101.5 563,-101.5 563,-131.5"/>
<text text-anchor="start" x="461" y="-119.5" font-family="Helvetica,sans-Serif" font-size="10.00">elc::defs::core::binary</text>
<text text-anchor="middle" x="508" y="-108.5" font-family="Helvetica,sans-Serif" font-size="10.00">_node_base_t</text>
</a>
</g>
</g>
<!-- Node1&#45;&gt;Node8 -->
<g id="edge7" class="edge">
<title>Node1&#45;&gt;Node8</title>
<path fill="none" stroke="#63b8ff" d="M408.28,-116.5C423.21,-116.5 438.71,-116.5 452.88,-116.5"/>
<polygon fill="#63b8ff" stroke="#63b8ff" points="408.05,-113 398.05,-116.5 408.05,-120 408.05,-113"/>
</g>
<!-- Node10 -->
<g id="node10" class="node">
<title>Node10</title>
<g id="a_node10"><a xlink:href="structelc_1_1defs_1_1core_1_1common__node.html" target="_top" xlink:title=" ">
<polygon fill="white" stroke="#666666" points="582,-83 434,-83 434,-64 582,-64 582,-83"/>
<text text-anchor="middle" x="508" y="-71" font-family="Helvetica,sans-Serif" font-size="10.00">elc::defs::core::common_node</text>
</a>
</g>
</g>
<!-- Node1&#45;&gt;Node10 -->
<g id="edge9" class="edge">
<title>Node1&#45;&gt;Node10</title>
<path fill="none" stroke="#63b8ff" d="M384.3,-104.44C411.17,-97.67 444.23,-89.33 469.27,-83.02"/>
<polygon fill="#63b8ff" stroke="#63b8ff" points="383.18,-101.12 374.34,-106.96 384.89,-107.91 383.18,-101.12"/>
</g>
<!-- Node11 -->
<g id="node11" class="node">
<title>Node11</title>
<g id="a_node11"><a xlink:href="structelc_1_1defs_1_1core_1_1cons.html" target="_top" xlink:title=" ">
<polygon fill="white" stroke="#666666" points="560.5,-46 455.5,-46 455.5,-27 560.5,-27 560.5,-46"/>
<text text-anchor="middle" x="508" y="-34" font-family="Helvetica,sans-Serif" font-size="10.00">elc::defs::core::cons</text>
</a>
</g>
</g>
<!-- Node1&#45;&gt;Node11 -->
<g id="edge10" class="edge">
<title>Node1&#45;&gt;Node11</title>
<path fill="none" stroke="#63b8ff" d="M356.88,-100.74C375.88,-86.75 405.5,-66.69 434,-54.5 441.8,-51.16 450.35,-48.36 458.76,-46.04"/>
<polygon fill="#63b8ff" stroke="#63b8ff" points="354.6,-98.08 348.7,-106.88 358.8,-103.68 354.6,-98.08"/>
</g>
<!-- Node2 -->
<g id="node2" class="node">
<title>Node2</title>
<g id="a_node2"><a xlink:title=" ">
<polygon fill="white" stroke="#666666" points="237,-148 0,-148 0,-85 237,-85 237,-148"/>
<text text-anchor="start" x="8" y="-136" font-family="Helvetica,sans-Serif" font-size="10.00">type_info_t&lt; node_like</text>
<text text-anchor="middle" x="118.5" y="-125" font-family="Helvetica,sans-Serif" font-size="10.00"> &gt;:: template </text>
<text text-anchor="start" x="8" y="-114" font-family="Helvetica,sans-Serif" font-size="10.00">					with_common_attribute</text>
<text text-anchor="start" x="8" y="-103" font-family="Helvetica,sans-Serif" font-size="10.00">&lt; abstract_base, weak_ref</text>
<text text-anchor="middle" x="118.5" y="-92" font-family="Helvetica,sans-Serif" font-size="10.00">_able, replace_able, ref_able &gt;</text>
</a>
</g>
</g>
<!-- Node2&#45;&gt;Node1 -->
<g id="edge1" class="edge">
<title>Node2&#45;&gt;Node1</title>
<path fill="none" stroke="#63b8ff" d="M247.14,-116.5C256.01,-116.5 264.69,-116.5 272.93,-116.5"/>
<polygon fill="#63b8ff" stroke="#63b8ff" points="247.07,-113 237.07,-116.5 247.06,-120 247.07,-113"/>
</g>
<!-- Node5 -->
<g id="node5" class="node">
<title>Node5</title>
<g id="a_node5"><a xlink:href="structelc_1_1defs_1_1core_1_1nil__t.html" target="_top" xlink:title=" ">
<polygon fill="white" stroke="#666666" points="730.5,-234 628.5,-234 628.5,-215 730.5,-215 730.5,-234"/>
<text text-anchor="middle" x="679.5" y="-222" font-family="Helvetica,sans-Serif" font-size="10.00">elc::defs::core::nil_t</text>
</a>
</g>
</g>
<!-- Node4&#45;&gt;Node5 -->
<g id="edge4" class="edge">
<title>Node4&#45;&gt;Node5</title>
<path fill="none" stroke="#63b8ff" d="M567.54,-182.9C572.46,-184.71 577.34,-186.58 582,-188.5 598.54,-195.31 601.36,-199.92 618,-206.5 625.85,-209.6 634.45,-212.47 642.64,-214.96"/>
<polygon fill="#63b8ff" stroke="#63b8ff" points="568.65,-179.58 558.05,-179.53 566.3,-186.18 568.65,-179.58"/>
</g>
<!-- Node6 -->
<g id="node6" class="node">
<title>Node6</title>
<g id="a_node6"><a xlink:href="structelc_1_1defs_1_1core_1_1t__t.html" target="_top" xlink:title=" ">
<polygon fill="white" stroke="#666666" points="727,-197 632,-197 632,-178 727,-178 727,-197"/>
<text text-anchor="middle" x="679.5" y="-185" font-family="Helvetica,sans-Serif" font-size="10.00">elc::defs::core::t_t</text>
</a>
</g>
</g>
<!-- Node4&#45;&gt;Node6 -->
<g id="edge5" class="edge">
<title>Node4&#45;&gt;Node6</title>
<path fill="none" stroke="#63b8ff" d="M570.82,-172.89C591.01,-175.63 613.07,-178.62 631.93,-181.18"/>
<polygon fill="#63b8ff" stroke="#63b8ff" points="571.16,-169.4 560.78,-171.53 570.22,-176.34 571.16,-169.4"/>
</g>
<!-- Node7 -->
<g id="node7" class="node">
<title>Node7</title>
<g id="a_node7"><a xlink:href="structelc_1_1defs_1_1core_1_1void__t.html" target="_top" xlink:title=" ">
<polygon fill="white" stroke="#666666" points="734,-160 625,-160 625,-141 734,-141 734,-160"/>
<text text-anchor="middle" x="679.5" y="-148" font-family="Helvetica,sans-Serif" font-size="10.00">elc::defs::core::void_t</text>
</a>
</g>
</g>
<!-- Node4&#45;&gt;Node7 -->
<g id="edge6" class="edge">
<title>Node4&#45;&gt;Node7</title>
<path fill="none" stroke="#63b8ff" d="M571.01,-159.38C588.71,-157.92 607.84,-156.34 624.99,-154.92"/>
<polygon fill="#63b8ff" stroke="#63b8ff" points="570.45,-155.91 560.78,-160.22 571.03,-162.89 570.45,-155.91"/>
</g>
<!-- Node9 -->
<g id="node9" class="node">
<title>Node9</title>
<g id="a_node9"><a xlink:href="structelc_1_1defs_1_1core_1_1binary__node__t.html" target="_top" xlink:title=" ">
<polygon fill="white" stroke="#666666" points="734.5,-122.5 624.5,-122.5 624.5,-92.5 734.5,-92.5 734.5,-122.5"/>
<text text-anchor="start" x="632.5" y="-110.5" font-family="Helvetica,sans-Serif" font-size="10.00">elc::defs::core::binary</text>
<text text-anchor="middle" x="679.5" y="-99.5" font-family="Helvetica,sans-Serif" font-size="10.00">_node_t&lt; T &gt;</text>
</a>
</g>
</g>
<!-- Node8&#45;&gt;Node9 -->
<g id="edge8" class="edge">
<title>Node8&#45;&gt;Node9</title>
<path fill="none" stroke="#63b8ff" d="M573.39,-113.08C590.19,-112.19 608.12,-111.24 624.34,-110.38"/>
<polygon fill="#63b8ff" stroke="#63b8ff" points="572.9,-109.6 563.1,-113.63 573.27,-116.59 572.9,-109.6"/>
</g>
<!-- Node12 -->
<g id="node12" class="node">
<title>Node12</title>
<g id="a_node12"><a xlink:href="structelc_1_1defs_1_1core_1_1code__list.html" target="_top" xlink:title=" ">
<polygon fill="white" stroke="#666666" points="741,-56 618,-56 618,-37 741,-37 741,-56"/>
<text text-anchor="middle" x="679.5" y="-44" font-family="Helvetica,sans-Serif" font-size="10.00">elc::defs::core::code_list</text>
</a>
</g>
</g>
<!-- Node11&#45;&gt;Node12 -->
<g id="edge11" class="edge">
<title>Node11&#45;&gt;Node12</title>
<path fill="none" stroke="#63b8ff" d="M571.13,-40.17C586.36,-41.06 602.65,-42.03 617.82,-42.92"/>
<polygon fill="#63b8ff" stroke="#63b8ff" points="570.97,-36.65 560.78,-39.55 570.55,-43.64 570.97,-36.65"/>
</g>
<!-- Node13 -->
<g id="node13" class="node">
<title>Node13</title>
<g id="a_node13"><a xlink:href="structelc_1_1defs_1_1core_1_1expr.html" target="_top" xlink:title=" ">
<polygon fill="white" stroke="#666666" points="731,-19 628,-19 628,0 731,0 731,-19"/>
<text text-anchor="middle" x="679.5" y="-7" font-family="Helvetica,sans-Serif" font-size="10.00">elc::defs::core::expr</text>
</a>
</g>
</g>
<!-- Node11&#45;&gt;Node13 -->
<g id="edge12" class="edge">
<title>Node11&#45;&gt;Node13</title>
<path fill="none" stroke="#63b8ff" d="M570.73,-26.67C589.52,-23.67 609.95,-20.42 627.91,-17.56"/>
<polygon fill="#63b8ff" stroke="#63b8ff" points="570.1,-23.22 560.78,-28.25 571.2,-30.14 570.1,-23.22"/>
</g>
</g>
</svg>
        <g id="navigator" transform="translate(0 0)" fill="#404254">
                <rect fill="#f2f5e9" fill-opacity="0.5" stroke="#606060" stroke-width=".5" x="0" y="0" width="60" height="60"/>
                <use id="zoomplus" xlink:href="#zoomPlus" x="17" y="9" onmousedown="handleZoom(evt,'in')"/>
                <use id="zoomminus" xlink:href="#zoomMin" x="42" y="9" onmousedown="handleZoom(evt,'out')"/>
                <use id="reset" xlink:href="#resetDef" x="30" y="36" onmousedown="handleReset()"/>
                <g id="arrowUp" xlink:href="#dirArrow" transform="translate(30 24)" onmousedown="handlePan(0,-1)">
                  <use xlink:href="#rim" fill="#404040">
                        <set attributeName="fill" to="#808080" begin="arrowUp.mouseover" end="arrowUp.mouseout"/>
                  </use>
                  <path fill="none" stroke="white" stroke-width="1.5" d="M0,-3.0v7 M-2.5,-0.5L0,-3.0L2.5,-0.5"/>
                </g>
                <g id="arrowRight" xlink:href="#dirArrow" transform="rotate(90) translate(36 -43)" onmousedown="handlePan(1,0)">
                  <use xlink:href="#rim" fill="#404040">
                        <set attributeName="fill" to="#808080" begin="arrowRight.mouseover" end="arrowRight.mouseout"/>
                  </use>
                  <path fill="none" stroke="white" stroke-width="1.5" d="M0,-3.0v7 M-2.5,-0.5L0,-3.0L2.5,-0.5"/>
                </g>
                <g id="arrowDown" xlink:href="#dirArrow" transform="rotate(180) translate(-30 -48)" onmousedown="handlePan(0,1)">
                  <use xlink:href="#rim" fill="#404040">
                        <set attributeName="fill" to="#808080" begin="arrowDown.mouseover" end="arrowDown.mouseout"/>
                  </use>
                  <path fill="none" stroke="white" stroke-width="1.5" d="M0,-3.0v7 M-2.5,-0.5L0,-3.0L2.5,-0.5"/>
                </g>
                <g id="arrowLeft" xlink:href="#dirArrow" transform="rotate(270) translate(-36 17)" onmousedown="handlePan(-1,0)">
                  <use xlink:href="#rim" fill="#404040">
                        <set attributeName="fill" to="#808080" begin="arrowLeft.mouseover" end="arrowLeft.mouseout"/>
                  </use>
                  <path fill="none" stroke="white" stroke-width="1.5" d="M0,-3.0v7 M-2.5,-0.5L0,-3.0L2.5,-0.5"/>
                </g>
        </g>
        <svg viewBox="0 0 15 15" width="100%" height="30px" preserveAspectRatio="xMaxYMin meet">
         <g id="arrow_out" transform="scale(0.3 0.3)">
          <a xlink:href="structelc_1_1defs_1_1core_1_1node__like__inherit__graph_org.svg" target="_base">
           <rect id="button" ry="5" rx="5" y="6" x="6" height="38" width="38"
                fill="#f2f5e9" fill-opacity="0.5" stroke="#606060" stroke-width="1.0"/>
           <path id="arrow"
             d="M 11.500037,31.436501 C 11.940474,20.09759 22.043105,11.32322 32.158766,21.979434 L 37.068811,17.246167 C 37.068811,17.246167 37.088388,32 37.088388,32 L 22.160133,31.978069 C 22.160133,31.978069 26.997745,27.140456 26.997745,27.140456 C 18.528582,18.264221 13.291696,25.230495 11.500037,31.436501 z"
             style="fill:#404040;"/>
          </a>
         </g>
        </svg>
</svg>
