<?xml version="1.0" encoding="UTF-8" standalone="no"?>
<!DOCTYPE svg PUBLIC "-//W3C//DTD SVG 1.1//EN"
 "http://www.w3.org/Graphics/SVG/1.1/DTD/svg11.dtd">
<!-- Generated by graphviz version 6.0.1 (20220911.1526)
 -->
<!-- Title: elc::defs::stream_n::base_stream Pages: 1 -->
<!--zoomable 326 -->
<svg id="main" version="1.1" xmlns="http://www.w3.org/2000/svg" xmlns:xlink="http://www.w3.org/1999/xlink" xml:space="preserve" onload="init(evt)">
<style type="text/css"><![CDATA[
.edge:hover path { stroke: red; }
.edge:hover polygon { stroke: red; fill: red; }
]]></style>
<script type="text/javascript"><![CDATA[
var edges = document.getElementsByTagName('g');
if (edges && edges.length) {
  for (var i=0;i<edges.length;i++) {
    if (edges[i].id.substr(0,4)=='edge') {
      edges[i].setAttribute('class','edge');
    }
  }
}
]]></script>
        <defs>
                <circle id="rim" cx="0" cy="0" r="7"/>
                <circle id="rim2" cx="0" cy="0" r="3.5"/>
                <g id="zoomPlus">
                        <use xlink:href="#rim" fill="#404040">
                                <set attributeName="fill" to="#808080" begin="zoomplus.mouseover" end="zoomplus.mouseout"/>
                        </use>
                        <path d="M-4,0h8M0,-4v8" fill="none" stroke="white" stroke-width="1.5" pointer-events="none"/>
                </g>
                <g id="zoomMin">
                        <use xlink:href="#rim" fill="#404040">
                                <set attributeName="fill" to="#808080" begin="zoomminus.mouseover" end="zoomminus.mouseout"/>
                        </use>
                        <path d="M-4,0h8" fill="none" stroke="white" stroke-width="1.5" pointer-events="none"/>
                </g>
                <g id="dirArrow">
                        <path fill="none" stroke="white" stroke-width="1.5" d="M0,-3.0v7 M-2.5,-0.5L0,-3.0L2.5,-0.5"/>
                </g>
               <g id="resetDef">
                       <use xlink:href="#rim2" fill="#404040">
                               <set attributeName="fill" to="#808080" begin="reset.mouseover" end="reset.mouseout"/>
                       </use>
               </g>
        </defs>

<script type="text/javascript">
var viewWidth = 721;
var viewHeight = 326;
var sectionId = 'dynsection-0';
</script>
<script xlink:href="svgpan.js"/>
<svg id="graph" class="graph">
<g id="viewport">
<title>elc::defs::stream_n::base_stream</title>
<!-- Node1 -->
<g id="node1" class="node">
<title>Node1</title>
<g id="a_node1"><a xlink:title=" ">
<polygon fill="#999999" stroke="#666666" points="100,-174 0,-174 0,-144 100,-144 100,-174"/>
<text text-anchor="start" x="8" y="-162" font-family="Helvetica,sans-Serif" font-size="10.00">elc::defs::stream_n</text>
<text text-anchor="middle" x="50" y="-151" font-family="Helvetica,sans-Serif" font-size="10.00">::base_stream</text>
</a>
</g>
</g>
<!-- Node2 -->
<g id="node2" class="node">
<title>Node2</title>
<g id="a_node2"><a xlink:href="structelc_1_1defs_1_1stream__n_1_1base__istream.html" target="_top" xlink:title=" ">
<polygon fill="white" stroke="#666666" points="236,-126 136,-126 136,-96 236,-96 236,-126"/>
<text text-anchor="start" x="144" y="-114" font-family="Helvetica,sans-Serif" font-size="10.00">elc::defs::stream_n</text>
<text text-anchor="middle" x="186" y="-103" font-family="Helvetica,sans-Serif" font-size="10.00">::base_istream</text>
</a>
</g>
</g>
<!-- Node1&#45;&gt;Node2 -->
<g id="edge1" class="edge">
<title>Node1&#45;&gt;Node2</title>
<path fill="none" stroke="#63b8ff" d="M102.6,-140.51C116.01,-135.71 130.28,-130.6 143.12,-126"/>
<polygon fill="#63b8ff" stroke="#63b8ff" points="101.26,-137.28 93.03,-143.94 103.63,-143.87 101.26,-137.28"/>
</g>
<!-- Node15 -->
<g id="node15" class="node">
<title>Node15</title>
<g id="a_node15"><a xlink:href="structelc_1_1defs_1_1stream__n_1_1base__ostream.html" target="_top" xlink:title=" ">
<polygon fill="white" stroke="#666666" points="236,-222 136,-222 136,-192 236,-192 236,-222"/>
<text text-anchor="start" x="144" y="-210" font-family="Helvetica,sans-Serif" font-size="10.00">elc::defs::stream_n</text>
<text text-anchor="middle" x="186" y="-199" font-family="Helvetica,sans-Serif" font-size="10.00">::base_ostream</text>
</a>
</g>
</g>
<!-- Node1&#45;&gt;Node15 -->
<g id="edge23" class="edge">
<title>Node1&#45;&gt;Node15</title>
<path fill="none" stroke="#63b8ff" d="M102.6,-177.49C116.01,-182.29 130.28,-187.4 143.12,-192"/>
<polygon fill="#63b8ff" stroke="#63b8ff" points="103.63,-174.13 93.03,-174.06 101.26,-180.72 103.63,-174.13"/>
</g>
<!-- Node21 -->
<g id="node21" class="node">
<title>Node21</title>
<g id="a_node21"><a xlink:href="structelc_1_1defs_1_1stream__n_1_1noexcept__stream.html" target="_top" xlink:title=" ">
<polygon fill="white" stroke="#666666" points="236,-174 136,-174 136,-144 236,-144 236,-174"/>
<text text-anchor="start" x="144" y="-162" font-family="Helvetica,sans-Serif" font-size="10.00">elc::defs::stream_n</text>
<text text-anchor="middle" x="186" y="-151" font-family="Helvetica,sans-Serif" font-size="10.00">::noexcept_stream</text>
</a>
</g>
</g>
<!-- Node1&#45;&gt;Node21 -->
<g id="edge37" class="edge">
<title>Node1&#45;&gt;Node21</title>
<path fill="none" stroke="#63b8ff" d="M110.4,-159C118.91,-159 127.59,-159 135.87,-159"/>
<polygon fill="#63b8ff" stroke="#63b8ff" points="110.14,-155.5 100.14,-159 110.14,-162.5 110.14,-155.5"/>
</g>
<!-- Node3 -->
<g id="node3" class="node">
<title>Node3</title>
<g id="a_node3"><a xlink:href="structelc_1_1defs_1_1stream__n_1_1base__iostream.html" target="_top" xlink:title=" ">
<polygon fill="white" stroke="#666666" points="373.5,-174 273.5,-174 273.5,-144 373.5,-144 373.5,-174"/>
<text text-anchor="start" x="281.5" y="-162" font-family="Helvetica,sans-Serif" font-size="10.00">elc::defs::stream_n</text>
<text text-anchor="middle" x="323.5" y="-151" font-family="Helvetica,sans-Serif" font-size="10.00">::base_iostream</text>
</a>
</g>
</g>
<!-- Node2&#45;&gt;Node3 -->
<g id="edge2" class="edge">
<title>Node2&#45;&gt;Node3</title>
<path fill="none" stroke="#63b8ff" d="M239.18,-129.49C252.74,-134.29 267.17,-139.4 280.15,-144"/>
<polygon fill="#63b8ff" stroke="#63b8ff" points="240.1,-126.1 229.5,-126.06 237.76,-132.69 240.1,-126.1"/>
</g>
<!-- Node10 -->
<g id="node10" class="node">
<title>Node10</title>
<g id="a_node10"><a xlink:href="structelc_1_1defs_1_1stream__n_1_1data__istream.html" target="_top" xlink:title=" ">
<polygon fill="white" stroke="#666666" points="373.5,-30 273.5,-30 273.5,0 373.5,0 373.5,-30"/>
<text text-anchor="start" x="281.5" y="-18" font-family="Helvetica,sans-Serif" font-size="10.00">elc::defs::stream_n</text>
<text text-anchor="middle" x="323.5" y="-7" font-family="Helvetica,sans-Serif" font-size="10.00">::data_istream</text>
</a>
</g>
</g>
<!-- Node2&#45;&gt;Node10 -->
<g id="edge11" class="edge">
<title>Node2&#45;&gt;Node10</title>
<path fill="none" stroke="#63b8ff" d="M209.8,-88.84C226.22,-73.62 249.38,-53.6 272,-39 276.89,-35.84 282.27,-32.84 287.63,-30.11"/>
<polygon fill="#63b8ff" stroke="#63b8ff" points="207.2,-86.48 202.32,-95.88 212,-91.58 207.2,-86.48"/>
</g>
<!-- Node12 -->
<g id="node12" class="node">
<title>Node12</title>
<g id="a_node12"><a xlink:href="structelc_1_1defs_1_1stream__n_1_1noexcept__istream.html" target="_top" xlink:title=" ">
<polygon fill="white" stroke="#666666" points="373.5,-78 273.5,-78 273.5,-48 373.5,-48 373.5,-78"/>
<text text-anchor="start" x="281.5" y="-66" font-family="Helvetica,sans-Serif" font-size="10.00">elc::defs::stream_n</text>
<text text-anchor="middle" x="323.5" y="-55" font-family="Helvetica,sans-Serif" font-size="10.00">::noexcept_istream</text>
</a>
</g>
</g>
<!-- Node2&#45;&gt;Node12 -->
<g id="edge15" class="edge">
<title>Node2&#45;&gt;Node12</title>
<path fill="none" stroke="#63b8ff" d="M239.18,-92.51C252.74,-87.71 267.17,-82.6 280.15,-78"/>
<polygon fill="#63b8ff" stroke="#63b8ff" points="237.76,-89.31 229.5,-95.94 240.1,-95.9 237.76,-89.31"/>
</g>
<!-- Node14 -->
<g id="node14" class="node">
<title>Node14</title>
<g id="a_node14"><a xlink:href="structelc_1_1defs_1_1stream__n_1_1string__istream.html" target="_top" xlink:title=" ">
<polygon fill="white" stroke="#666666" points="373.5,-222 273.5,-222 273.5,-192 373.5,-192 373.5,-222"/>
<text text-anchor="start" x="281.5" y="-210" font-family="Helvetica,sans-Serif" font-size="10.00">elc::defs::stream_n</text>
<text text-anchor="middle" x="323.5" y="-199" font-family="Helvetica,sans-Serif" font-size="10.00">::string_istream</text>
</a>
</g>
</g>
<!-- Node2&#45;&gt;Node14 -->
<g id="edge20" class="edge">
<title>Node2&#45;&gt;Node14</title>
<path fill="none" stroke="#63b8ff" d="M231.28,-131.4C232.91,-132.55 234.49,-133.75 236,-135 256.54,-152 251.36,-166.12 272,-183 276.06,-186.32 280.65,-189.3 285.37,-191.95"/>
<polygon fill="#63b8ff" stroke="#63b8ff" points="233.09,-128.4 222.76,-126.01 229.34,-134.31 233.09,-128.4"/>
</g>
<!-- Node4 -->
<g id="node4" class="node">
<title>Node4</title>
<g id="a_node4"><a xlink:href="structelc_1_1defs_1_1stream__n_1_1data__iostream.html" target="_top" xlink:title=" ">
<polygon fill="white" stroke="#666666" points="527,-78 427,-78 427,-48 527,-48 527,-78"/>
<text text-anchor="start" x="435" y="-66" font-family="Helvetica,sans-Serif" font-size="10.00">elc::defs::stream_n</text>
<text text-anchor="middle" x="477" y="-55" font-family="Helvetica,sans-Serif" font-size="10.00">::data_iostream</text>
</a>
</g>
</g>
<!-- Node3&#45;&gt;Node4 -->
<g id="edge3" class="edge">
<title>Node3&#45;&gt;Node4</title>
<path fill="none" stroke="#63b8ff" d="M370.23,-138.59C371.88,-137.44 373.48,-136.24 375,-135 395.64,-118.12 389.62,-102.94 411,-87 415.82,-83.41 421.24,-80.3 426.84,-77.63"/>
<polygon fill="#63b8ff" stroke="#63b8ff" points="368.27,-135.69 361.63,-143.95 371.97,-141.63 368.27,-135.69"/>
</g>
<!-- Node6 -->
<g id="node6" class="node">
<title>Node6</title>
<g id="a_node6"><a xlink:href="structelc_1_1defs_1_1stream__n_1_1noexcept__iostream.html" target="_top" xlink:title=" ">
<polygon fill="white" stroke="#666666" points="529.5,-174 424.5,-174 424.5,-144 529.5,-144 529.5,-174"/>
<text text-anchor="start" x="432.5" y="-162" font-family="Helvetica,sans-Serif" font-size="10.00">elc::defs::stream_n</text>
<text text-anchor="middle" x="477" y="-151" font-family="Helvetica,sans-Serif" font-size="10.00">::noexcept_iostream</text>
</a>
</g>
</g>
<!-- Node3&#45;&gt;Node6 -->
<g id="edge5" class="edge">
<title>Node3&#45;&gt;Node6</title>
<path fill="none" stroke="#63b8ff" d="M383.79,-159C397.22,-159 411.37,-159 424.45,-159"/>
<polygon fill="#63b8ff" stroke="#63b8ff" points="383.69,-155.5 373.69,-159 383.69,-162.5 383.69,-155.5"/>
</g>
<!-- Node9 -->
<g id="node9" class="node">
<title>Node9</title>
<g id="a_node9"><a xlink:href="structelc_1_1defs_1_1stream__n_1_1string__iostream.html" target="_top" xlink:title=" ">
<polygon fill="white" stroke="#666666" points="527,-270 427,-270 427,-240 527,-240 527,-270"/>
<text text-anchor="start" x="435" y="-258" font-family="Helvetica,sans-Serif" font-size="10.00">elc::defs::stream_n</text>
<text text-anchor="middle" x="477" y="-247" font-family="Helvetica,sans-Serif" font-size="10.00">::string_iostream</text>
</a>
</g>
</g>
<!-- Node3&#45;&gt;Node9 -->
<g id="edge9" class="edge">
<title>Node3&#45;&gt;Node9</title>
<path fill="none" stroke="#63b8ff" d="M370.23,-179.41C371.88,-180.56 373.48,-181.76 375,-183 395.64,-199.88 389.62,-215.06 411,-231 415.82,-234.59 421.24,-237.7 426.84,-240.37"/>
<polygon fill="#63b8ff" stroke="#63b8ff" points="371.97,-176.37 361.63,-174.05 368.27,-182.31 371.97,-176.37"/>
</g>
<!-- Node5 -->
<g id="node5" class="node">
<title>Node5</title>
<g id="a_node5"><a xlink:href="structelc_1_1defs_1_1stream__n_1_1noexcept__data__iostream.html" target="_top" xlink:title=" ">
<polygon fill="white" stroke="#666666" points="710.5,-102 581.5,-102 581.5,-72 710.5,-72 710.5,-102"/>
<text text-anchor="start" x="589.5" y="-90" font-family="Helvetica,sans-Serif" font-size="10.00">elc::defs::stream_n</text>
<text text-anchor="middle" x="646" y="-79" font-family="Helvetica,sans-Serif" font-size="10.00">::noexcept_data_iostream</text>
</a>
</g>
</g>
<!-- Node4&#45;&gt;Node5 -->
<g id="edge4" class="edge">
<title>Node4&#45;&gt;Node5</title>
<path fill="none" stroke="#63b8ff" d="M537.36,-71.53C551.59,-73.58 566.85,-75.77 581.27,-77.84"/>
<polygon fill="#63b8ff" stroke="#63b8ff" points="537.6,-68.03 527.2,-70.07 536.6,-74.96 537.6,-68.03"/>
</g>
<!-- Node6&#45;&gt;Node5 -->
<g id="edge7" class="edge">
<title>Node6&#45;&gt;Node5</title>
<path fill="none" stroke="#63b8ff" d="M530.1,-140.21C534.48,-138.5 538.83,-136.75 543,-135 567.37,-124.79 594.4,-112 614.51,-102.19"/>
<polygon fill="#63b8ff" stroke="#63b8ff" points="528.59,-137.05 520.51,-143.9 531.1,-143.58 528.59,-137.05"/>
</g>
<!-- Node7 -->
<g id="node7" class="node">
<title>Node7</title>
<g id="a_node7"><a xlink:href="structelc_1_1defs_1_1stream__n_1_1memory__stream.html" target="_top" xlink:title=" ">
<polygon fill="white" stroke="#666666" points="696,-174 596,-174 596,-144 696,-144 696,-174"/>
<text text-anchor="start" x="604" y="-162" font-family="Helvetica,sans-Serif" font-size="10.00">elc::defs::stream_n</text>
<text text-anchor="middle" x="646" y="-151" font-family="Helvetica,sans-Serif" font-size="10.00">::memory_stream</text>
</a>
</g>
</g>
<!-- Node6&#45;&gt;Node7 -->
<g id="edge6" class="edge">
<title>Node6&#45;&gt;Node7</title>
<path fill="none" stroke="#63b8ff" d="M540,-159C558.47,-159 578.44,-159 595.96,-159"/>
<polygon fill="#63b8ff" stroke="#63b8ff" points="539.92,-155.5 529.92,-159 539.92,-162.5 539.92,-155.5"/>
</g>
<!-- Node8 -->
<g id="node8" class="node">
<title>Node8</title>
<g id="a_node8"><a xlink:href="structelc_1_1defs_1_1stream__n_1_1noexcept__string__iostream.html" target="_top" xlink:title=" ">
<polygon fill="white" stroke="#666666" points="713,-246 579,-246 579,-216 713,-216 713,-246"/>
<text text-anchor="start" x="587" y="-234" font-family="Helvetica,sans-Serif" font-size="10.00">elc::defs::stream_n</text>
<text text-anchor="middle" x="646" y="-223" font-family="Helvetica,sans-Serif" font-size="10.00">::noexcept_string_iostream</text>
</a>
</g>
</g>
<!-- Node6&#45;&gt;Node8 -->
<g id="edge8" class="edge">
<title>Node6&#45;&gt;Node8</title>
<path fill="none" stroke="#63b8ff" d="M530.1,-177.79C534.48,-179.5 538.83,-181.25 543,-183 567.37,-193.21 594.4,-206 614.51,-215.81"/>
<polygon fill="#63b8ff" stroke="#63b8ff" points="531.1,-174.42 520.51,-174.1 528.59,-180.95 531.1,-174.42"/>
</g>
<!-- Node9&#45;&gt;Node8 -->
<g id="edge10" class="edge">
<title>Node9&#45;&gt;Node8</title>
<path fill="none" stroke="#63b8ff" d="M537.28,-246.48C550.73,-244.55 565.1,-242.48 578.82,-240.51"/>
<polygon fill="#63b8ff" stroke="#63b8ff" points="536.6,-243.04 527.2,-247.93 537.6,-249.97 536.6,-243.04"/>
</g>
<!-- Node10&#45;&gt;Node4 -->
<g id="edge12" class="edge">
<title>Node10&#45;&gt;Node4</title>
<path fill="none" stroke="#63b8ff" d="M381.96,-33.21C397.37,-38.09 413.86,-43.31 428.65,-48"/>
<polygon fill="#63b8ff" stroke="#63b8ff" points="382.61,-29.74 372.02,-30.06 380.5,-36.41 382.61,-29.74"/>
</g>
<!-- Node11 -->
<g id="node11" class="node">
<title>Node11</title>
<g id="a_node11"><a xlink:href="structelc_1_1defs_1_1stream__n_1_1noexcept__data__istream.html" target="_top" xlink:title=" ">
<polygon fill="white" stroke="#666666" points="539,-30 415,-30 415,0 539,0 539,-30"/>
<text text-anchor="start" x="423" y="-18" font-family="Helvetica,sans-Serif" font-size="10.00">elc::defs::stream_n</text>
<text text-anchor="middle" x="477" y="-7" font-family="Helvetica,sans-Serif" font-size="10.00">::noexcept_data_istream</text>
</a>
</g>
</g>
<!-- Node10&#45;&gt;Node11 -->
<g id="edge13" class="edge">
<title>Node10&#45;&gt;Node11</title>
<path fill="none" stroke="#63b8ff" d="M383.74,-15C393.96,-15 404.6,-15 414.86,-15"/>
<polygon fill="#63b8ff" stroke="#63b8ff" points="383.69,-11.5 373.69,-15 383.69,-18.5 383.69,-11.5"/>
</g>
<!-- Node11&#45;&gt;Node5 -->
<g id="edge14" class="edge">
<title>Node11&#45;&gt;Node5</title>
<path fill="none" stroke="#63b8ff" d="M530.1,-33.79C534.48,-35.5 538.83,-37.25 543,-39 567.37,-49.21 594.4,-62 614.51,-71.81"/>
<polygon fill="#63b8ff" stroke="#63b8ff" points="531.1,-30.42 520.51,-30.1 528.59,-36.95 531.1,-30.42"/>
</g>
<!-- Node12&#45;&gt;Node6 -->
<g id="edge17" class="edge">
<title>Node12&#45;&gt;Node6</title>
<path fill="none" stroke="#63b8ff" d="M370.23,-83.41C371.88,-84.56 373.48,-85.76 375,-87 395.64,-103.88 389.62,-119.06 411,-135 415.53,-138.38 420.59,-141.33 425.83,-143.89"/>
<polygon fill="#63b8ff" stroke="#63b8ff" points="371.97,-80.37 361.63,-78.05 368.27,-86.31 371.97,-80.37"/>
</g>
<!-- Node12&#45;&gt;Node11 -->
<g id="edge16" class="edge">
<title>Node12&#45;&gt;Node11</title>
<path fill="none" stroke="#63b8ff" d="M381.96,-44.79C397.37,-39.91 413.86,-34.69 428.65,-30"/>
<polygon fill="#63b8ff" stroke="#63b8ff" points="380.5,-41.59 372.02,-47.94 382.61,-48.26 380.5,-41.59"/>
</g>
<!-- Node13 -->
<g id="node13" class="node">
<title>Node13</title>
<g id="a_node13"><a xlink:href="structelc_1_1defs_1_1stream__n_1_1noexcept__string__istream.html" target="_top" xlink:title=" ">
<polygon fill="white" stroke="#666666" points="541.5,-222 412.5,-222 412.5,-192 541.5,-192 541.5,-222"/>
<text text-anchor="start" x="420.5" y="-210" font-family="Helvetica,sans-Serif" font-size="10.00">elc::defs::stream_n</text>
<text text-anchor="middle" x="477" y="-199" font-family="Helvetica,sans-Serif" font-size="10.00">::noexcept_string_istream</text>
</a>
</g>
</g>
<!-- Node12&#45;&gt;Node13 -->
<g id="edge18" class="edge">
<title>Node12&#45;&gt;Node13</title>
<path fill="none" stroke="#63b8ff" d="M372.64,-84.61C373.46,-85.38 374.24,-86.18 375,-87 405.83,-120.56 378.7,-150.86 411,-183 414.41,-186.39 418.34,-189.31 422.55,-191.82"/>
<polygon fill="#63b8ff" stroke="#63b8ff" points="374.63,-81.72 364.6,-78.32 370.31,-87.24 374.63,-81.72"/>
</g>
<!-- Node13&#45;&gt;Node8 -->
<g id="edge19" class="edge">
<title>Node13&#45;&gt;Node8</title>
<path fill="none" stroke="#63b8ff" d="M551.7,-217.59C560.72,-218.89 569.89,-220.21 578.79,-221.48"/>
<polygon fill="#63b8ff" stroke="#63b8ff" points="552.01,-214.1 541.61,-216.14 551.01,-221.03 552.01,-214.1"/>
</g>
<!-- Node14&#45;&gt;Node9 -->
<g id="edge22" class="edge">
<title>Node14&#45;&gt;Node9</title>
<path fill="none" stroke="#63b8ff" d="M381.96,-225.21C397.37,-230.09 413.86,-235.31 428.65,-240"/>
<polygon fill="#63b8ff" stroke="#63b8ff" points="382.61,-221.74 372.02,-222.06 380.5,-228.41 382.61,-221.74"/>
</g>
<!-- Node14&#45;&gt;Node13 -->
<g id="edge21" class="edge">
<title>Node14&#45;&gt;Node13</title>
<path fill="none" stroke="#63b8ff" d="M383.73,-207C393.15,-207 402.92,-207 412.43,-207"/>
<polygon fill="#63b8ff" stroke="#63b8ff" points="383.69,-203.5 373.69,-207 383.69,-210.5 383.69,-203.5"/>
</g>
<!-- Node15&#45;&gt;Node3 -->
<g id="edge24" class="edge">
<title>Node15&#45;&gt;Node3</title>
<path fill="none" stroke="#63b8ff" d="M239.18,-188.51C252.74,-183.71 267.17,-178.6 280.15,-174"/>
<polygon fill="#63b8ff" stroke="#63b8ff" points="237.76,-185.31 229.5,-191.94 240.1,-191.9 237.76,-185.31"/>
</g>
<!-- Node16 -->
<g id="node16" class="node">
<title>Node16</title>
<g id="a_node16"><a xlink:href="structelc_1_1defs_1_1stream__n_1_1data__ostream.html" target="_top" xlink:title=" ">
<polygon fill="white" stroke="#666666" points="373.5,-126 273.5,-126 273.5,-96 373.5,-96 373.5,-126"/>
<text text-anchor="start" x="281.5" y="-114" font-family="Helvetica,sans-Serif" font-size="10.00">elc::defs::stream_n</text>
<text text-anchor="middle" x="323.5" y="-103" font-family="Helvetica,sans-Serif" font-size="10.00">::data_ostream</text>
</a>
</g>
</g>
<!-- Node15&#45;&gt;Node16 -->
<g id="edge25" class="edge">
<title>Node15&#45;&gt;Node16</title>
<path fill="none" stroke="#63b8ff" d="M231.28,-186.6C232.91,-185.45 234.49,-184.25 236,-183 256.54,-166 251.36,-151.88 272,-135 276.06,-131.68 280.65,-128.7 285.37,-126.05"/>
<polygon fill="#63b8ff" stroke="#63b8ff" points="229.34,-183.69 222.76,-191.99 233.09,-189.6 229.34,-183.69"/>
</g>
<!-- Node18 -->
<g id="node18" class="node">
<title>Node18</title>
<g id="a_node18"><a xlink:href="structelc_1_1defs_1_1stream__n_1_1noexcept__ostream.html" target="_top" xlink:title=" ">
<polygon fill="white" stroke="#666666" points="375,-270 272,-270 272,-240 375,-240 375,-270"/>
<text text-anchor="start" x="280" y="-258" font-family="Helvetica,sans-Serif" font-size="10.00">elc::defs::stream_n</text>
<text text-anchor="middle" x="323.5" y="-247" font-family="Helvetica,sans-Serif" font-size="10.00">::noexcept_ostream</text>
</a>
</g>
</g>
<!-- Node15&#45;&gt;Node18 -->
<g id="edge29" class="edge">
<title>Node15&#45;&gt;Node18</title>
<path fill="none" stroke="#63b8ff" d="M239.18,-225.49C252.74,-230.29 267.17,-235.4 280.15,-240"/>
<polygon fill="#63b8ff" stroke="#63b8ff" points="240.1,-222.1 229.5,-222.06 237.76,-228.69 240.1,-222.1"/>
</g>
<!-- Node20 -->
<g id="node20" class="node">
<title>Node20</title>
<g id="a_node20"><a xlink:href="structelc_1_1defs_1_1stream__n_1_1string__ostream.html" target="_top" xlink:title=" ">
<polygon fill="white" stroke="#666666" points="373.5,-318 273.5,-318 273.5,-288 373.5,-288 373.5,-318"/>
<text text-anchor="start" x="281.5" y="-306" font-family="Helvetica,sans-Serif" font-size="10.00">elc::defs::stream_n</text>
<text text-anchor="middle" x="323.5" y="-295" font-family="Helvetica,sans-Serif" font-size="10.00">::string_ostream</text>
</a>
</g>
</g>
<!-- Node15&#45;&gt;Node20 -->
<g id="edge34" class="edge">
<title>Node15&#45;&gt;Node20</title>
<path fill="none" stroke="#63b8ff" d="M209.8,-229.16C226.22,-244.38 249.38,-264.4 272,-279 276.89,-282.16 282.27,-285.16 287.63,-287.89"/>
<polygon fill="#63b8ff" stroke="#63b8ff" points="212,-226.42 202.32,-222.12 207.2,-231.52 212,-226.42"/>
</g>
<!-- Node16&#45;&gt;Node4 -->
<g id="edge26" class="edge">
<title>Node16&#45;&gt;Node4</title>
<path fill="none" stroke="#63b8ff" d="M381.96,-92.79C397.37,-87.91 413.86,-82.69 428.65,-78"/>
<polygon fill="#63b8ff" stroke="#63b8ff" points="380.5,-89.59 372.02,-95.94 382.61,-96.26 380.5,-89.59"/>
</g>
<!-- Node17 -->
<g id="node17" class="node">
<title>Node17</title>
<g id="a_node17"><a xlink:href="structelc_1_1defs_1_1stream__n_1_1noexcept__data__ostream.html" target="_top" xlink:title=" ">
<polygon fill="white" stroke="#666666" points="540.5,-126 413.5,-126 413.5,-96 540.5,-96 540.5,-126"/>
<text text-anchor="start" x="421.5" y="-114" font-family="Helvetica,sans-Serif" font-size="10.00">elc::defs::stream_n</text>
<text text-anchor="middle" x="477" y="-103" font-family="Helvetica,sans-Serif" font-size="10.00">::noexcept_data_ostream</text>
</a>
</g>
</g>
<!-- Node16&#45;&gt;Node17 -->
<g id="edge27" class="edge">
<title>Node16&#45;&gt;Node17</title>
<path fill="none" stroke="#63b8ff" d="M383.95,-111C393.56,-111 403.55,-111 413.24,-111"/>
<polygon fill="#63b8ff" stroke="#63b8ff" points="383.69,-107.5 373.69,-111 383.69,-114.5 383.69,-107.5"/>
</g>
<!-- Node17&#45;&gt;Node5 -->
<g id="edge28" class="edge">
<title>Node17&#45;&gt;Node5</title>
<path fill="none" stroke="#63b8ff" d="M550.77,-100.54C560.98,-99.07 571.41,-97.58 581.43,-96.14"/>
<polygon fill="#63b8ff" stroke="#63b8ff" points="550.06,-97.11 540.66,-102 551.06,-104.04 550.06,-97.11"/>
</g>
<!-- Node18&#45;&gt;Node6 -->
<g id="edge31" class="edge">
<title>Node18&#45;&gt;Node6</title>
<path fill="none" stroke="#63b8ff" d="M370.23,-234.59C371.88,-233.44 373.48,-232.24 375,-231 395.64,-214.12 389.62,-198.94 411,-183 415.53,-179.62 420.59,-176.67 425.83,-174.11"/>
<polygon fill="#63b8ff" stroke="#63b8ff" points="368.27,-231.69 361.63,-239.95 371.97,-237.63 368.27,-231.69"/>
</g>
<!-- Node18&#45;&gt;Node17 -->
<g id="edge30" class="edge">
<title>Node18&#45;&gt;Node17</title>
<path fill="none" stroke="#63b8ff" d="M372.64,-233.39C373.46,-232.62 374.24,-231.82 375,-231 405.83,-197.44 378.7,-167.14 411,-135 414.41,-131.61 418.34,-128.69 422.55,-126.18"/>
<polygon fill="#63b8ff" stroke="#63b8ff" points="370.31,-230.76 364.6,-239.68 374.63,-236.28 370.31,-230.76"/>
</g>
<!-- Node19 -->
<g id="node19" class="node">
<title>Node19</title>
<g id="a_node19"><a xlink:href="structelc_1_1defs_1_1stream__n_1_1noexcept__string__ostream.html" target="_top" xlink:title=" ">
<polygon fill="white" stroke="#666666" points="543,-318 411,-318 411,-288 543,-288 543,-318"/>
<text text-anchor="start" x="419" y="-306" font-family="Helvetica,sans-Serif" font-size="10.00">elc::defs::stream_n</text>
<text text-anchor="middle" x="477" y="-295" font-family="Helvetica,sans-Serif" font-size="10.00">::noexcept_string_ostream</text>
</a>
</g>
</g>
<!-- Node18&#45;&gt;Node19 -->
<g id="edge32" class="edge">
<title>Node18&#45;&gt;Node19</title>
<path fill="none" stroke="#63b8ff" d="M381.96,-273.21C397.37,-278.09 413.86,-283.31 428.65,-288"/>
<polygon fill="#63b8ff" stroke="#63b8ff" points="382.61,-269.74 372.02,-270.06 380.5,-276.41 382.61,-269.74"/>
</g>
<!-- Node19&#45;&gt;Node8 -->
<g id="edge33" class="edge">
<title>Node19&#45;&gt;Node8</title>
<path fill="none" stroke="#63b8ff" d="M530.1,-284.21C534.48,-282.5 538.83,-280.75 543,-279 567.37,-268.79 594.4,-256 614.51,-246.19"/>
<polygon fill="#63b8ff" stroke="#63b8ff" points="528.59,-281.05 520.51,-287.9 531.1,-287.58 528.59,-281.05"/>
</g>
<!-- Node20&#45;&gt;Node9 -->
<g id="edge36" class="edge">
<title>Node20&#45;&gt;Node9</title>
<path fill="none" stroke="#63b8ff" d="M381.96,-284.79C397.37,-279.91 413.86,-274.69 428.65,-270"/>
<polygon fill="#63b8ff" stroke="#63b8ff" points="380.5,-281.59 372.02,-287.94 382.61,-288.26 380.5,-281.59"/>
</g>
<!-- Node20&#45;&gt;Node19 -->
<g id="edge35" class="edge">
<title>Node20&#45;&gt;Node19</title>
<path fill="none" stroke="#63b8ff" d="M383.88,-303C392.71,-303 401.85,-303 410.79,-303"/>
<polygon fill="#63b8ff" stroke="#63b8ff" points="383.69,-299.5 373.69,-303 383.69,-306.5 383.69,-299.5"/>
</g>
<!-- Node21&#45;&gt;Node12 -->
<g id="edge38" class="edge">
<title>Node21&#45;&gt;Node12</title>
<path fill="none" stroke="#63b8ff" d="M231.28,-138.6C232.91,-137.45 234.49,-136.25 236,-135 256.54,-118 251.36,-103.88 272,-87 276.06,-83.68 280.65,-80.7 285.37,-78.05"/>
<polygon fill="#63b8ff" stroke="#63b8ff" points="229.34,-135.69 222.76,-143.99 233.09,-141.6 229.34,-135.69"/>
</g>
<!-- Node21&#45;&gt;Node18 -->
<g id="edge39" class="edge">
<title>Node21&#45;&gt;Node18</title>
<path fill="none" stroke="#63b8ff" d="M231.28,-179.4C232.91,-180.55 234.49,-181.75 236,-183 256.54,-200 251.36,-214.12 272,-231 276.06,-234.32 280.65,-237.3 285.37,-239.95"/>
<polygon fill="#63b8ff" stroke="#63b8ff" points="233.09,-176.4 222.76,-174.01 229.34,-182.31 233.09,-176.4"/>
</g>
</g>
</svg>
        <g id="navigator" transform="translate(0 0)" fill="#404254">
                <rect fill="#f2f5e9" fill-opacity="0.5" stroke="#606060" stroke-width=".5" x="0" y="0" width="60" height="60"/>
                <use id="zoomplus" xlink:href="#zoomPlus" x="17" y="9" onmousedown="handleZoom(evt,'in')"/>
                <use id="zoomminus" xlink:href="#zoomMin" x="42" y="9" onmousedown="handleZoom(evt,'out')"/>
                <use id="reset" xlink:href="#resetDef" x="30" y="36" onmousedown="handleReset()"/>
                <g id="arrowUp" xlink:href="#dirArrow" transform="translate(30 24)" onmousedown="handlePan(0,-1)">
                  <use xlink:href="#rim" fill="#404040">
                        <set attributeName="fill" to="#808080" begin="arrowUp.mouseover" end="arrowUp.mouseout"/>
                  </use>
                  <path fill="none" stroke="white" stroke-width="1.5" d="M0,-3.0v7 M-2.5,-0.5L0,-3.0L2.5,-0.5"/>
                </g>
                <g id="arrowRight" xlink:href="#dirArrow" transform="rotate(90) translate(36 -43)" onmousedown="handlePan(1,0)">
                  <use xlink:href="#rim" fill="#404040">
                        <set attributeName="fill" to="#808080" begin="arrowRight.mouseover" end="arrowRight.mouseout"/>
                  </use>
                  <path fill="none" stroke="white" stroke-width="1.5" d="M0,-3.0v7 M-2.5,-0.5L0,-3.0L2.5,-0.5"/>
                </g>
                <g id="arrowDown" xlink:href="#dirArrow" transform="rotate(180) translate(-30 -48)" onmousedown="handlePan(0,1)">
                  <use xlink:href="#rim" fill="#404040">
                        <set attributeName="fill" to="#808080" begin="arrowDown.mouseover" end="arrowDown.mouseout"/>
                  </use>
                  <path fill="none" stroke="white" stroke-width="1.5" d="M0,-3.0v7 M-2.5,-0.5L0,-3.0L2.5,-0.5"/>
                </g>
                <g id="arrowLeft" xlink:href="#dirArrow" transform="rotate(270) translate(-36 17)" onmousedown="handlePan(-1,0)">
                  <use xlink:href="#rim" fill="#404040">
                        <set attributeName="fill" to="#808080" begin="arrowLeft.mouseover" end="arrowLeft.mouseout"/>
                  </use>
                  <path fill="none" stroke="white" stroke-width="1.5" d="M0,-3.0v7 M-2.5,-0.5L0,-3.0L2.5,-0.5"/>
                </g>
        </g>
        <svg viewBox="0 0 15 15" width="100%" height="30px" preserveAspectRatio="xMaxYMin meet">
         <g id="arrow_out" transform="scale(0.3 0.3)">
          <a xlink:href="structelc_1_1defs_1_1stream__n_1_1base__stream__inherit__graph_org.svg" target="_base">
           <rect id="button" ry="5" rx="5" y="6" x="6" height="38" width="38"
                fill="#f2f5e9" fill-opacity="0.5" stroke="#606060" stroke-width="1.0"/>
           <path id="arrow"
             d="M 11.500037,31.436501 C 11.940474,20.09759 22.043105,11.32322 32.158766,21.979434 L 37.068811,17.246167 C 37.068811,17.246167 37.088388,32 37.088388,32 L 22.160133,31.978069 C 22.160133,31.978069 26.997745,27.140456 26.997745,27.140456 C 18.528582,18.264221 13.291696,25.230495 11.500037,31.436501 z"
             style="fill:#404040;"/>
          </a>
         </g>
        </svg>
</svg>
