<?xml version="1.0" encoding="UTF-8" standalone="no"?>
<!DOCTYPE svg PUBLIC "-//W3C//DTD SVG 1.1//EN"
 "http://www.w3.org/Graphics/SVG/1.1/DTD/svg11.dtd">
<!-- Generated by graphviz version 6.0.1 (20220911.1526)
 -->
<!-- Title: elc::defs::string_n::string_data_n::head_apply_string_data_t&lt; char_T &gt; Pages: 1 -->
<svg width="603pt" height="160pt"
 viewBox="0.00 0.00 603.00 159.50" xmlns="http://www.w3.org/2000/svg" xmlns:xlink="http://www.w3.org/1999/xlink">
<g id="graph0" class="graph" transform="scale(1 1) rotate(0) translate(4 155.5)">
<title>elc::defs::string_n::string_data_n::head_apply_string_data_t&lt; char_T &gt;</title>
<!-- Node1 -->
<g id="node1" class="node">
<title>Node1</title>
<g id="a_node1"><a xlink:title=" ">
<polygon fill="#999999" stroke="#666666" points="595,-75.5 482,-75.5 482,-23.5 595,-23.5 595,-75.5"/>
<text text-anchor="start" x="490" y="-63.5" font-family="Helvetica,sans-Serif" font-size="10.00">elc::defs::string_n</text>
<text text-anchor="start" x="490" y="-52.5" font-family="Helvetica,sans-Serif" font-size="10.00">::string_data_n::head</text>
<text text-anchor="start" x="490" y="-41.5" font-family="Helvetica,sans-Serif" font-size="10.00">_apply_string_data_t&lt;</text>
<text text-anchor="middle" x="538.5" y="-30.5" font-family="Helvetica,sans-Serif" font-size="10.00"> char_T &gt;</text>
</a>
</g>
</g>
<!-- Node2 -->
<g id="node2" class="node">
<title>Node2</title>
<g id="a_node2"><a xlink:href="structelc_1_1defs_1_1string__n_1_1string__data__n_1_1base__string__data__t.html" target="_top" xlink:title=" ">
<polygon fill="white" stroke="#666666" points="446,-100 321,-100 321,-59 446,-59 446,-100"/>
<text text-anchor="start" x="329" y="-88" font-family="Helvetica,sans-Serif" font-size="10.00">elc::defs::string_n</text>
<text text-anchor="start" x="329" y="-77" font-family="Helvetica,sans-Serif" font-size="10.00">::string_data_n::base</text>
<text text-anchor="middle" x="383.5" y="-66" font-family="Helvetica,sans-Serif" font-size="10.00">_string_data_t&lt; char_T &gt;</text>
</a>
</g>
</g>
<!-- Node2&#45;&gt;Node1 -->
<g id="edge1" class="edge">
<title>Node2&#45;&gt;Node1</title>
<path fill="none" stroke="#63b8ff" d="M456.32,-65.42C464.91,-63.73 473.58,-62.03 481.9,-60.4"/>
<polygon fill="#63b8ff" stroke="#63b8ff" points="455.43,-62.03 446.29,-67.38 456.78,-68.89 455.43,-62.03"/>
</g>
<!-- Node3 -->
<g id="node3" class="node">
<title>Node3</title>
<g id="a_node3"><a xlink:title=" ">
<polygon fill="white" stroke="#666666" points="285,-151.5 0,-151.5 0,-77.5 285,-77.5 285,-151.5"/>
<text text-anchor="start" x="8" y="-139.5" font-family="Helvetica,sans-Serif" font-size="10.00">type_info_t&lt; base_string</text>
<text text-anchor="start" x="8" y="-128.5" font-family="Helvetica,sans-Serif" font-size="10.00">_data_t&lt; char_T &gt; &gt;:: template</text>
<text text-anchor="middle" x="142.5" y="-117.5" font-family="Helvetica,sans-Serif" font-size="10.00"> </text>
<text text-anchor="start" x="8" y="-106.5" font-family="Helvetica,sans-Serif" font-size="10.00">							with_common_attribute</text>
<text text-anchor="start" x="8" y="-95.5" font-family="Helvetica,sans-Serif" font-size="10.00">&lt; abstract_base, never_in_array,</text>
<text text-anchor="middle" x="142.5" y="-84.5" font-family="Helvetica,sans-Serif" font-size="10.00"> replace_able, ref_able &gt;</text>
</a>
</g>
</g>
<!-- Node3&#45;&gt;Node2 -->
<g id="edge2" class="edge">
<title>Node3&#45;&gt;Node2</title>
<path fill="none" stroke="#63b8ff" d="M295.35,-92.26C304.17,-90.97 312.73,-89.72 320.84,-88.53"/>
<polygon fill="#63b8ff" stroke="#63b8ff" points="294.68,-88.82 285.29,-93.74 295.69,-95.75 294.68,-88.82"/>
</g>
<!-- Node4 -->
<g id="node4" class="node">
<title>Node4</title>
<g id="a_node4"><a xlink:href="classelc_1_1defs_1_1base_1_1build__by__get__only.html" target="_top" xlink:title=" ">
<polygon fill="white" stroke="#666666" points="196,-59.5 89,-59.5 89,-29.5 196,-29.5 196,-59.5"/>
<text text-anchor="start" x="97" y="-47.5" font-family="Helvetica,sans-Serif" font-size="10.00">elc::defs::base::build</text>
<text text-anchor="middle" x="142.5" y="-36.5" font-family="Helvetica,sans-Serif" font-size="10.00">_by_get_only</text>
</a>
</g>
</g>
<!-- Node4&#45;&gt;Node2 -->
<g id="edge3" class="edge">
<title>Node4&#45;&gt;Node2</title>
<path fill="none" stroke="#63b8ff" d="M206.42,-53.71C241.68,-58.88 285.49,-65.29 320.58,-70.43"/>
<polygon fill="#63b8ff" stroke="#63b8ff" points="206.65,-50.21 196.25,-52.22 205.63,-57.14 206.65,-50.21"/>
</g>
<!-- Node5 -->
<g id="node5" class="node">
<title>Node5</title>
<g id="a_node5"><a xlink:title=" ">
<polygon fill="white" stroke="#666666" points="440,-41 327,-41 327,0 440,0 440,-41"/>
<text text-anchor="start" x="335" y="-29" font-family="Helvetica,sans-Serif" font-size="10.00">instance_struct&lt; head</text>
<text text-anchor="start" x="335" y="-18" font-family="Helvetica,sans-Serif" font-size="10.00">_apply_string_data_t</text>
<text text-anchor="middle" x="383.5" y="-7" font-family="Helvetica,sans-Serif" font-size="10.00">&lt; char_T &gt; &gt;</text>
</a>
</g>
</g>
<!-- Node5&#45;&gt;Node1 -->
<g id="edge4" class="edge">
<title>Node5&#45;&gt;Node1</title>
<path fill="none" stroke="#63b8ff" d="M450.18,-32.95C460.74,-34.95 471.58,-37.01 481.87,-38.96"/>
<polygon fill="#63b8ff" stroke="#63b8ff" points="450.65,-29.48 440.17,-31.05 449.34,-36.35 450.65,-29.48"/>
</g>
</g>
</svg>
