<?xml version="1.0" encoding="UTF-8" standalone="no"?>
<!DOCTYPE svg PUBLIC "-//W3C//DTD SVG 1.1//EN"
 "http://www.w3.org/Graphics/SVG/1.1/DTD/svg11.dtd">
<!-- Generated by graphviz version 6.0.1 (20220911.1526)
 -->
<!-- Title: elc::defs::stream_n::noexcept_string_iostream Pages: 1 -->
<!--zoomable 230 -->
<svg id="main" version="1.1" xmlns="http://www.w3.org/2000/svg" xmlns:xlink="http://www.w3.org/1999/xlink" xml:space="preserve" onload="init(evt)">
<style type="text/css"><![CDATA[
.edge:hover path { stroke: red; }
.edge:hover polygon { stroke: red; fill: red; }
]]></style>
<script type="text/javascript"><![CDATA[
var edges = document.getElementsByTagName('g');
if (edges && edges.length) {
  for (var i=0;i<edges.length;i++) {
    if (edges[i].id.substr(0,4)=='edge') {
      edges[i].setAttribute('class','edge');
    }
  }
}
]]></script>
        <defs>
                <circle id="rim" cx="0" cy="0" r="7"/>
                <circle id="rim2" cx="0" cy="0" r="3.5"/>
                <g id="zoomPlus">
                        <use xlink:href="#rim" fill="#404040">
                                <set attributeName="fill" to="#808080" begin="zoomplus.mouseover" end="zoomplus.mouseout"/>
                        </use>
                        <path d="M-4,0h8M0,-4v8" fill="none" stroke="white" stroke-width="1.5" pointer-events="none"/>
                </g>
                <g id="zoomMin">
                        <use xlink:href="#rim" fill="#404040">
                                <set attributeName="fill" to="#808080" begin="zoomminus.mouseover" end="zoomminus.mouseout"/>
                        </use>
                        <path d="M-4,0h8" fill="none" stroke="white" stroke-width="1.5" pointer-events="none"/>
                </g>
                <g id="dirArrow">
                        <path fill="none" stroke="white" stroke-width="1.5" d="M0,-3.0v7 M-2.5,-0.5L0,-3.0L2.5,-0.5"/>
                </g>
               <g id="resetDef">
                       <use xlink:href="#rim2" fill="#404040">
                               <set attributeName="fill" to="#808080" begin="reset.mouseover" end="reset.mouseout"/>
                       </use>
               </g>
        </defs>

<script type="text/javascript">
var viewWidth = 721;
var viewHeight = 230;
var sectionId = 'dynsection-0';
</script>
<script xlink:href="svgpan.js"/>
<svg id="graph" class="graph">
<g id="viewport">
<title>elc::defs::stream_n::noexcept_string_iostream</title>
<!-- Node1 -->
<g id="node1" class="node">
<title>Node1</title>
<g id="a_node1"><a xlink:title=" ">
<polygon fill="#999999" stroke="#666666" points="713,-126 579,-126 579,-96 713,-96 713,-126"/>
<text text-anchor="start" x="587" y="-114" font-family="Helvetica,sans-Serif" font-size="10.00">elc::defs::stream_n</text>
<text text-anchor="middle" x="646" y="-103" font-family="Helvetica,sans-Serif" font-size="10.00">::noexcept_string_iostream</text>
</a>
</g>
</g>
<!-- Node2 -->
<g id="node2" class="node">
<title>Node2</title>
<g id="a_node2"><a xlink:href="structelc_1_1defs_1_1stream__n_1_1noexcept__string__istream.html" target="_top" xlink:title=" ">
<polygon fill="white" stroke="#666666" points="541.5,-198 412.5,-198 412.5,-168 541.5,-168 541.5,-198"/>
<text text-anchor="start" x="420.5" y="-186" font-family="Helvetica,sans-Serif" font-size="10.00">elc::defs::stream_n</text>
<text text-anchor="middle" x="477" y="-175" font-family="Helvetica,sans-Serif" font-size="10.00">::noexcept_string_istream</text>
</a>
</g>
</g>
<!-- Node2&#45;&gt;Node1 -->
<g id="edge1" class="edge">
<title>Node2&#45;&gt;Node1</title>
<path fill="none" stroke="#63b8ff" d="M530.1,-164.21C534.48,-162.5 538.83,-160.75 543,-159 567.37,-148.79 594.4,-136 614.51,-126.19"/>
<polygon fill="#63b8ff" stroke="#63b8ff" points="528.59,-161.05 520.51,-167.9 531.1,-167.58 528.59,-161.05"/>
</g>
<!-- Node3 -->
<g id="node3" class="node">
<title>Node3</title>
<g id="a_node3"><a xlink:href="structelc_1_1defs_1_1stream__n_1_1noexcept__istream.html" target="_top" xlink:title=" ">
<polygon fill="white" stroke="#666666" points="373.5,-174 273.5,-174 273.5,-144 373.5,-144 373.5,-174"/>
<text text-anchor="start" x="281.5" y="-162" font-family="Helvetica,sans-Serif" font-size="10.00">elc::defs::stream_n</text>
<text text-anchor="middle" x="323.5" y="-151" font-family="Helvetica,sans-Serif" font-size="10.00">::noexcept_istream</text>
</a>
</g>
</g>
<!-- Node3&#45;&gt;Node2 -->
<g id="edge2" class="edge">
<title>Node3&#45;&gt;Node2</title>
<path fill="none" stroke="#63b8ff" d="M383.73,-168.38C393.15,-169.87 402.92,-171.42 412.43,-172.93"/>
<polygon fill="#63b8ff" stroke="#63b8ff" points="384.11,-164.9 373.69,-166.79 383.02,-171.81 384.11,-164.9"/>
</g>
<!-- Node12 -->
<g id="node12" class="node">
<title>Node12</title>
<g id="a_node12"><a xlink:href="structelc_1_1defs_1_1stream__n_1_1noexcept__iostream.html" target="_top" xlink:title=" ">
<polygon fill="white" stroke="#666666" points="529.5,-102 424.5,-102 424.5,-72 529.5,-72 529.5,-102"/>
<text text-anchor="start" x="432.5" y="-90" font-family="Helvetica,sans-Serif" font-size="10.00">elc::defs::stream_n</text>
<text text-anchor="middle" x="477" y="-79" font-family="Helvetica,sans-Serif" font-size="10.00">::noexcept_iostream</text>
</a>
</g>
</g>
<!-- Node3&#45;&gt;Node12 -->
<g id="edge21" class="edge">
<title>Node3&#45;&gt;Node12</title>
<path fill="none" stroke="#63b8ff" d="M367.16,-139.27C369.83,-137.87 372.47,-136.44 375,-135 391.73,-125.51 393.86,-119.72 411,-111 417.33,-107.78 424.19,-104.77 431,-102.04"/>
<polygon fill="#63b8ff" stroke="#63b8ff" points="365.32,-136.28 357.99,-143.92 368.49,-142.52 365.32,-136.28"/>
</g>
<!-- Node4 -->
<g id="node4" class="node">
<title>Node4</title>
<g id="a_node4"><a xlink:href="structelc_1_1defs_1_1stream__n_1_1base__istream.html" target="_top" xlink:title=" ">
<polygon fill="white" stroke="#666666" points="236,-174 136,-174 136,-144 236,-144 236,-174"/>
<text text-anchor="start" x="144" y="-162" font-family="Helvetica,sans-Serif" font-size="10.00">elc::defs::stream_n</text>
<text text-anchor="middle" x="186" y="-151" font-family="Helvetica,sans-Serif" font-size="10.00">::base_istream</text>
</a>
</g>
</g>
<!-- Node4&#45;&gt;Node3 -->
<g id="edge3" class="edge">
<title>Node4&#45;&gt;Node3</title>
<path fill="none" stroke="#63b8ff" d="M246.39,-159C255.43,-159 264.67,-159 273.46,-159"/>
<polygon fill="#63b8ff" stroke="#63b8ff" points="246.3,-155.5 236.3,-159 246.3,-162.5 246.3,-155.5"/>
</g>
<!-- Node7 -->
<g id="node7" class="node">
<title>Node7</title>
<g id="a_node7"><a xlink:href="structelc_1_1defs_1_1stream__n_1_1string__istream.html" target="_top" xlink:title=" ">
<polygon fill="white" stroke="#666666" points="373.5,-222 273.5,-222 273.5,-192 373.5,-192 373.5,-222"/>
<text text-anchor="start" x="281.5" y="-210" font-family="Helvetica,sans-Serif" font-size="10.00">elc::defs::stream_n</text>
<text text-anchor="middle" x="323.5" y="-199" font-family="Helvetica,sans-Serif" font-size="10.00">::string_istream</text>
</a>
</g>
</g>
<!-- Node4&#45;&gt;Node7 -->
<g id="edge8" class="edge">
<title>Node4&#45;&gt;Node7</title>
<path fill="none" stroke="#63b8ff" d="M239.18,-177.49C252.74,-182.29 267.17,-187.4 280.15,-192"/>
<polygon fill="#63b8ff" stroke="#63b8ff" points="240.1,-174.1 229.5,-174.06 237.76,-180.69 240.1,-174.1"/>
</g>
<!-- Node13 -->
<g id="node13" class="node">
<title>Node13</title>
<g id="a_node13"><a xlink:href="structelc_1_1defs_1_1stream__n_1_1base__iostream.html" target="_top" xlink:title=" ">
<polygon fill="white" stroke="#666666" points="373.5,-126 273.5,-126 273.5,-96 373.5,-96 373.5,-126"/>
<text text-anchor="start" x="281.5" y="-114" font-family="Helvetica,sans-Serif" font-size="10.00">elc::defs::stream_n</text>
<text text-anchor="middle" x="323.5" y="-103" font-family="Helvetica,sans-Serif" font-size="10.00">::base_iostream</text>
</a>
</g>
</g>
<!-- Node4&#45;&gt;Node13 -->
<g id="edge18" class="edge">
<title>Node4&#45;&gt;Node13</title>
<path fill="none" stroke="#63b8ff" d="M239.18,-140.51C252.74,-135.71 267.17,-130.6 280.15,-126"/>
<polygon fill="#63b8ff" stroke="#63b8ff" points="237.76,-137.31 229.5,-143.94 240.1,-143.9 237.76,-137.31"/>
</g>
<!-- Node5 -->
<g id="node5" class="node">
<title>Node5</title>
<g id="a_node5"><a xlink:href="structelc_1_1defs_1_1stream__n_1_1base__stream.html" target="_top" xlink:title=" ">
<polygon fill="white" stroke="#666666" points="100,-126 0,-126 0,-96 100,-96 100,-126"/>
<text text-anchor="start" x="8" y="-114" font-family="Helvetica,sans-Serif" font-size="10.00">elc::defs::stream_n</text>
<text text-anchor="middle" x="50" y="-103" font-family="Helvetica,sans-Serif" font-size="10.00">::base_stream</text>
</a>
</g>
</g>
<!-- Node5&#45;&gt;Node4 -->
<g id="edge4" class="edge">
<title>Node5&#45;&gt;Node4</title>
<path fill="none" stroke="#63b8ff" d="M102.6,-129.49C116.01,-134.29 130.28,-139.4 143.12,-144"/>
<polygon fill="#63b8ff" stroke="#63b8ff" points="103.63,-126.13 93.03,-126.06 101.26,-132.72 103.63,-126.13"/>
</g>
<!-- Node6 -->
<g id="node6" class="node">
<title>Node6</title>
<g id="a_node6"><a xlink:href="structelc_1_1defs_1_1stream__n_1_1noexcept__stream.html" target="_top" xlink:title=" ">
<polygon fill="white" stroke="#666666" points="236,-126 136,-126 136,-96 236,-96 236,-126"/>
<text text-anchor="start" x="144" y="-114" font-family="Helvetica,sans-Serif" font-size="10.00">elc::defs::stream_n</text>
<text text-anchor="middle" x="186" y="-103" font-family="Helvetica,sans-Serif" font-size="10.00">::noexcept_stream</text>
</a>
</g>
</g>
<!-- Node5&#45;&gt;Node6 -->
<g id="edge6" class="edge">
<title>Node5&#45;&gt;Node6</title>
<path fill="none" stroke="#63b8ff" d="M110.4,-111C118.91,-111 127.59,-111 135.87,-111"/>
<polygon fill="#63b8ff" stroke="#63b8ff" points="110.14,-107.5 100.14,-111 110.14,-114.5 110.14,-107.5"/>
</g>
<!-- Node10 -->
<g id="node10" class="node">
<title>Node10</title>
<g id="a_node10"><a xlink:href="structelc_1_1defs_1_1stream__n_1_1base__ostream.html" target="_top" xlink:title=" ">
<polygon fill="white" stroke="#666666" points="236,-78 136,-78 136,-48 236,-48 236,-78"/>
<text text-anchor="start" x="144" y="-66" font-family="Helvetica,sans-Serif" font-size="10.00">elc::defs::stream_n</text>
<text text-anchor="middle" x="186" y="-55" font-family="Helvetica,sans-Serif" font-size="10.00">::base_ostream</text>
</a>
</g>
</g>
<!-- Node5&#45;&gt;Node10 -->
<g id="edge12" class="edge">
<title>Node5&#45;&gt;Node10</title>
<path fill="none" stroke="#63b8ff" d="M102.6,-92.51C116.01,-87.71 130.28,-82.6 143.12,-78"/>
<polygon fill="#63b8ff" stroke="#63b8ff" points="101.26,-89.28 93.03,-95.94 103.63,-95.87 101.26,-89.28"/>
</g>
<!-- Node6&#45;&gt;Node3 -->
<g id="edge5" class="edge">
<title>Node6&#45;&gt;Node3</title>
<path fill="none" stroke="#63b8ff" d="M239.18,-129.49C252.74,-134.29 267.17,-139.4 280.15,-144"/>
<polygon fill="#63b8ff" stroke="#63b8ff" points="240.1,-126.1 229.5,-126.06 237.76,-132.69 240.1,-126.1"/>
</g>
<!-- Node9 -->
<g id="node9" class="node">
<title>Node9</title>
<g id="a_node9"><a xlink:href="structelc_1_1defs_1_1stream__n_1_1noexcept__ostream.html" target="_top" xlink:title=" ">
<polygon fill="white" stroke="#666666" points="375,-78 272,-78 272,-48 375,-48 375,-78"/>
<text text-anchor="start" x="280" y="-66" font-family="Helvetica,sans-Serif" font-size="10.00">elc::defs::stream_n</text>
<text text-anchor="middle" x="323.5" y="-55" font-family="Helvetica,sans-Serif" font-size="10.00">::noexcept_ostream</text>
</a>
</g>
</g>
<!-- Node6&#45;&gt;Node9 -->
<g id="edge13" class="edge">
<title>Node6&#45;&gt;Node9</title>
<path fill="none" stroke="#63b8ff" d="M239.18,-92.51C252.74,-87.71 267.17,-82.6 280.15,-78"/>
<polygon fill="#63b8ff" stroke="#63b8ff" points="237.76,-89.31 229.5,-95.94 240.1,-95.9 237.76,-89.31"/>
</g>
<!-- Node7&#45;&gt;Node2 -->
<g id="edge7" class="edge">
<title>Node7&#45;&gt;Node2</title>
<path fill="none" stroke="#63b8ff" d="M383.73,-197.62C393.15,-196.13 402.92,-194.58 412.43,-193.07"/>
<polygon fill="#63b8ff" stroke="#63b8ff" points="383.02,-194.19 373.69,-199.21 384.11,-201.1 383.02,-194.19"/>
</g>
<!-- Node14 -->
<g id="node14" class="node">
<title>Node14</title>
<g id="a_node14"><a xlink:href="structelc_1_1defs_1_1stream__n_1_1string__iostream.html" target="_top" xlink:title=" ">
<polygon fill="white" stroke="#666666" points="527,-150 427,-150 427,-120 527,-120 527,-150"/>
<text text-anchor="start" x="435" y="-138" font-family="Helvetica,sans-Serif" font-size="10.00">elc::defs::stream_n</text>
<text text-anchor="middle" x="477" y="-127" font-family="Helvetica,sans-Serif" font-size="10.00">::string_iostream</text>
</a>
</g>
</g>
<!-- Node7&#45;&gt;Node14 -->
<g id="edge23" class="edge">
<title>Node7&#45;&gt;Node14</title>
<path fill="none" stroke="#63b8ff" d="M367.16,-187.27C369.83,-185.87 372.47,-184.44 375,-183 391.73,-173.51 393.86,-167.72 411,-159 417.33,-155.78 424.19,-152.77 431,-150.04"/>
<polygon fill="#63b8ff" stroke="#63b8ff" points="365.32,-184.28 357.99,-191.92 368.49,-190.52 365.32,-184.28"/>
</g>
<!-- Node8 -->
<g id="node8" class="node">
<title>Node8</title>
<g id="a_node8"><a xlink:href="structelc_1_1defs_1_1stream__n_1_1noexcept__string__ostream.html" target="_top" xlink:title=" ">
<polygon fill="white" stroke="#666666" points="543,-54 411,-54 411,-24 543,-24 543,-54"/>
<text text-anchor="start" x="419" y="-42" font-family="Helvetica,sans-Serif" font-size="10.00">elc::defs::stream_n</text>
<text text-anchor="middle" x="477" y="-31" font-family="Helvetica,sans-Serif" font-size="10.00">::noexcept_string_ostream</text>
</a>
</g>
</g>
<!-- Node8&#45;&gt;Node1 -->
<g id="edge9" class="edge">
<title>Node8&#45;&gt;Node1</title>
<path fill="none" stroke="#63b8ff" d="M530.1,-57.79C534.48,-59.5 538.83,-61.25 543,-63 567.37,-73.21 594.4,-86 614.51,-95.81"/>
<polygon fill="#63b8ff" stroke="#63b8ff" points="531.1,-54.42 520.51,-54.1 528.59,-60.95 531.1,-54.42"/>
</g>
<!-- Node9&#45;&gt;Node8 -->
<g id="edge10" class="edge">
<title>Node9&#45;&gt;Node8</title>
<path fill="none" stroke="#63b8ff" d="M385.39,-53.35C393.73,-52.03 402.32,-50.67 410.74,-49.34"/>
<polygon fill="#63b8ff" stroke="#63b8ff" points="384.7,-49.92 375.37,-54.94 385.79,-56.83 384.7,-49.92"/>
</g>
<!-- Node9&#45;&gt;Node12 -->
<g id="edge20" class="edge">
<title>Node9&#45;&gt;Node12</title>
<path fill="none" stroke="#63b8ff" d="M385.57,-72.67C398.47,-74.72 411.98,-76.86 424.49,-78.84"/>
<polygon fill="#63b8ff" stroke="#63b8ff" points="385.79,-69.17 375.37,-71.06 384.7,-76.08 385.79,-69.17"/>
</g>
<!-- Node10&#45;&gt;Node9 -->
<g id="edge11" class="edge">
<title>Node10&#45;&gt;Node9</title>
<path fill="none" stroke="#63b8ff" d="M246.43,-63C254.84,-63 263.42,-63 271.64,-63"/>
<polygon fill="#63b8ff" stroke="#63b8ff" points="246.3,-59.5 236.3,-63 246.3,-66.5 246.3,-59.5"/>
</g>
<!-- Node11 -->
<g id="node11" class="node">
<title>Node11</title>
<g id="a_node11"><a xlink:href="structelc_1_1defs_1_1stream__n_1_1string__ostream.html" target="_top" xlink:title=" ">
<polygon fill="white" stroke="#666666" points="373.5,-30 273.5,-30 273.5,0 373.5,0 373.5,-30"/>
<text text-anchor="start" x="281.5" y="-18" font-family="Helvetica,sans-Serif" font-size="10.00">elc::defs::stream_n</text>
<text text-anchor="middle" x="323.5" y="-7" font-family="Helvetica,sans-Serif" font-size="10.00">::string_ostream</text>
</a>
</g>
</g>
<!-- Node10&#45;&gt;Node11 -->
<g id="edge15" class="edge">
<title>Node10&#45;&gt;Node11</title>
<path fill="none" stroke="#63b8ff" d="M239.18,-44.51C252.74,-39.71 267.17,-34.6 280.15,-30"/>
<polygon fill="#63b8ff" stroke="#63b8ff" points="237.76,-41.31 229.5,-47.94 240.1,-47.9 237.76,-41.31"/>
</g>
<!-- Node10&#45;&gt;Node13 -->
<g id="edge19" class="edge">
<title>Node10&#45;&gt;Node13</title>
<path fill="none" stroke="#63b8ff" d="M239.18,-81.49C252.74,-86.29 267.17,-91.4 280.15,-96"/>
<polygon fill="#63b8ff" stroke="#63b8ff" points="240.1,-78.1 229.5,-78.06 237.76,-84.69 240.1,-78.1"/>
</g>
<!-- Node11&#45;&gt;Node8 -->
<g id="edge14" class="edge">
<title>Node11&#45;&gt;Node8</title>
<path fill="none" stroke="#63b8ff" d="M383.59,-24.36C392.51,-25.77 401.75,-27.24 410.79,-28.67"/>
<polygon fill="#63b8ff" stroke="#63b8ff" points="384.11,-20.9 373.69,-22.79 383.02,-27.81 384.11,-20.9"/>
</g>
<!-- Node11&#45;&gt;Node14 -->
<g id="edge24" class="edge">
<title>Node11&#45;&gt;Node14</title>
<path fill="none" stroke="#63b8ff" d="M371.59,-35.93C372.78,-36.92 373.92,-37.94 375,-39 400.55,-64.04 384.35,-87.13 411,-111 415.66,-115.17 421.11,-118.64 426.83,-121.52"/>
<polygon fill="#63b8ff" stroke="#63b8ff" points="373.42,-32.94 363.24,-30.01 369.37,-38.65 373.42,-32.94"/>
</g>
<!-- Node12&#45;&gt;Node1 -->
<g id="edge16" class="edge">
<title>Node12&#45;&gt;Node1</title>
<path fill="none" stroke="#63b8ff" d="M539.94,-95.9C552.66,-97.73 566.09,-99.66 578.94,-101.51"/>
<polygon fill="#63b8ff" stroke="#63b8ff" points="540.32,-92.42 529.92,-94.46 539.32,-99.35 540.32,-92.42"/>
</g>
<!-- Node13&#45;&gt;Node12 -->
<g id="edge17" class="edge">
<title>Node13&#45;&gt;Node12</title>
<path fill="none" stroke="#63b8ff" d="M383.79,-101.61C397.22,-99.48 411.37,-97.24 424.45,-95.17"/>
<polygon fill="#63b8ff" stroke="#63b8ff" points="383.02,-98.19 373.69,-103.21 384.11,-105.1 383.02,-98.19"/>
</g>
<!-- Node13&#45;&gt;Node14 -->
<g id="edge25" class="edge">
<title>Node13&#45;&gt;Node14</title>
<path fill="none" stroke="#63b8ff" d="M383.86,-120.4C398.08,-122.66 413.1,-125.04 426.8,-127.21"/>
<polygon fill="#63b8ff" stroke="#63b8ff" points="384.11,-116.9 373.69,-118.79 383.02,-123.81 384.11,-116.9"/>
</g>
<!-- Node14&#45;&gt;Node1 -->
<g id="edge22" class="edge">
<title>Node14&#45;&gt;Node1</title>
<path fill="none" stroke="#63b8ff" d="M537.28,-126.48C550.73,-124.55 565.1,-122.48 578.82,-120.51"/>
<polygon fill="#63b8ff" stroke="#63b8ff" points="536.6,-123.04 527.2,-127.93 537.6,-129.97 536.6,-123.04"/>
</g>
</g>
</svg>
        <g id="navigator" transform="translate(0 0)" fill="#404254">
                <rect fill="#f2f5e9" fill-opacity="0.5" stroke="#606060" stroke-width=".5" x="0" y="0" width="60" height="60"/>
                <use id="zoomplus" xlink:href="#zoomPlus" x="17" y="9" onmousedown="handleZoom(evt,'in')"/>
                <use id="zoomminus" xlink:href="#zoomMin" x="42" y="9" onmousedown="handleZoom(evt,'out')"/>
                <use id="reset" xlink:href="#resetDef" x="30" y="36" onmousedown="handleReset()"/>
                <g id="arrowUp" xlink:href="#dirArrow" transform="translate(30 24)" onmousedown="handlePan(0,-1)">
                  <use xlink:href="#rim" fill="#404040">
                        <set attributeName="fill" to="#808080" begin="arrowUp.mouseover" end="arrowUp.mouseout"/>
                  </use>
                  <path fill="none" stroke="white" stroke-width="1.5" d="M0,-3.0v7 M-2.5,-0.5L0,-3.0L2.5,-0.5"/>
                </g>
                <g id="arrowRight" xlink:href="#dirArrow" transform="rotate(90) translate(36 -43)" onmousedown="handlePan(1,0)">
                  <use xlink:href="#rim" fill="#404040">
                        <set attributeName="fill" to="#808080" begin="arrowRight.mouseover" end="arrowRight.mouseout"/>
                  </use>
                  <path fill="none" stroke="white" stroke-width="1.5" d="M0,-3.0v7 M-2.5,-0.5L0,-3.0L2.5,-0.5"/>
                </g>
                <g id="arrowDown" xlink:href="#dirArrow" transform="rotate(180) translate(-30 -48)" onmousedown="handlePan(0,1)">
                  <use xlink:href="#rim" fill="#404040">
                        <set attributeName="fill" to="#808080" begin="arrowDown.mouseover" end="arrowDown.mouseout"/>
                  </use>
                  <path fill="none" stroke="white" stroke-width="1.5" d="M0,-3.0v7 M-2.5,-0.5L0,-3.0L2.5,-0.5"/>
                </g>
                <g id="arrowLeft" xlink:href="#dirArrow" transform="rotate(270) translate(-36 17)" onmousedown="handlePan(-1,0)">
                  <use xlink:href="#rim" fill="#404040">
                        <set attributeName="fill" to="#808080" begin="arrowLeft.mouseover" end="arrowLeft.mouseout"/>
                  </use>
                  <path fill="none" stroke="white" stroke-width="1.5" d="M0,-3.0v7 M-2.5,-0.5L0,-3.0L2.5,-0.5"/>
                </g>
        </g>
        <svg viewBox="0 0 15 15" width="100%" height="30px" preserveAspectRatio="xMaxYMin meet">
         <g id="arrow_out" transform="scale(0.3 0.3)">
          <a xlink:href="structelc_1_1defs_1_1stream__n_1_1noexcept__string__iostream__inherit__graph_org.svg" target="_base">
           <rect id="button" ry="5" rx="5" y="6" x="6" height="38" width="38"
                fill="#f2f5e9" fill-opacity="0.5" stroke="#606060" stroke-width="1.0"/>
           <path id="arrow"
             d="M 11.500037,31.436501 C 11.940474,20.09759 22.043105,11.32322 32.158766,21.979434 L 37.068811,17.246167 C 37.068811,17.246167 37.088388,32 37.088388,32 L 22.160133,31.978069 C 22.160133,31.978069 26.997745,27.140456 26.997745,27.140456 C 18.528582,18.264221 13.291696,25.230495 11.500037,31.436501 z"
             style="fill:#404040;"/>
          </a>
         </g>
        </svg>
</svg>
