<?xml version="1.0" encoding="UTF-8" standalone="no"?>
<!DOCTYPE svg PUBLIC "-//W3C//DTD SVG 1.1//EN"
 "http://www.w3.org/Graphics/SVG/1.1/DTD/svg11.dtd">
<!-- Generated by graphviz version 6.0.1 (20220911.1526)
 -->
<!-- Title: elc::defs::string_n::string_data_n::constexpr_string_data_t&lt; char_T &gt; Pages: 1 -->
<svg width="630pt" height="149pt"
 viewBox="0.00 0.00 630.00 149.00" xmlns="http://www.w3.org/2000/svg" xmlns:xlink="http://www.w3.org/1999/xlink">
<g id="graph0" class="graph" transform="scale(1 1) rotate(0) translate(4 145)">
<title>elc::defs::string_n::string_data_n::constexpr_string_data_t&lt; char_T &gt;</title>
<!-- Node1 -->
<g id="node1" class="node">
<title>Node1</title>
<g id="a_node1"><a xlink:title=" ">
<polygon fill="#999999" stroke="#666666" points="622,-62.5 492,-62.5 492,-21.5 622,-21.5 622,-62.5"/>
<text text-anchor="start" x="500" y="-50.5" font-family="Helvetica,sans-Serif" font-size="10.00">elc::defs::string_n</text>
<text text-anchor="start" x="500" y="-39.5" font-family="Helvetica,sans-Serif" font-size="10.00">::string_data_n::constexpr</text>
<text text-anchor="middle" x="557" y="-28.5" font-family="Helvetica,sans-Serif" font-size="10.00">_string_data_t&lt; char_T &gt;</text>
</a>
</g>
</g>
<!-- Node2 -->
<g id="node2" class="node">
<title>Node2</title>
<g id="a_node2"><a xlink:href="structelc_1_1defs_1_1string__n_1_1string__data__n_1_1base__string__data__t.html" target="_top" xlink:title=" ">
<polygon fill="white" stroke="#666666" points="451,-89.5 326,-89.5 326,-48.5 451,-48.5 451,-89.5"/>
<text text-anchor="start" x="334" y="-77.5" font-family="Helvetica,sans-Serif" font-size="10.00">elc::defs::string_n</text>
<text text-anchor="start" x="334" y="-66.5" font-family="Helvetica,sans-Serif" font-size="10.00">::string_data_n::base</text>
<text text-anchor="middle" x="388.5" y="-55.5" font-family="Helvetica,sans-Serif" font-size="10.00">_string_data_t&lt; char_T &gt;</text>
</a>
</g>
</g>
<!-- Node2&#45;&gt;Node1 -->
<g id="edge1" class="edge">
<title>Node2&#45;&gt;Node1</title>
<path fill="none" stroke="#63b8ff" d="M461.16,-57.38C471.39,-55.72 481.86,-54.02 491.94,-52.39"/>
<polygon fill="#63b8ff" stroke="#63b8ff" points="460.34,-53.97 451.03,-59.02 461.46,-60.88 460.34,-53.97"/>
</g>
<!-- Node3 -->
<g id="node3" class="node">
<title>Node3</title>
<g id="a_node3"><a xlink:title=" ">
<polygon fill="white" stroke="#666666" points="285,-141 0,-141 0,-67 285,-67 285,-141"/>
<text text-anchor="start" x="8" y="-129" font-family="Helvetica,sans-Serif" font-size="10.00">type_info_t&lt; base_string</text>
<text text-anchor="start" x="8" y="-118" font-family="Helvetica,sans-Serif" font-size="10.00">_data_t&lt; char_T &gt; &gt;:: template</text>
<text text-anchor="middle" x="142.5" y="-107" font-family="Helvetica,sans-Serif" font-size="10.00"> </text>
<text text-anchor="start" x="8" y="-96" font-family="Helvetica,sans-Serif" font-size="10.00">							with_common_attribute</text>
<text text-anchor="start" x="8" y="-85" font-family="Helvetica,sans-Serif" font-size="10.00">&lt; abstract_base, never_in_array,</text>
<text text-anchor="middle" x="142.5" y="-74" font-family="Helvetica,sans-Serif" font-size="10.00"> replace_able, ref_able &gt;</text>
</a>
</g>
</g>
<!-- Node3&#45;&gt;Node2 -->
<g id="edge2" class="edge">
<title>Node3&#45;&gt;Node2</title>
<path fill="none" stroke="#63b8ff" d="M294.99,-82.27C305.69,-80.73 316.07,-79.25 325.77,-77.85"/>
<polygon fill="#63b8ff" stroke="#63b8ff" points="294.48,-78.81 285.08,-83.69 295.48,-85.74 294.48,-78.81"/>
</g>
<!-- Node4 -->
<g id="node4" class="node">
<title>Node4</title>
<g id="a_node4"><a xlink:href="classelc_1_1defs_1_1base_1_1build__by__get__only.html" target="_top" xlink:title=" ">
<polygon fill="white" stroke="#666666" points="196,-49 89,-49 89,-19 196,-19 196,-49"/>
<text text-anchor="start" x="97" y="-37" font-family="Helvetica,sans-Serif" font-size="10.00">elc::defs::base::build</text>
<text text-anchor="middle" x="142.5" y="-26" font-family="Helvetica,sans-Serif" font-size="10.00">_by_get_only</text>
</a>
</g>
</g>
<!-- Node4&#45;&gt;Node2 -->
<g id="edge3" class="edge">
<title>Node4&#45;&gt;Node2</title>
<path fill="none" stroke="#63b8ff" d="M206.25,-43C243.04,-48.28 289.31,-54.92 325.9,-60.16"/>
<polygon fill="#63b8ff" stroke="#63b8ff" points="206.54,-39.51 196.14,-41.55 205.55,-46.44 206.54,-39.51"/>
</g>
<!-- Node5 -->
<g id="node5" class="node">
<title>Node5</title>
<g id="a_node5"><a xlink:title=" ">
<polygon fill="white" stroke="#666666" points="456,-30 321,-30 321,0 456,0 456,-30"/>
<text text-anchor="start" x="329" y="-18" font-family="Helvetica,sans-Serif" font-size="10.00">instance_struct&lt; constexpr</text>
<text text-anchor="middle" x="388.5" y="-7" font-family="Helvetica,sans-Serif" font-size="10.00">_string_data_t&lt; char_T &gt; &gt;</text>
</a>
</g>
</g>
<!-- Node5&#45;&gt;Node1 -->
<g id="edge4" class="edge">
<title>Node5&#45;&gt;Node1</title>
<path fill="none" stroke="#63b8ff" d="M466.27,-27.45C474.85,-28.84 483.53,-30.25 491.93,-31.61"/>
<polygon fill="#63b8ff" stroke="#63b8ff" points="466.69,-23.97 456.26,-25.83 465.57,-30.88 466.69,-23.97"/>
</g>
</g>
</svg>
