<?xml version="1.0" encoding="UTF-8" standalone="no"?>
<!DOCTYPE svg PUBLIC "-//W3C//DTD SVG 1.1//EN"
 "http://www.w3.org/Graphics/SVG/1.1/DTD/svg11.dtd">
<!-- Generated by graphviz version 6.0.1 (20220911.1526)
 -->
<!-- Title: elc::defs::string_n::string_data_n::base_string_data_t::get_size Pages: 1 -->
<svg width="497pt" height="267pt"
 viewBox="0.00 0.00 497.00 267.00" xmlns="http://www.w3.org/2000/svg" xmlns:xlink="http://www.w3.org/1999/xlink">
<g id="graph0" class="graph" transform="scale(1 1) rotate(0) translate(4 263)">
<title>elc::defs::string_n::string_data_n::base_string_data_t::get_size</title>
<!-- Node1 -->
<g id="node1" class="node">
<title>Node1</title>
<g id="a_node1"><a xlink:title=" ">
<polygon fill="#999999" stroke="#666666" points="489,-167 368,-167 368,-126 489,-126 489,-167"/>
<text text-anchor="start" x="376" y="-155" font-family="Helvetica,sans-Serif" font-size="10.00">elc::defs::string_n</text>
<text text-anchor="start" x="376" y="-144" font-family="Helvetica,sans-Serif" font-size="10.00">::string_data_n::base</text>
<text text-anchor="middle" x="428.5" y="-133" font-family="Helvetica,sans-Serif" font-size="10.00">_string_data_t::get_size</text>
</a>
</g>
</g>
<!-- Node2 -->
<g id="node2" class="node">
<title>Node2</title>
<g id="a_node2"><a xlink:href="structelc_1_1defs_1_1string__n_1_1string__data__n_1_1base__string__data__t.html#ad20de43af0736d5d208a0baaf91469b7" target="_top" xlink:title=" ">
<polygon fill="white" stroke="#666666" points="317,-259 193,-259 193,-218 317,-218 317,-259"/>
<text text-anchor="start" x="201" y="-247" font-family="Helvetica,sans-Serif" font-size="10.00">elc::defs::string_n</text>
<text text-anchor="start" x="201" y="-236" font-family="Helvetica,sans-Serif" font-size="10.00">::string_data_n::base</text>
<text text-anchor="middle" x="255" y="-225" font-family="Helvetica,sans-Serif" font-size="10.00">_string_data_t::do_erase</text>
</a>
</g>
</g>
<!-- Node1&#45;&gt;Node2 -->
<g id="edge1" class="edge">
<title>Node1&#45;&gt;Node2</title>
<path fill="none" stroke="#63b8ff" d="M391.46,-172.98C374.04,-185.06 352.5,-198.99 332,-209.5 326.22,-212.46 320.06,-215.3 313.85,-217.96"/>
<polygon fill="#63b8ff" stroke="#63b8ff" points="393.48,-175.83 399.65,-167.22 389.46,-170.1 393.48,-175.83"/>
</g>
<!-- Node3 -->
<g id="node3" class="node">
<title>Node3</title>
<g id="a_node3"><a xlink:href="structelc_1_1defs_1_1string__n_1_1string__data__n_1_1base__string__data__t.html#a0078984c68e92961b546c3c03f779169" target="_top" xlink:title=" ">
<polygon fill="white" stroke="#666666" points="317,-200 193,-200 193,-159 317,-159 317,-200"/>
<text text-anchor="start" x="201" y="-188" font-family="Helvetica,sans-Serif" font-size="10.00">elc::defs::string_n</text>
<text text-anchor="start" x="201" y="-177" font-family="Helvetica,sans-Serif" font-size="10.00">::string_data_n::base</text>
<text text-anchor="middle" x="255" y="-166" font-family="Helvetica,sans-Serif" font-size="10.00">_string_data_t::do_insert</text>
</a>
</g>
</g>
<!-- Node1&#45;&gt;Node3 -->
<g id="edge2" class="edge">
<title>Node1&#45;&gt;Node3</title>
<path fill="none" stroke="#63b8ff" d="M357.82,-159.91C344.35,-162.5 330.32,-165.2 317.14,-167.74"/>
<polygon fill="#63b8ff" stroke="#63b8ff" points="358.84,-163.28 368,-157.95 357.52,-156.4 358.84,-163.28"/>
</g>
<!-- Node4 -->
<g id="node4" class="node">
<title>Node4</title>
<g id="a_node4"><a xlink:href="structelc_1_1defs_1_1string__n_1_1string__data__n_1_1base__string__data__t.html#aaba32ac4b54bb8e1b53b60faaecd97c7" target="_top" xlink:title=" ">
<polygon fill="white" stroke="#666666" points="317,-140.5 193,-140.5 193,-88.5 317,-88.5 317,-140.5"/>
<text text-anchor="start" x="201" y="-128.5" font-family="Helvetica,sans-Serif" font-size="10.00">elc::defs::string_n</text>
<text text-anchor="start" x="201" y="-117.5" font-family="Helvetica,sans-Serif" font-size="10.00">::string_data_n::base</text>
<text text-anchor="start" x="201" y="-106.5" font-family="Helvetica,sans-Serif" font-size="10.00">_string_data_t::get_hash</text>
<text text-anchor="middle" x="255" y="-95.5" font-family="Helvetica,sans-Serif" font-size="10.00">_detail</text>
</a>
</g>
</g>
<!-- Node1&#45;&gt;Node4 -->
<g id="edge3" class="edge">
<title>Node1&#45;&gt;Node4</title>
<path fill="none" stroke="#63b8ff" d="M357.82,-133.5C344.35,-130.98 330.32,-128.37 317.14,-125.91"/>
<polygon fill="#63b8ff" stroke="#63b8ff" points="357.53,-137 368,-135.4 358.81,-130.12 357.53,-137"/>
</g>
<!-- Node5 -->
<g id="node5" class="node">
<title>Node5</title>
<g id="a_node5"><a xlink:href="structelc_1_1defs_1_1string__n_1_1string__data__n_1_1base__string__data__t.html#aae5ef095b93df6574f50984af813bad3" target="_top" xlink:title=" ">
<polygon fill="white" stroke="#666666" points="332,-70 178,-70 178,-29 332,-29 332,-70"/>
<text text-anchor="start" x="186" y="-58" font-family="Helvetica,sans-Serif" font-size="10.00">elc::defs::string_n</text>
<text text-anchor="start" x="186" y="-47" font-family="Helvetica,sans-Serif" font-size="10.00">::string_data_n::base</text>
<text text-anchor="middle" x="255" y="-36" font-family="Helvetica,sans-Serif" font-size="10.00">_string_data_t::get_substr_data</text>
</a>
</g>
</g>
<!-- Node1&#45;&gt;Node5 -->
<g id="edge4" class="edge">
<title>Node1&#45;&gt;Node5</title>
<path fill="none" stroke="#63b8ff" d="M393.54,-119.72C375.84,-106.54 353.46,-91.05 332,-79.5 325.88,-76.21 319.32,-73.07 312.71,-70.16"/>
<polygon fill="#63b8ff" stroke="#63b8ff" points="391.73,-122.75 401.82,-125.98 395.95,-117.16 391.73,-122.75"/>
</g>
<!-- Node6 -->
<g id="node6" class="node">
<title>Node6</title>
<g id="a_node6"><a xlink:href="structelc_1_1defs_1_1string__n_1_1string__data__n_1_1base__string__data__t.html#a50c4053c2dc3faed2203026d56bd1420" target="_top" xlink:title=" ">
<polygon fill="white" stroke="#666666" points="142,-100 0,-100 0,-59 142,-59 142,-100"/>
<text text-anchor="start" x="8" y="-88" font-family="Helvetica,sans-Serif" font-size="10.00">elc::defs::string_n</text>
<text text-anchor="start" x="8" y="-77" font-family="Helvetica,sans-Serif" font-size="10.00">::string_data_n::base</text>
<text text-anchor="middle" x="71" y="-66" font-family="Helvetica,sans-Serif" font-size="10.00">_string_data_t::do_pop_back</text>
</a>
</g>
</g>
<!-- Node5&#45;&gt;Node6 -->
<g id="edge5" class="edge">
<title>Node5&#45;&gt;Node6</title>
<path fill="none" stroke="#63b8ff" d="M167.78,-63.71C159.15,-65.14 150.45,-66.57 142.02,-67.96"/>
<polygon fill="#63b8ff" stroke="#63b8ff" points="168.57,-67.13 177.87,-62.05 167.43,-60.22 168.57,-67.13"/>
</g>
<!-- Node7 -->
<g id="node7" class="node">
<title>Node7</title>
<g id="a_node7"><a xlink:href="structelc_1_1defs_1_1string__n_1_1string__data__n_1_1base__string__data__t.html#a159e87e96c2b7c351bddeca06f9258df" target="_top" xlink:title=" ">
<polygon fill="white" stroke="#666666" points="141,-41 1,-41 1,0 141,0 141,-41"/>
<text text-anchor="start" x="9" y="-29" font-family="Helvetica,sans-Serif" font-size="10.00">elc::defs::string_n</text>
<text text-anchor="start" x="9" y="-18" font-family="Helvetica,sans-Serif" font-size="10.00">::string_data_n::base</text>
<text text-anchor="middle" x="71" y="-7" font-family="Helvetica,sans-Serif" font-size="10.00">_string_data_t::do_pop_front</text>
</a>
</g>
</g>
<!-- Node5&#45;&gt;Node7 -->
<g id="edge6" class="edge">
<title>Node5&#45;&gt;Node7</title>
<path fill="none" stroke="#63b8ff" d="M167.82,-35.77C158.88,-34.34 149.87,-32.91 141.15,-31.52"/>
<polygon fill="#63b8ff" stroke="#63b8ff" points="167.44,-39.25 177.87,-37.37 168.55,-32.34 167.44,-39.25"/>
</g>
</g>
</svg>
