<?xml version="1.0" encoding="UTF-8" standalone="no"?>
<!DOCTYPE svg PUBLIC "-//W3C//DTD SVG 1.1//EN"
 "http://www.w3.org/Graphics/SVG/1.1/DTD/svg11.dtd">
<!-- Generated by graphviz version 6.0.1 (20220911.1526)
 -->
<!-- Title: elc::defs::base::type_info_t::operator== Pages: 1 -->
<svg width="271pt" height="98pt"
 viewBox="0.00 0.00 271.00 97.50" xmlns="http://www.w3.org/2000/svg" xmlns:xlink="http://www.w3.org/1999/xlink">
<g id="graph0" class="graph" transform="scale(1 1) rotate(0) translate(4 93.5)">
<title>elc::defs::base::type_info_t::operator==</title>
<!-- Node1 -->
<g id="node1" class="node">
<title>Node1</title>
<g id="a_node1"><a xlink:title=" ">
<polygon fill="#999999" stroke="#666666" points="105,-57 0,-57 0,-27 105,-27 105,-57"/>
<text text-anchor="start" x="8" y="-45" font-family="Helvetica,sans-Serif" font-size="10.00">elc::defs::base::type</text>
<text text-anchor="middle" x="52.5" y="-34" font-family="Helvetica,sans-Serif" font-size="10.00">_info_t::operator==</text>
</a>
</g>
</g>
<!-- Node2 -->
<g id="node2" class="node">
<title>Node2</title>
<g id="a_node2"><a xlink:href="structelc_1_1defs_1_1base_1_1base__type__info__t.html#a68c8a58d6d85160c86e8c995b20b3964" target="_top" xlink:title=" ">
<polygon fill="white" stroke="#666666" points="262,-89.5 142,-89.5 142,-48.5 262,-48.5 262,-89.5"/>
<text text-anchor="start" x="150" y="-77.5" font-family="Helvetica,sans-Serif" font-size="10.00">elc::defs::base::base</text>
<text text-anchor="start" x="150" y="-66.5" font-family="Helvetica,sans-Serif" font-size="10.00">_type_info_t::base_type</text>
<text text-anchor="middle" x="202" y="-55.5" font-family="Helvetica,sans-Serif" font-size="10.00">_info_t</text>
</a>
</g>
</g>
<!-- Node1&#45;&gt;Node2 -->
<g id="edge1" class="edge">
<title>Node1&#45;&gt;Node2</title>
<path fill="none" stroke="#63b8ff" d="M105.09,-51.44C113.72,-53.02 122.8,-54.68 131.79,-56.33"/>
<polygon fill="#63b8ff" stroke="#63b8ff" points="131.4,-59.82 141.87,-58.18 132.66,-52.93 131.4,-59.82"/>
</g>
<!-- Node3 -->
<g id="node3" class="node">
<title>Node3</title>
<g id="a_node3"><a xlink:href="structelc_1_1defs_1_1base_1_1base__type__info__t.html#a83a5d152aaf6d18aa5f3956d90380acc" target="_top" xlink:title=" ">
<polygon fill="white" stroke="#666666" points="263,-30 141,-30 141,0 263,0 263,-30"/>
<text text-anchor="start" x="149" y="-18" font-family="Helvetica,sans-Serif" font-size="10.00">elc::defs::base::base</text>
<text text-anchor="middle" x="202" y="-7" font-family="Helvetica,sans-Serif" font-size="10.00">_type_info_t::operator==</text>
</a>
</g>
</g>
<!-- Node1&#45;&gt;Node3 -->
<g id="edge2" class="edge">
<title>Node1&#45;&gt;Node3</title>
<path fill="none" stroke="#63b8ff" d="M105.09,-32.56C113.39,-31.04 122.1,-29.44 130.75,-27.86"/>
<polygon fill="#63b8ff" stroke="#63b8ff" points="131.64,-31.26 140.84,-26.01 130.38,-24.37 131.64,-31.26"/>
</g>
</g>
</svg>
