<?xml version="1.0" encoding="UTF-8" standalone="no"?>
<!DOCTYPE svg PUBLIC "-//W3C//DTD SVG 1.1//EN"
 "http://www.w3.org/Graphics/SVG/1.1/DTD/svg11.dtd">
<!-- Generated by graphviz version 6.0.1 (20220911.1526)
 -->
<!-- Title: elc::APIs::alloc::source_location_guard::source_location_guard Pages: 1 -->
<svg width="293pt" height="265pt"
 viewBox="0.00 0.00 293.00 264.50" xmlns="http://www.w3.org/2000/svg" xmlns:xlink="http://www.w3.org/1999/xlink">
<g id="graph0" class="graph" transform="scale(1 1) rotate(0) translate(4 260.5)">
<title>elc::APIs::alloc::source_location_guard::source_location_guard</title>
<!-- Node1 -->
<g id="node1" class="node">
<title>Node1</title>
<g id="a_node1"><a xlink:title=" ">
<polygon fill="#999999" stroke="#666666" points="285,-143.5 165,-143.5 165,-102.5 285,-102.5 285,-143.5"/>
<text text-anchor="start" x="173" y="-131.5" font-family="Helvetica,sans-Serif" font-size="10.00">elc::APIs::alloc::source</text>
<text text-anchor="start" x="173" y="-120.5" font-family="Helvetica,sans-Serif" font-size="10.00">_location_guard::source</text>
<text text-anchor="middle" x="225" y="-109.5" font-family="Helvetica,sans-Serif" font-size="10.00">_location_guard</text>
</a>
</g>
</g>
<!-- Node2 -->
<g id="node2" class="node">
<title>Node2</title>
<g id="a_node2"><a xlink:href="structelc_1_1defs_1_1memory_1_1alloc__n_1_1get__size__of__alloc__t.html#aafd82868a2459c24acbd0df6a1306dc8" target="_top" xlink:title=" ">
<polygon fill="white" stroke="#666666" points="116,-256.5 13,-256.5 13,-215.5 116,-215.5 116,-256.5"/>
<text text-anchor="start" x="21" y="-244.5" font-family="Helvetica,sans-Serif" font-size="10.00">elc::defs::memory::</text>
<text text-anchor="start" x="21" y="-233.5" font-family="Helvetica,sans-Serif" font-size="10.00">alloc_n::get_size_of</text>
<text text-anchor="middle" x="64.5" y="-222.5" font-family="Helvetica,sans-Serif" font-size="10.00">_alloc_t::base_call</text>
</a>
</g>
</g>
<!-- Node1&#45;&gt;Node2 -->
<g id="edge1" class="edge">
<title>Node1&#45;&gt;Node2</title>
<path fill="none" stroke="#63b8ff" d="M197,-150.8C178.89,-168.42 153.88,-190.84 129,-207 124.43,-209.97 119.5,-212.79 114.48,-215.43"/>
<polygon fill="#63b8ff" stroke="#63b8ff" points="199.65,-153.1 204.31,-143.58 194.74,-148.11 199.65,-153.1"/>
</g>
<!-- Node3 -->
<g id="node3" class="node">
<title>Node3</title>
<g id="a_node3"><a xlink:href="structelc_1_1defs_1_1memory_1_1get__n_1_1get__size__of__get__t.html#a33ffcdfd3180fb9c9852ee6d63eabe8d" target="_top" xlink:title=" ">
<polygon fill="white" stroke="#666666" points="122,-197.5 7,-197.5 7,-156.5 122,-156.5 122,-197.5"/>
<text text-anchor="start" x="15" y="-185.5" font-family="Helvetica,sans-Serif" font-size="10.00">elc::defs::memory::</text>
<text text-anchor="start" x="15" y="-174.5" font-family="Helvetica,sans-Serif" font-size="10.00">get_n::get_size_of_get</text>
<text text-anchor="middle" x="64.5" y="-163.5" font-family="Helvetica,sans-Serif" font-size="10.00">_t::base_call</text>
</a>
</g>
</g>
<!-- Node1&#45;&gt;Node3 -->
<g id="edge2" class="edge">
<title>Node1&#45;&gt;Node3</title>
<path fill="none" stroke="#63b8ff" d="M155.35,-146.39C144.29,-150.16 132.94,-154.02 122.2,-157.68"/>
<polygon fill="#63b8ff" stroke="#63b8ff" points="156.64,-149.65 164.98,-143.11 154.39,-143.02 156.64,-149.65"/>
</g>
<!-- Node4 -->
<g id="node4" class="node">
<title>Node4</title>
<g id="a_node4"><a xlink:href="structelc_1_1defs_1_1memory_1_1alloc__n_1_1alloc__t.html#a619bc9c486d11c526088f8830f668aa5" target="_top" xlink:title=" ">
<polygon fill="white" stroke="#666666" points="129,-138 0,-138 0,-108 129,-108 129,-138"/>
<text text-anchor="start" x="8" y="-126" font-family="Helvetica,sans-Serif" font-size="10.00">elc::defs::memory::</text>
<text text-anchor="middle" x="64.5" y="-115" font-family="Helvetica,sans-Serif" font-size="10.00">alloc_n::alloc_t::base_call</text>
</a>
</g>
</g>
<!-- Node1&#45;&gt;Node4 -->
<g id="edge3" class="edge">
<title>Node1&#45;&gt;Node4</title>
<path fill="none" stroke="#63b8ff" d="M154.98,-123C146.37,-123 137.6,-123 129.09,-123"/>
<polygon fill="#63b8ff" stroke="#63b8ff" points="154.98,-126.5 164.98,-123 154.98,-119.5 154.98,-126.5"/>
</g>
<!-- Node5 -->
<g id="node5" class="node">
<title>Node5</title>
<g id="a_node5"><a xlink:href="structelc_1_1defs_1_1memory_1_1alloc__n_1_1realloc__t.html#ab35cc10ddea3aee0bdc984f597ce5c91" target="_top" xlink:title=" ">
<polygon fill="white" stroke="#666666" points="115,-89.5 14,-89.5 14,-48.5 115,-48.5 115,-89.5"/>
<text text-anchor="start" x="22" y="-77.5" font-family="Helvetica,sans-Serif" font-size="10.00">elc::defs::memory::</text>
<text text-anchor="start" x="22" y="-66.5" font-family="Helvetica,sans-Serif" font-size="10.00">alloc_n::realloc_t::</text>
<text text-anchor="middle" x="64.5" y="-55.5" font-family="Helvetica,sans-Serif" font-size="10.00">base_call</text>
</a>
</g>
</g>
<!-- Node1&#45;&gt;Node5 -->
<g id="edge4" class="edge">
<title>Node1&#45;&gt;Node5</title>
<path fill="none" stroke="#63b8ff" d="M155.27,-99.58C141.8,-95 127.92,-90.27 115.22,-85.94"/>
<polygon fill="#63b8ff" stroke="#63b8ff" points="154.39,-102.98 164.98,-102.89 156.64,-96.35 154.39,-102.98"/>
</g>
<!-- Node6 -->
<g id="node6" class="node">
<title>Node6</title>
<g id="a_node6"><a xlink:href="structelc_1_1defs_1_1memory_1_1alloc__n_1_1free__t.html#a89530db4448e30ea17888e723c59a2b1" target="_top" xlink:title=" ">
<polygon fill="white" stroke="#666666" points="127,-30 2,-30 2,0 127,0 127,-30"/>
<text text-anchor="start" x="10" y="-18" font-family="Helvetica,sans-Serif" font-size="10.00">elc::defs::memory::</text>
<text text-anchor="middle" x="64.5" y="-7" font-family="Helvetica,sans-Serif" font-size="10.00">alloc_n::free_t::base_call</text>
</a>
</g>
</g>
<!-- Node1&#45;&gt;Node6 -->
<g id="edge5" class="edge">
<title>Node1&#45;&gt;Node6</title>
<path fill="none" stroke="#63b8ff" d="M197.22,-95.1C179.2,-77.53 154.21,-55.34 129,-40 122.93,-36.31 116.21,-32.97 109.49,-30.03"/>
<polygon fill="#63b8ff" stroke="#63b8ff" points="194.93,-97.76 204.5,-102.32 199.86,-92.79 194.93,-97.76"/>
</g>
</g>
</svg>
