<?xml version="1.0" encoding="UTF-8" standalone="no"?>
<!DOCTYPE svg PUBLIC "-//W3C//DTD SVG 1.1//EN"
 "http://www.w3.org/Graphics/SVG/1.1/DTD/svg11.dtd">
<!-- Generated by graphviz version 6.0.1 (20220911.1526)
 -->
<!-- Title: elc::defs::string_n::string_t::view Pages: 1 -->
<svg width="261pt" height="86pt"
 viewBox="0.00 0.00 261.00 86.00" xmlns="http://www.w3.org/2000/svg" xmlns:xlink="http://www.w3.org/1999/xlink">
<g id="graph0" class="graph" transform="scale(1 1) rotate(0) translate(4 82)">
<title>elc::defs::string_n::string_t::view</title>
<!-- Node1 -->
<g id="node1" class="node">
<title>Node1</title>
<g id="a_node1"><a xlink:title=" ">
<polygon fill="#999999" stroke="#666666" points="94,-54 0,-54 0,-24 94,-24 94,-54"/>
<text text-anchor="start" x="8" y="-42" font-family="Helvetica,sans-Serif" font-size="10.00">elc::defs::string_n</text>
<text text-anchor="middle" x="47" y="-31" font-family="Helvetica,sans-Serif" font-size="10.00">::string_t::view</text>
</a>
</g>
</g>
<!-- Node2 -->
<g id="node2" class="node">
<title>Node2</title>
<g id="a_node2"><a xlink:href="structelc_1_1defs_1_1string__n_1_1string__t.html#a0e8ed3f8eb3c1ca049b494100580fa5c" target="_top" xlink:title=" ">
<polygon fill="white" stroke="#666666" points="238.5,-78 144.5,-78 144.5,-48 238.5,-48 238.5,-78"/>
<text text-anchor="start" x="152.5" y="-66" font-family="Helvetica,sans-Serif" font-size="10.00">elc::defs::string_n</text>
<text text-anchor="middle" x="191.5" y="-55" font-family="Helvetica,sans-Serif" font-size="10.00">::string_t::size</text>
</a>
</g>
</g>
<!-- Node1&#45;&gt;Node2 -->
<g id="edge1" class="edge">
<title>Node1&#45;&gt;Node2</title>
<path fill="none" stroke="#63b8ff" d="M94.27,-46.79C107.09,-48.95 121.15,-51.32 134.46,-53.56"/>
<polygon fill="#63b8ff" stroke="#63b8ff" points="134.02,-57.04 144.47,-55.25 135.19,-50.13 134.02,-57.04"/>
</g>
<!-- Node3 -->
<g id="node3" class="node">
<title>Node3</title>
<g id="a_node3"><a xlink:href="structelc_1_1defs_1_1string__n_1_1string__t.html#a29de3650e22e2692dc4d5b8dbc89ec55" target="_top" xlink:title=" ">
<polygon fill="white" stroke="#666666" points="253,-30 130,-30 130,0 253,0 253,-30"/>
<text text-anchor="start" x="138" y="-18" font-family="Helvetica,sans-Serif" font-size="10.00">elc::defs::string_n</text>
<text text-anchor="middle" x="191.5" y="-7" font-family="Helvetica,sans-Serif" font-size="10.00">::string_t::writeable_data</text>
</a>
</g>
</g>
<!-- Node1&#45;&gt;Node3 -->
<g id="edge2" class="edge">
<title>Node1&#45;&gt;Node3</title>
<path fill="none" stroke="#63b8ff" d="M94.27,-31.21C102.44,-29.83 111.12,-28.37 119.79,-26.91"/>
<polygon fill="#63b8ff" stroke="#63b8ff" points="120.66,-30.31 129.93,-25.2 119.49,-23.41 120.66,-30.31"/>
</g>
</g>
</svg>
