<?xml version="1.0" encoding="UTF-8" standalone="no"?>
<!DOCTYPE svg PUBLIC "-//W3C//DTD SVG 1.1//EN"
 "http://www.w3.org/Graphics/SVG/1.1/DTD/svg11.dtd">
<!-- Generated by graphviz version 6.0.1 (20220911.1526)
 -->
<!-- Title: elc::defs::stream_n::noexcept_string_ostream Pages: 1 -->
<svg width="230pt" height="236pt"
 viewBox="0.00 0.00 229.50 236.00" xmlns="http://www.w3.org/2000/svg" xmlns:xlink="http://www.w3.org/1999/xlink">
<g id="graph0" class="graph" transform="scale(1 1) rotate(0) translate(4 232)">
<title>elc::defs::stream_n::noexcept_string_ostream</title>
<!-- Node1 -->
<g id="node1" class="node">
<title>Node1</title>
<g id="a_node1"><a xlink:title=" ">
<polygon fill="#999999" stroke="#666666" points="177.5,-30 45.5,-30 45.5,0 177.5,0 177.5,-30"/>
<text text-anchor="start" x="53.5" y="-18" font-family="Helvetica,sans-Serif" font-size="10.00">elc::defs::stream_n</text>
<text text-anchor="middle" x="111.5" y="-7" font-family="Helvetica,sans-Serif" font-size="10.00">::noexcept_string_ostream</text>
</a>
</g>
</g>
<!-- Node2 -->
<g id="node2" class="node">
<title>Node2</title>
<g id="a_node2"><a xlink:href="structelc_1_1defs_1_1stream__n_1_1noexcept__ostream.html" target="_top" xlink:title=" ">
<polygon fill="white" stroke="#666666" points="103,-96 0,-96 0,-66 103,-66 103,-96"/>
<text text-anchor="start" x="8" y="-84" font-family="Helvetica,sans-Serif" font-size="10.00">elc::defs::stream_n</text>
<text text-anchor="middle" x="51.5" y="-73" font-family="Helvetica,sans-Serif" font-size="10.00">::noexcept_ostream</text>
</a>
</g>
</g>
<!-- Node2&#45;&gt;Node1 -->
<g id="edge1" class="edge">
<title>Node2&#45;&gt;Node1</title>
<path fill="none" stroke="#63b8ff" d="M71.78,-58.37C80.51,-49.06 90.46,-38.44 98.22,-30.16"/>
<polygon fill="#63b8ff" stroke="#63b8ff" points="69.1,-56.11 64.82,-65.8 74.21,-60.89 69.1,-56.11"/>
</g>
<!-- Node3 -->
<g id="node3" class="node">
<title>Node3</title>
<g id="a_node3"><a xlink:href="structelc_1_1defs_1_1stream__n_1_1base__ostream.html" target="_top" xlink:title=" ">
<polygon fill="white" stroke="#666666" points="219.5,-162 119.5,-162 119.5,-132 219.5,-132 219.5,-162"/>
<text text-anchor="start" x="127.5" y="-150" font-family="Helvetica,sans-Serif" font-size="10.00">elc::defs::stream_n</text>
<text text-anchor="middle" x="169.5" y="-139" font-family="Helvetica,sans-Serif" font-size="10.00">::base_ostream</text>
</a>
</g>
</g>
<!-- Node3&#45;&gt;Node2 -->
<g id="edge2" class="edge">
<title>Node3&#45;&gt;Node2</title>
<path fill="none" stroke="#63b8ff" d="M134.66,-127.11C116.3,-117.14 94.15,-105.13 77.34,-96.01"/>
<polygon fill="#63b8ff" stroke="#63b8ff" points="133.15,-130.26 143.6,-131.95 136.48,-124.11 133.15,-130.26"/>
</g>
<!-- Node6 -->
<g id="node6" class="node">
<title>Node6</title>
<g id="a_node6"><a xlink:href="structelc_1_1defs_1_1stream__n_1_1string__ostream.html" target="_top" xlink:title=" ">
<polygon fill="white" stroke="#666666" points="221.5,-96 121.5,-96 121.5,-66 221.5,-66 221.5,-96"/>
<text text-anchor="start" x="129.5" y="-84" font-family="Helvetica,sans-Serif" font-size="10.00">elc::defs::stream_n</text>
<text text-anchor="middle" x="171.5" y="-73" font-family="Helvetica,sans-Serif" font-size="10.00">::string_ostream</text>
</a>
</g>
</g>
<!-- Node3&#45;&gt;Node6 -->
<g id="edge7" class="edge">
<title>Node3&#45;&gt;Node6</title>
<path fill="none" stroke="#63b8ff" d="M170.26,-121.54C170.53,-112.96 170.82,-103.61 171.06,-96.16"/>
<polygon fill="#63b8ff" stroke="#63b8ff" points="166.76,-121.69 169.94,-131.8 173.75,-121.91 166.76,-121.69"/>
</g>
<!-- Node4 -->
<g id="node4" class="node">
<title>Node4</title>
<g id="a_node4"><a xlink:href="structelc_1_1defs_1_1stream__n_1_1base__stream.html" target="_top" xlink:title=" ">
<polygon fill="white" stroke="#666666" points="160.5,-228 60.5,-228 60.5,-198 160.5,-198 160.5,-228"/>
<text text-anchor="start" x="68.5" y="-216" font-family="Helvetica,sans-Serif" font-size="10.00">elc::defs::stream_n</text>
<text text-anchor="middle" x="110.5" y="-205" font-family="Helvetica,sans-Serif" font-size="10.00">::base_stream</text>
</a>
</g>
</g>
<!-- Node4&#45;&gt;Node3 -->
<g id="edge3" class="edge">
<title>Node4&#45;&gt;Node3</title>
<path fill="none" stroke="#63b8ff" d="M130.44,-190.37C139.02,-181.06 148.81,-170.44 156.44,-162.16"/>
<polygon fill="#63b8ff" stroke="#63b8ff" points="127.8,-188.07 123.59,-197.8 132.95,-192.82 127.8,-188.07"/>
</g>
<!-- Node5 -->
<g id="node5" class="node">
<title>Node5</title>
<g id="a_node5"><a xlink:href="structelc_1_1defs_1_1stream__n_1_1noexcept__stream.html" target="_top" xlink:title=" ">
<polygon fill="white" stroke="#666666" points="101.5,-162 1.5,-162 1.5,-132 101.5,-132 101.5,-162"/>
<text text-anchor="start" x="9.5" y="-150" font-family="Helvetica,sans-Serif" font-size="10.00">elc::defs::stream_n</text>
<text text-anchor="middle" x="51.5" y="-139" font-family="Helvetica,sans-Serif" font-size="10.00">::noexcept_stream</text>
</a>
</g>
</g>
<!-- Node4&#45;&gt;Node5 -->
<g id="edge5" class="edge">
<title>Node4&#45;&gt;Node5</title>
<path fill="none" stroke="#63b8ff" d="M90.56,-190.37C81.98,-181.06 72.19,-170.44 64.56,-162.16"/>
<polygon fill="#63b8ff" stroke="#63b8ff" points="88.05,-192.82 97.41,-197.8 93.2,-188.07 88.05,-192.82"/>
</g>
<!-- Node5&#45;&gt;Node2 -->
<g id="edge4" class="edge">
<title>Node5&#45;&gt;Node2</title>
<path fill="none" stroke="#63b8ff" d="M51.5,-121.54C51.5,-112.96 51.5,-103.61 51.5,-96.16"/>
<polygon fill="#63b8ff" stroke="#63b8ff" points="48,-121.8 51.5,-131.8 55,-121.8 48,-121.8"/>
</g>
<!-- Node6&#45;&gt;Node1 -->
<g id="edge6" class="edge">
<title>Node6&#45;&gt;Node1</title>
<path fill="none" stroke="#63b8ff" d="M151.22,-58.37C142.49,-49.06 132.54,-38.44 124.78,-30.16"/>
<polygon fill="#63b8ff" stroke="#63b8ff" points="148.79,-60.89 158.18,-65.8 153.9,-56.11 148.79,-60.89"/>
</g>
</g>
</svg>
