<?xml version="1.0" encoding="UTF-8" standalone="no"?>
<!DOCTYPE svg PUBLIC "-//W3C//DTD SVG 1.1//EN"
 "http://www.w3.org/Graphics/SVG/1.1/DTD/svg11.dtd">
<!-- Generated by graphviz version 6.0.1 (20220911.1526)
 -->
<!-- Title: elc::defs::core::core_runtime_internal_helper_n::return_t Pages: 1 -->
<svg width="130pt" height="247pt"
 viewBox="0.00 0.00 130.00 247.00" xmlns="http://www.w3.org/2000/svg" xmlns:xlink="http://www.w3.org/1999/xlink">
<g id="graph0" class="graph" transform="scale(1 1) rotate(0) translate(4 243)">
<title>elc::defs::core::core_runtime_internal_helper_n::return_t</title>
<!-- Node1 -->
<g id="node1" class="node">
<title>Node1</title>
<g id="a_node1"><a xlink:title=" ">
<polygon fill="#999999" stroke="#666666" points="122,-41 0,-41 0,0 122,0 122,-41"/>
<text text-anchor="start" x="8" y="-29" font-family="Helvetica,sans-Serif" font-size="10.00">elc::defs::core::core</text>
<text text-anchor="start" x="8" y="-18" font-family="Helvetica,sans-Serif" font-size="10.00">_runtime_internal_helper</text>
<text text-anchor="middle" x="61" y="-7" font-family="Helvetica,sans-Serif" font-size="10.00">_n::return_t</text>
</a>
</g>
</g>
<!-- Node2 -->
<g id="node2" class="node">
<title>Node2</title>
<g id="a_node2"><a xlink:href="structelc_1_1defs_1_1core_1_1core__runtime__internal__helper__n_1_1base__t.html" target="_top" xlink:title=" ">
<polygon fill="white" stroke="#666666" points="122,-118 0,-118 0,-77 122,-77 122,-118"/>
<text text-anchor="start" x="8" y="-106" font-family="Helvetica,sans-Serif" font-size="10.00">elc::defs::core::core</text>
<text text-anchor="start" x="8" y="-95" font-family="Helvetica,sans-Serif" font-size="10.00">_runtime_internal_helper</text>
<text text-anchor="middle" x="61" y="-84" font-family="Helvetica,sans-Serif" font-size="10.00">_n::base_t</text>
</a>
</g>
</g>
<!-- Node2&#45;&gt;Node1 -->
<g id="edge1" class="edge">
<title>Node2&#45;&gt;Node1</title>
<path fill="none" stroke="#63b8ff" d="M61,-66.69C61,-58.08 61,-48.9 61,-41.07"/>
<polygon fill="#63b8ff" stroke="#63b8ff" points="57.5,-66.79 61,-76.79 64.5,-66.79 57.5,-66.79"/>
</g>
<!-- Node3 -->
<g id="node3" class="node">
<title>Node3</title>
<g id="a_node3"><a xlink:href="structelc_1_1defs_1_1core_1_1base__runtime__exception.html" target="_top" xlink:title=" ">
<polygon fill="white" stroke="#666666" points="113.5,-184 8.5,-184 8.5,-154 113.5,-154 113.5,-184"/>
<text text-anchor="start" x="16.5" y="-172" font-family="Helvetica,sans-Serif" font-size="10.00">elc::defs::core::base</text>
<text text-anchor="middle" x="61" y="-161" font-family="Helvetica,sans-Serif" font-size="10.00">_runtime_exception</text>
</a>
</g>
</g>
<!-- Node3&#45;&gt;Node2 -->
<g id="edge2" class="edge">
<title>Node3&#45;&gt;Node2</title>
<path fill="none" stroke="#63b8ff" d="M61,-143.91C61,-135.47 61,-126.1 61,-118.07"/>
<polygon fill="#63b8ff" stroke="#63b8ff" points="57.5,-143.94 61,-153.94 64.5,-143.94 57.5,-143.94"/>
</g>
<!-- Node4 -->
<g id="node4" class="node">
<title>Node4</title>
<g id="a_node4"><a xlink:title=" ">
<polygon fill="white" stroke="#666666" points="109,-239 13,-239 13,-220 109,-220 109,-239"/>
<text text-anchor="middle" x="61" y="-227" font-family="Helvetica,sans-Serif" font-size="10.00">runtime_exception</text>
</a>
</g>
</g>
<!-- Node4&#45;&gt;Node3 -->
<g id="edge3" class="edge">
<title>Node4&#45;&gt;Node3</title>
<path fill="none" stroke="#63b8ff" d="M61,-209.65C61,-201.36 61,-191.78 61,-184.11"/>
<polygon fill="#63b8ff" stroke="#63b8ff" points="57.5,-209.87 61,-219.87 64.5,-209.87 57.5,-209.87"/>
</g>
</g>
</svg>
