<?xml version="1.0" encoding="UTF-8" standalone="no"?>
<!DOCTYPE svg PUBLIC "-//W3C//DTD SVG 1.1//EN"
 "http://www.w3.org/Graphics/SVG/1.1/DTD/svg11.dtd">
<!-- Generated by graphviz version 6.0.1 (20220911.1526)
 -->
<!-- Title: elc::defs::base::non_default_assign_able Pages: 1 -->
<svg width="230pt" height="104pt"
 viewBox="0.00 0.00 230.00 104.00" xmlns="http://www.w3.org/2000/svg" xmlns:xlink="http://www.w3.org/1999/xlink">
<g id="graph0" class="graph" transform="scale(1 1) rotate(0) translate(4 100)">
<title>elc::defs::base::non_default_assign_able</title>
<!-- Node1 -->
<g id="node1" class="node">
<title>Node1</title>
<g id="a_node1"><a xlink:title="禁止默认合成的赋值">
<polygon fill="#999999" stroke="#666666" points="164.5,-30 57.5,-30 57.5,0 164.5,0 164.5,-30"/>
<text text-anchor="start" x="65.5" y="-18" font-family="Helvetica,sans-Serif" font-size="10.00">elc::defs::base::non</text>
<text text-anchor="middle" x="111" y="-7" font-family="Helvetica,sans-Serif" font-size="10.00">_default_assign_able</text>
</a>
</g>
</g>
<!-- Node2 -->
<g id="node2" class="node">
<title>Node2</title>
<g id="a_node2"><a xlink:href="structelc_1_1defs_1_1base_1_1non__copy__assign__able.html" target="_top" xlink:title="禁止复制赋值">
<polygon fill="white" stroke="#666666" points="102,-96 0,-96 0,-66 102,-66 102,-96"/>
<text text-anchor="start" x="8" y="-84" font-family="Helvetica,sans-Serif" font-size="10.00">elc::defs::base::non</text>
<text text-anchor="middle" x="51" y="-73" font-family="Helvetica,sans-Serif" font-size="10.00">_copy_assign_able</text>
</a>
</g>
</g>
<!-- Node2&#45;&gt;Node1 -->
<g id="edge1" class="edge">
<title>Node2&#45;&gt;Node1</title>
<path fill="none" stroke="#63b8ff" d="M71.28,-58.37C80.01,-49.06 89.96,-38.44 97.72,-30.16"/>
<polygon fill="#63b8ff" stroke="#63b8ff" points="68.6,-56.11 64.32,-65.8 73.71,-60.89 68.6,-56.11"/>
</g>
<!-- Node3 -->
<g id="node3" class="node">
<title>Node3</title>
<g id="a_node3"><a xlink:href="structelc_1_1defs_1_1base_1_1non__move__assign__able.html" target="_top" xlink:title="禁止移动赋值">
<polygon fill="white" stroke="#666666" points="222,-96 120,-96 120,-66 222,-66 222,-96"/>
<text text-anchor="start" x="128" y="-84" font-family="Helvetica,sans-Serif" font-size="10.00">elc::defs::base::non</text>
<text text-anchor="middle" x="171" y="-73" font-family="Helvetica,sans-Serif" font-size="10.00">_move_assign_able</text>
</a>
</g>
</g>
<!-- Node3&#45;&gt;Node1 -->
<g id="edge2" class="edge">
<title>Node3&#45;&gt;Node1</title>
<path fill="none" stroke="#63b8ff" d="M150.72,-58.37C141.99,-49.06 132.04,-38.44 124.28,-30.16"/>
<polygon fill="#63b8ff" stroke="#63b8ff" points="148.29,-60.89 157.68,-65.8 153.4,-56.11 148.29,-60.89"/>
</g>
</g>
</svg>
