<?xml version="1.0" encoding="UTF-8" standalone="no"?>
<!DOCTYPE svg PUBLIC "-//W3C//DTD SVG 1.1//EN"
 "http://www.w3.org/Graphics/SVG/1.1/DTD/svg11.dtd">
<!-- Generated by graphviz version 6.0.1 (20220911.1526)
 -->
<!-- Title: elc::defs::memory::ptr_n::root_ptr_t&lt; T, enable_state &gt; Pages: 1 -->
<svg width="207pt" height="324pt"
 viewBox="0.00 0.00 206.50 324.00" xmlns="http://www.w3.org/2000/svg" xmlns:xlink="http://www.w3.org/1999/xlink">
<g id="graph0" class="graph" transform="scale(1 1) rotate(0) translate(4 320)">
<title>elc::defs::memory::ptr_n::root_ptr_t&lt; T, enable_state &gt;</title>
<!-- Node1 -->
<g id="node1" class="node">
<title>Node1</title>
<g id="a_node1"><a xlink:title=" ">
<polygon fill="#999999" stroke="#666666" points="166.5,-41 63.5,-41 63.5,0 166.5,0 166.5,-41"/>
<text text-anchor="start" x="71.5" y="-29" font-family="Helvetica,sans-Serif" font-size="10.00">elc::defs::memory::</text>
<text text-anchor="start" x="71.5" y="-18" font-family="Helvetica,sans-Serif" font-size="10.00">ptr_n::root_ptr_t&lt; T,</text>
<text text-anchor="middle" x="115" y="-7" font-family="Helvetica,sans-Serif" font-size="10.00"> enable_state &gt;</text>
</a>
</g>
</g>
<!-- Node2 -->
<g id="node2" class="node">
<title>Node2</title>
<g id="a_node2"><a xlink:href="structelc_1_1defs_1_1memory_1_1ptr__n_1_1base__ptr__t.html" target="_top" xlink:title=" ">
<polygon fill="white" stroke="#666666" points="111.5,-96 22.5,-96 22.5,-77 111.5,-77 111.5,-96"/>
<text text-anchor="middle" x="67" y="-84" font-family="Helvetica,sans-Serif" font-size="10.00">comn_ptr_t&lt; T &gt;</text>
</a>
</g>
</g>
<!-- Node2&#45;&gt;Node1 -->
<g id="edge1" class="edge">
<title>Node2&#45;&gt;Node1</title>
<path fill="none" stroke="#63b8ff" d="M79.51,-68.82C85.89,-60.31 93.7,-49.9 100.37,-41.01"/>
<polygon fill="#63b8ff" stroke="#63b8ff" points="76.67,-66.77 73.47,-76.87 82.27,-70.97 76.67,-66.77"/>
</g>
<!-- Node3 -->
<g id="node3" class="node">
<title>Node3</title>
<g id="a_node3"><a xlink:href="structelc_1_1defs_1_1memory_1_1ptr__n_1_1ptr__t.html" target="_top" xlink:title=" ">
<polygon fill="white" stroke="#666666" points="134,-173 0,-173 0,-132 134,-132 134,-173"/>
<text text-anchor="start" x="8" y="-161" font-family="Helvetica,sans-Serif" font-size="10.00">elc::defs::memory::</text>
<text text-anchor="start" x="8" y="-150" font-family="Helvetica,sans-Serif" font-size="10.00">ptr_n::ptr_t&lt; T, ref</text>
<text text-anchor="middle" x="67" y="-139" font-family="Helvetica,sans-Serif" font-size="10.00">_type, do_replace_check &gt;</text>
</a>
</g>
</g>
<!-- Node3&#45;&gt;Node2 -->
<g id="edge2" class="edge">
<title>Node3&#45;&gt;Node2</title>
<path fill="none" stroke="#63b8ff" d="M67,-121.74C67,-112.45 67,-102.9 67,-96.26"/>
<polygon fill="#63b8ff" stroke="#63b8ff" points="63.5,-121.95 67,-131.95 70.5,-121.95 63.5,-121.95"/>
</g>
<!-- Node4 -->
<g id="node4" class="node">
<title>Node4</title>
<g id="a_node4"><a xlink:href="structelc_1_1defs_1_1memory_1_1ptr__n_1_1same__ref__p__t.html" target="_top" xlink:title=" ">
<polygon fill="white" stroke="#666666" points="118.5,-250 15.5,-250 15.5,-209 118.5,-209 118.5,-250"/>
<text text-anchor="start" x="23.5" y="-238" font-family="Helvetica,sans-Serif" font-size="10.00">elc::defs::memory::</text>
<text text-anchor="start" x="23.5" y="-227" font-family="Helvetica,sans-Serif" font-size="10.00">ptr_n::same_ref_p_t</text>
<text text-anchor="middle" x="67" y="-216" font-family="Helvetica,sans-Serif" font-size="10.00">&lt; T, ref_type &gt;</text>
</a>
</g>
</g>
<!-- Node4&#45;&gt;Node3 -->
<g id="edge3" class="edge">
<title>Node4&#45;&gt;Node3</title>
<path fill="none" stroke="#63b8ff" d="M67,-198.69C67,-190.08 67,-180.9 67,-173.07"/>
<polygon fill="#63b8ff" stroke="#63b8ff" points="63.5,-198.79 67,-208.79 70.5,-198.79 63.5,-198.79"/>
</g>
<!-- Node5 -->
<g id="node5" class="node">
<title>Node5</title>
<g id="a_node5"><a xlink:href="structelc_1_1defs_1_1memory_1_1ptr__n_1_1same__ptr__p__t.html" target="_top" xlink:title=" ">
<polygon fill="white" stroke="#666666" points="130.5,-316 3.5,-316 3.5,-286 130.5,-286 130.5,-316"/>
<text text-anchor="start" x="11.5" y="-304" font-family="Helvetica,sans-Serif" font-size="10.00">elc::defs::memory::</text>
<text text-anchor="middle" x="67" y="-293" font-family="Helvetica,sans-Serif" font-size="10.00">ptr_n::same_ptr_p_t&lt; T &gt;</text>
</a>
</g>
</g>
<!-- Node5&#45;&gt;Node4 -->
<g id="edge4" class="edge">
<title>Node5&#45;&gt;Node4</title>
<path fill="none" stroke="#63b8ff" d="M67,-275.91C67,-267.47 67,-258.1 67,-250.07"/>
<polygon fill="#63b8ff" stroke="#63b8ff" points="63.5,-275.94 67,-285.94 70.5,-275.94 63.5,-275.94"/>
</g>
<!-- Node6 -->
<g id="node6" class="node">
<title>Node6</title>
<g id="a_node6"><a xlink:title=" ">
<polygon fill="white" stroke="#666666" points="198.5,-96 129.5,-96 129.5,-77 198.5,-77 198.5,-96"/>
<text text-anchor="middle" x="164" y="-84" font-family="Helvetica,sans-Serif" font-size="10.00">root_of&lt; T &gt;</text>
</a>
</g>
</g>
<!-- Node6&#45;&gt;Node1 -->
<g id="edge5" class="edge">
<title>Node6&#45;&gt;Node1</title>
<path fill="none" stroke="#63b8ff" d="M151.23,-68.82C144.71,-60.31 136.74,-49.9 129.94,-41.01"/>
<polygon fill="#63b8ff" stroke="#63b8ff" points="148.53,-71.06 157.39,-76.87 154.09,-66.8 148.53,-71.06"/>
</g>
</g>
</svg>
