<?xml version="1.0" encoding="UTF-8" standalone="no"?>
<!DOCTYPE svg PUBLIC "-//W3C//DTD SVG 1.1//EN"
 "http://www.w3.org/Graphics/SVG/1.1/DTD/svg11.dtd">
<!-- Generated by graphviz version 6.0.1 (20220911.1526)
 -->
<!-- Title: elc::defs::string_n::string_data_n::base_string_data_t::get_hash_cache Pages: 1 -->
<svg width="326pt" height="78pt"
 viewBox="0.00 0.00 326.00 78.00" xmlns="http://www.w3.org/2000/svg" xmlns:xlink="http://www.w3.org/1999/xlink">
<g id="graph0" class="graph" transform="scale(1 1) rotate(0) translate(4 74)">
<title>elc::defs::string_n::string_data_n::base_string_data_t::get_hash_cache</title>
<!-- Node1 -->
<g id="node1" class="node">
<title>Node1</title>
<g id="a_node1"><a xlink:title=" ">
<polygon fill="#999999" stroke="#666666" points="155,-46.5 0,-46.5 0,-5.5 155,-5.5 155,-46.5"/>
<text text-anchor="start" x="8" y="-34.5" font-family="Helvetica,sans-Serif" font-size="10.00">elc::defs::string_n</text>
<text text-anchor="start" x="8" y="-23.5" font-family="Helvetica,sans-Serif" font-size="10.00">::string_data_n::base</text>
<text text-anchor="middle" x="77.5" y="-12.5" font-family="Helvetica,sans-Serif" font-size="10.00">_string_data_t::get_hash_cache</text>
</a>
</g>
</g>
<!-- Node2 -->
<g id="node2" class="node">
<title>Node2</title>
<g id="a_node2"><a xlink:href="structelc_1_1defs_1_1string__n_1_1string__data__n_1_1base__string__data__t.html#ab457c64f5c77a1ab773762cb361f2daf" target="_top" xlink:title=" ">
<polygon fill="white" stroke="#666666" points="318,-52 191,-52 191,0 318,0 318,-52"/>
<text text-anchor="start" x="199" y="-40" font-family="Helvetica,sans-Serif" font-size="10.00">elc::defs::string_n</text>
<text text-anchor="start" x="199" y="-29" font-family="Helvetica,sans-Serif" font-size="10.00">::string_data_n::base</text>
<text text-anchor="start" x="199" y="-18" font-family="Helvetica,sans-Serif" font-size="10.00">_string_data_t::equivalent</text>
<text text-anchor="middle" x="254.5" y="-7" font-family="Helvetica,sans-Serif" font-size="10.00">_optimization</text>
</a>
</g>
</g>
<!-- Node1&#45;&gt;Node2 -->
<g id="edge1" class="edge">
<title>Node1&#45;&gt;Node2</title>
<path fill="none" stroke="#63b8ff" d="M155,-26C163.5,-26 172.14,-26 180.6,-26"/>
<polygon fill="#63b8ff" stroke="#63b8ff" points="180.8,-29.5 190.8,-26 180.79,-22.5 180.8,-29.5"/>
</g>
<!-- Node2&#45;&gt;Node2 -->
<g id="edge2" class="edge">
<title>Node2&#45;&gt;Node2</title>
<path fill="none" stroke="#63b8ff" d="M221.39,-52.2C220.3,-61.96 231.34,-70 254.5,-70 269.34,-70 279.2,-66.7 284.09,-61.76"/>
<polygon fill="#63b8ff" stroke="#63b8ff" points="287.44,-62.79 287.61,-52.2 280.87,-60.37 287.44,-62.79"/>
</g>
</g>
</svg>
