<?xml version="1.0" encoding="UTF-8" standalone="no"?>
<!DOCTYPE svg PUBLIC "-//W3C//DTD SVG 1.1//EN"
 "http://www.w3.org/Graphics/SVG/1.1/DTD/svg11.dtd">
<!-- Generated by graphviz version 6.0.1 (20220911.1526)
 -->
<!-- Title: elc::defs::stream_n::noexcept_stream Pages: 1 -->
<svg width="721pt" height="230pt"
 viewBox="0.00 0.00 721.00 230.00" xmlns="http://www.w3.org/2000/svg" xmlns:xlink="http://www.w3.org/1999/xlink">
<g id="graph0" class="graph" transform="scale(1 1) rotate(0) translate(4 226)">
<title>elc::defs::stream_n::noexcept_stream</title>
<!-- Node1 -->
<g id="node1" class="node">
<title>Node1</title>
<g id="a_node1"><a xlink:title=" ">
<polygon fill="#999999" stroke="#666666" points="236,-126 136,-126 136,-96 236,-96 236,-126"/>
<text text-anchor="start" x="144" y="-114" font-family="Helvetica,sans-Serif" font-size="10.00">elc::defs::stream_n</text>
<text text-anchor="middle" x="186" y="-103" font-family="Helvetica,sans-Serif" font-size="10.00">::noexcept_stream</text>
</a>
</g>
</g>
<!-- Node3 -->
<g id="node3" class="node">
<title>Node3</title>
<g id="a_node3"><a xlink:href="structelc_1_1defs_1_1stream__n_1_1noexcept__istream.html" target="_top" xlink:title=" ">
<polygon fill="white" stroke="#666666" points="373.5,-102 273.5,-102 273.5,-72 373.5,-72 373.5,-102"/>
<text text-anchor="start" x="281.5" y="-90" font-family="Helvetica,sans-Serif" font-size="10.00">elc::defs::stream_n</text>
<text text-anchor="middle" x="323.5" y="-79" font-family="Helvetica,sans-Serif" font-size="10.00">::noexcept_istream</text>
</a>
</g>
</g>
<!-- Node1&#45;&gt;Node3 -->
<g id="edge2" class="edge">
<title>Node1&#45;&gt;Node3</title>
<path fill="none" stroke="#63b8ff" d="M246.39,-100.48C255.43,-98.88 264.67,-97.24 273.46,-95.69"/>
<polygon fill="#63b8ff" stroke="#63b8ff" points="245.54,-97.08 236.3,-102.27 246.76,-103.97 245.54,-97.08"/>
</g>
<!-- Node10 -->
<g id="node10" class="node">
<title>Node10</title>
<g id="a_node10"><a xlink:href="structelc_1_1defs_1_1stream__n_1_1noexcept__ostream.html" target="_top" xlink:title=" ">
<polygon fill="white" stroke="#666666" points="375,-150 272,-150 272,-120 375,-120 375,-150"/>
<text text-anchor="start" x="280" y="-138" font-family="Helvetica,sans-Serif" font-size="10.00">elc::defs::stream_n</text>
<text text-anchor="middle" x="323.5" y="-127" font-family="Helvetica,sans-Serif" font-size="10.00">::noexcept_ostream</text>
</a>
</g>
</g>
<!-- Node1&#45;&gt;Node10 -->
<g id="edge11" class="edge">
<title>Node1&#45;&gt;Node10</title>
<path fill="none" stroke="#63b8ff" d="M246.16,-121.48C254.65,-122.98 263.33,-124.52 271.64,-125.99"/>
<polygon fill="#63b8ff" stroke="#63b8ff" points="246.76,-118.03 236.3,-119.73 245.54,-124.92 246.76,-118.03"/>
</g>
<!-- Node2 -->
<g id="node2" class="node">
<title>Node2</title>
<g id="a_node2"><a xlink:href="structelc_1_1defs_1_1stream__n_1_1base__stream.html" target="_top" xlink:title=" ">
<polygon fill="white" stroke="#666666" points="100,-126 0,-126 0,-96 100,-96 100,-126"/>
<text text-anchor="start" x="8" y="-114" font-family="Helvetica,sans-Serif" font-size="10.00">elc::defs::stream_n</text>
<text text-anchor="middle" x="50" y="-103" font-family="Helvetica,sans-Serif" font-size="10.00">::base_stream</text>
</a>
</g>
</g>
<!-- Node2&#45;&gt;Node1 -->
<g id="edge1" class="edge">
<title>Node2&#45;&gt;Node1</title>
<path fill="none" stroke="#63b8ff" d="M110.4,-111C118.91,-111 127.59,-111 135.87,-111"/>
<polygon fill="#63b8ff" stroke="#63b8ff" points="110.14,-107.5 100.14,-111 110.14,-114.5 110.14,-107.5"/>
</g>
<!-- Node4 -->
<g id="node4" class="node">
<title>Node4</title>
<g id="a_node4"><a xlink:href="structelc_1_1defs_1_1stream__n_1_1noexcept__data__istream.html" target="_top" xlink:title=" ">
<polygon fill="white" stroke="#666666" points="539,-174 415,-174 415,-144 539,-144 539,-174"/>
<text text-anchor="start" x="423" y="-162" font-family="Helvetica,sans-Serif" font-size="10.00">elc::defs::stream_n</text>
<text text-anchor="middle" x="477" y="-151" font-family="Helvetica,sans-Serif" font-size="10.00">::noexcept_data_istream</text>
</a>
</g>
</g>
<!-- Node3&#45;&gt;Node4 -->
<g id="edge3" class="edge">
<title>Node3&#45;&gt;Node4</title>
<path fill="none" stroke="#63b8ff" d="M367.16,-106.73C369.83,-108.13 372.47,-109.56 375,-111 391.73,-120.49 393.86,-126.28 411,-135 417.33,-138.22 424.19,-141.23 431,-143.96"/>
<polygon fill="#63b8ff" stroke="#63b8ff" points="368.49,-103.48 357.99,-102.08 365.32,-109.72 368.49,-103.48"/>
</g>
<!-- Node6 -->
<g id="node6" class="node">
<title>Node6</title>
<g id="a_node6"><a xlink:href="structelc_1_1defs_1_1stream__n_1_1noexcept__iostream.html" target="_top" xlink:title=" ">
<polygon fill="white" stroke="#666666" points="529.5,-126 424.5,-126 424.5,-96 529.5,-96 529.5,-126"/>
<text text-anchor="start" x="432.5" y="-114" font-family="Helvetica,sans-Serif" font-size="10.00">elc::defs::stream_n</text>
<text text-anchor="middle" x="477" y="-103" font-family="Helvetica,sans-Serif" font-size="10.00">::noexcept_iostream</text>
</a>
</g>
</g>
<!-- Node3&#45;&gt;Node6 -->
<g id="edge5" class="edge">
<title>Node3&#45;&gt;Node6</title>
<path fill="none" stroke="#63b8ff" d="M383.79,-96.39C397.22,-98.52 411.37,-100.76 424.45,-102.83"/>
<polygon fill="#63b8ff" stroke="#63b8ff" points="384.11,-92.9 373.69,-94.79 383.02,-99.81 384.11,-92.9"/>
</g>
<!-- Node9 -->
<g id="node9" class="node">
<title>Node9</title>
<g id="a_node9"><a xlink:href="structelc_1_1defs_1_1stream__n_1_1noexcept__string__istream.html" target="_top" xlink:title=" ">
<polygon fill="white" stroke="#666666" points="541.5,-30 412.5,-30 412.5,0 541.5,0 541.5,-30"/>
<text text-anchor="start" x="420.5" y="-18" font-family="Helvetica,sans-Serif" font-size="10.00">elc::defs::stream_n</text>
<text text-anchor="middle" x="477" y="-7" font-family="Helvetica,sans-Serif" font-size="10.00">::noexcept_string_istream</text>
</a>
</g>
</g>
<!-- Node3&#45;&gt;Node9 -->
<g id="edge9" class="edge">
<title>Node3&#45;&gt;Node9</title>
<path fill="none" stroke="#63b8ff" d="M358.18,-66.74C373.93,-57.67 393.12,-47.2 411,-39 417.78,-35.89 425.09,-32.88 432.27,-30.1"/>
<polygon fill="#63b8ff" stroke="#63b8ff" points="356.21,-63.83 349.33,-71.89 359.74,-69.88 356.21,-63.83"/>
</g>
<!-- Node5 -->
<g id="node5" class="node">
<title>Node5</title>
<g id="a_node5"><a xlink:href="structelc_1_1defs_1_1stream__n_1_1noexcept__data__iostream.html" target="_top" xlink:title=" ">
<polygon fill="white" stroke="#666666" points="710.5,-174 581.5,-174 581.5,-144 710.5,-144 710.5,-174"/>
<text text-anchor="start" x="589.5" y="-162" font-family="Helvetica,sans-Serif" font-size="10.00">elc::defs::stream_n</text>
<text text-anchor="middle" x="646" y="-151" font-family="Helvetica,sans-Serif" font-size="10.00">::noexcept_data_iostream</text>
</a>
</g>
</g>
<!-- Node4&#45;&gt;Node5 -->
<g id="edge4" class="edge">
<title>Node4&#45;&gt;Node5</title>
<path fill="none" stroke="#63b8ff" d="M549.31,-159C559.92,-159 570.8,-159 581.25,-159"/>
<polygon fill="#63b8ff" stroke="#63b8ff" points="549.24,-155.5 539.24,-159 549.24,-162.5 549.24,-155.5"/>
</g>
<!-- Node6&#45;&gt;Node5 -->
<g id="edge7" class="edge">
<title>Node6&#45;&gt;Node5</title>
<path fill="none" stroke="#63b8ff" d="M539.93,-128.8C557.22,-133.77 575.84,-139.12 592.53,-143.92"/>
<polygon fill="#63b8ff" stroke="#63b8ff" points="540.5,-125.32 529.92,-125.92 538.57,-132.05 540.5,-125.32"/>
</g>
<!-- Node7 -->
<g id="node7" class="node">
<title>Node7</title>
<g id="a_node7"><a xlink:href="structelc_1_1defs_1_1stream__n_1_1memory__stream.html" target="_top" xlink:title=" ">
<polygon fill="white" stroke="#666666" points="696,-126 596,-126 596,-96 696,-96 696,-126"/>
<text text-anchor="start" x="604" y="-114" font-family="Helvetica,sans-Serif" font-size="10.00">elc::defs::stream_n</text>
<text text-anchor="middle" x="646" y="-103" font-family="Helvetica,sans-Serif" font-size="10.00">::memory_stream</text>
</a>
</g>
</g>
<!-- Node6&#45;&gt;Node7 -->
<g id="edge6" class="edge">
<title>Node6&#45;&gt;Node7</title>
<path fill="none" stroke="#63b8ff" d="M540,-111C558.47,-111 578.44,-111 595.96,-111"/>
<polygon fill="#63b8ff" stroke="#63b8ff" points="539.92,-107.5 529.92,-111 539.92,-114.5 539.92,-107.5"/>
</g>
<!-- Node8 -->
<g id="node8" class="node">
<title>Node8</title>
<g id="a_node8"><a xlink:href="structelc_1_1defs_1_1stream__n_1_1noexcept__string__iostream.html" target="_top" xlink:title=" ">
<polygon fill="white" stroke="#666666" points="713,-78 579,-78 579,-48 713,-48 713,-78"/>
<text text-anchor="start" x="587" y="-66" font-family="Helvetica,sans-Serif" font-size="10.00">elc::defs::stream_n</text>
<text text-anchor="middle" x="646" y="-55" font-family="Helvetica,sans-Serif" font-size="10.00">::noexcept_string_iostream</text>
</a>
</g>
</g>
<!-- Node6&#45;&gt;Node8 -->
<g id="edge8" class="edge">
<title>Node6&#45;&gt;Node8</title>
<path fill="none" stroke="#63b8ff" d="M539.93,-93.2C557.22,-88.23 575.84,-82.88 592.53,-78.08"/>
<polygon fill="#63b8ff" stroke="#63b8ff" points="538.57,-89.95 529.92,-96.08 540.5,-96.68 538.57,-89.95"/>
</g>
<!-- Node9&#45;&gt;Node8 -->
<g id="edge10" class="edge">
<title>Node9&#45;&gt;Node8</title>
<path fill="none" stroke="#63b8ff" d="M540.37,-32.93C557.63,-37.89 576.19,-43.22 592.8,-48"/>
<polygon fill="#63b8ff" stroke="#63b8ff" points="540.96,-29.45 530.38,-30.06 539.03,-36.18 540.96,-29.45"/>
</g>
<!-- Node10&#45;&gt;Node6 -->
<g id="edge14" class="edge">
<title>Node10&#45;&gt;Node6</title>
<path fill="none" stroke="#63b8ff" d="M385.57,-125.33C398.47,-123.28 411.98,-121.14 424.49,-119.16"/>
<polygon fill="#63b8ff" stroke="#63b8ff" points="384.7,-121.92 375.37,-126.94 385.79,-128.83 384.7,-121.92"/>
</g>
<!-- Node11 -->
<g id="node11" class="node">
<title>Node11</title>
<g id="a_node11"><a xlink:href="structelc_1_1defs_1_1stream__n_1_1noexcept__data__ostream.html" target="_top" xlink:title=" ">
<polygon fill="white" stroke="#666666" points="540.5,-222 413.5,-222 413.5,-192 540.5,-192 540.5,-222"/>
<text text-anchor="start" x="421.5" y="-210" font-family="Helvetica,sans-Serif" font-size="10.00">elc::defs::stream_n</text>
<text text-anchor="middle" x="477" y="-199" font-family="Helvetica,sans-Serif" font-size="10.00">::noexcept_data_ostream</text>
</a>
</g>
</g>
<!-- Node10&#45;&gt;Node11 -->
<g id="edge12" class="edge">
<title>Node10&#45;&gt;Node11</title>
<path fill="none" stroke="#63b8ff" d="M358.18,-155.26C373.93,-164.33 393.12,-174.8 411,-183 417.78,-186.11 425.09,-189.12 432.27,-191.9"/>
<polygon fill="#63b8ff" stroke="#63b8ff" points="359.74,-152.12 349.33,-150.11 356.21,-158.17 359.74,-152.12"/>
</g>
<!-- Node12 -->
<g id="node12" class="node">
<title>Node12</title>
<g id="a_node12"><a xlink:href="structelc_1_1defs_1_1stream__n_1_1noexcept__string__ostream.html" target="_top" xlink:title=" ">
<polygon fill="white" stroke="#666666" points="543,-78 411,-78 411,-48 543,-48 543,-78"/>
<text text-anchor="start" x="419" y="-66" font-family="Helvetica,sans-Serif" font-size="10.00">elc::defs::stream_n</text>
<text text-anchor="middle" x="477" y="-55" font-family="Helvetica,sans-Serif" font-size="10.00">::noexcept_string_ostream</text>
</a>
</g>
</g>
<!-- Node10&#45;&gt;Node12 -->
<g id="edge15" class="edge">
<title>Node10&#45;&gt;Node12</title>
<path fill="none" stroke="#63b8ff" d="M367.16,-115.27C369.83,-113.87 372.47,-112.44 375,-111 391.73,-101.51 393.86,-95.72 411,-87 417.33,-83.78 424.19,-80.77 431,-78.04"/>
<polygon fill="#63b8ff" stroke="#63b8ff" points="365.32,-112.28 357.99,-119.92 368.49,-118.52 365.32,-112.28"/>
</g>
<!-- Node11&#45;&gt;Node5 -->
<g id="edge13" class="edge">
<title>Node11&#45;&gt;Node5</title>
<path fill="none" stroke="#63b8ff" d="M540.37,-189.07C557.63,-184.11 576.19,-178.78 592.8,-174"/>
<polygon fill="#63b8ff" stroke="#63b8ff" points="539.03,-185.82 530.38,-191.94 540.96,-192.55 539.03,-185.82"/>
</g>
<!-- Node12&#45;&gt;Node8 -->
<g id="edge16" class="edge">
<title>Node12&#45;&gt;Node8</title>
<path fill="none" stroke="#63b8ff" d="M553.31,-63C561.8,-63 570.4,-63 578.76,-63"/>
<polygon fill="#63b8ff" stroke="#63b8ff" points="553.04,-59.5 543.04,-63 553.04,-66.5 553.04,-59.5"/>
</g>
</g>
</svg>
