<?xml version="1.0" encoding="UTF-8" standalone="no"?>
<!DOCTYPE svg PUBLIC "-//W3C//DTD SVG 1.1//EN"
 "http://www.w3.org/Graphics/SVG/1.1/DTD/svg11.dtd">
<!-- Generated by graphviz version 6.0.1 (20220911.1526)
 -->
<!-- Title: elc::defs::core::base_binary_function_node::base_binary_function_node Pages: 1 -->
<svg width="432pt" height="94pt"
 viewBox="0.00 0.00 432.00 93.50" xmlns="http://www.w3.org/2000/svg" xmlns:xlink="http://www.w3.org/1999/xlink">
<g id="graph0" class="graph" transform="scale(1 1) rotate(0) translate(4 89.5)">
<title>elc::defs::core::base_binary_function_node::base_binary_function_node</title>
<!-- Node1 -->
<g id="node1" class="node">
<title>Node1</title>
<g id="a_node1"><a xlink:title=" ">
<polygon fill="#999999" stroke="#666666" points="140,-56.5 0,-56.5 0,-15.5 140,-15.5 140,-56.5"/>
<text text-anchor="start" x="8" y="-44.5" font-family="Helvetica,sans-Serif" font-size="10.00">elc::defs::core::base</text>
<text text-anchor="start" x="8" y="-33.5" font-family="Helvetica,sans-Serif" font-size="10.00">_binary_function_node</text>
<text text-anchor="middle" x="70" y="-22.5" font-family="Helvetica,sans-Serif" font-size="10.00">::base_binary_function_node</text>
</a>
</g>
</g>
<!-- Node2 -->
<g id="node2" class="node">
<title>Node2</title>
<g id="a_node2"><a xlink:href="namespaceelc_1_1defs_1_1core.html#a476a30e4da2e29b52c54c7a59dc3f4f3" target="_top" xlink:title=" ">
<polygon fill="white" stroke="#666666" points="271,-51 176,-51 176,-21 271,-21 271,-51"/>
<text text-anchor="start" x="184" y="-39" font-family="Helvetica,sans-Serif" font-size="10.00">elc::defs::core::as</text>
<text text-anchor="middle" x="223.5" y="-28" font-family="Helvetica,sans-Serif" font-size="10.00">_value</text>
</a>
</g>
</g>
<!-- Node1&#45;&gt;Node2 -->
<g id="edge1" class="edge">
<title>Node1&#45;&gt;Node2</title>
<path fill="none" stroke="#63b8ff" d="M140.1,-36C148.55,-36 157.11,-36 165.36,-36"/>
<polygon fill="#63b8ff" stroke="#63b8ff" points="165.61,-39.5 175.61,-36 165.61,-32.5 165.61,-39.5"/>
</g>
<!-- Node2&#45;&gt;Node2 -->
<g id="edge4" class="edge">
<title>Node2&#45;&gt;Node2</title>
<path fill="none" stroke="#63b8ff" d="M198.54,-51.28C192.99,-60.41 201.31,-69 223.5,-69 236.67,-69 244.96,-65.97 248.36,-61.6"/>
<polygon fill="#63b8ff" stroke="#63b8ff" points="251.86,-61.31 248.46,-51.28 244.86,-61.24 251.86,-61.31"/>
</g>
<!-- Node3 -->
<g id="node3" class="node">
<title>Node3</title>
<g id="a_node3"><a xlink:href="namespaceelc_1_1defs_1_1core.html#aa4b6b0e46887c02cd097d74031157c5f" target="_top" xlink:title=" ">
<polygon fill="white" stroke="#666666" points="421,-67.5 310,-67.5 310,-48.5 421,-48.5 421,-67.5"/>
<text text-anchor="middle" x="365.5" y="-55.5" font-family="Helvetica,sans-Serif" font-size="10.00">elc::defs::core::as_ptr</text>
</a>
</g>
</g>
<!-- Node2&#45;&gt;Node3 -->
<g id="edge2" class="edge">
<title>Node2&#45;&gt;Node3</title>
<path fill="none" stroke="#63b8ff" d="M271.12,-43.33C280.33,-44.77 290.15,-46.32 299.83,-47.84"/>
<polygon fill="#63b8ff" stroke="#63b8ff" points="299.42,-51.32 309.84,-49.41 300.5,-44.4 299.42,-51.32"/>
</g>
<!-- Node4 -->
<g id="node4" class="node">
<title>Node4</title>
<g id="a_node4"><a xlink:href="namespaceelc_1_1defs_1_1base.html#add5f75cca4bdd8a249b12d840b1ff116" target="_top" xlink:title="对引用移除const">
<polygon fill="white" stroke="#666666" points="424,-30 307,-30 307,0 424,0 424,-30"/>
<text text-anchor="start" x="315" y="-18" font-family="Helvetica,sans-Serif" font-size="10.00">elc::defs::base::remove</text>
<text text-anchor="middle" x="365.5" y="-7" font-family="Helvetica,sans-Serif" font-size="10.00">_const</text>
</a>
</g>
</g>
<!-- Node2&#45;&gt;Node4 -->
<g id="edge5" class="edge">
<title>Node2&#45;&gt;Node4</title>
<path fill="none" stroke="#63b8ff" d="M271.12,-29.01C279.35,-27.77 288.07,-26.46 296.75,-25.16"/>
<polygon fill="#63b8ff" stroke="#63b8ff" points="297.5,-28.59 306.87,-23.64 296.47,-21.67 297.5,-28.59"/>
</g>
<!-- Node3&#45;&gt;Node3 -->
<g id="edge3" class="edge">
<title>Node3&#45;&gt;Node3</title>
<path fill="none" stroke="#63b8ff" d="M343.61,-67.58C332.97,-76.23 340.26,-85.5 365.5,-85.5 381.67,-85.5 390.47,-81.7 391.91,-76.69"/>
<polygon fill="#63b8ff" stroke="#63b8ff" points="394.97,-74.98 387.39,-67.58 388.7,-78.1 394.97,-74.98"/>
</g>
</g>
</svg>
