<?xml version="1.0" encoding="UTF-8" standalone="no"?>
<!DOCTYPE svg PUBLIC "-//W3C//DTD SVG 1.1//EN"
 "http://www.w3.org/Graphics/SVG/1.1/DTD/svg11.dtd">
<!-- Generated by graphviz version 6.0.1 (20220911.1526)
 -->
<!-- Title: elc::defs::core::value::value Pages: 1 -->
<svg width="536pt" height="134pt"
 viewBox="0.00 0.00 536.00 134.00" xmlns="http://www.w3.org/2000/svg" xmlns:xlink="http://www.w3.org/1999/xlink">
<g id="graph0" class="graph" transform="scale(1 1) rotate(0) translate(4 130)">
<title>elc::defs::core::value::value</title>
<!-- Node1 -->
<g id="node1" class="node">
<title>Node1</title>
<g id="a_node1"><a xlink:title=" ">
<polygon fill="#999999" stroke="#666666" points="528,-78 422,-78 422,-48 528,-48 528,-78"/>
<text text-anchor="start" x="430" y="-66" font-family="Helvetica,sans-Serif" font-size="10.00">elc::defs::core::value</text>
<text text-anchor="middle" x="475" y="-55" font-family="Helvetica,sans-Serif" font-size="10.00">::value</text>
</a>
</g>
</g>
<!-- Node2 -->
<g id="node2" class="node">
<title>Node2</title>
<g id="a_node2"><a xlink:href="structelc_1_1defs_1_1core_1_1value.html#a2cf6a81b24f203555d1abf9ef870fca2" target="_top" xlink:title=" ">
<polygon fill="white" stroke="#666666" points="386,-78 280,-78 280,-48 386,-48 386,-78"/>
<text text-anchor="start" x="288" y="-66" font-family="Helvetica,sans-Serif" font-size="10.00">elc::defs::core::value</text>
<text text-anchor="middle" x="333" y="-55" font-family="Helvetica,sans-Serif" font-size="10.00">::value</text>
</a>
</g>
</g>
<!-- Node1&#45;&gt;Node2 -->
<g id="edge1" class="edge">
<title>Node1&#45;&gt;Node2</title>
<path fill="none" stroke="#63b8ff" d="M411.61,-63C403.12,-63 394.47,-63 386.17,-63"/>
<polygon fill="#63b8ff" stroke="#63b8ff" points="411.87,-66.5 421.87,-63 411.87,-59.5 411.87,-66.5"/>
</g>
<!-- Node3 -->
<g id="node3" class="node">
<title>Node3</title>
<g id="a_node3"><a xlink:href="structelc_1_1defs_1_1core_1_1base__constexpr__t.html#ac4d219e743cd3a2f040edc0a7aea48d5" target="_top" xlink:title=" ">
<polygon fill="white" stroke="#666666" points="244,-126 139,-126 139,-96 244,-96 244,-126"/>
<text text-anchor="start" x="147" y="-114" font-family="Helvetica,sans-Serif" font-size="10.00">elc::defs::core::base</text>
<text text-anchor="middle" x="191.5" y="-103" font-family="Helvetica,sans-Serif" font-size="10.00">_constexpr_t::arec</text>
</a>
</g>
</g>
<!-- Node2&#45;&gt;Node3 -->
<g id="edge2" class="edge">
<title>Node2&#45;&gt;Node3</title>
<path fill="none" stroke="#63b8ff" d="M278.68,-81.35C264.61,-86.19 249.59,-91.36 236.1,-96"/>
<polygon fill="#63b8ff" stroke="#63b8ff" points="279.93,-84.62 288.24,-78.06 277.65,-78 279.93,-84.62"/>
</g>
<!-- Node4 -->
<g id="node4" class="node">
<title>Node4</title>
<g id="a_node4"><a xlink:href="structelc_1_1defs_1_1core_1_1node__like.html#a079463799979c4b41ed72a515614abac" target="_top" xlink:title=" ">
<polygon fill="white" stroke="#666666" points="244,-78 139,-78 139,-48 244,-48 244,-78"/>
<text text-anchor="start" x="147" y="-66" font-family="Helvetica,sans-Serif" font-size="10.00">elc::defs::core::node</text>
<text text-anchor="middle" x="191.5" y="-55" font-family="Helvetica,sans-Serif" font-size="10.00">_like::be_call</text>
</a>
</g>
</g>
<!-- Node2&#45;&gt;Node4 -->
<g id="edge3" class="edge">
<title>Node2&#45;&gt;Node4</title>
<path fill="none" stroke="#63b8ff" d="M269.46,-63C261.02,-63 252.43,-63 244.21,-63"/>
<polygon fill="#63b8ff" stroke="#63b8ff" points="269.66,-66.5 279.66,-63 269.66,-59.5 269.66,-66.5"/>
</g>
<!-- Node6 -->
<g id="node6" class="node">
<title>Node6</title>
<g id="a_node6"><a xlink:href="structelc_1_1defs_1_1core_1_1node__like.html#a526e9e81f8d4268007058efba10ef9d5" target="_top" xlink:title=" ">
<polygon fill="white" stroke="#666666" points="244,-30 139,-30 139,0 244,0 244,-30"/>
<text text-anchor="start" x="147" y="-18" font-family="Helvetica,sans-Serif" font-size="10.00">elc::defs::core::node</text>
<text text-anchor="middle" x="191.5" y="-7" font-family="Helvetica,sans-Serif" font-size="10.00">_like::be_eval</text>
</a>
</g>
</g>
<!-- Node2&#45;&gt;Node6 -->
<g id="edge5" class="edge">
<title>Node2&#45;&gt;Node6</title>
<path fill="none" stroke="#63b8ff" d="M278.68,-44.65C264.61,-39.81 249.59,-34.64 236.1,-30"/>
<polygon fill="#63b8ff" stroke="#63b8ff" points="277.65,-48 288.24,-47.94 279.93,-41.38 277.65,-48"/>
</g>
<!-- Node5 -->
<g id="node5" class="node">
<title>Node5</title>
<g id="a_node5"><a xlink:href="structelc_1_1defs_1_1core_1_1expr.html#a4b7b1c90a3b464d7bfa4a23a794d9cad" target="_top" xlink:title=" ">
<polygon fill="white" stroke="#666666" points="103,-78 0,-78 0,-48 103,-48 103,-78"/>
<text text-anchor="start" x="8" y="-66" font-family="Helvetica,sans-Serif" font-size="10.00">elc::defs::core::expr</text>
<text text-anchor="middle" x="51.5" y="-55" font-family="Helvetica,sans-Serif" font-size="10.00">::be_eval</text>
</a>
</g>
</g>
<!-- Node4&#45;&gt;Node5 -->
<g id="edge4" class="edge">
<title>Node4&#45;&gt;Node5</title>
<path fill="none" stroke="#63b8ff" d="M128.5,-63C120.03,-63 111.43,-63 103.19,-63"/>
<polygon fill="#63b8ff" stroke="#63b8ff" points="128.72,-66.5 138.72,-63 128.72,-59.5 128.72,-66.5"/>
</g>
<!-- Node7 -->
<g id="node7" class="node">
<title>Node7</title>
<g id="a_node7"><a xlink:href="namespaceelc_1_1defs_1_1core.html#a25facafc70fea8b2815220792440c9aa" target="_top" xlink:title=" ">
<polygon fill="white" stroke="#666666" points="102,-24.5 1,-24.5 1,-5.5 102,-5.5 102,-24.5"/>
<text text-anchor="middle" x="51.5" y="-12.5" font-family="Helvetica,sans-Serif" font-size="10.00">elc::defs::core::eval</text>
</a>
</g>
</g>
<!-- Node6&#45;&gt;Node7 -->
<g id="edge6" class="edge">
<title>Node6&#45;&gt;Node7</title>
<path fill="none" stroke="#63b8ff" d="M128.51,-15C119.73,-15 110.79,-15 102.28,-15"/>
<polygon fill="#63b8ff" stroke="#63b8ff" points="128.72,-18.5 138.72,-15 128.72,-11.5 128.72,-18.5"/>
</g>
</g>
</svg>
