<?xml version="1.0" encoding="UTF-8" standalone="no"?>
<!DOCTYPE svg PUBLIC "-//W3C//DTD SVG 1.1//EN"
 "http://www.w3.org/Graphics/SVG/1.1/DTD/svg11.dtd">
<!-- Generated by graphviz version 6.0.1 (20220911.1526)
 -->
<!-- Title: elc::defs::memory::get_n::get_t::remove_t::operator() Pages: 1 -->
<svg width="258pt" height="62pt"
 viewBox="0.00 0.00 258.00 61.50" xmlns="http://www.w3.org/2000/svg" xmlns:xlink="http://www.w3.org/1999/xlink">
<g id="graph0" class="graph" transform="scale(1 1) rotate(0) translate(4 57.5)">
<title>elc::defs::memory::get_n::get_t::remove_t::operator()</title>
<!-- Node1 -->
<g id="node1" class="node">
<title>Node1</title>
<g id="a_node1"><a xlink:title=" ">
<polygon fill="#999999" stroke="#666666" points="105,-41 0,-41 0,0 105,0 105,-41"/>
<text text-anchor="start" x="8" y="-29" font-family="Helvetica,sans-Serif" font-size="10.00">elc::defs::memory::</text>
<text text-anchor="start" x="8" y="-18" font-family="Helvetica,sans-Serif" font-size="10.00">get_n::get_t::remove</text>
<text text-anchor="middle" x="52.5" y="-7" font-family="Helvetica,sans-Serif" font-size="10.00">_t::operator()</text>
</a>
</g>
</g>
<!-- Node2 -->
<g id="node2" class="node">
<title>Node2</title>
<g id="a_node2"><a xlink:href="namespaceelc_1_1defs_1_1memory_1_1get__n.html#aad566c4cd179e4b1465bb3a5aaaa5040" target="_top" xlink:title="向后减小数据块大小并转移原有实例的生命周期，但并不析构旧的实例">
<polygon fill="white" stroke="#666666" points="250,-35.5 141,-35.5 141,-5.5 250,-5.5 250,-35.5"/>
<text text-anchor="start" x="149" y="-23.5" font-family="Helvetica,sans-Serif" font-size="10.00">elc::defs::memory::</text>
<text text-anchor="middle" x="195.5" y="-12.5" font-family="Helvetica,sans-Serif" font-size="10.00">get_n::alloc_size_cut</text>
</a>
</g>
</g>
<!-- Node1&#45;&gt;Node2 -->
<g id="edge1" class="edge">
<title>Node1&#45;&gt;Node2</title>
<path fill="none" stroke="#63b8ff" d="M105.2,-20.5C113.56,-20.5 122.3,-20.5 130.91,-20.5"/>
<polygon fill="#63b8ff" stroke="#63b8ff" points="130.91,-24 140.91,-20.5 130.91,-17 130.91,-24"/>
</g>
<!-- Node2&#45;&gt;Node2 -->
<g id="edge2" class="edge">
<title>Node2&#45;&gt;Node2</title>
<path fill="none" stroke="#63b8ff" d="M170.36,-35.78C164.78,-44.91 173.16,-53.5 195.5,-53.5 208.77,-53.5 217.11,-50.47 220.53,-46.1"/>
<polygon fill="#63b8ff" stroke="#63b8ff" points="224.03,-45.81 220.64,-35.78 217.03,-45.74 224.03,-45.81"/>
</g>
</g>
</svg>
