<?xml version="1.0" encoding="UTF-8" standalone="no"?>
<!DOCTYPE svg PUBLIC "-//W3C//DTD SVG 1.1//EN"
 "http://www.w3.org/Graphics/SVG/1.1/DTD/svg11.dtd">
<!-- Generated by graphviz version 6.0.1 (20220911.1526)
 -->
<!-- Title: elc::defs::core::expr Pages: 1 -->
<svg width="701pt" height="104pt"
 viewBox="0.00 0.00 701.00 104.00" xmlns="http://www.w3.org/2000/svg" xmlns:xlink="http://www.w3.org/1999/xlink">
<g id="graph0" class="graph" transform="scale(1 1) rotate(0) translate(4 100)">
<title>elc::defs::core::expr</title>
<!-- Node1 -->
<g id="node1" class="node">
<title>Node1</title>
<g id="a_node1"><a xlink:title=" ">
<polygon fill="#999999" stroke="#666666" points="693,-37 590,-37 590,-18 693,-18 693,-37"/>
<text text-anchor="middle" x="641.5" y="-25" font-family="Helvetica,sans-Serif" font-size="10.00">elc::defs::core::expr</text>
</a>
</g>
</g>
<!-- Node2 -->
<g id="node2" class="node">
<title>Node2</title>
<g id="a_node2"><a xlink:href="structelc_1_1defs_1_1core_1_1cons.html" target="_top" xlink:title=" ">
<polygon fill="white" stroke="#666666" points="546.5,-56 441.5,-56 441.5,-37 546.5,-37 546.5,-56"/>
<text text-anchor="middle" x="494" y="-44" font-family="Helvetica,sans-Serif" font-size="10.00">elc::defs::core::cons</text>
</a>
</g>
</g>
<!-- Node2&#45;&gt;Node1 -->
<g id="edge1" class="edge">
<title>Node2&#45;&gt;Node1</title>
<path fill="none" stroke="#63b8ff" d="M556.74,-38.44C567.81,-36.99 579.23,-35.5 589.94,-34.1"/>
<polygon fill="#63b8ff" stroke="#63b8ff" points="556.17,-34.98 546.71,-39.75 557.08,-41.92 556.17,-34.98"/>
</g>
<!-- Node3 -->
<g id="node3" class="node">
<title>Node3</title>
<g id="a_node3"><a xlink:href="structelc_1_1defs_1_1core_1_1node__like.html" target="_top" xlink:title=" ">
<polygon fill="white" stroke="#666666" points="398,-74 273,-74 273,-55 398,-55 398,-74"/>
<text text-anchor="middle" x="335.5" y="-62" font-family="Helvetica,sans-Serif" font-size="10.00">elc::defs::core::node_like</text>
</a>
</g>
</g>
<!-- Node3&#45;&gt;Node2 -->
<g id="edge2" class="edge">
<title>Node3&#45;&gt;Node2</title>
<path fill="none" stroke="#63b8ff" d="M408.42,-56.23C419.47,-54.96 430.68,-53.67 441.18,-52.46"/>
<polygon fill="#63b8ff" stroke="#63b8ff" points="407.89,-52.77 398.35,-57.39 408.69,-59.72 407.89,-52.77"/>
</g>
<!-- Node4 -->
<g id="node4" class="node">
<title>Node4</title>
<g id="a_node4"><a xlink:title=" ">
<polygon fill="white" stroke="#666666" points="237,-96 0,-96 0,-33 237,-33 237,-96"/>
<text text-anchor="start" x="8" y="-84" font-family="Helvetica,sans-Serif" font-size="10.00">type_info_t&lt; node_like</text>
<text text-anchor="middle" x="118.5" y="-73" font-family="Helvetica,sans-Serif" font-size="10.00"> &gt;:: template </text>
<text text-anchor="start" x="8" y="-62" font-family="Helvetica,sans-Serif" font-size="10.00">					with_common_attribute</text>
<text text-anchor="start" x="8" y="-51" font-family="Helvetica,sans-Serif" font-size="10.00">&lt; abstract_base, weak_ref</text>
<text text-anchor="middle" x="118.5" y="-40" font-family="Helvetica,sans-Serif" font-size="10.00">_able, replace_able, ref_able &gt;</text>
</a>
</g>
</g>
<!-- Node4&#45;&gt;Node3 -->
<g id="edge3" class="edge">
<title>Node4&#45;&gt;Node3</title>
<path fill="none" stroke="#63b8ff" d="M247.14,-64.5C256.01,-64.5 264.69,-64.5 272.93,-64.5"/>
<polygon fill="#63b8ff" stroke="#63b8ff" points="247.07,-61 237.07,-64.5 247.06,-68 247.07,-61"/>
</g>
<!-- Node5 -->
<g id="node5" class="node">
<title>Node5</title>
<g id="a_node5"><a xlink:title=" ">
<polygon fill="white" stroke="#666666" points="396.5,-37 274.5,-37 274.5,-18 396.5,-18 396.5,-37"/>
<text text-anchor="middle" x="335.5" y="-25" font-family="Helvetica,sans-Serif" font-size="10.00">instance_struct&lt; cons &gt;</text>
</a>
</g>
</g>
<!-- Node5&#45;&gt;Node2 -->
<g id="edge4" class="edge">
<title>Node5&#45;&gt;Node2</title>
<path fill="none" stroke="#63b8ff" d="M406.69,-36.02C418.32,-37.43 430.19,-38.87 441.26,-40.22"/>
<polygon fill="#63b8ff" stroke="#63b8ff" points="406.91,-32.52 396.56,-34.79 406.06,-39.47 406.91,-32.52"/>
</g>
<!-- Node6 -->
<g id="node6" class="node">
<title>Node6</title>
<g id="a_node6"><a xlink:title=" ">
<polygon fill="white" stroke="#666666" points="554,-19 434,-19 434,0 554,0 554,-19"/>
<text text-anchor="middle" x="494" y="-7" font-family="Helvetica,sans-Serif" font-size="10.00">instance_struct&lt; expr &gt;</text>
</a>
</g>
</g>
<!-- Node6&#45;&gt;Node1 -->
<g id="edge5" class="edge">
<title>Node6&#45;&gt;Node1</title>
<path fill="none" stroke="#63b8ff" d="M564.23,-18.06C572.83,-19.13 581.51,-20.2 589.76,-21.22"/>
<polygon fill="#63b8ff" stroke="#63b8ff" points="564.53,-14.58 554.18,-16.82 563.68,-21.52 564.53,-14.58"/>
</g>
</g>
</svg>
