<?xml version="1.0" encoding="UTF-8" standalone="no"?>
<!DOCTYPE svg PUBLIC "-//W3C//DTD SVG 1.1//EN"
 "http://www.w3.org/Graphics/SVG/1.1/DTD/svg11.dtd">
<!-- Generated by graphviz version 6.0.1 (20220911.1526)
 -->
<!-- Title: elc::defs::core::value::base_data_t Pages: 1 -->
<svg width="553pt" height="136pt"
 viewBox="0.00 0.00 553.00 135.50" xmlns="http://www.w3.org/2000/svg" xmlns:xlink="http://www.w3.org/1999/xlink">
<g id="graph0" class="graph" transform="scale(1 1) rotate(0) translate(4 131.5)">
<title>elc::defs::core::value::base_data_t</title>
<!-- Node1 -->
<g id="node1" class="node">
<title>Node1</title>
<g id="a_node1"><a xlink:title=" ">
<polygon fill="#999999" stroke="#666666" points="403,-78 297,-78 297,-48 403,-48 403,-78"/>
<text text-anchor="start" x="305" y="-66" font-family="Helvetica,sans-Serif" font-size="10.00">elc::defs::core::value</text>
<text text-anchor="middle" x="350" y="-55" font-family="Helvetica,sans-Serif" font-size="10.00">::base_data_t</text>
</a>
</g>
</g>
<!-- Node4 -->
<g id="node4" class="node">
<title>Node4</title>
<g id="a_node4"><a xlink:href="structelc_1_1defs_1_1core_1_1value_1_1constexpr__data__t.html" target="_top" xlink:title=" ">
<polygon fill="white" stroke="#666666" points="545,-126 439,-126 439,-96 545,-96 545,-126"/>
<text text-anchor="start" x="447" y="-114" font-family="Helvetica,sans-Serif" font-size="10.00">elc::defs::core::value</text>
<text text-anchor="middle" x="492" y="-103" font-family="Helvetica,sans-Serif" font-size="10.00">::constexpr_data_t</text>
</a>
</g>
</g>
<!-- Node1&#45;&gt;Node4 -->
<g id="edge3" class="edge">
<title>Node1&#45;&gt;Node4</title>
<path fill="none" stroke="#63b8ff" d="M404.51,-81.35C418.63,-86.19 433.7,-91.36 447.24,-96"/>
<polygon fill="#63b8ff" stroke="#63b8ff" points="405.51,-77.99 394.91,-78.06 403.24,-84.61 405.51,-77.99"/>
</g>
<!-- Node5 -->
<g id="node5" class="node">
<title>Node5</title>
<g id="a_node5"><a xlink:href="structelc_1_1defs_1_1core_1_1value_1_1null__data__t.html" target="_top" xlink:title=" ">
<polygon fill="white" stroke="#666666" points="545,-78 439,-78 439,-48 545,-48 545,-78"/>
<text text-anchor="start" x="447" y="-66" font-family="Helvetica,sans-Serif" font-size="10.00">elc::defs::core::value</text>
<text text-anchor="middle" x="492" y="-55" font-family="Helvetica,sans-Serif" font-size="10.00">::null_data_t</text>
</a>
</g>
</g>
<!-- Node1&#45;&gt;Node5 -->
<g id="edge4" class="edge">
<title>Node1&#45;&gt;Node5</title>
<path fill="none" stroke="#63b8ff" d="M413.39,-63C421.88,-63 430.53,-63 438.83,-63"/>
<polygon fill="#63b8ff" stroke="#63b8ff" points="413.13,-59.5 403.13,-63 413.13,-66.5 413.13,-59.5"/>
</g>
<!-- Node6 -->
<g id="node6" class="node">
<title>Node6</title>
<g id="a_node6"><a xlink:href="structelc_1_1defs_1_1core_1_1value_1_1variable__data__t.html" target="_top" xlink:title=" ">
<polygon fill="white" stroke="#666666" points="545,-30 439,-30 439,0 545,0 545,-30"/>
<text text-anchor="start" x="447" y="-18" font-family="Helvetica,sans-Serif" font-size="10.00">elc::defs::core::value</text>
<text text-anchor="middle" x="492" y="-7" font-family="Helvetica,sans-Serif" font-size="10.00">::variable_data_t</text>
</a>
</g>
</g>
<!-- Node1&#45;&gt;Node6 -->
<g id="edge5" class="edge">
<title>Node1&#45;&gt;Node6</title>
<path fill="none" stroke="#63b8ff" d="M404.51,-44.65C418.63,-39.81 433.7,-34.64 447.24,-30"/>
<polygon fill="#63b8ff" stroke="#63b8ff" points="403.24,-41.39 394.91,-47.94 405.51,-48.01 403.24,-41.39"/>
</g>
<!-- Node2 -->
<g id="node2" class="node">
<title>Node2</title>
<g id="a_node2"><a xlink:title=" ">
<polygon fill="white" stroke="#666666" points="261,-127.5 0,-127.5 0,-64.5 261,-64.5 261,-127.5"/>
<text text-anchor="start" x="8" y="-115.5" font-family="Helvetica,sans-Serif" font-size="10.00">type_info_t&lt; base_data</text>
<text text-anchor="middle" x="130.5" y="-104.5" font-family="Helvetica,sans-Serif" font-size="10.00">_t &gt;:: template </text>
<text text-anchor="start" x="8" y="-93.5" font-family="Helvetica,sans-Serif" font-size="10.00">						with_common_attribute</text>
<text text-anchor="start" x="8" y="-82.5" font-family="Helvetica,sans-Serif" font-size="10.00">&lt; abstract_base, ref_able,</text>
<text text-anchor="middle" x="130.5" y="-71.5" font-family="Helvetica,sans-Serif" font-size="10.00"> never_in_array, replace_able &gt;</text>
</a>
</g>
</g>
<!-- Node2&#45;&gt;Node1 -->
<g id="edge1" class="edge">
<title>Node2&#45;&gt;Node1</title>
<path fill="none" stroke="#63b8ff" d="M271.07,-74.82C280.1,-73.45 288.83,-72.13 296.96,-70.9"/>
<polygon fill="#63b8ff" stroke="#63b8ff" points="270.52,-71.37 261.16,-76.33 271.57,-78.29 270.52,-71.37"/>
</g>
<!-- Node3 -->
<g id="node3" class="node">
<title>Node3</title>
<g id="a_node3"><a xlink:href="classelc_1_1defs_1_1base_1_1build__by__get__only.html" target="_top" xlink:title=" ">
<polygon fill="white" stroke="#666666" points="184,-46 77,-46 77,-16 184,-16 184,-46"/>
<text text-anchor="start" x="85" y="-34" font-family="Helvetica,sans-Serif" font-size="10.00">elc::defs::base::build</text>
<text text-anchor="middle" x="130.5" y="-23" font-family="Helvetica,sans-Serif" font-size="10.00">_by_get_only</text>
</a>
</g>
</g>
<!-- Node3&#45;&gt;Node1 -->
<g id="edge2" class="edge">
<title>Node3&#45;&gt;Node1</title>
<path fill="none" stroke="#63b8ff" d="M194.44,-40.26C226.92,-45.04 266.06,-50.8 296.83,-55.33"/>
<polygon fill="#63b8ff" stroke="#63b8ff" points="194.55,-36.74 184.15,-38.75 193.53,-43.66 194.55,-36.74"/>
</g>
</g>
</svg>
