<?xml version="1.0" encoding="UTF-8" standalone="no"?>
<!DOCTYPE svg PUBLIC "-//W3C//DTD SVG 1.1//EN"
 "http://www.w3.org/Graphics/SVG/1.1/DTD/svg11.dtd">
<!-- Generated by graphviz version 6.0.1 (20220911.1526)
 -->
<!-- Title: elc::defs::core::base_binary_function_node::equal_with Pages: 1 -->
<svg width="459pt" height="184pt"
 viewBox="0.00 0.00 459.00 183.50" xmlns="http://www.w3.org/2000/svg" xmlns:xlink="http://www.w3.org/1999/xlink">
<g id="graph0" class="graph" transform="scale(1 1) rotate(0) translate(4 179.5)">
<title>elc::defs::core::base_binary_function_node::equal_with</title>
<!-- Node1 -->
<g id="node1" class="node">
<title>Node1</title>
<g id="a_node1"><a xlink:title=" ">
<polygon fill="#999999" stroke="#666666" points="113,-116.5 0,-116.5 0,-75.5 113,-75.5 113,-116.5"/>
<text text-anchor="start" x="8" y="-104.5" font-family="Helvetica,sans-Serif" font-size="10.00">elc::defs::core::base</text>
<text text-anchor="start" x="8" y="-93.5" font-family="Helvetica,sans-Serif" font-size="10.00">_binary_function_node</text>
<text text-anchor="middle" x="56.5" y="-82.5" font-family="Helvetica,sans-Serif" font-size="10.00">::equal_with</text>
</a>
</g>
</g>
<!-- Node2 -->
<g id="node2" class="node">
<title>Node2</title>
<g id="a_node2"><a xlink:href="namespaceelc_1_1defs_1_1base.html#a229f73871b87264d73d8785b0541fdad" target="_top" xlink:title="向下转型至">
<polygon fill="white" stroke="#666666" points="282,-175.5 149,-175.5 149,-156.5 282,-156.5 282,-175.5"/>
<text text-anchor="middle" x="215.5" y="-163.5" font-family="Helvetica,sans-Serif" font-size="10.00">elc::defs::base::down_cast</text>
</a>
</g>
</g>
<!-- Node1&#45;&gt;Node2 -->
<g id="edge1" class="edge">
<title>Node1&#45;&gt;Node2</title>
<path fill="none" stroke="#63b8ff" d="M90.06,-116.52C107.14,-126.67 128.69,-138.52 149,-147 154.53,-149.31 160.43,-151.45 166.35,-153.39"/>
<polygon fill="#63b8ff" stroke="#63b8ff" points="165.65,-156.84 176.24,-156.48 167.74,-150.16 165.65,-156.84"/>
</g>
<!-- Node3 -->
<g id="node3" class="node">
<title>Node3</title>
<g id="a_node3"><a xlink:href="structelc_1_1defs_1_1memory_1_1ptr__n_1_1ptr__t.html#afa7ec8ea3b1c71df95fdfc05b7d726d8" target="_top" xlink:title=" ">
<polygon fill="white" stroke="#666666" points="266,-138 165,-138 165,-108 266,-108 266,-138"/>
<text text-anchor="start" x="173" y="-126" font-family="Helvetica,sans-Serif" font-size="10.00">elc::defs::memory::</text>
<text text-anchor="middle" x="215.5" y="-115" font-family="Helvetica,sans-Serif" font-size="10.00">ptr_n::ptr_t::get</text>
</a>
</g>
</g>
<!-- Node1&#45;&gt;Node3 -->
<g id="edge2" class="edge">
<title>Node1&#45;&gt;Node3</title>
<path fill="none" stroke="#63b8ff" d="M113.29,-105.6C126.71,-107.9 141.09,-110.38 154.68,-112.71"/>
<polygon fill="#63b8ff" stroke="#63b8ff" points="154.44,-116.22 164.89,-114.47 155.63,-109.32 154.44,-116.22"/>
</g>
<!-- Node5 -->
<g id="node5" class="node">
<title>Node5</title>
<g id="a_node5"><a xlink:href="structelc_1_1defs_1_1core_1_1base__binary__function__node.html#a24e148b98fcc38b492c736770914a0f7" target="_top" xlink:title=" ">
<polygon fill="white" stroke="#666666" points="272,-89.5 159,-89.5 159,-48.5 272,-48.5 272,-89.5"/>
<text text-anchor="start" x="167" y="-77.5" font-family="Helvetica,sans-Serif" font-size="10.00">elc::defs::core::base</text>
<text text-anchor="start" x="167" y="-66.5" font-family="Helvetica,sans-Serif" font-size="10.00">_binary_function_node</text>
<text text-anchor="middle" x="215.5" y="-55.5" font-family="Helvetica,sans-Serif" font-size="10.00">::get_type_info</text>
</a>
</g>
</g>
<!-- Node1&#45;&gt;Node5 -->
<g id="edge4" class="edge">
<title>Node1&#45;&gt;Node5</title>
<path fill="none" stroke="#63b8ff" d="M113.29,-86.4C124.86,-84.42 137.15,-82.3 149.03,-80.26"/>
<polygon fill="#63b8ff" stroke="#63b8ff" points="149.62,-83.71 158.89,-78.56 148.44,-76.81 149.62,-83.71"/>
</g>
<!-- Node6 -->
<g id="node6" class="node">
<title>Node6</title>
<g id="a_node6"><a xlink:href="structelc_1_1defs_1_1base_1_1base__type__info__t.html#a83a5d152aaf6d18aa5f3956d90380acc" target="_top" xlink:title=" ">
<polygon fill="white" stroke="#666666" points="276.5,-30 154.5,-30 154.5,0 276.5,0 276.5,-30"/>
<text text-anchor="start" x="162.5" y="-18" font-family="Helvetica,sans-Serif" font-size="10.00">elc::defs::base::base</text>
<text text-anchor="middle" x="215.5" y="-7" font-family="Helvetica,sans-Serif" font-size="10.00">_type_info_t::operator==</text>
</a>
</g>
</g>
<!-- Node1&#45;&gt;Node6 -->
<g id="edge5" class="edge">
<title>Node1&#45;&gt;Node6</title>
<path fill="none" stroke="#63b8ff" d="M88.03,-75.35C105.45,-64.08 127.94,-50.35 149,-40 153.28,-37.9 157.79,-35.85 162.35,-33.89"/>
<polygon fill="#63b8ff" stroke="#63b8ff" points="163.82,-37.07 171.73,-30.01 161.15,-30.6 163.82,-37.07"/>
</g>
<!-- Node4 -->
<g id="node4" class="node">
<title>Node4</title>
<g id="a_node4"><a xlink:href="structelc_1_1defs_1_1memory_1_1ptr__n_1_1ptr__t.html#ab0ddc2cf5279d67e43eedad6d7301ae1" target="_top" xlink:title=" ">
<polygon fill="white" stroke="#666666" points="451,-138 318,-138 318,-108 451,-108 451,-138"/>
<text text-anchor="start" x="326" y="-126" font-family="Helvetica,sans-Serif" font-size="10.00">elc::defs::memory::</text>
<text text-anchor="middle" x="384.5" y="-115" font-family="Helvetica,sans-Serif" font-size="10.00">ptr_n::ptr_t::replace_check</text>
</a>
</g>
</g>
<!-- Node3&#45;&gt;Node4 -->
<g id="edge3" class="edge">
<title>Node3&#45;&gt;Node4</title>
<path fill="none" stroke="#63b8ff" d="M266.15,-123C279.23,-123 293.64,-123 307.75,-123"/>
<polygon fill="#63b8ff" stroke="#63b8ff" points="307.95,-126.5 317.95,-123 307.95,-119.5 307.95,-126.5"/>
</g>
</g>
</svg>
