<?xml version="1.0" encoding="UTF-8" standalone="no"?>
<!DOCTYPE svg PUBLIC "-//W3C//DTD SVG 1.1//EN"
 "http://www.w3.org/Graphics/SVG/1.1/DTD/svg11.dtd">
<!-- Generated by graphviz version 6.0.1 (20220911.1526)
 -->
<!-- Title: elc::defs::base::type_name_t Pages: 1 -->
<svg width="127pt" height="192pt"
 viewBox="0.00 0.00 127.00 192.00" xmlns="http://www.w3.org/2000/svg" xmlns:xlink="http://www.w3.org/1999/xlink">
<g id="graph0" class="graph" transform="scale(1 1) rotate(0) translate(4 188)">
<title>elc::defs::base::type_name_t</title>
<!-- Node1 -->
<g id="node1" class="node">
<title>Node1</title>
<g id="a_node1"><a xlink:title=" ">
<polygon fill="#999999" stroke="#666666" points="112,-30 7,-30 7,0 112,0 112,-30"/>
<text text-anchor="start" x="15" y="-18" font-family="Helvetica,sans-Serif" font-size="10.00">elc::defs::base::type</text>
<text text-anchor="middle" x="59.5" y="-7" font-family="Helvetica,sans-Serif" font-size="10.00">_name_t</text>
</a>
</g>
</g>
<!-- Node2 -->
<g id="node2" class="node">
<title>Node2</title>
<g id="a_node2"><a xlink:href="structelc_1_1defs_1_1base_1_1string__view__n_1_1string__view__t.html" target="_top" xlink:title="array_like_view_t的特化类型，表明这是字符串">
<polygon fill="white" stroke="#666666" points="115.5,-107 3.5,-107 3.5,-66 115.5,-66 115.5,-107"/>
<text text-anchor="start" x="11.5" y="-95" font-family="Helvetica,sans-Serif" font-size="10.00">elc::defs::base::string</text>
<text text-anchor="start" x="11.5" y="-84" font-family="Helvetica,sans-Serif" font-size="10.00">_view_n::string_view_t</text>
<text text-anchor="middle" x="59.5" y="-73" font-family="Helvetica,sans-Serif" font-size="10.00">&lt; char_T &gt;</text>
</a>
</g>
</g>
<!-- Node2&#45;&gt;Node1 -->
<g id="edge1" class="edge">
<title>Node2&#45;&gt;Node1</title>
<path fill="none" stroke="#63b8ff" d="M59.5,-55.66C59.5,-46.76 59.5,-37.42 59.5,-30.04"/>
<polygon fill="#63b8ff" stroke="#63b8ff" points="56,-55.77 59.5,-65.77 63,-55.77 56,-55.77"/>
</g>
<!-- Node3 -->
<g id="node3" class="node">
<title>Node3</title>
<g id="a_node3"><a xlink:href="structelc_1_1defs_1_1base_1_1array__like__n_1_1array__like__view__t.html" target="_top" xlink:title=" ">
<polygon fill="white" stroke="#666666" points="119,-184 0,-184 0,-143 119,-143 119,-184"/>
<text text-anchor="start" x="8" y="-172" font-family="Helvetica,sans-Serif" font-size="10.00">elc::defs::base::array</text>
<text text-anchor="start" x="8" y="-161" font-family="Helvetica,sans-Serif" font-size="10.00">_like_n::array_like_view</text>
<text text-anchor="middle" x="59.5" y="-150" font-family="Helvetica,sans-Serif" font-size="10.00">_t&lt; T &gt;</text>
</a>
</g>
</g>
<!-- Node3&#45;&gt;Node2 -->
<g id="edge2" class="edge">
<title>Node3&#45;&gt;Node2</title>
<path fill="none" stroke="#63b8ff" d="M59.5,-132.69C59.5,-124.08 59.5,-114.9 59.5,-107.07"/>
<polygon fill="#63b8ff" stroke="#63b8ff" points="56,-132.79 59.5,-142.79 63,-132.79 56,-132.79"/>
</g>
</g>
</svg>
