<?xml version="1.0" encoding="UTF-8" standalone="no"?>
<!DOCTYPE svg PUBLIC "-//W3C//DTD SVG 1.1//EN"
 "http://www.w3.org/Graphics/SVG/1.1/DTD/svg11.dtd">
<!-- Generated by graphviz version 6.0.1 (20220911.1526)
 -->
<!-- Title: elc::defs::string_n::string_data_n::base_string_data_t::equivalent_optimization Pages: 1 -->
<!--zoomable 863 -->
<svg id="main" version="1.1" xmlns="http://www.w3.org/2000/svg" xmlns:xlink="http://www.w3.org/1999/xlink" xml:space="preserve" onload="init(evt)">
<style type="text/css"><![CDATA[
.edge:hover path { stroke: red; }
.edge:hover polygon { stroke: red; fill: red; }
]]></style>
<script type="text/javascript"><![CDATA[
var edges = document.getElementsByTagName('g');
if (edges && edges.length) {
  for (var i=0;i<edges.length;i++) {
    if (edges[i].id.substr(0,4)=='edge') {
      edges[i].setAttribute('class','edge');
    }
  }
}
]]></script>
        <defs>
                <circle id="rim" cx="0" cy="0" r="7"/>
                <circle id="rim2" cx="0" cy="0" r="3.5"/>
                <g id="zoomPlus">
                        <use xlink:href="#rim" fill="#404040">
                                <set attributeName="fill" to="#808080" begin="zoomplus.mouseover" end="zoomplus.mouseout"/>
                        </use>
                        <path d="M-4,0h8M0,-4v8" fill="none" stroke="white" stroke-width="1.5" pointer-events="none"/>
                </g>
                <g id="zoomMin">
                        <use xlink:href="#rim" fill="#404040">
                                <set attributeName="fill" to="#808080" begin="zoomminus.mouseover" end="zoomminus.mouseout"/>
                        </use>
                        <path d="M-4,0h8" fill="none" stroke="white" stroke-width="1.5" pointer-events="none"/>
                </g>
                <g id="dirArrow">
                        <path fill="none" stroke="white" stroke-width="1.5" d="M0,-3.0v7 M-2.5,-0.5L0,-3.0L2.5,-0.5"/>
                </g>
               <g id="resetDef">
                       <use xlink:href="#rim2" fill="#404040">
                               <set attributeName="fill" to="#808080" begin="reset.mouseover" end="reset.mouseout"/>
                       </use>
               </g>
        </defs>

<script type="text/javascript">
var viewWidth = 329;
var viewHeight = 863;
var sectionId = 'dynsection-19';
</script>
<script xlink:href="svgpan.js"/>
<svg id="graph" class="graph">
<g id="viewport">
<title>elc::defs::string_n::string_data_n::base_string_data_t::equivalent_optimization</title>
<!-- Node1 -->
<g id="node1" class="node">
<title>Node1</title>
<g id="a_node1"><a xlink:title=" ">
<polygon fill="#999999" stroke="#666666" points="321,-450.5 194,-450.5 194,-398.5 321,-398.5 321,-450.5"/>
<text text-anchor="start" x="202" y="-438.5" font-family="Helvetica,sans-Serif" font-size="10.00">elc::defs::string_n</text>
<text text-anchor="start" x="202" y="-427.5" font-family="Helvetica,sans-Serif" font-size="10.00">::string_data_n::base</text>
<text text-anchor="start" x="202" y="-416.5" font-family="Helvetica,sans-Serif" font-size="10.00">_string_data_t::equivalent</text>
<text text-anchor="middle" x="257.5" y="-405.5" font-family="Helvetica,sans-Serif" font-size="10.00">_optimization</text>
</a>
</g>
</g>
<!-- Node1&#45;&gt;Node1 -->
<g id="edge6" class="edge">
<title>Node1&#45;&gt;Node1</title>
<path fill="none" stroke="#63b8ff" d="M287.34,-460.26C282.41,-465.2 272.46,-468.5 257.5,-468.5 234.14,-468.5 223.01,-460.46 224.1,-450.7"/>
<polygon fill="#63b8ff" stroke="#63b8ff" points="290.69,-461.29 290.9,-450.7 284.13,-458.85 290.69,-461.29"/>
</g>
<!-- Node2 -->
<g id="node2" class="node">
<title>Node2</title>
<g id="a_node2"><a xlink:href="structelc_1_1defs_1_1string__n_1_1string__data__n_1_1base__string__data__t.html#a0ab7bbbb03e8e38fcd31587df8af3b54" target="_top" xlink:title=" ">
<polygon fill="white" stroke="#666666" points="144.5,-855 13.5,-855 13.5,-814 144.5,-814 144.5,-855"/>
<text text-anchor="start" x="21.5" y="-843" font-family="Helvetica,sans-Serif" font-size="10.00">elc::defs::string_n</text>
<text text-anchor="start" x="21.5" y="-832" font-family="Helvetica,sans-Serif" font-size="10.00">::string_data_n::base</text>
<text text-anchor="middle" x="79" y="-821" font-family="Helvetica,sans-Serif" font-size="10.00">_string_data_t::be_replace</text>
</a>
</g>
</g>
<!-- Node1&#45;&gt;Node2 -->
<g id="edge1" class="edge">
<title>Node1&#45;&gt;Node2</title>
<path fill="none" stroke="#63b8ff" d="M251.47,-460.67C239.02,-545.53 204.34,-754.12 158,-805.5 154.13,-809.79 149.56,-813.45 144.62,-816.57"/>
<polygon fill="#63b8ff" stroke="#63b8ff" points="254.94,-461.12 252.91,-450.72 248.02,-460.11 254.94,-461.12"/>
</g>
<!-- Node3 -->
<g id="node3" class="node">
<title>Node3</title>
<g id="a_node3"><a xlink:href="structelc_1_1defs_1_1string__n_1_1string__data__n_1_1base__string__data__t.html#a0e9146e3126d6e08cd6b00521b362e00" target="_top" xlink:title=" ">
<polygon fill="white" stroke="#666666" points="151,-796 7,-796 7,-755 151,-755 151,-796"/>
<text text-anchor="start" x="15" y="-784" font-family="Helvetica,sans-Serif" font-size="10.00">elc::defs::string_n</text>
<text text-anchor="start" x="15" y="-773" font-family="Helvetica,sans-Serif" font-size="10.00">::string_data_n::base</text>
<text text-anchor="middle" x="79" y="-762" font-family="Helvetica,sans-Serif" font-size="10.00">_string_data_t::compare_with</text>
</a>
</g>
</g>
<!-- Node1&#45;&gt;Node3 -->
<g id="edge2" class="edge">
<title>Node1&#45;&gt;Node3</title>
<path fill="none" stroke="#63b8ff" d="M255.33,-460.94C251.29,-526.34 233.71,-664.34 158,-745.5 154.73,-749 151.01,-752.1 147.01,-754.84"/>
<polygon fill="#63b8ff" stroke="#63b8ff" points="258.83,-460.89 255.88,-450.72 251.84,-460.51 258.83,-460.89"/>
</g>
<!-- Node4 -->
<g id="node4" class="node">
<title>Node4</title>
<g id="a_node4"><a xlink:href="structelc_1_1defs_1_1string__n_1_1string__data__n_1_1base__string__data__t.html#a6b7e18abe38ef3942a29306962ca6a1a" target="_top" xlink:title=" ">
<polygon fill="white" stroke="#666666" points="135.5,-736.5 22.5,-736.5 22.5,-684.5 135.5,-684.5 135.5,-736.5"/>
<text text-anchor="start" x="30.5" y="-724.5" font-family="Helvetica,sans-Serif" font-size="10.00">elc::defs::string_n</text>
<text text-anchor="start" x="30.5" y="-713.5" font-family="Helvetica,sans-Serif" font-size="10.00">::string_data_n::base</text>
<text text-anchor="start" x="30.5" y="-702.5" font-family="Helvetica,sans-Serif" font-size="10.00">_string_data_t::default</text>
<text text-anchor="middle" x="79" y="-691.5" font-family="Helvetica,sans-Serif" font-size="10.00">_compare_method</text>
</a>
</g>
</g>
<!-- Node1&#45;&gt;Node4 -->
<g id="edge3" class="edge">
<title>Node1&#45;&gt;Node4</title>
<path fill="none" stroke="#63b8ff" d="M251.13,-460.77C241.48,-514.16 216.44,-614.19 158,-675.5 151.65,-682.16 143.8,-687.65 135.55,-692.14"/>
<polygon fill="#63b8ff" stroke="#63b8ff" points="254.61,-461.19 252.87,-450.74 247.72,-460 254.61,-461.19"/>
</g>
<!-- Node5 -->
<g id="node5" class="node">
<title>Node5</title>
<g id="a_node5"><a xlink:href="structelc_1_1defs_1_1string__n_1_1string__data__n_1_1base__string__data__t.html#aeeeacaf1dfaf56299213f4ec33f0fd25" target="_top" xlink:title=" ">
<polygon fill="white" stroke="#666666" points="135.5,-666.5 22.5,-666.5 22.5,-614.5 135.5,-614.5 135.5,-666.5"/>
<text text-anchor="start" x="30.5" y="-654.5" font-family="Helvetica,sans-Serif" font-size="10.00">elc::defs::string_n</text>
<text text-anchor="start" x="30.5" y="-643.5" font-family="Helvetica,sans-Serif" font-size="10.00">::string_data_n::base</text>
<text text-anchor="start" x="30.5" y="-632.5" font-family="Helvetica,sans-Serif" font-size="10.00">_string_data_t::default</text>
<text text-anchor="middle" x="79" y="-621.5" font-family="Helvetica,sans-Serif" font-size="10.00">_equal_method</text>
</a>
</g>
</g>
<!-- Node1&#45;&gt;Node5 -->
<g id="edge4" class="edge">
<title>Node1&#45;&gt;Node5</title>
<path fill="none" stroke="#63b8ff" d="M244.92,-460.3C230.35,-500.36 201.8,-564.94 158,-605.5 151.47,-611.55 143.71,-616.69 135.66,-621.01"/>
<polygon fill="#63b8ff" stroke="#63b8ff" points="248.29,-461.27 248.32,-450.67 241.69,-458.93 248.29,-461.27"/>
</g>
<!-- Node6 -->
<g id="node6" class="node">
<title>Node6</title>
<g id="a_node6"><a xlink:href="structelc_1_1defs_1_1string__n_1_1string__data__n_1_1base__string__data__t.html#a468584806b9d4699a58bff77c8712761" target="_top" xlink:title=" ">
<polygon fill="white" stroke="#666666" points="144,-596 14,-596 14,-555 144,-555 144,-596"/>
<text text-anchor="start" x="22" y="-584" font-family="Helvetica,sans-Serif" font-size="10.00">elc::defs::string_n</text>
<text text-anchor="start" x="22" y="-573" font-family="Helvetica,sans-Serif" font-size="10.00">::string_data_n::base</text>
<text text-anchor="middle" x="79" y="-562" font-family="Helvetica,sans-Serif" font-size="10.00">_string_data_t::equal_with</text>
</a>
</g>
</g>
<!-- Node1&#45;&gt;Node6 -->
<g id="edge5" class="edge">
<title>Node1&#45;&gt;Node6</title>
<path fill="none" stroke="#63b8ff" d="M235.76,-459.36C218.1,-486.42 190.46,-523.14 158,-546.5 153.66,-549.62 148.95,-552.45 144.06,-555"/>
<polygon fill="#63b8ff" stroke="#63b8ff" points="238.93,-460.9 241.36,-450.59 233.03,-457.14 238.93,-460.9"/>
</g>
<!-- Node7 -->
<g id="node7" class="node">
<title>Node7</title>
<g id="a_node7"><a xlink:href="structelc_1_1defs_1_1string__n_1_1string__data__n_1_1base__string__data__t.html#a35675b03d057d5a20aea48b419e98635" target="_top" xlink:title=" ">
<polygon fill="white" stroke="#666666" points="141,-537 17,-537 17,-496 141,-496 141,-537"/>
<text text-anchor="start" x="25" y="-525" font-family="Helvetica,sans-Serif" font-size="10.00">elc::defs::string_n</text>
<text text-anchor="start" x="25" y="-514" font-family="Helvetica,sans-Serif" font-size="10.00">::string_data_n::base</text>
<text text-anchor="middle" x="79" y="-503" font-family="Helvetica,sans-Serif" font-size="10.00">_string_data_t::get_hash</text>
</a>
</g>
</g>
<!-- Node1&#45;&gt;Node7 -->
<g id="edge7" class="edge">
<title>Node1&#45;&gt;Node7</title>
<path fill="none" stroke="#63b8ff" d="M210.95,-456.5C194.68,-467.15 175.93,-478.56 158,-487.5 152.05,-490.47 145.72,-493.3 139.34,-495.96"/>
<polygon fill="#63b8ff" stroke="#63b8ff" points="213.32,-459.13 219.72,-450.68 209.45,-453.29 213.32,-459.13"/>
</g>
<!-- Node8 -->
<g id="node8" class="node">
<title>Node8</title>
<g id="a_node8"><a xlink:href="structelc_1_1defs_1_1string__n_1_1string__data__n_1_1base__string__data__t.html#a9a8593b536971164bf6fe7d5cf1caa92" target="_top" xlink:title=" ">
<polygon fill="white" stroke="#666666" points="156.5,-478 1.5,-478 1.5,-437 156.5,-437 156.5,-478"/>
<text text-anchor="start" x="9.5" y="-466" font-family="Helvetica,sans-Serif" font-size="10.00">elc::defs::string_n</text>
<text text-anchor="start" x="9.5" y="-455" font-family="Helvetica,sans-Serif" font-size="10.00">::string_data_n::base</text>
<text text-anchor="middle" x="79" y="-444" font-family="Helvetica,sans-Serif" font-size="10.00">_string_data_t::get_hash_cache</text>
</a>
</g>
</g>
<!-- Node1&#45;&gt;Node8 -->
<g id="edge8" class="edge">
<title>Node1&#45;&gt;Node8</title>
<path fill="none" stroke="#63b8ff" d="M183.81,-438.09C174.88,-439.76 165.73,-441.47 156.74,-443.15"/>
<polygon fill="#63b8ff" stroke="#63b8ff" points="184.59,-441.51 193.78,-436.23 183.3,-434.63 184.59,-441.51"/>
</g>
<!-- Node9 -->
<g id="node9" class="node">
<title>Node9</title>
<g id="a_node9"><a xlink:href="structelc_1_1defs_1_1string__n_1_1string__data__n_1_1base__string__data__t.html#a94bcdabce441e44a2d247e7b59fe2988" target="_top" xlink:title=" ">
<polygon fill="white" stroke="#666666" points="152,-418.5 6,-418.5 6,-366.5 152,-366.5 152,-418.5"/>
<text text-anchor="start" x="14" y="-406.5" font-family="Helvetica,sans-Serif" font-size="10.00">elc::defs::string_n</text>
<text text-anchor="start" x="14" y="-395.5" font-family="Helvetica,sans-Serif" font-size="10.00">::string_data_n::base</text>
<text text-anchor="start" x="14" y="-384.5" font-family="Helvetica,sans-Serif" font-size="10.00">_string_data_t::get_others</text>
<text text-anchor="middle" x="79" y="-373.5" font-family="Helvetica,sans-Serif" font-size="10.00">_hash_with_calculated_before</text>
</a>
</g>
</g>
<!-- Node1&#45;&gt;Node9 -->
<g id="edge9" class="edge">
<title>Node1&#45;&gt;Node9</title>
<path fill="none" stroke="#63b8ff" d="M183.85,-411.33C173.38,-409.43 162.61,-407.48 152.16,-405.58"/>
<polygon fill="#63b8ff" stroke="#63b8ff" points="183.31,-414.79 193.78,-413.13 184.56,-407.9 183.31,-414.79"/>
</g>
<!-- Node10 -->
<g id="node10" class="node">
<title>Node10</title>
<g id="a_node10"><a xlink:href="structelc_1_1defs_1_1string__n_1_1string__data__n_1_1base__string__data__t.html#a6749063564d9c1ac9fa3bb633c9902c1" target="_top" xlink:title=" ">
<polygon fill="white" stroke="#666666" points="158,-348 0,-348 0,-307 158,-307 158,-348"/>
<text text-anchor="start" x="8" y="-336" font-family="Helvetica,sans-Serif" font-size="10.00">elc::defs::string_n</text>
<text text-anchor="start" x="8" y="-325" font-family="Helvetica,sans-Serif" font-size="10.00">::string_data_n::base</text>
<text text-anchor="middle" x="79" y="-314" font-family="Helvetica,sans-Serif" font-size="10.00">_string_data_t::has_hash_cache</text>
</a>
</g>
</g>
<!-- Node1&#45;&gt;Node10 -->
<g id="edge10" class="edge">
<title>Node1&#45;&gt;Node10</title>
<path fill="none" stroke="#63b8ff" d="M213.66,-392.2C196.84,-380.38 177.04,-367.46 158,-357.5 151.7,-354.2 144.96,-351.07 138.17,-348.16"/>
<polygon fill="#63b8ff" stroke="#63b8ff" points="211.99,-395.31 222.16,-398.26 216.05,-389.61 211.99,-395.31"/>
</g>
<!-- Node11 -->
<g id="node11" class="node">
<title>Node11</title>
<g id="a_node11"><a xlink:href="structelc_1_1defs_1_1string__n_1_1string__data__n_1_1base__string__data__t.html#a2d5d50082a06707263a9956be2eaaeee" target="_top" xlink:title=" ">
<polygon fill="white" stroke="#666666" points="141.5,-289 16.5,-289 16.5,-248 141.5,-248 141.5,-289"/>
<text text-anchor="start" x="24.5" y="-277" font-family="Helvetica,sans-Serif" font-size="10.00">elc::defs::string_n</text>
<text text-anchor="start" x="24.5" y="-266" font-family="Helvetica,sans-Serif" font-size="10.00">::string_data_n::base</text>
<text text-anchor="middle" x="79" y="-255" font-family="Helvetica,sans-Serif" font-size="10.00">_string_data_t::is_unique</text>
</a>
</g>
</g>
<!-- Node1&#45;&gt;Node11 -->
<g id="edge11" class="edge">
<title>Node1&#45;&gt;Node11</title>
<path fill="none" stroke="#63b8ff" d="M236.65,-389.7C219.12,-361.7 191.23,-323.1 158,-298.5 152.99,-294.79 147.46,-291.48 141.72,-288.54"/>
<polygon fill="#63b8ff" stroke="#63b8ff" points="233.76,-391.69 241.97,-398.39 239.73,-388.03 233.76,-391.69"/>
</g>
<!-- Node12 -->
<g id="node12" class="node">
<title>Node12</title>
<g id="a_node12"><a xlink:href="structelc_1_1defs_1_1string__n_1_1string__data__n_1_1base__string__data__t.html#ab3435598067fdb8f59e12451d4eb9742" target="_top" xlink:title=" ">
<polygon fill="white" stroke="#666666" points="133,-229.5 25,-229.5 25,-177.5 133,-177.5 133,-229.5"/>
<text text-anchor="start" x="33" y="-217.5" font-family="Helvetica,sans-Serif" font-size="10.00">elc::defs::string_n</text>
<text text-anchor="start" x="33" y="-206.5" font-family="Helvetica,sans-Serif" font-size="10.00">::string_data_n::base</text>
<text text-anchor="start" x="33" y="-195.5" font-family="Helvetica,sans-Serif" font-size="10.00">_string_data_t::reset</text>
<text text-anchor="middle" x="79" y="-184.5" font-family="Helvetica,sans-Serif" font-size="10.00">_hash_cache</text>
</a>
</g>
</g>
<!-- Node1&#45;&gt;Node12 -->
<g id="edge12" class="edge">
<title>Node1&#45;&gt;Node12</title>
<path fill="none" stroke="#63b8ff" d="M245.37,-388.93C231.02,-348.14 202.47,-281.51 158,-239.5 150.84,-232.74 142.19,-227.07 133.3,-222.38"/>
<polygon fill="#63b8ff" stroke="#63b8ff" points="242.09,-390.13 248.63,-398.46 248.71,-387.87 242.09,-390.13"/>
</g>
<!-- Node13 -->
<g id="node13" class="node">
<title>Node13</title>
<g id="a_node13"><a xlink:href="structelc_1_1defs_1_1string__n_1_1string__data__n_1_1base__string__data__t.html#af5163393e3743c8cb01d7148001138e0" target="_top" xlink:title=" ">
<polygon fill="white" stroke="#666666" points="145,-159 13,-159 13,-118 145,-118 145,-159"/>
<text text-anchor="start" x="21" y="-147" font-family="Helvetica,sans-Serif" font-size="10.00">elc::defs::string_n</text>
<text text-anchor="start" x="21" y="-136" font-family="Helvetica,sans-Serif" font-size="10.00">::string_data_n::base</text>
<text text-anchor="middle" x="79" y="-125" font-family="Helvetica,sans-Serif" font-size="10.00">_string_data_t::same_type</text>
</a>
</g>
</g>
<!-- Node1&#45;&gt;Node13 -->
<g id="edge13" class="edge">
<title>Node1&#45;&gt;Node13</title>
<path fill="none" stroke="#63b8ff" d="M251.97,-388.28C243.28,-333.61 219.37,-229.87 158,-168.5 154.2,-164.7 149.88,-161.38 145.25,-158.47"/>
<polygon fill="#63b8ff" stroke="#63b8ff" points="248.51,-388.85 253.46,-398.22 255.43,-387.81 248.51,-388.85"/>
</g>
<!-- Node14 -->
<g id="node14" class="node">
<title>Node14</title>
<g id="a_node14"><a xlink:href="structelc_1_1defs_1_1string__n_1_1string__data__n_1_1base__string__data__t.html#a62865e7b3d202fdfbca6fbe36379a4cc" target="_top" xlink:title=" ">
<polygon fill="white" stroke="#666666" points="149.5,-100 8.5,-100 8.5,-59 149.5,-59 149.5,-100"/>
<text text-anchor="start" x="16.5" y="-88" font-family="Helvetica,sans-Serif" font-size="10.00">elc::defs::string_n</text>
<text text-anchor="start" x="16.5" y="-77" font-family="Helvetica,sans-Serif" font-size="10.00">::string_data_n::base</text>
<text text-anchor="middle" x="79" y="-66" font-family="Helvetica,sans-Serif" font-size="10.00">_string_data_t::self_changed</text>
</a>
</g>
</g>
<!-- Node1&#45;&gt;Node14 -->
<g id="edge14" class="edge">
<title>Node1&#45;&gt;Node14</title>
<path fill="none" stroke="#63b8ff" d="M255.08,-388.24C250.64,-323.86 232.45,-188.88 158,-109.5 154.72,-106.01 151,-102.92 146.99,-100.18"/>
<polygon fill="#63b8ff" stroke="#63b8ff" points="251.59,-388.55 255.7,-398.32 258.58,-388.12 251.59,-388.55"/>
</g>
<!-- Node15 -->
<g id="node15" class="node">
<title>Node15</title>
<g id="a_node15"><a xlink:href="structelc_1_1defs_1_1string__n_1_1string__data__n_1_1base__string__data__t.html#acaebf29956bb83c20086734c06fd2954" target="_top" xlink:title=" ">
<polygon fill="white" stroke="#666666" points="156.5,-41 1.5,-41 1.5,0 156.5,0 156.5,-41"/>
<text text-anchor="start" x="9.5" y="-29" font-family="Helvetica,sans-Serif" font-size="10.00">elc::defs::string_n</text>
<text text-anchor="start" x="9.5" y="-18" font-family="Helvetica,sans-Serif" font-size="10.00">::string_data_n::base</text>
<text text-anchor="middle" x="79" y="-7" font-family="Helvetica,sans-Serif" font-size="10.00">_string_data_t::set_hash_cache</text>
</a>
</g>
</g>
<!-- Node1&#45;&gt;Node15 -->
<g id="edge15" class="edge">
<title>Node1&#45;&gt;Node15</title>
<path fill="none" stroke="#63b8ff" d="M257.27,-387.97C256.83,-314.64 245.55,-148.21 158,-50.5 154.81,-46.93 151.14,-43.79 147.17,-41.02"/>
<polygon fill="#63b8ff" stroke="#63b8ff" points="253.77,-388.09 257.27,-398.09 260.77,-388.09 253.77,-388.09"/>
</g>
</g>
</svg>
        <g id="navigator" transform="translate(0 0)" fill="#404254">
                <rect fill="#f2f5e9" fill-opacity="0.5" stroke="#606060" stroke-width=".5" x="0" y="0" width="60" height="60"/>
                <use id="zoomplus" xlink:href="#zoomPlus" x="17" y="9" onmousedown="handleZoom(evt,'in')"/>
                <use id="zoomminus" xlink:href="#zoomMin" x="42" y="9" onmousedown="handleZoom(evt,'out')"/>
                <use id="reset" xlink:href="#resetDef" x="30" y="36" onmousedown="handleReset()"/>
                <g id="arrowUp" xlink:href="#dirArrow" transform="translate(30 24)" onmousedown="handlePan(0,-1)">
                  <use xlink:href="#rim" fill="#404040">
                        <set attributeName="fill" to="#808080" begin="arrowUp.mouseover" end="arrowUp.mouseout"/>
                  </use>
                  <path fill="none" stroke="white" stroke-width="1.5" d="M0,-3.0v7 M-2.5,-0.5L0,-3.0L2.5,-0.5"/>
                </g>
                <g id="arrowRight" xlink:href="#dirArrow" transform="rotate(90) translate(36 -43)" onmousedown="handlePan(1,0)">
                  <use xlink:href="#rim" fill="#404040">
                        <set attributeName="fill" to="#808080" begin="arrowRight.mouseover" end="arrowRight.mouseout"/>
                  </use>
                  <path fill="none" stroke="white" stroke-width="1.5" d="M0,-3.0v7 M-2.5,-0.5L0,-3.0L2.5,-0.5"/>
                </g>
                <g id="arrowDown" xlink:href="#dirArrow" transform="rotate(180) translate(-30 -48)" onmousedown="handlePan(0,1)">
                  <use xlink:href="#rim" fill="#404040">
                        <set attributeName="fill" to="#808080" begin="arrowDown.mouseover" end="arrowDown.mouseout"/>
                  </use>
                  <path fill="none" stroke="white" stroke-width="1.5" d="M0,-3.0v7 M-2.5,-0.5L0,-3.0L2.5,-0.5"/>
                </g>
                <g id="arrowLeft" xlink:href="#dirArrow" transform="rotate(270) translate(-36 17)" onmousedown="handlePan(-1,0)">
                  <use xlink:href="#rim" fill="#404040">
                        <set attributeName="fill" to="#808080" begin="arrowLeft.mouseover" end="arrowLeft.mouseout"/>
                  </use>
                  <path fill="none" stroke="white" stroke-width="1.5" d="M0,-3.0v7 M-2.5,-0.5L0,-3.0L2.5,-0.5"/>
                </g>
        </g>
        <svg viewBox="0 0 15 15" width="100%" height="30px" preserveAspectRatio="xMaxYMin meet">
         <g id="arrow_out" transform="scale(0.3 0.3)">
          <a xlink:href="structelc_1_1defs_1_1string__n_1_1string__data__n_1_1base__string__data__t_ab457c64f5c77a1ab773762cb361f2daf_icgraph_org.svg" target="_base">
           <rect id="button" ry="5" rx="5" y="6" x="6" height="38" width="38"
                fill="#f2f5e9" fill-opacity="0.5" stroke="#606060" stroke-width="1.0"/>
           <path id="arrow"
             d="M 11.500037,31.436501 C 11.940474,20.09759 22.043105,11.32322 32.158766,21.979434 L 37.068811,17.246167 C 37.068811,17.246167 37.088388,32 37.088388,32 L 22.160133,31.978069 C 22.160133,31.978069 26.997745,27.140456 26.997745,27.140456 C 18.528582,18.264221 13.291696,25.230495 11.500037,31.436501 z"
             style="fill:#404040;"/>
          </a>
         </g>
        </svg>
</svg>
