<?xml version="1.0" encoding="UTF-8" standalone="no"?>
<!DOCTYPE svg PUBLIC "-//W3C//DTD SVG 1.1//EN"
 "http://www.w3.org/Graphics/SVG/1.1/DTD/svg11.dtd">
<!-- Generated by graphviz version 6.0.1 (20220911.1526)
 -->
<!-- Title: elc::defs::string_n::string_t::to_string_view_t Pages: 1 -->
<svg width="256pt" height="134pt"
 viewBox="0.00 0.00 256.00 134.00" xmlns="http://www.w3.org/2000/svg" xmlns:xlink="http://www.w3.org/1999/xlink">
<g id="graph0" class="graph" transform="scale(1 1) rotate(0) translate(4 130)">
<title>elc::defs::string_n::string_t::to_string_view_t</title>
<!-- Node1 -->
<g id="node1" class="node">
<title>Node1</title>
<g id="a_node1"><a xlink:title=" ">
<polygon fill="#999999" stroke="#666666" points="248,-83.5 150,-83.5 150,-42.5 248,-42.5 248,-83.5"/>
<text text-anchor="start" x="158" y="-71.5" font-family="Helvetica,sans-Serif" font-size="10.00">elc::defs::string_n</text>
<text text-anchor="start" x="158" y="-60.5" font-family="Helvetica,sans-Serif" font-size="10.00">::string_t::to_string</text>
<text text-anchor="middle" x="199" y="-49.5" font-family="Helvetica,sans-Serif" font-size="10.00">_view_t</text>
</a>
</g>
</g>
<!-- Node2 -->
<g id="node2" class="node">
<title>Node2</title>
<g id="a_node2"><a xlink:href="structelc_1_1defs_1_1string__n_1_1string__t.html#a59d6a7f64d54a1ff959102372a5c96bd" target="_top" xlink:title=" ">
<polygon fill="white" stroke="#666666" points="114,-126 0,-126 0,-96 114,-96 114,-126"/>
<text text-anchor="start" x="8" y="-114" font-family="Helvetica,sans-Serif" font-size="10.00">elc::defs::string_n</text>
<text text-anchor="middle" x="57" y="-103" font-family="Helvetica,sans-Serif" font-size="10.00">::string_t::operator&lt;=&gt;</text>
</a>
</g>
</g>
<!-- Node1&#45;&gt;Node2 -->
<g id="edge1" class="edge">
<title>Node1&#45;&gt;Node2</title>
<path fill="none" stroke="#63b8ff" d="M140.21,-82.82C127.45,-87.19 114.14,-91.75 102.04,-95.9"/>
<polygon fill="#63b8ff" stroke="#63b8ff" points="141.5,-86.07 149.82,-79.52 139.23,-79.45 141.5,-86.07"/>
</g>
<!-- Node3 -->
<g id="node3" class="node">
<title>Node3</title>
<g id="a_node3"><a xlink:href="structelc_1_1defs_1_1string__n_1_1string__t.html#af8b8753d200c3990d5301b8773318809" target="_top" xlink:title=" ">
<polygon fill="white" stroke="#666666" points="111,-78 3,-78 3,-48 111,-48 111,-78"/>
<text text-anchor="start" x="11" y="-66" font-family="Helvetica,sans-Serif" font-size="10.00">elc::defs::string_n</text>
<text text-anchor="middle" x="57" y="-55" font-family="Helvetica,sans-Serif" font-size="10.00">::string_t::operator==</text>
</a>
</g>
</g>
<!-- Node1&#45;&gt;Node3 -->
<g id="edge2" class="edge">
<title>Node1&#45;&gt;Node3</title>
<path fill="none" stroke="#63b8ff" d="M139.68,-63C130.19,-63 120.41,-63 111.06,-63"/>
<polygon fill="#63b8ff" stroke="#63b8ff" points="139.82,-66.5 149.82,-63 139.82,-59.5 139.82,-66.5"/>
</g>
<!-- Node4 -->
<g id="node4" class="node">
<title>Node4</title>
<g id="a_node4"><a xlink:href="structelc_1_1defs_1_1string__n_1_1string__t.html#a7aba38bdadae19483657b7ada8a63232" target="_top" xlink:title=" ">
<polygon fill="white" stroke="#666666" points="111,-30 3,-30 3,0 111,0 111,-30"/>
<text text-anchor="start" x="11" y="-18" font-family="Helvetica,sans-Serif" font-size="10.00">elc::defs::string_n</text>
<text text-anchor="middle" x="57" y="-7" font-family="Helvetica,sans-Serif" font-size="10.00">::string_t::push_back</text>
</a>
</g>
</g>
<!-- Node1&#45;&gt;Node4 -->
<g id="edge3" class="edge">
<title>Node1&#45;&gt;Node4</title>
<path fill="none" stroke="#63b8ff" d="M140.21,-43.18C127.45,-38.81 114.14,-34.25 102.04,-30.1"/>
<polygon fill="#63b8ff" stroke="#63b8ff" points="139.23,-46.55 149.82,-46.48 141.5,-39.93 139.23,-46.55"/>
</g>
</g>
</svg>
