<?xml version="1.0" encoding="UTF-8" standalone="no"?>
<!DOCTYPE svg PUBLIC "-//W3C//DTD SVG 1.1//EN"
 "http://www.w3.org/Graphics/SVG/1.1/DTD/svg11.dtd">
<!-- Generated by graphviz version 6.0.1 (20220911.1526)
 -->
<!-- Title: elc::defs::core::cons::arec Pages: 1 -->
<!--zoomable 269 -->
<svg id="main" version="1.1" xmlns="http://www.w3.org/2000/svg" xmlns:xlink="http://www.w3.org/1999/xlink" xml:space="preserve" onload="init(evt)">
<style type="text/css"><![CDATA[
.edge:hover path { stroke: red; }
.edge:hover polygon { stroke: red; fill: red; }
]]></style>
<script type="text/javascript"><![CDATA[
var edges = document.getElementsByTagName('g');
if (edges && edges.length) {
  for (var i=0;i<edges.length;i++) {
    if (edges[i].id.substr(0,4)=='edge') {
      edges[i].setAttribute('class','edge');
    }
  }
}
]]></script>
        <defs>
                <circle id="rim" cx="0" cy="0" r="7"/>
                <circle id="rim2" cx="0" cy="0" r="3.5"/>
                <g id="zoomPlus">
                        <use xlink:href="#rim" fill="#404040">
                                <set attributeName="fill" to="#808080" begin="zoomplus.mouseover" end="zoomplus.mouseout"/>
                        </use>
                        <path d="M-4,0h8M0,-4v8" fill="none" stroke="white" stroke-width="1.5" pointer-events="none"/>
                </g>
                <g id="zoomMin">
                        <use xlink:href="#rim" fill="#404040">
                                <set attributeName="fill" to="#808080" begin="zoomminus.mouseover" end="zoomminus.mouseout"/>
                        </use>
                        <path d="M-4,0h8" fill="none" stroke="white" stroke-width="1.5" pointer-events="none"/>
                </g>
                <g id="dirArrow">
                        <path fill="none" stroke="white" stroke-width="1.5" d="M0,-3.0v7 M-2.5,-0.5L0,-3.0L2.5,-0.5"/>
                </g>
               <g id="resetDef">
                       <use xlink:href="#rim2" fill="#404040">
                               <set attributeName="fill" to="#808080" begin="reset.mouseover" end="reset.mouseout"/>
                       </use>
               </g>
        </defs>

<script type="text/javascript">
var viewWidth = 579;
var viewHeight = 269;
var sectionId = 'dynsection-3';
</script>
<script xlink:href="svgpan.js"/>
<svg id="graph" class="graph">
<g id="viewport">
<title>elc::defs::core::cons::arec</title>
<!-- Node1 -->
<g id="node1" class="node">
<title>Node1</title>
<g id="a_node1"><a xlink:title=" ">
<polygon fill="#999999" stroke="#666666" points="105,-121 0,-121 0,-91 105,-91 105,-121"/>
<text text-anchor="start" x="8" y="-109" font-family="Helvetica,sans-Serif" font-size="10.00">elc::defs::core::cons</text>
<text text-anchor="middle" x="52.5" y="-98" font-family="Helvetica,sans-Serif" font-size="10.00">::arec</text>
</a>
</g>
</g>
<!-- Node2 -->
<g id="node2" class="node">
<title>Node2</title>
<g id="a_node2"><a xlink:href="structelc_1_1defs_1_1core_1_1node__like.html#a772b69c7911dabdc464ae71efa6f6318" target="_top" xlink:title=" ">
<polygon fill="white" stroke="#666666" points="249,-201 143,-201 143,-171 249,-171 249,-201"/>
<text text-anchor="start" x="151" y="-189" font-family="Helvetica,sans-Serif" font-size="10.00">elc::defs::core::node</text>
<text text-anchor="middle" x="196" y="-178" font-family="Helvetica,sans-Serif" font-size="10.00">_like::be_replace_as</text>
</a>
</g>
</g>
<!-- Node1&#45;&gt;Node2 -->
<g id="edge1" class="edge">
<title>Node1&#45;&gt;Node2</title>
<path fill="none" stroke="#63b8ff" d="M75.24,-121.22C92.61,-133.06 117.81,-149.52 141,-162 143.85,-163.53 146.81,-165.05 149.82,-166.53"/>
<polygon fill="#63b8ff" stroke="#63b8ff" points="148.37,-169.72 158.91,-170.87 151.39,-163.4 148.37,-169.72"/>
</g>
<!-- Node8 -->
<g id="node8" class="node">
<title>Node8</title>
<g id="a_node8"><a xlink:href="namespaceelc_1_1defs_1_1core.html#a72636fe7dced40c72eb59b1d7e77e15e" target="_top" xlink:title=" ">
<polygon fill="white" stroke="#666666" points="251,-152.5 141,-152.5 141,-133.5 251,-133.5 251,-152.5"/>
<text text-anchor="middle" x="196" y="-140.5" font-family="Helvetica,sans-Serif" font-size="10.00">elc::defs::core::car_of</text>
</a>
</g>
</g>
<!-- Node1&#45;&gt;Node8 -->
<g id="edge7" class="edge">
<title>Node1&#45;&gt;Node8</title>
<path fill="none" stroke="#63b8ff" d="M105.39,-119.57C119.6,-123.28 134.92,-127.29 148.79,-130.92"/>
<polygon fill="#63b8ff" stroke="#63b8ff" points="148.05,-134.34 158.61,-133.48 149.82,-127.57 148.05,-134.34"/>
</g>
<!-- Node9 -->
<g id="node9" class="node">
<title>Node9</title>
<g id="a_node9"><a xlink:href="namespaceelc_1_1defs_1_1core.html#a44028d2ee30d52c14d515a577dfc0461" target="_top" xlink:title=" ">
<polygon fill="white" stroke="#666666" points="251,-115.5 141,-115.5 141,-96.5 251,-96.5 251,-115.5"/>
<text text-anchor="middle" x="196" y="-103.5" font-family="Helvetica,sans-Serif" font-size="10.00">elc::defs::core::cdr_of</text>
</a>
</g>
</g>
<!-- Node1&#45;&gt;Node9 -->
<g id="edge8" class="edge">
<title>Node1&#45;&gt;Node9</title>
<path fill="none" stroke="#63b8ff" d="M105.39,-106C113.57,-106 122.12,-106 130.55,-106"/>
<polygon fill="#63b8ff" stroke="#63b8ff" points="130.74,-109.5 140.74,-106 130.74,-102.5 130.74,-109.5"/>
</g>
<!-- Node10 -->
<g id="node10" class="node">
<title>Node10</title>
<g id="a_node10"><a xlink:href="structelc_1_1defs_1_1core_1_1node__like.html#a598fc97568cbdde47683e1ef79ae619b" target="_top" xlink:title=" ">
<polygon fill="white" stroke="#666666" points="248.5,-78 143.5,-78 143.5,-48 248.5,-48 248.5,-78"/>
<text text-anchor="start" x="151.5" y="-66" font-family="Helvetica,sans-Serif" font-size="10.00">elc::defs::core::node</text>
<text text-anchor="middle" x="196" y="-55" font-family="Helvetica,sans-Serif" font-size="10.00">_like::operator&amp;</text>
</a>
</g>
</g>
<!-- Node1&#45;&gt;Node10 -->
<g id="edge9" class="edge">
<title>Node1&#45;&gt;Node10</title>
<path fill="none" stroke="#63b8ff" d="M102.99,-90.96C113.48,-87.77 124.67,-84.37 135.49,-81.08"/>
<polygon fill="#63b8ff" stroke="#63b8ff" points="136.75,-84.36 145.3,-78.1 134.71,-77.66 136.75,-84.36"/>
</g>
<!-- Node11 -->
<g id="node11" class="node">
<title>Node11</title>
<g id="a_node11"><a xlink:href="structelc_1_1defs_1_1core_1_1value.html#a3f576f526d2d3c03b0b69fa3a9ebbca5" target="_top" xlink:title=" ">
<polygon fill="white" stroke="#666666" points="249,-30 143,-30 143,0 249,0 249,-30"/>
<text text-anchor="start" x="151" y="-18" font-family="Helvetica,sans-Serif" font-size="10.00">elc::defs::core::value</text>
<text text-anchor="middle" x="196" y="-7" font-family="Helvetica,sans-Serif" font-size="10.00">::operator&gt;&gt;</text>
</a>
</g>
</g>
<!-- Node1&#45;&gt;Node11 -->
<g id="edge10" class="edge">
<title>Node1&#45;&gt;Node11</title>
<path fill="none" stroke="#63b8ff" d="M70.72,-90.85C87.77,-76.34 115.01,-54.43 141,-39 143.48,-37.53 146.07,-36.09 148.71,-34.69"/>
<polygon fill="#63b8ff" stroke="#63b8ff" points="150.44,-37.74 157.82,-30.14 147.31,-31.48 150.44,-37.74"/>
</g>
<!-- Node3 -->
<g id="node3" class="node">
<title>Node3</title>
<g id="a_node3"><a xlink:href="structelc_1_1defs_1_1memory_1_1others__n_1_1replace__able.html#a098536625acaf5d31620b07fe3221fff" target="_top" xlink:title=" ">
<polygon fill="white" stroke="#666666" points="402,-260.5 287,-260.5 287,-219.5 402,-219.5 402,-260.5"/>
<text text-anchor="start" x="295" y="-248.5" font-family="Helvetica,sans-Serif" font-size="10.00">elc::defs::memory::</text>
<text text-anchor="start" x="295" y="-237.5" font-family="Helvetica,sans-Serif" font-size="10.00">others_n::replace_able</text>
<text text-anchor="middle" x="344.5" y="-226.5" font-family="Helvetica,sans-Serif" font-size="10.00">::be_replace_as</text>
</a>
</g>
</g>
<!-- Node2&#45;&gt;Node3 -->
<g id="edge2" class="edge">
<title>Node2&#45;&gt;Node3</title>
<path fill="none" stroke="#63b8ff" d="M237.81,-201.04C250.4,-205.68 264.59,-210.91 278.39,-216"/>
<polygon fill="#63b8ff" stroke="#63b8ff" points="277.26,-219.31 287.86,-219.49 279.68,-212.75 277.26,-219.31"/>
</g>
<!-- Node5 -->
<g id="node5" class="node">
<title>Node5</title>
<g id="a_node5"><a xlink:href="structelc_1_1defs_1_1core_1_1node__like.html#aefcdaffad816fe7ead26436a92ac268a" target="_top" xlink:title=" ">
<polygon fill="white" stroke="#666666" points="397,-201 292,-201 292,-171 397,-171 397,-201"/>
<text text-anchor="start" x="300" y="-189" font-family="Helvetica,sans-Serif" font-size="10.00">elc::defs::core::node</text>
<text text-anchor="middle" x="344.5" y="-178" font-family="Helvetica,sans-Serif" font-size="10.00">_like::clear</text>
</a>
</g>
</g>
<!-- Node2&#45;&gt;Node5 -->
<g id="edge4" class="edge">
<title>Node2&#45;&gt;Node5</title>
<path fill="none" stroke="#63b8ff" d="M249.06,-186C259.53,-186 270.64,-186 281.41,-186"/>
<polygon fill="#63b8ff" stroke="#63b8ff" points="281.6,-189.5 291.6,-186 281.6,-182.5 281.6,-189.5"/>
</g>
<!-- Node6 -->
<g id="node6" class="node">
<title>Node6</title>
<g id="a_node6"><a xlink:href="structelc_1_1defs_1_1memory_1_1ptr__n_1_1ptr__t.html#afa7ec8ea3b1c71df95fdfc05b7d726d8" target="_top" xlink:title=" ">
<polygon fill="white" stroke="#666666" points="395,-153 294,-153 294,-123 395,-123 395,-153"/>
<text text-anchor="start" x="302" y="-141" font-family="Helvetica,sans-Serif" font-size="10.00">elc::defs::memory::</text>
<text text-anchor="middle" x="344.5" y="-130" font-family="Helvetica,sans-Serif" font-size="10.00">ptr_n::ptr_t::get</text>
</a>
</g>
</g>
<!-- Node2&#45;&gt;Node6 -->
<g id="edge5" class="edge">
<title>Node2&#45;&gt;Node6</title>
<path fill="none" stroke="#63b8ff" d="M242.95,-170.94C257.27,-166.25 273.21,-161.03 288.1,-156.15"/>
<polygon fill="#63b8ff" stroke="#63b8ff" points="289.3,-159.44 297.71,-153 287.12,-152.79 289.3,-159.44"/>
</g>
<!-- Node4 -->
<g id="node4" class="node">
<title>Node4</title>
<g id="a_node4"><a xlink:href="structelc_1_1defs_1_1memory_1_1others__n_1_1replace__able.html#a6c4c40ad25a3907b6407cd9352f7b52a" target="_top" xlink:title=" ">
<polygon fill="white" stroke="#666666" points="562,-260.5 447,-260.5 447,-219.5 562,-219.5 562,-260.5"/>
<text text-anchor="start" x="455" y="-248.5" font-family="Helvetica,sans-Serif" font-size="10.00">elc::defs::memory::</text>
<text text-anchor="start" x="455" y="-237.5" font-family="Helvetica,sans-Serif" font-size="10.00">others_n::replace_able</text>
<text text-anchor="middle" x="504.5" y="-226.5" font-family="Helvetica,sans-Serif" font-size="10.00">::replaced</text>
</a>
</g>
</g>
<!-- Node3&#45;&gt;Node4 -->
<g id="edge3" class="edge">
<title>Node3&#45;&gt;Node4</title>
<path fill="none" stroke="#63b8ff" d="M402.1,-240C413.33,-240 425.22,-240 436.75,-240"/>
<polygon fill="#63b8ff" stroke="#63b8ff" points="436.77,-243.5 446.77,-240 436.77,-236.5 436.77,-243.5"/>
</g>
<!-- Node7 -->
<g id="node7" class="node">
<title>Node7</title>
<g id="a_node7"><a xlink:href="structelc_1_1defs_1_1memory_1_1ptr__n_1_1ptr__t.html#ab0ddc2cf5279d67e43eedad6d7301ae1" target="_top" xlink:title=" ">
<polygon fill="white" stroke="#666666" points="571,-153 438,-153 438,-123 571,-123 571,-153"/>
<text text-anchor="start" x="446" y="-141" font-family="Helvetica,sans-Serif" font-size="10.00">elc::defs::memory::</text>
<text text-anchor="middle" x="504.5" y="-130" font-family="Helvetica,sans-Serif" font-size="10.00">ptr_n::ptr_t::replace_check</text>
</a>
</g>
</g>
<!-- Node6&#45;&gt;Node7 -->
<g id="edge6" class="edge">
<title>Node6&#45;&gt;Node7</title>
<path fill="none" stroke="#63b8ff" d="M395.06,-138C405.45,-138 416.64,-138 427.74,-138"/>
<polygon fill="#63b8ff" stroke="#63b8ff" points="427.89,-141.5 437.89,-138 427.89,-134.5 427.89,-141.5"/>
</g>
<!-- Node12 -->
<g id="node12" class="node">
<title>Node12</title>
<g id="a_node12"><a xlink:href="structelc_1_1defs_1_1core_1_1value.html#ab18a3eb28b8194d2ff79ff28dcd59dac" target="_top" xlink:title=" ">
<polygon fill="white" stroke="#666666" points="397.5,-30 291.5,-30 291.5,0 397.5,0 397.5,-30"/>
<text text-anchor="start" x="299.5" y="-18" font-family="Helvetica,sans-Serif" font-size="10.00">elc::defs::core::value</text>
<text text-anchor="middle" x="344.5" y="-7" font-family="Helvetica,sans-Serif" font-size="10.00">::ref_to</text>
</a>
</g>
</g>
<!-- Node11&#45;&gt;Node12 -->
<g id="edge11" class="edge">
<title>Node11&#45;&gt;Node12</title>
<path fill="none" stroke="#63b8ff" d="M249.06,-15C259.41,-15 270.37,-15 281.02,-15"/>
<polygon fill="#63b8ff" stroke="#63b8ff" points="281.11,-18.5 291.11,-15 281.11,-11.5 281.11,-18.5"/>
</g>
</g>
</svg>
        <g id="navigator" transform="translate(0 0)" fill="#404254">
                <rect fill="#f2f5e9" fill-opacity="0.5" stroke="#606060" stroke-width=".5" x="0" y="0" width="60" height="60"/>
                <use id="zoomplus" xlink:href="#zoomPlus" x="17" y="9" onmousedown="handleZoom(evt,'in')"/>
                <use id="zoomminus" xlink:href="#zoomMin" x="42" y="9" onmousedown="handleZoom(evt,'out')"/>
                <use id="reset" xlink:href="#resetDef" x="30" y="36" onmousedown="handleReset()"/>
                <g id="arrowUp" xlink:href="#dirArrow" transform="translate(30 24)" onmousedown="handlePan(0,-1)">
                  <use xlink:href="#rim" fill="#404040">
                        <set attributeName="fill" to="#808080" begin="arrowUp.mouseover" end="arrowUp.mouseout"/>
                  </use>
                  <path fill="none" stroke="white" stroke-width="1.5" d="M0,-3.0v7 M-2.5,-0.5L0,-3.0L2.5,-0.5"/>
                </g>
                <g id="arrowRight" xlink:href="#dirArrow" transform="rotate(90) translate(36 -43)" onmousedown="handlePan(1,0)">
                  <use xlink:href="#rim" fill="#404040">
                        <set attributeName="fill" to="#808080" begin="arrowRight.mouseover" end="arrowRight.mouseout"/>
                  </use>
                  <path fill="none" stroke="white" stroke-width="1.5" d="M0,-3.0v7 M-2.5,-0.5L0,-3.0L2.5,-0.5"/>
                </g>
                <g id="arrowDown" xlink:href="#dirArrow" transform="rotate(180) translate(-30 -48)" onmousedown="handlePan(0,1)">
                  <use xlink:href="#rim" fill="#404040">
                        <set attributeName="fill" to="#808080" begin="arrowDown.mouseover" end="arrowDown.mouseout"/>
                  </use>
                  <path fill="none" stroke="white" stroke-width="1.5" d="M0,-3.0v7 M-2.5,-0.5L0,-3.0L2.5,-0.5"/>
                </g>
                <g id="arrowLeft" xlink:href="#dirArrow" transform="rotate(270) translate(-36 17)" onmousedown="handlePan(-1,0)">
                  <use xlink:href="#rim" fill="#404040">
                        <set attributeName="fill" to="#808080" begin="arrowLeft.mouseover" end="arrowLeft.mouseout"/>
                  </use>
                  <path fill="none" stroke="white" stroke-width="1.5" d="M0,-3.0v7 M-2.5,-0.5L0,-3.0L2.5,-0.5"/>
                </g>
        </g>
        <svg viewBox="0 0 15 15" width="100%" height="30px" preserveAspectRatio="xMaxYMin meet">
         <g id="arrow_out" transform="scale(0.3 0.3)">
          <a xlink:href="structelc_1_1defs_1_1core_1_1cons_a2ecac97973c620f052a65545c84efb8e_cgraph_org.svg" target="_base">
           <rect id="button" ry="5" rx="5" y="6" x="6" height="38" width="38"
                fill="#f2f5e9" fill-opacity="0.5" stroke="#606060" stroke-width="1.0"/>
           <path id="arrow"
             d="M 11.500037,31.436501 C 11.940474,20.09759 22.043105,11.32322 32.158766,21.979434 L 37.068811,17.246167 C 37.068811,17.246167 37.088388,32 37.088388,32 L 22.160133,31.978069 C 22.160133,31.978069 26.997745,27.140456 26.997745,27.140456 C 18.528582,18.264221 13.291696,25.230495 11.500037,31.436501 z"
             style="fill:#404040;"/>
          </a>
         </g>
        </svg>
</svg>
