<?xml version="1.0" encoding="UTF-8" standalone="no"?>
<!DOCTYPE svg PUBLIC "-//W3C//DTD SVG 1.1//EN"
 "http://www.w3.org/Graphics/SVG/1.1/DTD/svg11.dtd">
<!-- Generated by graphviz version 6.0.1 (20220911.1526)
 -->
<!-- Title: elc::defs::container::stack_n::auto_stack_t&lt; T &gt; Pages: 1 -->
<svg width="584pt" height="151pt"
 viewBox="0.00 0.00 584.00 150.50" xmlns="http://www.w3.org/2000/svg" xmlns:xlink="http://www.w3.org/1999/xlink">
<g id="graph0" class="graph" transform="scale(1 1) rotate(0) translate(4 146.5)">
<title>elc::defs::container::stack_n::auto_stack_t&lt; T &gt;</title>
<!-- Node1 -->
<g id="node1" class="node">
<title>Node1</title>
<g id="a_node1"><a xlink:title=" ">
<polygon fill="#999999" stroke="#666666" points="576,-82 465,-82 465,-41 576,-41 576,-82"/>
<text text-anchor="start" x="473" y="-70" font-family="Helvetica,sans-Serif" font-size="10.00">elc::defs::container</text>
<text text-anchor="start" x="473" y="-59" font-family="Helvetica,sans-Serif" font-size="10.00">::stack_n::auto_stack</text>
<text text-anchor="middle" x="520.5" y="-48" font-family="Helvetica,sans-Serif" font-size="10.00">_t&lt; T &gt;</text>
</a>
</g>
</g>
<!-- Node2 -->
<g id="node2" class="node">
<title>Node2</title>
<g id="a_node2"><a xlink:href="classelc_1_1defs_1_1container_1_1stack__n_1_1base__stack__t.html" target="_top" xlink:title=" ">
<polygon fill="white" stroke="#666666" points="428,-82 315,-82 315,-41 428,-41 428,-82"/>
<text text-anchor="start" x="323" y="-70" font-family="Helvetica,sans-Serif" font-size="10.00">elc::defs::container</text>
<text text-anchor="start" x="323" y="-59" font-family="Helvetica,sans-Serif" font-size="10.00">::stack_n::base_stack</text>
<text text-anchor="middle" x="371.5" y="-48" font-family="Helvetica,sans-Serif" font-size="10.00">_t&lt; T &gt;</text>
</a>
</g>
</g>
<!-- Node2&#45;&gt;Node1 -->
<g id="edge1" class="edge">
<title>Node2&#45;&gt;Node1</title>
<path fill="none" stroke="#63b8ff" d="M438.36,-61.5C447.2,-61.5 456.2,-61.5 464.82,-61.5"/>
<polygon fill="#63b8ff" stroke="#63b8ff" points="438.07,-58 428.07,-61.5 438.07,-65 438.07,-58"/>
</g>
<!-- Node3 -->
<g id="node3" class="node">
<title>Node3</title>
<g id="a_node3"><a xlink:href="structelc_1_1defs_1_1base_1_1non__copyable.html" target="_top" xlink:title="禁止默认合成的复制">
<polygon fill="white" stroke="#666666" points="256.5,-118.5 154.5,-118.5 154.5,-88.5 256.5,-88.5 256.5,-118.5"/>
<text text-anchor="start" x="162.5" y="-106.5" font-family="Helvetica,sans-Serif" font-size="10.00">elc::defs::base::non</text>
<text text-anchor="middle" x="205.5" y="-95.5" font-family="Helvetica,sans-Serif" font-size="10.00">_copyable</text>
</a>
</g>
</g>
<!-- Node3&#45;&gt;Node2 -->
<g id="edge2" class="edge">
<title>Node3&#45;&gt;Node2</title>
<path fill="none" stroke="#8b1a1a" d="M266.32,-88.18C282.22,-84.11 299.33,-79.73 314.99,-75.72"/>
<polygon fill="#8b1a1a" stroke="#8b1a1a" points="265.42,-84.8 256.6,-90.67 267.15,-91.58 265.42,-84.8"/>
</g>
<!-- Node4 -->
<g id="node4" class="node">
<title>Node4</title>
<g id="a_node4"><a xlink:href="structelc_1_1defs_1_1base_1_1non__copy__assign__able.html" target="_top" xlink:title="禁止复制赋值">
<polygon fill="white" stroke="#666666" points="107,-142.5 5,-142.5 5,-112.5 107,-112.5 107,-142.5"/>
<text text-anchor="start" x="13" y="-130.5" font-family="Helvetica,sans-Serif" font-size="10.00">elc::defs::base::non</text>
<text text-anchor="middle" x="56" y="-119.5" font-family="Helvetica,sans-Serif" font-size="10.00">_copy_assign_able</text>
</a>
</g>
</g>
<!-- Node4&#45;&gt;Node3 -->
<g id="edge3" class="edge">
<title>Node4&#45;&gt;Node3</title>
<path fill="none" stroke="#63b8ff" d="M117.5,-117.66C129.76,-115.66 142.52,-113.58 154.38,-111.66"/>
<polygon fill="#63b8ff" stroke="#63b8ff" points="116.66,-114.25 107.35,-119.31 117.78,-121.16 116.66,-114.25"/>
</g>
<!-- Node5 -->
<g id="node5" class="node">
<title>Node5</title>
<g id="a_node5"><a xlink:href="structelc_1_1defs_1_1base_1_1non__copy__construct__able.html" target="_top" xlink:title="禁止复制构造">
<polygon fill="white" stroke="#666666" points="112,-94.5 0,-94.5 0,-64.5 112,-64.5 112,-94.5"/>
<text text-anchor="start" x="8" y="-82.5" font-family="Helvetica,sans-Serif" font-size="10.00">elc::defs::base::non</text>
<text text-anchor="middle" x="56" y="-71.5" font-family="Helvetica,sans-Serif" font-size="10.00">_copy_construct_able</text>
</a>
</g>
</g>
<!-- Node5&#45;&gt;Node3 -->
<g id="edge4" class="edge">
<title>Node5&#45;&gt;Node3</title>
<path fill="none" stroke="#63b8ff" d="M122.45,-90.15C133.1,-91.88 143.98,-93.65 154.2,-95.32"/>
<polygon fill="#63b8ff" stroke="#63b8ff" points="122.78,-86.66 112.34,-88.5 121.65,-93.57 122.78,-86.66"/>
</g>
<!-- Node6 -->
<g id="node6" class="node">
<title>Node6</title>
<g id="a_node6"><a xlink:href="structelc_1_1defs_1_1container_1_1stack__n_1_1base__stack__t_1_1data__t.html" target="_top" xlink:title=" ">
<polygon fill="white" stroke="#666666" points="262,-41 149,-41 149,0 262,0 262,-41"/>
<text text-anchor="start" x="157" y="-29" font-family="Helvetica,sans-Serif" font-size="10.00">elc::defs::container</text>
<text text-anchor="start" x="157" y="-18" font-family="Helvetica,sans-Serif" font-size="10.00">::stack_n::base_stack</text>
<text text-anchor="middle" x="205.5" y="-7" font-family="Helvetica,sans-Serif" font-size="10.00">_t&lt; T &gt;::data_t</text>
</a>
</g>
</g>
<!-- Node6&#45;&gt;Node2 -->
<g id="edge5" class="edge">
<title>Node6&#45;&gt;Node2</title>
<path fill="none" stroke="#9a32cd" stroke-dasharray="5,2" d="M271.75,-36.81C285.98,-40.37 300.93,-44.11 314.76,-47.56"/>
<polygon fill="#9a32cd" stroke="#9a32cd" points="272.57,-33.41 262.02,-34.38 270.88,-40.2 272.57,-33.41"/>
<text text-anchor="middle" x="288.5" y="-45.5" font-family="Helvetica,sans-Serif" font-size="10.00"> _m</text>
</g>
<!-- Node6&#45;&gt;Node6 -->
<g id="edge6" class="edge">
<title>Node6&#45;&gt;Node6</title>
<path fill="none" stroke="#9a32cd" stroke-dasharray="5,2" d="M192.75,-51.32C194.73,-55.9 198.98,-59 205.5,-59 216.19,-59 220.79,-50.65 219.28,-41.1"/>
<polygon fill="#9a32cd" stroke="#9a32cd" points="196.2,-50.7 191.72,-41.1 189.24,-51.4 196.2,-50.7"/>
<text text-anchor="middle" x="205.5" y="-62" font-family="Helvetica,sans-Serif" font-size="10.00"> _next</text>
</g>
</g>
</svg>
