<?xml version="1.0" encoding="UTF-8" standalone="no"?>
<!DOCTYPE svg PUBLIC "-//W3C//DTD SVG 1.1//EN"
 "http://www.w3.org/Graphics/SVG/1.1/DTD/svg11.dtd">
<!-- Generated by graphviz version 6.0.1 (20220911.1526)
 -->
<!-- Title: elc::defs::core::void_t Pages: 1 -->
<svg width="604pt" height="98pt"
 viewBox="0.00 0.00 604.00 97.50" xmlns="http://www.w3.org/2000/svg" xmlns:xlink="http://www.w3.org/1999/xlink">
<g id="graph0" class="graph" transform="scale(1 1) rotate(0) translate(4 93.5)">
<title>elc::defs::core::void_t</title>
<!-- Node1 -->
<g id="node1" class="node">
<title>Node1</title>
<g id="a_node1"><a xlink:title=" ">
<polygon fill="#999999" stroke="#666666" points="596,-45.5 487,-45.5 487,-26.5 596,-26.5 596,-45.5"/>
<text text-anchor="middle" x="541.5" y="-33.5" font-family="Helvetica,sans-Serif" font-size="10.00">elc::defs::core::void_t</text>
</a>
</g>
</g>
<!-- Node2 -->
<g id="node2" class="node">
<title>Node2</title>
<g id="a_node2"><a xlink:href="structelc_1_1defs_1_1core_1_1base__constexpr__t.html" target="_top" xlink:title=" ">
<polygon fill="white" stroke="#666666" points="451,-51 346,-51 346,-21 451,-21 451,-51"/>
<text text-anchor="start" x="354" y="-39" font-family="Helvetica,sans-Serif" font-size="10.00">elc::defs::core::base</text>
<text text-anchor="middle" x="398.5" y="-28" font-family="Helvetica,sans-Serif" font-size="10.00">_constexpr_t</text>
</a>
</g>
</g>
<!-- Node2&#45;&gt;Node1 -->
<g id="edge1" class="edge">
<title>Node2&#45;&gt;Node1</title>
<path fill="none" stroke="#63b8ff" d="M461.44,-36C469.93,-36 478.59,-36 486.91,-36"/>
<polygon fill="#63b8ff" stroke="#63b8ff" points="461.2,-32.5 451.2,-36 461.2,-39.5 461.2,-32.5"/>
</g>
<!-- Node3 -->
<g id="node3" class="node">
<title>Node3</title>
<g id="a_node3"><a xlink:href="structelc_1_1defs_1_1core_1_1node__like.html" target="_top" xlink:title=" ">
<polygon fill="white" stroke="#666666" points="310,-67.5 185,-67.5 185,-48.5 310,-48.5 310,-67.5"/>
<text text-anchor="middle" x="247.5" y="-55.5" font-family="Helvetica,sans-Serif" font-size="10.00">elc::defs::core::node_like</text>
</a>
</g>
</g>
<!-- Node3&#45;&gt;Node2 -->
<g id="edge2" class="edge">
<title>Node3&#45;&gt;Node2</title>
<path fill="none" stroke="#63b8ff" d="M320.46,-47.38C329.07,-46.1 337.72,-44.83 345.97,-43.61"/>
<polygon fill="#63b8ff" stroke="#63b8ff" points="319.78,-43.94 310.39,-48.86 320.8,-50.86 319.78,-43.94"/>
</g>
<!-- Node4 -->
<g id="node4" class="node">
<title>Node4</title>
<g id="a_node4"><a xlink:title=" ">
<polygon fill="white" stroke="#666666" points="149,-89.5 0,-89.5 0,-26.5 149,-26.5 149,-89.5"/>
<text text-anchor="start" x="8" y="-77.5" font-family="Helvetica,sans-Serif" font-size="10.00">type_info_t&lt; node_like</text>
<text text-anchor="middle" x="74.5" y="-66.5" font-family="Helvetica,sans-Serif" font-size="10.00"> &gt;:: template </text>
<text text-anchor="start" x="8" y="-55.5" font-family="Helvetica,sans-Serif" font-size="10.00">	with_common_attribute</text>
<text text-anchor="start" x="8" y="-44.5" font-family="Helvetica,sans-Serif" font-size="10.00">&lt; abstract_base, weak_ref</text>
<text text-anchor="middle" x="74.5" y="-33.5" font-family="Helvetica,sans-Serif" font-size="10.00">_able, replace_able, ref_able &gt;</text>
</a>
</g>
</g>
<!-- Node4&#45;&gt;Node3 -->
<g id="edge3" class="edge">
<title>Node4&#45;&gt;Node3</title>
<path fill="none" stroke="#63b8ff" d="M159.15,-58C167.81,-58 176.5,-58 184.86,-58"/>
<polygon fill="#63b8ff" stroke="#63b8ff" points="159.01,-54.5 149.01,-58 159.01,-61.5 159.01,-54.5"/>
</g>
<!-- Node5 -->
<g id="node5" class="node">
<title>Node5</title>
<g id="a_node5"><a xlink:title=" ">
<polygon fill="white" stroke="#666666" points="304,-30 191,-30 191,0 304,0 304,-30"/>
<text text-anchor="start" x="199" y="-18" font-family="Helvetica,sans-Serif" font-size="10.00">instance_struct&lt; base</text>
<text text-anchor="middle" x="247.5" y="-7" font-family="Helvetica,sans-Serif" font-size="10.00">_constexpr_t &gt;</text>
</a>
</g>
</g>
<!-- Node5&#45;&gt;Node2 -->
<g id="edge4" class="edge">
<title>Node5&#45;&gt;Node2</title>
<path fill="none" stroke="#63b8ff" d="M314.37,-24.28C324.87,-25.76 335.6,-27.28 345.71,-28.7"/>
<polygon fill="#63b8ff" stroke="#63b8ff" points="314.8,-20.81 304.41,-22.88 313.82,-27.74 314.8,-20.81"/>
</g>
</g>
</svg>
