<?xml version="1.0" encoding="UTF-8" standalone="no"?>
<!DOCTYPE svg PUBLIC "-//W3C//DTD SVG 1.1//EN"
 "http://www.w3.org/Graphics/SVG/1.1/DTD/svg11.dtd">
<!-- Generated by graphviz version 6.0.1 (20220911.1526)
 -->
<!-- Title: elc::defs::base::non_move_assign_able Pages: 1 -->
<!--zoomable 457 -->
<svg id="main" version="1.1" xmlns="http://www.w3.org/2000/svg" xmlns:xlink="http://www.w3.org/1999/xlink" xml:space="preserve" onload="init(evt)">
<style type="text/css"><![CDATA[
.edge:hover path { stroke: red; }
.edge:hover polygon { stroke: red; fill: red; }
]]></style>
<script type="text/javascript"><![CDATA[
var edges = document.getElementsByTagName('g');
if (edges && edges.length) {
  for (var i=0;i<edges.length;i++) {
    if (edges[i].id.substr(0,4)=='edge') {
      edges[i].setAttribute('class','edge');
    }
  }
}
]]></script>
        <defs>
                <circle id="rim" cx="0" cy="0" r="7"/>
                <circle id="rim2" cx="0" cy="0" r="3.5"/>
                <g id="zoomPlus">
                        <use xlink:href="#rim" fill="#404040">
                                <set attributeName="fill" to="#808080" begin="zoomplus.mouseover" end="zoomplus.mouseout"/>
                        </use>
                        <path d="M-4,0h8M0,-4v8" fill="none" stroke="white" stroke-width="1.5" pointer-events="none"/>
                </g>
                <g id="zoomMin">
                        <use xlink:href="#rim" fill="#404040">
                                <set attributeName="fill" to="#808080" begin="zoomminus.mouseover" end="zoomminus.mouseout"/>
                        </use>
                        <path d="M-4,0h8" fill="none" stroke="white" stroke-width="1.5" pointer-events="none"/>
                </g>
                <g id="dirArrow">
                        <path fill="none" stroke="white" stroke-width="1.5" d="M0,-3.0v7 M-2.5,-0.5L0,-3.0L2.5,-0.5"/>
                </g>
               <g id="resetDef">
                       <use xlink:href="#rim2" fill="#404040">
                               <set attributeName="fill" to="#808080" begin="reset.mouseover" end="reset.mouseout"/>
                       </use>
               </g>
        </defs>

<script type="text/javascript">
var viewWidth = 601;
var viewHeight = 457;
var sectionId = 'dynsection-0';
</script>
<script xlink:href="svgpan.js"/>
<svg id="graph" class="graph">
<g id="viewport">
<title>elc::defs::base::non_move_assign_able</title>
<!-- Node1 -->
<g id="node1" class="node">
<title>Node1</title>
<g id="a_node1"><a xlink:title="禁止移动赋值">
<polygon fill="#999999" stroke="#666666" points="102,-268.5 0,-268.5 0,-238.5 102,-238.5 102,-268.5"/>
<text text-anchor="start" x="8" y="-256.5" font-family="Helvetica,sans-Serif" font-size="10.00">elc::defs::base::non</text>
<text text-anchor="middle" x="51" y="-245.5" font-family="Helvetica,sans-Serif" font-size="10.00">_move_assign_able</text>
</a>
</g>
</g>
<!-- Node2 -->
<g id="node2" class="node">
<title>Node2</title>
<g id="a_node2"><a xlink:href="structelc_1_1defs_1_1base_1_1non__default__assign__able.html" target="_top" xlink:title="禁止默认合成的赋值">
<polygon fill="white" stroke="#666666" points="245,-292.5 138,-292.5 138,-262.5 245,-262.5 245,-292.5"/>
<text text-anchor="start" x="146" y="-280.5" font-family="Helvetica,sans-Serif" font-size="10.00">elc::defs::base::non</text>
<text text-anchor="middle" x="191.5" y="-269.5" font-family="Helvetica,sans-Serif" font-size="10.00">_default_assign_able</text>
</a>
</g>
</g>
<!-- Node1&#45;&gt;Node2 -->
<g id="edge1" class="edge">
<title>Node1&#45;&gt;Node2</title>
<path fill="none" stroke="#63b8ff" d="M111.96,-263.89C120.55,-265.38 129.33,-266.9 137.77,-268.36"/>
<polygon fill="#63b8ff" stroke="#63b8ff" points="112.45,-260.42 102,-262.16 111.26,-267.32 112.45,-260.42"/>
</g>
<!-- Node3 -->
<g id="node3" class="node">
<title>Node3</title>
<g id="a_node3"><a xlink:href="structelc_1_1defs_1_1base_1_1non__moveable.html" target="_top" xlink:title="禁止默认合成的移动">
<polygon fill="white" stroke="#666666" points="242.5,-244.5 140.5,-244.5 140.5,-214.5 242.5,-214.5 242.5,-244.5"/>
<text text-anchor="start" x="148.5" y="-232.5" font-family="Helvetica,sans-Serif" font-size="10.00">elc::defs::base::non</text>
<text text-anchor="middle" x="191.5" y="-221.5" font-family="Helvetica,sans-Serif" font-size="10.00">_moveable</text>
</a>
</g>
</g>
<!-- Node1&#45;&gt;Node3 -->
<g id="edge2" class="edge">
<title>Node1&#45;&gt;Node3</title>
<path fill="none" stroke="#63b8ff" d="M112.04,-243.1C121.4,-241.47 130.99,-239.81 140.11,-238.23"/>
<polygon fill="#63b8ff" stroke="#63b8ff" points="111.26,-239.68 102,-244.84 112.45,-246.58 111.26,-239.68"/>
</g>
<!-- Node4 -->
<g id="node4" class="node">
<title>Node4</title>
<g id="a_node4"><a xlink:href="structelc_1_1defs_1_1base_1_1cons__t.html" target="_top" xlink:title=" ">
<polygon fill="white" stroke="#666666" points="410.5,-448.5 289.5,-448.5 289.5,-418.5 410.5,-418.5 410.5,-448.5"/>
<text text-anchor="start" x="297.5" y="-436.5" font-family="Helvetica,sans-Serif" font-size="10.00">elc::defs::base::cons</text>
<text text-anchor="middle" x="350" y="-425.5" font-family="Helvetica,sans-Serif" font-size="10.00">_t&lt; can_map_all&lt; T &gt; &gt;</text>
</a>
</g>
</g>
<!-- Node3&#45;&gt;Node4 -->
<g id="edge3" class="edge">
<title>Node3&#45;&gt;Node4</title>
<path fill="none" stroke="#63b8ff" d="M242.8,-251.02C243.57,-251.82 244.3,-252.65 245,-253.5 289.99,-308.63 233.59,-356.44 281,-409.5 284.09,-412.95 287.7,-415.91 291.63,-418.44"/>
<polygon fill="#63b8ff" stroke="#63b8ff" points="245.05,-248.34 235.14,-244.59 240.55,-253.7 245.05,-248.34"/>
</g>
<!-- Node6 -->
<g id="node6" class="node">
<title>Node6</title>
<g id="a_node6"><a xlink:href="structelc_1_1defs_1_1base_1_1cons__t.html" target="_top" xlink:title=" ">
<polygon fill="white" stroke="#666666" points="415,-400 285,-400 285,-359 415,-359 415,-400"/>
<text text-anchor="start" x="293" y="-388" font-family="Helvetica,sans-Serif" font-size="10.00">elc::defs::base::cons</text>
<text text-anchor="start" x="293" y="-377" font-family="Helvetica,sans-Serif" font-size="10.00">_t&lt; elc::defs::memory</text>
<text text-anchor="middle" x="350" y="-366" font-family="Helvetica,sans-Serif" font-size="10.00">::others_n::can_map_all &gt;</text>
</a>
</g>
</g>
<!-- Node3&#45;&gt;Node6 -->
<g id="edge5" class="edge">
<title>Node3&#45;&gt;Node6</title>
<path fill="none" stroke="#63b8ff" d="M242.22,-250.76C243.19,-251.64 244.12,-252.55 245,-253.5 276.07,-286.83 249.71,-316.38 281,-349.5 284.28,-352.97 288.03,-356.06 292.05,-358.82"/>
<polygon fill="#63b8ff" stroke="#63b8ff" points="244.26,-247.91 234.18,-244.65 240.02,-253.48 244.26,-247.91"/>
</g>
<!-- Node7 -->
<g id="node7" class="node">
<title>Node7</title>
<g id="a_node7"><a xlink:href="structelc_1_1defs_1_1base_1_1cons__t.html" target="_top" xlink:title=" ">
<polygon fill="white" stroke="#666666" points="403.5,-340.5 296.5,-340.5 296.5,-310.5 403.5,-310.5 403.5,-340.5"/>
<text text-anchor="start" x="304.5" y="-328.5" font-family="Helvetica,sans-Serif" font-size="10.00">elc::defs::base::cons</text>
<text text-anchor="middle" x="350" y="-317.5" font-family="Helvetica,sans-Serif" font-size="10.00">_t&lt; T &gt;</text>
</a>
</g>
</g>
<!-- Node3&#45;&gt;Node7 -->
<g id="edge6" class="edge">
<title>Node3&#45;&gt;Node7</title>
<path fill="none" stroke="#63b8ff" d="M240.14,-249.9C241.82,-251.05 243.45,-252.25 245,-253.5 265.77,-270.23 259.5,-285.72 281,-301.5 285.64,-304.91 290.81,-307.87 296.17,-310.43"/>
<polygon fill="#63b8ff" stroke="#63b8ff" points="241.74,-246.77 231.38,-244.55 238.09,-252.75 241.74,-246.77"/>
</g>
<!-- Node8 -->
<g id="node8" class="node">
<title>Node8</title>
<g id="a_node8"><a xlink:href="structelc_1_1defs_1_1base_1_1data__block.html" target="_top" xlink:title=" ">
<polygon fill="white" stroke="#666666" points="402.5,-292.5 297.5,-292.5 297.5,-262.5 402.5,-262.5 402.5,-292.5"/>
<text text-anchor="start" x="305.5" y="-280.5" font-family="Helvetica,sans-Serif" font-size="10.00">elc::defs::base::data</text>
<text text-anchor="middle" x="350" y="-269.5" font-family="Helvetica,sans-Serif" font-size="10.00">_block&lt; Ts &gt;</text>
</a>
</g>
</g>
<!-- Node3&#45;&gt;Node8 -->
<g id="edge7" class="edge">
<title>Node3&#45;&gt;Node8</title>
<path fill="none" stroke="#63b8ff" d="M251.4,-247.57C267.45,-252.49 284.66,-257.77 300.09,-262.5"/>
<polygon fill="#63b8ff" stroke="#63b8ff" points="252.17,-244.14 241.59,-244.56 250.12,-250.83 252.17,-244.14"/>
</g>
<!-- Node9 -->
<g id="node9" class="node">
<title>Node9</title>
<g id="a_node9"><a xlink:href="classelc_1_1defs_1_1base_1_1mark__able.html" target="_top" xlink:title=" ">
<polygon fill="white" stroke="#666666" points="404,-244.5 296,-244.5 296,-214.5 404,-214.5 404,-244.5"/>
<text text-anchor="start" x="304" y="-232.5" font-family="Helvetica,sans-Serif" font-size="10.00">elc::defs::base::mark</text>
<text text-anchor="middle" x="350" y="-221.5" font-family="Helvetica,sans-Serif" font-size="10.00">_able&lt; T &gt;</text>
</a>
</g>
</g>
<!-- Node3&#45;&gt;Node9 -->
<g id="edge8" class="edge">
<title>Node3&#45;&gt;Node9</title>
<path fill="none" stroke="#8b1a1a" d="M252.97,-229.5C267.07,-229.5 281.99,-229.5 295.75,-229.5"/>
<polygon fill="#8b1a1a" stroke="#8b1a1a" points="252.88,-226 242.88,-229.5 252.88,-233 252.88,-226"/>
</g>
<!-- Node11 -->
<g id="node11" class="node">
<title>Node11</title>
<g id="a_node11"><a xlink:href="structelc_1_1defs_1_1memory_1_1others__n_1_1replace__able.html" target="_top" xlink:title=" ">
<polygon fill="white" stroke="#666666" points="419,-196.5 281,-196.5 281,-166.5 419,-166.5 419,-196.5"/>
<text text-anchor="start" x="289" y="-184.5" font-family="Helvetica,sans-Serif" font-size="10.00">elc::defs::memory::</text>
<text text-anchor="middle" x="350" y="-173.5" font-family="Helvetica,sans-Serif" font-size="10.00">others_n::replace_able&lt; T &gt;</text>
</a>
</g>
</g>
<!-- Node3&#45;&gt;Node11 -->
<g id="edge10" class="edge">
<title>Node3&#45;&gt;Node11</title>
<path fill="none" stroke="#63b8ff" d="M251.4,-211.43C267.45,-206.51 284.66,-201.23 300.09,-196.5"/>
<polygon fill="#63b8ff" stroke="#63b8ff" points="250.12,-208.17 241.59,-214.44 252.17,-214.86 250.12,-208.17"/>
</g>
<!-- Node12 -->
<g id="node12" class="node">
<title>Node12</title>
<g id="a_node12"><a xlink:href="classelc_1_1defs_1_1memory_1_1ptr__n_1_1ref__t.html" target="_top" xlink:title=" ">
<polygon fill="white" stroke="#666666" points="400.5,-148.5 299.5,-148.5 299.5,-118.5 400.5,-118.5 400.5,-148.5"/>
<text text-anchor="start" x="307.5" y="-136.5" font-family="Helvetica,sans-Serif" font-size="10.00">elc::defs::memory::</text>
<text text-anchor="middle" x="350" y="-125.5" font-family="Helvetica,sans-Serif" font-size="10.00">ptr_n::ref_t</text>
</a>
</g>
</g>
<!-- Node3&#45;&gt;Node12 -->
<g id="edge11" class="edge">
<title>Node3&#45;&gt;Node12</title>
<path fill="none" stroke="#8b1a1a" d="M215.31,-207.22C232.29,-191.6 256.65,-171.16 281,-157.5 286.9,-154.19 293.33,-151.21 299.81,-148.57"/>
<polygon fill="#8b1a1a" stroke="#8b1a1a" points="212.5,-205.05 207.6,-214.44 217.29,-210.16 212.5,-205.05"/>
</g>
<!-- Node15 -->
<g id="node15" class="node">
<title>Node15</title>
<g id="a_node15"><a xlink:href="classelc_1_1defs_1_1string__n_1_1string__t_1_1arec__t.html" target="_top" xlink:title=" ">
<polygon fill="white" stroke="#666666" points="401,-100 299,-100 299,-59 401,-59 401,-100"/>
<text text-anchor="start" x="307" y="-88" font-family="Helvetica,sans-Serif" font-size="10.00">elc::defs::string_n</text>
<text text-anchor="start" x="307" y="-77" font-family="Helvetica,sans-Serif" font-size="10.00">::string_t&lt; char_T &gt;</text>
<text text-anchor="middle" x="350" y="-66" font-family="Helvetica,sans-Serif" font-size="10.00">::arec_t</text>
</a>
</g>
</g>
<!-- Node3&#45;&gt;Node15 -->
<g id="edge14" class="edge">
<title>Node3&#45;&gt;Node15</title>
<path fill="none" stroke="#8b1a1a" d="M205.28,-205.23C220.32,-178.67 247.53,-136.31 281,-109.5 286.44,-105.14 292.61,-101.29 298.96,-97.92"/>
<polygon fill="#8b1a1a" stroke="#8b1a1a" points="202.08,-203.8 200.3,-214.24 208.2,-207.18 202.08,-203.8"/>
</g>
<!-- Node16 -->
<g id="node16" class="node">
<title>Node16</title>
<g id="a_node16"><a xlink:href="classelc_1_1defs_1_1string__n_1_1string__t_1_1floating__arec__t.html" target="_top" xlink:title=" ">
<polygon fill="white" stroke="#666666" points="401,-41 299,-41 299,0 401,0 401,-41"/>
<text text-anchor="start" x="307" y="-29" font-family="Helvetica,sans-Serif" font-size="10.00">elc::defs::string_n</text>
<text text-anchor="start" x="307" y="-18" font-family="Helvetica,sans-Serif" font-size="10.00">::string_t&lt; char_T &gt;</text>
<text text-anchor="middle" x="350" y="-7" font-family="Helvetica,sans-Serif" font-size="10.00">::floating_arec_t</text>
</a>
</g>
</g>
<!-- Node3&#45;&gt;Node16 -->
<g id="edge15" class="edge">
<title>Node3&#45;&gt;Node16</title>
<path fill="none" stroke="#8b1a1a" d="M198.73,-204.51C209.45,-166.33 234.79,-93.29 281,-49.5 286.22,-44.56 292.41,-40.39 298.89,-36.89"/>
<polygon fill="#8b1a1a" stroke="#8b1a1a" points="195.32,-203.74 196.09,-214.31 202.08,-205.56 195.32,-203.74"/>
</g>
<!-- Node5 -->
<g id="node5" class="node">
<title>Node5</title>
<g id="a_node5"><a xlink:href="structelc_1_1defs_1_1memory_1_1others__n_1_1can__map__all.html" target="_top" xlink:title=" ">
<polygon fill="white" stroke="#666666" points="593,-448.5 455,-448.5 455,-418.5 593,-418.5 593,-448.5"/>
<text text-anchor="start" x="463" y="-436.5" font-family="Helvetica,sans-Serif" font-size="10.00">elc::defs::memory::</text>
<text text-anchor="middle" x="524" y="-425.5" font-family="Helvetica,sans-Serif" font-size="10.00">others_n::can_map_all&lt; T &gt;</text>
</a>
</g>
</g>
<!-- Node4&#45;&gt;Node5 -->
<g id="edge4" class="edge">
<title>Node4&#45;&gt;Node5</title>
<path fill="none" stroke="#63b8ff" d="M420.86,-433.5C432.08,-433.5 443.69,-433.5 454.88,-433.5"/>
<polygon fill="#63b8ff" stroke="#63b8ff" points="420.67,-430 410.67,-433.5 420.67,-437 420.67,-430"/>
</g>
<!-- Node10 -->
<g id="node10" class="node">
<title>Node10</title>
<g id="a_node10"><a xlink:href="structelc_1_1defs_1_1memory_1_1gc__n_1_1mark__able__for__gc.html" target="_top" xlink:title=" ">
<polygon fill="white" stroke="#666666" points="576,-250 472,-250 472,-209 576,-209 576,-250"/>
<text text-anchor="start" x="480" y="-238" font-family="Helvetica,sans-Serif" font-size="10.00">elc::defs::memory::</text>
<text text-anchor="start" x="480" y="-227" font-family="Helvetica,sans-Serif" font-size="10.00">gc_n::mark_able_for</text>
<text text-anchor="middle" x="524" y="-216" font-family="Helvetica,sans-Serif" font-size="10.00">_gc&lt; T &gt;</text>
</a>
</g>
</g>
<!-- Node9&#45;&gt;Node10 -->
<g id="edge9" class="edge">
<title>Node9&#45;&gt;Node10</title>
<path fill="none" stroke="#63b8ff" d="M414.09,-229.5C433.13,-229.5 453.78,-229.5 471.93,-229.5"/>
<polygon fill="#63b8ff" stroke="#63b8ff" points="414.01,-226 404.01,-229.5 414.01,-233 414.01,-226"/>
</g>
<!-- Node13 -->
<g id="node13" class="node">
<title>Node13</title>
<g id="a_node13"><a xlink:href="classelc_1_1defs_1_1memory_1_1ptr__n_1_1ref__able.html" target="_top" xlink:title=" ">
<polygon fill="white" stroke="#666666" points="574.5,-169.5 473.5,-169.5 473.5,-139.5 574.5,-139.5 574.5,-169.5"/>
<text text-anchor="start" x="481.5" y="-157.5" font-family="Helvetica,sans-Serif" font-size="10.00">elc::defs::memory::</text>
<text text-anchor="middle" x="524" y="-146.5" font-family="Helvetica,sans-Serif" font-size="10.00">ptr_n::ref_able&lt; T &gt;</text>
</a>
</g>
</g>
<!-- Node12&#45;&gt;Node13 -->
<g id="edge12" class="edge">
<title>Node12&#45;&gt;Node13</title>
<path fill="none" stroke="#63b8ff" d="M410.88,-140.81C431.28,-143.3 453.85,-146.06 473.36,-148.44"/>
<polygon fill="#63b8ff" stroke="#63b8ff" points="411.1,-137.31 400.75,-139.57 410.25,-144.26 411.1,-137.31"/>
</g>
<!-- Node14 -->
<g id="node14" class="node">
<title>Node14</title>
<g id="a_node14"><a xlink:href="classelc_1_1defs_1_1memory_1_1ptr__n_1_1weak__ref__able.html" target="_top" xlink:title=" ">
<polygon fill="white" stroke="#666666" points="588.5,-121.5 459.5,-121.5 459.5,-91.5 588.5,-91.5 588.5,-121.5"/>
<text text-anchor="start" x="467.5" y="-109.5" font-family="Helvetica,sans-Serif" font-size="10.00">elc::defs::memory::</text>
<text text-anchor="middle" x="524" y="-98.5" font-family="Helvetica,sans-Serif" font-size="10.00">ptr_n::weak_ref_able&lt; T &gt;</text>
</a>
</g>
</g>
<!-- Node12&#45;&gt;Node14 -->
<g id="edge13" class="edge">
<title>Node12&#45;&gt;Node14</title>
<path fill="none" stroke="#63b8ff" d="M410.82,-124.11C426.47,-121.65 443.4,-119 459.24,-116.51"/>
<polygon fill="#63b8ff" stroke="#63b8ff" points="410.09,-120.68 400.75,-125.69 411.17,-127.6 410.09,-120.68"/>
</g>
</g>
</svg>
        <g id="navigator" transform="translate(0 0)" fill="#404254">
                <rect fill="#f2f5e9" fill-opacity="0.5" stroke="#606060" stroke-width=".5" x="0" y="0" width="60" height="60"/>
                <use id="zoomplus" xlink:href="#zoomPlus" x="17" y="9" onmousedown="handleZoom(evt,'in')"/>
                <use id="zoomminus" xlink:href="#zoomMin" x="42" y="9" onmousedown="handleZoom(evt,'out')"/>
                <use id="reset" xlink:href="#resetDef" x="30" y="36" onmousedown="handleReset()"/>
                <g id="arrowUp" xlink:href="#dirArrow" transform="translate(30 24)" onmousedown="handlePan(0,-1)">
                  <use xlink:href="#rim" fill="#404040">
                        <set attributeName="fill" to="#808080" begin="arrowUp.mouseover" end="arrowUp.mouseout"/>
                  </use>
                  <path fill="none" stroke="white" stroke-width="1.5" d="M0,-3.0v7 M-2.5,-0.5L0,-3.0L2.5,-0.5"/>
                </g>
                <g id="arrowRight" xlink:href="#dirArrow" transform="rotate(90) translate(36 -43)" onmousedown="handlePan(1,0)">
                  <use xlink:href="#rim" fill="#404040">
                        <set attributeName="fill" to="#808080" begin="arrowRight.mouseover" end="arrowRight.mouseout"/>
                  </use>
                  <path fill="none" stroke="white" stroke-width="1.5" d="M0,-3.0v7 M-2.5,-0.5L0,-3.0L2.5,-0.5"/>
                </g>
                <g id="arrowDown" xlink:href="#dirArrow" transform="rotate(180) translate(-30 -48)" onmousedown="handlePan(0,1)">
                  <use xlink:href="#rim" fill="#404040">
                        <set attributeName="fill" to="#808080" begin="arrowDown.mouseover" end="arrowDown.mouseout"/>
                  </use>
                  <path fill="none" stroke="white" stroke-width="1.5" d="M0,-3.0v7 M-2.5,-0.5L0,-3.0L2.5,-0.5"/>
                </g>
                <g id="arrowLeft" xlink:href="#dirArrow" transform="rotate(270) translate(-36 17)" onmousedown="handlePan(-1,0)">
                  <use xlink:href="#rim" fill="#404040">
                        <set attributeName="fill" to="#808080" begin="arrowLeft.mouseover" end="arrowLeft.mouseout"/>
                  </use>
                  <path fill="none" stroke="white" stroke-width="1.5" d="M0,-3.0v7 M-2.5,-0.5L0,-3.0L2.5,-0.5"/>
                </g>
        </g>
        <svg viewBox="0 0 15 15" width="100%" height="30px" preserveAspectRatio="xMaxYMin meet">
         <g id="arrow_out" transform="scale(0.3 0.3)">
          <a xlink:href="structelc_1_1defs_1_1base_1_1non__move__assign__able__inherit__graph_org.svg" target="_base">
           <rect id="button" ry="5" rx="5" y="6" x="6" height="38" width="38"
                fill="#f2f5e9" fill-opacity="0.5" stroke="#606060" stroke-width="1.0"/>
           <path id="arrow"
             d="M 11.500037,31.436501 C 11.940474,20.09759 22.043105,11.32322 32.158766,21.979434 L 37.068811,17.246167 C 37.068811,17.246167 37.088388,32 37.088388,32 L 22.160133,31.978069 C 22.160133,31.978069 26.997745,27.140456 26.997745,27.140456 C 18.528582,18.264221 13.291696,25.230495 11.500037,31.436501 z"
             style="fill:#404040;"/>
          </a>
         </g>
        </svg>
</svg>
