<?xml version="1.0" encoding="UTF-8" standalone="no"?>
<!DOCTYPE svg PUBLIC "-//W3C//DTD SVG 1.1//EN"
 "http://www.w3.org/Graphics/SVG/1.1/DTD/svg11.dtd">
<!-- Generated by graphviz version 6.0.1 (20220911.1526)
 -->
<!-- Title: elc::defs::memory::get_n::get_resize_t::base_call Pages: 1 -->
<svg width="261pt" height="122pt"
 viewBox="0.00 0.00 261.00 122.00" xmlns="http://www.w3.org/2000/svg" xmlns:xlink="http://www.w3.org/1999/xlink">
<g id="graph0" class="graph" transform="scale(1 1) rotate(0) translate(4 118)">
<title>elc::defs::memory::get_n::get_resize_t::base_call</title>
<!-- Node1 -->
<g id="node1" class="node">
<title>Node1</title>
<g id="a_node1"><a xlink:title=" ">
<polygon fill="#999999" stroke="#666666" points="101,-68.5 0,-68.5 0,-27.5 101,-27.5 101,-68.5"/>
<text text-anchor="start" x="8" y="-56.5" font-family="Helvetica,sans-Serif" font-size="10.00">elc::defs::memory::</text>
<text text-anchor="start" x="8" y="-45.5" font-family="Helvetica,sans-Serif" font-size="10.00">get_n::get_resize_t</text>
<text text-anchor="middle" x="50.5" y="-34.5" font-family="Helvetica,sans-Serif" font-size="10.00">::base_call</text>
</a>
</g>
</g>
<!-- Node2 -->
<g id="node2" class="node">
<title>Node2</title>
<g id="a_node2"><a xlink:href="namespaceelc_1_1defs_1_1memory_1_1get__n.html#aad566c4cd179e4b1465bb3a5aaaa5040" target="_top" xlink:title="向后减小数据块大小并转移原有实例的生命周期，但并不析构旧的实例">
<polygon fill="white" stroke="#666666" points="249.5,-96 140.5,-96 140.5,-66 249.5,-66 249.5,-96"/>
<text text-anchor="start" x="148.5" y="-84" font-family="Helvetica,sans-Serif" font-size="10.00">elc::defs::memory::</text>
<text text-anchor="middle" x="195" y="-73" font-family="Helvetica,sans-Serif" font-size="10.00">get_n::alloc_size_cut</text>
</a>
</g>
</g>
<!-- Node1&#45;&gt;Node2 -->
<g id="edge1" class="edge">
<title>Node1&#45;&gt;Node2</title>
<path fill="none" stroke="#63b8ff" d="M101.34,-59.54C110.63,-61.69 120.46,-63.97 130.11,-66.2"/>
<polygon fill="#63b8ff" stroke="#63b8ff" points="129.53,-69.66 140.06,-68.51 131.11,-62.84 129.53,-69.66"/>
</g>
<!-- Node3 -->
<g id="node3" class="node">
<title>Node3</title>
<g id="a_node3"><a xlink:href="namespaceelc_1_1defs_1_1memory_1_1get__n.html#ad49cc084ba94f390f481ce8691f972c4" target="_top" xlink:title="向后扩大数据块大小并转移原有实例的生命周期，但并不构造新的实例">
<polygon fill="white" stroke="#666666" points="253,-30 137,-30 137,0 253,0 253,-30"/>
<text text-anchor="start" x="145" y="-18" font-family="Helvetica,sans-Serif" font-size="10.00">elc::defs::memory::</text>
<text text-anchor="middle" x="195" y="-7" font-family="Helvetica,sans-Serif" font-size="10.00">get_n::alloc_size_grow</text>
</a>
</g>
</g>
<!-- Node1&#45;&gt;Node3 -->
<g id="edge3" class="edge">
<title>Node1&#45;&gt;Node3</title>
<path fill="none" stroke="#63b8ff" d="M101.34,-36.46C109.53,-34.56 118.14,-32.57 126.67,-30.59"/>
<polygon fill="#63b8ff" stroke="#63b8ff" points="127.67,-33.95 136.62,-28.29 126.09,-27.13 127.67,-33.95"/>
</g>
<!-- Node2&#45;&gt;Node2 -->
<g id="edge2" class="edge">
<title>Node2&#45;&gt;Node2</title>
<path fill="none" stroke="#63b8ff" d="M169.6,-96.28C163.96,-105.41 172.42,-114 195,-114 208.41,-114 216.84,-110.97 220.29,-106.6"/>
<polygon fill="#63b8ff" stroke="#63b8ff" points="223.8,-106.31 220.4,-96.28 216.8,-106.24 223.8,-106.31"/>
</g>
<!-- Node3&#45;&gt;Node3 -->
<g id="edge4" class="edge">
<title>Node3&#45;&gt;Node3</title>
<path fill="none" stroke="#63b8ff" d="M169.6,-30.28C163.96,-39.41 172.42,-48 195,-48 208.41,-48 216.84,-44.97 220.29,-40.6"/>
<polygon fill="#63b8ff" stroke="#63b8ff" points="223.8,-40.31 220.4,-30.28 216.8,-40.24 223.8,-40.31"/>
</g>
</g>
</svg>
