<?xml version="1.0" encoding="UTF-8" standalone="no"?>
<!DOCTYPE svg PUBLIC "-//W3C//DTD SVG 1.1//EN"
 "http://www.w3.org/Graphics/SVG/1.1/DTD/svg11.dtd">
<!-- Generated by graphviz version 6.0.1 (20220911.1526)
 -->
<!-- Title: elc::defs::string_n::string_t::starts_with Pages: 1 -->
<svg width="246pt" height="86pt"
 viewBox="0.00 0.00 246.00 86.00" xmlns="http://www.w3.org/2000/svg" xmlns:xlink="http://www.w3.org/1999/xlink">
<g id="graph0" class="graph" transform="scale(1 1) rotate(0) translate(4 82)">
<title>elc::defs::string_n::string_t::starts_with</title>
<!-- Node1 -->
<g id="node1" class="node">
<title>Node1</title>
<g id="a_node1"><a xlink:title=" ">
<polygon fill="#999999" stroke="#666666" points="108,-54 0,-54 0,-24 108,-24 108,-54"/>
<text text-anchor="start" x="8" y="-42" font-family="Helvetica,sans-Serif" font-size="10.00">elc::defs::string_n</text>
<text text-anchor="middle" x="54" y="-31" font-family="Helvetica,sans-Serif" font-size="10.00">::string_t::starts_with</text>
</a>
</g>
</g>
<!-- Node2 -->
<g id="node2" class="node">
<title>Node2</title>
<g id="a_node2"><a xlink:href="structelc_1_1defs_1_1string__n_1_1string__t.html#a0e8ed3f8eb3c1ca049b494100580fa5c" target="_top" xlink:title=" ">
<polygon fill="white" stroke="#666666" points="238,-78 144,-78 144,-48 238,-48 238,-78"/>
<text text-anchor="start" x="152" y="-66" font-family="Helvetica,sans-Serif" font-size="10.00">elc::defs::string_n</text>
<text text-anchor="middle" x="191" y="-55" font-family="Helvetica,sans-Serif" font-size="10.00">::string_t::size</text>
</a>
</g>
</g>
<!-- Node1&#45;&gt;Node2 -->
<g id="edge1" class="edge">
<title>Node1&#45;&gt;Node2</title>
<path fill="none" stroke="#63b8ff" d="M108.36,-48.49C116.63,-49.96 125.21,-51.48 133.55,-52.97"/>
<polygon fill="#63b8ff" stroke="#63b8ff" points="133.12,-56.44 143.58,-54.75 134.35,-49.55 133.12,-56.44"/>
</g>
<!-- Node3 -->
<g id="node3" class="node">
<title>Node3</title>
<g id="a_node3"><a xlink:href="structelc_1_1defs_1_1string__n_1_1string__t.html#ab41009894f11bf1a5e0c0602c92b0c38" target="_top" xlink:title=" ">
<polygon fill="white" stroke="#666666" points="238,-30 144,-30 144,0 238,0 238,-30"/>
<text text-anchor="start" x="152" y="-18" font-family="Helvetica,sans-Serif" font-size="10.00">elc::defs::string_n</text>
<text text-anchor="middle" x="191" y="-7" font-family="Helvetica,sans-Serif" font-size="10.00">::string_t::substr</text>
</a>
</g>
</g>
<!-- Node1&#45;&gt;Node3 -->
<g id="edge2" class="edge">
<title>Node1&#45;&gt;Node3</title>
<path fill="none" stroke="#63b8ff" d="M108.36,-29.51C116.63,-28.04 125.21,-26.52 133.55,-25.03"/>
<polygon fill="#63b8ff" stroke="#63b8ff" points="134.35,-28.45 143.58,-23.25 133.12,-21.56 134.35,-28.45"/>
</g>
</g>
</svg>
