<?xml version="1.0" encoding="UTF-8" standalone="no"?>
<!DOCTYPE svg PUBLIC "-//W3C//DTD SVG 1.1//EN"
 "http://www.w3.org/Graphics/SVG/1.1/DTD/svg11.dtd">
<!-- Generated by graphviz version 6.0.1 (20220911.1526)
 -->
<!-- Title: elc::defs::memory::ptr_n::base_ptr_t&lt; T, ref_type, do_replace_check &gt; Pages: 1 -->
<svg width="142pt" height="280pt"
 viewBox="0.00 0.00 142.00 280.00" xmlns="http://www.w3.org/2000/svg" xmlns:xlink="http://www.w3.org/1999/xlink">
<g id="graph0" class="graph" transform="scale(1 1) rotate(0) translate(4 276)">
<title>elc::defs::memory::ptr_n::base_ptr_t&lt; T, ref_type, do_replace_check &gt;</title>
<!-- Node1 -->
<g id="node1" class="node">
<title>Node1</title>
<g id="a_node1"><a xlink:title=" ">
<polygon fill="#999999" stroke="#666666" points="120.5,-52 13.5,-52 13.5,0 120.5,0 120.5,-52"/>
<text text-anchor="start" x="21.5" y="-40" font-family="Helvetica,sans-Serif" font-size="10.00">elc::defs::memory::</text>
<text text-anchor="start" x="21.5" y="-29" font-family="Helvetica,sans-Serif" font-size="10.00">ptr_n::base_ptr_t&lt; T,</text>
<text text-anchor="start" x="21.5" y="-18" font-family="Helvetica,sans-Serif" font-size="10.00"> ref_type, do_replace</text>
<text text-anchor="middle" x="67" y="-7" font-family="Helvetica,sans-Serif" font-size="10.00">_check &gt;</text>
</a>
</g>
</g>
<!-- Node2 -->
<g id="node2" class="node">
<title>Node2</title>
<g id="a_node2"><a xlink:href="structelc_1_1defs_1_1memory_1_1ptr__n_1_1ptr__t.html" target="_top" xlink:title=" ">
<polygon fill="white" stroke="#666666" points="134,-129 0,-129 0,-88 134,-88 134,-129"/>
<text text-anchor="start" x="8" y="-117" font-family="Helvetica,sans-Serif" font-size="10.00">elc::defs::memory::</text>
<text text-anchor="start" x="8" y="-106" font-family="Helvetica,sans-Serif" font-size="10.00">ptr_n::ptr_t&lt; T, ref</text>
<text text-anchor="middle" x="67" y="-95" font-family="Helvetica,sans-Serif" font-size="10.00">_type, do_replace_check &gt;</text>
</a>
</g>
</g>
<!-- Node2&#45;&gt;Node1 -->
<g id="edge1" class="edge">
<title>Node2&#45;&gt;Node1</title>
<path fill="none" stroke="#63b8ff" d="M67,-77.49C67,-69.15 67,-60.19 67,-52.16"/>
<polygon fill="#63b8ff" stroke="#63b8ff" points="63.5,-77.6 67,-87.6 70.5,-77.6 63.5,-77.6"/>
</g>
<!-- Node3 -->
<g id="node3" class="node">
<title>Node3</title>
<g id="a_node3"><a xlink:href="structelc_1_1defs_1_1memory_1_1ptr__n_1_1same__ref__p__t.html" target="_top" xlink:title=" ">
<polygon fill="white" stroke="#666666" points="118.5,-206 15.5,-206 15.5,-165 118.5,-165 118.5,-206"/>
<text text-anchor="start" x="23.5" y="-194" font-family="Helvetica,sans-Serif" font-size="10.00">elc::defs::memory::</text>
<text text-anchor="start" x="23.5" y="-183" font-family="Helvetica,sans-Serif" font-size="10.00">ptr_n::same_ref_p_t</text>
<text text-anchor="middle" x="67" y="-172" font-family="Helvetica,sans-Serif" font-size="10.00">&lt; T, ref_type &gt;</text>
</a>
</g>
</g>
<!-- Node3&#45;&gt;Node2 -->
<g id="edge2" class="edge">
<title>Node3&#45;&gt;Node2</title>
<path fill="none" stroke="#63b8ff" d="M67,-154.69C67,-146.08 67,-136.9 67,-129.07"/>
<polygon fill="#63b8ff" stroke="#63b8ff" points="63.5,-154.79 67,-164.79 70.5,-154.79 63.5,-154.79"/>
</g>
<!-- Node4 -->
<g id="node4" class="node">
<title>Node4</title>
<g id="a_node4"><a xlink:href="structelc_1_1defs_1_1memory_1_1ptr__n_1_1same__ptr__p__t.html" target="_top" xlink:title=" ">
<polygon fill="white" stroke="#666666" points="130.5,-272 3.5,-272 3.5,-242 130.5,-242 130.5,-272"/>
<text text-anchor="start" x="11.5" y="-260" font-family="Helvetica,sans-Serif" font-size="10.00">elc::defs::memory::</text>
<text text-anchor="middle" x="67" y="-249" font-family="Helvetica,sans-Serif" font-size="10.00">ptr_n::same_ptr_p_t&lt; T &gt;</text>
</a>
</g>
</g>
<!-- Node4&#45;&gt;Node3 -->
<g id="edge3" class="edge">
<title>Node4&#45;&gt;Node3</title>
<path fill="none" stroke="#63b8ff" d="M67,-231.91C67,-223.47 67,-214.1 67,-206.07"/>
<polygon fill="#63b8ff" stroke="#63b8ff" points="63.5,-231.94 67,-241.94 70.5,-231.94 63.5,-231.94"/>
</g>
</g>
</svg>
