<?xml version="1.0" encoding="UTF-8" standalone="no"?>
<!DOCTYPE svg PUBLIC "-//W3C//DTD SVG 1.1//EN"
 "http://www.w3.org/Graphics/SVG/1.1/DTD/svg11.dtd">
<!-- Generated by graphviz version 6.0.1 (20220911.1526)
 -->
<!-- Title: elc::defs::core::node_like::clear Pages: 1 -->
<svg width="550pt" height="110pt"
 viewBox="0.00 0.00 550.00 110.00" xmlns="http://www.w3.org/2000/svg" xmlns:xlink="http://www.w3.org/1999/xlink">
<g id="graph0" class="graph" transform="scale(1 1) rotate(0) translate(4 106)">
<title>elc::defs::core::node_like::clear</title>
<!-- Node1 -->
<g id="node1" class="node">
<title>Node1</title>
<g id="a_node1"><a xlink:title=" ">
<polygon fill="#999999" stroke="#666666" points="542,-54 437,-54 437,-24 542,-24 542,-54"/>
<text text-anchor="start" x="445" y="-42" font-family="Helvetica,sans-Serif" font-size="10.00">elc::defs::core::node</text>
<text text-anchor="middle" x="489.5" y="-31" font-family="Helvetica,sans-Serif" font-size="10.00">_like::clear</text>
</a>
</g>
</g>
<!-- Node2 -->
<g id="node2" class="node">
<title>Node2</title>
<g id="a_node2"><a xlink:href="structelc_1_1defs_1_1core_1_1node__like.html#a772b69c7911dabdc464ae71efa6f6318" target="_top" xlink:title=" ">
<polygon fill="white" stroke="#666666" points="391,-78 285,-78 285,-48 391,-48 391,-78"/>
<text text-anchor="start" x="293" y="-66" font-family="Helvetica,sans-Serif" font-size="10.00">elc::defs::core::node</text>
<text text-anchor="middle" x="338" y="-55" font-family="Helvetica,sans-Serif" font-size="10.00">_like::be_replace_as</text>
</a>
</g>
</g>
<!-- Node1&#45;&gt;Node2 -->
<g id="edge1" class="edge">
<title>Node1&#45;&gt;Node2</title>
<path fill="none" stroke="#63b8ff" d="M426.43,-48.96C414.66,-50.85 402.45,-52.81 391.03,-54.65"/>
<polygon fill="#63b8ff" stroke="#63b8ff" points="427.31,-52.37 436.63,-47.33 426.2,-45.46 427.31,-52.37"/>
</g>
<!-- Node6 -->
<g id="node6" class="node">
<title>Node6</title>
<g id="a_node6"><a xlink:href="structelc_1_1defs_1_1core_1_1node__like.html#a50705de2ea129309608308532be12bc3" target="_top" xlink:title=" ">
<polygon fill="white" stroke="#666666" points="401,-30 275,-30 275,0 401,0 401,-30"/>
<text text-anchor="start" x="283" y="-18" font-family="Helvetica,sans-Serif" font-size="10.00">elc::defs::core::node</text>
<text text-anchor="middle" x="338" y="-7" font-family="Helvetica,sans-Serif" font-size="10.00">_like::waiting_for_destroy</text>
</a>
</g>
</g>
<!-- Node1&#45;&gt;Node6 -->
<g id="edge5" class="edge">
<title>Node1&#45;&gt;Node6</title>
<path fill="none" stroke="#63b8ff" d="M426.52,-29.05C418.11,-27.7 409.48,-26.31 401.07,-24.96"/>
<polygon fill="#63b8ff" stroke="#63b8ff" points="426.2,-32.54 436.63,-30.67 427.31,-25.63 426.2,-32.54"/>
</g>
<!-- Node3 -->
<g id="node3" class="node">
<title>Node3</title>
<g id="a_node3"><a xlink:href="structelc_1_1defs_1_1core_1_1cons.html#a2ecac97973c620f052a65545c84efb8e" target="_top" xlink:title=" ">
<polygon fill="white" stroke="#666666" points="239,-102 134,-102 134,-72 239,-72 239,-102"/>
<text text-anchor="start" x="142" y="-90" font-family="Helvetica,sans-Serif" font-size="10.00">elc::defs::core::cons</text>
<text text-anchor="middle" x="186.5" y="-79" font-family="Helvetica,sans-Serif" font-size="10.00">::arec</text>
</a>
</g>
</g>
<!-- Node2&#45;&gt;Node3 -->
<g id="edge2" class="edge">
<title>Node2&#45;&gt;Node3</title>
<path fill="none" stroke="#63b8ff" d="M274.83,-72.98C262.91,-74.89 250.54,-76.88 239,-78.73"/>
<polygon fill="#63b8ff" stroke="#63b8ff" points="275.39,-76.43 284.71,-71.39 274.28,-69.52 275.39,-76.43"/>
</g>
<!-- Node4 -->
<g id="node4" class="node">
<title>Node4</title>
<g id="a_node4"><a xlink:href="structelc_1_1defs_1_1core_1_1node__like.html#a53e3ac38b813a6248a6687e60392ca64" target="_top" xlink:title=" ">
<polygon fill="white" stroke="#666666" points="239,-54 134,-54 134,-24 239,-24 239,-54"/>
<text text-anchor="start" x="142" y="-42" font-family="Helvetica,sans-Serif" font-size="10.00">elc::defs::core::node</text>
<text text-anchor="middle" x="186.5" y="-31" font-family="Helvetica,sans-Serif" font-size="10.00">_like::destroy</text>
</a>
</g>
</g>
<!-- Node2&#45;&gt;Node4 -->
<g id="edge3" class="edge">
<title>Node2&#45;&gt;Node4</title>
<path fill="none" stroke="#63b8ff" d="M274.83,-53.02C262.91,-51.11 250.54,-49.12 239,-47.27"/>
<polygon fill="#63b8ff" stroke="#63b8ff" points="274.28,-56.48 284.71,-54.61 275.39,-49.57 274.28,-56.48"/>
</g>
<!-- Node5 -->
<g id="node5" class="node">
<title>Node5</title>
<g id="a_node5"><a xlink:href="namespaceelc_1_1defs_1_1core.html#acffc812090610314e52fdecd03d4de28" target="_top" xlink:title=" ">
<polygon fill="white" stroke="#666666" points="98,-54 0,-54 0,-24 98,-24 98,-54"/>
<text text-anchor="start" x="8" y="-42" font-family="Helvetica,sans-Serif" font-size="10.00">elc::defs::core::the</text>
<text text-anchor="middle" x="49" y="-31" font-family="Helvetica,sans-Serif" font-size="10.00">_destroy</text>
</a>
</g>
</g>
<!-- Node4&#45;&gt;Node5 -->
<g id="edge4" class="edge">
<title>Node4&#45;&gt;Node5</title>
<path fill="none" stroke="#63b8ff" d="M123.64,-39C115.15,-39 106.54,-39 98.35,-39"/>
<polygon fill="#63b8ff" stroke="#63b8ff" points="123.89,-42.5 133.89,-39 123.89,-35.5 123.89,-42.5"/>
</g>
</g>
</svg>
