<?xml version="1.0" encoding="UTF-8" standalone="no"?>
<!DOCTYPE svg PUBLIC "-//W3C//DTD SVG 1.1//EN"
 "http://www.w3.org/Graphics/SVG/1.1/DTD/svg11.dtd">
<!-- Generated by graphviz version 6.0.1 (20220911.1526)
 -->
<!-- Title: elc::defs::base::cons_t&lt; T &gt; Pages: 1 -->
<svg width="422pt" height="182pt"
 viewBox="0.00 0.00 422.00 182.00" xmlns="http://www.w3.org/2000/svg" xmlns:xlink="http://www.w3.org/1999/xlink">
<g id="graph0" class="graph" transform="scale(1 1) rotate(0) translate(4 178)">
<title>elc::defs::base::cons_t&lt; T &gt;</title>
<!-- Node1 -->
<g id="node1" class="node">
<title>Node1</title>
<g id="a_node1"><a xlink:title=" ">
<polygon fill="#999999" stroke="#666666" points="414,-78 307,-78 307,-48 414,-48 414,-78"/>
<text text-anchor="start" x="315" y="-66" font-family="Helvetica,sans-Serif" font-size="10.00">elc::defs::base::cons</text>
<text text-anchor="middle" x="360.5" y="-55" font-family="Helvetica,sans-Serif" font-size="10.00">_t&lt; T &gt;</text>
</a>
</g>
</g>
<!-- Node2 -->
<g id="node2" class="node">
<title>Node2</title>
<g id="a_node2"><a xlink:href="structelc_1_1defs_1_1base_1_1non__copyable.html" target="_top" xlink:title=" ">
<polygon fill="white" stroke="#666666" points="261,-126 159,-126 159,-96 261,-96 261,-126"/>
<text text-anchor="start" x="167" y="-114" font-family="Helvetica,sans-Serif" font-size="10.00">elc::defs::base::non</text>
<text text-anchor="middle" x="210" y="-103" font-family="Helvetica,sans-Serif" font-size="10.00">_copyable</text>
</a>
</g>
</g>
<!-- Node2&#45;&gt;Node1 -->
<g id="edge1" class="edge">
<title>Node2&#45;&gt;Node1</title>
<path fill="none" stroke="#63b8ff" d="M267.32,-92.79C282.43,-87.91 298.59,-82.69 313.09,-78"/>
<polygon fill="#63b8ff" stroke="#63b8ff" points="266.02,-89.54 257.58,-95.94 268.17,-96.2 266.02,-89.54"/>
</g>
<!-- Node3 -->
<g id="node3" class="node">
<title>Node3</title>
<g id="a_node3"><a xlink:href="structelc_1_1defs_1_1base_1_1non__copy__assign__able.html" target="_top" xlink:title=" ">
<polygon fill="white" stroke="#666666" points="107.5,-174 5.5,-174 5.5,-144 107.5,-144 107.5,-174"/>
<text text-anchor="start" x="13.5" y="-162" font-family="Helvetica,sans-Serif" font-size="10.00">elc::defs::base::non</text>
<text text-anchor="middle" x="56.5" y="-151" font-family="Helvetica,sans-Serif" font-size="10.00">_copy_assign_able</text>
</a>
</g>
</g>
<!-- Node3&#45;&gt;Node2 -->
<g id="edge2" class="edge">
<title>Node3&#45;&gt;Node2</title>
<path fill="none" stroke="#63b8ff" d="M114.96,-140.79C130.37,-135.91 146.86,-130.69 161.65,-126"/>
<polygon fill="#63b8ff" stroke="#63b8ff" points="113.5,-137.59 105.02,-143.94 115.61,-144.26 113.5,-137.59"/>
</g>
<!-- Node4 -->
<g id="node4" class="node">
<title>Node4</title>
<g id="a_node4"><a xlink:href="structelc_1_1defs_1_1base_1_1non__copy__construct__able.html" target="_top" xlink:title=" ">
<polygon fill="white" stroke="#666666" points="112.5,-126 0.5,-126 0.5,-96 112.5,-96 112.5,-126"/>
<text text-anchor="start" x="8.5" y="-114" font-family="Helvetica,sans-Serif" font-size="10.00">elc::defs::base::non</text>
<text text-anchor="middle" x="56.5" y="-103" font-family="Helvetica,sans-Serif" font-size="10.00">_copy_construct_able</text>
</a>
</g>
</g>
<!-- Node4&#45;&gt;Node2 -->
<g id="edge3" class="edge">
<title>Node4&#45;&gt;Node2</title>
<path fill="none" stroke="#63b8ff" d="M122.65,-111C134.72,-111 147.15,-111 158.7,-111"/>
<polygon fill="#63b8ff" stroke="#63b8ff" points="122.62,-107.5 112.62,-111 122.62,-114.5 122.62,-107.5"/>
</g>
<!-- Node5 -->
<g id="node5" class="node">
<title>Node5</title>
<g id="a_node5"><a xlink:href="structelc_1_1defs_1_1base_1_1non__moveable.html" target="_top" xlink:title=" ">
<polygon fill="white" stroke="#666666" points="261,-78 159,-78 159,-48 261,-48 261,-78"/>
<text text-anchor="start" x="167" y="-66" font-family="Helvetica,sans-Serif" font-size="10.00">elc::defs::base::non</text>
<text text-anchor="middle" x="210" y="-55" font-family="Helvetica,sans-Serif" font-size="10.00">_moveable</text>
</a>
</g>
</g>
<!-- Node5&#45;&gt;Node1 -->
<g id="edge4" class="edge">
<title>Node5&#45;&gt;Node1</title>
<path fill="none" stroke="#63b8ff" d="M271.47,-63C283.25,-63 295.5,-63 306.99,-63"/>
<polygon fill="#63b8ff" stroke="#63b8ff" points="271.28,-59.5 261.28,-63 271.28,-66.5 271.28,-59.5"/>
</g>
<!-- Node6 -->
<g id="node6" class="node">
<title>Node6</title>
<g id="a_node6"><a xlink:href="structelc_1_1defs_1_1base_1_1non__move__assign__able.html" target="_top" xlink:title=" ">
<polygon fill="white" stroke="#666666" points="107.5,-78 5.5,-78 5.5,-48 107.5,-48 107.5,-78"/>
<text text-anchor="start" x="13.5" y="-66" font-family="Helvetica,sans-Serif" font-size="10.00">elc::defs::base::non</text>
<text text-anchor="middle" x="56.5" y="-55" font-family="Helvetica,sans-Serif" font-size="10.00">_move_assign_able</text>
</a>
</g>
</g>
<!-- Node6&#45;&gt;Node5 -->
<g id="edge5" class="edge">
<title>Node6&#45;&gt;Node5</title>
<path fill="none" stroke="#63b8ff" d="M117.76,-63C131.35,-63 145.64,-63 158.77,-63"/>
<polygon fill="#63b8ff" stroke="#63b8ff" points="117.53,-59.5 107.53,-63 117.53,-66.5 117.53,-59.5"/>
</g>
<!-- Node7 -->
<g id="node7" class="node">
<title>Node7</title>
<g id="a_node7"><a xlink:href="structelc_1_1defs_1_1base_1_1non__move__construct__able.html" target="_top" xlink:title=" ">
<polygon fill="white" stroke="#666666" points="113,-30 0,-30 0,0 113,0 113,-30"/>
<text text-anchor="start" x="8" y="-18" font-family="Helvetica,sans-Serif" font-size="10.00">elc::defs::base::non</text>
<text text-anchor="middle" x="56.5" y="-7" font-family="Helvetica,sans-Serif" font-size="10.00">_move_construct_able</text>
</a>
</g>
</g>
<!-- Node7&#45;&gt;Node5 -->
<g id="edge6" class="edge">
<title>Node7&#45;&gt;Node5</title>
<path fill="none" stroke="#63b8ff" d="M114.96,-33.21C130.37,-38.09 146.86,-43.31 161.65,-48"/>
<polygon fill="#63b8ff" stroke="#63b8ff" points="115.61,-29.74 105.02,-30.06 113.5,-36.41 115.61,-29.74"/>
</g>
<!-- Node8 -->
<g id="node8" class="node">
<title>Node8</title>
<g id="a_node8"><a xlink:href="structelc_1_1defs_1_1base_1_1attribute.html" target="_top" xlink:title=" ">
<polygon fill="white" stroke="#666666" points="271,-30 149,-30 149,0 271,0 271,-30"/>
<text text-anchor="start" x="157" y="-18" font-family="Helvetica,sans-Serif" font-size="10.00">elc::defs::base::attribute</text>
<text text-anchor="middle" x="210" y="-7" font-family="Helvetica,sans-Serif" font-size="10.00">&lt; T, cons_t&lt; T &gt; &gt;</text>
</a>
</g>
</g>
<!-- Node8&#45;&gt;Node1 -->
<g id="edge7" class="edge">
<title>Node8&#45;&gt;Node1</title>
<path fill="none" stroke="#63b8ff" d="M267.32,-33.21C282.43,-38.09 298.59,-43.31 313.09,-48"/>
<polygon fill="#63b8ff" stroke="#63b8ff" points="268.17,-29.8 257.58,-30.06 266.02,-36.46 268.17,-29.8"/>
</g>
</g>
</svg>
