<?xml version="1.0" encoding="UTF-8" standalone="no"?>
<!DOCTYPE svg PUBLIC "-//W3C//DTD SVG 1.1//EN"
 "http://www.w3.org/Graphics/SVG/1.1/DTD/svg11.dtd">
<!-- Generated by graphviz version 6.0.1 (20220911.1526)
 -->
<!-- Title: elc::defs::core::binary_node_t::arec Pages: 1 -->
<svg width="402pt" height="94pt"
 viewBox="0.00 0.00 402.00 93.50" xmlns="http://www.w3.org/2000/svg" xmlns:xlink="http://www.w3.org/1999/xlink">
<g id="graph0" class="graph" transform="scale(1 1) rotate(0) translate(4 89.5)">
<title>elc::defs::core::binary_node_t::arec</title>
<!-- Node1 -->
<g id="node1" class="node">
<title>Node1</title>
<g id="a_node1"><a xlink:title=" ">
<polygon fill="#999999" stroke="#666666" points="110,-51 0,-51 0,-21 110,-21 110,-51"/>
<text text-anchor="start" x="8" y="-39" font-family="Helvetica,sans-Serif" font-size="10.00">elc::defs::core::binary</text>
<text text-anchor="middle" x="55" y="-28" font-family="Helvetica,sans-Serif" font-size="10.00">_node_t::arec</text>
</a>
</g>
</g>
<!-- Node2 -->
<g id="node2" class="node">
<title>Node2</title>
<g id="a_node2"><a xlink:href="namespaceelc_1_1defs_1_1core.html#a476a30e4da2e29b52c54c7a59dc3f4f3" target="_top" xlink:title=" ">
<polygon fill="white" stroke="#666666" points="241,-51 146,-51 146,-21 241,-21 241,-51"/>
<text text-anchor="start" x="154" y="-39" font-family="Helvetica,sans-Serif" font-size="10.00">elc::defs::core::as</text>
<text text-anchor="middle" x="193.5" y="-28" font-family="Helvetica,sans-Serif" font-size="10.00">_value</text>
</a>
</g>
</g>
<!-- Node1&#45;&gt;Node2 -->
<g id="edge1" class="edge">
<title>Node1&#45;&gt;Node2</title>
<path fill="none" stroke="#63b8ff" d="M110.34,-36C118.69,-36 127.33,-36 135.74,-36"/>
<polygon fill="#63b8ff" stroke="#63b8ff" points="135.83,-39.5 145.83,-36 135.83,-32.5 135.83,-39.5"/>
</g>
<!-- Node2&#45;&gt;Node2 -->
<g id="edge4" class="edge">
<title>Node2&#45;&gt;Node2</title>
<path fill="none" stroke="#63b8ff" d="M169.15,-51.28C163.74,-60.41 171.86,-69 193.5,-69 206.35,-69 214.43,-65.97 217.74,-61.6"/>
<polygon fill="#63b8ff" stroke="#63b8ff" points="221.25,-61.31 217.85,-51.28 214.25,-61.24 221.25,-61.31"/>
</g>
<!-- Node3 -->
<g id="node3" class="node">
<title>Node3</title>
<g id="a_node3"><a xlink:href="namespaceelc_1_1defs_1_1core.html#aa4b6b0e46887c02cd097d74031157c5f" target="_top" xlink:title=" ">
<polygon fill="white" stroke="#666666" points="391,-67.5 280,-67.5 280,-48.5 391,-48.5 391,-67.5"/>
<text text-anchor="middle" x="335.5" y="-55.5" font-family="Helvetica,sans-Serif" font-size="10.00">elc::defs::core::as_ptr</text>
</a>
</g>
</g>
<!-- Node2&#45;&gt;Node3 -->
<g id="edge2" class="edge">
<title>Node2&#45;&gt;Node3</title>
<path fill="none" stroke="#63b8ff" d="M241.12,-43.33C250.33,-44.77 260.15,-46.32 269.83,-47.84"/>
<polygon fill="#63b8ff" stroke="#63b8ff" points="269.42,-51.32 279.84,-49.41 270.5,-44.4 269.42,-51.32"/>
</g>
<!-- Node4 -->
<g id="node4" class="node">
<title>Node4</title>
<g id="a_node4"><a xlink:href="namespaceelc_1_1defs_1_1base.html#add5f75cca4bdd8a249b12d840b1ff116" target="_top" xlink:title="对引用移除const">
<polygon fill="white" stroke="#666666" points="394,-30 277,-30 277,0 394,0 394,-30"/>
<text text-anchor="start" x="285" y="-18" font-family="Helvetica,sans-Serif" font-size="10.00">elc::defs::base::remove</text>
<text text-anchor="middle" x="335.5" y="-7" font-family="Helvetica,sans-Serif" font-size="10.00">_const</text>
</a>
</g>
</g>
<!-- Node2&#45;&gt;Node4 -->
<g id="edge5" class="edge">
<title>Node2&#45;&gt;Node4</title>
<path fill="none" stroke="#63b8ff" d="M241.12,-29.01C249.35,-27.77 258.07,-26.46 266.75,-25.16"/>
<polygon fill="#63b8ff" stroke="#63b8ff" points="267.5,-28.59 276.87,-23.64 266.47,-21.67 267.5,-28.59"/>
</g>
<!-- Node3&#45;&gt;Node3 -->
<g id="edge3" class="edge">
<title>Node3&#45;&gt;Node3</title>
<path fill="none" stroke="#63b8ff" d="M313.61,-67.58C302.97,-76.23 310.26,-85.5 335.5,-85.5 351.67,-85.5 360.47,-81.7 361.91,-76.69"/>
<polygon fill="#63b8ff" stroke="#63b8ff" points="364.97,-74.98 357.39,-67.58 358.7,-78.1 364.97,-74.98"/>
</g>
</g>
</svg>
