<?xml version="1.0" encoding="UTF-8" standalone="no"?>
<!DOCTYPE svg PUBLIC "-//W3C//DTD SVG 1.1//EN"
 "http://www.w3.org/Graphics/SVG/1.1/DTD/svg11.dtd">
<!-- Generated by graphviz version 6.0.1 (20220911.1526)
 -->
<!-- Title: elc::defs::memory::ptr_n::ptr_t::operator== Pages: 1 -->
<svg width="431pt" height="38pt"
 viewBox="0.00 0.00 431.00 38.00" xmlns="http://www.w3.org/2000/svg" xmlns:xlink="http://www.w3.org/1999/xlink">
<g id="graph0" class="graph" transform="scale(1 1) rotate(0) translate(4 34)">
<title>elc::defs::memory::ptr_n::ptr_t::operator==</title>
<!-- Node1 -->
<g id="node1" class="node">
<title>Node1</title>
<g id="a_node1"><a xlink:title=" ">
<polygon fill="#999999" stroke="#666666" points="117,-30 0,-30 0,0 117,0 117,-30"/>
<text text-anchor="start" x="8" y="-18" font-family="Helvetica,sans-Serif" font-size="10.00">elc::defs::memory::</text>
<text text-anchor="middle" x="58.5" y="-7" font-family="Helvetica,sans-Serif" font-size="10.00">ptr_n::ptr_t::operator==</text>
</a>
</g>
</g>
<!-- Node2 -->
<g id="node2" class="node">
<title>Node2</title>
<g id="a_node2"><a xlink:href="structelc_1_1defs_1_1memory_1_1ptr__n_1_1ptr__t.html#afa7ec8ea3b1c71df95fdfc05b7d726d8" target="_top" xlink:title=" ">
<polygon fill="white" stroke="#666666" points="254,-30 153,-30 153,0 254,0 254,-30"/>
<text text-anchor="start" x="161" y="-18" font-family="Helvetica,sans-Serif" font-size="10.00">elc::defs::memory::</text>
<text text-anchor="middle" x="203.5" y="-7" font-family="Helvetica,sans-Serif" font-size="10.00">ptr_n::ptr_t::get</text>
</a>
</g>
</g>
<!-- Node1&#45;&gt;Node2 -->
<g id="edge1" class="edge">
<title>Node1&#45;&gt;Node2</title>
<path fill="none" stroke="#63b8ff" d="M117.25,-15C125.63,-15 134.27,-15 142.68,-15"/>
<polygon fill="#63b8ff" stroke="#63b8ff" points="142.81,-18.5 152.81,-15 142.81,-11.5 142.81,-18.5"/>
</g>
<!-- Node3 -->
<g id="node3" class="node">
<title>Node3</title>
<g id="a_node3"><a xlink:href="structelc_1_1defs_1_1memory_1_1ptr__n_1_1ptr__t.html#ab0ddc2cf5279d67e43eedad6d7301ae1" target="_top" xlink:title=" ">
<polygon fill="white" stroke="#666666" points="423,-30 290,-30 290,0 423,0 423,-30"/>
<text text-anchor="start" x="298" y="-18" font-family="Helvetica,sans-Serif" font-size="10.00">elc::defs::memory::</text>
<text text-anchor="middle" x="356.5" y="-7" font-family="Helvetica,sans-Serif" font-size="10.00">ptr_n::ptr_t::replace_check</text>
</a>
</g>
</g>
<!-- Node2&#45;&gt;Node3 -->
<g id="edge2" class="edge">
<title>Node2&#45;&gt;Node3</title>
<path fill="none" stroke="#63b8ff" d="M254.36,-15C262.51,-15 271.11,-15 279.72,-15"/>
<polygon fill="#63b8ff" stroke="#63b8ff" points="279.8,-18.5 289.8,-15 279.8,-11.5 279.8,-18.5"/>
</g>
</g>
</svg>
