<?xml version="1.0" encoding="UTF-8" standalone="no"?>
<!DOCTYPE svg PUBLIC "-//W3C//DTD SVG 1.1//EN"
 "http://www.w3.org/Graphics/SVG/1.1/DTD/svg11.dtd">
<!-- Generated by graphviz version 6.0.1 (20220911.1526)
 -->
<!-- Title: elc::defs::string_n::string_t::arec Pages: 1 -->
<svg width="262pt" height="179pt"
 viewBox="0.00 0.00 262.00 179.00" xmlns="http://www.w3.org/2000/svg" xmlns:xlink="http://www.w3.org/1999/xlink">
<g id="graph0" class="graph" transform="scale(1 1) rotate(0) translate(4 175)">
<title>elc::defs::string_n::string_t::arec</title>
<!-- Node1 -->
<g id="node1" class="node">
<title>Node1</title>
<g id="a_node1"><a xlink:title=" ">
<polygon fill="#999999" stroke="#666666" points="254,-100.5 160,-100.5 160,-70.5 254,-70.5 254,-100.5"/>
<text text-anchor="start" x="168" y="-88.5" font-family="Helvetica,sans-Serif" font-size="10.00">elc::defs::string_n</text>
<text text-anchor="middle" x="207" y="-77.5" font-family="Helvetica,sans-Serif" font-size="10.00">::string_t::arec</text>
</a>
</g>
</g>
<!-- Node2 -->
<g id="node2" class="node">
<title>Node2</title>
<g id="a_node2"><a xlink:href="classelc_1_1defs_1_1string__n_1_1string__t_1_1arec__t.html#a5ede190a6e0a0a6b6545907ab4966e35" target="_top" xlink:title=" ">
<polygon fill="white" stroke="#666666" points="109,-171 15,-171 15,-130 109,-130 109,-171"/>
<text text-anchor="start" x="23" y="-159" font-family="Helvetica,sans-Serif" font-size="10.00">elc::defs::string_n</text>
<text text-anchor="start" x="23" y="-148" font-family="Helvetica,sans-Serif" font-size="10.00">::string_t::arec_t::</text>
<text text-anchor="middle" x="62" y="-137" font-family="Helvetica,sans-Serif" font-size="10.00">operator char_T</text>
</a>
</g>
</g>
<!-- Node1&#45;&gt;Node2 -->
<g id="edge1" class="edge">
<title>Node1&#45;&gt;Node2</title>
<path fill="none" stroke="#63b8ff" d="M163.47,-104.83C146.05,-112.75 125.86,-121.93 108.17,-129.97"/>
<polygon fill="#63b8ff" stroke="#63b8ff" points="165.18,-107.9 172.83,-100.58 162.28,-101.53 165.18,-107.9"/>
</g>
<!-- Node3 -->
<g id="node3" class="node">
<title>Node3</title>
<g id="a_node3"><a xlink:href="classelc_1_1defs_1_1string__n_1_1string__t_1_1floating__arec__t.html#a868f4770caedb80e5513396485feec5b" target="_top" xlink:title=" ">
<polygon fill="white" stroke="#666666" points="124,-111.5 0,-111.5 0,-59.5 124,-59.5 124,-111.5"/>
<text text-anchor="start" x="8" y="-99.5" font-family="Helvetica,sans-Serif" font-size="10.00">elc::defs::string_n</text>
<text text-anchor="start" x="8" y="-88.5" font-family="Helvetica,sans-Serif" font-size="10.00">::string_t::floating</text>
<text text-anchor="start" x="8" y="-77.5" font-family="Helvetica,sans-Serif" font-size="10.00">_arec_t::operator floating</text>
<text text-anchor="middle" x="62" y="-66.5" font-family="Helvetica,sans-Serif" font-size="10.00">_arec_result_type</text>
</a>
</g>
</g>
<!-- Node1&#45;&gt;Node3 -->
<g id="edge2" class="edge">
<title>Node1&#45;&gt;Node3</title>
<path fill="none" stroke="#63b8ff" d="M149.84,-85.5C141.38,-85.5 132.63,-85.5 124.08,-85.5"/>
<polygon fill="#63b8ff" stroke="#63b8ff" points="149.97,-89 159.97,-85.5 149.97,-82 149.97,-89"/>
</g>
<!-- Node4 -->
<g id="node4" class="node">
<title>Node4</title>
<g id="a_node4"><a xlink:href="classelc_1_1defs_1_1string__n_1_1string__t_1_1floating__arec__t.html#a22df93fad285d80555d6b71370f999d2" target="_top" xlink:title=" ">
<polygon fill="white" stroke="#666666" points="110,-41 14,-41 14,0 110,0 110,-41"/>
<text text-anchor="start" x="22" y="-29" font-family="Helvetica,sans-Serif" font-size="10.00">elc::defs::string_n</text>
<text text-anchor="start" x="22" y="-18" font-family="Helvetica,sans-Serif" font-size="10.00">::string_t::floating</text>
<text text-anchor="middle" x="62" y="-7" font-family="Helvetica,sans-Serif" font-size="10.00">_arec_t::operator=</text>
</a>
</g>
</g>
<!-- Node1&#45;&gt;Node4 -->
<g id="edge3" class="edge">
<title>Node1&#45;&gt;Node4</title>
<path fill="none" stroke="#63b8ff" d="M163.47,-66.17C146.05,-58.25 125.86,-49.07 108.17,-41.03"/>
<polygon fill="#63b8ff" stroke="#63b8ff" points="162.28,-69.47 172.83,-70.42 165.18,-63.1 162.28,-69.47"/>
</g>
</g>
</svg>
