<?xml version="1.0" encoding="UTF-8" standalone="no"?>
<!DOCTYPE svg PUBLIC "-//W3C//DTD SVG 1.1//EN"
 "http://www.w3.org/Graphics/SVG/1.1/DTD/svg11.dtd">
<!-- Generated by graphviz version 6.0.1 (20220911.1526)
 -->
<!-- Title: elc::defs::string_n::string_t::data Pages: 1 -->
<svg width="252pt" height="134pt"
 viewBox="0.00 0.00 252.00 134.00" xmlns="http://www.w3.org/2000/svg" xmlns:xlink="http://www.w3.org/1999/xlink">
<g id="graph0" class="graph" transform="scale(1 1) rotate(0) translate(4 130)">
<title>elc::defs::string_n::string_t::data</title>
<!-- Node1 -->
<g id="node1" class="node">
<title>Node1</title>
<g id="a_node1"><a xlink:title=" ">
<polygon fill="#999999" stroke="#666666" points="244,-78 150,-78 150,-48 244,-48 244,-78"/>
<text text-anchor="start" x="158" y="-66" font-family="Helvetica,sans-Serif" font-size="10.00">elc::defs::string_n</text>
<text text-anchor="middle" x="197" y="-55" font-family="Helvetica,sans-Serif" font-size="10.00">::string_t::data</text>
</a>
</g>
</g>
<!-- Node2 -->
<g id="node2" class="node">
<title>Node2</title>
<g id="a_node2"><a xlink:href="structelc_1_1defs_1_1string__n_1_1string__t.html#a1eaf122440e5f253ce5de3565936232e" target="_top" xlink:title=" ">
<polygon fill="white" stroke="#666666" points="114,-126 0,-126 0,-96 114,-96 114,-126"/>
<text text-anchor="start" x="8" y="-114" font-family="Helvetica,sans-Serif" font-size="10.00">elc::defs::string_n</text>
<text text-anchor="middle" x="57" y="-103" font-family="Helvetica,sans-Serif" font-size="10.00">::string_t::operator&lt;=&gt;</text>
</a>
</g>
</g>
<!-- Node1&#45;&gt;Node2 -->
<g id="edge1" class="edge">
<title>Node1&#45;&gt;Node2</title>
<path fill="none" stroke="#63b8ff" d="M143.26,-81.35C129.34,-86.19 114.48,-91.36 101.13,-96"/>
<polygon fill="#63b8ff" stroke="#63b8ff" points="144.42,-84.65 152.71,-78.06 142.12,-78.04 144.42,-84.65"/>
</g>
<!-- Node3 -->
<g id="node3" class="node">
<title>Node3</title>
<g id="a_node3"><a xlink:href="structelc_1_1defs_1_1string__n_1_1string__t.html#ac769ab4c08f5e423f6b1d7b56e8a3dca" target="_top" xlink:title=" ">
<polygon fill="white" stroke="#666666" points="111,-78 3,-78 3,-48 111,-48 111,-78"/>
<text text-anchor="start" x="11" y="-66" font-family="Helvetica,sans-Serif" font-size="10.00">elc::defs::string_n</text>
<text text-anchor="middle" x="57" y="-55" font-family="Helvetica,sans-Serif" font-size="10.00">::string_t::operator==</text>
</a>
</g>
</g>
<!-- Node1&#45;&gt;Node3 -->
<g id="edge2" class="edge">
<title>Node1&#45;&gt;Node3</title>
<path fill="none" stroke="#63b8ff" d="M139.61,-63C130.19,-63 120.45,-63 111.12,-63"/>
<polygon fill="#63b8ff" stroke="#63b8ff" points="139.66,-66.5 149.66,-63 139.66,-59.5 139.66,-66.5"/>
</g>
<!-- Node4 -->
<g id="node4" class="node">
<title>Node4</title>
<g id="a_node4"><a xlink:href="structelc_1_1defs_1_1string__n_1_1string__t.html#a704491efaebbbc74c8145ed64f450ef3" target="_top" xlink:title=" ">
<polygon fill="white" stroke="#666666" points="104,-30 10,-30 10,0 104,0 104,-30"/>
<text text-anchor="start" x="18" y="-18" font-family="Helvetica,sans-Serif" font-size="10.00">elc::defs::string_n</text>
<text text-anchor="middle" x="57" y="-7" font-family="Helvetica,sans-Serif" font-size="10.00">::string_t::view</text>
</a>
</g>
</g>
<!-- Node1&#45;&gt;Node4 -->
<g id="edge3" class="edge">
<title>Node1&#45;&gt;Node4</title>
<path fill="none" stroke="#63b8ff" d="M143.26,-44.65C129.34,-39.81 114.48,-34.64 101.13,-30"/>
<polygon fill="#63b8ff" stroke="#63b8ff" points="142.12,-47.96 152.71,-47.94 144.42,-41.35 142.12,-47.96"/>
</g>
</g>
</svg>
