<?xml version="1.0" encoding="UTF-8" standalone="no"?>
<!DOCTYPE svg PUBLIC "-//W3C//DTD SVG 1.1//EN"
 "http://www.w3.org/Graphics/SVG/1.1/DTD/svg11.dtd">
<!-- Generated by graphviz version 6.0.1 (20220911.1526)
 -->
<!-- Title: elc::defs::memory::ptr_n::base_ptr_t::base_ptr_t Pages: 1 -->
<svg width="332pt" height="108pt"
 viewBox="0.00 0.00 332.00 108.00" xmlns="http://www.w3.org/2000/svg" xmlns:xlink="http://www.w3.org/1999/xlink">
<g id="graph0" class="graph" transform="scale(1 1) rotate(0) translate(4 104)">
<title>elc::defs::memory::ptr_n::base_ptr_t::base_ptr_t</title>
<!-- Node1 -->
<g id="node1" class="node">
<title>Node1</title>
<g id="a_node1"><a xlink:title=" ">
<polygon fill="#999999" stroke="#666666" points="324,-64.5 182,-64.5 182,-34.5 324,-34.5 324,-64.5"/>
<text text-anchor="start" x="190" y="-52.5" font-family="Helvetica,sans-Serif" font-size="10.00">elc::defs::memory::</text>
<text text-anchor="middle" x="253" y="-41.5" font-family="Helvetica,sans-Serif" font-size="10.00">ptr_n::base_ptr_t::base_ptr_t</text>
</a>
</g>
</g>
<!-- Node2 -->
<g id="node2" class="node">
<title>Node2</title>
<g id="a_node2"><a xlink:href="structelc_1_1defs_1_1core_1_1value_1_1constexpr__data__t.html#ac49ae0f49a0628216f83e67f6d7263ce" target="_top" xlink:title=" ">
<polygon fill="white" stroke="#666666" points="146,-100 0,-100 0,-59 146,-59 146,-100"/>
<text text-anchor="start" x="8" y="-88" font-family="Helvetica,sans-Serif" font-size="10.00">elc::defs::core::value</text>
<text text-anchor="start" x="8" y="-77" font-family="Helvetica,sans-Serif" font-size="10.00">::constexpr_data_t::constexpr</text>
<text text-anchor="middle" x="73" y="-66" font-family="Helvetica,sans-Serif" font-size="10.00">_data_t</text>
</a>
</g>
</g>
<!-- Node1&#45;&gt;Node2 -->
<g id="edge1" class="edge">
<title>Node1&#45;&gt;Node2</title>
<path fill="none" stroke="#63b8ff" d="M171.88,-63C163.28,-64.45 154.57,-65.92 146.08,-67.35"/>
<polygon fill="#63b8ff" stroke="#63b8ff" points="172.63,-66.43 181.91,-61.31 171.46,-59.52 172.63,-66.43"/>
</g>
<!-- Node3 -->
<g id="node3" class="node">
<title>Node3</title>
<g id="a_node3"><a xlink:href="structelc_1_1defs_1_1core_1_1value_1_1variable__data__t.html#af3cb191c5cae0b539197c07636239a3f" target="_top" xlink:title=" ">
<polygon fill="white" stroke="#666666" points="135.5,-41 10.5,-41 10.5,0 135.5,0 135.5,-41"/>
<text text-anchor="start" x="18.5" y="-29" font-family="Helvetica,sans-Serif" font-size="10.00">elc::defs::core::value</text>
<text text-anchor="start" x="18.5" y="-18" font-family="Helvetica,sans-Serif" font-size="10.00">::variable_data_t::variable</text>
<text text-anchor="middle" x="73" y="-7" font-family="Helvetica,sans-Serif" font-size="10.00">_data_t</text>
</a>
</g>
</g>
<!-- Node1&#45;&gt;Node3 -->
<g id="edge2" class="edge">
<title>Node1&#45;&gt;Node3</title>
<path fill="none" stroke="#63b8ff" d="M171.79,-36.43C159.66,-34.46 147.31,-32.44 135.66,-30.55"/>
<polygon fill="#63b8ff" stroke="#63b8ff" points="171.47,-39.93 181.91,-38.08 172.6,-33.02 171.47,-39.93"/>
</g>
</g>
</svg>
