<?xml version="1.0" encoding="UTF-8" standalone="no"?>
<!DOCTYPE svg PUBLIC "-//W3C//DTD SVG 1.1//EN"
 "http://www.w3.org/Graphics/SVG/1.1/DTD/svg11.dtd">
<!-- Generated by graphviz version 6.0.1 (20220911.1526)
 -->
<!-- Title: elc::defs::string_n::string_t::size Pages: 1 -->
<svg width="252pt" height="230pt"
 viewBox="0.00 0.00 252.00 230.00" xmlns="http://www.w3.org/2000/svg" xmlns:xlink="http://www.w3.org/1999/xlink">
<g id="graph0" class="graph" transform="scale(1 1) rotate(0) translate(4 226)">
<title>elc::defs::string_n::string_t::size</title>
<!-- Node1 -->
<g id="node1" class="node">
<title>Node1</title>
<g id="a_node1"><a xlink:title=" ">
<polygon fill="#999999" stroke="#666666" points="244,-126 150,-126 150,-96 244,-96 244,-126"/>
<text text-anchor="start" x="158" y="-114" font-family="Helvetica,sans-Serif" font-size="10.00">elc::defs::string_n</text>
<text text-anchor="middle" x="197" y="-103" font-family="Helvetica,sans-Serif" font-size="10.00">::string_t::size</text>
</a>
</g>
</g>
<!-- Node2 -->
<g id="node2" class="node">
<title>Node2</title>
<g id="a_node2"><a xlink:href="structelc_1_1defs_1_1string__n_1_1string__t.html#ae09e348981e403ae921f0f4244d2c2bf" target="_top" xlink:title=" ">
<polygon fill="white" stroke="#666666" points="109,-222 5,-222 5,-192 109,-192 109,-222"/>
<text text-anchor="start" x="13" y="-210" font-family="Helvetica,sans-Serif" font-size="10.00">elc::defs::string_n</text>
<text text-anchor="middle" x="57" y="-199" font-family="Helvetica,sans-Serif" font-size="10.00">::string_t::ends_with</text>
</a>
</g>
</g>
<!-- Node1&#45;&gt;Node2 -->
<g id="edge1" class="edge">
<title>Node1&#45;&gt;Node2</title>
<path fill="none" stroke="#63b8ff" d="M174.59,-133.21C158.88,-148.62 136.45,-168.84 114,-183 108.9,-186.22 103.3,-189.19 97.66,-191.87"/>
<polygon fill="#63b8ff" stroke="#63b8ff" points="177.13,-135.62 181.74,-126.08 172.19,-130.67 177.13,-135.62"/>
</g>
<!-- Node3 -->
<g id="node3" class="node">
<title>Node3</title>
<g id="a_node3"><a xlink:href="structelc_1_1defs_1_1string__n_1_1string__t.html#a1eaf122440e5f253ce5de3565936232e" target="_top" xlink:title=" ">
<polygon fill="white" stroke="#666666" points="114,-174 0,-174 0,-144 114,-144 114,-174"/>
<text text-anchor="start" x="8" y="-162" font-family="Helvetica,sans-Serif" font-size="10.00">elc::defs::string_n</text>
<text text-anchor="middle" x="57" y="-151" font-family="Helvetica,sans-Serif" font-size="10.00">::string_t::operator&lt;=&gt;</text>
</a>
</g>
</g>
<!-- Node1&#45;&gt;Node3 -->
<g id="edge2" class="edge">
<title>Node1&#45;&gt;Node3</title>
<path fill="none" stroke="#63b8ff" d="M143.26,-129.35C129.34,-134.19 114.48,-139.36 101.13,-144"/>
<polygon fill="#63b8ff" stroke="#63b8ff" points="144.42,-132.65 152.71,-126.06 142.12,-126.04 144.42,-132.65"/>
</g>
<!-- Node4 -->
<g id="node4" class="node">
<title>Node4</title>
<g id="a_node4"><a xlink:href="structelc_1_1defs_1_1string__n_1_1string__t.html#ac769ab4c08f5e423f6b1d7b56e8a3dca" target="_top" xlink:title=" ">
<polygon fill="white" stroke="#666666" points="111,-126 3,-126 3,-96 111,-96 111,-126"/>
<text text-anchor="start" x="11" y="-114" font-family="Helvetica,sans-Serif" font-size="10.00">elc::defs::string_n</text>
<text text-anchor="middle" x="57" y="-103" font-family="Helvetica,sans-Serif" font-size="10.00">::string_t::operator==</text>
</a>
</g>
</g>
<!-- Node1&#45;&gt;Node4 -->
<g id="edge3" class="edge">
<title>Node1&#45;&gt;Node4</title>
<path fill="none" stroke="#63b8ff" d="M139.61,-111C130.19,-111 120.45,-111 111.12,-111"/>
<polygon fill="#63b8ff" stroke="#63b8ff" points="139.66,-114.5 149.66,-111 139.66,-107.5 139.66,-114.5"/>
</g>
<!-- Node5 -->
<g id="node5" class="node">
<title>Node5</title>
<g id="a_node5"><a xlink:href="structelc_1_1defs_1_1string__n_1_1string__t.html#ae2e67a5747757ccc897c784c7b6b51ab" target="_top" xlink:title=" ">
<polygon fill="white" stroke="#666666" points="111,-78 3,-78 3,-48 111,-48 111,-78"/>
<text text-anchor="start" x="11" y="-66" font-family="Helvetica,sans-Serif" font-size="10.00">elc::defs::string_n</text>
<text text-anchor="middle" x="57" y="-55" font-family="Helvetica,sans-Serif" font-size="10.00">::string_t::starts_with</text>
</a>
</g>
</g>
<!-- Node1&#45;&gt;Node5 -->
<g id="edge4" class="edge">
<title>Node1&#45;&gt;Node5</title>
<path fill="none" stroke="#63b8ff" d="M143.26,-92.65C129.34,-87.81 114.48,-82.64 101.13,-78"/>
<polygon fill="#63b8ff" stroke="#63b8ff" points="142.12,-95.96 152.71,-95.94 144.42,-89.35 142.12,-95.96"/>
</g>
<!-- Node6 -->
<g id="node6" class="node">
<title>Node6</title>
<g id="a_node6"><a xlink:href="structelc_1_1defs_1_1string__n_1_1string__t.html#a3dc21edba9b349513cd33a718cc3cb6d" target="_top" xlink:title=" ">
<polygon fill="white" stroke="#666666" points="104,-30 10,-30 10,0 104,0 104,-30"/>
<text text-anchor="start" x="18" y="-18" font-family="Helvetica,sans-Serif" font-size="10.00">elc::defs::string_n</text>
<text text-anchor="middle" x="57" y="-7" font-family="Helvetica,sans-Serif" font-size="10.00">::string_t::view</text>
</a>
</g>
</g>
<!-- Node1&#45;&gt;Node6 -->
<g id="edge5" class="edge">
<title>Node1&#45;&gt;Node6</title>
<path fill="none" stroke="#63b8ff" d="M174.59,-88.79C158.88,-73.38 136.45,-53.16 114,-39 108.9,-35.78 103.3,-32.81 97.66,-30.13"/>
<polygon fill="#63b8ff" stroke="#63b8ff" points="172.19,-91.33 181.74,-95.92 177.13,-86.38 172.19,-91.33"/>
</g>
</g>
</svg>
