<?xml version="1.0" encoding="UTF-8" standalone="no"?>
<!DOCTYPE svg PUBLIC "-//W3C//DTD SVG 1.1//EN"
 "http://www.w3.org/Graphics/SVG/1.1/DTD/svg11.dtd">
<!-- Generated by graphviz version 6.0.1 (20220911.1526)
 -->
<!-- Title: elc::defs::core::node_like::operator logical_bool Pages: 1 -->
<svg width="281pt" height="86pt"
 viewBox="0.00 0.00 281.00 86.00" xmlns="http://www.w3.org/2000/svg" xmlns:xlink="http://www.w3.org/1999/xlink">
<g id="graph0" class="graph" transform="scale(1 1) rotate(0) translate(4 82)">
<title>elc::defs::core::node_like::operator logical_bool</title>
<!-- Node1 -->
<g id="node1" class="node">
<title>Node1</title>
<g id="a_node1"><a xlink:title=" ">
<polygon fill="#999999" stroke="#666666" points="273,-54 141,-54 141,-24 273,-24 273,-54"/>
<text text-anchor="start" x="149" y="-42" font-family="Helvetica,sans-Serif" font-size="10.00">elc::defs::core::node</text>
<text text-anchor="middle" x="207" y="-31" font-family="Helvetica,sans-Serif" font-size="10.00">_like::operator logical_bool</text>
</a>
</g>
</g>
<!-- Node2 -->
<g id="node2" class="node">
<title>Node2</title>
<g id="a_node2"><a xlink:href="structelc_1_1defs_1_1core_1_1node__like.html#a218bc7f91193a4b2ab4121c5dc7d3475" target="_top" xlink:title=" ">
<polygon fill="white" stroke="#666666" points="105,-78 0,-78 0,-48 105,-48 105,-78"/>
<text text-anchor="start" x="8" y="-66" font-family="Helvetica,sans-Serif" font-size="10.00">elc::defs::core::node</text>
<text text-anchor="middle" x="52.5" y="-55" font-family="Helvetica,sans-Serif" font-size="10.00">_like::operator bool</text>
</a>
</g>
</g>
<!-- Node1&#45;&gt;Node2 -->
<g id="edge1" class="edge">
<title>Node1&#45;&gt;Node2</title>
<path fill="none" stroke="#63b8ff" d="M131,-50.8C122.21,-52.19 113.4,-53.57 105.03,-54.89"/>
<polygon fill="#63b8ff" stroke="#63b8ff" points="131.55,-54.26 140.88,-49.25 130.46,-47.35 131.55,-54.26"/>
</g>
<!-- Node3 -->
<g id="node3" class="node">
<title>Node3</title>
<g id="a_node3"><a xlink:href="namespaceelc_1_1defs_1_1core.html#a1838ae5155f0fdfe928a0ac3267bb85d" target="_top" xlink:title=" ">
<polygon fill="white" stroke="#666666" points="101.5,-30 3.5,-30 3.5,0 101.5,0 101.5,-30"/>
<text text-anchor="start" x="11.5" y="-18" font-family="Helvetica,sans-Serif" font-size="10.00">elc::defs::core::the</text>
<text text-anchor="middle" x="52.5" y="-7" font-family="Helvetica,sans-Serif" font-size="10.00">_pointer_to_bool</text>
</a>
</g>
</g>
<!-- Node1&#45;&gt;Node3 -->
<g id="edge2" class="edge">
<title>Node1&#45;&gt;Node3</title>
<path fill="none" stroke="#63b8ff" d="M130.99,-27.19C121.06,-25.63 111.1,-24.07 101.79,-22.6"/>
<polygon fill="#63b8ff" stroke="#63b8ff" points="130.46,-30.65 140.88,-28.75 131.55,-23.74 130.46,-30.65"/>
</g>
</g>
</svg>
