<?xml version="1.0" encoding="UTF-8" standalone="no"?>
<!DOCTYPE svg PUBLIC "-//W3C//DTD SVG 1.1//EN"
 "http://www.w3.org/Graphics/SVG/1.1/DTD/svg11.dtd">
<!-- Generated by graphviz version 6.0.1 (20220911.1526)
 -->
<!-- Title: elc::defs::string_n::string_t::operator== Pages: 1 -->
<svg width="286pt" height="76pt"
 viewBox="0.00 0.00 286.00 75.50" xmlns="http://www.w3.org/2000/svg" xmlns:xlink="http://www.w3.org/1999/xlink">
<g id="graph0" class="graph" transform="scale(1 1) rotate(0) translate(4 71.5)">
<title>elc::defs::string_n::string_t::operator==</title>
<!-- Node1 -->
<g id="node1" class="node">
<title>Node1</title>
<g id="a_node1"><a xlink:title=" ">
<polygon fill="#999999" stroke="#666666" points="108,-51 0,-51 0,-21 108,-21 108,-51"/>
<text text-anchor="start" x="8" y="-39" font-family="Helvetica,sans-Serif" font-size="10.00">elc::defs::string_n</text>
<text text-anchor="middle" x="54" y="-28" font-family="Helvetica,sans-Serif" font-size="10.00">::string_t::operator==</text>
</a>
</g>
</g>
<!-- Node2 -->
<g id="node2" class="node">
<title>Node2</title>
<g id="a_node2"><a xlink:href="namespaceelc_1_1defs_1_1base.html#ac3fc56d91dfe3e48ff7200d8cb92f610" target="_top" xlink:title=" ">
<polygon fill="white" stroke="#666666" points="278,-67.5 144,-67.5 144,-48.5 278,-48.5 278,-67.5"/>
<text text-anchor="middle" x="211" y="-55.5" font-family="Helvetica,sans-Serif" font-size="10.00">elc::defs::base::operator==</text>
</a>
</g>
</g>
<!-- Node1&#45;&gt;Node2 -->
<g id="edge1" class="edge">
<title>Node1&#45;&gt;Node2</title>
<path fill="none" stroke="#63b8ff" d="M108.34,-43.57C116.59,-44.74 125.24,-45.97 133.87,-47.19"/>
<polygon fill="#63b8ff" stroke="#63b8ff" points="133.57,-50.69 143.96,-48.63 134.55,-43.76 133.57,-50.69"/>
</g>
<!-- Node3 -->
<g id="node3" class="node">
<title>Node3</title>
<g id="a_node3"><a xlink:href="namespaceelc_1_1defs_1_1base.html#add5f75cca4bdd8a249b12d840b1ff116" target="_top" xlink:title="对引用移除const">
<polygon fill="white" stroke="#666666" points="269.5,-30 152.5,-30 152.5,0 269.5,0 269.5,-30"/>
<text text-anchor="start" x="160.5" y="-18" font-family="Helvetica,sans-Serif" font-size="10.00">elc::defs::base::remove</text>
<text text-anchor="middle" x="211" y="-7" font-family="Helvetica,sans-Serif" font-size="10.00">_const</text>
</a>
</g>
</g>
<!-- Node1&#45;&gt;Node3 -->
<g id="edge2" class="edge">
<title>Node1&#45;&gt;Node3</title>
<path fill="none" stroke="#63b8ff" d="M108.34,-28.77C119.31,-27.29 131,-25.7 142.4,-24.16"/>
<polygon fill="#63b8ff" stroke="#63b8ff" points="142.88,-27.63 152.32,-22.81 141.94,-20.69 142.88,-27.63"/>
</g>
</g>
</svg>
