<?xml version="1.0" encoding="UTF-8" standalone="no"?>
<!DOCTYPE svg PUBLIC "-//W3C//DTD SVG 1.1//EN"
 "http://www.w3.org/Graphics/SVG/1.1/DTD/svg11.dtd">
<!-- Generated by graphviz version 6.0.1 (20220911.1526)
 -->
<!-- Title: elc::defs::stream_n::string_ostream Pages: 1 -->
<svg width="258pt" height="302pt"
 viewBox="0.00 0.00 258.00 302.00" xmlns="http://www.w3.org/2000/svg" xmlns:xlink="http://www.w3.org/1999/xlink">
<g id="graph0" class="graph" transform="scale(1 1) rotate(0) translate(4 298)">
<title>elc::defs::stream_n::string_ostream</title>
<!-- Node1 -->
<g id="node1" class="node">
<title>Node1</title>
<g id="a_node1"><a xlink:title=" ">
<polygon fill="#999999" stroke="#666666" points="183,-162 83,-162 83,-132 183,-132 183,-162"/>
<text text-anchor="start" x="91" y="-150" font-family="Helvetica,sans-Serif" font-size="10.00">elc::defs::stream_n</text>
<text text-anchor="middle" x="133" y="-139" font-family="Helvetica,sans-Serif" font-size="10.00">::string_ostream</text>
</a>
</g>
</g>
<!-- Node4 -->
<g id="node4" class="node">
<title>Node4</title>
<g id="a_node4"><a xlink:href="structelc_1_1defs_1_1stream__n_1_1noexcept__string__ostream.html" target="_top" xlink:title=" ">
<polygon fill="white" stroke="#666666" points="132,-96 0,-96 0,-66 132,-66 132,-96"/>
<text text-anchor="start" x="8" y="-84" font-family="Helvetica,sans-Serif" font-size="10.00">elc::defs::stream_n</text>
<text text-anchor="middle" x="66" y="-73" font-family="Helvetica,sans-Serif" font-size="10.00">::noexcept_string_ostream</text>
</a>
</g>
</g>
<!-- Node1&#45;&gt;Node4 -->
<g id="edge3" class="edge">
<title>Node1&#45;&gt;Node4</title>
<path fill="none" stroke="#63b8ff" d="M110.65,-124.65C100.83,-115.27 89.58,-104.53 80.83,-96.16"/>
<polygon fill="#63b8ff" stroke="#63b8ff" points="108.48,-127.42 118.13,-131.8 113.32,-122.36 108.48,-127.42"/>
</g>
<!-- Node6 -->
<g id="node6" class="node">
<title>Node6</title>
<g id="a_node6"><a xlink:href="structelc_1_1defs_1_1stream__n_1_1string__iostream.html" target="_top" xlink:title=" ">
<polygon fill="white" stroke="#666666" points="250,-96 150,-96 150,-66 250,-66 250,-96"/>
<text text-anchor="start" x="158" y="-84" font-family="Helvetica,sans-Serif" font-size="10.00">elc::defs::stream_n</text>
<text text-anchor="middle" x="200" y="-73" font-family="Helvetica,sans-Serif" font-size="10.00">::string_iostream</text>
</a>
</g>
</g>
<!-- Node1&#45;&gt;Node6 -->
<g id="edge5" class="edge">
<title>Node1&#45;&gt;Node6</title>
<path fill="none" stroke="#63b8ff" d="M155.35,-124.65C165.17,-115.27 176.42,-104.53 185.17,-96.16"/>
<polygon fill="#63b8ff" stroke="#63b8ff" points="152.68,-122.36 147.87,-131.8 157.52,-127.42 152.68,-122.36"/>
</g>
<!-- Node2 -->
<g id="node2" class="node">
<title>Node2</title>
<g id="a_node2"><a xlink:href="structelc_1_1defs_1_1stream__n_1_1base__ostream.html" target="_top" xlink:title=" ">
<polygon fill="white" stroke="#666666" points="183,-228 83,-228 83,-198 183,-198 183,-228"/>
<text text-anchor="start" x="91" y="-216" font-family="Helvetica,sans-Serif" font-size="10.00">elc::defs::stream_n</text>
<text text-anchor="middle" x="133" y="-205" font-family="Helvetica,sans-Serif" font-size="10.00">::base_ostream</text>
</a>
</g>
</g>
<!-- Node2&#45;&gt;Node1 -->
<g id="edge1" class="edge">
<title>Node2&#45;&gt;Node1</title>
<path fill="none" stroke="#63b8ff" d="M133,-187.54C133,-178.96 133,-169.61 133,-162.16"/>
<polygon fill="#63b8ff" stroke="#63b8ff" points="129.5,-187.8 133,-197.8 136.5,-187.8 129.5,-187.8"/>
</g>
<!-- Node3 -->
<g id="node3" class="node">
<title>Node3</title>
<g id="a_node3"><a xlink:href="structelc_1_1defs_1_1stream__n_1_1base__stream.html" target="_top" xlink:title=" ">
<polygon fill="white" stroke="#666666" points="183,-294 83,-294 83,-264 183,-264 183,-294"/>
<text text-anchor="start" x="91" y="-282" font-family="Helvetica,sans-Serif" font-size="10.00">elc::defs::stream_n</text>
<text text-anchor="middle" x="133" y="-271" font-family="Helvetica,sans-Serif" font-size="10.00">::base_stream</text>
</a>
</g>
</g>
<!-- Node3&#45;&gt;Node2 -->
<g id="edge2" class="edge">
<title>Node3&#45;&gt;Node2</title>
<path fill="none" stroke="#63b8ff" d="M133,-253.54C133,-244.96 133,-235.61 133,-228.16"/>
<polygon fill="#63b8ff" stroke="#63b8ff" points="129.5,-253.8 133,-263.8 136.5,-253.8 129.5,-253.8"/>
</g>
<!-- Node5 -->
<g id="node5" class="node">
<title>Node5</title>
<g id="a_node5"><a xlink:href="structelc_1_1defs_1_1stream__n_1_1noexcept__string__iostream.html" target="_top" xlink:title=" ">
<polygon fill="white" stroke="#666666" points="200,-30 66,-30 66,0 200,0 200,-30"/>
<text text-anchor="start" x="74" y="-18" font-family="Helvetica,sans-Serif" font-size="10.00">elc::defs::stream_n</text>
<text text-anchor="middle" x="133" y="-7" font-family="Helvetica,sans-Serif" font-size="10.00">::noexcept_string_iostream</text>
</a>
</g>
</g>
<!-- Node4&#45;&gt;Node5 -->
<g id="edge4" class="edge">
<title>Node4&#45;&gt;Node5</title>
<path fill="none" stroke="#63b8ff" d="M88.35,-58.65C98.17,-49.27 109.42,-38.53 118.17,-30.16"/>
<polygon fill="#63b8ff" stroke="#63b8ff" points="85.68,-56.36 80.87,-65.8 90.52,-61.42 85.68,-56.36"/>
</g>
<!-- Node6&#45;&gt;Node5 -->
<g id="edge6" class="edge">
<title>Node6&#45;&gt;Node5</title>
<path fill="none" stroke="#63b8ff" d="M177.65,-58.65C167.83,-49.27 156.58,-38.53 147.83,-30.16"/>
<polygon fill="#63b8ff" stroke="#63b8ff" points="175.48,-61.42 185.13,-65.8 180.32,-56.36 175.48,-61.42"/>
</g>
</g>
</svg>
