<?xml version="1.0" encoding="UTF-8" standalone="no"?>
<!DOCTYPE svg PUBLIC "-//W3C//DTD SVG 1.1//EN"
 "http://www.w3.org/Graphics/SVG/1.1/DTD/svg11.dtd">
<!-- Generated by graphviz version 6.0.1 (20220911.1526)
 -->
<!-- Title: elc::defs::core::expr Pages: 1 -->
<!--zoomable 228 -->
<svg id="main" version="1.1" xmlns="http://www.w3.org/2000/svg" xmlns:xlink="http://www.w3.org/1999/xlink" xml:space="preserve" onload="init(evt)">
<style type="text/css"><![CDATA[
.edge:hover path { stroke: red; }
.edge:hover polygon { stroke: red; fill: red; }
]]></style>
<script type="text/javascript"><![CDATA[
var edges = document.getElementsByTagName('g');
if (edges && edges.length) {
  for (var i=0;i<edges.length;i++) {
    if (edges[i].id.substr(0,4)=='edge') {
      edges[i].setAttribute('class','edge');
    }
  }
}
]]></script>
        <defs>
                <circle id="rim" cx="0" cy="0" r="7"/>
                <circle id="rim2" cx="0" cy="0" r="3.5"/>
                <g id="zoomPlus">
                        <use xlink:href="#rim" fill="#404040">
                                <set attributeName="fill" to="#808080" begin="zoomplus.mouseover" end="zoomplus.mouseout"/>
                        </use>
                        <path d="M-4,0h8M0,-4v8" fill="none" stroke="white" stroke-width="1.5" pointer-events="none"/>
                </g>
                <g id="zoomMin">
                        <use xlink:href="#rim" fill="#404040">
                                <set attributeName="fill" to="#808080" begin="zoomminus.mouseover" end="zoomminus.mouseout"/>
                        </use>
                        <path d="M-4,0h8" fill="none" stroke="white" stroke-width="1.5" pointer-events="none"/>
                </g>
                <g id="dirArrow">
                        <path fill="none" stroke="white" stroke-width="1.5" d="M0,-3.0v7 M-2.5,-0.5L0,-3.0L2.5,-0.5"/>
                </g>
               <g id="resetDef">
                       <use xlink:href="#rim2" fill="#404040">
                               <set attributeName="fill" to="#808080" begin="reset.mouseover" end="reset.mouseout"/>
                       </use>
               </g>
        </defs>

<script type="text/javascript">
var viewWidth = 1025;
var viewHeight = 228;
var sectionId = 'dynsection-1';
</script>
<script xlink:href="svgpan.js"/>
<svg id="graph" class="graph">
<g id="viewport">
<title>elc::defs::core::expr</title>
<!-- Node1 -->
<g id="node1" class="node">
<title>Node1</title>
<g id="a_node1"><a xlink:title=" ">
<polygon fill="#999999" stroke="#666666" points="1017,-135.5 914,-135.5 914,-116.5 1017,-116.5 1017,-135.5"/>
<text text-anchor="middle" x="965.5" y="-123.5" font-family="Helvetica,sans-Serif" font-size="10.00">elc::defs::core::expr</text>
</a>
</g>
</g>
<!-- Node2 -->
<g id="node2" class="node">
<title>Node2</title>
<g id="a_node2"><a xlink:href="structelc_1_1defs_1_1core_1_1cons.html" target="_top" xlink:title=" ">
<polygon fill="white" stroke="#666666" points="869.5,-160.5 764.5,-160.5 764.5,-141.5 869.5,-141.5 869.5,-160.5"/>
<text text-anchor="middle" x="817" y="-148.5" font-family="Helvetica,sans-Serif" font-size="10.00">elc::defs::core::cons</text>
</a>
</g>
</g>
<!-- Node2&#45;&gt;Node1 -->
<g id="edge1" class="edge">
<title>Node2&#45;&gt;Node1</title>
<path fill="none" stroke="#63b8ff" d="M879.55,-140.5C890.96,-138.55 902.77,-136.53 913.81,-134.65"/>
<polygon fill="#63b8ff" stroke="#63b8ff" points="878.92,-137.05 869.65,-142.19 880.1,-143.95 878.92,-137.05"/>
</g>
<!-- Node3 -->
<g id="node3" class="node">
<title>Node3</title>
<g id="a_node3"><a xlink:href="structelc_1_1defs_1_1core_1_1node__like.html" target="_top" xlink:title=" ">
<polygon fill="white" stroke="#666666" points="699,-197.5 574,-197.5 574,-178.5 699,-178.5 699,-197.5"/>
<text text-anchor="middle" x="636.5" y="-185.5" font-family="Helvetica,sans-Serif" font-size="10.00">elc::defs::core::node_like</text>
</a>
</g>
</g>
<!-- Node3&#45;&gt;Node2 -->
<g id="edge2" class="edge">
<title>Node3&#45;&gt;Node2</title>
<path fill="none" stroke="#63b8ff" d="M693.39,-176.42C717.98,-171.32 746.52,-165.4 769.88,-160.56"/>
<polygon fill="#63b8ff" stroke="#63b8ff" points="692.55,-173.01 683.47,-178.47 693.97,-179.87 692.55,-173.01"/>
</g>
<!-- Node4 -->
<g id="node4" class="node">
<title>Node4</title>
<g id="a_node4"><a xlink:title=" ">
<polygon fill="white" stroke="#666666" points="495,-219.5 346,-219.5 346,-156.5 495,-156.5 495,-219.5"/>
<text text-anchor="start" x="354" y="-207.5" font-family="Helvetica,sans-Serif" font-size="10.00">type_info_t&lt; node_like</text>
<text text-anchor="middle" x="420.5" y="-196.5" font-family="Helvetica,sans-Serif" font-size="10.00"> &gt;:: template </text>
<text text-anchor="start" x="354" y="-185.5" font-family="Helvetica,sans-Serif" font-size="10.00">	with_common_attribute</text>
<text text-anchor="start" x="354" y="-174.5" font-family="Helvetica,sans-Serif" font-size="10.00">&lt; abstract_base, weak_ref</text>
<text text-anchor="middle" x="420.5" y="-163.5" font-family="Helvetica,sans-Serif" font-size="10.00">_able, replace_able, ref_able &gt;</text>
</a>
</g>
</g>
<!-- Node4&#45;&gt;Node3 -->
<g id="edge3" class="edge">
<title>Node4&#45;&gt;Node3</title>
<path fill="none" stroke="#63b8ff" d="M505.19,-188C528.05,-188 552.41,-188 573.81,-188"/>
<polygon fill="#63b8ff" stroke="#63b8ff" points="505.15,-184.5 495.15,-188 505.15,-191.5 505.15,-184.5"/>
</g>
<!-- Node5 -->
<g id="node5" class="node">
<title>Node5</title>
<g id="a_node5"><a xlink:title=" ">
<polygon fill="white" stroke="#666666" points="697.5,-160.5 575.5,-160.5 575.5,-141.5 697.5,-141.5 697.5,-160.5"/>
<text text-anchor="middle" x="636.5" y="-148.5" font-family="Helvetica,sans-Serif" font-size="10.00">instance_struct&lt; cons &gt;</text>
</a>
</g>
</g>
<!-- Node5&#45;&gt;Node2 -->
<g id="edge4" class="edge">
<title>Node5&#45;&gt;Node2</title>
<path fill="none" stroke="#63b8ff" d="M707.93,-151C726.73,-151 746.69,-151 764.27,-151"/>
<polygon fill="#63b8ff" stroke="#63b8ff" points="707.93,-147.5 697.93,-151 707.93,-154.5 707.93,-147.5"/>
</g>
<!-- Node6 -->
<g id="node6" class="node">
<title>Node6</title>
<g id="a_node6"><a xlink:href="structelc_1_1defs_1_1core_1_1value.html" target="_top" xlink:title=" ">
<polygon fill="white" stroke="#666666" points="689.5,-123.5 583.5,-123.5 583.5,-104.5 689.5,-104.5 689.5,-123.5"/>
<text text-anchor="middle" x="636.5" y="-111.5" font-family="Helvetica,sans-Serif" font-size="10.00">elc::defs::core::value</text>
</a>
</g>
</g>
<!-- Node6&#45;&gt;Node2 -->
<g id="edge5" class="edge">
<title>Node6&#45;&gt;Node2</title>
<path fill="none" stroke="#9a32cd" stroke-dasharray="5,2" d="M700.01,-117.7C713.04,-119.32 726.58,-121.65 739,-125 747.45,-127.28 748.8,-129.94 757,-133 765.03,-136 773.8,-138.88 782.07,-141.42"/>
<polygon fill="#9a32cd" stroke="#9a32cd" points="700.04,-114.18 689.71,-116.54 699.26,-121.13 700.04,-114.18"/>
<text text-anchor="middle" x="728" y="-139" font-family="Helvetica,sans-Serif" font-size="10.00"> _car</text>
<text text-anchor="middle" x="728" y="-128" font-family="Helvetica,sans-Serif" font-size="10.00">_cdr</text>
</g>
<!-- Node7 -->
<g id="node7" class="node">
<title>Node7</title>
<g id="a_node7"><a xlink:href="structelc_1_1defs_1_1base_1_1non__copy__assign__able.html" target="_top" xlink:title="禁止复制赋值">
<polygon fill="white" stroke="#666666" points="471.5,-134 369.5,-134 369.5,-104 471.5,-104 471.5,-134"/>
<text text-anchor="start" x="377.5" y="-122" font-family="Helvetica,sans-Serif" font-size="10.00">elc::defs::base::non</text>
<text text-anchor="middle" x="420.5" y="-111" font-family="Helvetica,sans-Serif" font-size="10.00">_copy_assign_able</text>
</a>
</g>
</g>
<!-- Node7&#45;&gt;Node6 -->
<g id="edge6" class="edge">
<title>Node7&#45;&gt;Node6</title>
<path fill="none" stroke="#63b8ff" d="M481.8,-117.59C513.8,-116.84 552.73,-115.93 583.41,-115.22"/>
<polygon fill="#63b8ff" stroke="#63b8ff" points="481.59,-114.09 471.67,-117.83 481.75,-121.09 481.59,-114.09"/>
</g>
<!-- Node8 -->
<g id="node8" class="node">
<title>Node8</title>
<g id="a_node8"><a xlink:href="structelc_1_1defs_1_1core_1_1value_1_1null__data__t.html" target="_top" xlink:title=" ">
<polygon fill="white" stroke="#666666" points="473.5,-86 367.5,-86 367.5,-56 473.5,-56 473.5,-86"/>
<text text-anchor="start" x="375.5" y="-74" font-family="Helvetica,sans-Serif" font-size="10.00">elc::defs::core::value</text>
<text text-anchor="middle" x="420.5" y="-63" font-family="Helvetica,sans-Serif" font-size="10.00">::null_data_t</text>
</a>
</g>
</g>
<!-- Node8&#45;&gt;Node6 -->
<g id="edge7" class="edge">
<title>Node8&#45;&gt;Node6</title>
<path fill="none" stroke="#9a32cd" stroke-dasharray="5,2" d="M483.65,-83.49C516.91,-90.17 557.22,-98.27 587.95,-104.45"/>
<polygon fill="#9a32cd" stroke="#9a32cd" points="484.07,-80 473.58,-81.46 482.69,-86.87 484.07,-80"/>
<text text-anchor="middle" x="534.5" y="-101" font-family="Helvetica,sans-Serif" font-size="10.00"> null_data</text>
</g>
<!-- Node9 -->
<g id="node9" class="node">
<title>Node9</title>
<g id="a_node9"><a xlink:title=" ">
<polygon fill="white" stroke="#666666" points="309,-110 202,-110 202,-80 309,-80 309,-110"/>
<text text-anchor="start" x="210" y="-98" font-family="Helvetica,sans-Serif" font-size="10.00">instance_struct&lt; null</text>
<text text-anchor="middle" x="255.5" y="-87" font-family="Helvetica,sans-Serif" font-size="10.00">_data_t &gt;</text>
</a>
</g>
</g>
<!-- Node9&#45;&gt;Node8 -->
<g id="edge8" class="edge">
<title>Node9&#45;&gt;Node8</title>
<path fill="none" stroke="#63b8ff" d="M319.64,-85.7C335.44,-83.38 352.21,-80.91 367.4,-78.67"/>
<polygon fill="#63b8ff" stroke="#63b8ff" points="318.8,-82.29 309.42,-87.21 319.82,-89.21 318.8,-82.29"/>
</g>
<!-- Node10 -->
<g id="node10" class="node">
<title>Node10</title>
<g id="a_node10"><a xlink:href="structelc_1_1defs_1_1core_1_1value_1_1base__data__t.html" target="_top" xlink:title=" ">
<polygon fill="white" stroke="#666666" points="308.5,-62 202.5,-62 202.5,-32 308.5,-32 308.5,-62"/>
<text text-anchor="start" x="210.5" y="-50" font-family="Helvetica,sans-Serif" font-size="10.00">elc::defs::core::value</text>
<text text-anchor="middle" x="255.5" y="-39" font-family="Helvetica,sans-Serif" font-size="10.00">::base_data_t</text>
</a>
</g>
</g>
<!-- Node10&#45;&gt;Node8 -->
<g id="edge9" class="edge">
<title>Node10&#45;&gt;Node8</title>
<path fill="none" stroke="#63b8ff" d="M318.42,-56.12C334.57,-58.5 351.82,-61.04 367.41,-63.33"/>
<polygon fill="#63b8ff" stroke="#63b8ff" points="318.93,-52.65 308.52,-54.66 317.91,-59.58 318.93,-52.65"/>
</g>
<!-- Node11 -->
<g id="node11" class="node">
<title>Node11</title>
<g id="a_node11"><a xlink:title=" ">
<polygon fill="white" stroke="#666666" points="165,-111.5 0,-111.5 0,-48.5 165,-48.5 165,-111.5"/>
<text text-anchor="start" x="8" y="-99.5" font-family="Helvetica,sans-Serif" font-size="10.00">type_info_t&lt; base_data</text>
<text text-anchor="middle" x="82.5" y="-88.5" font-family="Helvetica,sans-Serif" font-size="10.00">_t &gt;:: template </text>
<text text-anchor="start" x="8" y="-77.5" font-family="Helvetica,sans-Serif" font-size="10.00">		with_common_attribute</text>
<text text-anchor="start" x="8" y="-66.5" font-family="Helvetica,sans-Serif" font-size="10.00">&lt; abstract_base, ref_able,</text>
<text text-anchor="middle" x="82.5" y="-55.5" font-family="Helvetica,sans-Serif" font-size="10.00"> never_in_array, replace_able &gt;</text>
</a>
</g>
</g>
<!-- Node11&#45;&gt;Node10 -->
<g id="edge10" class="edge">
<title>Node11&#45;&gt;Node10</title>
<path fill="none" stroke="#63b8ff" d="M175.24,-62.3C184.43,-60.52 193.53,-58.77 202.1,-57.11"/>
<polygon fill="#63b8ff" stroke="#63b8ff" points="174.4,-58.89 165.24,-64.22 175.73,-65.77 174.4,-58.89"/>
</g>
<!-- Node12 -->
<g id="node12" class="node">
<title>Node12</title>
<g id="a_node12"><a xlink:href="classelc_1_1defs_1_1base_1_1build__by__get__only.html" target="_top" xlink:title=" ">
<polygon fill="white" stroke="#666666" points="136,-30 29,-30 29,0 136,0 136,-30"/>
<text text-anchor="start" x="37" y="-18" font-family="Helvetica,sans-Serif" font-size="10.00">elc::defs::base::build</text>
<text text-anchor="middle" x="82.5" y="-7" font-family="Helvetica,sans-Serif" font-size="10.00">_by_get_only</text>
</a>
</g>
</g>
<!-- Node12&#45;&gt;Node10 -->
<g id="edge11" class="edge">
<title>Node12&#45;&gt;Node10</title>
<path fill="none" stroke="#63b8ff" d="M146.25,-26.74C164.66,-30.19 184.59,-33.92 202.27,-37.23"/>
<polygon fill="#63b8ff" stroke="#63b8ff" points="146.67,-23.26 136.2,-24.86 145.39,-30.14 146.67,-23.26"/>
</g>
<!-- Node13 -->
<g id="node13" class="node">
<title>Node13</title>
<g id="a_node13"><a xlink:title=" ">
<polygon fill="white" stroke="#666666" points="877,-123.5 757,-123.5 757,-104.5 877,-104.5 877,-123.5"/>
<text text-anchor="middle" x="817" y="-111.5" font-family="Helvetica,sans-Serif" font-size="10.00">instance_struct&lt; expr &gt;</text>
</a>
</g>
</g>
<!-- Node13&#45;&gt;Node1 -->
<g id="edge12" class="edge">
<title>Node13&#45;&gt;Node1</title>
<path fill="none" stroke="#63b8ff" d="M887.16,-119.66C896.06,-120.39 905.05,-121.13 913.59,-121.83"/>
<polygon fill="#63b8ff" stroke="#63b8ff" points="887.42,-116.17 877.16,-118.85 886.85,-123.15 887.42,-116.17"/>
</g>
</g>
</svg>
        <g id="navigator" transform="translate(0 0)" fill="#404254">
                <rect fill="#f2f5e9" fill-opacity="0.5" stroke="#606060" stroke-width=".5" x="0" y="0" width="60" height="60"/>
                <use id="zoomplus" xlink:href="#zoomPlus" x="17" y="9" onmousedown="handleZoom(evt,'in')"/>
                <use id="zoomminus" xlink:href="#zoomMin" x="42" y="9" onmousedown="handleZoom(evt,'out')"/>
                <use id="reset" xlink:href="#resetDef" x="30" y="36" onmousedown="handleReset()"/>
                <g id="arrowUp" xlink:href="#dirArrow" transform="translate(30 24)" onmousedown="handlePan(0,-1)">
                  <use xlink:href="#rim" fill="#404040">
                        <set attributeName="fill" to="#808080" begin="arrowUp.mouseover" end="arrowUp.mouseout"/>
                  </use>
                  <path fill="none" stroke="white" stroke-width="1.5" d="M0,-3.0v7 M-2.5,-0.5L0,-3.0L2.5,-0.5"/>
                </g>
                <g id="arrowRight" xlink:href="#dirArrow" transform="rotate(90) translate(36 -43)" onmousedown="handlePan(1,0)">
                  <use xlink:href="#rim" fill="#404040">
                        <set attributeName="fill" to="#808080" begin="arrowRight.mouseover" end="arrowRight.mouseout"/>
                  </use>
                  <path fill="none" stroke="white" stroke-width="1.5" d="M0,-3.0v7 M-2.5,-0.5L0,-3.0L2.5,-0.5"/>
                </g>
                <g id="arrowDown" xlink:href="#dirArrow" transform="rotate(180) translate(-30 -48)" onmousedown="handlePan(0,1)">
                  <use xlink:href="#rim" fill="#404040">
                        <set attributeName="fill" to="#808080" begin="arrowDown.mouseover" end="arrowDown.mouseout"/>
                  </use>
                  <path fill="none" stroke="white" stroke-width="1.5" d="M0,-3.0v7 M-2.5,-0.5L0,-3.0L2.5,-0.5"/>
                </g>
                <g id="arrowLeft" xlink:href="#dirArrow" transform="rotate(270) translate(-36 17)" onmousedown="handlePan(-1,0)">
                  <use xlink:href="#rim" fill="#404040">
                        <set attributeName="fill" to="#808080" begin="arrowLeft.mouseover" end="arrowLeft.mouseout"/>
                  </use>
                  <path fill="none" stroke="white" stroke-width="1.5" d="M0,-3.0v7 M-2.5,-0.5L0,-3.0L2.5,-0.5"/>
                </g>
        </g>
        <svg viewBox="0 0 15 15" width="100%" height="30px" preserveAspectRatio="xMaxYMin meet">
         <g id="arrow_out" transform="scale(0.3 0.3)">
          <a xlink:href="structelc_1_1defs_1_1core_1_1expr__coll__graph_org.svg" target="_base">
           <rect id="button" ry="5" rx="5" y="6" x="6" height="38" width="38"
                fill="#f2f5e9" fill-opacity="0.5" stroke="#606060" stroke-width="1.0"/>
           <path id="arrow"
             d="M 11.500037,31.436501 C 11.940474,20.09759 22.043105,11.32322 32.158766,21.979434 L 37.068811,17.246167 C 37.068811,17.246167 37.088388,32 37.088388,32 L 22.160133,31.978069 C 22.160133,31.978069 26.997745,27.140456 26.997745,27.140456 C 18.528582,18.264221 13.291696,25.230495 11.500037,31.436501 z"
             style="fill:#404040;"/>
          </a>
         </g>
        </svg>
</svg>
