<?xml version="1.0" encoding="UTF-8" standalone="no"?>
<!DOCTYPE svg PUBLIC "-//W3C//DTD SVG 1.1//EN"
 "http://www.w3.org/Graphics/SVG/1.1/DTD/svg11.dtd">
<!-- Generated by graphviz version 6.0.1 (20220911.1526)
 -->
<!-- Title: elc::defs::string_n::string_data_n::comn_string_data_t&lt; char_T &gt; Pages: 1 -->
<svg width="803pt" height="303pt"
 viewBox="0.00 0.00 803.00 302.50" xmlns="http://www.w3.org/2000/svg" xmlns:xlink="http://www.w3.org/1999/xlink">
<g id="graph0" class="graph" transform="scale(1 1) rotate(0) translate(4 298.5)">
<title>elc::defs::string_n::string_data_n::comn_string_data_t&lt; char_T &gt;</title>
<!-- Node1 -->
<g id="node1" class="node">
<title>Node1</title>
<g id="a_node1"><a xlink:title=" ">
<polygon fill="#999999" stroke="#666666" points="795,-140 670,-140 670,-99 795,-99 795,-140"/>
<text text-anchor="start" x="678" y="-128" font-family="Helvetica,sans-Serif" font-size="10.00">elc::defs::string_n</text>
<text text-anchor="start" x="678" y="-117" font-family="Helvetica,sans-Serif" font-size="10.00">::string_data_n::comn</text>
<text text-anchor="middle" x="732.5" y="-106" font-family="Helvetica,sans-Serif" font-size="10.00">_string_data_t&lt; char_T &gt;</text>
</a>
</g>
</g>
<!-- Node2 -->
<g id="node2" class="node">
<title>Node2</title>
<g id="a_node2"><a xlink:href="structelc_1_1defs_1_1string__n_1_1string__data__n_1_1base__string__data__t.html" target="_top" xlink:title=" ">
<polygon fill="white" stroke="#666666" points="511.5,-208 386.5,-208 386.5,-167 511.5,-167 511.5,-208"/>
<text text-anchor="start" x="394.5" y="-196" font-family="Helvetica,sans-Serif" font-size="10.00">elc::defs::string_n</text>
<text text-anchor="start" x="394.5" y="-185" font-family="Helvetica,sans-Serif" font-size="10.00">::string_data_n::base</text>
<text text-anchor="middle" x="449" y="-174" font-family="Helvetica,sans-Serif" font-size="10.00">_string_data_t&lt; char_T &gt;</text>
</a>
</g>
</g>
<!-- Node2&#45;&gt;Node1 -->
<g id="edge1" class="edge">
<title>Node2&#45;&gt;Node1</title>
<path fill="none" stroke="#63b8ff" d="M522.03,-170.63C560.61,-161.53 608.93,-150.03 652,-139.5 657.81,-138.08 663.85,-136.59 669.89,-135.08"/>
<polygon fill="#63b8ff" stroke="#63b8ff" points="520.87,-167.3 511.94,-173.01 522.47,-174.12 520.87,-167.3"/>
</g>
<!-- Node3 -->
<g id="node3" class="node">
<title>Node3</title>
<g id="a_node3"><a xlink:title=" ">
<polygon fill="white" stroke="#666666" points="285,-294.5 0,-294.5 0,-220.5 285,-220.5 285,-294.5"/>
<text text-anchor="start" x="8" y="-282.5" font-family="Helvetica,sans-Serif" font-size="10.00">type_info_t&lt; base_string</text>
<text text-anchor="start" x="8" y="-271.5" font-family="Helvetica,sans-Serif" font-size="10.00">_data_t&lt; char_T &gt; &gt;:: template</text>
<text text-anchor="middle" x="142.5" y="-260.5" font-family="Helvetica,sans-Serif" font-size="10.00"> </text>
<text text-anchor="start" x="8" y="-249.5" font-family="Helvetica,sans-Serif" font-size="10.00">							with_common_attribute</text>
<text text-anchor="start" x="8" y="-238.5" font-family="Helvetica,sans-Serif" font-size="10.00">&lt; abstract_base, never_in_array,</text>
<text text-anchor="middle" x="142.5" y="-227.5" font-family="Helvetica,sans-Serif" font-size="10.00"> replace_able, ref_able &gt;</text>
</a>
</g>
</g>
<!-- Node3&#45;&gt;Node2 -->
<g id="edge2" class="edge">
<title>Node3&#45;&gt;Node2</title>
<path fill="none" stroke="#63b8ff" d="M295.07,-222.66C327.37,-215.23 359.72,-207.8 386.28,-201.69"/>
<polygon fill="#63b8ff" stroke="#63b8ff" points="294.01,-219.31 285.05,-224.96 295.58,-226.13 294.01,-219.31"/>
</g>
<!-- Node4 -->
<g id="node4" class="node">
<title>Node4</title>
<g id="a_node4"><a xlink:href="classelc_1_1defs_1_1base_1_1build__by__get__only.html" target="_top" xlink:title=" ">
<polygon fill="white" stroke="#666666" points="196,-202.5 89,-202.5 89,-172.5 196,-172.5 196,-202.5"/>
<text text-anchor="start" x="97" y="-190.5" font-family="Helvetica,sans-Serif" font-size="10.00">elc::defs::base::build</text>
<text text-anchor="middle" x="142.5" y="-179.5" font-family="Helvetica,sans-Serif" font-size="10.00">_by_get_only</text>
</a>
</g>
</g>
<!-- Node4&#45;&gt;Node2 -->
<g id="edge3" class="edge">
<title>Node4&#45;&gt;Node2</title>
<path fill="none" stroke="#63b8ff" d="M206.42,-187.5C259.12,-187.5 333.89,-187.5 386.25,-187.5"/>
<polygon fill="#63b8ff" stroke="#63b8ff" points="206.19,-184 196.19,-187.5 206.19,-191 206.19,-184"/>
</g>
<!-- Node5 -->
<g id="node5" class="node">
<title>Node5</title>
<g id="a_node5"><a xlink:href="structelc_1_1defs_1_1base_1_1hash__n_1_1hash__value__t.html" target="_top" xlink:title=" ">
<polygon fill="white" stroke="#666666" points="196,-154.5 89,-154.5 89,-124.5 196,-124.5 196,-154.5"/>
<text text-anchor="start" x="97" y="-142.5" font-family="Helvetica,sans-Serif" font-size="10.00">elc::defs::base::hash</text>
<text text-anchor="middle" x="142.5" y="-131.5" font-family="Helvetica,sans-Serif" font-size="10.00">_n::hash_value_t</text>
</a>
</g>
</g>
<!-- Node5&#45;&gt;Node2 -->
<g id="edge4" class="edge">
<title>Node5&#45;&gt;Node2</title>
<path fill="none" stroke="#9a32cd" stroke-dasharray="5,2" d="M206.15,-148.4C250.32,-154.79 310.85,-163.78 364,-172.5 371.16,-173.68 378.66,-174.95 386.1,-176.24"/>
<polygon fill="#9a32cd" stroke="#9a32cd" points="206.53,-144.92 196.14,-146.95 205.53,-151.84 206.53,-144.92"/>
<text text-anchor="middle" x="333.5" y="-175.5" font-family="Helvetica,sans-Serif" font-size="10.00"> _hash_cache</text>
</g>
<!-- Node6 -->
<g id="node6" class="node">
<title>Node6</title>
<g id="a_node6"><a xlink:title=" ">
<polygon fill="white" stroke="#666666" points="516,-148.5 382,-148.5 382,-118.5 516,-118.5 516,-148.5"/>
<text text-anchor="start" x="390" y="-136.5" font-family="Helvetica,sans-Serif" font-size="10.00">instance_struct&lt; comn</text>
<text text-anchor="middle" x="449" y="-125.5" font-family="Helvetica,sans-Serif" font-size="10.00">_string_data_t&lt; char_T &gt; &gt;</text>
</a>
</g>
</g>
<!-- Node6&#45;&gt;Node1 -->
<g id="edge5" class="edge">
<title>Node6&#45;&gt;Node1</title>
<path fill="none" stroke="#63b8ff" d="M526.38,-129.7C571.44,-127.46 627.72,-124.66 669.92,-122.56"/>
<polygon fill="#63b8ff" stroke="#63b8ff" points="526.17,-126.21 516.36,-130.2 526.52,-133.2 526.17,-126.21"/>
</g>
<!-- Node7 -->
<g id="node7" class="node">
<title>Node7</title>
<g id="a_node7"><a xlink:href="structelc_1_1defs_1_1base_1_1range__n_1_1match__pattern.html" target="_top" xlink:title=" ">
<polygon fill="white" stroke="#666666" points="513,-100 385,-100 385,-59 513,-59 513,-100"/>
<text text-anchor="start" x="393" y="-88" font-family="Helvetica,sans-Serif" font-size="10.00">elc::defs::base::range</text>
<text text-anchor="start" x="393" y="-77" font-family="Helvetica,sans-Serif" font-size="10.00">_n::match_pattern&lt; const</text>
<text text-anchor="middle" x="449" y="-66" font-family="Helvetica,sans-Serif" font-size="10.00"> char_T &gt;</text>
</a>
</g>
</g>
<!-- Node7&#45;&gt;Node1 -->
<g id="edge6" class="edge">
<title>Node7&#45;&gt;Node1</title>
<path fill="none" stroke="#9a32cd" stroke-dasharray="5,2" d="M523.29,-89.91C568.87,-96.39 626.81,-104.62 669.99,-110.76"/>
<polygon fill="#9a32cd" stroke="#9a32cd" points="523.57,-86.42 513.17,-88.48 522.58,-93.35 523.57,-86.42"/>
<text text-anchor="middle" x="593" y="-110.5" font-family="Helvetica,sans-Serif" font-size="10.00"> _p_match_pattern</text>
</g>
<!-- Node8 -->
<g id="node8" class="node">
<title>Node8</title>
<g id="a_node8"><a xlink:href="structelc_1_1defs_1_1base_1_1array__like__n_1_1array__like__view__t.html" target="_top" xlink:title=" ">
<polygon fill="white" stroke="#666666" points="202,-68 83,-68 83,-27 202,-27 202,-68"/>
<text text-anchor="start" x="91" y="-56" font-family="Helvetica,sans-Serif" font-size="10.00">elc::defs::base::array</text>
<text text-anchor="start" x="91" y="-45" font-family="Helvetica,sans-Serif" font-size="10.00">_like_n::array_like_view</text>
<text text-anchor="middle" x="142.5" y="-34" font-family="Helvetica,sans-Serif" font-size="10.00">_t&lt; const char_T &gt;</text>
</a>
</g>
</g>
<!-- Node8&#45;&gt;Node7 -->
<g id="edge7" class="edge">
<title>Node8&#45;&gt;Node7</title>
<path fill="none" stroke="#9a32cd" stroke-dasharray="5,2" d="M212.3,-54.73C264.04,-60.17 334.4,-67.56 384.75,-72.85"/>
<polygon fill="#9a32cd" stroke="#9a32cd" points="212.52,-51.23 202.21,-53.67 211.79,-58.2 212.52,-51.23"/>
<text text-anchor="middle" x="333.5" y="-73.5" font-family="Helvetica,sans-Serif" font-size="10.00"> _pattern</text>
</g>
<!-- Node9 -->
<g id="node9" class="node">
<title>Node9</title>
<g id="a_node9"><a xlink:href="structelc_1_1defs_1_1base_1_1range__n_1_1reverse__match__pattern.html" target="_top" xlink:title=" ">
<polygon fill="white" stroke="#666666" points="514.5,-41 383.5,-41 383.5,0 514.5,0 514.5,-41"/>
<text text-anchor="start" x="391.5" y="-29" font-family="Helvetica,sans-Serif" font-size="10.00">elc::defs::base::range</text>
<text text-anchor="start" x="391.5" y="-18" font-family="Helvetica,sans-Serif" font-size="10.00">_n::reverse_match_pattern</text>
<text text-anchor="middle" x="449" y="-7" font-family="Helvetica,sans-Serif" font-size="10.00">&lt; const char_T &gt;</text>
</a>
</g>
</g>
<!-- Node8&#45;&gt;Node9 -->
<g id="edge9" class="edge">
<title>Node8&#45;&gt;Node9</title>
<path fill="none" stroke="#9a32cd" stroke-dasharray="5,2" d="M212.21,-41.41C263.51,-36.86 333.13,-30.69 383.41,-26.23"/>
<polygon fill="#9a32cd" stroke="#9a32cd" points="211.86,-37.92 202.21,-42.29 212.48,-44.9 211.86,-37.92"/>
<text text-anchor="middle" x="333.5" y="-36.5" font-family="Helvetica,sans-Serif" font-size="10.00"> _pattern</text>
</g>
<!-- Node9&#45;&gt;Node1 -->
<g id="edge8" class="edge">
<title>Node9&#45;&gt;Node1</title>
<path fill="none" stroke="#9a32cd" stroke-dasharray="5,2" d="M525.04,-37.02C563.66,-46.59 611.1,-60.02 652,-76.5 667.43,-82.72 683.71,-91.16 697.49,-98.92"/>
<polygon fill="#9a32cd" stroke="#9a32cd" points="525.45,-33.52 514.91,-34.55 523.79,-40.32 525.45,-33.52"/>
<text text-anchor="middle" x="593" y="-79.5" font-family="Helvetica,sans-Serif" font-size="10.00"> _p_reverse_match_pattern</text>
</g>
</g>
</svg>
