<?xml version="1.0" encoding="UTF-8" standalone="no"?>
<!DOCTYPE svg PUBLIC "-//W3C//DTD SVG 1.1//EN"
 "http://www.w3.org/Graphics/SVG/1.1/DTD/svg11.dtd">
<!-- Generated by graphviz version 6.0.1 (20220911.1526)
 -->
<!-- Title: elc::defs::string_n::string_data_n::base_string_data_t::get_others_hash_with_calculated_before_detail Pages: 1 -->
<!--zoomable 125 -->
<svg id="main" version="1.1" xmlns="http://www.w3.org/2000/svg" xmlns:xlink="http://www.w3.org/1999/xlink" xml:space="preserve" onload="init(evt)">
<style type="text/css"><![CDATA[
.edge:hover path { stroke: red; }
.edge:hover polygon { stroke: red; fill: red; }
]]></style>
<script type="text/javascript"><![CDATA[
var edges = document.getElementsByTagName('g');
if (edges && edges.length) {
  for (var i=0;i<edges.length;i++) {
    if (edges[i].id.substr(0,4)=='edge') {
      edges[i].setAttribute('class','edge');
    }
  }
}
]]></script>
        <defs>
                <circle id="rim" cx="0" cy="0" r="7"/>
                <circle id="rim2" cx="0" cy="0" r="3.5"/>
                <g id="zoomPlus">
                        <use xlink:href="#rim" fill="#404040">
                                <set attributeName="fill" to="#808080" begin="zoomplus.mouseover" end="zoomplus.mouseout"/>
                        </use>
                        <path d="M-4,0h8M0,-4v8" fill="none" stroke="white" stroke-width="1.5" pointer-events="none"/>
                </g>
                <g id="zoomMin">
                        <use xlink:href="#rim" fill="#404040">
                                <set attributeName="fill" to="#808080" begin="zoomminus.mouseover" end="zoomminus.mouseout"/>
                        </use>
                        <path d="M-4,0h8" fill="none" stroke="white" stroke-width="1.5" pointer-events="none"/>
                </g>
                <g id="dirArrow">
                        <path fill="none" stroke="white" stroke-width="1.5" d="M0,-3.0v7 M-2.5,-0.5L0,-3.0L2.5,-0.5"/>
                </g>
               <g id="resetDef">
                       <use xlink:href="#rim2" fill="#404040">
                               <set attributeName="fill" to="#808080" begin="reset.mouseover" end="reset.mouseout"/>
                       </use>
               </g>
        </defs>

<script type="text/javascript">
var viewWidth = 1161;
var viewHeight = 125;
var sectionId = 'dynsection-35';
</script>
<script xlink:href="svgpan.js"/>
<svg id="graph" class="graph">
<g id="viewport">
<title>elc::defs::string_n::string_data_n::base_string_data_t::get_others_hash_with_calculated_before_detail</title>
<!-- Node1 -->
<g id="node1" class="node">
<title>Node1</title>
<g id="a_node1"><a xlink:title=" ">
<polygon fill="#999999" stroke="#666666" points="175,-84 0,-84 0,-32 175,-32 175,-84"/>
<text text-anchor="start" x="8" y="-72" font-family="Helvetica,sans-Serif" font-size="10.00">elc::defs::string_n</text>
<text text-anchor="start" x="8" y="-61" font-family="Helvetica,sans-Serif" font-size="10.00">::string_data_n::base</text>
<text text-anchor="start" x="8" y="-50" font-family="Helvetica,sans-Serif" font-size="10.00">_string_data_t::get_others</text>
<text text-anchor="middle" x="87.5" y="-39" font-family="Helvetica,sans-Serif" font-size="10.00">_hash_with_calculated_before_detail</text>
</a>
</g>
</g>
<!-- Node2 -->
<g id="node2" class="node">
<title>Node2</title>
<g id="a_node2"><a xlink:href="structelc_1_1defs_1_1string__n_1_1string__data__n_1_1base__string__data__t.html#ac8eacd5ea9613716709d8c0288883971" target="_top" xlink:title=" ">
<polygon fill="white" stroke="#666666" points="333,-78.5 211,-78.5 211,-37.5 333,-37.5 333,-78.5"/>
<text text-anchor="start" x="219" y="-66.5" font-family="Helvetica,sans-Serif" font-size="10.00">elc::defs::string_n</text>
<text text-anchor="start" x="219" y="-55.5" font-family="Helvetica,sans-Serif" font-size="10.00">::string_data_n::base</text>
<text text-anchor="middle" x="272" y="-44.5" font-family="Helvetica,sans-Serif" font-size="10.00">_string_data_t::get_data</text>
</a>
</g>
</g>
<!-- Node1&#45;&gt;Node2 -->
<g id="edge1" class="edge">
<title>Node1&#45;&gt;Node2</title>
<path fill="none" stroke="#63b8ff" d="M175.21,-58C183.77,-58 192.39,-58 200.76,-58"/>
<polygon fill="#63b8ff" stroke="#63b8ff" points="200.83,-61.5 210.83,-58 200.83,-54.5 200.83,-61.5"/>
</g>
<!-- Node3 -->
<g id="node3" class="node">
<title>Node3</title>
<g id="a_node3"><a xlink:href="structelc_1_1defs_1_1string__n_1_1string__data__n_1_1base__string__data__t.html#aa5f5e87e2c8bfafa419e22ffd0031e83" target="_top" xlink:title=" ">
<polygon fill="white" stroke="#666666" points="494,-78.5 369,-78.5 369,-37.5 494,-37.5 494,-78.5"/>
<text text-anchor="start" x="377" y="-66.5" font-family="Helvetica,sans-Serif" font-size="10.00">elc::defs::string_n</text>
<text text-anchor="start" x="377" y="-55.5" font-family="Helvetica,sans-Serif" font-size="10.00">::string_data_n::base</text>
<text text-anchor="middle" x="431.5" y="-44.5" font-family="Helvetica,sans-Serif" font-size="10.00">_string_data_t::get_c_str</text>
</a>
</g>
</g>
<!-- Node2&#45;&gt;Node3 -->
<g id="edge2" class="edge">
<title>Node2&#45;&gt;Node3</title>
<path fill="none" stroke="#63b8ff" d="M333.44,-58C341.71,-58 350.26,-58 358.7,-58"/>
<polygon fill="#63b8ff" stroke="#63b8ff" points="358.92,-61.5 368.92,-58 358.92,-54.5 358.92,-61.5"/>
</g>
<!-- Node4 -->
<g id="node4" class="node">
<title>Node4</title>
<g id="a_node4"><a xlink:href="structelc_1_1defs_1_1string__n_1_1string__data__n_1_1base__string__data__t.html#a227895efa43cef13ea08acbb270d1fd6" target="_top" xlink:title=" ">
<polygon fill="white" stroke="#666666" points="646,-84 530,-84 530,-32 646,-32 646,-84"/>
<text text-anchor="start" x="538" y="-72" font-family="Helvetica,sans-Serif" font-size="10.00">elc::defs::string_n</text>
<text text-anchor="start" x="538" y="-61" font-family="Helvetica,sans-Serif" font-size="10.00">::string_data_n::base</text>
<text text-anchor="start" x="538" y="-50" font-family="Helvetica,sans-Serif" font-size="10.00">_string_data_t::positive</text>
<text text-anchor="middle" x="588" y="-39" font-family="Helvetica,sans-Serif" font-size="10.00">_gc_profit</text>
</a>
</g>
</g>
<!-- Node3&#45;&gt;Node4 -->
<g id="edge3" class="edge">
<title>Node3&#45;&gt;Node4</title>
<path fill="none" stroke="#63b8ff" d="M494.01,-58C502.38,-58 511.02,-58 519.49,-58"/>
<polygon fill="#63b8ff" stroke="#63b8ff" points="519.72,-61.5 529.72,-58 519.72,-54.5 519.72,-61.5"/>
</g>
<!-- Node5 -->
<g id="node5" class="node">
<title>Node5</title>
<g id="a_node5"><a xlink:href="structelc_1_1defs_1_1string__n_1_1string__data__n_1_1base__string__data__t.html#a4310bddc1aa2f4c61118c83cfda142a3" target="_top" xlink:title=" ">
<polygon fill="white" stroke="#666666" points="795,-84 682,-84 682,-32 795,-32 795,-84"/>
<text text-anchor="start" x="690" y="-72" font-family="Helvetica,sans-Serif" font-size="10.00">elc::defs::string_n</text>
<text text-anchor="start" x="690" y="-61" font-family="Helvetica,sans-Serif" font-size="10.00">::string_data_n::base</text>
<text text-anchor="start" x="690" y="-50" font-family="Helvetica,sans-Serif" font-size="10.00">_string_data_t::get_gc</text>
<text text-anchor="middle" x="738.5" y="-39" font-family="Helvetica,sans-Serif" font-size="10.00">_profit</text>
</a>
</g>
</g>
<!-- Node4&#45;&gt;Node5 -->
<g id="edge4" class="edge">
<title>Node4&#45;&gt;Node5</title>
<path fill="none" stroke="#63b8ff" d="M646.41,-58C654.65,-58 663.18,-58 671.57,-58"/>
<polygon fill="#63b8ff" stroke="#63b8ff" points="671.7,-61.5 681.7,-58 671.7,-54.5 671.7,-61.5"/>
</g>
<!-- Node6 -->
<g id="node6" class="node">
<title>Node6</title>
<g id="a_node6"><a xlink:href="structelc_1_1defs_1_1string__n_1_1string__data__n_1_1base__string__data__t.html#ae456734a95cc74c83fd9cfd7d7724c00" target="_top" xlink:title=" ">
<polygon fill="white" stroke="#666666" points="993,-111.5 831,-111.5 831,-70.5 993,-70.5 993,-111.5"/>
<text text-anchor="start" x="839" y="-99.5" font-family="Helvetica,sans-Serif" font-size="10.00">elc::defs::string_n</text>
<text text-anchor="start" x="839" y="-88.5" font-family="Helvetica,sans-Serif" font-size="10.00">::string_data_n::base</text>
<text text-anchor="middle" x="912" y="-77.5" font-family="Helvetica,sans-Serif" font-size="10.00">_string_data_t::get_memory_cost</text>
</a>
</g>
</g>
<!-- Node5&#45;&gt;Node6 -->
<g id="edge5" class="edge">
<title>Node5&#45;&gt;Node6</title>
<path fill="none" stroke="#63b8ff" d="M795.18,-68.71C803.5,-70.31 812.24,-72 821.05,-73.69"/>
<polygon fill="#63b8ff" stroke="#63b8ff" points="820.51,-77.15 830.99,-75.61 821.84,-70.28 820.51,-77.15"/>
</g>
<!-- Node8 -->
<g id="node8" class="node">
<title>Node8</title>
<g id="a_node8"><a xlink:href="structelc_1_1defs_1_1string__n_1_1string__data__n_1_1base__string__data__t.html#a7384849ba6050fa2a369c8408921029e" target="_top" xlink:title=" ">
<polygon fill="white" stroke="#666666" points="981,-52 843,-52 843,0 981,0 981,-52"/>
<text text-anchor="start" x="851" y="-40" font-family="Helvetica,sans-Serif" font-size="10.00">elc::defs::string_n</text>
<text text-anchor="start" x="851" y="-29" font-family="Helvetica,sans-Serif" font-size="10.00">::string_data_n::base</text>
<text text-anchor="start" x="851" y="-18" font-family="Helvetica,sans-Serif" font-size="10.00">_string_data_t::get_memory</text>
<text text-anchor="middle" x="912" y="-7" font-family="Helvetica,sans-Serif" font-size="10.00">_cost_after_gc</text>
</a>
</g>
</g>
<!-- Node5&#45;&gt;Node8 -->
<g id="edge7" class="edge">
<title>Node5&#45;&gt;Node8</title>
<path fill="none" stroke="#63b8ff" d="M795.18,-47.61C807.14,-45.38 820,-42.98 832.64,-40.62"/>
<polygon fill="#63b8ff" stroke="#63b8ff" points="833.52,-44.02 842.71,-38.74 832.24,-37.14 833.52,-44.02"/>
</g>
<!-- Node7 -->
<g id="node7" class="node">
<title>Node7</title>
<g id="a_node7"><a xlink:href="structelc_1_1defs_1_1string__n_1_1string__data__n_1_1base__string__data__t.html#a30a518bb1035e437a55ad0aaec957940" target="_top" xlink:title=" ">
<polygon fill="white" stroke="#666666" points="1153,-117 1029,-117 1029,-65 1153,-65 1153,-117"/>
<text text-anchor="start" x="1037" y="-105" font-family="Helvetica,sans-Serif" font-size="10.00">elc::defs::string_n</text>
<text text-anchor="start" x="1037" y="-94" font-family="Helvetica,sans-Serif" font-size="10.00">::string_data_n::base</text>
<text text-anchor="start" x="1037" y="-83" font-family="Helvetica,sans-Serif" font-size="10.00">_string_data_t::get_base</text>
<text text-anchor="middle" x="1091" y="-72" font-family="Helvetica,sans-Serif" font-size="10.00">_memory_cost</text>
</a>
</g>
</g>
<!-- Node6&#45;&gt;Node7 -->
<g id="edge6" class="edge">
<title>Node6&#45;&gt;Node7</title>
<path fill="none" stroke="#63b8ff" d="M993.21,-91C1001.73,-91 1010.35,-91 1018.76,-91"/>
<polygon fill="#63b8ff" stroke="#63b8ff" points="1018.89,-94.5 1028.89,-91 1018.89,-87.5 1018.89,-94.5"/>
</g>
</g>
</svg>
        <g id="navigator" transform="translate(0 0)" fill="#404254">
                <rect fill="#f2f5e9" fill-opacity="0.5" stroke="#606060" stroke-width=".5" x="0" y="0" width="60" height="60"/>
                <use id="zoomplus" xlink:href="#zoomPlus" x="17" y="9" onmousedown="handleZoom(evt,'in')"/>
                <use id="zoomminus" xlink:href="#zoomMin" x="42" y="9" onmousedown="handleZoom(evt,'out')"/>
                <use id="reset" xlink:href="#resetDef" x="30" y="36" onmousedown="handleReset()"/>
                <g id="arrowUp" xlink:href="#dirArrow" transform="translate(30 24)" onmousedown="handlePan(0,-1)">
                  <use xlink:href="#rim" fill="#404040">
                        <set attributeName="fill" to="#808080" begin="arrowUp.mouseover" end="arrowUp.mouseout"/>
                  </use>
                  <path fill="none" stroke="white" stroke-width="1.5" d="M0,-3.0v7 M-2.5,-0.5L0,-3.0L2.5,-0.5"/>
                </g>
                <g id="arrowRight" xlink:href="#dirArrow" transform="rotate(90) translate(36 -43)" onmousedown="handlePan(1,0)">
                  <use xlink:href="#rim" fill="#404040">
                        <set attributeName="fill" to="#808080" begin="arrowRight.mouseover" end="arrowRight.mouseout"/>
                  </use>
                  <path fill="none" stroke="white" stroke-width="1.5" d="M0,-3.0v7 M-2.5,-0.5L0,-3.0L2.5,-0.5"/>
                </g>
                <g id="arrowDown" xlink:href="#dirArrow" transform="rotate(180) translate(-30 -48)" onmousedown="handlePan(0,1)">
                  <use xlink:href="#rim" fill="#404040">
                        <set attributeName="fill" to="#808080" begin="arrowDown.mouseover" end="arrowDown.mouseout"/>
                  </use>
                  <path fill="none" stroke="white" stroke-width="1.5" d="M0,-3.0v7 M-2.5,-0.5L0,-3.0L2.5,-0.5"/>
                </g>
                <g id="arrowLeft" xlink:href="#dirArrow" transform="rotate(270) translate(-36 17)" onmousedown="handlePan(-1,0)">
                  <use xlink:href="#rim" fill="#404040">
                        <set attributeName="fill" to="#808080" begin="arrowLeft.mouseover" end="arrowLeft.mouseout"/>
                  </use>
                  <path fill="none" stroke="white" stroke-width="1.5" d="M0,-3.0v7 M-2.5,-0.5L0,-3.0L2.5,-0.5"/>
                </g>
        </g>
        <svg viewBox="0 0 15 15" width="100%" height="30px" preserveAspectRatio="xMaxYMin meet">
         <g id="arrow_out" transform="scale(0.3 0.3)">
          <a xlink:href="structelc_1_1defs_1_1string__n_1_1string__data__n_1_1base__string__data__t_aa3494a4bee3098dd32856bc773d6bd62_cgraph_org.svg" target="_base">
           <rect id="button" ry="5" rx="5" y="6" x="6" height="38" width="38"
                fill="#f2f5e9" fill-opacity="0.5" stroke="#606060" stroke-width="1.0"/>
           <path id="arrow"
             d="M 11.500037,31.436501 C 11.940474,20.09759 22.043105,11.32322 32.158766,21.979434 L 37.068811,17.246167 C 37.068811,17.246167 37.088388,32 37.088388,32 L 22.160133,31.978069 C 22.160133,31.978069 26.997745,27.140456 26.997745,27.140456 C 18.528582,18.264221 13.291696,25.230495 11.500037,31.436501 z"
             style="fill:#404040;"/>
          </a>
         </g>
        </svg>
</svg>
