<?xml version="1.0" encoding="UTF-8" standalone="no"?>
<!DOCTYPE svg PUBLIC "-//W3C//DTD SVG 1.1//EN"
 "http://www.w3.org/Graphics/SVG/1.1/DTD/svg11.dtd">
<!-- Generated by graphviz version 6.0.1 (20220911.1526)
 -->
<!-- Title: elc::defs::stream_n::data_iostream Pages: 1 -->
<svg width="681pt" height="134pt"
 viewBox="0.00 0.00 681.00 134.00" xmlns="http://www.w3.org/2000/svg" xmlns:xlink="http://www.w3.org/1999/xlink">
<g id="graph0" class="graph" transform="scale(1 1) rotate(0) translate(4 130)">
<title>elc::defs::stream_n::data_iostream</title>
<!-- Node1 -->
<g id="node1" class="node">
<title>Node1</title>
<g id="a_node1"><a xlink:title=" ">
<polygon fill="#999999" stroke="#666666" points="508,-78 408,-78 408,-48 508,-48 508,-78"/>
<text text-anchor="start" x="416" y="-66" font-family="Helvetica,sans-Serif" font-size="10.00">elc::defs::stream_n</text>
<text text-anchor="middle" x="458" y="-55" font-family="Helvetica,sans-Serif" font-size="10.00">::data_iostream</text>
</a>
</g>
</g>
<!-- Node8 -->
<g id="node8" class="node">
<title>Node8</title>
<g id="a_node8"><a xlink:href="structelc_1_1defs_1_1stream__n_1_1noexcept__data__iostream.html" target="_top" xlink:title=" ">
<polygon fill="white" stroke="#666666" points="673,-78 544,-78 544,-48 673,-48 673,-78"/>
<text text-anchor="start" x="552" y="-66" font-family="Helvetica,sans-Serif" font-size="10.00">elc::defs::stream_n</text>
<text text-anchor="middle" x="608.5" y="-55" font-family="Helvetica,sans-Serif" font-size="10.00">::noexcept_data_iostream</text>
</a>
</g>
</g>
<!-- Node1&#45;&gt;Node8 -->
<g id="edge10" class="edge">
<title>Node1&#45;&gt;Node8</title>
<path fill="none" stroke="#63b8ff" d="M518.2,-63C526.66,-63 535.4,-63 543.95,-63"/>
<polygon fill="#63b8ff" stroke="#63b8ff" points="518.04,-59.5 508.04,-63 518.04,-66.5 518.04,-59.5"/>
</g>
<!-- Node2 -->
<g id="node2" class="node">
<title>Node2</title>
<g id="a_node2"><a xlink:href="structelc_1_1defs_1_1stream__n_1_1data__istream.html" target="_top" xlink:title=" ">
<polygon fill="white" stroke="#666666" points="372,-126 272,-126 272,-96 372,-96 372,-126"/>
<text text-anchor="start" x="280" y="-114" font-family="Helvetica,sans-Serif" font-size="10.00">elc::defs::stream_n</text>
<text text-anchor="middle" x="322" y="-103" font-family="Helvetica,sans-Serif" font-size="10.00">::data_istream</text>
</a>
</g>
</g>
<!-- Node2&#45;&gt;Node1 -->
<g id="edge1" class="edge">
<title>Node2&#45;&gt;Node1</title>
<path fill="none" stroke="#63b8ff" d="M374.6,-92.51C388.01,-87.71 402.28,-82.6 415.12,-78"/>
<polygon fill="#63b8ff" stroke="#63b8ff" points="373.26,-89.28 365.03,-95.94 375.63,-95.87 373.26,-89.28"/>
</g>
<!-- Node3 -->
<g id="node3" class="node">
<title>Node3</title>
<g id="a_node3"><a xlink:href="structelc_1_1defs_1_1stream__n_1_1base__istream.html" target="_top" xlink:title=" ">
<polygon fill="white" stroke="#666666" points="236,-102 136,-102 136,-72 236,-72 236,-102"/>
<text text-anchor="start" x="144" y="-90" font-family="Helvetica,sans-Serif" font-size="10.00">elc::defs::stream_n</text>
<text text-anchor="middle" x="186" y="-79" font-family="Helvetica,sans-Serif" font-size="10.00">::base_istream</text>
</a>
</g>
</g>
<!-- Node3&#45;&gt;Node2 -->
<g id="edge2" class="edge">
<title>Node3&#45;&gt;Node2</title>
<path fill="none" stroke="#63b8ff" d="M246.12,-97.59C254.72,-99.13 263.5,-100.7 271.87,-102.2"/>
<polygon fill="#63b8ff" stroke="#63b8ff" points="246.6,-94.12 236.14,-95.8 245.36,-101.01 246.6,-94.12"/>
</g>
<!-- Node7 -->
<g id="node7" class="node">
<title>Node7</title>
<g id="a_node7"><a xlink:href="structelc_1_1defs_1_1stream__n_1_1base__iostream.html" target="_top" xlink:title=" ">
<polygon fill="white" stroke="#666666" points="372,-78 272,-78 272,-48 372,-48 372,-78"/>
<text text-anchor="start" x="280" y="-66" font-family="Helvetica,sans-Serif" font-size="10.00">elc::defs::stream_n</text>
<text text-anchor="middle" x="322" y="-55" font-family="Helvetica,sans-Serif" font-size="10.00">::base_iostream</text>
</a>
</g>
</g>
<!-- Node3&#45;&gt;Node7 -->
<g id="edge8" class="edge">
<title>Node3&#45;&gt;Node7</title>
<path fill="none" stroke="#63b8ff" d="M246.12,-76.41C254.72,-74.87 263.5,-73.3 271.87,-71.8"/>
<polygon fill="#63b8ff" stroke="#63b8ff" points="245.36,-72.99 236.14,-78.2 246.6,-79.88 245.36,-72.99"/>
</g>
<!-- Node4 -->
<g id="node4" class="node">
<title>Node4</title>
<g id="a_node4"><a xlink:href="structelc_1_1defs_1_1stream__n_1_1base__stream.html" target="_top" xlink:title=" ">
<polygon fill="white" stroke="#666666" points="100,-78 0,-78 0,-48 100,-48 100,-78"/>
<text text-anchor="start" x="8" y="-66" font-family="Helvetica,sans-Serif" font-size="10.00">elc::defs::stream_n</text>
<text text-anchor="middle" x="50" y="-55" font-family="Helvetica,sans-Serif" font-size="10.00">::base_stream</text>
</a>
</g>
</g>
<!-- Node4&#45;&gt;Node3 -->
<g id="edge3" class="edge">
<title>Node4&#45;&gt;Node3</title>
<path fill="none" stroke="#63b8ff" d="M110.12,-73.59C118.72,-75.13 127.5,-76.7 135.87,-78.2"/>
<polygon fill="#63b8ff" stroke="#63b8ff" points="110.6,-70.12 100.14,-71.8 109.36,-77.01 110.6,-70.12"/>
</g>
<!-- Node6 -->
<g id="node6" class="node">
<title>Node6</title>
<g id="a_node6"><a xlink:href="structelc_1_1defs_1_1stream__n_1_1base__ostream.html" target="_top" xlink:title=" ">
<polygon fill="white" stroke="#666666" points="236,-54 136,-54 136,-24 236,-24 236,-54"/>
<text text-anchor="start" x="144" y="-42" font-family="Helvetica,sans-Serif" font-size="10.00">elc::defs::stream_n</text>
<text text-anchor="middle" x="186" y="-31" font-family="Helvetica,sans-Serif" font-size="10.00">::base_ostream</text>
</a>
</g>
</g>
<!-- Node4&#45;&gt;Node6 -->
<g id="edge6" class="edge">
<title>Node4&#45;&gt;Node6</title>
<path fill="none" stroke="#63b8ff" d="M110.12,-52.41C118.72,-50.87 127.5,-49.3 135.87,-47.8"/>
<polygon fill="#63b8ff" stroke="#63b8ff" points="109.36,-48.99 100.14,-54.2 110.6,-55.88 109.36,-48.99"/>
</g>
<!-- Node5 -->
<g id="node5" class="node">
<title>Node5</title>
<g id="a_node5"><a xlink:href="structelc_1_1defs_1_1stream__n_1_1data__ostream.html" target="_top" xlink:title=" ">
<polygon fill="white" stroke="#666666" points="372,-30 272,-30 272,0 372,0 372,-30"/>
<text text-anchor="start" x="280" y="-18" font-family="Helvetica,sans-Serif" font-size="10.00">elc::defs::stream_n</text>
<text text-anchor="middle" x="322" y="-7" font-family="Helvetica,sans-Serif" font-size="10.00">::data_ostream</text>
</a>
</g>
</g>
<!-- Node5&#45;&gt;Node1 -->
<g id="edge4" class="edge">
<title>Node5&#45;&gt;Node1</title>
<path fill="none" stroke="#63b8ff" d="M374.6,-33.49C388.01,-38.29 402.28,-43.4 415.12,-48"/>
<polygon fill="#63b8ff" stroke="#63b8ff" points="375.63,-30.13 365.03,-30.06 373.26,-36.72 375.63,-30.13"/>
</g>
<!-- Node6&#45;&gt;Node5 -->
<g id="edge5" class="edge">
<title>Node6&#45;&gt;Node5</title>
<path fill="none" stroke="#63b8ff" d="M246.12,-28.41C254.72,-26.87 263.5,-25.3 271.87,-23.8"/>
<polygon fill="#63b8ff" stroke="#63b8ff" points="245.36,-24.99 236.14,-30.2 246.6,-31.88 245.36,-24.99"/>
</g>
<!-- Node6&#45;&gt;Node7 -->
<g id="edge9" class="edge">
<title>Node6&#45;&gt;Node7</title>
<path fill="none" stroke="#63b8ff" d="M246.12,-49.59C254.72,-51.13 263.5,-52.7 271.87,-54.2"/>
<polygon fill="#63b8ff" stroke="#63b8ff" points="246.6,-46.12 236.14,-47.8 245.36,-53.01 246.6,-46.12"/>
</g>
<!-- Node7&#45;&gt;Node1 -->
<g id="edge7" class="edge">
<title>Node7&#45;&gt;Node1</title>
<path fill="none" stroke="#63b8ff" d="M382.4,-63C390.91,-63 399.59,-63 407.87,-63"/>
<polygon fill="#63b8ff" stroke="#63b8ff" points="382.14,-59.5 372.14,-63 382.14,-66.5 382.14,-59.5"/>
</g>
</g>
</svg>
