<?xml version="1.0" encoding="UTF-8" standalone="no"?>
<!DOCTYPE svg PUBLIC "-//W3C//DTD SVG 1.1//EN"
 "http://www.w3.org/Graphics/SVG/1.1/DTD/svg11.dtd">
<!-- Generated by graphviz version 6.0.1 (20220911.1526)
 -->
<!-- Title: elc::defs::core::value::operator&amp; Pages: 1 -->
<svg width="432pt" height="86pt"
 viewBox="0.00 0.00 432.00 86.00" xmlns="http://www.w3.org/2000/svg" xmlns:xlink="http://www.w3.org/1999/xlink">
<g id="graph0" class="graph" transform="scale(1 1) rotate(0) translate(4 82)">
<title>elc::defs::core::value::operator&amp;</title>
<!-- Node1 -->
<g id="node1" class="node">
<title>Node1</title>
<g id="a_node1"><a xlink:title=" ">
<polygon fill="#999999" stroke="#666666" points="106,-54 0,-54 0,-24 106,-24 106,-54"/>
<text text-anchor="start" x="8" y="-42" font-family="Helvetica,sans-Serif" font-size="10.00">elc::defs::core::value</text>
<text text-anchor="middle" x="53" y="-31" font-family="Helvetica,sans-Serif" font-size="10.00">::operator&amp;</text>
</a>
</g>
</g>
<!-- Node2 -->
<g id="node2" class="node">
<title>Node2</title>
<g id="a_node2"><a xlink:href="structelc_1_1defs_1_1core_1_1value.html#a0eac49dca48f54d2cd4579e66bbd63b1" target="_top" xlink:title=" ">
<polygon fill="white" stroke="#666666" points="248,-54 142,-54 142,-24 248,-24 248,-54"/>
<text text-anchor="start" x="150" y="-42" font-family="Helvetica,sans-Serif" font-size="10.00">elc::defs::core::value</text>
<text text-anchor="middle" x="195" y="-31" font-family="Helvetica,sans-Serif" font-size="10.00">::operator const_ptr</text>
</a>
</g>
</g>
<!-- Node1&#45;&gt;Node2 -->
<g id="edge1" class="edge">
<title>Node1&#45;&gt;Node2</title>
<path fill="none" stroke="#63b8ff" d="M106.13,-39C114.42,-39 123.07,-39 131.57,-39"/>
<polygon fill="#63b8ff" stroke="#63b8ff" points="131.83,-42.5 141.83,-39 131.83,-35.5 131.83,-42.5"/>
</g>
<!-- Node3 -->
<g id="node3" class="node">
<title>Node3</title>
<g id="a_node3"><a xlink:href="structelc_1_1defs_1_1core_1_1value_1_1base__data__t.html#ac1c09486bb2af7319ed3ff43bed87b31" target="_top" xlink:title=" ">
<polygon fill="white" stroke="#666666" points="415,-78 293,-78 293,-48 415,-48 415,-78"/>
<text text-anchor="start" x="301" y="-66" font-family="Helvetica,sans-Serif" font-size="10.00">elc::defs::core::value</text>
<text text-anchor="middle" x="354" y="-55" font-family="Helvetica,sans-Serif" font-size="10.00">::base_data_t::get_value</text>
</a>
</g>
</g>
<!-- Node2&#45;&gt;Node3 -->
<g id="edge2" class="edge">
<title>Node2&#45;&gt;Node3</title>
<path fill="none" stroke="#63b8ff" d="M248.28,-46.99C259.32,-48.68 271.14,-50.49 282.72,-52.26"/>
<polygon fill="#63b8ff" stroke="#63b8ff" points="282.39,-55.75 292.8,-53.8 283.45,-48.83 282.39,-55.75"/>
</g>
<!-- Node4 -->
<g id="node4" class="node">
<title>Node4</title>
<g id="a_node4"><a xlink:href="structelc_1_1defs_1_1memory_1_1ptr__n_1_1base__ptr__t.html#a44f476e6f5ff22f85494d86ac2125fb3" target="_top" xlink:title=" ">
<polygon fill="white" stroke="#666666" points="424,-30 284,-30 284,0 424,0 424,-30"/>
<text text-anchor="start" x="292" y="-18" font-family="Helvetica,sans-Serif" font-size="10.00">elc::defs::memory::</text>
<text text-anchor="middle" x="354" y="-7" font-family="Helvetica,sans-Serif" font-size="10.00">ptr_n::base_ptr_t::operator&#45;&gt;</text>
</a>
</g>
</g>
<!-- Node2&#45;&gt;Node4 -->
<g id="edge3" class="edge">
<title>Node2&#45;&gt;Node4</title>
<path fill="none" stroke="#63b8ff" d="M248.28,-31.01C256.49,-29.75 265.12,-28.43 273.77,-27.11"/>
<polygon fill="#63b8ff" stroke="#63b8ff" points="274.55,-30.53 283.91,-25.56 273.49,-23.61 274.55,-30.53"/>
</g>
</g>
</svg>
