<?xml version="1.0" encoding="UTF-8" standalone="no"?>
<!DOCTYPE svg PUBLIC "-//W3C//DTD SVG 1.1//EN"
 "http://www.w3.org/Graphics/SVG/1.1/DTD/svg11.dtd">
<!-- Generated by graphviz version 6.0.1 (20220911.1526)
 -->
<!-- Title: elc::defs::stream_n::memory_stream::write Pages: 1 -->
<svg width="444pt" height="162pt"
 viewBox="0.00 0.00 444.00 162.00" xmlns="http://www.w3.org/2000/svg" xmlns:xlink="http://www.w3.org/1999/xlink">
<g id="graph0" class="graph" transform="scale(1 1) rotate(0) translate(4 158)">
<title>elc::defs::stream_n::memory_stream::write</title>
<!-- Node1 -->
<g id="node1" class="node">
<title>Node1</title>
<g id="a_node1"><a xlink:title=" ">
<polygon fill="#999999" stroke="#666666" points="119,-94.5 0,-94.5 0,-64.5 119,-64.5 119,-94.5"/>
<text text-anchor="start" x="8" y="-82.5" font-family="Helvetica,sans-Serif" font-size="10.00">elc::defs::stream_n</text>
<text text-anchor="middle" x="59.5" y="-71.5" font-family="Helvetica,sans-Serif" font-size="10.00">::memory_stream::write</text>
</a>
</g>
</g>
<!-- Node2 -->
<g id="node2" class="node">
<title>Node2</title>
<g id="a_node2"><a xlink:href="structelc_1_1defs_1_1stream__n_1_1memory__stream.html#a65e818ceeadd10356f40d84f13e108e9" target="_top" xlink:title=" ">
<polygon fill="white" stroke="#666666" points="285,-148.5 155,-148.5 155,-118.5 285,-118.5 285,-148.5"/>
<text text-anchor="start" x="163" y="-136.5" font-family="Helvetica,sans-Serif" font-size="10.00">elc::defs::stream_n</text>
<text text-anchor="middle" x="220" y="-125.5" font-family="Helvetica,sans-Serif" font-size="10.00">::memory_stream::bufsize</text>
</a>
</g>
</g>
<!-- Node1&#45;&gt;Node2 -->
<g id="edge1" class="edge">
<title>Node1&#45;&gt;Node2</title>
<path fill="none" stroke="#63b8ff" d="M104.65,-94.54C123.46,-100.95 145.59,-108.49 165.33,-115.22"/>
<polygon fill="#63b8ff" stroke="#63b8ff" points="164.22,-118.53 174.81,-118.45 166.47,-111.91 164.22,-118.53"/>
</g>
<!-- Node4 -->
<g id="node4" class="node">
<title>Node4</title>
<g id="a_node4"><a xlink:href="namespaceelc_1_1defs_1_1base_1_1magic__number.html#a3861fa6a3ce7e0fff08d658cc4a7a692" target="_top" xlink:title="已知当前array的size，求下一个合适的提前分配大小">
<polygon fill="white" stroke="#666666" points="284,-100 156,-100 156,-59 284,-59 284,-100"/>
<text text-anchor="start" x="164" y="-88" font-family="Helvetica,sans-Serif" font-size="10.00">elc::defs::base::magic</text>
<text text-anchor="start" x="164" y="-77" font-family="Helvetica,sans-Serif" font-size="10.00">_number::get_next_gold</text>
<text text-anchor="middle" x="220" y="-66" font-family="Helvetica,sans-Serif" font-size="10.00">_size_to_resize_for_array</text>
</a>
</g>
</g>
<!-- Node1&#45;&gt;Node4 -->
<g id="edge3" class="edge">
<title>Node1&#45;&gt;Node4</title>
<path fill="none" stroke="#63b8ff" d="M119.07,-79.5C127.78,-79.5 136.86,-79.5 145.82,-79.5"/>
<polygon fill="#63b8ff" stroke="#63b8ff" points="145.88,-83 155.88,-79.5 145.88,-76 145.88,-83"/>
</g>
<!-- Node5 -->
<g id="node5" class="node">
<title>Node5</title>
<g id="a_node5"><a xlink:href="structelc_1_1defs_1_1memory_1_1get__n_1_1get__resize__t.html#ab71a08b22cc7fda86d5649909138c51f" target="_top" xlink:title=" ">
<polygon fill="white" stroke="#666666" points="270.5,-41 169.5,-41 169.5,0 270.5,0 270.5,-41"/>
<text text-anchor="start" x="177.5" y="-29" font-family="Helvetica,sans-Serif" font-size="10.00">elc::defs::memory::</text>
<text text-anchor="start" x="177.5" y="-18" font-family="Helvetica,sans-Serif" font-size="10.00">get_n::get_resize_t</text>
<text text-anchor="middle" x="220" y="-7" font-family="Helvetica,sans-Serif" font-size="10.00">::operator()</text>
</a>
</g>
</g>
<!-- Node1&#45;&gt;Node5 -->
<g id="edge4" class="edge">
<title>Node1&#45;&gt;Node5</title>
<path fill="none" stroke="#63b8ff" d="M100.91,-64.46C118.8,-57.8 140.2,-49.83 159.84,-42.52"/>
<polygon fill="#63b8ff" stroke="#63b8ff" points="161.17,-45.76 169.32,-38.99 158.72,-39.2 161.17,-45.76"/>
</g>
<!-- Node3 -->
<g id="node3" class="node">
<title>Node3</title>
<g id="a_node3"><a xlink:href="structelc_1_1defs_1_1memory_1_1get__n_1_1get__size__of__get__t.html#a88896a9a4b4ce50ee25a885d100e7832" target="_top" xlink:title=" ">
<polygon fill="white" stroke="#666666" points="436,-154 321,-154 321,-113 436,-113 436,-154"/>
<text text-anchor="start" x="329" y="-142" font-family="Helvetica,sans-Serif" font-size="10.00">elc::defs::memory::</text>
<text text-anchor="start" x="329" y="-131" font-family="Helvetica,sans-Serif" font-size="10.00">get_n::get_size_of_get</text>
<text text-anchor="middle" x="378.5" y="-120" font-family="Helvetica,sans-Serif" font-size="10.00">_t::operator()</text>
</a>
</g>
</g>
<!-- Node2&#45;&gt;Node3 -->
<g id="edge2" class="edge">
<title>Node2&#45;&gt;Node3</title>
<path fill="none" stroke="#63b8ff" d="M285.11,-133.5C293.51,-133.5 302.13,-133.5 310.58,-133.5"/>
<polygon fill="#63b8ff" stroke="#63b8ff" points="310.77,-137 320.77,-133.5 310.77,-130 310.77,-137"/>
</g>
</g>
</svg>
