<?xml version="1.0" encoding="UTF-8" standalone="no"?>
<!DOCTYPE svg PUBLIC "-//W3C//DTD SVG 1.1//EN"
 "http://www.w3.org/Graphics/SVG/1.1/DTD/svg11.dtd">
<!-- Generated by graphviz version 6.0.1 (20220911.1526)
 -->
<!-- Title: elc::defs::base::constexpr_str_n::constexpr_str_view_t&lt; char_T &gt; Pages: 1 -->
<svg width="140pt" height="203pt"
 viewBox="0.00 0.00 140.00 203.00" xmlns="http://www.w3.org/2000/svg" xmlns:xlink="http://www.w3.org/1999/xlink">
<g id="graph0" class="graph" transform="scale(1 1) rotate(0) translate(4 199)">
<title>elc::defs::base::constexpr_str_n::constexpr_str_view_t&lt; char_T &gt;</title>
<!-- Node1 -->
<g id="node1" class="node">
<title>Node1</title>
<g id="a_node1"><a xlink:title="constexpr_str_t的退化类型，表明这是常量字符串，但没有可用的额外信息">
<polygon fill="#999999" stroke="#666666" points="132,-41 0,-41 0,0 132,0 132,-41"/>
<text text-anchor="start" x="8" y="-29" font-family="Helvetica,sans-Serif" font-size="10.00">elc::defs::base::constexpr</text>
<text text-anchor="start" x="8" y="-18" font-family="Helvetica,sans-Serif" font-size="10.00">_str_n::constexpr_str_view</text>
<text text-anchor="middle" x="66" y="-7" font-family="Helvetica,sans-Serif" font-size="10.00">_t&lt; char_T &gt;</text>
</a>
</g>
</g>
<!-- Node2 -->
<g id="node2" class="node">
<title>Node2</title>
<g id="a_node2"><a xlink:href="structelc_1_1defs_1_1base_1_1string__view__n_1_1string__view__t.html" target="_top" xlink:title="array_like_view_t的特化类型，表明这是字符串">
<polygon fill="white" stroke="#666666" points="122,-118 10,-118 10,-77 122,-77 122,-118"/>
<text text-anchor="start" x="18" y="-106" font-family="Helvetica,sans-Serif" font-size="10.00">elc::defs::base::string</text>
<text text-anchor="start" x="18" y="-95" font-family="Helvetica,sans-Serif" font-size="10.00">_view_n::string_view_t</text>
<text text-anchor="middle" x="66" y="-84" font-family="Helvetica,sans-Serif" font-size="10.00">&lt; char_T &gt;</text>
</a>
</g>
</g>
<!-- Node2&#45;&gt;Node1 -->
<g id="edge1" class="edge">
<title>Node2&#45;&gt;Node1</title>
<path fill="none" stroke="#63b8ff" d="M66,-66.69C66,-58.08 66,-48.9 66,-41.07"/>
<polygon fill="#63b8ff" stroke="#63b8ff" points="62.5,-66.79 66,-76.79 69.5,-66.79 62.5,-66.79"/>
</g>
<!-- Node3 -->
<g id="node3" class="node">
<title>Node3</title>
<g id="a_node3"><a xlink:href="structelc_1_1defs_1_1base_1_1array__like__n_1_1array__like__view__t.html" target="_top" xlink:title=" ">
<polygon fill="white" stroke="#666666" points="125.5,-195 6.5,-195 6.5,-154 125.5,-154 125.5,-195"/>
<text text-anchor="start" x="14.5" y="-183" font-family="Helvetica,sans-Serif" font-size="10.00">elc::defs::base::array</text>
<text text-anchor="start" x="14.5" y="-172" font-family="Helvetica,sans-Serif" font-size="10.00">_like_n::array_like_view</text>
<text text-anchor="middle" x="66" y="-161" font-family="Helvetica,sans-Serif" font-size="10.00">_t&lt; T &gt;</text>
</a>
</g>
</g>
<!-- Node3&#45;&gt;Node2 -->
<g id="edge2" class="edge">
<title>Node3&#45;&gt;Node2</title>
<path fill="none" stroke="#63b8ff" d="M66,-143.69C66,-135.08 66,-125.9 66,-118.07"/>
<polygon fill="#63b8ff" stroke="#63b8ff" points="62.5,-143.79 66,-153.79 69.5,-143.79 62.5,-143.79"/>
</g>
</g>
</svg>
