<?xml version="1.0" encoding="UTF-8" standalone="no"?>
<!DOCTYPE svg PUBLIC "-//W3C//DTD SVG 1.1//EN"
 "http://www.w3.org/Graphics/SVG/1.1/DTD/svg11.dtd">
<!-- Generated by graphviz version 6.0.1 (20220911.1526)
 -->
<!-- Title: elc::defs::base::array_like_n::array_like_view_t::size Pages: 1 -->
<svg width="455pt" height="222pt"
 viewBox="0.00 0.00 455.00 221.50" xmlns="http://www.w3.org/2000/svg" xmlns:xlink="http://www.w3.org/1999/xlink">
<g id="graph0" class="graph" transform="scale(1 1) rotate(0) translate(4 217.5)">
<title>elc::defs::base::array_like_n::array_like_view_t::size</title>
<!-- Node1 -->
<g id="node1" class="node">
<title>Node1</title>
<g id="a_node1"><a xlink:title=" ">
<polygon fill="#999999" stroke="#666666" points="447,-133 328,-133 328,-92 447,-92 447,-133"/>
<text text-anchor="start" x="336" y="-121" font-family="Helvetica,sans-Serif" font-size="10.00">elc::defs::base::array</text>
<text text-anchor="start" x="336" y="-110" font-family="Helvetica,sans-Serif" font-size="10.00">_like_n::array_like_view</text>
<text text-anchor="middle" x="387.5" y="-99" font-family="Helvetica,sans-Serif" font-size="10.00">_t::size</text>
</a>
</g>
</g>
<!-- Node2 -->
<g id="node2" class="node">
<title>Node2</title>
<g id="a_node2"><a xlink:href="structelc_1_1defs_1_1base_1_1type__name__t.html#ae5b76394d2b0fa538969d4016f5a63ca" target="_top" xlink:title="复制重整结果">
<polygon fill="white" stroke="#666666" points="290.5,-213.5 162.5,-213.5 162.5,-183.5 290.5,-183.5 290.5,-213.5"/>
<text text-anchor="start" x="170.5" y="-201.5" font-family="Helvetica,sans-Serif" font-size="10.00">elc::defs::base::type</text>
<text text-anchor="middle" x="226.5" y="-190.5" font-family="Helvetica,sans-Serif" font-size="10.00">_name_t::copy_demangle</text>
</a>
</g>
</g>
<!-- Node1&#45;&gt;Node2 -->
<g id="edge1" class="edge">
<title>Node1&#45;&gt;Node2</title>
<path fill="none" stroke="#63b8ff" d="M345.47,-138.72C329.09,-148.8 309.9,-160.12 292,-169.5 282.76,-174.34 272.54,-179.17 263.02,-183.45"/>
<polygon fill="#63b8ff" stroke="#63b8ff" points="347.6,-141.52 354.25,-133.27 343.91,-135.57 347.6,-141.52"/>
</g>
<!-- Node3 -->
<g id="node3" class="node">
<title>Node3</title>
<g id="a_node3"><a xlink:href="namespaceelc_1_1defs_1_1base_1_1range__n.html#a9cb7c2ca09bd752a8a3bd78f792bd259" target="_top" xlink:title="若成功找到匹配的数据串，返回其开头，若未找到，返回nullptr">
<polygon fill="white" stroke="#666666" points="117.5,-140.5 7.5,-140.5 7.5,-110.5 117.5,-110.5 117.5,-140.5"/>
<text text-anchor="start" x="15.5" y="-128.5" font-family="Helvetica,sans-Serif" font-size="10.00">elc::defs::base::range</text>
<text text-anchor="middle" x="62.5" y="-117.5" font-family="Helvetica,sans-Serif" font-size="10.00">_n::in_range</text>
</a>
</g>
</g>
<!-- Node1&#45;&gt;Node3 -->
<g id="edge2" class="edge">
<title>Node1&#45;&gt;Node3</title>
<path fill="none" stroke="#63b8ff" d="M318.16,-131.98C309.42,-133.84 300.54,-135.43 292,-136.5 232.69,-143.91 164.14,-138.81 117.72,-133.34"/>
<polygon fill="#63b8ff" stroke="#63b8ff" points="318.97,-135.38 327.95,-129.77 317.43,-128.56 318.97,-135.38"/>
</g>
<!-- Node4 -->
<g id="node4" class="node">
<title>Node4</title>
<g id="a_node4"><a xlink:href="namespaceelc_1_1defs_1_1base_1_1range__n.html#a7de35b587745884ffb0468a9551ee579" target="_top" xlink:title="若成功找到匹配的数据串，返回其开头，若未找到，返回nullptr">
<polygon fill="white" stroke="#666666" points="125,-70.5 0,-70.5 0,-40.5 125,-40.5 125,-70.5"/>
<text text-anchor="start" x="8" y="-58.5" font-family="Helvetica,sans-Serif" font-size="10.00">elc::defs::base::range</text>
<text text-anchor="middle" x="62.5" y="-47.5" font-family="Helvetica,sans-Serif" font-size="10.00">_n::in_range_but_reverse</text>
</a>
</g>
</g>
<!-- Node1&#45;&gt;Node4 -->
<g id="edge3" class="edge">
<title>Node1&#45;&gt;Node4</title>
<path fill="none" stroke="#63b8ff" d="M318.16,-94.24C309.39,-92.16 300.5,-90.19 292,-88.5 235.98,-77.37 171.52,-68.41 125.38,-62.65"/>
<polygon fill="#63b8ff" stroke="#63b8ff" points="317.45,-97.67 327.99,-96.62 319.09,-90.87 317.45,-97.67"/>
</g>
<!-- Node5 -->
<g id="node5" class="node">
<title>Node5</title>
<g id="a_node5"><a xlink:href="structelc_1_1defs_1_1base_1_1range__n_1_1match__pattern.html#a3a2612a90697ed108398363ac21e5e15" target="_top" xlink:title=" ">
<polygon fill="white" stroke="#666666" points="290.5,-127.5 162.5,-127.5 162.5,-97.5 290.5,-97.5 290.5,-127.5"/>
<text text-anchor="start" x="170.5" y="-115.5" font-family="Helvetica,sans-Serif" font-size="10.00">elc::defs::base::range</text>
<text text-anchor="middle" x="226.5" y="-104.5" font-family="Helvetica,sans-Serif" font-size="10.00">_n::match_pattern::match</text>
</a>
</g>
</g>
<!-- Node1&#45;&gt;Node5 -->
<g id="edge4" class="edge">
<title>Node1&#45;&gt;Node5</title>
<path fill="none" stroke="#63b8ff" d="M317.67,-112.5C308.66,-112.5 299.46,-112.5 290.55,-112.5"/>
<polygon fill="#63b8ff" stroke="#63b8ff" points="317.75,-116 327.75,-112.5 317.75,-109 317.75,-116"/>
</g>
<!-- Node6 -->
<g id="node6" class="node">
<title>Node6</title>
<g id="a_node6"><a xlink:href="structelc_1_1defs_1_1base_1_1range__n_1_1reverse__match__pattern.html#a20c601d609c1439901499558fefe45d8" target="_top" xlink:title=" ">
<polygon fill="white" stroke="#666666" points="292,-41 161,-41 161,0 292,0 292,-41"/>
<text text-anchor="start" x="169" y="-29" font-family="Helvetica,sans-Serif" font-size="10.00">elc::defs::base::range</text>
<text text-anchor="start" x="169" y="-18" font-family="Helvetica,sans-Serif" font-size="10.00">_n::reverse_match_pattern</text>
<text text-anchor="middle" x="226.5" y="-7" font-family="Helvetica,sans-Serif" font-size="10.00">::match</text>
</a>
</g>
</g>
<!-- Node1&#45;&gt;Node6 -->
<g id="edge6" class="edge">
<title>Node1&#45;&gt;Node6</title>
<path fill="none" stroke="#63b8ff" d="M344.3,-86.49C328.05,-76.62 309.26,-65.38 292,-55.5 283.71,-50.75 274.74,-45.78 266.2,-41.13"/>
<polygon fill="#63b8ff" stroke="#63b8ff" points="342.68,-89.6 353.04,-91.81 346.32,-83.62 342.68,-89.6"/>
</g>
<!-- Node5&#45;&gt;Node3 -->
<g id="edge5" class="edge">
<title>Node5&#45;&gt;Node3</title>
<path fill="none" stroke="#63b8ff" d="M152.27,-118.38C140.66,-119.31 128.83,-120.26 117.75,-121.15"/>
<polygon fill="#63b8ff" stroke="#63b8ff" points="152.71,-121.85 162.4,-117.56 152.15,-114.87 152.71,-121.85"/>
</g>
<!-- Node6&#45;&gt;Node4 -->
<g id="edge7" class="edge">
<title>Node6&#45;&gt;Node4</title>
<path fill="none" stroke="#63b8ff" d="M150.58,-36.69C142.03,-38.53 133.4,-40.4 125.05,-42.2"/>
<polygon fill="#63b8ff" stroke="#63b8ff" points="151.51,-40.07 160.54,-34.53 150.03,-33.22 151.51,-40.07"/>
</g>
</g>
</svg>
