<?xml version="1.0" encoding="UTF-8" standalone="no"?>
<!DOCTYPE svg PUBLIC "-//W3C//DTD SVG 1.1//EN"
 "http://www.w3.org/Graphics/SVG/1.1/DTD/svg11.dtd">
<!-- Generated by graphviz version 6.0.1 (20220911.1526)
 -->
<!-- Title: elc::defs::string_n::string_data_n::end_apply_string_data_t&lt; char_T &gt; Pages: 1 -->
<svg width="465pt" height="160pt"
 viewBox="0.00 0.00 465.00 159.50" xmlns="http://www.w3.org/2000/svg" xmlns:xlink="http://www.w3.org/1999/xlink">
<g id="graph0" class="graph" transform="scale(1 1) rotate(0) translate(4 155.5)">
<title>elc::defs::string_n::string_data_n::end_apply_string_data_t&lt; char_T &gt;</title>
<!-- Node1 -->
<g id="node1" class="node">
<title>Node1</title>
<g id="a_node1"><a xlink:title=" ">
<polygon fill="#999999" stroke="#666666" points="457,-75.5 350,-75.5 350,-23.5 457,-23.5 457,-75.5"/>
<text text-anchor="start" x="358" y="-63.5" font-family="Helvetica,sans-Serif" font-size="10.00">elc::defs::string_n</text>
<text text-anchor="start" x="358" y="-52.5" font-family="Helvetica,sans-Serif" font-size="10.00">::string_data_n::end</text>
<text text-anchor="start" x="358" y="-41.5" font-family="Helvetica,sans-Serif" font-size="10.00">_apply_string_data_t</text>
<text text-anchor="middle" x="403.5" y="-30.5" font-family="Helvetica,sans-Serif" font-size="10.00">&lt; char_T &gt;</text>
</a>
</g>
</g>
<!-- Node2 -->
<g id="node2" class="node">
<title>Node2</title>
<g id="a_node2"><a xlink:href="structelc_1_1defs_1_1string__n_1_1string__data__n_1_1base__string__data__t.html" target="_top" xlink:title=" ">
<polygon fill="white" stroke="#666666" points="314,-100 189,-100 189,-59 314,-59 314,-100"/>
<text text-anchor="start" x="197" y="-88" font-family="Helvetica,sans-Serif" font-size="10.00">elc::defs::string_n</text>
<text text-anchor="start" x="197" y="-77" font-family="Helvetica,sans-Serif" font-size="10.00">::string_data_n::base</text>
<text text-anchor="middle" x="251.5" y="-66" font-family="Helvetica,sans-Serif" font-size="10.00">_string_data_t&lt; char_T &gt;</text>
</a>
</g>
</g>
<!-- Node2&#45;&gt;Node1 -->
<g id="edge1" class="edge">
<title>Node2&#45;&gt;Node1</title>
<path fill="none" stroke="#63b8ff" d="M324.4,-65.12C332.98,-63.4 341.61,-61.68 349.85,-60.03"/>
<polygon fill="#63b8ff" stroke="#63b8ff" points="323.5,-61.73 314.38,-67.12 324.87,-68.6 323.5,-61.73"/>
</g>
<!-- Node3 -->
<g id="node3" class="node">
<title>Node3</title>
<g id="a_node3"><a xlink:title=" ">
<polygon fill="white" stroke="#666666" points="153,-151.5 0,-151.5 0,-77.5 153,-77.5 153,-151.5"/>
<text text-anchor="start" x="8" y="-139.5" font-family="Helvetica,sans-Serif" font-size="10.00">type_info_t&lt; base_string</text>
<text text-anchor="start" x="8" y="-128.5" font-family="Helvetica,sans-Serif" font-size="10.00">_data_t&lt; char_T &gt; &gt;:: template</text>
<text text-anchor="middle" x="76.5" y="-117.5" font-family="Helvetica,sans-Serif" font-size="10.00"> </text>
<text text-anchor="start" x="8" y="-106.5" font-family="Helvetica,sans-Serif" font-size="10.00">	with_common_attribute</text>
<text text-anchor="start" x="8" y="-95.5" font-family="Helvetica,sans-Serif" font-size="10.00">&lt; abstract_base, never_in</text>
<text text-anchor="middle" x="76.5" y="-84.5" font-family="Helvetica,sans-Serif" font-size="10.00">_array, replace_able, ref_able &gt;</text>
</a>
</g>
</g>
<!-- Node3&#45;&gt;Node2 -->
<g id="edge2" class="edge">
<title>Node3&#45;&gt;Node2</title>
<path fill="none" stroke="#63b8ff" d="M162.94,-97.21C171.66,-95.45 180.39,-93.68 188.78,-91.99"/>
<polygon fill="#63b8ff" stroke="#63b8ff" points="162.24,-93.79 153.13,-99.2 163.62,-100.65 162.24,-93.79"/>
</g>
<!-- Node4 -->
<g id="node4" class="node">
<title>Node4</title>
<g id="a_node4"><a xlink:href="classelc_1_1defs_1_1base_1_1build__by__get__only.html" target="_top" xlink:title=" ">
<polygon fill="white" stroke="#666666" points="130,-59.5 23,-59.5 23,-29.5 130,-29.5 130,-59.5"/>
<text text-anchor="start" x="31" y="-47.5" font-family="Helvetica,sans-Serif" font-size="10.00">elc::defs::base::build</text>
<text text-anchor="middle" x="76.5" y="-36.5" font-family="Helvetica,sans-Serif" font-size="10.00">_by_get_only</text>
</a>
</g>
</g>
<!-- Node4&#45;&gt;Node2 -->
<g id="edge3" class="edge">
<title>Node4&#45;&gt;Node2</title>
<path fill="none" stroke="#63b8ff" d="M140.52,-57.25C156.29,-60.44 173.18,-63.86 188.87,-67.03"/>
<polygon fill="#63b8ff" stroke="#63b8ff" points="140.84,-53.74 130.35,-55.19 139.45,-60.6 140.84,-53.74"/>
</g>
<!-- Node5 -->
<g id="node5" class="node">
<title>Node5</title>
<g id="a_node5"><a xlink:title=" ">
<polygon fill="white" stroke="#666666" points="305.5,-41 197.5,-41 197.5,0 305.5,0 305.5,-41"/>
<text text-anchor="start" x="205.5" y="-29" font-family="Helvetica,sans-Serif" font-size="10.00">instance_struct&lt; end</text>
<text text-anchor="start" x="205.5" y="-18" font-family="Helvetica,sans-Serif" font-size="10.00">_apply_string_data_t</text>
<text text-anchor="middle" x="251.5" y="-7" font-family="Helvetica,sans-Serif" font-size="10.00">&lt; char_T &gt; &gt;</text>
</a>
</g>
</g>
<!-- Node5&#45;&gt;Node1 -->
<g id="edge4" class="edge">
<title>Node5&#45;&gt;Node1</title>
<path fill="none" stroke="#63b8ff" d="M315.69,-32.72C327.07,-34.92 338.83,-37.19 349.87,-39.32"/>
<polygon fill="#63b8ff" stroke="#63b8ff" points="316.29,-29.27 305.81,-30.81 314.96,-36.14 316.29,-29.27"/>
</g>
</g>
</svg>
