<?xml version="1.0" encoding="UTF-8" standalone="no"?>
<!DOCTYPE svg PUBLIC "-//W3C//DTD SVG 1.1//EN"
 "http://www.w3.org/Graphics/SVG/1.1/DTD/svg11.dtd">
<!-- Generated by graphviz version 6.0.1 (20220911.1526)
 -->
<!-- Title: elc::defs::memory::get_n::get_t::apply_end_t::operator() Pages: 1 -->
<svg width="261pt" height="62pt"
 viewBox="0.00 0.00 261.00 61.50" xmlns="http://www.w3.org/2000/svg" xmlns:xlink="http://www.w3.org/1999/xlink">
<g id="graph0" class="graph" transform="scale(1 1) rotate(0) translate(4 57.5)">
<title>elc::defs::memory::get_n::get_t::apply_end_t::operator()</title>
<!-- Node1 -->
<g id="node1" class="node">
<title>Node1</title>
<g id="a_node1"><a xlink:title=" ">
<polygon fill="#999999" stroke="#666666" points="101,-41 0,-41 0,0 101,0 101,-41"/>
<text text-anchor="start" x="8" y="-29" font-family="Helvetica,sans-Serif" font-size="10.00">elc::defs::memory::</text>
<text text-anchor="start" x="8" y="-18" font-family="Helvetica,sans-Serif" font-size="10.00">get_n::get_t::apply</text>
<text text-anchor="middle" x="50.5" y="-7" font-family="Helvetica,sans-Serif" font-size="10.00">_end_t::operator()</text>
</a>
</g>
</g>
<!-- Node2 -->
<g id="node2" class="node">
<title>Node2</title>
<g id="a_node2"><a xlink:href="namespaceelc_1_1defs_1_1memory_1_1get__n.html#ad49cc084ba94f390f481ce8691f972c4" target="_top" xlink:title="向后扩大数据块大小并转移原有实例的生命周期，但并不构造新的实例">
<polygon fill="white" stroke="#666666" points="253,-35.5 137,-35.5 137,-5.5 253,-5.5 253,-35.5"/>
<text text-anchor="start" x="145" y="-23.5" font-family="Helvetica,sans-Serif" font-size="10.00">elc::defs::memory::</text>
<text text-anchor="middle" x="195" y="-12.5" font-family="Helvetica,sans-Serif" font-size="10.00">get_n::alloc_size_grow</text>
</a>
</g>
</g>
<!-- Node1&#45;&gt;Node2 -->
<g id="edge1" class="edge">
<title>Node1&#45;&gt;Node2</title>
<path fill="none" stroke="#63b8ff" d="M101.34,-20.5C109.44,-20.5 117.95,-20.5 126.39,-20.5"/>
<polygon fill="#63b8ff" stroke="#63b8ff" points="126.62,-24 136.62,-20.5 126.62,-17 126.62,-24"/>
</g>
<!-- Node2&#45;&gt;Node2 -->
<g id="edge2" class="edge">
<title>Node2&#45;&gt;Node2</title>
<path fill="none" stroke="#63b8ff" d="M169.6,-35.78C163.96,-44.91 172.42,-53.5 195,-53.5 208.41,-53.5 216.84,-50.47 220.29,-46.1"/>
<polygon fill="#63b8ff" stroke="#63b8ff" points="223.8,-45.81 220.4,-35.78 216.8,-45.74 223.8,-45.81"/>
</g>
</g>
</svg>
