<?xml version="1.0" encoding="UTF-8" standalone="no"?>
<!DOCTYPE svg PUBLIC "-//W3C//DTD SVG 1.1//EN"
 "http://www.w3.org/Graphics/SVG/1.1/DTD/svg11.dtd">
<!-- Generated by graphviz version 6.0.1 (20220911.1526)
 -->
<!-- Title: elc::defs::string_n::string_t::swap_with Pages: 1 -->
<svg width="252pt" height="86pt"
 viewBox="0.00 0.00 252.00 86.00" xmlns="http://www.w3.org/2000/svg" xmlns:xlink="http://www.w3.org/1999/xlink">
<g id="graph0" class="graph" transform="scale(1 1) rotate(0) translate(4 82)">
<title>elc::defs::string_n::string_t::swap_with</title>
<!-- Node1 -->
<g id="node1" class="node">
<title>Node1</title>
<g id="a_node1"><a xlink:title=" ">
<polygon fill="#999999" stroke="#666666" points="244,-54 138,-54 138,-24 244,-24 244,-54"/>
<text text-anchor="start" x="146" y="-42" font-family="Helvetica,sans-Serif" font-size="10.00">elc::defs::string_n</text>
<text text-anchor="middle" x="191" y="-31" font-family="Helvetica,sans-Serif" font-size="10.00">::string_t::swap_with</text>
</a>
</g>
</g>
<!-- Node2 -->
<g id="node2" class="node">
<title>Node2</title>
<g id="a_node2"><a xlink:href="structelc_1_1defs_1_1string__n_1_1string__t.html#a02285544363b17e56e178eb62e1a1a0a" target="_top" xlink:title=" ">
<polygon fill="white" stroke="#666666" points="102,-78 0,-78 0,-48 102,-48 102,-78"/>
<text text-anchor="start" x="8" y="-66" font-family="Helvetica,sans-Serif" font-size="10.00">elc::defs::string_n</text>
<text text-anchor="middle" x="51" y="-55" font-family="Helvetica,sans-Serif" font-size="10.00">::string_t::operator=</text>
</a>
</g>
</g>
<!-- Node1&#45;&gt;Node2 -->
<g id="edge1" class="edge">
<title>Node1&#45;&gt;Node2</title>
<path fill="none" stroke="#63b8ff" d="M127.91,-49.8C119.38,-51.28 110.71,-52.79 102.42,-54.23"/>
<polygon fill="#63b8ff" stroke="#63b8ff" points="128.58,-53.24 137.83,-48.07 127.38,-46.34 128.58,-53.24"/>
</g>
<!-- Node3 -->
<g id="node3" class="node">
<title>Node3</title>
<g id="a_node3"><a xlink:href="structelc_1_1defs_1_1string__n_1_1string__t.html#a77399a9b1b37f2ed2b31c930487c9dd9" target="_top" xlink:title=" ">
<polygon fill="white" stroke="#666666" points="98,-30 4,-30 4,0 98,0 98,-30"/>
<text text-anchor="start" x="12" y="-18" font-family="Helvetica,sans-Serif" font-size="10.00">elc::defs::string_n</text>
<text text-anchor="middle" x="51" y="-7" font-family="Helvetica,sans-Serif" font-size="10.00">::string_t::string_t</text>
</a>
</g>
</g>
<!-- Node1&#45;&gt;Node3 -->
<g id="edge2" class="edge">
<title>Node1&#45;&gt;Node3</title>
<path fill="none" stroke="#63b8ff" d="M127.97,-28.21C118.01,-26.48 107.86,-24.72 98.36,-23.06"/>
<polygon fill="#63b8ff" stroke="#63b8ff" points="127.38,-31.66 137.83,-29.93 128.58,-24.76 127.38,-31.66"/>
</g>
</g>
</svg>
