<?xml version="1.0" encoding="UTF-8" standalone="no"?>
<!DOCTYPE svg PUBLIC "-//W3C//DTD SVG 1.1//EN"
 "http://www.w3.org/Graphics/SVG/1.1/DTD/svg11.dtd">
<!-- Generated by graphviz version 6.0.1 (20220911.1526)
 -->
<!-- Title: elc::defs::core::common_node::equal_with Pages: 1 -->
<svg width="473pt" height="220pt"
 viewBox="0.00 0.00 473.00 219.50" xmlns="http://www.w3.org/2000/svg" xmlns:xlink="http://www.w3.org/1999/xlink">
<g id="graph0" class="graph" transform="scale(1 1) rotate(0) translate(4 215.5)">
<title>elc::defs::core::common_node::equal_with</title>
<!-- Node1 -->
<g id="node1" class="node">
<title>Node1</title>
<g id="a_node1"><a xlink:title=" ">
<polygon fill="#999999" stroke="#666666" points="122,-126 0,-126 0,-96 122,-96 122,-126"/>
<text text-anchor="start" x="8" y="-114" font-family="Helvetica,sans-Serif" font-size="10.00">elc::defs::core::common</text>
<text text-anchor="middle" x="61" y="-103" font-family="Helvetica,sans-Serif" font-size="10.00">_node::equal_with</text>
</a>
</g>
</g>
<!-- Node2 -->
<g id="node2" class="node">
<title>Node2</title>
<g id="a_node2"><a xlink:href="namespaceelc_1_1defs_1_1base.html#a229f73871b87264d73d8785b0541fdad" target="_top" xlink:title="向下转型至">
<polygon fill="white" stroke="#666666" points="293.5,-211.5 160.5,-211.5 160.5,-192.5 293.5,-192.5 293.5,-211.5"/>
<text text-anchor="middle" x="227" y="-199.5" font-family="Helvetica,sans-Serif" font-size="10.00">elc::defs::base::down_cast</text>
</a>
</g>
</g>
<!-- Node1&#45;&gt;Node2 -->
<g id="edge1" class="edge">
<title>Node1&#45;&gt;Node2</title>
<path fill="none" stroke="#63b8ff" d="M78.08,-126.06C96.2,-142.28 127.17,-167.8 158,-183 162.69,-185.31 167.7,-187.38 172.81,-189.22"/>
<polygon fill="#63b8ff" stroke="#63b8ff" points="172.07,-192.67 182.66,-192.49 174.27,-186.02 172.07,-192.67"/>
</g>
<!-- Node3 -->
<g id="node3" class="node">
<title>Node3</title>
<g id="a_node3"><a xlink:href="structelc_1_1defs_1_1memory_1_1ptr__n_1_1ptr__t.html#afa7ec8ea3b1c71df95fdfc05b7d726d8" target="_top" xlink:title=" ">
<polygon fill="white" stroke="#666666" points="277.5,-174 176.5,-174 176.5,-144 277.5,-144 277.5,-174"/>
<text text-anchor="start" x="184.5" y="-162" font-family="Helvetica,sans-Serif" font-size="10.00">elc::defs::memory::</text>
<text text-anchor="middle" x="227" y="-151" font-family="Helvetica,sans-Serif" font-size="10.00">ptr_n::ptr_t::get</text>
</a>
</g>
</g>
<!-- Node1&#45;&gt;Node3 -->
<g id="edge2" class="edge">
<title>Node1&#45;&gt;Node3</title>
<path fill="none" stroke="#63b8ff" d="M113.44,-126.06C130.25,-130.97 149.05,-136.48 166.4,-141.56"/>
<polygon fill="#63b8ff" stroke="#63b8ff" points="165.84,-145.04 176.42,-144.49 167.81,-138.32 165.84,-145.04"/>
</g>
<!-- Node5 -->
<g id="node5" class="node">
<title>Node5</title>
<g id="a_node5"><a xlink:href="structelc_1_1defs_1_1core_1_1common__node.html#a8f0b130c832eadf864b796dc672e9cbb" target="_top" xlink:title=" ">
<polygon fill="white" stroke="#666666" points="288,-126 166,-126 166,-96 288,-96 288,-126"/>
<text text-anchor="start" x="174" y="-114" font-family="Helvetica,sans-Serif" font-size="10.00">elc::defs::core::common</text>
<text text-anchor="middle" x="227" y="-103" font-family="Helvetica,sans-Serif" font-size="10.00">_node::get_type_info</text>
</a>
</g>
</g>
<!-- Node1&#45;&gt;Node5 -->
<g id="edge4" class="edge">
<title>Node1&#45;&gt;Node5</title>
<path fill="none" stroke="#63b8ff" d="M122.14,-111C133.05,-111 144.53,-111 155.71,-111"/>
<polygon fill="#63b8ff" stroke="#63b8ff" points="155.87,-114.5 165.87,-111 155.87,-107.5 155.87,-114.5"/>
</g>
<!-- Node6 -->
<g id="node6" class="node">
<title>Node6</title>
<g id="a_node6"><a xlink:href="structelc_1_1defs_1_1base_1_1base__type__info__t.html#a83a5d152aaf6d18aa5f3956d90380acc" target="_top" xlink:title=" ">
<polygon fill="white" stroke="#666666" points="288,-78 166,-78 166,-48 288,-48 288,-78"/>
<text text-anchor="start" x="174" y="-66" font-family="Helvetica,sans-Serif" font-size="10.00">elc::defs::base::base</text>
<text text-anchor="middle" x="227" y="-55" font-family="Helvetica,sans-Serif" font-size="10.00">_type_info_t::operator==</text>
</a>
</g>
</g>
<!-- Node1&#45;&gt;Node6 -->
<g id="edge5" class="edge">
<title>Node1&#45;&gt;Node6</title>
<path fill="none" stroke="#63b8ff" d="M113.44,-95.94C129.77,-91.16 147.99,-85.83 164.94,-80.87"/>
<polygon fill="#63b8ff" stroke="#63b8ff" points="166.13,-84.17 174.74,-78 164.16,-77.45 166.13,-84.17"/>
</g>
<!-- Node7 -->
<g id="node7" class="node">
<title>Node7</title>
<g id="a_node7"><a xlink:href="classelc_1_1defs_1_1container_1_1map__n_1_1map__t.html#a8317866c5fcde8e7002fdcf6e2a1aa11" target="_top" xlink:title=" ">
<polygon fill="white" stroke="#666666" points="296,-30 158,-30 158,0 296,0 296,-30"/>
<text text-anchor="start" x="166" y="-18" font-family="Helvetica,sans-Serif" font-size="10.00">elc::defs::container</text>
<text text-anchor="middle" x="227" y="-7" font-family="Helvetica,sans-Serif" font-size="10.00">::map_n::map_t::operator==</text>
</a>
</g>
</g>
<!-- Node1&#45;&gt;Node7 -->
<g id="edge6" class="edge">
<title>Node1&#45;&gt;Node7</title>
<path fill="none" stroke="#63b8ff" d="M78.95,-95.74C97.33,-79.83 128.06,-55.02 158,-39 161.23,-37.27 164.6,-35.63 168.05,-34.07"/>
<polygon fill="#63b8ff" stroke="#63b8ff" points="169.46,-37.27 177.3,-30.14 166.72,-30.83 169.46,-37.27"/>
</g>
<!-- Node4 -->
<g id="node4" class="node">
<title>Node4</title>
<g id="a_node4"><a xlink:href="structelc_1_1defs_1_1memory_1_1ptr__n_1_1ptr__t.html#ab0ddc2cf5279d67e43eedad6d7301ae1" target="_top" xlink:title=" ">
<polygon fill="white" stroke="#666666" points="465,-174 332,-174 332,-144 465,-144 465,-174"/>
<text text-anchor="start" x="340" y="-162" font-family="Helvetica,sans-Serif" font-size="10.00">elc::defs::memory::</text>
<text text-anchor="middle" x="398.5" y="-151" font-family="Helvetica,sans-Serif" font-size="10.00">ptr_n::ptr_t::replace_check</text>
</a>
</g>
</g>
<!-- Node3&#45;&gt;Node4 -->
<g id="edge3" class="edge">
<title>Node3&#45;&gt;Node4</title>
<path fill="none" stroke="#63b8ff" d="M277.94,-159C291.67,-159 306.87,-159 321.7,-159"/>
<polygon fill="#63b8ff" stroke="#63b8ff" points="321.88,-162.5 331.88,-159 321.88,-155.5 321.88,-162.5"/>
</g>
<!-- Node8 -->
<g id="node8" class="node">
<title>Node8</title>
<g id="a_node8"><a xlink:href="classelc_1_1defs_1_1container_1_1map__n_1_1map__t.html#ab2a0fe31fd8ed4985080ecd3e8340377" target="_top" xlink:title=" ">
<polygon fill="white" stroke="#666666" points="457,-30 340,-30 340,0 457,0 457,-30"/>
<text text-anchor="start" x="348" y="-18" font-family="Helvetica,sans-Serif" font-size="10.00">elc::defs::container</text>
<text text-anchor="middle" x="398.5" y="-7" font-family="Helvetica,sans-Serif" font-size="10.00">::map_n::map_t::shrink</text>
</a>
</g>
</g>
<!-- Node7&#45;&gt;Node8 -->
<g id="edge7" class="edge">
<title>Node7&#45;&gt;Node8</title>
<path fill="none" stroke="#63b8ff" d="M296.45,-15C307.39,-15 318.69,-15 329.61,-15"/>
<polygon fill="#63b8ff" stroke="#63b8ff" points="329.93,-18.5 339.93,-15 329.93,-11.5 329.93,-18.5"/>
</g>
</g>
</svg>
