<?xml version="1.0" encoding="UTF-8" standalone="no"?>
<!DOCTYPE svg PUBLIC "-//W3C//DTD SVG 1.1//EN"
 "http://www.w3.org/Graphics/SVG/1.1/DTD/svg11.dtd">
<!-- Generated by graphviz version 6.0.1 (20220911.1526)
 -->
<!-- Title: elc::defs::memory::get_n::get_resize_t::insert_resize_t::operator() Pages: 1 -->
<svg width="327pt" height="67pt"
 viewBox="0.00 0.00 327.00 67.00" xmlns="http://www.w3.org/2000/svg" xmlns:xlink="http://www.w3.org/1999/xlink">
<g id="graph0" class="graph" transform="scale(1 1) rotate(0) translate(4 63)">
<title>elc::defs::memory::get_n::get_resize_t::insert_resize_t::operator()</title>
<!-- Node1 -->
<g id="node1" class="node">
<title>Node1</title>
<g id="a_node1"><a xlink:title=" ">
<polygon fill="#999999" stroke="#666666" points="134,-41 0,-41 0,0 134,0 134,-41"/>
<text text-anchor="start" x="8" y="-29" font-family="Helvetica,sans-Serif" font-size="10.00">elc::defs::memory::</text>
<text text-anchor="start" x="8" y="-18" font-family="Helvetica,sans-Serif" font-size="10.00">get_n::get_resize_t</text>
<text text-anchor="middle" x="67" y="-7" font-family="Helvetica,sans-Serif" font-size="10.00">::insert_resize_t::operator()</text>
</a>
</g>
</g>
<!-- Node2 -->
<g id="node2" class="node">
<title>Node2</title>
<g id="a_node2"><a xlink:href="namespaceelc_1_1defs_1_1memory_1_1get__n.html#afe741c9105ddc611a7ca6dbf64758d0f" target="_top" xlink:title="在指定位置插入未初始化数据块并转移原有实例的生命周期，但并不构造新的实例">
<polygon fill="white" stroke="#666666" points="319,-41 170,-41 170,0 319,0 319,-41"/>
<text text-anchor="start" x="178" y="-29" font-family="Helvetica,sans-Serif" font-size="10.00">elc::defs::memory::</text>
<text text-anchor="start" x="178" y="-18" font-family="Helvetica,sans-Serif" font-size="10.00">get_n::alloc_size_grow</text>
<text text-anchor="middle" x="244.5" y="-7" font-family="Helvetica,sans-Serif" font-size="10.00">_with_insert_uninitialized_data</text>
</a>
</g>
</g>
<!-- Node1&#45;&gt;Node2 -->
<g id="edge1" class="edge">
<title>Node1&#45;&gt;Node2</title>
<path fill="none" stroke="#63b8ff" d="M134.35,-20.5C142.56,-20.5 151.04,-20.5 159.47,-20.5"/>
<polygon fill="#63b8ff" stroke="#63b8ff" points="159.71,-24 169.71,-20.5 159.71,-17 159.71,-24"/>
</g>
<!-- Node2&#45;&gt;Node2 -->
<g id="edge2" class="edge">
<title>Node2&#45;&gt;Node2</title>
<path fill="none" stroke="#63b8ff" d="M211.88,-41.1C208.32,-50.65 219.19,-59 244.5,-59 260.32,-59 270.5,-55.74 275.04,-50.96"/>
<polygon fill="#63b8ff" stroke="#63b8ff" points="278.48,-51.6 277.12,-41.1 271.63,-50.16 278.48,-51.6"/>
</g>
</g>
</svg>
