<?xml version="1.0" encoding="UTF-8" standalone="no"?>
<!DOCTYPE svg PUBLIC "-//W3C//DTD SVG 1.1//EN"
 "http://www.w3.org/Graphics/SVG/1.1/DTD/svg11.dtd">
<!-- Generated by graphviz version 6.0.1 (20220911.1526)
 -->
<!-- Title: elc::defs::memory::get_n::unget_t::operator() Pages: 1 -->
<svg width="310pt" height="146pt"
 viewBox="0.00 0.00 310.00 145.50" xmlns="http://www.w3.org/2000/svg" xmlns:xlink="http://www.w3.org/1999/xlink">
<g id="graph0" class="graph" transform="scale(1 1) rotate(0) translate(4 141.5)">
<title>elc::defs::memory::get_n::unget_t::operator()</title>
<!-- Node1 -->
<g id="node1" class="node">
<title>Node1</title>
<g id="a_node1"><a xlink:title=" ">
<polygon fill="#999999" stroke="#666666" points="302,-89.5 176,-89.5 176,-59.5 302,-59.5 302,-89.5"/>
<text text-anchor="start" x="184" y="-77.5" font-family="Helvetica,sans-Serif" font-size="10.00">elc::defs::memory::</text>
<text text-anchor="middle" x="239" y="-66.5" font-family="Helvetica,sans-Serif" font-size="10.00">get_n::unget_t::operator()</text>
</a>
</g>
</g>
<!-- Node2 -->
<g id="node2" class="node">
<title>Node2</title>
<g id="a_node2"><a xlink:href="structelc_1_1defs_1_1stream__n_1_1memory__stream.html#a6505b855a02b9c855b9ef5ff6febaeaa" target="_top" xlink:title=" ">
<polygon fill="white" stroke="#666666" points="131,-137.5 9,-137.5 9,-107.5 131,-107.5 131,-137.5"/>
<text text-anchor="start" x="17" y="-125.5" font-family="Helvetica,sans-Serif" font-size="10.00">elc::defs::stream_n</text>
<text text-anchor="middle" x="70" y="-114.5" font-family="Helvetica,sans-Serif" font-size="10.00">::memory_stream::close</text>
</a>
</g>
</g>
<!-- Node1&#45;&gt;Node2 -->
<g id="edge1" class="edge">
<title>Node1&#45;&gt;Node2</title>
<path fill="none" stroke="#63b8ff" d="M175.63,-92.43C158.37,-97.39 139.81,-102.72 123.2,-107.5"/>
<polygon fill="#63b8ff" stroke="#63b8ff" points="176.97,-95.68 185.62,-89.56 175.04,-88.95 176.97,-95.68"/>
</g>
<!-- Node3 -->
<g id="node3" class="node">
<title>Node3</title>
<g id="a_node3"><a xlink:href="namespaceelc_1_1defs_1_1core.html#a9cb04e1b89118c7fb5e1a0c172af9ca1" target="_top" xlink:title=" ">
<polygon fill="white" stroke="#666666" points="119,-89.5 21,-89.5 21,-59.5 119,-59.5 119,-89.5"/>
<text text-anchor="start" x="29" y="-77.5" font-family="Helvetica,sans-Serif" font-size="10.00">elc::defs::core::the</text>
<text text-anchor="middle" x="70" y="-66.5" font-family="Helvetica,sans-Serif" font-size="10.00">_destroy_and_free</text>
</a>
</g>
</g>
<!-- Node1&#45;&gt;Node3 -->
<g id="edge2" class="edge">
<title>Node1&#45;&gt;Node3</title>
<path fill="none" stroke="#63b8ff" d="M165.59,-74.5C149.88,-74.5 133.64,-74.5 119.14,-74.5"/>
<polygon fill="#63b8ff" stroke="#63b8ff" points="165.82,-78 175.82,-74.5 165.82,-71 165.82,-78"/>
</g>
<!-- Node4 -->
<g id="node4" class="node">
<title>Node4</title>
<g id="a_node4"><a xlink:href="structelc_1_1defs_1_1stream__n_1_1memory__stream.html#a8728cd1049f9255fdacdc3a8c463ac3e" target="_top" xlink:title=" ">
<polygon fill="white" stroke="#666666" points="140,-41 0,-41 0,0 140,0 140,-41"/>
<text text-anchor="start" x="8" y="-29" font-family="Helvetica,sans-Serif" font-size="10.00">elc::defs::stream_n</text>
<text text-anchor="start" x="8" y="-18" font-family="Helvetica,sans-Serif" font-size="10.00">::memory_stream::~memory</text>
<text text-anchor="middle" x="70" y="-7" font-family="Helvetica,sans-Serif" font-size="10.00">_stream</text>
</a>
</g>
</g>
<!-- Node1&#45;&gt;Node4 -->
<g id="edge3" class="edge">
<title>Node1&#45;&gt;Node4</title>
<path fill="none" stroke="#63b8ff" d="M181.72,-56.3C166.53,-51.39 149.98,-46.04 134.43,-41.01"/>
<polygon fill="#63b8ff" stroke="#63b8ff" points="180.89,-59.71 191.48,-59.46 183.04,-53.05 180.89,-59.71"/>
</g>
</g>
</svg>
