<?xml version="1.0" encoding="UTF-8" standalone="no"?>
<!DOCTYPE svg PUBLIC "-//W3C//DTD SVG 1.1//EN"
 "http://www.w3.org/Graphics/SVG/1.1/DTD/svg11.dtd">
<!-- Generated by graphviz version 6.0.1 (20220911.1526)
 -->
<!-- Title: elc::defs::core::expr::be_eval Pages: 1 -->
<svg width="571pt" height="124pt"
 viewBox="0.00 0.00 571.00 123.50" xmlns="http://www.w3.org/2000/svg" xmlns:xlink="http://www.w3.org/1999/xlink">
<g id="graph0" class="graph" transform="scale(1 1) rotate(0) translate(4 119.5)">
<title>elc::defs::core::expr::be_eval</title>
<!-- Node1 -->
<g id="node1" class="node">
<title>Node1</title>
<g id="a_node1"><a xlink:title=" ">
<polygon fill="#999999" stroke="#666666" points="103,-78 0,-78 0,-48 103,-48 103,-78"/>
<text text-anchor="start" x="8" y="-66" font-family="Helvetica,sans-Serif" font-size="10.00">elc::defs::core::expr</text>
<text text-anchor="middle" x="51.5" y="-55" font-family="Helvetica,sans-Serif" font-size="10.00">::be_eval</text>
</a>
</g>
</g>
<!-- Node2 -->
<g id="node2" class="node">
<title>Node2</title>
<g id="a_node2"><a xlink:href="namespaceelc_1_1defs_1_1core.html#aa4b6b0e46887c02cd097d74031157c5f" target="_top" xlink:title=" ">
<polygon fill="white" stroke="#666666" points="264.5,-115.5 153.5,-115.5 153.5,-96.5 264.5,-96.5 264.5,-115.5"/>
<text text-anchor="middle" x="209" y="-103.5" font-family="Helvetica,sans-Serif" font-size="10.00">elc::defs::core::as_ptr</text>
</a>
</g>
</g>
<!-- Node1&#45;&gt;Node2 -->
<g id="edge1" class="edge">
<title>Node1&#45;&gt;Node2</title>
<path fill="none" stroke="#63b8ff" d="M103.27,-77.1C115,-80.36 127.43,-83.8 139,-87 146.92,-89.19 155.35,-91.51 163.5,-93.76"/>
<polygon fill="#63b8ff" stroke="#63b8ff" points="162.68,-97.16 173.25,-96.44 164.54,-90.42 162.68,-97.16"/>
</g>
<!-- Node3 -->
<g id="node3" class="node">
<title>Node3</title>
<g id="a_node3"><a xlink:href="structelc_1_1defs_1_1core_1_1node__like.html#a079463799979c4b41ed72a515614abac" target="_top" xlink:title=" ">
<polygon fill="white" stroke="#666666" points="261.5,-78 156.5,-78 156.5,-48 261.5,-48 261.5,-78"/>
<text text-anchor="start" x="164.5" y="-66" font-family="Helvetica,sans-Serif" font-size="10.00">elc::defs::core::node</text>
<text text-anchor="middle" x="209" y="-55" font-family="Helvetica,sans-Serif" font-size="10.00">_like::be_call</text>
</a>
</g>
</g>
<!-- Node1&#45;&gt;Node3 -->
<g id="edge2" class="edge">
<title>Node1&#45;&gt;Node3</title>
<path fill="none" stroke="#63b8ff" d="M103.42,-63C117.1,-63 132.05,-63 146.25,-63"/>
<polygon fill="#63b8ff" stroke="#63b8ff" points="146.44,-66.5 156.44,-63 146.44,-59.5 146.44,-66.5"/>
</g>
<!-- Node6 -->
<g id="node6" class="node">
<title>Node6</title>
<g id="a_node6"><a xlink:href="structelc_1_1defs_1_1memory_1_1ptr__n_1_1base__ptr__t.html#a44f476e6f5ff22f85494d86ac2125fb3" target="_top" xlink:title=" ">
<polygon fill="white" stroke="#666666" points="279,-30 139,-30 139,0 279,0 279,-30"/>
<text text-anchor="start" x="147" y="-18" font-family="Helvetica,sans-Serif" font-size="10.00">elc::defs::memory::</text>
<text text-anchor="middle" x="209" y="-7" font-family="Helvetica,sans-Serif" font-size="10.00">ptr_n::base_ptr_t::operator&#45;&gt;</text>
</a>
</g>
</g>
<!-- Node1&#45;&gt;Node6 -->
<g id="edge5" class="edge">
<title>Node1&#45;&gt;Node6</title>
<path fill="none" stroke="#63b8ff" d="M101.27,-47.94C116.62,-43.21 133.72,-37.93 149.65,-33.01"/>
<polygon fill="#63b8ff" stroke="#63b8ff" points="150.88,-36.3 159.4,-30 148.81,-29.61 150.88,-36.3"/>
</g>
<!-- Node4 -->
<g id="node4" class="node">
<title>Node4</title>
<g id="a_node4"><a xlink:href="structelc_1_1defs_1_1core_1_1value.html#a2cf6a81b24f203555d1abf9ef870fca2" target="_top" xlink:title=" ">
<polygon fill="white" stroke="#666666" points="421,-78 315,-78 315,-48 421,-48 421,-78"/>
<text text-anchor="start" x="323" y="-66" font-family="Helvetica,sans-Serif" font-size="10.00">elc::defs::core::value</text>
<text text-anchor="middle" x="368" y="-55" font-family="Helvetica,sans-Serif" font-size="10.00">::value</text>
</a>
</g>
</g>
<!-- Node3&#45;&gt;Node4 -->
<g id="edge3" class="edge">
<title>Node3&#45;&gt;Node4</title>
<path fill="none" stroke="#63b8ff" d="M261.84,-63C275.57,-63 290.53,-63 304.75,-63"/>
<polygon fill="#63b8ff" stroke="#63b8ff" points="304.94,-66.5 314.94,-63 304.94,-59.5 304.94,-66.5"/>
</g>
<!-- Node5 -->
<g id="node5" class="node">
<title>Node5</title>
<g id="a_node5"><a xlink:href="structelc_1_1defs_1_1core_1_1value.html#ac529cd09869ccd617a1ac33c6710fdc8" target="_top" xlink:title=" ">
<polygon fill="white" stroke="#666666" points="563,-78 457,-78 457,-48 563,-48 563,-78"/>
<text text-anchor="start" x="465" y="-66" font-family="Helvetica,sans-Serif" font-size="10.00">elc::defs::core::value</text>
<text text-anchor="middle" x="510" y="-55" font-family="Helvetica,sans-Serif" font-size="10.00">::value</text>
</a>
</g>
</g>
<!-- Node4&#45;&gt;Node5 -->
<g id="edge4" class="edge">
<title>Node4&#45;&gt;Node5</title>
<path fill="none" stroke="#63b8ff" d="M421.13,-63C429.42,-63 438.07,-63 446.57,-63"/>
<polygon fill="#63b8ff" stroke="#63b8ff" points="446.83,-66.5 456.83,-63 446.83,-59.5 446.83,-66.5"/>
</g>
</g>
</svg>
