<?xml version="1.0" encoding="UTF-8" standalone="no"?>
<!DOCTYPE svg PUBLIC "-//W3C//DTD SVG 1.1//EN"
 "http://www.w3.org/Graphics/SVG/1.1/DTD/svg11.dtd">
<!-- Generated by graphviz version 6.0.1 (20220911.1526)
 -->
<!-- Title: elc::defs::core::core_runtime_internal_helper_n::base_t Pages: 1 -->
<svg width="130pt" height="170pt"
 viewBox="0.00 0.00 130.00 170.00" xmlns="http://www.w3.org/2000/svg" xmlns:xlink="http://www.w3.org/1999/xlink">
<g id="graph0" class="graph" transform="scale(1 1) rotate(0) translate(4 166)">
<title>elc::defs::core::core_runtime_internal_helper_n::base_t</title>
<!-- Node1 -->
<g id="node1" class="node">
<title>Node1</title>
<g id="a_node1"><a xlink:title=" ">
<polygon fill="#999999" stroke="#666666" points="122,-41 0,-41 0,0 122,0 122,-41"/>
<text text-anchor="start" x="8" y="-29" font-family="Helvetica,sans-Serif" font-size="10.00">elc::defs::core::core</text>
<text text-anchor="start" x="8" y="-18" font-family="Helvetica,sans-Serif" font-size="10.00">_runtime_internal_helper</text>
<text text-anchor="middle" x="61" y="-7" font-family="Helvetica,sans-Serif" font-size="10.00">_n::base_t</text>
</a>
</g>
</g>
<!-- Node2 -->
<g id="node2" class="node">
<title>Node2</title>
<g id="a_node2"><a xlink:href="structelc_1_1defs_1_1core_1_1base__runtime__exception.html" target="_top" xlink:title=" ">
<polygon fill="white" stroke="#666666" points="113.5,-107 8.5,-107 8.5,-77 113.5,-77 113.5,-107"/>
<text text-anchor="start" x="16.5" y="-95" font-family="Helvetica,sans-Serif" font-size="10.00">elc::defs::core::base</text>
<text text-anchor="middle" x="61" y="-84" font-family="Helvetica,sans-Serif" font-size="10.00">_runtime_exception</text>
</a>
</g>
</g>
<!-- Node2&#45;&gt;Node1 -->
<g id="edge1" class="edge">
<title>Node2&#45;&gt;Node1</title>
<path fill="none" stroke="#63b8ff" d="M61,-66.91C61,-58.47 61,-49.1 61,-41.07"/>
<polygon fill="#63b8ff" stroke="#63b8ff" points="57.5,-66.94 61,-76.94 64.5,-66.94 57.5,-66.94"/>
</g>
<!-- Node3 -->
<g id="node3" class="node">
<title>Node3</title>
<g id="a_node3"><a xlink:title=" ">
<polygon fill="white" stroke="#666666" points="109,-162 13,-162 13,-143 109,-143 109,-162"/>
<text text-anchor="middle" x="61" y="-150" font-family="Helvetica,sans-Serif" font-size="10.00">runtime_exception</text>
</a>
</g>
</g>
<!-- Node3&#45;&gt;Node2 -->
<g id="edge2" class="edge">
<title>Node3&#45;&gt;Node2</title>
<path fill="none" stroke="#63b8ff" d="M61,-132.65C61,-124.36 61,-114.78 61,-107.11"/>
<polygon fill="#63b8ff" stroke="#63b8ff" points="57.5,-132.87 61,-142.87 64.5,-132.87 57.5,-132.87"/>
</g>
</g>
</svg>
