<?xml version="1.0" encoding="UTF-8" standalone="no"?>
<!DOCTYPE svg PUBLIC "-//W3C//DTD SVG 1.1//EN"
 "http://www.w3.org/Graphics/SVG/1.1/DTD/svg11.dtd">
<!-- Generated by graphviz version 6.0.1 (20220911.1526)
 -->
<!-- Title: elc::defs::string_n::string_data_n::comn_string_data_t&lt; char_T &gt; Pages: 1 -->
<svg width="671pt" height="303pt"
 viewBox="0.00 0.00 671.00 302.50" xmlns="http://www.w3.org/2000/svg" xmlns:xlink="http://www.w3.org/1999/xlink">
<g id="graph0" class="graph" transform="scale(1 1) rotate(0) translate(4 298.5)">
<title>elc::defs::string_n::string_data_n::comn_string_data_t&lt; char_T &gt;</title>
<!-- Node1 -->
<g id="node1" class="node">
<title>Node1</title>
<g id="a_node1"><a xlink:title=" ">
<polygon fill="#999999" stroke="#666666" points="663,-140 538,-140 538,-99 663,-99 663,-140"/>
<text text-anchor="start" x="546" y="-128" font-family="Helvetica,sans-Serif" font-size="10.00">elc::defs::string_n</text>
<text text-anchor="start" x="546" y="-117" font-family="Helvetica,sans-Serif" font-size="10.00">::string_data_n::comn</text>
<text text-anchor="middle" x="600.5" y="-106" font-family="Helvetica,sans-Serif" font-size="10.00">_string_data_t&lt; char_T &gt;</text>
</a>
</g>
</g>
<!-- Node2 -->
<g id="node2" class="node">
<title>Node2</title>
<g id="a_node2"><a xlink:href="structelc_1_1defs_1_1string__n_1_1string__data__n_1_1base__string__data__t.html" target="_top" xlink:title=" ">
<polygon fill="white" stroke="#666666" points="379.5,-208 254.5,-208 254.5,-167 379.5,-167 379.5,-208"/>
<text text-anchor="start" x="262.5" y="-196" font-family="Helvetica,sans-Serif" font-size="10.00">elc::defs::string_n</text>
<text text-anchor="start" x="262.5" y="-185" font-family="Helvetica,sans-Serif" font-size="10.00">::string_data_n::base</text>
<text text-anchor="middle" x="317" y="-174" font-family="Helvetica,sans-Serif" font-size="10.00">_string_data_t&lt; char_T &gt;</text>
</a>
</g>
</g>
<!-- Node2&#45;&gt;Node1 -->
<g id="edge1" class="edge">
<title>Node2&#45;&gt;Node1</title>
<path fill="none" stroke="#63b8ff" d="M390.03,-170.63C428.61,-161.53 476.93,-150.03 520,-139.5 525.81,-138.08 531.85,-136.59 537.89,-135.08"/>
<polygon fill="#63b8ff" stroke="#63b8ff" points="388.87,-167.3 379.94,-173.01 390.47,-174.12 388.87,-167.3"/>
</g>
<!-- Node3 -->
<g id="node3" class="node">
<title>Node3</title>
<g id="a_node3"><a xlink:title=" ">
<polygon fill="white" stroke="#666666" points="153,-294.5 0,-294.5 0,-220.5 153,-220.5 153,-294.5"/>
<text text-anchor="start" x="8" y="-282.5" font-family="Helvetica,sans-Serif" font-size="10.00">type_info_t&lt; base_string</text>
<text text-anchor="start" x="8" y="-271.5" font-family="Helvetica,sans-Serif" font-size="10.00">_data_t&lt; char_T &gt; &gt;:: template</text>
<text text-anchor="middle" x="76.5" y="-260.5" font-family="Helvetica,sans-Serif" font-size="10.00"> </text>
<text text-anchor="start" x="8" y="-249.5" font-family="Helvetica,sans-Serif" font-size="10.00">	with_common_attribute</text>
<text text-anchor="start" x="8" y="-238.5" font-family="Helvetica,sans-Serif" font-size="10.00">&lt; abstract_base, never_in</text>
<text text-anchor="middle" x="76.5" y="-227.5" font-family="Helvetica,sans-Serif" font-size="10.00">_array, replace_able, ref_able &gt;</text>
</a>
</g>
</g>
<!-- Node3&#45;&gt;Node2 -->
<g id="edge2" class="edge">
<title>Node3&#45;&gt;Node2</title>
<path fill="none" stroke="#63b8ff" d="M162.97,-232.41C193.17,-223.55 226.52,-213.76 254.36,-205.59"/>
<polygon fill="#63b8ff" stroke="#63b8ff" points="161.9,-229.08 153.29,-235.26 163.87,-235.8 161.9,-229.08"/>
</g>
<!-- Node4 -->
<g id="node4" class="node">
<title>Node4</title>
<g id="a_node4"><a xlink:href="classelc_1_1defs_1_1base_1_1build__by__get__only.html" target="_top" xlink:title=" ">
<polygon fill="white" stroke="#666666" points="130,-202.5 23,-202.5 23,-172.5 130,-172.5 130,-202.5"/>
<text text-anchor="start" x="31" y="-190.5" font-family="Helvetica,sans-Serif" font-size="10.00">elc::defs::base::build</text>
<text text-anchor="middle" x="76.5" y="-179.5" font-family="Helvetica,sans-Serif" font-size="10.00">_by_get_only</text>
</a>
</g>
</g>
<!-- Node4&#45;&gt;Node2 -->
<g id="edge3" class="edge">
<title>Node4&#45;&gt;Node2</title>
<path fill="none" stroke="#63b8ff" d="M140.29,-187.5C175.48,-187.5 219.19,-187.5 254.21,-187.5"/>
<polygon fill="#63b8ff" stroke="#63b8ff" points="140.14,-184 130.14,-187.5 140.14,-191 140.14,-184"/>
</g>
<!-- Node5 -->
<g id="node5" class="node">
<title>Node5</title>
<g id="a_node5"><a xlink:href="structelc_1_1defs_1_1base_1_1hash__n_1_1hash__value__t.html" target="_top" xlink:title=" ">
<polygon fill="white" stroke="#666666" points="130,-154.5 23,-154.5 23,-124.5 130,-124.5 130,-154.5"/>
<text text-anchor="start" x="31" y="-142.5" font-family="Helvetica,sans-Serif" font-size="10.00">elc::defs::base::hash</text>
<text text-anchor="middle" x="76.5" y="-131.5" font-family="Helvetica,sans-Serif" font-size="10.00">_n::hash_value_t</text>
</a>
</g>
</g>
<!-- Node5&#45;&gt;Node2 -->
<g id="edge4" class="edge">
<title>Node5&#45;&gt;Node2</title>
<path fill="none" stroke="#9a32cd" stroke-dasharray="5,2" d="M140.29,-152.14C175.48,-159.22 219.19,-168.02 254.21,-175.07"/>
<polygon fill="#9a32cd" stroke="#9a32cd" points="140.63,-148.64 130.14,-150.09 139.25,-155.5 140.63,-148.64"/>
<text text-anchor="middle" x="201.5" y="-171.5" font-family="Helvetica,sans-Serif" font-size="10.00"> _hash_cache</text>
</g>
<!-- Node6 -->
<g id="node6" class="node">
<title>Node6</title>
<g id="a_node6"><a xlink:title=" ">
<polygon fill="white" stroke="#666666" points="384,-148.5 250,-148.5 250,-118.5 384,-118.5 384,-148.5"/>
<text text-anchor="start" x="258" y="-136.5" font-family="Helvetica,sans-Serif" font-size="10.00">instance_struct&lt; comn</text>
<text text-anchor="middle" x="317" y="-125.5" font-family="Helvetica,sans-Serif" font-size="10.00">_string_data_t&lt; char_T &gt; &gt;</text>
</a>
</g>
</g>
<!-- Node6&#45;&gt;Node1 -->
<g id="edge5" class="edge">
<title>Node6&#45;&gt;Node1</title>
<path fill="none" stroke="#63b8ff" d="M394.38,-129.7C439.44,-127.46 495.72,-124.66 537.92,-122.56"/>
<polygon fill="#63b8ff" stroke="#63b8ff" points="394.17,-126.21 384.36,-130.2 394.52,-133.2 394.17,-126.21"/>
</g>
<!-- Node7 -->
<g id="node7" class="node">
<title>Node7</title>
<g id="a_node7"><a xlink:href="structelc_1_1defs_1_1base_1_1range__n_1_1match__pattern.html" target="_top" xlink:title=" ">
<polygon fill="white" stroke="#666666" points="381,-100 253,-100 253,-59 381,-59 381,-100"/>
<text text-anchor="start" x="261" y="-88" font-family="Helvetica,sans-Serif" font-size="10.00">elc::defs::base::range</text>
<text text-anchor="start" x="261" y="-77" font-family="Helvetica,sans-Serif" font-size="10.00">_n::match_pattern&lt; const</text>
<text text-anchor="middle" x="317" y="-66" font-family="Helvetica,sans-Serif" font-size="10.00"> char_T &gt;</text>
</a>
</g>
</g>
<!-- Node7&#45;&gt;Node1 -->
<g id="edge6" class="edge">
<title>Node7&#45;&gt;Node1</title>
<path fill="none" stroke="#9a32cd" stroke-dasharray="5,2" d="M391.29,-89.91C436.87,-96.39 494.81,-104.62 537.99,-110.76"/>
<polygon fill="#9a32cd" stroke="#9a32cd" points="391.57,-86.42 381.17,-88.48 390.58,-93.35 391.57,-86.42"/>
<text text-anchor="middle" x="461" y="-110.5" font-family="Helvetica,sans-Serif" font-size="10.00"> _p_match_pattern</text>
</g>
<!-- Node8 -->
<g id="node8" class="node">
<title>Node8</title>
<g id="a_node8"><a xlink:href="structelc_1_1defs_1_1base_1_1array__like__n_1_1array__like__view__t.html" target="_top" xlink:title=" ">
<polygon fill="white" stroke="#666666" points="136,-68 17,-68 17,-27 136,-27 136,-68"/>
<text text-anchor="start" x="25" y="-56" font-family="Helvetica,sans-Serif" font-size="10.00">elc::defs::base::array</text>
<text text-anchor="start" x="25" y="-45" font-family="Helvetica,sans-Serif" font-size="10.00">_like_n::array_like_view</text>
<text text-anchor="middle" x="76.5" y="-34" font-family="Helvetica,sans-Serif" font-size="10.00">_t&lt; const char_T &gt;</text>
</a>
</g>
</g>
<!-- Node8&#45;&gt;Node7 -->
<g id="edge7" class="edge">
<title>Node8&#45;&gt;Node7</title>
<path fill="none" stroke="#9a32cd" stroke-dasharray="5,2" d="M146.36,-56.74C179.99,-61.25 220.17,-66.64 252.98,-71.04"/>
<polygon fill="#9a32cd" stroke="#9a32cd" points="146.53,-53.23 136.15,-55.37 145.59,-60.17 146.53,-53.23"/>
<text text-anchor="middle" x="201.5" y="-70.5" font-family="Helvetica,sans-Serif" font-size="10.00"> _pattern</text>
</g>
<!-- Node9 -->
<g id="node9" class="node">
<title>Node9</title>
<g id="a_node9"><a xlink:href="structelc_1_1defs_1_1base_1_1range__n_1_1reverse__match__pattern.html" target="_top" xlink:title=" ">
<polygon fill="white" stroke="#666666" points="382.5,-41 251.5,-41 251.5,0 382.5,0 382.5,-41"/>
<text text-anchor="start" x="259.5" y="-29" font-family="Helvetica,sans-Serif" font-size="10.00">elc::defs::base::range</text>
<text text-anchor="start" x="259.5" y="-18" font-family="Helvetica,sans-Serif" font-size="10.00">_n::reverse_match_pattern</text>
<text text-anchor="middle" x="317" y="-7" font-family="Helvetica,sans-Serif" font-size="10.00">&lt; const char_T &gt;</text>
</a>
</g>
</g>
<!-- Node8&#45;&gt;Node9 -->
<g id="edge9" class="edge">
<title>Node8&#45;&gt;Node9</title>
<path fill="none" stroke="#9a32cd" stroke-dasharray="5,2" d="M146.36,-37.59C154.66,-36.5 163.02,-35.44 171,-34.5 197.25,-31.41 226.23,-28.51 251.34,-26.16"/>
<polygon fill="#9a32cd" stroke="#9a32cd" points="145.75,-34.14 136.31,-38.94 146.68,-41.08 145.75,-34.14"/>
<text text-anchor="middle" x="201.5" y="-37.5" font-family="Helvetica,sans-Serif" font-size="10.00"> _pattern</text>
</g>
<!-- Node9&#45;&gt;Node1 -->
<g id="edge8" class="edge">
<title>Node9&#45;&gt;Node1</title>
<path fill="none" stroke="#9a32cd" stroke-dasharray="5,2" d="M393.04,-37.02C431.66,-46.59 479.1,-60.02 520,-76.5 535.43,-82.72 551.71,-91.16 565.49,-98.92"/>
<polygon fill="#9a32cd" stroke="#9a32cd" points="393.45,-33.52 382.91,-34.55 391.79,-40.32 393.45,-33.52"/>
<text text-anchor="middle" x="461" y="-79.5" font-family="Helvetica,sans-Serif" font-size="10.00"> _p_reverse_match_pattern</text>
</g>
</g>
</svg>
