<?xml version="1.0" encoding="UTF-8" standalone="no"?>
<!DOCTYPE svg PUBLIC "-//W3C//DTD SVG 1.1//EN"
 "http://www.w3.org/Graphics/SVG/1.1/DTD/svg11.dtd">
<!-- Generated by graphviz version 6.0.1 (20220911.1526)
 -->
<!-- Title: elc::defs::stream_n::string_istream Pages: 1 -->
<svg width="256pt" height="302pt"
 viewBox="0.00 0.00 255.50 302.00" xmlns="http://www.w3.org/2000/svg" xmlns:xlink="http://www.w3.org/1999/xlink">
<g id="graph0" class="graph" transform="scale(1 1) rotate(0) translate(4 298)">
<title>elc::defs::stream_n::string_istream</title>
<!-- Node1 -->
<g id="node1" class="node">
<title>Node1</title>
<g id="a_node1"><a xlink:title=" ">
<polygon fill="#999999" stroke="#666666" points="180.5,-162 80.5,-162 80.5,-132 180.5,-132 180.5,-162"/>
<text text-anchor="start" x="88.5" y="-150" font-family="Helvetica,sans-Serif" font-size="10.00">elc::defs::stream_n</text>
<text text-anchor="middle" x="130.5" y="-139" font-family="Helvetica,sans-Serif" font-size="10.00">::string_istream</text>
</a>
</g>
</g>
<!-- Node4 -->
<g id="node4" class="node">
<title>Node4</title>
<g id="a_node4"><a xlink:href="structelc_1_1defs_1_1stream__n_1_1noexcept__string__istream.html" target="_top" xlink:title=" ">
<polygon fill="white" stroke="#666666" points="129,-96 0,-96 0,-66 129,-66 129,-96"/>
<text text-anchor="start" x="8" y="-84" font-family="Helvetica,sans-Serif" font-size="10.00">elc::defs::stream_n</text>
<text text-anchor="middle" x="64.5" y="-73" font-family="Helvetica,sans-Serif" font-size="10.00">::noexcept_string_istream</text>
</a>
</g>
</g>
<!-- Node1&#45;&gt;Node4 -->
<g id="edge3" class="edge">
<title>Node1&#45;&gt;Node4</title>
<path fill="none" stroke="#63b8ff" d="M108.48,-124.65C98.81,-115.27 87.73,-104.53 79.11,-96.16"/>
<polygon fill="#63b8ff" stroke="#63b8ff" points="106.24,-127.35 115.85,-131.8 111.11,-122.32 106.24,-127.35"/>
</g>
<!-- Node6 -->
<g id="node6" class="node">
<title>Node6</title>
<g id="a_node6"><a xlink:href="structelc_1_1defs_1_1stream__n_1_1string__iostream.html" target="_top" xlink:title=" ">
<polygon fill="white" stroke="#666666" points="247.5,-96 147.5,-96 147.5,-66 247.5,-66 247.5,-96"/>
<text text-anchor="start" x="155.5" y="-84" font-family="Helvetica,sans-Serif" font-size="10.00">elc::defs::stream_n</text>
<text text-anchor="middle" x="197.5" y="-73" font-family="Helvetica,sans-Serif" font-size="10.00">::string_iostream</text>
</a>
</g>
</g>
<!-- Node1&#45;&gt;Node6 -->
<g id="edge5" class="edge">
<title>Node1&#45;&gt;Node6</title>
<path fill="none" stroke="#63b8ff" d="M152.85,-124.65C162.67,-115.27 173.92,-104.53 182.67,-96.16"/>
<polygon fill="#63b8ff" stroke="#63b8ff" points="150.18,-122.36 145.37,-131.8 155.02,-127.42 150.18,-122.36"/>
</g>
<!-- Node2 -->
<g id="node2" class="node">
<title>Node2</title>
<g id="a_node2"><a xlink:href="structelc_1_1defs_1_1stream__n_1_1base__istream.html" target="_top" xlink:title=" ">
<polygon fill="white" stroke="#666666" points="180.5,-228 80.5,-228 80.5,-198 180.5,-198 180.5,-228"/>
<text text-anchor="start" x="88.5" y="-216" font-family="Helvetica,sans-Serif" font-size="10.00">elc::defs::stream_n</text>
<text text-anchor="middle" x="130.5" y="-205" font-family="Helvetica,sans-Serif" font-size="10.00">::base_istream</text>
</a>
</g>
</g>
<!-- Node2&#45;&gt;Node1 -->
<g id="edge1" class="edge">
<title>Node2&#45;&gt;Node1</title>
<path fill="none" stroke="#63b8ff" d="M130.5,-187.54C130.5,-178.96 130.5,-169.61 130.5,-162.16"/>
<polygon fill="#63b8ff" stroke="#63b8ff" points="127,-187.8 130.5,-197.8 134,-187.8 127,-187.8"/>
</g>
<!-- Node3 -->
<g id="node3" class="node">
<title>Node3</title>
<g id="a_node3"><a xlink:href="structelc_1_1defs_1_1stream__n_1_1base__stream.html" target="_top" xlink:title=" ">
<polygon fill="white" stroke="#666666" points="180.5,-294 80.5,-294 80.5,-264 180.5,-264 180.5,-294"/>
<text text-anchor="start" x="88.5" y="-282" font-family="Helvetica,sans-Serif" font-size="10.00">elc::defs::stream_n</text>
<text text-anchor="middle" x="130.5" y="-271" font-family="Helvetica,sans-Serif" font-size="10.00">::base_stream</text>
</a>
</g>
</g>
<!-- Node3&#45;&gt;Node2 -->
<g id="edge2" class="edge">
<title>Node3&#45;&gt;Node2</title>
<path fill="none" stroke="#63b8ff" d="M130.5,-253.54C130.5,-244.96 130.5,-235.61 130.5,-228.16"/>
<polygon fill="#63b8ff" stroke="#63b8ff" points="127,-253.8 130.5,-263.8 134,-253.8 127,-253.8"/>
</g>
<!-- Node5 -->
<g id="node5" class="node">
<title>Node5</title>
<g id="a_node5"><a xlink:href="structelc_1_1defs_1_1stream__n_1_1noexcept__string__iostream.html" target="_top" xlink:title=" ">
<polygon fill="white" stroke="#666666" points="197.5,-30 63.5,-30 63.5,0 197.5,0 197.5,-30"/>
<text text-anchor="start" x="71.5" y="-18" font-family="Helvetica,sans-Serif" font-size="10.00">elc::defs::stream_n</text>
<text text-anchor="middle" x="130.5" y="-7" font-family="Helvetica,sans-Serif" font-size="10.00">::noexcept_string_iostream</text>
</a>
</g>
</g>
<!-- Node4&#45;&gt;Node5 -->
<g id="edge4" class="edge">
<title>Node4&#45;&gt;Node5</title>
<path fill="none" stroke="#63b8ff" d="M86.52,-58.65C96.19,-49.27 107.27,-38.53 115.89,-30.16"/>
<polygon fill="#63b8ff" stroke="#63b8ff" points="83.89,-56.32 79.15,-65.8 88.76,-61.35 83.89,-56.32"/>
</g>
<!-- Node6&#45;&gt;Node5 -->
<g id="edge6" class="edge">
<title>Node6&#45;&gt;Node5</title>
<path fill="none" stroke="#63b8ff" d="M175.15,-58.65C165.33,-49.27 154.08,-38.53 145.33,-30.16"/>
<polygon fill="#63b8ff" stroke="#63b8ff" points="172.98,-61.42 182.63,-65.8 177.82,-56.36 172.98,-61.42"/>
</g>
</g>
</svg>
