<?xml version="1.0" encoding="UTF-8" standalone="no"?>
<!DOCTYPE svg PUBLIC "-//W3C//DTD SVG 1.1//EN"
 "http://www.w3.org/Graphics/SVG/1.1/DTD/svg11.dtd">
<!-- Generated by graphviz version 6.0.1 (20220911.1526)
 -->
<!-- Title: elc::defs::container::stack_n::auto_stack_t&lt; T &gt; Pages: 1 -->
<svg width="240pt" height="258pt"
 viewBox="0.00 0.00 240.00 258.00" xmlns="http://www.w3.org/2000/svg" xmlns:xlink="http://www.w3.org/1999/xlink">
<g id="graph0" class="graph" transform="scale(1 1) rotate(0) translate(4 254)">
<title>elc::defs::container::stack_n::auto_stack_t&lt; T &gt;</title>
<!-- Node1 -->
<g id="node1" class="node">
<title>Node1</title>
<g id="a_node1"><a xlink:title=" ">
<polygon fill="#999999" stroke="#666666" points="168.5,-41 57.5,-41 57.5,0 168.5,0 168.5,-41"/>
<text text-anchor="start" x="65.5" y="-29" font-family="Helvetica,sans-Serif" font-size="10.00">elc::defs::container</text>
<text text-anchor="start" x="65.5" y="-18" font-family="Helvetica,sans-Serif" font-size="10.00">::stack_n::auto_stack</text>
<text text-anchor="middle" x="113" y="-7" font-family="Helvetica,sans-Serif" font-size="10.00">_t&lt; T &gt;</text>
</a>
</g>
</g>
<!-- Node2 -->
<g id="node2" class="node">
<title>Node2</title>
<g id="a_node2"><a xlink:href="classelc_1_1defs_1_1container_1_1stack__n_1_1base__stack__t.html" target="_top" xlink:title=" ">
<polygon fill="white" stroke="#666666" points="169.5,-118 56.5,-118 56.5,-77 169.5,-77 169.5,-118"/>
<text text-anchor="start" x="64.5" y="-106" font-family="Helvetica,sans-Serif" font-size="10.00">elc::defs::container</text>
<text text-anchor="start" x="64.5" y="-95" font-family="Helvetica,sans-Serif" font-size="10.00">::stack_n::base_stack</text>
<text text-anchor="middle" x="113" y="-84" font-family="Helvetica,sans-Serif" font-size="10.00">_t&lt; T &gt;</text>
</a>
</g>
</g>
<!-- Node2&#45;&gt;Node1 -->
<g id="edge1" class="edge">
<title>Node2&#45;&gt;Node1</title>
<path fill="none" stroke="#63b8ff" d="M113,-66.69C113,-58.08 113,-48.9 113,-41.07"/>
<polygon fill="#63b8ff" stroke="#63b8ff" points="109.5,-66.79 113,-76.79 116.5,-66.79 109.5,-66.79"/>
</g>
<!-- Node3 -->
<g id="node3" class="node">
<title>Node3</title>
<g id="a_node3"><a xlink:href="structelc_1_1defs_1_1base_1_1non__copyable.html" target="_top" xlink:title="禁止默认合成的复制">
<polygon fill="white" stroke="#666666" points="164,-184 62,-184 62,-154 164,-154 164,-184"/>
<text text-anchor="start" x="70" y="-172" font-family="Helvetica,sans-Serif" font-size="10.00">elc::defs::base::non</text>
<text text-anchor="middle" x="113" y="-161" font-family="Helvetica,sans-Serif" font-size="10.00">_copyable</text>
</a>
</g>
</g>
<!-- Node3&#45;&gt;Node2 -->
<g id="edge2" class="edge">
<title>Node3&#45;&gt;Node2</title>
<path fill="none" stroke="#8b1a1a" d="M113,-143.91C113,-135.47 113,-126.1 113,-118.07"/>
<polygon fill="#8b1a1a" stroke="#8b1a1a" points="109.5,-143.94 113,-153.94 116.5,-143.94 109.5,-143.94"/>
</g>
<!-- Node4 -->
<g id="node4" class="node">
<title>Node4</title>
<g id="a_node4"><a xlink:href="structelc_1_1defs_1_1base_1_1non__copy__assign__able.html" target="_top" xlink:title="禁止复制赋值">
<polygon fill="white" stroke="#666666" points="102,-250 0,-250 0,-220 102,-220 102,-250"/>
<text text-anchor="start" x="8" y="-238" font-family="Helvetica,sans-Serif" font-size="10.00">elc::defs::base::non</text>
<text text-anchor="middle" x="51" y="-227" font-family="Helvetica,sans-Serif" font-size="10.00">_copy_assign_able</text>
</a>
</g>
</g>
<!-- Node4&#45;&gt;Node3 -->
<g id="edge3" class="edge">
<title>Node4&#45;&gt;Node3</title>
<path fill="none" stroke="#63b8ff" d="M71.96,-212.37C80.97,-203.06 91.26,-192.44 99.28,-184.16"/>
<polygon fill="#63b8ff" stroke="#63b8ff" points="69.2,-210.18 64.76,-219.8 74.23,-215.05 69.2,-210.18"/>
</g>
<!-- Node5 -->
<g id="node5" class="node">
<title>Node5</title>
<g id="a_node5"><a xlink:href="structelc_1_1defs_1_1base_1_1non__copy__construct__able.html" target="_top" xlink:title="禁止复制构造">
<polygon fill="white" stroke="#666666" points="232,-250 120,-250 120,-220 232,-220 232,-250"/>
<text text-anchor="start" x="128" y="-238" font-family="Helvetica,sans-Serif" font-size="10.00">elc::defs::base::non</text>
<text text-anchor="middle" x="176" y="-227" font-family="Helvetica,sans-Serif" font-size="10.00">_copy_construct_able</text>
</a>
</g>
</g>
<!-- Node5&#45;&gt;Node3 -->
<g id="edge4" class="edge">
<title>Node5&#45;&gt;Node3</title>
<path fill="none" stroke="#63b8ff" d="M154.98,-212.65C145.75,-203.27 135.17,-192.53 126.94,-184.16"/>
<polygon fill="#63b8ff" stroke="#63b8ff" points="152.51,-215.13 162.02,-219.8 157.5,-210.21 152.51,-215.13"/>
</g>
</g>
</svg>
