<?xml version="1.0" encoding="UTF-8" standalone="no"?>
<!DOCTYPE svg PUBLIC "-//W3C//DTD SVG 1.1//EN"
 "http://www.w3.org/Graphics/SVG/1.1/DTD/svg11.dtd">
<!-- Generated by graphviz version 6.0.1 (20220911.1526)
 -->
<!-- Title: elc::defs::core::common_node Pages: 1 -->
<svg width="507pt" height="98pt"
 viewBox="0.00 0.00 507.00 97.50" xmlns="http://www.w3.org/2000/svg" xmlns:xlink="http://www.w3.org/1999/xlink">
<g id="graph0" class="graph" transform="scale(1 1) rotate(0) translate(4 93.5)">
<title>elc::defs::core::common_node</title>
<!-- Node1 -->
<g id="node1" class="node">
<title>Node1</title>
<g id="a_node1"><a xlink:title=" ">
<polygon fill="#999999" stroke="#666666" points="499,-45.5 351,-45.5 351,-26.5 499,-26.5 499,-45.5"/>
<text text-anchor="middle" x="425" y="-33.5" font-family="Helvetica,sans-Serif" font-size="10.00">elc::defs::core::common_node</text>
</a>
</g>
</g>
<!-- Node2 -->
<g id="node2" class="node">
<title>Node2</title>
<g id="a_node2"><a xlink:href="structelc_1_1defs_1_1core_1_1node__like.html" target="_top" xlink:title=" ">
<polygon fill="white" stroke="#666666" points="312.5,-67.5 187.5,-67.5 187.5,-48.5 312.5,-48.5 312.5,-67.5"/>
<text text-anchor="middle" x="250" y="-55.5" font-family="Helvetica,sans-Serif" font-size="10.00">elc::defs::core::node_like</text>
</a>
</g>
</g>
<!-- Node2&#45;&gt;Node1 -->
<g id="edge1" class="edge">
<title>Node2&#45;&gt;Node1</title>
<path fill="none" stroke="#63b8ff" d="M322.91,-48.86C332.18,-47.68 341.68,-46.47 350.96,-45.29"/>
<polygon fill="#63b8ff" stroke="#63b8ff" points="322.45,-45.39 312.97,-50.12 323.33,-52.33 322.45,-45.39"/>
</g>
<!-- Node3 -->
<g id="node3" class="node">
<title>Node3</title>
<g id="a_node3"><a xlink:title=" ">
<polygon fill="white" stroke="#666666" points="149,-89.5 0,-89.5 0,-26.5 149,-26.5 149,-89.5"/>
<text text-anchor="start" x="8" y="-77.5" font-family="Helvetica,sans-Serif" font-size="10.00">type_info_t&lt; node_like</text>
<text text-anchor="middle" x="74.5" y="-66.5" font-family="Helvetica,sans-Serif" font-size="10.00"> &gt;:: template </text>
<text text-anchor="start" x="8" y="-55.5" font-family="Helvetica,sans-Serif" font-size="10.00">	with_common_attribute</text>
<text text-anchor="start" x="8" y="-44.5" font-family="Helvetica,sans-Serif" font-size="10.00">&lt; abstract_base, weak_ref</text>
<text text-anchor="middle" x="74.5" y="-33.5" font-family="Helvetica,sans-Serif" font-size="10.00">_able, replace_able, ref_able &gt;</text>
</a>
</g>
</g>
<!-- Node3&#45;&gt;Node2 -->
<g id="edge2" class="edge">
<title>Node3&#45;&gt;Node2</title>
<path fill="none" stroke="#63b8ff" d="M159.3,-58C168.75,-58 178.25,-58 187.35,-58"/>
<polygon fill="#63b8ff" stroke="#63b8ff" points="159.08,-54.5 149.08,-58 159.08,-61.5 159.08,-54.5"/>
</g>
<!-- Node4 -->
<g id="node4" class="node">
<title>Node4</title>
<g id="a_node4"><a xlink:title=" ">
<polygon fill="white" stroke="#666666" points="315,-30 185,-30 185,0 315,0 315,-30"/>
<text text-anchor="start" x="193" y="-18" font-family="Helvetica,sans-Serif" font-size="10.00">instance_struct&lt; common</text>
<text text-anchor="middle" x="250" y="-7" font-family="Helvetica,sans-Serif" font-size="10.00">_node &gt;</text>
</a>
</g>
</g>
<!-- Node4&#45;&gt;Node1 -->
<g id="edge3" class="edge">
<title>Node4&#45;&gt;Node1</title>
<path fill="none" stroke="#63b8ff" d="M325.53,-24.05C333.91,-25.06 342.43,-26.1 350.79,-27.11"/>
<polygon fill="#63b8ff" stroke="#63b8ff" points="325.77,-20.55 315.42,-22.82 324.92,-27.5 325.77,-20.55"/>
</g>
</g>
</svg>
