<?xml version="1.0" encoding="UTF-8" standalone="no"?>
<!DOCTYPE svg PUBLIC "-//W3C//DTD SVG 1.1//EN"
 "http://www.w3.org/Graphics/SVG/1.1/DTD/svg11.dtd">
<!-- Generated by graphviz version 6.0.1 (20220911.1526)
 -->
<!-- Title: elc::defs::memory::ptr_n::ptr_t::get Pages: 1 -->
<!--zoomable 386 -->
<svg id="main" version="1.1" xmlns="http://www.w3.org/2000/svg" xmlns:xlink="http://www.w3.org/1999/xlink" xml:space="preserve" onload="init(evt)">
<style type="text/css"><![CDATA[
.edge:hover path { stroke: red; }
.edge:hover polygon { stroke: red; fill: red; }
]]></style>
<script type="text/javascript"><![CDATA[
var edges = document.getElementsByTagName('g');
if (edges && edges.length) {
  for (var i=0;i<edges.length;i++) {
    if (edges[i].id.substr(0,4)=='edge') {
      edges[i].setAttribute('class','edge');
    }
  }
}
]]></script>
        <defs>
                <circle id="rim" cx="0" cy="0" r="7"/>
                <circle id="rim2" cx="0" cy="0" r="3.5"/>
                <g id="zoomPlus">
                        <use xlink:href="#rim" fill="#404040">
                                <set attributeName="fill" to="#808080" begin="zoomplus.mouseover" end="zoomplus.mouseout"/>
                        </use>
                        <path d="M-4,0h8M0,-4v8" fill="none" stroke="white" stroke-width="1.5" pointer-events="none"/>
                </g>
                <g id="zoomMin">
                        <use xlink:href="#rim" fill="#404040">
                                <set attributeName="fill" to="#808080" begin="zoomminus.mouseover" end="zoomminus.mouseout"/>
                        </use>
                        <path d="M-4,0h8" fill="none" stroke="white" stroke-width="1.5" pointer-events="none"/>
                </g>
                <g id="dirArrow">
                        <path fill="none" stroke="white" stroke-width="1.5" d="M0,-3.0v7 M-2.5,-0.5L0,-3.0L2.5,-0.5"/>
                </g>
               <g id="resetDef">
                       <use xlink:href="#rim2" fill="#404040">
                               <set attributeName="fill" to="#808080" begin="reset.mouseover" end="reset.mouseout"/>
                       </use>
               </g>
        </defs>

<script type="text/javascript">
var viewWidth = 542;
var viewHeight = 386;
var sectionId = 'dynsection-3';
</script>
<script xlink:href="svgpan.js"/>
<svg id="graph" class="graph">
<g id="viewport">
<title>elc::defs::memory::ptr_n::ptr_t::get</title>
<!-- Node1 -->
<g id="node1" class="node">
<title>Node1</title>
<g id="a_node1"><a xlink:title=" ">
<polygon fill="#999999" stroke="#666666" points="534,-186 433,-186 433,-156 534,-156 534,-186"/>
<text text-anchor="start" x="441" y="-174" font-family="Helvetica,sans-Serif" font-size="10.00">elc::defs::memory::</text>
<text text-anchor="middle" x="483.5" y="-163" font-family="Helvetica,sans-Serif" font-size="10.00">ptr_n::ptr_t::get</text>
</a>
</g>
</g>
<!-- Node2 -->
<g id="node2" class="node">
<title>Node2</title>
<g id="a_node2"><a xlink:href="structelc_1_1defs_1_1core_1_1node__like.html#a772b69c7911dabdc464ae71efa6f6318" target="_top" xlink:title=" ">
<polygon fill="white" stroke="#666666" points="389,-330 283,-330 283,-300 389,-300 389,-330"/>
<text text-anchor="start" x="291" y="-318" font-family="Helvetica,sans-Serif" font-size="10.00">elc::defs::core::node</text>
<text text-anchor="middle" x="336" y="-307" font-family="Helvetica,sans-Serif" font-size="10.00">_like::be_replace_as</text>
</a>
</g>
</g>
<!-- Node1&#45;&gt;Node2 -->
<g id="edge1" class="edge">
<title>Node1&#45;&gt;Node2</title>
<path fill="none" stroke="#63b8ff" d="M470.75,-195.07C456.6,-221.81 430.5,-264.67 397,-291 392.68,-294.4 387.81,-297.37 382.77,-299.96"/>
<polygon fill="#63b8ff" stroke="#63b8ff" points="473.95,-196.5 475.41,-186.01 467.72,-193.3 473.95,-196.5"/>
</g>
<!-- Node6 -->
<g id="node6" class="node">
<title>Node6</title>
<g id="a_node6"><a xlink:href="structelc_1_1defs_1_1core_1_1node__like.html#a49b9854af94c796e5ab88ef690a7e4fb" target="_top" xlink:title=" ">
<polygon fill="white" stroke="#666666" points="388.5,-282 283.5,-282 283.5,-252 388.5,-252 388.5,-282"/>
<text text-anchor="start" x="291.5" y="-270" font-family="Helvetica,sans-Serif" font-size="10.00">elc::defs::core::node</text>
<text text-anchor="middle" x="336" y="-259" font-family="Helvetica,sans-Serif" font-size="10.00">_like::eq_with</text>
</a>
</g>
</g>
<!-- Node1&#45;&gt;Node6 -->
<g id="edge5" class="edge">
<title>Node1&#45;&gt;Node6</title>
<path fill="none" stroke="#63b8ff" d="M460.12,-193.32C443.71,-208.78 420.31,-229.02 397,-243 391.61,-246.23 385.71,-249.2 379.78,-251.86"/>
<polygon fill="#63b8ff" stroke="#63b8ff" points="462.79,-195.61 467.59,-186.16 457.95,-190.56 462.79,-195.61"/>
</g>
<!-- Node9 -->
<g id="node9" class="node">
<title>Node9</title>
<g id="a_node9"><a xlink:href="structelc_1_1defs_1_1core_1_1common__node.html#a24cfb8da8925898961901f0acec4a12e" target="_top" xlink:title=" ">
<polygon fill="white" stroke="#666666" points="397,-234 275,-234 275,-204 397,-204 397,-234"/>
<text text-anchor="start" x="283" y="-222" font-family="Helvetica,sans-Serif" font-size="10.00">elc::defs::core::common</text>
<text text-anchor="middle" x="336" y="-211" font-family="Helvetica,sans-Serif" font-size="10.00">_node::equal_with</text>
</a>
</g>
</g>
<!-- Node1&#45;&gt;Node9 -->
<g id="edge8" class="edge">
<title>Node1&#45;&gt;Node9</title>
<path fill="none" stroke="#63b8ff" d="M427.31,-189.21C412.51,-194.09 396.68,-199.31 382.48,-204"/>
<polygon fill="#63b8ff" stroke="#63b8ff" points="428.46,-192.51 436.86,-186.06 426.27,-185.86 428.46,-192.51"/>
</g>
<!-- Node10 -->
<g id="node10" class="node">
<title>Node10</title>
<g id="a_node10"><a xlink:href="structelc_1_1defs_1_1core_1_1cons.html#a3693b54b2d49cb7329868940357be9e3" target="_top" xlink:title=" ">
<polygon fill="white" stroke="#666666" points="388.5,-186 283.5,-186 283.5,-156 388.5,-156 388.5,-186"/>
<text text-anchor="start" x="291.5" y="-174" font-family="Helvetica,sans-Serif" font-size="10.00">elc::defs::core::cons</text>
<text text-anchor="middle" x="336" y="-163" font-family="Helvetica,sans-Serif" font-size="10.00">::equal_with</text>
</a>
</g>
</g>
<!-- Node1&#45;&gt;Node10 -->
<g id="edge9" class="edge">
<title>Node1&#45;&gt;Node10</title>
<path fill="none" stroke="#63b8ff" d="M422.7,-171C411.49,-171 399.86,-171 388.92,-171"/>
<polygon fill="#63b8ff" stroke="#63b8ff" points="422.83,-174.5 432.83,-171 422.83,-167.5 422.83,-174.5"/>
</g>
<!-- Node11 -->
<g id="node11" class="node">
<title>Node11</title>
<g id="a_node11"><a xlink:href="structelc_1_1defs_1_1core_1_1base__binary__function__node.html#a0218a539bda95f3c16d05e79c7490482" target="_top" xlink:title=" ">
<polygon fill="white" stroke="#666666" points="392.5,-137.5 279.5,-137.5 279.5,-96.5 392.5,-96.5 392.5,-137.5"/>
<text text-anchor="start" x="287.5" y="-125.5" font-family="Helvetica,sans-Serif" font-size="10.00">elc::defs::core::base</text>
<text text-anchor="start" x="287.5" y="-114.5" font-family="Helvetica,sans-Serif" font-size="10.00">_binary_function_node</text>
<text text-anchor="middle" x="336" y="-103.5" font-family="Helvetica,sans-Serif" font-size="10.00">::equal_with</text>
</a>
</g>
</g>
<!-- Node1&#45;&gt;Node11 -->
<g id="edge10" class="edge">
<title>Node1&#45;&gt;Node11</title>
<path fill="none" stroke="#63b8ff" d="M432.33,-152.38C419.4,-147.58 405.43,-142.4 392.27,-137.51"/>
<polygon fill="#63b8ff" stroke="#63b8ff" points="431.38,-155.76 441.97,-155.96 433.81,-149.2 431.38,-155.76"/>
</g>
<!-- Node12 -->
<g id="node12" class="node">
<title>Node12</title>
<g id="a_node12"><a xlink:href="structelc_1_1defs_1_1memory_1_1ptr__n_1_1ptr__t.html#a33f70dd5b3a35ca48ec71ad30c0d1e91" target="_top" xlink:title=" ">
<polygon fill="white" stroke="#666666" points="386.5,-78 285.5,-78 285.5,-48 386.5,-48 386.5,-78"/>
<text text-anchor="start" x="293.5" y="-66" font-family="Helvetica,sans-Serif" font-size="10.00">elc::defs::memory::</text>
<text text-anchor="middle" x="336" y="-55" font-family="Helvetica,sans-Serif" font-size="10.00">ptr_n::ptr_t::hash</text>
</a>
</g>
</g>
<!-- Node1&#45;&gt;Node12 -->
<g id="edge11" class="edge">
<title>Node1&#45;&gt;Node12</title>
<path fill="none" stroke="#63b8ff" d="M463.77,-148.11C447.65,-129.61 422.95,-103.95 397,-87 391.93,-83.69 386.33,-80.7 380.64,-78.06"/>
<polygon fill="#63b8ff" stroke="#63b8ff" points="461.18,-150.47 470.34,-155.8 466.5,-145.93 461.18,-150.47"/>
</g>
<!-- Node13 -->
<g id="node13" class="node">
<title>Node13</title>
<g id="a_node13"><a xlink:href="structelc_1_1defs_1_1memory_1_1ptr__n_1_1ptr__t.html#ae9682cf972fe2d787451a4ca6a0ab828" target="_top" xlink:title=" ">
<polygon fill="white" stroke="#666666" points="394.5,-30 277.5,-30 277.5,0 394.5,0 394.5,-30"/>
<text text-anchor="start" x="285.5" y="-18" font-family="Helvetica,sans-Serif" font-size="10.00">elc::defs::memory::</text>
<text text-anchor="middle" x="336" y="-7" font-family="Helvetica,sans-Serif" font-size="10.00">ptr_n::ptr_t::operator==</text>
</a>
</g>
</g>
<!-- Node1&#45;&gt;Node13 -->
<g id="edge12" class="edge">
<title>Node1&#45;&gt;Node13</title>
<path fill="none" stroke="#63b8ff" d="M472.16,-146.28C458.78,-117 432.84,-68.48 397,-39 392.84,-35.58 388.13,-32.6 383.23,-30.01"/>
<polygon fill="#63b8ff" stroke="#63b8ff" points="469.12,-148.05 476.37,-155.77 475.52,-145.21 469.12,-148.05"/>
</g>
<!-- Node3 -->
<g id="node3" class="node">
<title>Node3</title>
<g id="a_node3"><a xlink:href="structelc_1_1defs_1_1core_1_1cons.html#a2ecac97973c620f052a65545c84efb8e" target="_top" xlink:title=" ">
<polygon fill="white" stroke="#666666" points="239,-378 134,-378 134,-348 239,-348 239,-378"/>
<text text-anchor="start" x="142" y="-366" font-family="Helvetica,sans-Serif" font-size="10.00">elc::defs::core::cons</text>
<text text-anchor="middle" x="186.5" y="-355" font-family="Helvetica,sans-Serif" font-size="10.00">::arec</text>
</a>
</g>
</g>
<!-- Node2&#45;&gt;Node3 -->
<g id="edge2" class="edge">
<title>Node2&#45;&gt;Node3</title>
<path fill="none" stroke="#63b8ff" d="M279.05,-333.21C264.05,-338.09 248,-343.31 233.6,-348"/>
<polygon fill="#63b8ff" stroke="#63b8ff" points="280.31,-336.48 288.73,-330.06 278.14,-329.82 280.31,-336.48"/>
</g>
<!-- Node4 -->
<g id="node4" class="node">
<title>Node4</title>
<g id="a_node4"><a xlink:href="structelc_1_1defs_1_1core_1_1node__like.html#a53e3ac38b813a6248a6687e60392ca64" target="_top" xlink:title=" ">
<polygon fill="white" stroke="#666666" points="239,-330 134,-330 134,-300 239,-300 239,-330"/>
<text text-anchor="start" x="142" y="-318" font-family="Helvetica,sans-Serif" font-size="10.00">elc::defs::core::node</text>
<text text-anchor="middle" x="186.5" y="-307" font-family="Helvetica,sans-Serif" font-size="10.00">_like::destroy</text>
</a>
</g>
</g>
<!-- Node2&#45;&gt;Node4 -->
<g id="edge3" class="edge">
<title>Node2&#45;&gt;Node4</title>
<path fill="none" stroke="#63b8ff" d="M272.8,-315C261.55,-315 249.94,-315 239.03,-315"/>
<polygon fill="#63b8ff" stroke="#63b8ff" points="273,-318.5 283,-315 273,-311.5 273,-318.5"/>
</g>
<!-- Node5 -->
<g id="node5" class="node">
<title>Node5</title>
<g id="a_node5"><a xlink:href="namespaceelc_1_1defs_1_1core.html#acffc812090610314e52fdecd03d4de28" target="_top" xlink:title=" ">
<polygon fill="white" stroke="#666666" points="98,-330 0,-330 0,-300 98,-300 98,-330"/>
<text text-anchor="start" x="8" y="-318" font-family="Helvetica,sans-Serif" font-size="10.00">elc::defs::core::the</text>
<text text-anchor="middle" x="49" y="-307" font-family="Helvetica,sans-Serif" font-size="10.00">_destroy</text>
</a>
</g>
</g>
<!-- Node4&#45;&gt;Node5 -->
<g id="edge4" class="edge">
<title>Node4&#45;&gt;Node5</title>
<path fill="none" stroke="#63b8ff" d="M123.64,-315C115.15,-315 106.54,-315 98.35,-315"/>
<polygon fill="#63b8ff" stroke="#63b8ff" points="123.89,-318.5 133.89,-315 123.89,-311.5 123.89,-318.5"/>
</g>
<!-- Node7 -->
<g id="node7" class="node">
<title>Node7</title>
<g id="a_node7"><a xlink:href="structelc_1_1defs_1_1core_1_1node__like.html#afd70fdf080337dbc9411c1bbeb4fb2d3" target="_top" xlink:title=" ">
<polygon fill="white" stroke="#666666" points="239,-282 134,-282 134,-252 239,-252 239,-282"/>
<text text-anchor="start" x="142" y="-270" font-family="Helvetica,sans-Serif" font-size="10.00">elc::defs::core::node</text>
<text text-anchor="middle" x="186.5" y="-259" font-family="Helvetica,sans-Serif" font-size="10.00">_like::eq</text>
</a>
</g>
</g>
<!-- Node6&#45;&gt;Node7 -->
<g id="edge6" class="edge">
<title>Node6&#45;&gt;Node7</title>
<path fill="none" stroke="#63b8ff" d="M273.19,-267C261.92,-267 250.26,-267 239.31,-267"/>
<polygon fill="#63b8ff" stroke="#63b8ff" points="273.41,-270.5 283.41,-267 273.41,-263.5 273.41,-270.5"/>
</g>
<!-- Node8 -->
<g id="node8" class="node">
<title>Node8</title>
<g id="a_node8"><a xlink:href="namespaceelc_1_1defs_1_1core.html#aba39fcb2f4726ec735963b8db35baf00" target="_top" xlink:title=" ">
<polygon fill="white" stroke="#666666" points="98,-282 0,-282 0,-252 98,-252 98,-282"/>
<text text-anchor="start" x="8" y="-270" font-family="Helvetica,sans-Serif" font-size="10.00">elc::defs::core::the</text>
<text text-anchor="middle" x="49" y="-259" font-family="Helvetica,sans-Serif" font-size="10.00">_pointer_equal</text>
</a>
</g>
</g>
<!-- Node7&#45;&gt;Node8 -->
<g id="edge7" class="edge">
<title>Node7&#45;&gt;Node8</title>
<path fill="none" stroke="#63b8ff" d="M123.64,-267C115.15,-267 106.54,-267 98.35,-267"/>
<polygon fill="#63b8ff" stroke="#63b8ff" points="123.89,-270.5 133.89,-267 123.89,-263.5 123.89,-270.5"/>
</g>
</g>
</svg>
        <g id="navigator" transform="translate(0 0)" fill="#404254">
                <rect fill="#f2f5e9" fill-opacity="0.5" stroke="#606060" stroke-width=".5" x="0" y="0" width="60" height="60"/>
                <use id="zoomplus" xlink:href="#zoomPlus" x="17" y="9" onmousedown="handleZoom(evt,'in')"/>
                <use id="zoomminus" xlink:href="#zoomMin" x="42" y="9" onmousedown="handleZoom(evt,'out')"/>
                <use id="reset" xlink:href="#resetDef" x="30" y="36" onmousedown="handleReset()"/>
                <g id="arrowUp" xlink:href="#dirArrow" transform="translate(30 24)" onmousedown="handlePan(0,-1)">
                  <use xlink:href="#rim" fill="#404040">
                        <set attributeName="fill" to="#808080" begin="arrowUp.mouseover" end="arrowUp.mouseout"/>
                  </use>
                  <path fill="none" stroke="white" stroke-width="1.5" d="M0,-3.0v7 M-2.5,-0.5L0,-3.0L2.5,-0.5"/>
                </g>
                <g id="arrowRight" xlink:href="#dirArrow" transform="rotate(90) translate(36 -43)" onmousedown="handlePan(1,0)">
                  <use xlink:href="#rim" fill="#404040">
                        <set attributeName="fill" to="#808080" begin="arrowRight.mouseover" end="arrowRight.mouseout"/>
                  </use>
                  <path fill="none" stroke="white" stroke-width="1.5" d="M0,-3.0v7 M-2.5,-0.5L0,-3.0L2.5,-0.5"/>
                </g>
                <g id="arrowDown" xlink:href="#dirArrow" transform="rotate(180) translate(-30 -48)" onmousedown="handlePan(0,1)">
                  <use xlink:href="#rim" fill="#404040">
                        <set attributeName="fill" to="#808080" begin="arrowDown.mouseover" end="arrowDown.mouseout"/>
                  </use>
                  <path fill="none" stroke="white" stroke-width="1.5" d="M0,-3.0v7 M-2.5,-0.5L0,-3.0L2.5,-0.5"/>
                </g>
                <g id="arrowLeft" xlink:href="#dirArrow" transform="rotate(270) translate(-36 17)" onmousedown="handlePan(-1,0)">
                  <use xlink:href="#rim" fill="#404040">
                        <set attributeName="fill" to="#808080" begin="arrowLeft.mouseover" end="arrowLeft.mouseout"/>
                  </use>
                  <path fill="none" stroke="white" stroke-width="1.5" d="M0,-3.0v7 M-2.5,-0.5L0,-3.0L2.5,-0.5"/>
                </g>
        </g>
        <svg viewBox="0 0 15 15" width="100%" height="30px" preserveAspectRatio="xMaxYMin meet">
         <g id="arrow_out" transform="scale(0.3 0.3)">
          <a xlink:href="structelc_1_1defs_1_1memory_1_1ptr__n_1_1ptr__t_afa7ec8ea3b1c71df95fdfc05b7d726d8_icgraph_org.svg" target="_base">
           <rect id="button" ry="5" rx="5" y="6" x="6" height="38" width="38"
                fill="#f2f5e9" fill-opacity="0.5" stroke="#606060" stroke-width="1.0"/>
           <path id="arrow"
             d="M 11.500037,31.436501 C 11.940474,20.09759 22.043105,11.32322 32.158766,21.979434 L 37.068811,17.246167 C 37.068811,17.246167 37.088388,32 37.088388,32 L 22.160133,31.978069 C 22.160133,31.978069 26.997745,27.140456 26.997745,27.140456 C 18.528582,18.264221 13.291696,25.230495 11.500037,31.436501 z"
             style="fill:#404040;"/>
          </a>
         </g>
        </svg>
</svg>
