<?xml version="1.0" encoding="UTF-8" standalone="no"?>
<!DOCTYPE svg PUBLIC "-//W3C//DTD SVG 1.1//EN"
 "http://www.w3.org/Graphics/SVG/1.1/DTD/svg11.dtd">
<!-- Generated by graphviz version 6.0.1 (20220911.1526)
 -->
<!-- Title: elc::defs::core::expr::be_eval Pages: 1 -->
<svg width="258pt" height="51pt"
 viewBox="0.00 0.00 258.00 50.50" xmlns="http://www.w3.org/2000/svg" xmlns:xlink="http://www.w3.org/1999/xlink">
<g id="graph0" class="graph" transform="scale(1 1) rotate(0) translate(4 46.5)">
<title>elc::defs::core::expr::be_eval</title>
<!-- Node1 -->
<g id="node1" class="node">
<title>Node1</title>
<g id="a_node1"><a xlink:title=" ">
<polygon fill="#999999" stroke="#666666" points="103,-30 0,-30 0,0 103,0 103,-30"/>
<text text-anchor="start" x="8" y="-18" font-family="Helvetica,sans-Serif" font-size="10.00">elc::defs::core::expr</text>
<text text-anchor="middle" x="51.5" y="-7" font-family="Helvetica,sans-Serif" font-size="10.00">::be_eval</text>
</a>
</g>
</g>
<!-- Node2 -->
<g id="node2" class="node">
<title>Node2</title>
<g id="a_node2"><a xlink:href="namespaceelc_1_1defs_1_1core.html#aa4b6b0e46887c02cd097d74031157c5f" target="_top" xlink:title=" ">
<polygon fill="white" stroke="#666666" points="250,-24.5 139,-24.5 139,-5.5 250,-5.5 250,-24.5"/>
<text text-anchor="middle" x="194.5" y="-12.5" font-family="Helvetica,sans-Serif" font-size="10.00">elc::defs::core::as_ptr</text>
</a>
</g>
</g>
<!-- Node1&#45;&gt;Node2 -->
<g id="edge1" class="edge">
<title>Node1&#45;&gt;Node2</title>
<path fill="none" stroke="#63b8ff" d="M103.01,-15C111.21,-15 119.8,-15 128.3,-15"/>
<polygon fill="#63b8ff" stroke="#63b8ff" points="128.57,-18.5 138.57,-15 128.57,-11.5 128.57,-18.5"/>
</g>
<!-- Node2&#45;&gt;Node2 -->
<g id="edge2" class="edge">
<title>Node2&#45;&gt;Node2</title>
<path fill="none" stroke="#63b8ff" d="M172.46,-24.58C161.74,-33.23 169.08,-42.5 194.5,-42.5 210.78,-42.5 219.65,-38.7 221.1,-33.69"/>
<polygon fill="#63b8ff" stroke="#63b8ff" points="224.15,-31.96 216.54,-24.58 217.89,-35.09 224.15,-31.96"/>
</g>
</g>
</svg>
