<?xml version="1.0" encoding="UTF-8" standalone="no"?>
<!DOCTYPE svg PUBLIC "-//W3C//DTD SVG 1.1//EN"
 "http://www.w3.org/Graphics/SVG/1.1/DTD/svg11.dtd">
<!-- Generated by graphviz version 6.0.1 (20220911.1526)
 -->
<!-- Title: elc::defs::memory::ptr_n::base_ptr_t::operator* Pages: 1 -->
<svg width="335pt" height="182pt"
 viewBox="0.00 0.00 335.00 182.00" xmlns="http://www.w3.org/2000/svg" xmlns:xlink="http://www.w3.org/1999/xlink">
<g id="graph0" class="graph" transform="scale(1 1) rotate(0) translate(4 178)">
<title>elc::defs::memory::ptr_n::base_ptr_t::operator*</title>
<!-- Node1 -->
<g id="node1" class="node">
<title>Node1</title>
<g id="a_node1"><a xlink:title=" ">
<polygon fill="#999999" stroke="#666666" points="327,-102 192,-102 192,-72 327,-72 327,-102"/>
<text text-anchor="start" x="200" y="-90" font-family="Helvetica,sans-Serif" font-size="10.00">elc::defs::memory::</text>
<text text-anchor="middle" x="259.5" y="-79" font-family="Helvetica,sans-Serif" font-size="10.00">ptr_n::base_ptr_t::operator*</text>
</a>
</g>
</g>
<!-- Node2 -->
<g id="node2" class="node">
<title>Node2</title>
<g id="a_node2"><a xlink:href="structelc_1_1defs_1_1namespace__n_1_1namespace__t.html#ace260d2875d03bf69aa2b02fa36fe6eb" target="_top" xlink:title=" ">
<polygon fill="white" stroke="#666666" points="156,-174 0,-174 0,-144 156,-144 156,-174"/>
<text text-anchor="start" x="8" y="-162" font-family="Helvetica,sans-Serif" font-size="10.00">elc::defs::namespace</text>
<text text-anchor="middle" x="78" y="-151" font-family="Helvetica,sans-Serif" font-size="10.00">_n::namespace_t::namespace_t</text>
</a>
</g>
</g>
<!-- Node1&#45;&gt;Node2 -->
<g id="edge1" class="edge">
<title>Node1&#45;&gt;Node2</title>
<path fill="none" stroke="#63b8ff" d="M219.71,-106.69C200.77,-115.91 177.47,-126.67 156,-135 147.91,-138.14 139.22,-141.17 130.69,-143.95"/>
<polygon fill="#63b8ff" stroke="#63b8ff" points="221.49,-109.71 228.92,-102.16 218.4,-103.43 221.49,-109.71"/>
</g>
<!-- Node3 -->
<g id="node3" class="node">
<title>Node3</title>
<g id="a_node3"><a xlink:href="structelc_1_1defs_1_1core_1_1value.html#a064266fb65d89dbaede26b072f4f09e9" target="_top" xlink:title=" ">
<polygon fill="white" stroke="#666666" points="131,-126 25,-126 25,-96 131,-96 131,-126"/>
<text text-anchor="start" x="33" y="-114" font-family="Helvetica,sans-Serif" font-size="10.00">elc::defs::core::value</text>
<text text-anchor="middle" x="78" y="-103" font-family="Helvetica,sans-Serif" font-size="10.00">::operator()</text>
</a>
</g>
</g>
<!-- Node1&#45;&gt;Node3 -->
<g id="edge2" class="edge">
<title>Node1&#45;&gt;Node3</title>
<path fill="none" stroke="#63b8ff" d="M181.93,-97.24C164.81,-99.53 147.04,-101.9 131.17,-104.02"/>
<polygon fill="#63b8ff" stroke="#63b8ff" points="182.47,-100.7 191.92,-95.9 181.54,-93.76 182.47,-100.7"/>
</g>
<!-- Node4 -->
<g id="node4" class="node">
<title>Node4</title>
<g id="a_node4"><a xlink:href="structelc_1_1defs_1_1memory_1_1ptr__n_1_1base__ptr__t.html#a89a483a9e7d655443b4e0a65cbbf6411" target="_top" xlink:title=" ">
<polygon fill="white" stroke="#666666" points="146.5,-78 9.5,-78 9.5,-48 146.5,-48 146.5,-78"/>
<text text-anchor="start" x="17.5" y="-66" font-family="Helvetica,sans-Serif" font-size="10.00">elc::defs::memory::</text>
<text text-anchor="middle" x="78" y="-55" font-family="Helvetica,sans-Serif" font-size="10.00">ptr_n::base_ptr_t::operator()</text>
</a>
</g>
</g>
<!-- Node1&#45;&gt;Node4 -->
<g id="edge3" class="edge">
<title>Node1&#45;&gt;Node4</title>
<path fill="none" stroke="#63b8ff" d="M181.76,-76.74C170.1,-75.18 158.13,-73.58 146.68,-72.05"/>
<polygon fill="#63b8ff" stroke="#63b8ff" points="181.54,-80.24 191.92,-78.1 182.47,-73.3 181.54,-80.24"/>
</g>
<!-- Node5 -->
<g id="node5" class="node">
<title>Node5</title>
<g id="a_node5"><a xlink:href="structelc_1_1defs_1_1core_1_1value.html#a4236d768c466220881619212d9779fa1" target="_top" xlink:title=" ">
<polygon fill="white" stroke="#666666" points="131,-30 25,-30 25,0 131,0 131,-30"/>
<text text-anchor="start" x="33" y="-18" font-family="Helvetica,sans-Serif" font-size="10.00">elc::defs::core::value</text>
<text text-anchor="middle" x="78" y="-7" font-family="Helvetica,sans-Serif" font-size="10.00">::operator[]</text>
</a>
</g>
</g>
<!-- Node1&#45;&gt;Node5 -->
<g id="edge4" class="edge">
<title>Node1&#45;&gt;Node5</title>
<path fill="none" stroke="#63b8ff" d="M219.71,-67.31C200.77,-58.09 177.47,-47.33 156,-39 147.91,-35.86 139.22,-32.83 130.69,-30.05"/>
<polygon fill="#63b8ff" stroke="#63b8ff" points="218.4,-70.57 228.92,-71.84 221.49,-64.29 218.4,-70.57"/>
</g>
</g>
</svg>
