<?xml version="1.0" encoding="UTF-8" standalone="no"?>
<!DOCTYPE svg PUBLIC "-//W3C//DTD SVG 1.1//EN"
 "http://www.w3.org/Graphics/SVG/1.1/DTD/svg11.dtd">
<!-- Generated by graphviz version 6.0.1 (20220911.1526)
 -->
<!-- Title: elc::defs::core::value::operator[] Pages: 1 -->
<svg width="603pt" height="110pt"
 viewBox="0.00 0.00 603.00 110.00" xmlns="http://www.w3.org/2000/svg" xmlns:xlink="http://www.w3.org/1999/xlink">
<g id="graph0" class="graph" transform="scale(1 1) rotate(0) translate(4 106)">
<title>elc::defs::core::value::operator[]</title>
<!-- Node1 -->
<g id="node1" class="node">
<title>Node1</title>
<g id="a_node1"><a xlink:title=" ">
<polygon fill="#999999" stroke="#666666" points="106,-54 0,-54 0,-24 106,-24 106,-54"/>
<text text-anchor="start" x="8" y="-42" font-family="Helvetica,sans-Serif" font-size="10.00">elc::defs::core::value</text>
<text text-anchor="middle" x="53" y="-31" font-family="Helvetica,sans-Serif" font-size="10.00">::operator[]</text>
</a>
</g>
</g>
<!-- Node2 -->
<g id="node2" class="node">
<title>Node2</title>
<g id="a_node2"><a xlink:href="structelc_1_1defs_1_1core_1_1value.html#ab5fb050cbffc44b68278d440175013ae" target="_top" xlink:title=" ">
<polygon fill="white" stroke="#666666" points="262.5,-78 156.5,-78 156.5,-48 262.5,-48 262.5,-78"/>
<text text-anchor="start" x="164.5" y="-66" font-family="Helvetica,sans-Serif" font-size="10.00">elc::defs::core::value</text>
<text text-anchor="middle" x="209.5" y="-55" font-family="Helvetica,sans-Serif" font-size="10.00">::operator&amp;</text>
</a>
</g>
</g>
<!-- Node1&#45;&gt;Node2 -->
<g id="edge1" class="edge">
<title>Node1&#45;&gt;Node2</title>
<path fill="none" stroke="#63b8ff" d="M106.31,-47.13C119.14,-49.12 133.01,-51.27 146.26,-53.33"/>
<polygon fill="#63b8ff" stroke="#63b8ff" points="145.83,-56.81 156.25,-54.88 146.9,-49.89 145.83,-56.81"/>
</g>
<!-- Node6 -->
<g id="node6" class="node">
<title>Node6</title>
<g id="a_node6"><a xlink:href="structelc_1_1defs_1_1memory_1_1ptr__n_1_1base__ptr__t.html#a01704df2c5d7644d23f29ad567e5b481" target="_top" xlink:title=" ">
<polygon fill="white" stroke="#666666" points="277,-30 142,-30 142,0 277,0 277,-30"/>
<text text-anchor="start" x="150" y="-18" font-family="Helvetica,sans-Serif" font-size="10.00">elc::defs::memory::</text>
<text text-anchor="middle" x="209.5" y="-7" font-family="Helvetica,sans-Serif" font-size="10.00">ptr_n::base_ptr_t::operator*</text>
</a>
</g>
</g>
<!-- Node1&#45;&gt;Node6 -->
<g id="edge5" class="edge">
<title>Node1&#45;&gt;Node6</title>
<path fill="none" stroke="#63b8ff" d="M106.31,-30.87C114.49,-29.6 123.08,-28.27 131.67,-26.93"/>
<polygon fill="#63b8ff" stroke="#63b8ff" points="132.39,-30.37 141.73,-25.37 131.31,-23.45 132.39,-30.37"/>
</g>
<!-- Node3 -->
<g id="node3" class="node">
<title>Node3</title>
<g id="a_node3"><a xlink:href="structelc_1_1defs_1_1core_1_1value.html#a7fc91a401233272a670ebbeca186adfc" target="_top" xlink:title=" ">
<polygon fill="white" stroke="#666666" points="419,-78 313,-78 313,-48 419,-48 419,-78"/>
<text text-anchor="start" x="321" y="-66" font-family="Helvetica,sans-Serif" font-size="10.00">elc::defs::core::value</text>
<text text-anchor="middle" x="366" y="-55" font-family="Helvetica,sans-Serif" font-size="10.00">::operator ptr</text>
</a>
</g>
</g>
<!-- Node2&#45;&gt;Node3 -->
<g id="edge2" class="edge">
<title>Node2&#45;&gt;Node3</title>
<path fill="none" stroke="#63b8ff" d="M262.81,-63C275.52,-63 289.24,-63 302.37,-63"/>
<polygon fill="#63b8ff" stroke="#63b8ff" points="302.75,-66.5 312.75,-63 302.75,-59.5 302.75,-66.5"/>
</g>
<!-- Node4 -->
<g id="node4" class="node">
<title>Node4</title>
<g id="a_node4"><a xlink:href="structelc_1_1defs_1_1core_1_1value_1_1base__data__t.html#ac1c09486bb2af7319ed3ff43bed87b31" target="_top" xlink:title=" ">
<polygon fill="white" stroke="#666666" points="586,-102 464,-102 464,-72 586,-72 586,-102"/>
<text text-anchor="start" x="472" y="-90" font-family="Helvetica,sans-Serif" font-size="10.00">elc::defs::core::value</text>
<text text-anchor="middle" x="525" y="-79" font-family="Helvetica,sans-Serif" font-size="10.00">::base_data_t::get_value</text>
</a>
</g>
</g>
<!-- Node3&#45;&gt;Node4 -->
<g id="edge3" class="edge">
<title>Node3&#45;&gt;Node4</title>
<path fill="none" stroke="#63b8ff" d="M419.28,-70.99C430.32,-72.68 442.14,-74.49 453.72,-76.26"/>
<polygon fill="#63b8ff" stroke="#63b8ff" points="453.39,-79.75 463.8,-77.8 454.45,-72.83 453.39,-79.75"/>
</g>
<!-- Node5 -->
<g id="node5" class="node">
<title>Node5</title>
<g id="a_node5"><a xlink:href="structelc_1_1defs_1_1memory_1_1ptr__n_1_1base__ptr__t.html#a44f476e6f5ff22f85494d86ac2125fb3" target="_top" xlink:title=" ">
<polygon fill="white" stroke="#666666" points="595,-54 455,-54 455,-24 595,-24 595,-54"/>
<text text-anchor="start" x="463" y="-42" font-family="Helvetica,sans-Serif" font-size="10.00">elc::defs::memory::</text>
<text text-anchor="middle" x="525" y="-31" font-family="Helvetica,sans-Serif" font-size="10.00">ptr_n::base_ptr_t::operator&#45;&gt;</text>
</a>
</g>
</g>
<!-- Node3&#45;&gt;Node5 -->
<g id="edge4" class="edge">
<title>Node3&#45;&gt;Node5</title>
<path fill="none" stroke="#63b8ff" d="M419.28,-55.01C427.49,-53.75 436.12,-52.43 444.77,-51.11"/>
<polygon fill="#63b8ff" stroke="#63b8ff" points="445.55,-54.53 454.91,-49.56 444.49,-47.61 445.55,-54.53"/>
</g>
</g>
</svg>
