<?xml version="1.0" encoding="UTF-8" standalone="no"?>
<!DOCTYPE svg PUBLIC "-//W3C//DTD SVG 1.1//EN"
 "http://www.w3.org/Graphics/SVG/1.1/DTD/svg11.dtd">
<!-- Generated by graphviz version 6.0.1 (20220911.1526)
 -->
<!-- Title: elc::defs::core::code_list::be_eval Pages: 1 -->
<svg width="286pt" height="161pt"
 viewBox="0.00 0.00 286.00 160.50" xmlns="http://www.w3.org/2000/svg" xmlns:xlink="http://www.w3.org/1999/xlink">
<g id="graph0" class="graph" transform="scale(1 1) rotate(0) translate(4 156.5)">
<title>elc::defs::core::code_list::be_eval</title>
<!-- Node1 -->
<g id="node1" class="node">
<title>Node1</title>
<g id="a_node1"><a xlink:title=" ">
<polygon fill="#999999" stroke="#666666" points="105,-99 0,-99 0,-69 105,-69 105,-99"/>
<text text-anchor="start" x="8" y="-87" font-family="Helvetica,sans-Serif" font-size="10.00">elc::defs::core::code</text>
<text text-anchor="middle" x="52.5" y="-76" font-family="Helvetica,sans-Serif" font-size="10.00">_list::be_eval</text>
</a>
</g>
</g>
<!-- Node2 -->
<g id="node2" class="node">
<title>Node2</title>
<g id="a_node2"><a xlink:href="namespaceelc_1_1defs_1_1core.html#a72636fe7dced40c72eb59b1d7e77e15e" target="_top" xlink:title=" ">
<polygon fill="white" stroke="#666666" points="264.5,-152.5 154.5,-152.5 154.5,-133.5 264.5,-133.5 264.5,-152.5"/>
<text text-anchor="middle" x="209.5" y="-140.5" font-family="Helvetica,sans-Serif" font-size="10.00">elc::defs::core::car_of</text>
</a>
</g>
</g>
<!-- Node1&#45;&gt;Node2 -->
<g id="edge1" class="edge">
<title>Node1&#45;&gt;Node2</title>
<path fill="none" stroke="#63b8ff" d="M82.51,-99.18C99.29,-107.56 120.98,-117.71 141,-125 146.55,-127.02 152.43,-128.93 158.31,-130.68"/>
<polygon fill="#63b8ff" stroke="#63b8ff" points="157.58,-134.11 168.16,-133.5 159.51,-127.38 157.58,-134.11"/>
</g>
<!-- Node3 -->
<g id="node3" class="node">
<title>Node3</title>
<g id="a_node3"><a xlink:href="namespaceelc_1_1defs_1_1core.html#a44028d2ee30d52c14d515a577dfc0461" target="_top" xlink:title=" ">
<polygon fill="white" stroke="#666666" points="264.5,-115.5 154.5,-115.5 154.5,-96.5 264.5,-96.5 264.5,-115.5"/>
<text text-anchor="middle" x="209.5" y="-103.5" font-family="Helvetica,sans-Serif" font-size="10.00">elc::defs::core::cdr_of</text>
</a>
</g>
</g>
<!-- Node1&#45;&gt;Node3 -->
<g id="edge2" class="edge">
<title>Node1&#45;&gt;Node3</title>
<path fill="none" stroke="#63b8ff" d="M105.11,-91.33C117.74,-93.12 131.41,-95.06 144.55,-96.92"/>
<polygon fill="#63b8ff" stroke="#63b8ff" points="144.07,-100.39 154.46,-98.33 145.05,-93.46 144.07,-100.39"/>
</g>
<!-- Node4 -->
<g id="node4" class="node">
<title>Node4</title>
<g id="a_node4"><a xlink:href="structelc_1_1defs_1_1memory_1_1ptr__n_1_1base__ptr__t.html#af3bf801e2f54b9b67b3cd77db9b13f44" target="_top" xlink:title=" ">
<polygon fill="white" stroke="#666666" points="278,-78 141,-78 141,-48 278,-48 278,-78"/>
<text text-anchor="start" x="149" y="-66" font-family="Helvetica,sans-Serif" font-size="10.00">elc::defs::memory::</text>
<text text-anchor="middle" x="209.5" y="-55" font-family="Helvetica,sans-Serif" font-size="10.00">ptr_n::base_ptr_t::operator=</text>
</a>
</g>
</g>
<!-- Node1&#45;&gt;Node4 -->
<g id="edge3" class="edge">
<title>Node1&#45;&gt;Node4</title>
<path fill="none" stroke="#63b8ff" d="M105.11,-77.01C113.34,-75.89 122.01,-74.72 130.68,-73.54"/>
<polygon fill="#63b8ff" stroke="#63b8ff" points="131.4,-76.98 140.84,-72.17 130.46,-70.04 131.4,-76.98"/>
</g>
<!-- Node5 -->
<g id="node5" class="node">
<title>Node5</title>
<g id="a_node5"><a xlink:href="structelc_1_1defs_1_1core_1_1value.html#a4470130c2c35363493d3c2a19bfba5d5" target="_top" xlink:title=" ">
<polygon fill="white" stroke="#666666" points="262.5,-30 156.5,-30 156.5,0 262.5,0 262.5,-30"/>
<text text-anchor="start" x="164.5" y="-18" font-family="Helvetica,sans-Serif" font-size="10.00">elc::defs::core::value</text>
<text text-anchor="middle" x="209.5" y="-7" font-family="Helvetica,sans-Serif" font-size="10.00">::value</text>
</a>
</g>
</g>
<!-- Node1&#45;&gt;Node5 -->
<g id="edge4" class="edge">
<title>Node1&#45;&gt;Node5</title>
<path fill="none" stroke="#63b8ff" d="M80.63,-68.86C97.69,-59.64 120.31,-47.95 141,-39 145.16,-37.2 149.5,-35.43 153.89,-33.71"/>
<polygon fill="#63b8ff" stroke="#63b8ff" points="155.41,-36.88 163.51,-30.05 152.92,-30.33 155.41,-36.88"/>
</g>
</g>
</svg>
