<?xml version="1.0" encoding="UTF-8" standalone="no"?>
<!DOCTYPE svg PUBLIC "-//W3C//DTD SVG 1.1//EN"
 "http://www.w3.org/Graphics/SVG/1.1/DTD/svg11.dtd">
<!-- Generated by graphviz version 6.0.1 (20220911.1526)
 -->
<!-- Title: elc::defs::container::function_n::base_func_data_t&lt; Ret_t(Args_t...)&gt; Pages: 1 -->
<svg width="319pt" height="120pt"
 viewBox="0.00 0.00 319.00 119.50" xmlns="http://www.w3.org/2000/svg" xmlns:xlink="http://www.w3.org/1999/xlink">
<g id="graph0" class="graph" transform="scale(1 1) rotate(0) translate(4 115.5)">
<title>elc::defs::container::function_n::base_func_data_t&lt; Ret_t(Args_t...)&gt;</title>
<!-- Node1 -->
<g id="node1" class="node">
<title>Node1</title>
<g id="a_node1"><a xlink:title=" ">
<polygon fill="#999999" stroke="#666666" points="311,-67.5 180,-67.5 180,-26.5 311,-26.5 311,-67.5"/>
<text text-anchor="start" x="188" y="-55.5" font-family="Helvetica,sans-Serif" font-size="10.00">elc::defs::container</text>
<text text-anchor="start" x="188" y="-44.5" font-family="Helvetica,sans-Serif" font-size="10.00">::function_n::base_func</text>
<text text-anchor="middle" x="245.5" y="-33.5" font-family="Helvetica,sans-Serif" font-size="10.00">_data_t&lt; Ret_t(Args_t...)&gt;</text>
</a>
</g>
</g>
<!-- Node2 -->
<g id="node2" class="node">
<title>Node2</title>
<g id="a_node2"><a xlink:title=" ">
<polygon fill="white" stroke="#666666" points="144,-111.5 0,-111.5 0,-48.5 144,-48.5 144,-111.5"/>
<text text-anchor="start" x="8" y="-99.5" font-family="Helvetica,sans-Serif" font-size="10.00">type_info_t&lt; base_func</text>
<text text-anchor="start" x="8" y="-88.5" font-family="Helvetica,sans-Serif" font-size="10.00">_data_t&lt; Ret_t(Args_t...)</text>
<text text-anchor="start" x="8" y="-77.5" font-family="Helvetica,sans-Serif" font-size="10.00">&gt; &gt;:: template &#160;with_common</text>
<text text-anchor="start" x="8" y="-66.5" font-family="Helvetica,sans-Serif" font-size="10.00">_attribute&lt; abstract_base,</text>
<text text-anchor="middle" x="72" y="-55.5" font-family="Helvetica,sans-Serif" font-size="10.00"> ref_able, never_in_array &gt;</text>
</a>
</g>
</g>
<!-- Node2&#45;&gt;Node1 -->
<g id="edge1" class="edge">
<title>Node2&#45;&gt;Node1</title>
<path fill="none" stroke="#63b8ff" d="M154.25,-64.37C162.82,-62.72 171.44,-61.06 179.79,-59.45"/>
<polygon fill="#63b8ff" stroke="#63b8ff" points="153.4,-60.97 144.24,-66.29 154.72,-67.84 153.4,-60.97"/>
</g>
<!-- Node3 -->
<g id="node3" class="node">
<title>Node3</title>
<g id="a_node3"><a xlink:href="classelc_1_1defs_1_1base_1_1build__by__get__only.html" target="_top" xlink:title=" ">
<polygon fill="white" stroke="#666666" points="125.5,-30 18.5,-30 18.5,0 125.5,0 125.5,-30"/>
<text text-anchor="start" x="26.5" y="-18" font-family="Helvetica,sans-Serif" font-size="10.00">elc::defs::base::build</text>
<text text-anchor="middle" x="72" y="-7" font-family="Helvetica,sans-Serif" font-size="10.00">_by_get_only</text>
</a>
</g>
</g>
<!-- Node3&#45;&gt;Node1 -->
<g id="edge2" class="edge">
<title>Node3&#45;&gt;Node1</title>
<path fill="none" stroke="#63b8ff" d="M136.04,-26.76C150.28,-29.42 165.42,-32.24 179.73,-34.91"/>
<polygon fill="#63b8ff" stroke="#63b8ff" points="136.33,-23.26 125.86,-24.86 135.04,-30.14 136.33,-23.26"/>
</g>
</g>
</svg>
