<?xml version="1.0" encoding="UTF-8" standalone="no"?>
<!DOCTYPE svg PUBLIC "-//W3C//DTD SVG 1.1//EN"
 "http://www.w3.org/Graphics/SVG/1.1/DTD/svg11.dtd">
<!-- Generated by graphviz version 6.0.1 (20220911.1526)
 -->
<!-- Title: elc::defs::string_n::string_data_n::base_string_data_t&lt; char_T &gt; Pages: 1 -->
<svg width="620pt" height="616pt"
 viewBox="0.00 0.00 620.00 616.00" xmlns="http://www.w3.org/2000/svg" xmlns:xlink="http://www.w3.org/1999/xlink">
<g id="graph0" class="graph" transform="scale(1 1) rotate(0) translate(4 612)">
<title>elc::defs::string_n::string_data_n::base_string_data_t&lt; char_T &gt;</title>
<!-- Node1 -->
<g id="node1" class="node">
<title>Node1</title>
<g id="a_node1"><a xlink:title=" ">
<polygon fill="#999999" stroke="#666666" points="446,-321 321,-321 321,-280 446,-280 446,-321"/>
<text text-anchor="start" x="329" y="-309" font-family="Helvetica,sans-Serif" font-size="10.00">elc::defs::string_n</text>
<text text-anchor="start" x="329" y="-298" font-family="Helvetica,sans-Serif" font-size="10.00">::string_data_n::base</text>
<text text-anchor="middle" x="383.5" y="-287" font-family="Helvetica,sans-Serif" font-size="10.00">_string_data_t&lt; char_T &gt;</text>
</a>
</g>
</g>
<!-- Node4 -->
<g id="node4" class="node">
<title>Node4</title>
<g id="a_node4"><a xlink:href="structelc_1_1defs_1_1string__n_1_1string__data__n_1_1comn__string__data__t.html" target="_top" xlink:title=" ">
<polygon fill="white" stroke="#666666" points="609.5,-608 484.5,-608 484.5,-567 609.5,-567 609.5,-608"/>
<text text-anchor="start" x="492.5" y="-596" font-family="Helvetica,sans-Serif" font-size="10.00">elc::defs::string_n</text>
<text text-anchor="start" x="492.5" y="-585" font-family="Helvetica,sans-Serif" font-size="10.00">::string_data_n::comn</text>
<text text-anchor="middle" x="547" y="-574" font-family="Helvetica,sans-Serif" font-size="10.00">_string_data_t&lt; char_T &gt;</text>
</a>
</g>
</g>
<!-- Node1&#45;&gt;Node4 -->
<g id="edge3" class="edge">
<title>Node1&#45;&gt;Node4</title>
<path fill="none" stroke="#63b8ff" d="M388.38,-331.11C396.57,-383.88 420.25,-492.66 482,-558.5 484.92,-561.61 488.24,-564.42 491.79,-566.94"/>
<polygon fill="#63b8ff" stroke="#63b8ff" points="391.82,-330.42 386.9,-321.03 384.89,-331.43 391.82,-330.42"/>
</g>
<!-- Node5 -->
<g id="node5" class="node">
<title>Node5</title>
<g id="a_node5"><a xlink:href="structelc_1_1defs_1_1string__n_1_1string__data__n_1_1constexpr__string__data__t.html" target="_top" xlink:title=" ">
<polygon fill="white" stroke="#666666" points="612,-549 482,-549 482,-508 612,-508 612,-549"/>
<text text-anchor="start" x="490" y="-537" font-family="Helvetica,sans-Serif" font-size="10.00">elc::defs::string_n</text>
<text text-anchor="start" x="490" y="-526" font-family="Helvetica,sans-Serif" font-size="10.00">::string_data_n::constexpr</text>
<text text-anchor="middle" x="547" y="-515" font-family="Helvetica,sans-Serif" font-size="10.00">_string_data_t&lt; char_T &gt;</text>
</a>
</g>
</g>
<!-- Node1&#45;&gt;Node5 -->
<g id="edge4" class="edge">
<title>Node1&#45;&gt;Node5</title>
<path fill="none" stroke="#63b8ff" d="M392.52,-330.93C405.1,-373.41 433.23,-450.66 482,-498.5 485.5,-501.94 489.48,-505.03 493.68,-507.81"/>
<polygon fill="#63b8ff" stroke="#63b8ff" points="395.84,-329.81 389.72,-321.16 389.11,-331.74 395.84,-329.81"/>
</g>
<!-- Node6 -->
<g id="node6" class="node">
<title>Node6</title>
<g id="a_node6"><a xlink:href="structelc_1_1defs_1_1string__n_1_1string__data__n_1_1end__apply__string__data__t.html" target="_top" xlink:title=" ">
<polygon fill="white" stroke="#666666" points="600.5,-489.5 493.5,-489.5 493.5,-437.5 600.5,-437.5 600.5,-489.5"/>
<text text-anchor="start" x="501.5" y="-477.5" font-family="Helvetica,sans-Serif" font-size="10.00">elc::defs::string_n</text>
<text text-anchor="start" x="501.5" y="-466.5" font-family="Helvetica,sans-Serif" font-size="10.00">::string_data_n::end</text>
<text text-anchor="start" x="501.5" y="-455.5" font-family="Helvetica,sans-Serif" font-size="10.00">_apply_string_data_t</text>
<text text-anchor="middle" x="547" y="-444.5" font-family="Helvetica,sans-Serif" font-size="10.00">&lt; char_T &gt;</text>
</a>
</g>
</g>
<!-- Node1&#45;&gt;Node6 -->
<g id="edge5" class="edge">
<title>Node1&#45;&gt;Node6</title>
<path fill="none" stroke="#63b8ff" d="M401.74,-329.81C419.27,-357.76 448.55,-399.74 482,-428.5 485.65,-431.64 489.62,-434.61 493.75,-437.41"/>
<polygon fill="#63b8ff" stroke="#63b8ff" points="404.7,-327.94 396.47,-321.26 398.74,-331.61 404.7,-327.94"/>
</g>
<!-- Node7 -->
<g id="node7" class="node">
<title>Node7</title>
<g id="a_node7"><a xlink:href="structelc_1_1defs_1_1string__n_1_1string__data__n_1_1erased__string__data__t.html" target="_top" xlink:title=" ">
<polygon fill="white" stroke="#666666" points="609.5,-419 484.5,-419 484.5,-378 609.5,-378 609.5,-419"/>
<text text-anchor="start" x="492.5" y="-407" font-family="Helvetica,sans-Serif" font-size="10.00">elc::defs::string_n</text>
<text text-anchor="start" x="492.5" y="-396" font-family="Helvetica,sans-Serif" font-size="10.00">::string_data_n::erased</text>
<text text-anchor="middle" x="547" y="-385" font-family="Helvetica,sans-Serif" font-size="10.00">_string_data_t&lt; char_T &gt;</text>
</a>
</g>
</g>
<!-- Node1&#45;&gt;Node7 -->
<g id="edge6" class="edge">
<title>Node1&#45;&gt;Node7</title>
<path fill="none" stroke="#63b8ff" d="M419.9,-327.38C438,-340.54 460.65,-356.17 482,-368.5 487.63,-371.75 493.68,-374.94 499.72,-377.96"/>
<polygon fill="#63b8ff" stroke="#63b8ff" points="421.55,-324.24 411.41,-321.14 417.4,-329.88 421.55,-324.24"/>
</g>
<!-- Node8 -->
<g id="node8" class="node">
<title>Node8</title>
<g id="a_node8"><a xlink:href="structelc_1_1defs_1_1string__n_1_1string__data__n_1_1head__apply__string__data__t.html" target="_top" xlink:title=" ">
<polygon fill="white" stroke="#666666" points="603.5,-359.5 490.5,-359.5 490.5,-307.5 603.5,-307.5 603.5,-359.5"/>
<text text-anchor="start" x="498.5" y="-347.5" font-family="Helvetica,sans-Serif" font-size="10.00">elc::defs::string_n</text>
<text text-anchor="start" x="498.5" y="-336.5" font-family="Helvetica,sans-Serif" font-size="10.00">::string_data_n::head</text>
<text text-anchor="start" x="498.5" y="-325.5" font-family="Helvetica,sans-Serif" font-size="10.00">_apply_string_data_t&lt;</text>
<text text-anchor="middle" x="547" y="-314.5" font-family="Helvetica,sans-Serif" font-size="10.00"> char_T &gt;</text>
</a>
</g>
</g>
<!-- Node1&#45;&gt;Node8 -->
<g id="edge7" class="edge">
<title>Node1&#45;&gt;Node8</title>
<path fill="none" stroke="#63b8ff" d="M456.07,-315.12C467.6,-317.48 479.4,-319.89 490.48,-322.16"/>
<polygon fill="#63b8ff" stroke="#63b8ff" points="456.52,-311.64 446.02,-313.07 455.11,-318.5 456.52,-311.64"/>
</g>
<!-- Node9 -->
<g id="node9" class="node">
<title>Node9</title>
<g id="a_node9"><a xlink:href="structelc_1_1defs_1_1string__n_1_1string__data__n_1_1inserted__string__data__t.html" target="_top" xlink:title=" ">
<polygon fill="white" stroke="#666666" points="609.5,-289 484.5,-289 484.5,-248 609.5,-248 609.5,-289"/>
<text text-anchor="start" x="492.5" y="-277" font-family="Helvetica,sans-Serif" font-size="10.00">elc::defs::string_n</text>
<text text-anchor="start" x="492.5" y="-266" font-family="Helvetica,sans-Serif" font-size="10.00">::string_data_n::inserted</text>
<text text-anchor="middle" x="547" y="-255" font-family="Helvetica,sans-Serif" font-size="10.00">_string_data_t&lt; char_T &gt;</text>
</a>
</g>
</g>
<!-- Node1&#45;&gt;Node9 -->
<g id="edge8" class="edge">
<title>Node1&#45;&gt;Node9</title>
<path fill="none" stroke="#63b8ff" d="M455.85,-286.36C465.36,-284.48 475.06,-282.56 484.39,-280.71"/>
<polygon fill="#63b8ff" stroke="#63b8ff" points="455.15,-282.93 446.02,-288.31 456.51,-289.8 455.15,-282.93"/>
</g>
<!-- Node10 -->
<g id="node10" class="node">
<title>Node10</title>
<g id="a_node10"><a xlink:href="structelc_1_1defs_1_1string__n_1_1string__data__n_1_1null__string__data__t.html" target="_top" xlink:title=" ">
<polygon fill="white" stroke="#666666" points="609.5,-230 484.5,-230 484.5,-189 609.5,-189 609.5,-230"/>
<text text-anchor="start" x="492.5" y="-218" font-family="Helvetica,sans-Serif" font-size="10.00">elc::defs::string_n</text>
<text text-anchor="start" x="492.5" y="-207" font-family="Helvetica,sans-Serif" font-size="10.00">::string_data_n::null</text>
<text text-anchor="middle" x="547" y="-196" font-family="Helvetica,sans-Serif" font-size="10.00">_string_data_t&lt; char_T &gt;</text>
</a>
</g>
</g>
<!-- Node1&#45;&gt;Node10 -->
<g id="edge9" class="edge">
<title>Node1&#45;&gt;Node10</title>
<path fill="none" stroke="#63b8ff" d="M423.4,-273.99C440.95,-262.49 462.17,-249.23 482,-238.5 487.26,-235.66 492.85,-232.84 498.45,-230.14"/>
<polygon fill="#63b8ff" stroke="#63b8ff" points="420.99,-271.39 414.57,-279.82 424.85,-277.23 420.99,-271.39"/>
</g>
<!-- Node11 -->
<g id="node11" class="node">
<title>Node11</title>
<g id="a_node11"><a xlink:href="structelc_1_1defs_1_1string__n_1_1string__data__n_1_1same__value__compress__string__data__t.html" target="_top" xlink:title=" ">
<polygon fill="white" stroke="#666666" points="607.5,-170.5 486.5,-170.5 486.5,-118.5 607.5,-118.5 607.5,-170.5"/>
<text text-anchor="start" x="494.5" y="-158.5" font-family="Helvetica,sans-Serif" font-size="10.00">elc::defs::string_n</text>
<text text-anchor="start" x="494.5" y="-147.5" font-family="Helvetica,sans-Serif" font-size="10.00">::string_data_n::same</text>
<text text-anchor="start" x="494.5" y="-136.5" font-family="Helvetica,sans-Serif" font-size="10.00">_value_compress_string</text>
<text text-anchor="middle" x="547" y="-125.5" font-family="Helvetica,sans-Serif" font-size="10.00">_data_t&lt; char_T &gt;</text>
</a>
</g>
</g>
<!-- Node1&#45;&gt;Node11 -->
<g id="edge10" class="edge">
<title>Node1&#45;&gt;Node11</title>
<path fill="none" stroke="#63b8ff" d="M403.24,-271.15C421.12,-244.79 450.02,-206.25 482,-179.5 485.69,-176.41 489.7,-173.47 493.84,-170.7"/>
<polygon fill="#63b8ff" stroke="#63b8ff" points="400.25,-269.32 397.61,-279.58 406.07,-273.21 400.25,-269.32"/>
</g>
<!-- Node12 -->
<g id="node12" class="node">
<title>Node12</title>
<g id="a_node12"><a xlink:href="structelc_1_1defs_1_1string__n_1_1string__data__n_1_1substr__string__data__t.html" target="_top" xlink:title=" ">
<polygon fill="white" stroke="#666666" points="609.5,-100 484.5,-100 484.5,-59 609.5,-59 609.5,-100"/>
<text text-anchor="start" x="492.5" y="-88" font-family="Helvetica,sans-Serif" font-size="10.00">elc::defs::string_n</text>
<text text-anchor="start" x="492.5" y="-77" font-family="Helvetica,sans-Serif" font-size="10.00">::string_data_n::substr</text>
<text text-anchor="middle" x="547" y="-66" font-family="Helvetica,sans-Serif" font-size="10.00">_string_data_t&lt; char_T &gt;</text>
</a>
</g>
</g>
<!-- Node1&#45;&gt;Node12 -->
<g id="edge11" class="edge">
<title>Node1&#45;&gt;Node12</title>
<path fill="none" stroke="#63b8ff" d="M393.09,-270.25C406.15,-229.08 434.63,-155.31 482,-109.5 485.62,-106 489.72,-102.86 494.05,-100.04"/>
<polygon fill="#63b8ff" stroke="#63b8ff" points="389.69,-269.39 390.1,-279.97 396.38,-271.44 389.69,-269.39"/>
</g>
<!-- Node13 -->
<g id="node13" class="node">
<title>Node13</title>
<g id="a_node13"><a xlink:href="structelc_1_1defs_1_1string__n_1_1string__data__n_1_1sum__string__data__t.html" target="_top" xlink:title=" ">
<polygon fill="white" stroke="#666666" points="609.5,-41 484.5,-41 484.5,0 609.5,0 609.5,-41"/>
<text text-anchor="start" x="492.5" y="-29" font-family="Helvetica,sans-Serif" font-size="10.00">elc::defs::string_n</text>
<text text-anchor="start" x="492.5" y="-18" font-family="Helvetica,sans-Serif" font-size="10.00">::string_data_n::sum</text>
<text text-anchor="middle" x="547" y="-7" font-family="Helvetica,sans-Serif" font-size="10.00">_string_data_t&lt; char_T &gt;</text>
</a>
</g>
</g>
<!-- Node1&#45;&gt;Node13 -->
<g id="edge12" class="edge">
<title>Node1&#45;&gt;Node13</title>
<path fill="none" stroke="#63b8ff" d="M388.75,-269.94C397.43,-218.3 421.72,-113.19 482,-49.5 484.93,-46.4 488.26,-43.6 491.82,-41.09"/>
<polygon fill="#63b8ff" stroke="#63b8ff" points="385.3,-269.4 387.18,-279.82 392.21,-270.5 385.3,-269.4"/>
</g>
<!-- Node2 -->
<g id="node2" class="node">
<title>Node2</title>
<g id="a_node2"><a xlink:title=" ">
<polygon fill="white" stroke="#666666" points="285,-372.5 0,-372.5 0,-298.5 285,-298.5 285,-372.5"/>
<text text-anchor="start" x="8" y="-360.5" font-family="Helvetica,sans-Serif" font-size="10.00">type_info_t&lt; base_string</text>
<text text-anchor="start" x="8" y="-349.5" font-family="Helvetica,sans-Serif" font-size="10.00">_data_t&lt; char_T &gt; &gt;:: template</text>
<text text-anchor="middle" x="142.5" y="-338.5" font-family="Helvetica,sans-Serif" font-size="10.00"> </text>
<text text-anchor="start" x="8" y="-327.5" font-family="Helvetica,sans-Serif" font-size="10.00">							with_common_attribute</text>
<text text-anchor="start" x="8" y="-316.5" font-family="Helvetica,sans-Serif" font-size="10.00">&lt; abstract_base, never_in_array,</text>
<text text-anchor="middle" x="142.5" y="-305.5" font-family="Helvetica,sans-Serif" font-size="10.00"> replace_able, ref_able &gt;</text>
</a>
</g>
</g>
<!-- Node2&#45;&gt;Node1 -->
<g id="edge1" class="edge">
<title>Node2&#45;&gt;Node1</title>
<path fill="none" stroke="#63b8ff" d="M295.35,-313.26C304.17,-311.97 312.73,-310.72 320.84,-309.53"/>
<polygon fill="#63b8ff" stroke="#63b8ff" points="294.68,-309.82 285.29,-314.74 295.69,-316.75 294.68,-309.82"/>
</g>
<!-- Node3 -->
<g id="node3" class="node">
<title>Node3</title>
<g id="a_node3"><a xlink:href="classelc_1_1defs_1_1base_1_1build__by__get__only.html" target="_top" xlink:title=" ">
<polygon fill="white" stroke="#666666" points="196,-280.5 89,-280.5 89,-250.5 196,-250.5 196,-280.5"/>
<text text-anchor="start" x="97" y="-268.5" font-family="Helvetica,sans-Serif" font-size="10.00">elc::defs::base::build</text>
<text text-anchor="middle" x="142.5" y="-257.5" font-family="Helvetica,sans-Serif" font-size="10.00">_by_get_only</text>
</a>
</g>
</g>
<!-- Node3&#45;&gt;Node1 -->
<g id="edge2" class="edge">
<title>Node3&#45;&gt;Node1</title>
<path fill="none" stroke="#63b8ff" d="M206.42,-274.71C241.68,-279.88 285.49,-286.29 320.58,-291.43"/>
<polygon fill="#63b8ff" stroke="#63b8ff" points="206.65,-271.21 196.25,-273.22 205.63,-278.14 206.65,-271.21"/>
</g>
</g>
</svg>
