<?xml version="1.0" encoding="UTF-8" standalone="no"?>
<!DOCTYPE svg PUBLIC "-//W3C//DTD SVG 1.1//EN"
 "http://www.w3.org/Graphics/SVG/1.1/DTD/svg11.dtd">
<!-- Generated by graphviz version 6.0.1 (20220911.1526)
 -->
<!-- Title: elc::defs::core::value::operator= Pages: 1 -->
<svg width="261pt" height="51pt"
 viewBox="0.00 0.00 261.00 50.50" xmlns="http://www.w3.org/2000/svg" xmlns:xlink="http://www.w3.org/1999/xlink">
<g id="graph0" class="graph" transform="scale(1 1) rotate(0) translate(4 46.5)">
<title>elc::defs::core::value::operator=</title>
<!-- Node1 -->
<g id="node1" class="node">
<title>Node1</title>
<g id="a_node1"><a xlink:title=" ">
<polygon fill="#999999" stroke="#666666" points="106,-30 0,-30 0,0 106,0 106,-30"/>
<text text-anchor="start" x="8" y="-18" font-family="Helvetica,sans-Serif" font-size="10.00">elc::defs::core::value</text>
<text text-anchor="middle" x="53" y="-7" font-family="Helvetica,sans-Serif" font-size="10.00">::operator=</text>
</a>
</g>
</g>
<!-- Node2 -->
<g id="node2" class="node">
<title>Node2</title>
<g id="a_node2"><a xlink:href="namespaceelc_1_1defs_1_1core.html#aa4b6b0e46887c02cd097d74031157c5f" target="_top" xlink:title=" ">
<polygon fill="white" stroke="#666666" points="253,-24.5 142,-24.5 142,-5.5 253,-5.5 253,-24.5"/>
<text text-anchor="middle" x="197.5" y="-12.5" font-family="Helvetica,sans-Serif" font-size="10.00">elc::defs::core::as_ptr</text>
</a>
</g>
</g>
<!-- Node1&#45;&gt;Node2 -->
<g id="edge1" class="edge">
<title>Node1&#45;&gt;Node2</title>
<path fill="none" stroke="#63b8ff" d="M106.25,-15C114.5,-15 123.11,-15 131.6,-15"/>
<polygon fill="#63b8ff" stroke="#63b8ff" points="131.86,-18.5 141.86,-15 131.86,-11.5 131.86,-18.5"/>
</g>
<!-- Node2&#45;&gt;Node2 -->
<g id="edge2" class="edge">
<title>Node2&#45;&gt;Node2</title>
<path fill="none" stroke="#63b8ff" d="M175.23,-24.58C164.39,-33.23 171.82,-42.5 197.5,-42.5 213.95,-42.5 222.91,-38.7 224.38,-33.69"/>
<polygon fill="#63b8ff" stroke="#63b8ff" points="227.41,-31.93 219.77,-24.58 221.16,-35.09 227.41,-31.93"/>
</g>
</g>
</svg>
