<?xml version="1.0" encoding="UTF-8" standalone="no"?>
<!DOCTYPE svg PUBLIC "-//W3C//DTD SVG 1.1//EN"
 "http://www.w3.org/Graphics/SVG/1.1/DTD/svg11.dtd">
<!-- Generated by graphviz version 6.0.1 (20220911.1526)
 -->
<!-- Title: elc::defs::core::node_like::operator&amp; Pages: 1 -->
<svg width="305pt" height="172pt"
 viewBox="0.00 0.00 305.00 172.00" xmlns="http://www.w3.org/2000/svg" xmlns:xlink="http://www.w3.org/1999/xlink">
<g id="graph0" class="graph" transform="scale(1 1) rotate(0) translate(4 168)">
<title>elc::defs::core::node_like::operator&amp;</title>
<!-- Node1 -->
<g id="node1" class="node">
<title>Node1</title>
<g id="a_node1"><a xlink:title=" ">
<polygon fill="#999999" stroke="#666666" points="297,-94 192,-94 192,-64 297,-64 297,-94"/>
<text text-anchor="start" x="200" y="-82" font-family="Helvetica,sans-Serif" font-size="10.00">elc::defs::core::node</text>
<text text-anchor="middle" x="244.5" y="-71" font-family="Helvetica,sans-Serif" font-size="10.00">_like::operator&amp;</text>
</a>
</g>
</g>
<!-- Node2 -->
<g id="node2" class="node">
<title>Node2</title>
<g id="a_node2"><a xlink:href="structelc_1_1defs_1_1core_1_1cons.html#a2ecac97973c620f052a65545c84efb8e" target="_top" xlink:title=" ">
<polygon fill="white" stroke="#666666" points="130.5,-164 25.5,-164 25.5,-134 130.5,-134 130.5,-164"/>
<text text-anchor="start" x="33.5" y="-152" font-family="Helvetica,sans-Serif" font-size="10.00">elc::defs::core::cons</text>
<text text-anchor="middle" x="78" y="-141" font-family="Helvetica,sans-Serif" font-size="10.00">::arec</text>
</a>
</g>
</g>
<!-- Node1&#45;&gt;Node2 -->
<g id="edge1" class="edge">
<title>Node1&#45;&gt;Node2</title>
<path fill="none" stroke="#63b8ff" d="M208.8,-99.11C193.01,-107.76 173.89,-117.58 156,-125 147.98,-128.33 139.33,-131.45 130.82,-134.27"/>
<polygon fill="#63b8ff" stroke="#63b8ff" points="210.64,-102.09 217.68,-94.17 207.24,-95.97 210.64,-102.09"/>
</g>
<!-- Node3 -->
<g id="node3" class="node">
<title>Node3</title>
<g id="a_node3"><a xlink:href="structelc_1_1defs_1_1core_1_1cons.html#aa70134fa35de863a301a729f5797f408" target="_top" xlink:title=" ">
<polygon fill="white" stroke="#666666" points="130.5,-116 25.5,-116 25.5,-86 130.5,-86 130.5,-116"/>
<text text-anchor="start" x="33.5" y="-104" font-family="Helvetica,sans-Serif" font-size="10.00">elc::defs::core::cons</text>
<text text-anchor="middle" x="78" y="-93" font-family="Helvetica,sans-Serif" font-size="10.00">::clear</text>
</a>
</g>
</g>
<!-- Node1&#45;&gt;Node3 -->
<g id="edge2" class="edge">
<title>Node1&#45;&gt;Node3</title>
<path fill="none" stroke="#63b8ff" d="M181.63,-87.27C164.85,-89.52 146.86,-91.92 130.7,-94.09"/>
<polygon fill="#63b8ff" stroke="#63b8ff" points="182.45,-90.7 191.9,-85.9 181.53,-83.76 182.45,-90.7"/>
</g>
<!-- Node4 -->
<g id="node4" class="node">
<title>Node4</title>
<g id="a_node4"><a xlink:href="namespaceelc_1_1defs_1_1core.html#ab4cf4e3ddd5f73ad2574c3e980489a8e" target="_top" xlink:title=" ">
<polygon fill="white" stroke="#666666" points="141,-67.5 15,-67.5 15,-48.5 141,-48.5 141,-67.5"/>
<text text-anchor="middle" x="78" y="-55.5" font-family="Helvetica,sans-Serif" font-size="10.00">elc::defs::core::make_list</text>
</a>
</g>
</g>
<!-- Node1&#45;&gt;Node4 -->
<g id="edge3" class="edge">
<title>Node1&#45;&gt;Node4</title>
<path fill="none" stroke="#63b8ff" d="M181.88,-71.13C168.55,-69.43 154.44,-67.63 141.09,-65.93"/>
<polygon fill="#63b8ff" stroke="#63b8ff" points="181.54,-74.62 191.9,-72.41 182.43,-67.67 181.54,-74.62"/>
</g>
<!-- Node5 -->
<g id="node5" class="node">
<title>Node5</title>
<g id="a_node5"><a xlink:href="structelc_1_1defs_1_1namespace__n_1_1namespace__t.html#ace260d2875d03bf69aa2b02fa36fe6eb" target="_top" xlink:title=" ">
<polygon fill="white" stroke="#666666" points="156,-30 0,-30 0,0 156,0 156,-30"/>
<text text-anchor="start" x="8" y="-18" font-family="Helvetica,sans-Serif" font-size="10.00">elc::defs::namespace</text>
<text text-anchor="middle" x="78" y="-7" font-family="Helvetica,sans-Serif" font-size="10.00">_n::namespace_t::namespace_t</text>
</a>
</g>
</g>
<!-- Node1&#45;&gt;Node5 -->
<g id="edge4" class="edge">
<title>Node1&#45;&gt;Node5</title>
<path fill="none" stroke="#63b8ff" d="M202.59,-59.7C188.03,-53.11 171.41,-45.92 156,-40 147.08,-36.57 137.46,-33.2 128.15,-30.1"/>
<polygon fill="#63b8ff" stroke="#63b8ff" points="201.29,-62.95 211.84,-63.92 204.2,-56.58 201.29,-62.95"/>
</g>
</g>
</svg>
