<?xml version="1.0" encoding="UTF-8" standalone="no"?>
<!DOCTYPE svg PUBLIC "-//W3C//DTD SVG 1.1//EN"
 "http://www.w3.org/Graphics/SVG/1.1/DTD/svg11.dtd">
<!-- Generated by graphviz version 6.0.1 (20220911.1526)
 -->
<!-- Title: elc::defs::stream_n::base_ostream Pages: 1 -->
<svg width="721pt" height="230pt"
 viewBox="0.00 0.00 721.00 230.00" xmlns="http://www.w3.org/2000/svg" xmlns:xlink="http://www.w3.org/1999/xlink">
<g id="graph0" class="graph" transform="scale(1 1) rotate(0) translate(4 226)">
<title>elc::defs::stream_n::base_ostream</title>
<!-- Node1 -->
<g id="node1" class="node">
<title>Node1</title>
<g id="a_node1"><a xlink:title=" ">
<polygon fill="#999999" stroke="#666666" points="236,-126 136,-126 136,-96 236,-96 236,-126"/>
<text text-anchor="start" x="144" y="-114" font-family="Helvetica,sans-Serif" font-size="10.00">elc::defs::stream_n</text>
<text text-anchor="middle" x="186" y="-103" font-family="Helvetica,sans-Serif" font-size="10.00">::base_ostream</text>
</a>
</g>
</g>
<!-- Node3 -->
<g id="node3" class="node">
<title>Node3</title>
<g id="a_node3"><a xlink:href="structelc_1_1defs_1_1stream__n_1_1base__iostream.html" target="_top" xlink:title=" ">
<polygon fill="white" stroke="#666666" points="373.5,-102 273.5,-102 273.5,-72 373.5,-72 373.5,-102"/>
<text text-anchor="start" x="281.5" y="-90" font-family="Helvetica,sans-Serif" font-size="10.00">elc::defs::stream_n</text>
<text text-anchor="middle" x="323.5" y="-79" font-family="Helvetica,sans-Serif" font-size="10.00">::base_iostream</text>
</a>
</g>
</g>
<!-- Node1&#45;&gt;Node3 -->
<g id="edge2" class="edge">
<title>Node1&#45;&gt;Node3</title>
<path fill="none" stroke="#63b8ff" d="M246.39,-100.48C255.43,-98.88 264.67,-97.24 273.46,-95.69"/>
<polygon fill="#63b8ff" stroke="#63b8ff" points="245.54,-97.08 236.3,-102.27 246.76,-103.97 245.54,-97.08"/>
</g>
<!-- Node10 -->
<g id="node10" class="node">
<title>Node10</title>
<g id="a_node10"><a xlink:href="structelc_1_1defs_1_1stream__n_1_1data__ostream.html" target="_top" xlink:title=" ">
<polygon fill="white" stroke="#666666" points="373.5,-198 273.5,-198 273.5,-168 373.5,-168 373.5,-198"/>
<text text-anchor="start" x="281.5" y="-186" font-family="Helvetica,sans-Serif" font-size="10.00">elc::defs::stream_n</text>
<text text-anchor="middle" x="323.5" y="-175" font-family="Helvetica,sans-Serif" font-size="10.00">::data_ostream</text>
</a>
</g>
</g>
<!-- Node1&#45;&gt;Node10 -->
<g id="edge11" class="edge">
<title>Node1&#45;&gt;Node10</title>
<path fill="none" stroke="#63b8ff" d="M221.86,-131.42C237.12,-140.16 255.31,-150.33 272,-159 277.77,-162 283.98,-165.07 290.01,-167.97"/>
<polygon fill="#63b8ff" stroke="#63b8ff" points="223.19,-128.15 212.78,-126.18 219.7,-134.21 223.19,-128.15"/>
</g>
<!-- Node12 -->
<g id="node12" class="node">
<title>Node12</title>
<g id="a_node12"><a xlink:href="structelc_1_1defs_1_1stream__n_1_1noexcept__ostream.html" target="_top" xlink:title=" ">
<polygon fill="white" stroke="#666666" points="375,-150 272,-150 272,-120 375,-120 375,-150"/>
<text text-anchor="start" x="280" y="-138" font-family="Helvetica,sans-Serif" font-size="10.00">elc::defs::stream_n</text>
<text text-anchor="middle" x="323.5" y="-127" font-family="Helvetica,sans-Serif" font-size="10.00">::noexcept_ostream</text>
</a>
</g>
</g>
<!-- Node1&#45;&gt;Node12 -->
<g id="edge15" class="edge">
<title>Node1&#45;&gt;Node12</title>
<path fill="none" stroke="#63b8ff" d="M246.16,-121.48C254.65,-122.98 263.33,-124.52 271.64,-125.99"/>
<polygon fill="#63b8ff" stroke="#63b8ff" points="246.76,-118.03 236.3,-119.73 245.54,-124.92 246.76,-118.03"/>
</g>
<!-- Node14 -->
<g id="node14" class="node">
<title>Node14</title>
<g id="a_node14"><a xlink:href="structelc_1_1defs_1_1stream__n_1_1string__ostream.html" target="_top" xlink:title=" ">
<polygon fill="white" stroke="#666666" points="373.5,-54 273.5,-54 273.5,-24 373.5,-24 373.5,-54"/>
<text text-anchor="start" x="281.5" y="-42" font-family="Helvetica,sans-Serif" font-size="10.00">elc::defs::stream_n</text>
<text text-anchor="middle" x="323.5" y="-31" font-family="Helvetica,sans-Serif" font-size="10.00">::string_ostream</text>
</a>
</g>
</g>
<!-- Node1&#45;&gt;Node14 -->
<g id="edge20" class="edge">
<title>Node1&#45;&gt;Node14</title>
<path fill="none" stroke="#63b8ff" d="M221.86,-90.58C237.12,-81.84 255.31,-71.67 272,-63 277.77,-60 283.98,-56.93 290.01,-54.03"/>
<polygon fill="#63b8ff" stroke="#63b8ff" points="219.7,-87.79 212.78,-95.82 223.19,-93.85 219.7,-87.79"/>
</g>
<!-- Node2 -->
<g id="node2" class="node">
<title>Node2</title>
<g id="a_node2"><a xlink:href="structelc_1_1defs_1_1stream__n_1_1base__stream.html" target="_top" xlink:title=" ">
<polygon fill="white" stroke="#666666" points="100,-126 0,-126 0,-96 100,-96 100,-126"/>
<text text-anchor="start" x="8" y="-114" font-family="Helvetica,sans-Serif" font-size="10.00">elc::defs::stream_n</text>
<text text-anchor="middle" x="50" y="-103" font-family="Helvetica,sans-Serif" font-size="10.00">::base_stream</text>
</a>
</g>
</g>
<!-- Node2&#45;&gt;Node1 -->
<g id="edge1" class="edge">
<title>Node2&#45;&gt;Node1</title>
<path fill="none" stroke="#63b8ff" d="M110.4,-111C118.91,-111 127.59,-111 135.87,-111"/>
<polygon fill="#63b8ff" stroke="#63b8ff" points="110.14,-107.5 100.14,-111 110.14,-114.5 110.14,-107.5"/>
</g>
<!-- Node4 -->
<g id="node4" class="node">
<title>Node4</title>
<g id="a_node4"><a xlink:href="structelc_1_1defs_1_1stream__n_1_1data__iostream.html" target="_top" xlink:title=" ">
<polygon fill="white" stroke="#666666" points="527,-174 427,-174 427,-144 527,-144 527,-174"/>
<text text-anchor="start" x="435" y="-162" font-family="Helvetica,sans-Serif" font-size="10.00">elc::defs::stream_n</text>
<text text-anchor="middle" x="477" y="-151" font-family="Helvetica,sans-Serif" font-size="10.00">::data_iostream</text>
</a>
</g>
</g>
<!-- Node3&#45;&gt;Node4 -->
<g id="edge3" class="edge">
<title>Node3&#45;&gt;Node4</title>
<path fill="none" stroke="#63b8ff" d="M367.16,-106.73C369.83,-108.13 372.47,-109.56 375,-111 391.73,-120.49 393.86,-126.28 411,-135 417.33,-138.22 424.19,-141.23 431,-143.96"/>
<polygon fill="#63b8ff" stroke="#63b8ff" points="368.49,-103.48 357.99,-102.08 365.32,-109.72 368.49,-103.48"/>
</g>
<!-- Node6 -->
<g id="node6" class="node">
<title>Node6</title>
<g id="a_node6"><a xlink:href="structelc_1_1defs_1_1stream__n_1_1noexcept__iostream.html" target="_top" xlink:title=" ">
<polygon fill="white" stroke="#666666" points="529.5,-126 424.5,-126 424.5,-96 529.5,-96 529.5,-126"/>
<text text-anchor="start" x="432.5" y="-114" font-family="Helvetica,sans-Serif" font-size="10.00">elc::defs::stream_n</text>
<text text-anchor="middle" x="477" y="-103" font-family="Helvetica,sans-Serif" font-size="10.00">::noexcept_iostream</text>
</a>
</g>
</g>
<!-- Node3&#45;&gt;Node6 -->
<g id="edge5" class="edge">
<title>Node3&#45;&gt;Node6</title>
<path fill="none" stroke="#63b8ff" d="M383.79,-96.39C397.22,-98.52 411.37,-100.76 424.45,-102.83"/>
<polygon fill="#63b8ff" stroke="#63b8ff" points="384.11,-92.9 373.69,-94.79 383.02,-99.81 384.11,-92.9"/>
</g>
<!-- Node9 -->
<g id="node9" class="node">
<title>Node9</title>
<g id="a_node9"><a xlink:href="structelc_1_1defs_1_1stream__n_1_1string__iostream.html" target="_top" xlink:title=" ">
<polygon fill="white" stroke="#666666" points="527,-30 427,-30 427,0 527,0 527,-30"/>
<text text-anchor="start" x="435" y="-18" font-family="Helvetica,sans-Serif" font-size="10.00">elc::defs::stream_n</text>
<text text-anchor="middle" x="477" y="-7" font-family="Helvetica,sans-Serif" font-size="10.00">::string_iostream</text>
</a>
</g>
</g>
<!-- Node3&#45;&gt;Node9 -->
<g id="edge9" class="edge">
<title>Node3&#45;&gt;Node9</title>
<path fill="none" stroke="#63b8ff" d="M367.16,-67.27C369.83,-65.87 372.47,-64.44 375,-63 391.73,-53.51 393.86,-47.72 411,-39 417.33,-35.78 424.19,-32.77 431,-30.04"/>
<polygon fill="#63b8ff" stroke="#63b8ff" points="365.32,-64.28 357.99,-71.92 368.49,-70.52 365.32,-64.28"/>
</g>
<!-- Node5 -->
<g id="node5" class="node">
<title>Node5</title>
<g id="a_node5"><a xlink:href="structelc_1_1defs_1_1stream__n_1_1noexcept__data__iostream.html" target="_top" xlink:title=" ">
<polygon fill="white" stroke="#666666" points="710.5,-174 581.5,-174 581.5,-144 710.5,-144 710.5,-174"/>
<text text-anchor="start" x="589.5" y="-162" font-family="Helvetica,sans-Serif" font-size="10.00">elc::defs::stream_n</text>
<text text-anchor="middle" x="646" y="-151" font-family="Helvetica,sans-Serif" font-size="10.00">::noexcept_data_iostream</text>
</a>
</g>
</g>
<!-- Node4&#45;&gt;Node5 -->
<g id="edge4" class="edge">
<title>Node4&#45;&gt;Node5</title>
<path fill="none" stroke="#63b8ff" d="M537.36,-159C551.59,-159 566.85,-159 581.27,-159"/>
<polygon fill="#63b8ff" stroke="#63b8ff" points="537.2,-155.5 527.2,-159 537.2,-162.5 537.2,-155.5"/>
</g>
<!-- Node6&#45;&gt;Node5 -->
<g id="edge7" class="edge">
<title>Node6&#45;&gt;Node5</title>
<path fill="none" stroke="#63b8ff" d="M539.93,-128.8C557.22,-133.77 575.84,-139.12 592.53,-143.92"/>
<polygon fill="#63b8ff" stroke="#63b8ff" points="540.5,-125.32 529.92,-125.92 538.57,-132.05 540.5,-125.32"/>
</g>
<!-- Node7 -->
<g id="node7" class="node">
<title>Node7</title>
<g id="a_node7"><a xlink:href="structelc_1_1defs_1_1stream__n_1_1memory__stream.html" target="_top" xlink:title=" ">
<polygon fill="white" stroke="#666666" points="696,-126 596,-126 596,-96 696,-96 696,-126"/>
<text text-anchor="start" x="604" y="-114" font-family="Helvetica,sans-Serif" font-size="10.00">elc::defs::stream_n</text>
<text text-anchor="middle" x="646" y="-103" font-family="Helvetica,sans-Serif" font-size="10.00">::memory_stream</text>
</a>
</g>
</g>
<!-- Node6&#45;&gt;Node7 -->
<g id="edge6" class="edge">
<title>Node6&#45;&gt;Node7</title>
<path fill="none" stroke="#63b8ff" d="M540,-111C558.47,-111 578.44,-111 595.96,-111"/>
<polygon fill="#63b8ff" stroke="#63b8ff" points="539.92,-107.5 529.92,-111 539.92,-114.5 539.92,-107.5"/>
</g>
<!-- Node8 -->
<g id="node8" class="node">
<title>Node8</title>
<g id="a_node8"><a xlink:href="structelc_1_1defs_1_1stream__n_1_1noexcept__string__iostream.html" target="_top" xlink:title=" ">
<polygon fill="white" stroke="#666666" points="713,-78 579,-78 579,-48 713,-48 713,-78"/>
<text text-anchor="start" x="587" y="-66" font-family="Helvetica,sans-Serif" font-size="10.00">elc::defs::stream_n</text>
<text text-anchor="middle" x="646" y="-55" font-family="Helvetica,sans-Serif" font-size="10.00">::noexcept_string_iostream</text>
</a>
</g>
</g>
<!-- Node6&#45;&gt;Node8 -->
<g id="edge8" class="edge">
<title>Node6&#45;&gt;Node8</title>
<path fill="none" stroke="#63b8ff" d="M539.93,-93.2C557.22,-88.23 575.84,-82.88 592.53,-78.08"/>
<polygon fill="#63b8ff" stroke="#63b8ff" points="538.57,-89.95 529.92,-96.08 540.5,-96.68 538.57,-89.95"/>
</g>
<!-- Node9&#45;&gt;Node8 -->
<g id="edge10" class="edge">
<title>Node9&#45;&gt;Node8</title>
<path fill="none" stroke="#63b8ff" d="M536.82,-31.91C555.02,-37.14 574.93,-42.86 592.66,-47.96"/>
<polygon fill="#63b8ff" stroke="#63b8ff" points="537.78,-28.54 527.2,-29.14 535.85,-35.27 537.78,-28.54"/>
</g>
<!-- Node10&#45;&gt;Node4 -->
<g id="edge12" class="edge">
<title>Node10&#45;&gt;Node4</title>
<path fill="none" stroke="#63b8ff" d="M383.86,-173.6C398.08,-171.34 413.1,-168.96 426.8,-166.79"/>
<polygon fill="#63b8ff" stroke="#63b8ff" points="383.02,-170.19 373.69,-175.21 384.11,-177.1 383.02,-170.19"/>
</g>
<!-- Node11 -->
<g id="node11" class="node">
<title>Node11</title>
<g id="a_node11"><a xlink:href="structelc_1_1defs_1_1stream__n_1_1noexcept__data__ostream.html" target="_top" xlink:title=" ">
<polygon fill="white" stroke="#666666" points="540.5,-222 413.5,-222 413.5,-192 540.5,-192 540.5,-222"/>
<text text-anchor="start" x="421.5" y="-210" font-family="Helvetica,sans-Serif" font-size="10.00">elc::defs::stream_n</text>
<text text-anchor="middle" x="477" y="-199" font-family="Helvetica,sans-Serif" font-size="10.00">::noexcept_data_ostream</text>
</a>
</g>
</g>
<!-- Node10&#45;&gt;Node11 -->
<g id="edge13" class="edge">
<title>Node10&#45;&gt;Node11</title>
<path fill="none" stroke="#63b8ff" d="M383.64,-192.37C393.35,-193.91 403.44,-195.51 413.24,-197.06"/>
<polygon fill="#63b8ff" stroke="#63b8ff" points="384.11,-188.9 373.69,-190.79 383.02,-195.81 384.11,-188.9"/>
</g>
<!-- Node11&#45;&gt;Node5 -->
<g id="edge14" class="edge">
<title>Node11&#45;&gt;Node5</title>
<path fill="none" stroke="#63b8ff" d="M540.37,-189.07C557.63,-184.11 576.19,-178.78 592.8,-174"/>
<polygon fill="#63b8ff" stroke="#63b8ff" points="539.03,-185.82 530.38,-191.94 540.96,-192.55 539.03,-185.82"/>
</g>
<!-- Node12&#45;&gt;Node6 -->
<g id="edge17" class="edge">
<title>Node12&#45;&gt;Node6</title>
<path fill="none" stroke="#63b8ff" d="M385.57,-125.33C398.47,-123.28 411.98,-121.14 424.49,-119.16"/>
<polygon fill="#63b8ff" stroke="#63b8ff" points="384.7,-121.92 375.37,-126.94 385.79,-128.83 384.7,-121.92"/>
</g>
<!-- Node12&#45;&gt;Node11 -->
<g id="edge16" class="edge">
<title>Node12&#45;&gt;Node11</title>
<path fill="none" stroke="#63b8ff" d="M367.16,-154.73C369.83,-156.13 372.47,-157.56 375,-159 391.73,-168.49 393.86,-174.28 411,-183 417.33,-186.22 424.19,-189.23 431,-191.96"/>
<polygon fill="#63b8ff" stroke="#63b8ff" points="368.49,-151.48 357.99,-150.08 365.32,-157.72 368.49,-151.48"/>
</g>
<!-- Node13 -->
<g id="node13" class="node">
<title>Node13</title>
<g id="a_node13"><a xlink:href="structelc_1_1defs_1_1stream__n_1_1noexcept__string__ostream.html" target="_top" xlink:title=" ">
<polygon fill="white" stroke="#666666" points="543,-78 411,-78 411,-48 543,-48 543,-78"/>
<text text-anchor="start" x="419" y="-66" font-family="Helvetica,sans-Serif" font-size="10.00">elc::defs::stream_n</text>
<text text-anchor="middle" x="477" y="-55" font-family="Helvetica,sans-Serif" font-size="10.00">::noexcept_string_ostream</text>
</a>
</g>
</g>
<!-- Node12&#45;&gt;Node13 -->
<g id="edge18" class="edge">
<title>Node12&#45;&gt;Node13</title>
<path fill="none" stroke="#63b8ff" d="M367.16,-115.27C369.83,-113.87 372.47,-112.44 375,-111 391.73,-101.51 393.86,-95.72 411,-87 417.33,-83.78 424.19,-80.77 431,-78.04"/>
<polygon fill="#63b8ff" stroke="#63b8ff" points="365.32,-112.28 357.99,-119.92 368.49,-118.52 365.32,-112.28"/>
</g>
<!-- Node13&#45;&gt;Node8 -->
<g id="edge19" class="edge">
<title>Node13&#45;&gt;Node8</title>
<path fill="none" stroke="#63b8ff" d="M553.31,-63C561.8,-63 570.4,-63 578.76,-63"/>
<polygon fill="#63b8ff" stroke="#63b8ff" points="553.04,-59.5 543.04,-63 553.04,-66.5 553.04,-59.5"/>
</g>
<!-- Node14&#45;&gt;Node9 -->
<g id="edge22" class="edge">
<title>Node14&#45;&gt;Node9</title>
<path fill="none" stroke="#63b8ff" d="M383.86,-29.6C398.08,-27.34 413.1,-24.96 426.8,-22.79"/>
<polygon fill="#63b8ff" stroke="#63b8ff" points="383.02,-26.19 373.69,-31.21 384.11,-33.1 383.02,-26.19"/>
</g>
<!-- Node14&#45;&gt;Node13 -->
<g id="edge21" class="edge">
<title>Node14&#45;&gt;Node13</title>
<path fill="none" stroke="#63b8ff" d="M383.59,-48.36C392.51,-49.77 401.75,-51.24 410.79,-52.67"/>
<polygon fill="#63b8ff" stroke="#63b8ff" points="384.11,-44.9 373.69,-46.79 383.02,-51.81 384.11,-44.9"/>
</g>
</g>
</svg>
