<?xml version="1.0" encoding="UTF-8" standalone="no"?>
<!DOCTYPE svg PUBLIC "-//W3C//DTD SVG 1.1//EN"
 "http://www.w3.org/Graphics/SVG/1.1/DTD/svg11.dtd">
<!-- Generated by graphviz version 6.0.1 (20220911.1526)
 -->
<!-- Title: elc::defs::container::stack_n::base_stack_t&lt; T &gt;::data_t Pages: 1 -->
<svg width="167pt" height="137pt"
 viewBox="0.00 0.00 167.00 137.00" xmlns="http://www.w3.org/2000/svg" xmlns:xlink="http://www.w3.org/1999/xlink">
<g id="graph0" class="graph" transform="scale(1 1) rotate(0) translate(4 133)">
<title>elc::defs::container::stack_n::base_stack_t&lt; T &gt;::data_t</title>
<!-- Node1 -->
<g id="node1" class="node">
<title>Node1</title>
<g id="a_node1"><a xlink:title=" ">
<polygon fill="#999999" stroke="#666666" points="113,-41 0,-41 0,0 113,0 113,-41"/>
<text text-anchor="start" x="8" y="-29" font-family="Helvetica,sans-Serif" font-size="10.00">elc::defs::container</text>
<text text-anchor="start" x="8" y="-18" font-family="Helvetica,sans-Serif" font-size="10.00">::stack_n::base_stack</text>
<text text-anchor="middle" x="56.5" y="-7" font-family="Helvetica,sans-Serif" font-size="10.00">_t&lt; T &gt;::data_t</text>
</a>
</g>
</g>
<!-- Node2 -->
<g id="node2" class="node">
<title>Node2</title>
<g id="a_node2"><a xlink:href="structelc_1_1defs_1_1container_1_1stack__n_1_1base__stack__t_1_1data__t.html" target="_top" xlink:title=" ">
<polygon fill="white" stroke="#666666" points="113,-129 0,-129 0,-88 113,-88 113,-129"/>
<text text-anchor="start" x="8" y="-117" font-family="Helvetica,sans-Serif" font-size="10.00">elc::defs::container</text>
<text text-anchor="start" x="8" y="-106" font-family="Helvetica,sans-Serif" font-size="10.00">::stack_n::base_stack</text>
<text text-anchor="middle" x="56.5" y="-95" font-family="Helvetica,sans-Serif" font-size="10.00">_t&lt; T &gt;::data_t</text>
</a>
</g>
</g>
<!-- Node2&#45;&gt;Node1 -->
<g id="edge1" class="edge">
<title>Node2&#45;&gt;Node1</title>
<path fill="none" stroke="#9a32cd" stroke-dasharray="5,2" d="M56.5,-77.86C56.5,-65.76 56.5,-52.08 56.5,-41.24"/>
<polygon fill="#9a32cd" stroke="#9a32cd" points="53,-77.99 56.5,-87.99 60,-77.99 53,-77.99"/>
<text text-anchor="middle" x="70.5" y="-62" font-family="Helvetica,sans-Serif" font-size="10.00"> _next</text>
</g>
<!-- Node2&#45;&gt;Node2 -->
<g id="edge2" class="edge">
<title>Node2&#45;&gt;Node2</title>
<path fill="none" stroke="#9a32cd" stroke-dasharray="5,2" d="M122.99,-114.65C127.95,-113.28 131,-111.23 131,-108.5 131,-104.25 123.57,-101.64 113.03,-100.67"/>
<polygon fill="#9a32cd" stroke="#9a32cd" points="122.31,-111.22 113.03,-116.33 123.47,-118.12 122.31,-111.22"/>
<text text-anchor="middle" x="145" y="-106" font-family="Helvetica,sans-Serif" font-size="10.00"> _next</text>
</g>
</g>
</svg>
