<?xml version="1.0" encoding="UTF-8" standalone="no"?>
<!DOCTYPE svg PUBLIC "-//W3C//DTD SVG 1.1//EN"
 "http://www.w3.org/Graphics/SVG/1.1/DTD/svg11.dtd">
<!-- Generated by graphviz version 6.0.1 (20220911.1526)
 -->
<!-- Title: elc::defs::container::function_n::func_data_t&lt; T, Ret_t(Args_t...)&gt; Pages: 1 -->
<svg width="486pt" height="179pt"
 viewBox="0.00 0.00 486.00 178.50" xmlns="http://www.w3.org/2000/svg" xmlns:xlink="http://www.w3.org/1999/xlink">
<g id="graph0" class="graph" transform="scale(1 1) rotate(0) translate(4 174.5)">
<title>elc::defs::container::function_n::func_data_t&lt; T, Ret_t(Args_t...)&gt;</title>
<!-- Node1 -->
<g id="node1" class="node">
<title>Node1</title>
<g id="a_node1"><a xlink:title=" ">
<polygon fill="#999999" stroke="#666666" points="478,-100 360,-100 360,-59 478,-59 478,-100"/>
<text text-anchor="start" x="368" y="-88" font-family="Helvetica,sans-Serif" font-size="10.00">elc::defs::container</text>
<text text-anchor="start" x="368" y="-77" font-family="Helvetica,sans-Serif" font-size="10.00">::function_n::func_data</text>
<text text-anchor="middle" x="419" y="-66" font-family="Helvetica,sans-Serif" font-size="10.00">_t&lt; T, Ret_t(Args_t...)&gt;</text>
</a>
</g>
</g>
<!-- Node2 -->
<g id="node2" class="node">
<title>Node2</title>
<g id="a_node2"><a xlink:title=" ">
<polygon fill="white" stroke="#666666" points="324,-170.5 180,-170.5 180,-118.5 324,-118.5 324,-170.5"/>
<text text-anchor="start" x="188" y="-158.5" font-family="Helvetica,sans-Serif" font-size="10.00">type_info_t&lt; func_data</text>
<text text-anchor="start" x="188" y="-147.5" font-family="Helvetica,sans-Serif" font-size="10.00">_t&lt; T, Ret_t(Args_t...)</text>
<text text-anchor="start" x="188" y="-136.5" font-family="Helvetica,sans-Serif" font-size="10.00">&gt; &gt;:: template &#160;with_common</text>
<text text-anchor="middle" x="252" y="-125.5" font-family="Helvetica,sans-Serif" font-size="10.00">_attribute&lt; instance_struct &gt;</text>
</a>
</g>
</g>
<!-- Node2&#45;&gt;Node1 -->
<g id="edge1" class="edge">
<title>Node2&#45;&gt;Node1</title>
<path fill="none" stroke="#63b8ff" d="M328.69,-114.68C341.24,-109.74 353.99,-104.72 365.79,-100.07"/>
<polygon fill="#63b8ff" stroke="#63b8ff" points="327.18,-111.51 319.16,-118.44 329.75,-118.03 327.18,-111.51"/>
</g>
<!-- Node3 -->
<g id="node3" class="node">
<title>Node3</title>
<g id="a_node3"><a xlink:href="structelc_1_1defs_1_1container_1_1function__n_1_1base__func__data__t_3_01_ret__t_07_args__t_8_8_8_08_4.html" target="_top" xlink:title=" ">
<polygon fill="white" stroke="#666666" points="317.5,-100 186.5,-100 186.5,-59 317.5,-59 317.5,-100"/>
<text text-anchor="start" x="194.5" y="-88" font-family="Helvetica,sans-Serif" font-size="10.00">elc::defs::container</text>
<text text-anchor="start" x="194.5" y="-77" font-family="Helvetica,sans-Serif" font-size="10.00">::function_n::base_func</text>
<text text-anchor="middle" x="252" y="-66" font-family="Helvetica,sans-Serif" font-size="10.00">_data_t&lt; Ret_t(Args_t...)&gt;</text>
</a>
</g>
</g>
<!-- Node3&#45;&gt;Node1 -->
<g id="edge2" class="edge">
<title>Node3&#45;&gt;Node1</title>
<path fill="none" stroke="#63b8ff" d="M327.94,-79.5C338.66,-79.5 349.55,-79.5 359.89,-79.5"/>
<polygon fill="#63b8ff" stroke="#63b8ff" points="327.74,-76 317.74,-79.5 327.74,-83 327.74,-76"/>
</g>
<!-- Node4 -->
<g id="node4" class="node">
<title>Node4</title>
<g id="a_node4"><a xlink:title=" ">
<polygon fill="white" stroke="#666666" points="144,-143 0,-143 0,-80 144,-80 144,-143"/>
<text text-anchor="start" x="8" y="-131" font-family="Helvetica,sans-Serif" font-size="10.00">type_info_t&lt; base_func</text>
<text text-anchor="start" x="8" y="-120" font-family="Helvetica,sans-Serif" font-size="10.00">_data_t&lt; Ret_t(Args_t...)</text>
<text text-anchor="start" x="8" y="-109" font-family="Helvetica,sans-Serif" font-size="10.00">&gt; &gt;:: template &#160;with_common</text>
<text text-anchor="start" x="8" y="-98" font-family="Helvetica,sans-Serif" font-size="10.00">_attribute&lt; abstract_base,</text>
<text text-anchor="middle" x="72" y="-87" font-family="Helvetica,sans-Serif" font-size="10.00"> ref_able, never_in_array &gt;</text>
</a>
</g>
</g>
<!-- Node4&#45;&gt;Node3 -->
<g id="edge3" class="edge">
<title>Node4&#45;&gt;Node3</title>
<path fill="none" stroke="#63b8ff" d="M154,-96.94C164.84,-94.99 175.83,-93.01 186.34,-91.12"/>
<polygon fill="#63b8ff" stroke="#63b8ff" points="153.34,-93.5 144.12,-98.71 154.58,-100.39 153.34,-93.5"/>
</g>
<!-- Node5 -->
<g id="node5" class="node">
<title>Node5</title>
<g id="a_node5"><a xlink:href="classelc_1_1defs_1_1base_1_1build__by__get__only.html" target="_top" xlink:title=" ">
<polygon fill="white" stroke="#666666" points="125.5,-61.5 18.5,-61.5 18.5,-31.5 125.5,-31.5 125.5,-61.5"/>
<text text-anchor="start" x="26.5" y="-49.5" font-family="Helvetica,sans-Serif" font-size="10.00">elc::defs::base::build</text>
<text text-anchor="middle" x="72" y="-38.5" font-family="Helvetica,sans-Serif" font-size="10.00">_by_get_only</text>
</a>
</g>
</g>
<!-- Node5&#45;&gt;Node3 -->
<g id="edge4" class="edge">
<title>Node5&#45;&gt;Node3</title>
<path fill="none" stroke="#63b8ff" d="M135.91,-58.16C152.25,-61.19 169.88,-64.46 186.31,-67.51"/>
<polygon fill="#63b8ff" stroke="#63b8ff" points="136.39,-54.69 125.92,-56.31 135.12,-61.58 136.39,-54.69"/>
</g>
<!-- Node6 -->
<g id="node6" class="node">
<title>Node6</title>
<g id="a_node6"><a xlink:href="classelc_1_1defs_1_1base_1_1function__base__n_1_1function__data__warpper__t.html" target="_top" xlink:title=" ">
<polygon fill="white" stroke="#666666" points="313.5,-41 190.5,-41 190.5,0 313.5,0 313.5,-41"/>
<text text-anchor="start" x="198.5" y="-29" font-family="Helvetica,sans-Serif" font-size="10.00">elc::defs::base::function</text>
<text text-anchor="start" x="198.5" y="-18" font-family="Helvetica,sans-Serif" font-size="10.00">_base_n::function_data</text>
<text text-anchor="middle" x="252" y="-7" font-family="Helvetica,sans-Serif" font-size="10.00">_warpper_t&lt; T, Func_t &gt;</text>
</a>
</g>
</g>
<!-- Node6&#45;&gt;Node1 -->
<g id="edge5" class="edge">
<title>Node6&#45;&gt;Node1</title>
<path fill="none" stroke="#63b8ff" d="M320.32,-44.57C333.69,-49.35 347.6,-54.33 360.6,-58.98"/>
<polygon fill="#63b8ff" stroke="#63b8ff" points="321.3,-41.21 310.71,-41.14 318.95,-47.8 321.3,-41.21"/>
</g>
</g>
</svg>
