<?xml version="1.0" encoding="UTF-8" standalone="no"?>
<!DOCTYPE svg PUBLIC "-//W3C//DTD SVG 1.1//EN"
 "http://www.w3.org/Graphics/SVG/1.1/DTD/svg11.dtd">
<!-- Generated by graphviz version 6.0.1 (20220911.1526)
 -->
<!-- Title: elc::defs::base::array_like_n::array_like_view_t::size Pages: 1 -->
<svg width="443pt" height="157pt"
 viewBox="0.00 0.00 443.00 156.50" xmlns="http://www.w3.org/2000/svg" xmlns:xlink="http://www.w3.org/1999/xlink">
<g id="graph0" class="graph" transform="scale(1 1) rotate(0) translate(4 152.5)">
<title>elc::defs::base::array_like_n::array_like_view_t::size</title>
<!-- Node1 -->
<g id="node1" class="node">
<title>Node1</title>
<g id="a_node1"><a xlink:title=" ">
<polygon fill="#999999" stroke="#666666" points="435,-100 316,-100 316,-59 435,-59 435,-100"/>
<text text-anchor="start" x="324" y="-88" font-family="Helvetica,sans-Serif" font-size="10.00">elc::defs::base::array</text>
<text text-anchor="start" x="324" y="-77" font-family="Helvetica,sans-Serif" font-size="10.00">_like_n::array_like_view</text>
<text text-anchor="middle" x="375.5" y="-66" font-family="Helvetica,sans-Serif" font-size="10.00">_t::size</text>
</a>
</g>
</g>
<!-- Node2 -->
<g id="node2" class="node">
<title>Node2</title>
<g id="a_node2"><a xlink:href="structelc_1_1defs_1_1base_1_1type__name__t.html#ae5b76394d2b0fa538969d4016f5a63ca" target="_top" xlink:title="复制重整结果">
<polygon fill="white" stroke="#666666" points="280,-148.5 152,-148.5 152,-118.5 280,-118.5 280,-148.5"/>
<text text-anchor="start" x="160" y="-136.5" font-family="Helvetica,sans-Serif" font-size="10.00">elc::defs::base::type</text>
<text text-anchor="middle" x="216" y="-125.5" font-family="Helvetica,sans-Serif" font-size="10.00">_name_t::copy_demangle</text>
</a>
</g>
</g>
<!-- Node1&#45;&gt;Node2 -->
<g id="edge1" class="edge">
<title>Node1&#45;&gt;Node2</title>
<path fill="none" stroke="#63b8ff" d="M306.36,-102.86C290.96,-108.14 275.01,-113.61 260.92,-118.44"/>
<polygon fill="#63b8ff" stroke="#63b8ff" points="307.53,-106.16 315.85,-99.61 305.26,-99.54 307.53,-106.16"/>
</g>
<!-- Node4 -->
<g id="node4" class="node">
<title>Node4</title>
<g id="a_node4"><a xlink:href="structelc_1_1defs_1_1base_1_1array__like__n_1_1array__like__view__t.html#a9fb06ec698739ae7e173cd9742b6d883" target="_top" xlink:title=" ">
<polygon fill="white" stroke="#666666" points="275.5,-100 156.5,-100 156.5,-59 275.5,-59 275.5,-100"/>
<text text-anchor="start" x="164.5" y="-88" font-family="Helvetica,sans-Serif" font-size="10.00">elc::defs::base::array</text>
<text text-anchor="start" x="164.5" y="-77" font-family="Helvetica,sans-Serif" font-size="10.00">_like_n::array_like_view</text>
<text text-anchor="middle" x="216" y="-66" font-family="Helvetica,sans-Serif" font-size="10.00">_t::empty</text>
</a>
</g>
</g>
<!-- Node1&#45;&gt;Node4 -->
<g id="edge3" class="edge">
<title>Node1&#45;&gt;Node4</title>
<path fill="none" stroke="#63b8ff" d="M305.57,-79.5C295.61,-79.5 285.43,-79.5 275.7,-79.5"/>
<polygon fill="#63b8ff" stroke="#63b8ff" points="305.85,-83 315.85,-79.5 305.85,-76 305.85,-83"/>
</g>
<!-- Node5 -->
<g id="node5" class="node">
<title>Node5</title>
<g id="a_node5"><a xlink:href="structelc_1_1defs_1_1base_1_1array__like__n_1_1array__like__view__t.html#ac89cec36abae10678ac1cced715c99c5" target="_top" xlink:title=" ">
<polygon fill="white" stroke="#666666" points="275.5,-41 156.5,-41 156.5,0 275.5,0 275.5,-41"/>
<text text-anchor="start" x="164.5" y="-29" font-family="Helvetica,sans-Serif" font-size="10.00">elc::defs::base::array</text>
<text text-anchor="start" x="164.5" y="-18" font-family="Helvetica,sans-Serif" font-size="10.00">_like_n::array_like_view</text>
<text text-anchor="middle" x="216" y="-7" font-family="Helvetica,sans-Serif" font-size="10.00">_t::end</text>
</a>
</g>
</g>
<!-- Node1&#45;&gt;Node5 -->
<g id="edge4" class="edge">
<title>Node1&#45;&gt;Node5</title>
<path fill="none" stroke="#63b8ff" d="M309.87,-55.29C297.22,-50.55 284.07,-45.63 271.79,-41.02"/>
<polygon fill="#63b8ff" stroke="#63b8ff" points="308.82,-58.63 319.41,-58.86 311.28,-52.08 308.82,-58.63"/>
</g>
<!-- Node3 -->
<g id="node3" class="node">
<title>Node3</title>
<g id="a_node3"><a xlink:href="structelc_1_1defs_1_1base_1_1type__name__t.html#a15cc0d4b59a83c73e92509a3a863877d" target="_top" xlink:title="复制构造函数">
<polygon fill="white" stroke="#666666" points="116,-148.5 0,-148.5 0,-118.5 116,-118.5 116,-148.5"/>
<text text-anchor="start" x="8" y="-136.5" font-family="Helvetica,sans-Serif" font-size="10.00">elc::defs::base::type</text>
<text text-anchor="middle" x="58" y="-125.5" font-family="Helvetica,sans-Serif" font-size="10.00">_name_t::type_name_t</text>
</a>
</g>
</g>
<!-- Node2&#45;&gt;Node3 -->
<g id="edge2" class="edge">
<title>Node2&#45;&gt;Node3</title>
<path fill="none" stroke="#63b8ff" d="M141.92,-133.5C133.28,-133.5 124.57,-133.5 116.19,-133.5"/>
<polygon fill="#63b8ff" stroke="#63b8ff" points="142,-137 152,-133.5 142,-130 142,-137"/>
</g>
</g>
</svg>
