<?xml version="1.0" encoding="UTF-8" standalone="no"?>
<!DOCTYPE svg PUBLIC "-//W3C//DTD SVG 1.1//EN"
 "http://www.w3.org/Graphics/SVG/1.1/DTD/svg11.dtd">
<!-- Generated by graphviz version 6.0.1 (20220911.1526)
 -->
<!-- Title: elc::defs::core::value::base_data_t Pages: 1 -->
<svg width="457pt" height="136pt"
 viewBox="0.00 0.00 457.00 135.50" xmlns="http://www.w3.org/2000/svg" xmlns:xlink="http://www.w3.org/1999/xlink">
<g id="graph0" class="graph" transform="scale(1 1) rotate(0) translate(4 131.5)">
<title>elc::defs::core::value::base_data_t</title>
<!-- Node1 -->
<g id="node1" class="node">
<title>Node1</title>
<g id="a_node1"><a xlink:title=" ">
<polygon fill="#999999" stroke="#666666" points="307,-78 201,-78 201,-48 307,-48 307,-78"/>
<text text-anchor="start" x="209" y="-66" font-family="Helvetica,sans-Serif" font-size="10.00">elc::defs::core::value</text>
<text text-anchor="middle" x="254" y="-55" font-family="Helvetica,sans-Serif" font-size="10.00">::base_data_t</text>
</a>
</g>
</g>
<!-- Node4 -->
<g id="node4" class="node">
<title>Node4</title>
<g id="a_node4"><a xlink:href="structelc_1_1defs_1_1core_1_1value_1_1constexpr__data__t.html" target="_top" xlink:title=" ">
<polygon fill="white" stroke="#666666" points="449,-126 343,-126 343,-96 449,-96 449,-126"/>
<text text-anchor="start" x="351" y="-114" font-family="Helvetica,sans-Serif" font-size="10.00">elc::defs::core::value</text>
<text text-anchor="middle" x="396" y="-103" font-family="Helvetica,sans-Serif" font-size="10.00">::constexpr_data_t</text>
</a>
</g>
</g>
<!-- Node1&#45;&gt;Node4 -->
<g id="edge3" class="edge">
<title>Node1&#45;&gt;Node4</title>
<path fill="none" stroke="#63b8ff" d="M308.51,-81.35C322.63,-86.19 337.7,-91.36 351.24,-96"/>
<polygon fill="#63b8ff" stroke="#63b8ff" points="309.51,-77.99 298.91,-78.06 307.24,-84.61 309.51,-77.99"/>
</g>
<!-- Node5 -->
<g id="node5" class="node">
<title>Node5</title>
<g id="a_node5"><a xlink:href="structelc_1_1defs_1_1core_1_1value_1_1null__data__t.html" target="_top" xlink:title=" ">
<polygon fill="white" stroke="#666666" points="449,-78 343,-78 343,-48 449,-48 449,-78"/>
<text text-anchor="start" x="351" y="-66" font-family="Helvetica,sans-Serif" font-size="10.00">elc::defs::core::value</text>
<text text-anchor="middle" x="396" y="-55" font-family="Helvetica,sans-Serif" font-size="10.00">::null_data_t</text>
</a>
</g>
</g>
<!-- Node1&#45;&gt;Node5 -->
<g id="edge4" class="edge">
<title>Node1&#45;&gt;Node5</title>
<path fill="none" stroke="#63b8ff" d="M317.39,-63C325.88,-63 334.53,-63 342.83,-63"/>
<polygon fill="#63b8ff" stroke="#63b8ff" points="317.13,-59.5 307.13,-63 317.13,-66.5 317.13,-59.5"/>
</g>
<!-- Node6 -->
<g id="node6" class="node">
<title>Node6</title>
<g id="a_node6"><a xlink:href="structelc_1_1defs_1_1core_1_1value_1_1variable__data__t.html" target="_top" xlink:title=" ">
<polygon fill="white" stroke="#666666" points="449,-30 343,-30 343,0 449,0 449,-30"/>
<text text-anchor="start" x="351" y="-18" font-family="Helvetica,sans-Serif" font-size="10.00">elc::defs::core::value</text>
<text text-anchor="middle" x="396" y="-7" font-family="Helvetica,sans-Serif" font-size="10.00">::variable_data_t</text>
</a>
</g>
</g>
<!-- Node1&#45;&gt;Node6 -->
<g id="edge5" class="edge">
<title>Node1&#45;&gt;Node6</title>
<path fill="none" stroke="#63b8ff" d="M308.51,-44.65C322.63,-39.81 337.7,-34.64 351.24,-30"/>
<polygon fill="#63b8ff" stroke="#63b8ff" points="307.24,-41.39 298.91,-47.94 309.51,-48.01 307.24,-41.39"/>
</g>
<!-- Node2 -->
<g id="node2" class="node">
<title>Node2</title>
<g id="a_node2"><a xlink:title=" ">
<polygon fill="white" stroke="#666666" points="165,-127.5 0,-127.5 0,-64.5 165,-64.5 165,-127.5"/>
<text text-anchor="start" x="8" y="-115.5" font-family="Helvetica,sans-Serif" font-size="10.00">type_info_t&lt; base_data</text>
<text text-anchor="middle" x="82.5" y="-104.5" font-family="Helvetica,sans-Serif" font-size="10.00">_t &gt;:: template </text>
<text text-anchor="start" x="8" y="-93.5" font-family="Helvetica,sans-Serif" font-size="10.00">		with_common_attribute</text>
<text text-anchor="start" x="8" y="-82.5" font-family="Helvetica,sans-Serif" font-size="10.00">&lt; abstract_base, ref_able,</text>
<text text-anchor="middle" x="82.5" y="-71.5" font-family="Helvetica,sans-Serif" font-size="10.00"> never_in_array, replace_able &gt;</text>
</a>
</g>
</g>
<!-- Node2&#45;&gt;Node1 -->
<g id="edge1" class="edge">
<title>Node2&#45;&gt;Node1</title>
<path fill="none" stroke="#63b8ff" d="M175.13,-78.16C183.84,-76.46 192.46,-74.79 200.61,-73.2"/>
<polygon fill="#63b8ff" stroke="#63b8ff" points="174.42,-74.73 165.27,-80.08 175.76,-81.6 174.42,-74.73"/>
</g>
<!-- Node3 -->
<g id="node3" class="node">
<title>Node3</title>
<g id="a_node3"><a xlink:href="classelc_1_1defs_1_1base_1_1build__by__get__only.html" target="_top" xlink:title=" ">
<polygon fill="white" stroke="#666666" points="136,-46 29,-46 29,-16 136,-16 136,-46"/>
<text text-anchor="start" x="37" y="-34" font-family="Helvetica,sans-Serif" font-size="10.00">elc::defs::base::build</text>
<text text-anchor="middle" x="82.5" y="-23" font-family="Helvetica,sans-Serif" font-size="10.00">_by_get_only</text>
</a>
</g>
</g>
<!-- Node3&#45;&gt;Node1 -->
<g id="edge2" class="edge">
<title>Node3&#45;&gt;Node1</title>
<path fill="none" stroke="#63b8ff" d="M146.05,-42.81C164.09,-46.22 183.58,-49.89 200.91,-53.17"/>
<polygon fill="#63b8ff" stroke="#63b8ff" points="146.68,-39.37 136.2,-40.95 145.38,-46.24 146.68,-39.37"/>
</g>
</g>
</svg>
