<?xml version="1.0" encoding="UTF-8" standalone="no"?>
<!DOCTYPE svg PUBLIC "-//W3C//DTD SVG 1.1//EN"
 "http://www.w3.org/Graphics/SVG/1.1/DTD/svg11.dtd">
<!-- Generated by graphviz version 6.0.1 (20220911.1526)
 -->
<!-- Title: elc::defs::base::non_move_construct_able Pages: 1 -->
<svg width="624pt" height="457pt"
 viewBox="0.00 0.00 624.00 456.50" xmlns="http://www.w3.org/2000/svg" xmlns:xlink="http://www.w3.org/1999/xlink">
<g id="graph0" class="graph" transform="scale(1 1) rotate(0) translate(4 452.5)">
<title>elc::defs::base::non_move_construct_able</title>
<!-- Node1 -->
<g id="node1" class="node">
<title>Node1</title>
<g id="a_node1"><a xlink:title="禁止移动构造">
<polygon fill="#999999" stroke="#666666" points="113,-268.5 0,-268.5 0,-238.5 113,-238.5 113,-268.5"/>
<text text-anchor="start" x="8" y="-256.5" font-family="Helvetica,sans-Serif" font-size="10.00">elc::defs::base::non</text>
<text text-anchor="middle" x="56.5" y="-245.5" font-family="Helvetica,sans-Serif" font-size="10.00">_move_construct_able</text>
</a>
</g>
</g>
<!-- Node2 -->
<g id="node2" class="node">
<title>Node2</title>
<g id="a_node2"><a xlink:href="structelc_1_1defs_1_1base_1_1non__default__construct__able.html" target="_top" xlink:title="禁止默认合成的构造">
<polygon fill="white" stroke="#666666" points="268,-292.5 149,-292.5 149,-262.5 268,-262.5 268,-292.5"/>
<text text-anchor="start" x="157" y="-280.5" font-family="Helvetica,sans-Serif" font-size="10.00">elc::defs::base::non</text>
<text text-anchor="middle" x="208.5" y="-269.5" font-family="Helvetica,sans-Serif" font-size="10.00">_default_construct_able</text>
</a>
</g>
</g>
<!-- Node1&#45;&gt;Node2 -->
<g id="edge1" class="edge">
<title>Node1&#45;&gt;Node2</title>
<path fill="none" stroke="#63b8ff" d="M123.25,-264.02C131.77,-265.38 140.45,-266.77 148.84,-268.11"/>
<polygon fill="#63b8ff" stroke="#63b8ff" points="123.78,-260.56 113.35,-262.44 122.68,-267.47 123.78,-260.56"/>
</g>
<!-- Node3 -->
<g id="node3" class="node">
<title>Node3</title>
<g id="a_node3"><a xlink:href="structelc_1_1defs_1_1base_1_1non__moveable.html" target="_top" xlink:title="禁止默认合成的移动">
<polygon fill="white" stroke="#666666" points="259.5,-244.5 157.5,-244.5 157.5,-214.5 259.5,-214.5 259.5,-244.5"/>
<text text-anchor="start" x="165.5" y="-232.5" font-family="Helvetica,sans-Serif" font-size="10.00">elc::defs::base::non</text>
<text text-anchor="middle" x="208.5" y="-221.5" font-family="Helvetica,sans-Serif" font-size="10.00">_moveable</text>
</a>
</g>
</g>
<!-- Node1&#45;&gt;Node3 -->
<g id="edge2" class="edge">
<title>Node1&#45;&gt;Node3</title>
<path fill="none" stroke="#63b8ff" d="M123.56,-242.93C134.79,-241.13 146.3,-239.29 157.04,-237.57"/>
<polygon fill="#63b8ff" stroke="#63b8ff" points="122.68,-239.53 113.35,-244.56 123.78,-246.44 122.68,-239.53"/>
</g>
<!-- Node4 -->
<g id="node4" class="node">
<title>Node4</title>
<g id="a_node4"><a xlink:href="structelc_1_1defs_1_1base_1_1cons__t.html" target="_top" xlink:title=" ">
<polygon fill="white" stroke="#666666" points="433.5,-448.5 312.5,-448.5 312.5,-418.5 433.5,-418.5 433.5,-448.5"/>
<text text-anchor="start" x="320.5" y="-436.5" font-family="Helvetica,sans-Serif" font-size="10.00">elc::defs::base::cons</text>
<text text-anchor="middle" x="373" y="-425.5" font-family="Helvetica,sans-Serif" font-size="10.00">_t&lt; can_map_all&lt; T &gt; &gt;</text>
</a>
</g>
</g>
<!-- Node3&#45;&gt;Node4 -->
<g id="edge3" class="edge">
<title>Node3&#45;&gt;Node4</title>
<path fill="none" stroke="#63b8ff" d="M265.71,-251.02C266.51,-251.81 267.27,-252.64 268,-253.5 314.06,-307.73 256.59,-356.44 304,-409.5 307.09,-412.95 310.7,-415.91 314.63,-418.44"/>
<polygon fill="#63b8ff" stroke="#63b8ff" points="267.78,-248.19 257.81,-244.59 263.36,-253.62 267.78,-248.19"/>
</g>
<!-- Node6 -->
<g id="node6" class="node">
<title>Node6</title>
<g id="a_node6"><a xlink:href="structelc_1_1defs_1_1base_1_1cons__t.html" target="_top" xlink:title=" ">
<polygon fill="white" stroke="#666666" points="438,-400 308,-400 308,-359 438,-359 438,-400"/>
<text text-anchor="start" x="316" y="-388" font-family="Helvetica,sans-Serif" font-size="10.00">elc::defs::base::cons</text>
<text text-anchor="start" x="316" y="-377" font-family="Helvetica,sans-Serif" font-size="10.00">_t&lt; elc::defs::memory</text>
<text text-anchor="middle" x="373" y="-366" font-family="Helvetica,sans-Serif" font-size="10.00">::others_n::can_map_all &gt;</text>
</a>
</g>
</g>
<!-- Node3&#45;&gt;Node6 -->
<g id="edge5" class="edge">
<title>Node3&#45;&gt;Node6</title>
<path fill="none" stroke="#63b8ff" d="M265.1,-250.75C266.11,-251.63 267.08,-252.55 268,-253.5 299.73,-286.21 272.71,-316.38 304,-349.5 307.28,-352.97 311.03,-356.06 315.05,-358.82"/>
<polygon fill="#63b8ff" stroke="#63b8ff" points="266.92,-247.74 256.78,-244.66 262.78,-253.39 266.92,-247.74"/>
</g>
<!-- Node7 -->
<g id="node7" class="node">
<title>Node7</title>
<g id="a_node7"><a xlink:href="structelc_1_1defs_1_1base_1_1cons__t.html" target="_top" xlink:title=" ">
<polygon fill="white" stroke="#666666" points="426.5,-340.5 319.5,-340.5 319.5,-310.5 426.5,-310.5 426.5,-340.5"/>
<text text-anchor="start" x="327.5" y="-328.5" font-family="Helvetica,sans-Serif" font-size="10.00">elc::defs::base::cons</text>
<text text-anchor="middle" x="373" y="-317.5" font-family="Helvetica,sans-Serif" font-size="10.00">_t&lt; T &gt;</text>
</a>
</g>
</g>
<!-- Node3&#45;&gt;Node7 -->
<g id="edge6" class="edge">
<title>Node3&#45;&gt;Node7</title>
<path fill="none" stroke="#63b8ff" d="M262.47,-249.6C264.38,-250.84 266.24,-252.14 268,-253.5 289.09,-269.81 282.5,-285.72 304,-301.5 308.64,-304.91 313.81,-307.87 319.17,-310.43"/>
<polygon fill="#63b8ff" stroke="#63b8ff" points="264.16,-246.54 253.74,-244.59 260.67,-252.6 264.16,-246.54"/>
</g>
<!-- Node8 -->
<g id="node8" class="node">
<title>Node8</title>
<g id="a_node8"><a xlink:href="structelc_1_1defs_1_1base_1_1data__block.html" target="_top" xlink:title=" ">
<polygon fill="white" stroke="#666666" points="425.5,-292.5 320.5,-292.5 320.5,-262.5 425.5,-262.5 425.5,-292.5"/>
<text text-anchor="start" x="328.5" y="-280.5" font-family="Helvetica,sans-Serif" font-size="10.00">elc::defs::base::data</text>
<text text-anchor="middle" x="373" y="-269.5" font-family="Helvetica,sans-Serif" font-size="10.00">_block&lt; Ts &gt;</text>
</a>
</g>
</g>
<!-- Node3&#45;&gt;Node8 -->
<g id="edge7" class="edge">
<title>Node3&#45;&gt;Node8</title>
<path fill="none" stroke="#63b8ff" d="M269.38,-247.19C286.32,-252.19 304.59,-257.59 320.96,-262.42"/>
<polygon fill="#63b8ff" stroke="#63b8ff" points="270.16,-243.77 259.58,-244.29 268.18,-250.48 270.16,-243.77"/>
</g>
<!-- Node9 -->
<g id="node9" class="node">
<title>Node9</title>
<g id="a_node9"><a xlink:href="classelc_1_1defs_1_1base_1_1mark__able.html" target="_top" xlink:title=" ">
<polygon fill="white" stroke="#666666" points="427,-244.5 319,-244.5 319,-214.5 427,-214.5 427,-244.5"/>
<text text-anchor="start" x="327" y="-232.5" font-family="Helvetica,sans-Serif" font-size="10.00">elc::defs::base::mark</text>
<text text-anchor="middle" x="373" y="-221.5" font-family="Helvetica,sans-Serif" font-size="10.00">_able&lt; T &gt;</text>
</a>
</g>
</g>
<!-- Node3&#45;&gt;Node9 -->
<g id="edge8" class="edge">
<title>Node3&#45;&gt;Node9</title>
<path fill="none" stroke="#8b1a1a" d="M269.96,-229.5C286.06,-229.5 303.32,-229.5 318.99,-229.5"/>
<polygon fill="#8b1a1a" stroke="#8b1a1a" points="269.58,-226 259.58,-229.5 269.58,-233 269.58,-226"/>
</g>
<!-- Node11 -->
<g id="node11" class="node">
<title>Node11</title>
<g id="a_node11"><a xlink:href="structelc_1_1defs_1_1memory_1_1others__n_1_1replace__able.html" target="_top" xlink:title=" ">
<polygon fill="white" stroke="#666666" points="442,-196.5 304,-196.5 304,-166.5 442,-166.5 442,-196.5"/>
<text text-anchor="start" x="312" y="-184.5" font-family="Helvetica,sans-Serif" font-size="10.00">elc::defs::memory::</text>
<text text-anchor="middle" x="373" y="-173.5" font-family="Helvetica,sans-Serif" font-size="10.00">others_n::replace_able&lt; T &gt;</text>
</a>
</g>
</g>
<!-- Node3&#45;&gt;Node11 -->
<g id="edge10" class="edge">
<title>Node3&#45;&gt;Node11</title>
<path fill="none" stroke="#63b8ff" d="M269.38,-211.81C286.32,-206.81 304.59,-201.41 320.96,-196.58"/>
<polygon fill="#63b8ff" stroke="#63b8ff" points="268.18,-208.52 259.58,-214.71 270.16,-215.23 268.18,-208.52"/>
</g>
<!-- Node12 -->
<g id="node12" class="node">
<title>Node12</title>
<g id="a_node12"><a xlink:href="classelc_1_1defs_1_1memory_1_1ptr__n_1_1ref__t.html" target="_top" xlink:title=" ">
<polygon fill="white" stroke="#666666" points="423.5,-148.5 322.5,-148.5 322.5,-118.5 423.5,-118.5 423.5,-148.5"/>
<text text-anchor="start" x="330.5" y="-136.5" font-family="Helvetica,sans-Serif" font-size="10.00">elc::defs::memory::</text>
<text text-anchor="middle" x="373" y="-125.5" font-family="Helvetica,sans-Serif" font-size="10.00">ptr_n::ref_t</text>
</a>
</g>
</g>
<!-- Node3&#45;&gt;Node12 -->
<g id="edge11" class="edge">
<title>Node3&#45;&gt;Node12</title>
<path fill="none" stroke="#8b1a1a" d="M233.95,-207.45C252.21,-191.86 278.35,-171.35 304,-157.5 310.06,-154.23 316.65,-151.25 323.27,-148.6"/>
<polygon fill="#8b1a1a" stroke="#8b1a1a" points="231.4,-205.03 226.14,-214.22 235.99,-210.31 231.4,-205.03"/>
</g>
<!-- Node15 -->
<g id="node15" class="node">
<title>Node15</title>
<g id="a_node15"><a xlink:href="classelc_1_1defs_1_1string__n_1_1string__t_1_1arec__t.html" target="_top" xlink:title=" ">
<polygon fill="white" stroke="#666666" points="424,-100 322,-100 322,-59 424,-59 424,-100"/>
<text text-anchor="start" x="330" y="-88" font-family="Helvetica,sans-Serif" font-size="10.00">elc::defs::string_n</text>
<text text-anchor="start" x="330" y="-77" font-family="Helvetica,sans-Serif" font-size="10.00">::string_t&lt; char_T &gt;</text>
<text text-anchor="middle" x="373" y="-66" font-family="Helvetica,sans-Serif" font-size="10.00">::arec_t</text>
</a>
</g>
</g>
<!-- Node3&#45;&gt;Node15 -->
<g id="edge14" class="edge">
<title>Node3&#45;&gt;Node15</title>
<path fill="none" stroke="#8b1a1a" d="M223.32,-205.62C239.67,-179.12 269.13,-136.54 304,-109.5 309.4,-105.31 315.49,-101.57 321.73,-98.27"/>
<polygon fill="#8b1a1a" stroke="#8b1a1a" points="220.27,-203.9 218.09,-214.27 226.26,-207.52 220.27,-203.9"/>
</g>
<!-- Node16 -->
<g id="node16" class="node">
<title>Node16</title>
<g id="a_node16"><a xlink:href="classelc_1_1defs_1_1string__n_1_1string__t_1_1floating__arec__t.html" target="_top" xlink:title=" ">
<polygon fill="white" stroke="#666666" points="424,-41 322,-41 322,0 424,0 424,-41"/>
<text text-anchor="start" x="330" y="-29" font-family="Helvetica,sans-Serif" font-size="10.00">elc::defs::string_n</text>
<text text-anchor="start" x="330" y="-18" font-family="Helvetica,sans-Serif" font-size="10.00">::string_t&lt; char_T &gt;</text>
<text text-anchor="middle" x="373" y="-7" font-family="Helvetica,sans-Serif" font-size="10.00">::floating_arec_t</text>
</a>
</g>
</g>
<!-- Node3&#45;&gt;Node16 -->
<g id="edge15" class="edge">
<title>Node3&#45;&gt;Node16</title>
<path fill="none" stroke="#8b1a1a" d="M216.63,-204.51C228.7,-166.31 256.58,-93.26 304,-49.5 309.19,-44.71 315.29,-40.64 321.66,-37.21"/>
<polygon fill="#8b1a1a" stroke="#8b1a1a" points="213.21,-203.71 213.64,-214.3 219.91,-205.76 213.21,-203.71"/>
</g>
<!-- Node5 -->
<g id="node5" class="node">
<title>Node5</title>
<g id="a_node5"><a xlink:href="structelc_1_1defs_1_1memory_1_1others__n_1_1can__map__all.html" target="_top" xlink:title=" ">
<polygon fill="white" stroke="#666666" points="616,-448.5 478,-448.5 478,-418.5 616,-418.5 616,-448.5"/>
<text text-anchor="start" x="486" y="-436.5" font-family="Helvetica,sans-Serif" font-size="10.00">elc::defs::memory::</text>
<text text-anchor="middle" x="547" y="-425.5" font-family="Helvetica,sans-Serif" font-size="10.00">others_n::can_map_all&lt; T &gt;</text>
</a>
</g>
</g>
<!-- Node4&#45;&gt;Node5 -->
<g id="edge4" class="edge">
<title>Node4&#45;&gt;Node5</title>
<path fill="none" stroke="#63b8ff" d="M443.86,-433.5C455.08,-433.5 466.69,-433.5 477.88,-433.5"/>
<polygon fill="#63b8ff" stroke="#63b8ff" points="443.67,-430 433.67,-433.5 443.67,-437 443.67,-430"/>
</g>
<!-- Node10 -->
<g id="node10" class="node">
<title>Node10</title>
<g id="a_node10"><a xlink:href="structelc_1_1defs_1_1memory_1_1gc__n_1_1mark__able__for__gc.html" target="_top" xlink:title=" ">
<polygon fill="white" stroke="#666666" points="599,-250 495,-250 495,-209 599,-209 599,-250"/>
<text text-anchor="start" x="503" y="-238" font-family="Helvetica,sans-Serif" font-size="10.00">elc::defs::memory::</text>
<text text-anchor="start" x="503" y="-227" font-family="Helvetica,sans-Serif" font-size="10.00">gc_n::mark_able_for</text>
<text text-anchor="middle" x="547" y="-216" font-family="Helvetica,sans-Serif" font-size="10.00">_gc&lt; T &gt;</text>
</a>
</g>
</g>
<!-- Node9&#45;&gt;Node10 -->
<g id="edge9" class="edge">
<title>Node9&#45;&gt;Node10</title>
<path fill="none" stroke="#63b8ff" d="M437.09,-229.5C456.13,-229.5 476.78,-229.5 494.93,-229.5"/>
<polygon fill="#63b8ff" stroke="#63b8ff" points="437.01,-226 427.01,-229.5 437.01,-233 437.01,-226"/>
</g>
<!-- Node13 -->
<g id="node13" class="node">
<title>Node13</title>
<g id="a_node13"><a xlink:href="classelc_1_1defs_1_1memory_1_1ptr__n_1_1ref__able.html" target="_top" xlink:title=" ">
<polygon fill="white" stroke="#666666" points="597.5,-169.5 496.5,-169.5 496.5,-139.5 597.5,-139.5 597.5,-169.5"/>
<text text-anchor="start" x="504.5" y="-157.5" font-family="Helvetica,sans-Serif" font-size="10.00">elc::defs::memory::</text>
<text text-anchor="middle" x="547" y="-146.5" font-family="Helvetica,sans-Serif" font-size="10.00">ptr_n::ref_able&lt; T &gt;</text>
</a>
</g>
</g>
<!-- Node12&#45;&gt;Node13 -->
<g id="edge12" class="edge">
<title>Node12&#45;&gt;Node13</title>
<path fill="none" stroke="#63b8ff" d="M433.88,-140.81C454.28,-143.3 476.85,-146.06 496.36,-148.44"/>
<polygon fill="#63b8ff" stroke="#63b8ff" points="434.1,-137.31 423.75,-139.57 433.25,-144.26 434.1,-137.31"/>
</g>
<!-- Node14 -->
<g id="node14" class="node">
<title>Node14</title>
<g id="a_node14"><a xlink:href="classelc_1_1defs_1_1memory_1_1ptr__n_1_1weak__ref__able.html" target="_top" xlink:title=" ">
<polygon fill="white" stroke="#666666" points="611.5,-121.5 482.5,-121.5 482.5,-91.5 611.5,-91.5 611.5,-121.5"/>
<text text-anchor="start" x="490.5" y="-109.5" font-family="Helvetica,sans-Serif" font-size="10.00">elc::defs::memory::</text>
<text text-anchor="middle" x="547" y="-98.5" font-family="Helvetica,sans-Serif" font-size="10.00">ptr_n::weak_ref_able&lt; T &gt;</text>
</a>
</g>
</g>
<!-- Node12&#45;&gt;Node14 -->
<g id="edge13" class="edge">
<title>Node12&#45;&gt;Node14</title>
<path fill="none" stroke="#63b8ff" d="M433.82,-124.11C449.47,-121.65 466.4,-119 482.24,-116.51"/>
<polygon fill="#63b8ff" stroke="#63b8ff" points="433.09,-120.68 423.75,-125.69 434.17,-127.6 433.09,-120.68"/>
</g>
</g>
</svg>
