<?xml version="1.0" encoding="UTF-8" standalone="no"?>
<!DOCTYPE svg PUBLIC "-//W3C//DTD SVG 1.1//EN"
 "http://www.w3.org/Graphics/SVG/1.1/DTD/svg11.dtd">
<!-- Generated by graphviz version 6.0.1 (20220911.1526)
 -->
<!-- Title: elc::defs::string_n::string_t::operator&lt;=&gt; Pages: 1 -->
<svg width="252pt" height="86pt"
 viewBox="0.00 0.00 252.00 86.00" xmlns="http://www.w3.org/2000/svg" xmlns:xlink="http://www.w3.org/1999/xlink">
<g id="graph0" class="graph" transform="scale(1 1) rotate(0) translate(4 82)">
<title>elc::defs::string_n::string_t::operator&lt;=&gt;</title>
<!-- Node1 -->
<g id="node1" class="node">
<title>Node1</title>
<g id="a_node1"><a xlink:title=" ">
<polygon fill="#999999" stroke="#666666" points="114,-54 0,-54 0,-24 114,-24 114,-54"/>
<text text-anchor="start" x="8" y="-42" font-family="Helvetica,sans-Serif" font-size="10.00">elc::defs::string_n</text>
<text text-anchor="middle" x="57" y="-31" font-family="Helvetica,sans-Serif" font-size="10.00">::string_t::operator&lt;=&gt;</text>
</a>
</g>
</g>
<!-- Node2 -->
<g id="node2" class="node">
<title>Node2</title>
<g id="a_node2"><a xlink:href="structelc_1_1defs_1_1string__n_1_1string__t.html#a27e68dbdadd6b0d42a5a794b6d4107e4" target="_top" xlink:title=" ">
<polygon fill="white" stroke="#666666" points="244,-78 150,-78 150,-48 244,-48 244,-78"/>
<text text-anchor="start" x="158" y="-66" font-family="Helvetica,sans-Serif" font-size="10.00">elc::defs::string_n</text>
<text text-anchor="middle" x="197" y="-55" font-family="Helvetica,sans-Serif" font-size="10.00">::string_t::data</text>
</a>
</g>
</g>
<!-- Node1&#45;&gt;Node2 -->
<g id="edge1" class="edge">
<title>Node1&#45;&gt;Node2</title>
<path fill="none" stroke="#63b8ff" d="M114.13,-48.76C122.51,-50.22 131.16,-51.72 139.55,-53.18"/>
<polygon fill="#63b8ff" stroke="#63b8ff" points="139.16,-56.67 149.62,-54.93 140.36,-49.77 139.16,-56.67"/>
</g>
<!-- Node3 -->
<g id="node3" class="node">
<title>Node3</title>
<g id="a_node3"><a xlink:href="structelc_1_1defs_1_1string__n_1_1string__t.html#a0e8ed3f8eb3c1ca049b494100580fa5c" target="_top" xlink:title=" ">
<polygon fill="white" stroke="#666666" points="244,-30 150,-30 150,0 244,0 244,-30"/>
<text text-anchor="start" x="158" y="-18" font-family="Helvetica,sans-Serif" font-size="10.00">elc::defs::string_n</text>
<text text-anchor="middle" x="197" y="-7" font-family="Helvetica,sans-Serif" font-size="10.00">::string_t::size</text>
</a>
</g>
</g>
<!-- Node1&#45;&gt;Node3 -->
<g id="edge2" class="edge">
<title>Node1&#45;&gt;Node3</title>
<path fill="none" stroke="#63b8ff" d="M114.13,-29.24C122.51,-27.78 131.16,-26.28 139.55,-24.82"/>
<polygon fill="#63b8ff" stroke="#63b8ff" points="140.36,-28.23 149.62,-23.07 139.16,-21.33 140.36,-28.23"/>
</g>
</g>
</svg>
