<?xml version="1.0" encoding="UTF-8" standalone="no"?>
<!DOCTYPE svg PUBLIC "-//W3C//DTD SVG 1.1//EN"
 "http://www.w3.org/Graphics/SVG/1.1/DTD/svg11.dtd">
<!-- Generated by graphviz version 6.0.1 (20220911.1526)
 -->
<!-- Title: elc::defs::memory::others_n::can_map_all&lt; T &gt; Pages: 1 -->
<svg width="613pt" height="182pt"
 viewBox="0.00 0.00 613.00 182.00" xmlns="http://www.w3.org/2000/svg" xmlns:xlink="http://www.w3.org/1999/xlink">
<g id="graph0" class="graph" transform="scale(1 1) rotate(0) translate(4 178)">
<title>elc::defs::memory::others_n::can_map_all&lt; T &gt;</title>
<!-- Node1 -->
<g id="node1" class="node">
<title>Node1</title>
<g id="a_node1"><a xlink:title=" ">
<polygon fill="#999999" stroke="#666666" points="605,-54 467,-54 467,-24 605,-24 605,-54"/>
<text text-anchor="start" x="475" y="-42" font-family="Helvetica,sans-Serif" font-size="10.00">elc::defs::memory::</text>
<text text-anchor="middle" x="536" y="-31" font-family="Helvetica,sans-Serif" font-size="10.00">others_n::can_map_all&lt; T &gt;</text>
</a>
</g>
</g>
<!-- Node2 -->
<g id="node2" class="node">
<title>Node2</title>
<g id="a_node2"><a xlink:href="structelc_1_1defs_1_1base_1_1cons__t.html" target="_top" xlink:title=" ">
<polygon fill="white" stroke="#666666" points="429.5,-78 308.5,-78 308.5,-48 429.5,-48 429.5,-78"/>
<text text-anchor="start" x="316.5" y="-66" font-family="Helvetica,sans-Serif" font-size="10.00">elc::defs::base::cons</text>
<text text-anchor="middle" x="369" y="-55" font-family="Helvetica,sans-Serif" font-size="10.00">_t&lt; can_map_all&lt; T &gt; &gt;</text>
</a>
</g>
</g>
<!-- Node2&#45;&gt;Node1 -->
<g id="edge1" class="edge">
<title>Node2&#45;&gt;Node1</title>
<path fill="none" stroke="#63b8ff" d="M439.62,-52.87C448.63,-51.56 457.85,-50.22 466.83,-48.92"/>
<polygon fill="#63b8ff" stroke="#63b8ff" points="438.96,-49.43 429.57,-54.34 439.97,-56.36 438.96,-49.43"/>
</g>
<!-- Node3 -->
<g id="node3" class="node">
<title>Node3</title>
<g id="a_node3"><a xlink:href="structelc_1_1defs_1_1base_1_1non__copyable.html" target="_top" xlink:title=" ">
<polygon fill="white" stroke="#666666" points="261,-126 159,-126 159,-96 261,-96 261,-126"/>
<text text-anchor="start" x="167" y="-114" font-family="Helvetica,sans-Serif" font-size="10.00">elc::defs::base::non</text>
<text text-anchor="middle" x="210" y="-103" font-family="Helvetica,sans-Serif" font-size="10.00">_copyable</text>
</a>
</g>
</g>
<!-- Node3&#45;&gt;Node2 -->
<g id="edge2" class="edge">
<title>Node3&#45;&gt;Node2</title>
<path fill="none" stroke="#63b8ff" d="M270.09,-92.93C286.19,-88.01 303.45,-82.73 318.93,-78"/>
<polygon fill="#63b8ff" stroke="#63b8ff" points="268.78,-89.67 260.25,-95.94 270.83,-96.37 268.78,-89.67"/>
</g>
<!-- Node4 -->
<g id="node4" class="node">
<title>Node4</title>
<g id="a_node4"><a xlink:href="structelc_1_1defs_1_1base_1_1non__copy__assign__able.html" target="_top" xlink:title=" ">
<polygon fill="white" stroke="#666666" points="107.5,-174 5.5,-174 5.5,-144 107.5,-144 107.5,-174"/>
<text text-anchor="start" x="13.5" y="-162" font-family="Helvetica,sans-Serif" font-size="10.00">elc::defs::base::non</text>
<text text-anchor="middle" x="56.5" y="-151" font-family="Helvetica,sans-Serif" font-size="10.00">_copy_assign_able</text>
</a>
</g>
</g>
<!-- Node4&#45;&gt;Node3 -->
<g id="edge3" class="edge">
<title>Node4&#45;&gt;Node3</title>
<path fill="none" stroke="#63b8ff" d="M114.96,-140.79C130.37,-135.91 146.86,-130.69 161.65,-126"/>
<polygon fill="#63b8ff" stroke="#63b8ff" points="113.5,-137.59 105.02,-143.94 115.61,-144.26 113.5,-137.59"/>
</g>
<!-- Node5 -->
<g id="node5" class="node">
<title>Node5</title>
<g id="a_node5"><a xlink:href="structelc_1_1defs_1_1base_1_1non__copy__construct__able.html" target="_top" xlink:title=" ">
<polygon fill="white" stroke="#666666" points="112.5,-126 0.5,-126 0.5,-96 112.5,-96 112.5,-126"/>
<text text-anchor="start" x="8.5" y="-114" font-family="Helvetica,sans-Serif" font-size="10.00">elc::defs::base::non</text>
<text text-anchor="middle" x="56.5" y="-103" font-family="Helvetica,sans-Serif" font-size="10.00">_copy_construct_able</text>
</a>
</g>
</g>
<!-- Node5&#45;&gt;Node3 -->
<g id="edge4" class="edge">
<title>Node5&#45;&gt;Node3</title>
<path fill="none" stroke="#63b8ff" d="M122.65,-111C134.72,-111 147.15,-111 158.7,-111"/>
<polygon fill="#63b8ff" stroke="#63b8ff" points="122.62,-107.5 112.62,-111 122.62,-114.5 122.62,-107.5"/>
</g>
<!-- Node6 -->
<g id="node6" class="node">
<title>Node6</title>
<g id="a_node6"><a xlink:href="structelc_1_1defs_1_1base_1_1non__moveable.html" target="_top" xlink:title=" ">
<polygon fill="white" stroke="#666666" points="261,-78 159,-78 159,-48 261,-48 261,-78"/>
<text text-anchor="start" x="167" y="-66" font-family="Helvetica,sans-Serif" font-size="10.00">elc::defs::base::non</text>
<text text-anchor="middle" x="210" y="-55" font-family="Helvetica,sans-Serif" font-size="10.00">_moveable</text>
</a>
</g>
</g>
<!-- Node6&#45;&gt;Node2 -->
<g id="edge5" class="edge">
<title>Node6&#45;&gt;Node2</title>
<path fill="none" stroke="#63b8ff" d="M271.21,-63C283.44,-63 296.29,-63 308.5,-63"/>
<polygon fill="#63b8ff" stroke="#63b8ff" points="271.11,-59.5 261.11,-63 271.11,-66.5 271.11,-59.5"/>
</g>
<!-- Node7 -->
<g id="node7" class="node">
<title>Node7</title>
<g id="a_node7"><a xlink:href="structelc_1_1defs_1_1base_1_1non__move__assign__able.html" target="_top" xlink:title=" ">
<polygon fill="white" stroke="#666666" points="107.5,-78 5.5,-78 5.5,-48 107.5,-48 107.5,-78"/>
<text text-anchor="start" x="13.5" y="-66" font-family="Helvetica,sans-Serif" font-size="10.00">elc::defs::base::non</text>
<text text-anchor="middle" x="56.5" y="-55" font-family="Helvetica,sans-Serif" font-size="10.00">_move_assign_able</text>
</a>
</g>
</g>
<!-- Node7&#45;&gt;Node6 -->
<g id="edge6" class="edge">
<title>Node7&#45;&gt;Node6</title>
<path fill="none" stroke="#63b8ff" d="M117.76,-63C131.35,-63 145.64,-63 158.77,-63"/>
<polygon fill="#63b8ff" stroke="#63b8ff" points="117.53,-59.5 107.53,-63 117.53,-66.5 117.53,-59.5"/>
</g>
<!-- Node8 -->
<g id="node8" class="node">
<title>Node8</title>
<g id="a_node8"><a xlink:href="structelc_1_1defs_1_1base_1_1non__move__construct__able.html" target="_top" xlink:title=" ">
<polygon fill="white" stroke="#666666" points="113,-30 0,-30 0,0 113,0 113,-30"/>
<text text-anchor="start" x="8" y="-18" font-family="Helvetica,sans-Serif" font-size="10.00">elc::defs::base::non</text>
<text text-anchor="middle" x="56.5" y="-7" font-family="Helvetica,sans-Serif" font-size="10.00">_move_construct_able</text>
</a>
</g>
</g>
<!-- Node8&#45;&gt;Node6 -->
<g id="edge7" class="edge">
<title>Node8&#45;&gt;Node6</title>
<path fill="none" stroke="#63b8ff" d="M114.96,-33.21C130.37,-38.09 146.86,-43.31 161.65,-48"/>
<polygon fill="#63b8ff" stroke="#63b8ff" points="115.61,-29.74 105.02,-30.06 113.5,-36.41 115.61,-29.74"/>
</g>
<!-- Node9 -->
<g id="node9" class="node">
<title>Node9</title>
<g id="a_node9"><a xlink:href="structelc_1_1defs_1_1base_1_1attribute.html" target="_top" xlink:title=" ">
<polygon fill="white" stroke="#666666" points="271,-30 149,-30 149,0 271,0 271,-30"/>
<text text-anchor="start" x="157" y="-18" font-family="Helvetica,sans-Serif" font-size="10.00">elc::defs::base::attribute</text>
<text text-anchor="middle" x="210" y="-7" font-family="Helvetica,sans-Serif" font-size="10.00">&lt; T, attribute_name &gt;</text>
</a>
</g>
</g>
<!-- Node9&#45;&gt;Node2 -->
<g id="edge8" class="edge">
<title>Node9&#45;&gt;Node2</title>
<path fill="none" stroke="#63b8ff" d="M270.09,-33.07C286.19,-37.99 303.45,-43.27 318.93,-48"/>
<polygon fill="#63b8ff" stroke="#63b8ff" points="270.83,-29.63 260.25,-30.06 268.78,-36.33 270.83,-29.63"/>
</g>
<!-- Node10 -->
<g id="node10" class="node">
<title>Node10</title>
<g id="a_node10"><a xlink:href="structelc_1_1defs_1_1base_1_1attribute.html" target="_top" xlink:title=" ">
<polygon fill="white" stroke="#666666" points="431,-30 307,-30 307,0 431,0 431,-30"/>
<text text-anchor="start" x="315" y="-18" font-family="Helvetica,sans-Serif" font-size="10.00">elc::defs::base::attribute</text>
<text text-anchor="middle" x="369" y="-7" font-family="Helvetica,sans-Serif" font-size="10.00">&lt; T, can_map_all&lt; T &gt; &gt;</text>
</a>
</g>
</g>
<!-- Node10&#45;&gt;Node1 -->
<g id="edge9" class="edge">
<title>Node10&#45;&gt;Node1</title>
<path fill="none" stroke="#63b8ff" d="M441.58,-25.41C449.97,-26.63 458.51,-27.87 466.85,-29.09"/>
<polygon fill="#63b8ff" stroke="#63b8ff" points="441.84,-21.91 431.44,-23.94 440.83,-28.84 441.84,-21.91"/>
</g>
</g>
</svg>
