<?xml version="1.0" encoding="UTF-8" standalone="no"?>
<!DOCTYPE svg PUBLIC "-//W3C//DTD SVG 1.1//EN"
 "http://www.w3.org/Graphics/SVG/1.1/DTD/svg11.dtd">
<!-- Generated by graphviz version 6.0.1 (20220911.1526)
 -->
<!-- Title: elc::defs::core::value::null_data_t Pages: 1 -->
<svg width="458pt" height="120pt"
 viewBox="0.00 0.00 458.00 119.50" xmlns="http://www.w3.org/2000/svg" xmlns:xlink="http://www.w3.org/1999/xlink">
<g id="graph0" class="graph" transform="scale(1 1) rotate(0) translate(4 115.5)">
<title>elc::defs::core::value::null_data_t</title>
<!-- Node1 -->
<g id="node1" class="node">
<title>Node1</title>
<g id="a_node1"><a xlink:title=" ">
<polygon fill="#999999" stroke="#666666" points="450,-86 344,-86 344,-56 450,-56 450,-86"/>
<text text-anchor="start" x="352" y="-74" font-family="Helvetica,sans-Serif" font-size="10.00">elc::defs::core::value</text>
<text text-anchor="middle" x="397" y="-63" font-family="Helvetica,sans-Serif" font-size="10.00">::null_data_t</text>
</a>
</g>
</g>
<!-- Node2 -->
<g id="node2" class="node">
<title>Node2</title>
<g id="a_node2"><a xlink:title=" ">
<polygon fill="white" stroke="#666666" points="308,-110 201,-110 201,-80 308,-80 308,-110"/>
<text text-anchor="start" x="209" y="-98" font-family="Helvetica,sans-Serif" font-size="10.00">instance_struct&lt; null</text>
<text text-anchor="middle" x="254.5" y="-87" font-family="Helvetica,sans-Serif" font-size="10.00">_data_t &gt;</text>
</a>
</g>
</g>
<!-- Node2&#45;&gt;Node1 -->
<g id="edge1" class="edge">
<title>Node2&#45;&gt;Node1</title>
<path fill="none" stroke="#63b8ff" d="M318.2,-84.29C326.8,-82.82 335.55,-81.33 343.92,-79.9"/>
<polygon fill="#63b8ff" stroke="#63b8ff" points="317.48,-80.86 308.22,-86 318.66,-87.76 317.48,-80.86"/>
</g>
<!-- Node3 -->
<g id="node3" class="node">
<title>Node3</title>
<g id="a_node3"><a xlink:href="structelc_1_1defs_1_1core_1_1value_1_1base__data__t.html" target="_top" xlink:title=" ">
<polygon fill="white" stroke="#666666" points="307.5,-62 201.5,-62 201.5,-32 307.5,-32 307.5,-62"/>
<text text-anchor="start" x="209.5" y="-50" font-family="Helvetica,sans-Serif" font-size="10.00">elc::defs::core::value</text>
<text text-anchor="middle" x="254.5" y="-39" font-family="Helvetica,sans-Serif" font-size="10.00">::base_data_t</text>
</a>
</g>
</g>
<!-- Node3&#45;&gt;Node1 -->
<g id="edge2" class="edge">
<title>Node3&#45;&gt;Node1</title>
<path fill="none" stroke="#63b8ff" d="M317.83,-57.65C326.45,-59.12 335.23,-60.62 343.64,-62.06"/>
<polygon fill="#63b8ff" stroke="#63b8ff" points="318.26,-54.17 307.82,-55.94 317.08,-61.07 318.26,-54.17"/>
</g>
<!-- Node4 -->
<g id="node4" class="node">
<title>Node4</title>
<g id="a_node4"><a xlink:title=" ">
<polygon fill="white" stroke="#666666" points="165,-111.5 0,-111.5 0,-48.5 165,-48.5 165,-111.5"/>
<text text-anchor="start" x="8" y="-99.5" font-family="Helvetica,sans-Serif" font-size="10.00">type_info_t&lt; base_data</text>
<text text-anchor="middle" x="82.5" y="-88.5" font-family="Helvetica,sans-Serif" font-size="10.00">_t &gt;:: template </text>
<text text-anchor="start" x="8" y="-77.5" font-family="Helvetica,sans-Serif" font-size="10.00">		with_common_attribute</text>
<text text-anchor="start" x="8" y="-66.5" font-family="Helvetica,sans-Serif" font-size="10.00">&lt; abstract_base, ref_able,</text>
<text text-anchor="middle" x="82.5" y="-55.5" font-family="Helvetica,sans-Serif" font-size="10.00"> never_in_array, replace_able &gt;</text>
</a>
</g>
</g>
<!-- Node4&#45;&gt;Node3 -->
<g id="edge3" class="edge">
<title>Node4&#45;&gt;Node3</title>
<path fill="none" stroke="#63b8ff" d="M175.08,-62.22C183.98,-60.5 192.78,-58.79 201.09,-57.17"/>
<polygon fill="#63b8ff" stroke="#63b8ff" points="174.16,-58.84 165.01,-64.18 175.5,-65.71 174.16,-58.84"/>
</g>
<!-- Node5 -->
<g id="node5" class="node">
<title>Node5</title>
<g id="a_node5"><a xlink:href="classelc_1_1defs_1_1base_1_1build__by__get__only.html" target="_top" xlink:title=" ">
<polygon fill="white" stroke="#666666" points="136,-30 29,-30 29,0 136,0 136,-30"/>
<text text-anchor="start" x="37" y="-18" font-family="Helvetica,sans-Serif" font-size="10.00">elc::defs::base::build</text>
<text text-anchor="middle" x="82.5" y="-7" font-family="Helvetica,sans-Serif" font-size="10.00">_by_get_only</text>
</a>
</g>
</g>
<!-- Node5&#45;&gt;Node3 -->
<g id="edge4" class="edge">
<title>Node5&#45;&gt;Node3</title>
<path fill="none" stroke="#63b8ff" d="M146.24,-26.81C164.33,-30.22 183.88,-33.89 201.26,-37.17"/>
<polygon fill="#63b8ff" stroke="#63b8ff" points="146.83,-23.36 136.36,-24.95 145.54,-30.24 146.83,-23.36"/>
</g>
</g>
</svg>
