<?xml version="1.0" encoding="UTF-8" standalone="no"?>
<!DOCTYPE svg PUBLIC "-//W3C//DTD SVG 1.1//EN"
 "http://www.w3.org/Graphics/SVG/1.1/DTD/svg11.dtd">
<!-- Generated by graphviz version 6.0.1 (20220911.1526)
 -->
<!-- Title: elc::defs::string_n::string_data_n::base_string_data_t&lt; char_T &gt; Pages: 1 -->
<svg width="515pt" height="178pt"
 viewBox="0.00 0.00 515.00 178.00" xmlns="http://www.w3.org/2000/svg" xmlns:xlink="http://www.w3.org/1999/xlink">
<g id="graph0" class="graph" transform="scale(1 1) rotate(0) translate(4 174)">
<title>elc::defs::string_n::string_data_n::base_string_data_t&lt; char_T &gt;</title>
<!-- Node1 -->
<g id="node1" class="node">
<title>Node1</title>
<g id="a_node1"><a xlink:title=" ">
<polygon fill="#999999" stroke="#666666" points="507,-83.5 382,-83.5 382,-42.5 507,-42.5 507,-83.5"/>
<text text-anchor="start" x="390" y="-71.5" font-family="Helvetica,sans-Serif" font-size="10.00">elc::defs::string_n</text>
<text text-anchor="start" x="390" y="-60.5" font-family="Helvetica,sans-Serif" font-size="10.00">::string_data_n::base</text>
<text text-anchor="middle" x="444.5" y="-49.5" font-family="Helvetica,sans-Serif" font-size="10.00">_string_data_t&lt; char_T &gt;</text>
</a>
</g>
</g>
<!-- Node2 -->
<g id="node2" class="node">
<title>Node2</title>
<g id="a_node2"><a xlink:title=" ">
<polygon fill="white" stroke="#666666" points="285,-170 0,-170 0,-96 285,-96 285,-170"/>
<text text-anchor="start" x="8" y="-158" font-family="Helvetica,sans-Serif" font-size="10.00">type_info_t&lt; base_string</text>
<text text-anchor="start" x="8" y="-147" font-family="Helvetica,sans-Serif" font-size="10.00">_data_t&lt; char_T &gt; &gt;:: template</text>
<text text-anchor="middle" x="142.5" y="-136" font-family="Helvetica,sans-Serif" font-size="10.00"> </text>
<text text-anchor="start" x="8" y="-125" font-family="Helvetica,sans-Serif" font-size="10.00">							with_common_attribute</text>
<text text-anchor="start" x="8" y="-114" font-family="Helvetica,sans-Serif" font-size="10.00">&lt; abstract_base, never_in_array,</text>
<text text-anchor="middle" x="142.5" y="-103" font-family="Helvetica,sans-Serif" font-size="10.00"> replace_able, ref_able &gt;</text>
</a>
</g>
</g>
<!-- Node2&#45;&gt;Node1 -->
<g id="edge1" class="edge">
<title>Node2&#45;&gt;Node1</title>
<path fill="none" stroke="#63b8ff" d="M295.12,-97.62C325.83,-90.46 356.44,-83.31 381.82,-77.39"/>
<polygon fill="#63b8ff" stroke="#63b8ff" points="294.1,-94.27 285.15,-99.95 295.69,-101.08 294.1,-94.27"/>
</g>
<!-- Node3 -->
<g id="node3" class="node">
<title>Node3</title>
<g id="a_node3"><a xlink:href="classelc_1_1defs_1_1base_1_1build__by__get__only.html" target="_top" xlink:title=" ">
<polygon fill="white" stroke="#666666" points="196,-78 89,-78 89,-48 196,-48 196,-78"/>
<text text-anchor="start" x="97" y="-66" font-family="Helvetica,sans-Serif" font-size="10.00">elc::defs::base::build</text>
<text text-anchor="middle" x="142.5" y="-55" font-family="Helvetica,sans-Serif" font-size="10.00">_by_get_only</text>
</a>
</g>
</g>
<!-- Node3&#45;&gt;Node1 -->
<g id="edge2" class="edge">
<title>Node3&#45;&gt;Node1</title>
<path fill="none" stroke="#63b8ff" d="M206.13,-63C257.74,-63 330.55,-63 381.89,-63"/>
<polygon fill="#63b8ff" stroke="#63b8ff" points="206.1,-59.5 196.1,-63 206.1,-66.5 206.1,-59.5"/>
</g>
<!-- Node4 -->
<g id="node4" class="node">
<title>Node4</title>
<g id="a_node4"><a xlink:href="structelc_1_1defs_1_1base_1_1hash__n_1_1hash__value__t.html" target="_top" xlink:title=" ">
<polygon fill="white" stroke="#666666" points="196,-30 89,-30 89,0 196,0 196,-30"/>
<text text-anchor="start" x="97" y="-18" font-family="Helvetica,sans-Serif" font-size="10.00">elc::defs::base::hash</text>
<text text-anchor="middle" x="142.5" y="-7" font-family="Helvetica,sans-Serif" font-size="10.00">_n::hash_value_t</text>
</a>
</g>
</g>
<!-- Node4&#45;&gt;Node1 -->
<g id="edge3" class="edge">
<title>Node4&#45;&gt;Node1</title>
<path fill="none" stroke="#9a32cd" stroke-dasharray="5,2" d="M206.18,-23.73C250.36,-30.05 310.89,-39.02 364,-48 369.82,-48.98 375.86,-50.05 381.91,-51.14"/>
<polygon fill="#9a32cd" stroke="#9a32cd" points="206.55,-20.25 196.16,-22.31 205.57,-27.18 206.55,-20.25"/>
<text text-anchor="middle" x="333.5" y="-51" font-family="Helvetica,sans-Serif" font-size="10.00"> _hash_cache</text>
</g>
</g>
</svg>
