<?xml version="1.0" encoding="UTF-8" standalone="no"?>
<!DOCTYPE svg PUBLIC "-//W3C//DTD SVG 1.1//EN"
 "http://www.w3.org/Graphics/SVG/1.1/DTD/svg11.dtd">
<!-- Generated by graphviz version 6.0.1 (20220911.1526)
 -->
<!-- Title: elc::defs::container::function_n::base_func_data_t&lt; Ret_t(Args_t...)&gt; Pages: 1 -->
<svg width="483pt" height="125pt"
 viewBox="0.00 0.00 483.00 125.00" xmlns="http://www.w3.org/2000/svg" xmlns:xlink="http://www.w3.org/1999/xlink">
<g id="graph0" class="graph" transform="scale(1 1) rotate(0) translate(4 121)">
<title>elc::defs::container::function_n::base_func_data_t&lt; Ret_t(Args_t...)&gt;</title>
<!-- Node1 -->
<g id="node1" class="node">
<title>Node1</title>
<g id="a_node1"><a xlink:title=" ">
<polygon fill="#999999" stroke="#666666" points="311,-73 180,-73 180,-32 311,-32 311,-73"/>
<text text-anchor="start" x="188" y="-61" font-family="Helvetica,sans-Serif" font-size="10.00">elc::defs::container</text>
<text text-anchor="start" x="188" y="-50" font-family="Helvetica,sans-Serif" font-size="10.00">::function_n::base_func</text>
<text text-anchor="middle" x="245.5" y="-39" font-family="Helvetica,sans-Serif" font-size="10.00">_data_t&lt; Ret_t(Args_t...)&gt;</text>
</a>
</g>
</g>
<!-- Node4 -->
<g id="node4" class="node">
<title>Node4</title>
<g id="a_node4"><a xlink:href="structelc_1_1defs_1_1container_1_1function__n_1_1default__func__data__t_3_01_ret__t_07_args__t_8_8_8_08_4.html" target="_top" xlink:title=" ">
<polygon fill="white" stroke="#666666" points="475,-111.5 347,-111.5 347,-59.5 475,-59.5 475,-111.5"/>
<text text-anchor="start" x="355" y="-99.5" font-family="Helvetica,sans-Serif" font-size="10.00">elc::defs::container</text>
<text text-anchor="start" x="355" y="-88.5" font-family="Helvetica,sans-Serif" font-size="10.00">::function_n::default</text>
<text text-anchor="start" x="355" y="-77.5" font-family="Helvetica,sans-Serif" font-size="10.00">_func_data_t&lt; Ret_t(Args</text>
<text text-anchor="middle" x="411" y="-66.5" font-family="Helvetica,sans-Serif" font-size="10.00">_t...)&gt;</text>
</a>
</g>
</g>
<!-- Node1&#45;&gt;Node4 -->
<g id="edge3" class="edge">
<title>Node1&#45;&gt;Node4</title>
<path fill="none" stroke="#63b8ff" d="M321.16,-67.57C329.77,-69.31 338.48,-71.07 346.92,-72.77"/>
<polygon fill="#63b8ff" stroke="#63b8ff" points="321.61,-64.09 311.12,-65.54 320.23,-70.95 321.61,-64.09"/>
</g>
<!-- Node5 -->
<g id="node5" class="node">
<title>Node5</title>
<g id="a_node5"><a xlink:href="structelc_1_1defs_1_1container_1_1function__n_1_1func__data__t_3_01_t_00_01_ret__t_07_args__t_8_8_8_08_4.html" target="_top" xlink:title=" ">
<polygon fill="white" stroke="#666666" points="470,-41 352,-41 352,0 470,0 470,-41"/>
<text text-anchor="start" x="360" y="-29" font-family="Helvetica,sans-Serif" font-size="10.00">elc::defs::container</text>
<text text-anchor="start" x="360" y="-18" font-family="Helvetica,sans-Serif" font-size="10.00">::function_n::func_data</text>
<text text-anchor="middle" x="411" y="-7" font-family="Helvetica,sans-Serif" font-size="10.00">_t&lt; T, Ret_t(Args_t...)&gt;</text>
</a>
</g>
</g>
<!-- Node1&#45;&gt;Node5 -->
<g id="edge4" class="edge">
<title>Node1&#45;&gt;Node5</title>
<path fill="none" stroke="#63b8ff" d="M321,-37.92C331.39,-35.89 341.93,-33.82 351.95,-31.86"/>
<polygon fill="#63b8ff" stroke="#63b8ff" points="320.26,-34.5 311.12,-39.85 321.61,-41.37 320.26,-34.5"/>
</g>
<!-- Node2 -->
<g id="node2" class="node">
<title>Node2</title>
<g id="a_node2"><a xlink:title=" ">
<polygon fill="white" stroke="#666666" points="144,-117 0,-117 0,-54 144,-54 144,-117"/>
<text text-anchor="start" x="8" y="-105" font-family="Helvetica,sans-Serif" font-size="10.00">type_info_t&lt; base_func</text>
<text text-anchor="start" x="8" y="-94" font-family="Helvetica,sans-Serif" font-size="10.00">_data_t&lt; Ret_t(Args_t...)</text>
<text text-anchor="start" x="8" y="-83" font-family="Helvetica,sans-Serif" font-size="10.00">&gt; &gt;:: template &#160;with_common</text>
<text text-anchor="start" x="8" y="-72" font-family="Helvetica,sans-Serif" font-size="10.00">_attribute&lt; abstract_base,</text>
<text text-anchor="middle" x="72" y="-61" font-family="Helvetica,sans-Serif" font-size="10.00"> ref_able, never_in_array &gt;</text>
</a>
</g>
</g>
<!-- Node2&#45;&gt;Node1 -->
<g id="edge1" class="edge">
<title>Node2&#45;&gt;Node1</title>
<path fill="none" stroke="#63b8ff" d="M154.25,-69.87C162.82,-68.22 171.44,-66.56 179.79,-64.95"/>
<polygon fill="#63b8ff" stroke="#63b8ff" points="153.4,-66.47 144.24,-71.79 154.72,-73.34 153.4,-66.47"/>
</g>
<!-- Node3 -->
<g id="node3" class="node">
<title>Node3</title>
<g id="a_node3"><a xlink:href="classelc_1_1defs_1_1base_1_1build__by__get__only.html" target="_top" xlink:title=" ">
<polygon fill="white" stroke="#666666" points="125.5,-35.5 18.5,-35.5 18.5,-5.5 125.5,-5.5 125.5,-35.5"/>
<text text-anchor="start" x="26.5" y="-23.5" font-family="Helvetica,sans-Serif" font-size="10.00">elc::defs::base::build</text>
<text text-anchor="middle" x="72" y="-12.5" font-family="Helvetica,sans-Serif" font-size="10.00">_by_get_only</text>
</a>
</g>
</g>
<!-- Node3&#45;&gt;Node1 -->
<g id="edge2" class="edge">
<title>Node3&#45;&gt;Node1</title>
<path fill="none" stroke="#63b8ff" d="M136.04,-32.26C150.28,-34.92 165.42,-37.74 179.73,-40.41"/>
<polygon fill="#63b8ff" stroke="#63b8ff" points="136.33,-28.76 125.86,-30.36 135.04,-35.64 136.33,-28.76"/>
</g>
</g>
</svg>
