<?xml version="1.0" encoding="UTF-8" standalone="no"?>
<!DOCTYPE svg PUBLIC "-//W3C//DTD SVG 1.1//EN"
 "http://www.w3.org/Graphics/SVG/1.1/DTD/svg11.dtd">
<!-- Generated by graphviz version 6.0.1 (20220911.1526)
 -->
<!-- Title: elc::defs::base::type_name_t::copy_demangle Pages: 1 -->
<svg width="309pt" height="98pt"
 viewBox="0.00 0.00 309.00 97.50" xmlns="http://www.w3.org/2000/svg" xmlns:xlink="http://www.w3.org/1999/xlink">
<g id="graph0" class="graph" transform="scale(1 1) rotate(0) translate(4 93.5)">
<title>elc::defs::base::type_name_t::copy_demangle</title>
<!-- Node1 -->
<g id="node1" class="node">
<title>Node1</title>
<g id="a_node1"><a xlink:title="复制重整结果">
<polygon fill="#999999" stroke="#666666" points="128,-62.5 0,-62.5 0,-32.5 128,-32.5 128,-62.5"/>
<text text-anchor="start" x="8" y="-50.5" font-family="Helvetica,sans-Serif" font-size="10.00">elc::defs::base::type</text>
<text text-anchor="middle" x="64" y="-39.5" font-family="Helvetica,sans-Serif" font-size="10.00">_name_t::copy_demangle</text>
</a>
</g>
</g>
<!-- Node2 -->
<g id="node2" class="node">
<title>Node2</title>
<g id="a_node2"><a xlink:href="structelc_1_1defs_1_1base_1_1string__view__n_1_1string__view__t.html#afa30357641e2ff7ecadeaa3011f8fa53" target="_top" xlink:title=" ">
<polygon fill="white" stroke="#666666" points="301,-89.5 164,-89.5 164,-59.5 301,-59.5 301,-89.5"/>
<text text-anchor="start" x="172" y="-77.5" font-family="Helvetica,sans-Serif" font-size="10.00">elc::defs::base::string</text>
<text text-anchor="middle" x="232.5" y="-66.5" font-family="Helvetica,sans-Serif" font-size="10.00">_view_n::string_view_t::data</text>
</a>
</g>
</g>
<!-- Node1&#45;&gt;Node2 -->
<g id="edge1" class="edge">
<title>Node1&#45;&gt;Node2</title>
<path fill="none" stroke="#63b8ff" d="M128.42,-57.78C136.74,-59.13 145.35,-60.53 153.87,-61.91"/>
<polygon fill="#63b8ff" stroke="#63b8ff" points="153.39,-65.38 163.82,-63.53 154.51,-58.47 153.39,-65.38"/>
</g>
<!-- Node3 -->
<g id="node3" class="node">
<title>Node3</title>
<g id="a_node3"><a xlink:href="structelc_1_1defs_1_1base_1_1array__like__n_1_1array__like__view__t.html#a117c302e797b7abf98c037211c3a1753" target="_top" xlink:title=" ">
<polygon fill="white" stroke="#666666" points="292,-41 173,-41 173,0 292,0 292,-41"/>
<text text-anchor="start" x="181" y="-29" font-family="Helvetica,sans-Serif" font-size="10.00">elc::defs::base::array</text>
<text text-anchor="start" x="181" y="-18" font-family="Helvetica,sans-Serif" font-size="10.00">_like_n::array_like_view</text>
<text text-anchor="middle" x="232.5" y="-7" font-family="Helvetica,sans-Serif" font-size="10.00">_t::size</text>
</a>
</g>
</g>
<!-- Node1&#45;&gt;Node3 -->
<g id="edge2" class="edge">
<title>Node1&#45;&gt;Node3</title>
<path fill="none" stroke="#63b8ff" d="M128.42,-37.22C139.72,-35.38 151.54,-33.47 162.98,-31.61"/>
<polygon fill="#63b8ff" stroke="#63b8ff" points="163.6,-35.06 172.91,-30 162.48,-28.15 163.6,-35.06"/>
</g>
</g>
</svg>
