<?xml version="1.0" encoding="UTF-8" standalone="no"?>
<!DOCTYPE svg PUBLIC "-//W3C//DTD SVG 1.1//EN"
 "http://www.w3.org/Graphics/SVG/1.1/DTD/svg11.dtd">
<!-- Generated by graphviz version 6.0.1 (20220911.1526)
 -->
<!-- Title: elc::defs::memory::get_n::get_forward_resize_t::base_call Pages: 1 -->
<svg width="413pt" height="144pt"
 viewBox="0.00 0.00 413.00 144.00" xmlns="http://www.w3.org/2000/svg" xmlns:xlink="http://www.w3.org/1999/xlink">
<g id="graph0" class="graph" transform="scale(1 1) rotate(0) translate(4 140)">
<title>elc::defs::memory::get_n::get_forward_resize_t::base_call</title>
<!-- Node1 -->
<g id="node1" class="node">
<title>Node1</title>
<g id="a_node1"><a xlink:title=" ">
<polygon fill="#999999" stroke="#666666" points="128,-79 0,-79 0,-38 128,-38 128,-79"/>
<text text-anchor="start" x="8" y="-67" font-family="Helvetica,sans-Serif" font-size="10.00">elc::defs::memory::</text>
<text text-anchor="start" x="8" y="-56" font-family="Helvetica,sans-Serif" font-size="10.00">get_n::get_forward_resize</text>
<text text-anchor="middle" x="64" y="-45" font-family="Helvetica,sans-Serif" font-size="10.00">_t::base_call</text>
</a>
</g>
</g>
<!-- Node2 -->
<g id="node2" class="node">
<title>Node2</title>
<g id="a_node2"><a xlink:href="namespaceelc_1_1defs_1_1memory_1_1get__n.html#a7c74be8ab8b9c29fb3ba00941808499a" target="_top" xlink:title="向前减小数据块大小并转移原有实例的生命周期，但并不析构旧的实例">
<polygon fill="white" stroke="#666666" points="267,-118 164,-118 164,-77 267,-77 267,-118"/>
<text text-anchor="start" x="172" y="-106" font-family="Helvetica,sans-Serif" font-size="10.00">elc::defs::memory::</text>
<text text-anchor="start" x="172" y="-95" font-family="Helvetica,sans-Serif" font-size="10.00">get_n::forward_alloc</text>
<text text-anchor="middle" x="215.5" y="-84" font-family="Helvetica,sans-Serif" font-size="10.00">_size_cut</text>
</a>
</g>
</g>
<!-- Node1&#45;&gt;Node2 -->
<g id="edge1" class="edge">
<title>Node1&#45;&gt;Node2</title>
<path fill="none" stroke="#63b8ff" d="M128.4,-75.04C136.87,-77.25 145.53,-79.51 153.95,-81.7"/>
<polygon fill="#63b8ff" stroke="#63b8ff" points="153.12,-85.11 163.68,-84.24 154.89,-78.33 153.12,-85.11"/>
</g>
<!-- Node4 -->
<g id="node4" class="node">
<title>Node4</title>
<g id="a_node4"><a xlink:href="namespaceelc_1_1defs_1_1memory_1_1get__n.html#afdcf942befe9ac401b133e08e2f72609" target="_top" xlink:title="向前扩大数据块大小并转移原有实例的生命周期，但并不构造新的实例">
<polygon fill="white" stroke="#666666" points="267,-41 164,-41 164,0 267,0 267,-41"/>
<text text-anchor="start" x="172" y="-29" font-family="Helvetica,sans-Serif" font-size="10.00">elc::defs::memory::</text>
<text text-anchor="start" x="172" y="-18" font-family="Helvetica,sans-Serif" font-size="10.00">get_n::forward_alloc</text>
<text text-anchor="middle" x="215.5" y="-7" font-family="Helvetica,sans-Serif" font-size="10.00">_size_grow</text>
</a>
</g>
</g>
<!-- Node1&#45;&gt;Node4 -->
<g id="edge4" class="edge">
<title>Node1&#45;&gt;Node4</title>
<path fill="none" stroke="#63b8ff" d="M128.4,-42.38C136.87,-40.23 145.53,-38.03 153.95,-35.89"/>
<polygon fill="#63b8ff" stroke="#63b8ff" points="154.85,-39.27 163.68,-33.42 153.13,-32.49 154.85,-39.27"/>
</g>
<!-- Node2&#45;&gt;Node2 -->
<g id="edge3" class="edge">
<title>Node2&#45;&gt;Node2</title>
<path fill="none" stroke="#63b8ff" d="M190.04,-118.1C187.27,-127.65 195.75,-136 215.5,-136 227.53,-136 235.38,-132.9 239.05,-128.32"/>
<polygon fill="#63b8ff" stroke="#63b8ff" points="242.57,-128.57 240.96,-118.1 235.69,-127.29 242.57,-128.57"/>
</g>
<!-- Node3 -->
<g id="node3" class="node">
<title>Node3</title>
<g id="a_node3"><a xlink:href="namespaceelc_1_1defs_1_1base.html#aae9be6874a7dd367db08a9a6e1d65639" target="_top" xlink:title="对值追加const">
<polygon fill="white" stroke="#666666" points="405,-73.5 303,-73.5 303,-43.5 405,-43.5 405,-73.5"/>
<text text-anchor="start" x="311" y="-61.5" font-family="Helvetica,sans-Serif" font-size="10.00">elc::defs::base::add</text>
<text text-anchor="middle" x="354" y="-50.5" font-family="Helvetica,sans-Serif" font-size="10.00">_const</text>
</a>
</g>
</g>
<!-- Node2&#45;&gt;Node3 -->
<g id="edge2" class="edge">
<title>Node2&#45;&gt;Node3</title>
<path fill="none" stroke="#63b8ff" d="M267.33,-82.98C275.61,-80.61 284.26,-78.14 292.74,-75.72"/>
<polygon fill="#63b8ff" stroke="#63b8ff" points="293.93,-79.02 302.58,-72.9 292.01,-72.29 293.93,-79.02"/>
</g>
<!-- Node4&#45;&gt;Node3 -->
<g id="edge5" class="edge">
<title>Node4&#45;&gt;Node3</title>
<path fill="none" stroke="#63b8ff" d="M267.33,-34.65C275.61,-36.96 284.26,-39.36 292.74,-41.72"/>
<polygon fill="#63b8ff" stroke="#63b8ff" points="292.01,-45.15 302.58,-44.46 293.89,-38.41 292.01,-45.15"/>
</g>
<!-- Node4&#45;&gt;Node4 -->
<g id="edge6" class="edge">
<title>Node4&#45;&gt;Node4</title>
<path fill="none" stroke="#63b8ff" d="M190.04,-41.1C187.27,-50.65 195.75,-59 215.5,-59 227.53,-59 235.38,-55.9 239.05,-51.32"/>
<polygon fill="#63b8ff" stroke="#63b8ff" points="242.57,-51.57 240.96,-41.1 235.69,-50.29 242.57,-51.57"/>
</g>
</g>
</svg>
