<?xml version="1.0" encoding="UTF-8" standalone="no"?>
<!DOCTYPE svg PUBLIC "-//W3C//DTD SVG 1.1//EN"
 "http://www.w3.org/Graphics/SVG/1.1/DTD/svg11.dtd">
<!-- Generated by graphviz version 6.0.1 (20220911.1526)
 -->
<!-- Title: elc::defs::string_n::string_t::operator== Pages: 1 -->
<svg width="250pt" height="98pt"
 viewBox="0.00 0.00 250.00 97.50" xmlns="http://www.w3.org/2000/svg" xmlns:xlink="http://www.w3.org/1999/xlink">
<g id="graph0" class="graph" transform="scale(1 1) rotate(0) translate(4 93.5)">
<title>elc::defs::string_n::string_t::operator==</title>
<!-- Node1 -->
<g id="node1" class="node">
<title>Node1</title>
<g id="a_node1"><a xlink:title=" ">
<polygon fill="#999999" stroke="#666666" points="108,-62.5 0,-62.5 0,-32.5 108,-32.5 108,-62.5"/>
<text text-anchor="start" x="8" y="-50.5" font-family="Helvetica,sans-Serif" font-size="10.00">elc::defs::string_n</text>
<text text-anchor="middle" x="54" y="-39.5" font-family="Helvetica,sans-Serif" font-size="10.00">::string_t::operator==</text>
</a>
</g>
</g>
<!-- Node2 -->
<g id="node2" class="node">
<title>Node2</title>
<g id="a_node2"><a xlink:href="structelc_1_1defs_1_1string__n_1_1string__t.html#a0e8ed3f8eb3c1ca049b494100580fa5c" target="_top" xlink:title=" ">
<polygon fill="white" stroke="#666666" points="240,-89.5 146,-89.5 146,-59.5 240,-59.5 240,-89.5"/>
<text text-anchor="start" x="154" y="-77.5" font-family="Helvetica,sans-Serif" font-size="10.00">elc::defs::string_n</text>
<text text-anchor="middle" x="193" y="-66.5" font-family="Helvetica,sans-Serif" font-size="10.00">::string_t::size</text>
</a>
</g>
</g>
<!-- Node1&#45;&gt;Node2 -->
<g id="edge1" class="edge">
<title>Node1&#45;&gt;Node2</title>
<path fill="none" stroke="#63b8ff" d="M108.36,-58.02C117.31,-59.78 126.63,-61.62 135.65,-63.4"/>
<polygon fill="#63b8ff" stroke="#63b8ff" points="135.2,-66.87 145.68,-65.37 136.55,-60 135.2,-66.87"/>
</g>
<!-- Node3 -->
<g id="node3" class="node">
<title>Node3</title>
<g id="a_node3"><a xlink:href="structelc_1_1defs_1_1string__n_1_1string__t.html#aeef82d670836d68d65c361dc35cd528c" target="_top" xlink:title=" ">
<polygon fill="white" stroke="#666666" points="242,-41 144,-41 144,0 242,0 242,-41"/>
<text text-anchor="start" x="152" y="-29" font-family="Helvetica,sans-Serif" font-size="10.00">elc::defs::string_n</text>
<text text-anchor="start" x="152" y="-18" font-family="Helvetica,sans-Serif" font-size="10.00">::string_t::to_string</text>
<text text-anchor="middle" x="193" y="-7" font-family="Helvetica,sans-Serif" font-size="10.00">_view_t</text>
</a>
</g>
</g>
<!-- Node1&#45;&gt;Node3 -->
<g id="edge2" class="edge">
<title>Node1&#45;&gt;Node3</title>
<path fill="none" stroke="#63b8ff" d="M108.36,-36.98C116.78,-35.32 125.53,-33.6 134.05,-31.92"/>
<polygon fill="#63b8ff" stroke="#63b8ff" points="134.79,-35.34 143.92,-29.98 133.43,-28.48 134.79,-35.34"/>
</g>
</g>
</svg>
