<?xml version="1.0" encoding="UTF-8" standalone="no"?>
<!DOCTYPE svg PUBLIC "-//W3C//DTD SVG 1.1//EN"
 "http://www.w3.org/Graphics/SVG/1.1/DTD/svg11.dtd">
<!-- Generated by graphviz version 6.0.1 (20220911.1526)
 -->
<!-- Title: elc::defs::base::base_type_info_t::operator== Pages: 1 -->
<svg width="288pt" height="194pt"
 viewBox="0.00 0.00 288.00 194.00" xmlns="http://www.w3.org/2000/svg" xmlns:xlink="http://www.w3.org/1999/xlink">
<g id="graph0" class="graph" transform="scale(1 1) rotate(0) translate(4 190)">
<title>elc::defs::base::base_type_info_t::operator==</title>
<!-- Node1 -->
<g id="node1" class="node">
<title>Node1</title>
<g id="a_node1"><a xlink:title=" ">
<polygon fill="#999999" stroke="#666666" points="280,-111 158,-111 158,-81 280,-81 280,-111"/>
<text text-anchor="start" x="166" y="-99" font-family="Helvetica,sans-Serif" font-size="10.00">elc::defs::base::base</text>
<text text-anchor="middle" x="219" y="-88" font-family="Helvetica,sans-Serif" font-size="10.00">_type_info_t::operator==</text>
</a>
</g>
</g>
<!-- Node2 -->
<g id="node2" class="node">
<title>Node2</title>
<g id="a_node2"><a xlink:href="structelc_1_1defs_1_1core_1_1common__node.html#a24cfb8da8925898961901f0acec4a12e" target="_top" xlink:title=" ">
<polygon fill="white" stroke="#666666" points="122,-186 0,-186 0,-156 122,-156 122,-186"/>
<text text-anchor="start" x="8" y="-174" font-family="Helvetica,sans-Serif" font-size="10.00">elc::defs::core::common</text>
<text text-anchor="middle" x="61" y="-163" font-family="Helvetica,sans-Serif" font-size="10.00">_node::equal_with</text>
</a>
</g>
</g>
<!-- Node1&#45;&gt;Node2 -->
<g id="edge1" class="edge">
<title>Node1&#45;&gt;Node2</title>
<path fill="none" stroke="#63b8ff" d="M182.55,-116.01C164.63,-125.82 142.41,-137.53 122,-147 115.38,-150.07 108.26,-153.13 101.31,-155.98"/>
<polygon fill="#63b8ff" stroke="#63b8ff" points="184.43,-118.97 191.49,-111.07 181.05,-112.84 184.43,-118.97"/>
</g>
<!-- Node3 -->
<g id="node3" class="node">
<title>Node3</title>
<g id="a_node3"><a xlink:href="structelc_1_1defs_1_1core_1_1cons.html#a3693b54b2d49cb7329868940357be9e3" target="_top" xlink:title=" ">
<polygon fill="white" stroke="#666666" points="113.5,-138 8.5,-138 8.5,-108 113.5,-108 113.5,-138"/>
<text text-anchor="start" x="16.5" y="-126" font-family="Helvetica,sans-Serif" font-size="10.00">elc::defs::core::cons</text>
<text text-anchor="middle" x="61" y="-115" font-family="Helvetica,sans-Serif" font-size="10.00">::equal_with</text>
</a>
</g>
</g>
<!-- Node1&#45;&gt;Node3 -->
<g id="edge2" class="edge">
<title>Node1&#45;&gt;Node3</title>
<path fill="none" stroke="#63b8ff" d="M147.67,-108.17C136.18,-110.16 124.46,-112.19 113.53,-114.08"/>
<polygon fill="#63b8ff" stroke="#63b8ff" points="148.43,-111.59 157.69,-106.44 147.24,-104.7 148.43,-111.59"/>
</g>
<!-- Node4 -->
<g id="node4" class="node">
<title>Node4</title>
<g id="a_node4"><a xlink:href="structelc_1_1defs_1_1core_1_1base__binary__function__node.html#a0218a539bda95f3c16d05e79c7490482" target="_top" xlink:title=" ">
<polygon fill="white" stroke="#666666" points="117.5,-89.5 4.5,-89.5 4.5,-48.5 117.5,-48.5 117.5,-89.5"/>
<text text-anchor="start" x="12.5" y="-77.5" font-family="Helvetica,sans-Serif" font-size="10.00">elc::defs::core::base</text>
<text text-anchor="start" x="12.5" y="-66.5" font-family="Helvetica,sans-Serif" font-size="10.00">_binary_function_node</text>
<text text-anchor="middle" x="61" y="-55.5" font-family="Helvetica,sans-Serif" font-size="10.00">::equal_with</text>
</a>
</g>
</g>
<!-- Node1&#45;&gt;Node4 -->
<g id="edge3" class="edge">
<title>Node1&#45;&gt;Node4</title>
<path fill="none" stroke="#63b8ff" d="M147.68,-83.83C137.58,-82.08 127.31,-80.3 117.56,-78.62"/>
<polygon fill="#63b8ff" stroke="#63b8ff" points="147.24,-87.3 157.69,-85.56 148.43,-80.41 147.24,-87.3"/>
</g>
<!-- Node5 -->
<g id="node5" class="node">
<title>Node5</title>
<g id="a_node5"><a xlink:href="structelc_1_1defs_1_1base_1_1type__info__t.html#a4c08bb9d2622f81746a0bab013b9a647" target="_top" xlink:title=" ">
<polygon fill="white" stroke="#666666" points="113.5,-30 8.5,-30 8.5,0 113.5,0 113.5,-30"/>
<text text-anchor="start" x="16.5" y="-18" font-family="Helvetica,sans-Serif" font-size="10.00">elc::defs::base::type</text>
<text text-anchor="middle" x="61" y="-7" font-family="Helvetica,sans-Serif" font-size="10.00">_info_t::operator==</text>
</a>
</g>
</g>
<!-- Node1&#45;&gt;Node5 -->
<g id="edge4" class="edge">
<title>Node1&#45;&gt;Node5</title>
<path fill="none" stroke="#63b8ff" d="M185.48,-75.58C167.17,-64.44 143.68,-50.78 122,-40 115.13,-36.58 107.67,-33.22 100.43,-30.12"/>
<polygon fill="#63b8ff" stroke="#63b8ff" points="183.67,-78.57 194.03,-80.81 187.33,-72.6 183.67,-78.57"/>
</g>
</g>
</svg>
