<?xml version="1.0" encoding="UTF-8" standalone="no"?>
<!DOCTYPE svg PUBLIC "-//W3C//DTD SVG 1.1//EN"
 "http://www.w3.org/Graphics/SVG/1.1/DTD/svg11.dtd">
<!-- Generated by graphviz version 6.0.1 (20220911.1526)
 -->
<!-- Title: elc::defs::core::base_constexpr_t Pages: 1 -->
<svg width="604pt" height="108pt"
 viewBox="0.00 0.00 604.00 108.00" xmlns="http://www.w3.org/2000/svg" xmlns:xlink="http://www.w3.org/1999/xlink">
<g id="graph0" class="graph" transform="scale(1 1) rotate(0) translate(4 104)">
<title>elc::defs::core::base_constexpr_t</title>
<!-- Node1 -->
<g id="node1" class="node">
<title>Node1</title>
<g id="a_node1"><a xlink:title=" ">
<polygon fill="#999999" stroke="#666666" points="451,-61.5 346,-61.5 346,-31.5 451,-31.5 451,-61.5"/>
<text text-anchor="start" x="354" y="-49.5" font-family="Helvetica,sans-Serif" font-size="10.00">elc::defs::core::base</text>
<text text-anchor="middle" x="398.5" y="-38.5" font-family="Helvetica,sans-Serif" font-size="10.00">_constexpr_t</text>
</a>
</g>
</g>
<!-- Node5 -->
<g id="node5" class="node">
<title>Node5</title>
<g id="a_node5"><a xlink:href="structelc_1_1defs_1_1core_1_1nil__t.html" target="_top" xlink:title=" ">
<polygon fill="white" stroke="#666666" points="592.5,-93 490.5,-93 490.5,-74 592.5,-74 592.5,-93"/>
<text text-anchor="middle" x="541.5" y="-81" font-family="Helvetica,sans-Serif" font-size="10.00">elc::defs::core::nil_t</text>
</a>
</g>
</g>
<!-- Node1&#45;&gt;Node5 -->
<g id="edge4" class="edge">
<title>Node1&#45;&gt;Node5</title>
<path fill="none" stroke="#63b8ff" d="M461.25,-62.7C475.93,-66.56 491.13,-70.54 504.23,-73.98"/>
<polygon fill="#63b8ff" stroke="#63b8ff" points="461.76,-59.22 451.2,-60.07 459.99,-65.99 461.76,-59.22"/>
</g>
<!-- Node6 -->
<g id="node6" class="node">
<title>Node6</title>
<g id="a_node6"><a xlink:href="structelc_1_1defs_1_1core_1_1t__t.html" target="_top" xlink:title=" ">
<polygon fill="white" stroke="#666666" points="589,-56 494,-56 494,-37 589,-37 589,-56"/>
<text text-anchor="middle" x="541.5" y="-44" font-family="Helvetica,sans-Serif" font-size="10.00">elc::defs::core::t_t</text>
</a>
</g>
</g>
<!-- Node1&#45;&gt;Node6 -->
<g id="edge5" class="edge">
<title>Node1&#45;&gt;Node6</title>
<path fill="none" stroke="#63b8ff" d="M461.52,-46.5C472.41,-46.5 483.56,-46.5 493.94,-46.5"/>
<polygon fill="#63b8ff" stroke="#63b8ff" points="461.2,-43 451.2,-46.5 461.2,-50 461.2,-43"/>
</g>
<!-- Node7 -->
<g id="node7" class="node">
<title>Node7</title>
<g id="a_node7"><a xlink:href="structelc_1_1defs_1_1core_1_1void__t.html" target="_top" xlink:title=" ">
<polygon fill="white" stroke="#666666" points="596,-19 487,-19 487,0 596,0 596,-19"/>
<text text-anchor="middle" x="541.5" y="-7" font-family="Helvetica,sans-Serif" font-size="10.00">elc::defs::core::void_t</text>
</a>
</g>
</g>
<!-- Node1&#45;&gt;Node7 -->
<g id="edge6" class="edge">
<title>Node1&#45;&gt;Node7</title>
<path fill="none" stroke="#63b8ff" d="M461.25,-30.3C475.93,-26.44 491.13,-22.46 504.23,-19.02"/>
<polygon fill="#63b8ff" stroke="#63b8ff" points="459.99,-27.01 451.2,-32.93 461.76,-33.78 459.99,-27.01"/>
</g>
<!-- Node2 -->
<g id="node2" class="node">
<title>Node2</title>
<g id="a_node2"><a xlink:href="structelc_1_1defs_1_1core_1_1node__like.html" target="_top" xlink:title=" ">
<polygon fill="white" stroke="#666666" points="310,-78 185,-78 185,-59 310,-59 310,-78"/>
<text text-anchor="middle" x="247.5" y="-66" font-family="Helvetica,sans-Serif" font-size="10.00">elc::defs::core::node_like</text>
</a>
</g>
</g>
<!-- Node2&#45;&gt;Node1 -->
<g id="edge1" class="edge">
<title>Node2&#45;&gt;Node1</title>
<path fill="none" stroke="#63b8ff" d="M320.46,-57.88C329.07,-56.6 337.72,-55.33 345.97,-54.11"/>
<polygon fill="#63b8ff" stroke="#63b8ff" points="319.78,-54.44 310.39,-59.36 320.8,-61.36 319.78,-54.44"/>
</g>
<!-- Node3 -->
<g id="node3" class="node">
<title>Node3</title>
<g id="a_node3"><a xlink:title=" ">
<polygon fill="white" stroke="#666666" points="149,-100 0,-100 0,-37 149,-37 149,-100"/>
<text text-anchor="start" x="8" y="-88" font-family="Helvetica,sans-Serif" font-size="10.00">type_info_t&lt; node_like</text>
<text text-anchor="middle" x="74.5" y="-77" font-family="Helvetica,sans-Serif" font-size="10.00"> &gt;:: template </text>
<text text-anchor="start" x="8" y="-66" font-family="Helvetica,sans-Serif" font-size="10.00">	with_common_attribute</text>
<text text-anchor="start" x="8" y="-55" font-family="Helvetica,sans-Serif" font-size="10.00">&lt; abstract_base, weak_ref</text>
<text text-anchor="middle" x="74.5" y="-44" font-family="Helvetica,sans-Serif" font-size="10.00">_able, replace_able, ref_able &gt;</text>
</a>
</g>
</g>
<!-- Node3&#45;&gt;Node2 -->
<g id="edge2" class="edge">
<title>Node3&#45;&gt;Node2</title>
<path fill="none" stroke="#63b8ff" d="M159.15,-68.5C167.81,-68.5 176.5,-68.5 184.86,-68.5"/>
<polygon fill="#63b8ff" stroke="#63b8ff" points="159.01,-65 149.01,-68.5 159.01,-72 159.01,-65"/>
</g>
<!-- Node4 -->
<g id="node4" class="node">
<title>Node4</title>
<g id="a_node4"><a xlink:title=" ">
<polygon fill="white" stroke="#666666" points="304,-40.5 191,-40.5 191,-10.5 304,-10.5 304,-40.5"/>
<text text-anchor="start" x="199" y="-28.5" font-family="Helvetica,sans-Serif" font-size="10.00">instance_struct&lt; base</text>
<text text-anchor="middle" x="247.5" y="-17.5" font-family="Helvetica,sans-Serif" font-size="10.00">_constexpr_t &gt;</text>
</a>
</g>
</g>
<!-- Node4&#45;&gt;Node1 -->
<g id="edge3" class="edge">
<title>Node4&#45;&gt;Node1</title>
<path fill="none" stroke="#63b8ff" d="M314.37,-34.78C324.87,-36.26 335.6,-37.78 345.71,-39.2"/>
<polygon fill="#63b8ff" stroke="#63b8ff" points="314.8,-31.31 304.41,-33.38 313.82,-38.24 314.8,-31.31"/>
</g>
</g>
</svg>
