<?xml version="1.0" encoding="UTF-8" standalone="no"?>
<!DOCTYPE svg PUBLIC "-//W3C//DTD SVG 1.1//EN"
 "http://www.w3.org/Graphics/SVG/1.1/DTD/svg11.dtd">
<!-- Generated by graphviz version 6.0.1 (20220911.1526)
 -->
<!-- Title: elc::APIs::alloc::source_location_info_t::file Pages: 1 -->
<!--zoomable 144 -->
<svg id="main" version="1.1" xmlns="http://www.w3.org/2000/svg" xmlns:xlink="http://www.w3.org/1999/xlink" xml:space="preserve" onload="init(evt)">
<style type="text/css"><![CDATA[
.edge:hover path { stroke: red; }
.edge:hover polygon { stroke: red; fill: red; }
]]></style>
<script type="text/javascript"><![CDATA[
var edges = document.getElementsByTagName('g');
if (edges && edges.length) {
  for (var i=0;i<edges.length;i++) {
    if (edges[i].id.substr(0,4)=='edge') {
      edges[i].setAttribute('class','edge');
    }
  }
}
]]></script>
        <defs>
                <circle id="rim" cx="0" cy="0" r="7"/>
                <circle id="rim2" cx="0" cy="0" r="3.5"/>
                <g id="zoomPlus">
                        <use xlink:href="#rim" fill="#404040">
                                <set attributeName="fill" to="#808080" begin="zoomplus.mouseover" end="zoomplus.mouseout"/>
                        </use>
                        <path d="M-4,0h8M0,-4v8" fill="none" stroke="white" stroke-width="1.5" pointer-events="none"/>
                </g>
                <g id="zoomMin">
                        <use xlink:href="#rim" fill="#404040">
                                <set attributeName="fill" to="#808080" begin="zoomminus.mouseover" end="zoomminus.mouseout"/>
                        </use>
                        <path d="M-4,0h8" fill="none" stroke="white" stroke-width="1.5" pointer-events="none"/>
                </g>
                <g id="dirArrow">
                        <path fill="none" stroke="white" stroke-width="1.5" d="M0,-3.0v7 M-2.5,-0.5L0,-3.0L2.5,-0.5"/>
                </g>
               <g id="resetDef">
                       <use xlink:href="#rim2" fill="#404040">
                               <set attributeName="fill" to="#808080" begin="reset.mouseover" end="reset.mouseout"/>
                       </use>
               </g>
        </defs>

<script type="text/javascript">
var viewWidth = 591;
var viewHeight = 144;
var sectionId = 'dynsection-0';
</script>
<script xlink:href="svgpan.js"/>
<svg id="graph" class="graph">
<g id="viewport">
<title>elc::APIs::alloc::source_location_info_t::file</title>
<!-- Node1 -->
<g id="node1" class="node">
<title>Node1</title>
<g id="a_node1"><a xlink:title=" ">
<polygon fill="#999999" stroke="#666666" points="583,-73.5 465,-73.5 465,-43.5 583,-43.5 583,-73.5"/>
<text text-anchor="start" x="473" y="-61.5" font-family="Helvetica,sans-Serif" font-size="10.00">elc::APIs::alloc::source</text>
<text text-anchor="middle" x="524" y="-50.5" font-family="Helvetica,sans-Serif" font-size="10.00">_location_info_t::file</text>
</a>
</g>
</g>
<!-- Node2 -->
<g id="node2" class="node">
<title>Node2</title>
<g id="a_node2"><a xlink:href="namespaceelc_1_1_a_p_is_1_1alloc.html#af1389f594af5ccc37accd580df042dd3" target="_top" xlink:title=" ">
<polygon fill="white" stroke="#666666" points="429,-103.5 310,-103.5 310,-73.5 429,-73.5 429,-103.5"/>
<text text-anchor="start" x="318" y="-91.5" font-family="Helvetica,sans-Serif" font-size="10.00">elc::APIs::alloc::aligned</text>
<text text-anchor="middle" x="369.5" y="-80.5" font-family="Helvetica,sans-Serif" font-size="10.00">_alloc</text>
</a>
</g>
</g>
<!-- Node1&#45;&gt;Node2 -->
<g id="edge1" class="edge">
<title>Node1&#45;&gt;Node2</title>
<path fill="none" stroke="#63b8ff" d="M454.92,-71.89C446.34,-73.58 437.61,-75.3 429.19,-76.96"/>
<polygon fill="#63b8ff" stroke="#63b8ff" points="455.77,-75.29 464.91,-69.93 454.42,-68.42 455.77,-75.29"/>
</g>
<!-- Node5 -->
<g id="node5" class="node">
<title>Node5</title>
<g id="a_node5"><a xlink:href="namespaceelc_1_1_a_p_is_1_1alloc.html#af68837cedb7d0167128e99014d1f836c" target="_top" xlink:title=" ">
<polygon fill="white" stroke="#666666" points="428,-47 311,-47 311,-28 428,-28 428,-47"/>
<text text-anchor="middle" x="369.5" y="-35" font-family="Helvetica,sans-Serif" font-size="10.00">elc::APIs::alloc::realloc</text>
</a>
</g>
</g>
<!-- Node1&#45;&gt;Node5 -->
<g id="edge7" class="edge">
<title>Node1&#45;&gt;Node5</title>
<path fill="none" stroke="#63b8ff" d="M454.92,-49.13C445.99,-47.9 436.91,-46.64 428.17,-45.44"/>
<polygon fill="#63b8ff" stroke="#63b8ff" points="454.53,-52.6 464.91,-50.5 455.48,-45.67 454.53,-52.6"/>
</g>
<!-- Node2&#45;&gt;Node2 -->
<g id="edge2" class="edge">
<title>Node2&#45;&gt;Node2</title>
<path fill="none" stroke="#63b8ff" d="M396.54,-114.1C392.85,-118.47 383.83,-121.5 369.5,-121.5 345.36,-121.5 336.31,-112.91 342.34,-103.78"/>
<polygon fill="#63b8ff" stroke="#63b8ff" points="400.05,-113.81 396.66,-103.78 393.05,-113.74 400.05,-113.81"/>
</g>
<!-- Node3 -->
<g id="node3" class="node">
<title>Node3</title>
<g id="a_node3"><a xlink:href="namespaceelc_1_1defs_1_1memory_1_1alloc__n_1_1default__method.html#a78a0fa1d20f89ed4b04c66ea762e9051" target="_top" xlink:title="Allocates aligned memory.">
<polygon fill="white" stroke="#666666" points="274,-118 155,-118 155,-77 274,-77 274,-118"/>
<text text-anchor="start" x="163" y="-106" font-family="Helvetica,sans-Serif" font-size="10.00">elc::defs::memory::</text>
<text text-anchor="start" x="163" y="-95" font-family="Helvetica,sans-Serif" font-size="10.00">alloc_n::default_method</text>
<text text-anchor="middle" x="214.5" y="-84" font-family="Helvetica,sans-Serif" font-size="10.00">::base_aligned_alloc</text>
</a>
</g>
</g>
<!-- Node2&#45;&gt;Node3 -->
<g id="edge3" class="edge">
<title>Node2&#45;&gt;Node3</title>
<path fill="none" stroke="#63b8ff" d="M299.79,-92.54C291.2,-93.05 282.47,-93.56 274.06,-94.06"/>
<polygon fill="#63b8ff" stroke="#63b8ff" points="300.01,-96.04 309.78,-91.95 299.6,-89.05 300.01,-96.04"/>
</g>
<!-- Node3&#45;&gt;Node3 -->
<g id="edge6" class="edge">
<title>Node3&#45;&gt;Node3</title>
<path fill="none" stroke="#63b8ff" d="M241.17,-127.96C237.2,-132.74 228.31,-136 214.5,-136 192.4,-136 182.9,-127.65 186.01,-118.1"/>
<polygon fill="#63b8ff" stroke="#63b8ff" points="244.61,-128.57 242.99,-118.1 237.73,-127.3 244.61,-128.57"/>
</g>
<!-- Node4 -->
<g id="node4" class="node">
<title>Node4</title>
<g id="a_node4"><a xlink:href="namespaceelc_1_1defs_1_1memory_1_1alloc__n_1_1default__method.html#a0304b5366d9907f769dac7e6dac8cd42" target="_top" xlink:title=" ">
<polygon fill="white" stroke="#666666" points="119,-118 0,-118 0,-77 119,-77 119,-118"/>
<text text-anchor="start" x="8" y="-106" font-family="Helvetica,sans-Serif" font-size="10.00">elc::defs::memory::</text>
<text text-anchor="start" x="8" y="-95" font-family="Helvetica,sans-Serif" font-size="10.00">alloc_n::default_method</text>
<text text-anchor="middle" x="59.5" y="-84" font-family="Helvetica,sans-Serif" font-size="10.00">::alloc_method</text>
</a>
</g>
</g>
<!-- Node3&#45;&gt;Node4 -->
<g id="edge4" class="edge">
<title>Node3&#45;&gt;Node4</title>
<path fill="none" stroke="#63b8ff" d="M144.51,-97.5C136.01,-97.5 127.38,-97.5 119.06,-97.5"/>
<polygon fill="#63b8ff" stroke="#63b8ff" points="144.78,-101 154.78,-97.5 144.78,-94 144.78,-101"/>
</g>
<!-- Node4&#45;&gt;Node4 -->
<g id="edge5" class="edge">
<title>Node4&#45;&gt;Node4</title>
<path fill="none" stroke="#63b8ff" d="M86.17,-127.96C82.2,-132.74 73.31,-136 59.5,-136 37.4,-136 27.9,-127.65 31.01,-118.1"/>
<polygon fill="#63b8ff" stroke="#63b8ff" points="89.61,-128.57 87.99,-118.1 82.73,-127.3 89.61,-128.57"/>
</g>
<!-- Node6 -->
<g id="node6" class="node">
<title>Node6</title>
<g id="a_node6"><a xlink:href="namespaceelc_1_1defs_1_1memory_1_1alloc__n_1_1default__method.html#a8ee321f9ab5577ba520976ffa2c49e2d" target="_top" xlink:title="Reallocates a block of memory.">
<polygon fill="white" stroke="#666666" points="274,-41 155,-41 155,0 274,0 274,-41"/>
<text text-anchor="start" x="163" y="-29" font-family="Helvetica,sans-Serif" font-size="10.00">elc::defs::memory::</text>
<text text-anchor="start" x="163" y="-18" font-family="Helvetica,sans-Serif" font-size="10.00">alloc_n::default_method</text>
<text text-anchor="middle" x="214.5" y="-7" font-family="Helvetica,sans-Serif" font-size="10.00">::base_realloc</text>
</a>
</g>
</g>
<!-- Node5&#45;&gt;Node6 -->
<g id="edge8" class="edge">
<title>Node5&#45;&gt;Node6</title>
<path fill="none" stroke="#63b8ff" d="M300.46,-29.94C291.7,-28.97 282.78,-27.98 274.19,-27.02"/>
<polygon fill="#63b8ff" stroke="#63b8ff" points="300.33,-33.45 310.66,-31.07 301.1,-26.49 300.33,-33.45"/>
</g>
<!-- Node6&#45;&gt;Node6 -->
<g id="edge9" class="edge">
<title>Node6&#45;&gt;Node6</title>
<path fill="none" stroke="#63b8ff" d="M241.17,-50.96C237.2,-55.74 228.31,-59 214.5,-59 192.4,-59 182.9,-50.65 186.01,-41.1"/>
<polygon fill="#63b8ff" stroke="#63b8ff" points="244.61,-51.57 242.99,-41.1 237.73,-50.3 244.61,-51.57"/>
</g>
<!-- Node7 -->
<g id="node7" class="node">
<title>Node7</title>
<g id="a_node7"><a xlink:href="namespaceelc_1_1defs_1_1memory_1_1alloc__n_1_1default__method.html#a7006a2426096a4f9cdf039371a44971b" target="_top" xlink:title=" ">
<polygon fill="white" stroke="#666666" points="119,-41 0,-41 0,0 119,0 119,-41"/>
<text text-anchor="start" x="8" y="-29" font-family="Helvetica,sans-Serif" font-size="10.00">elc::defs::memory::</text>
<text text-anchor="start" x="8" y="-18" font-family="Helvetica,sans-Serif" font-size="10.00">alloc_n::default_method</text>
<text text-anchor="middle" x="59.5" y="-7" font-family="Helvetica,sans-Serif" font-size="10.00">::realloc_method</text>
</a>
</g>
</g>
<!-- Node6&#45;&gt;Node7 -->
<g id="edge10" class="edge">
<title>Node6&#45;&gt;Node7</title>
<path fill="none" stroke="#63b8ff" d="M144.51,-20.5C136.01,-20.5 127.38,-20.5 119.06,-20.5"/>
<polygon fill="#63b8ff" stroke="#63b8ff" points="144.78,-24 154.78,-20.5 144.78,-17 144.78,-24"/>
</g>
<!-- Node7&#45;&gt;Node7 -->
<g id="edge11" class="edge">
<title>Node7&#45;&gt;Node7</title>
<path fill="none" stroke="#63b8ff" d="M86.17,-50.96C82.2,-55.74 73.31,-59 59.5,-59 37.4,-59 27.9,-50.65 31.01,-41.1"/>
<polygon fill="#63b8ff" stroke="#63b8ff" points="89.61,-51.57 87.99,-41.1 82.73,-50.3 89.61,-51.57"/>
</g>
</g>
</svg>
        <g id="navigator" transform="translate(0 0)" fill="#404254">
                <rect fill="#f2f5e9" fill-opacity="0.5" stroke="#606060" stroke-width=".5" x="0" y="0" width="60" height="60"/>
                <use id="zoomplus" xlink:href="#zoomPlus" x="17" y="9" onmousedown="handleZoom(evt,'in')"/>
                <use id="zoomminus" xlink:href="#zoomMin" x="42" y="9" onmousedown="handleZoom(evt,'out')"/>
                <use id="reset" xlink:href="#resetDef" x="30" y="36" onmousedown="handleReset()"/>
                <g id="arrowUp" xlink:href="#dirArrow" transform="translate(30 24)" onmousedown="handlePan(0,-1)">
                  <use xlink:href="#rim" fill="#404040">
                        <set attributeName="fill" to="#808080" begin="arrowUp.mouseover" end="arrowUp.mouseout"/>
                  </use>
                  <path fill="none" stroke="white" stroke-width="1.5" d="M0,-3.0v7 M-2.5,-0.5L0,-3.0L2.5,-0.5"/>
                </g>
                <g id="arrowRight" xlink:href="#dirArrow" transform="rotate(90) translate(36 -43)" onmousedown="handlePan(1,0)">
                  <use xlink:href="#rim" fill="#404040">
                        <set attributeName="fill" to="#808080" begin="arrowRight.mouseover" end="arrowRight.mouseout"/>
                  </use>
                  <path fill="none" stroke="white" stroke-width="1.5" d="M0,-3.0v7 M-2.5,-0.5L0,-3.0L2.5,-0.5"/>
                </g>
                <g id="arrowDown" xlink:href="#dirArrow" transform="rotate(180) translate(-30 -48)" onmousedown="handlePan(0,1)">
                  <use xlink:href="#rim" fill="#404040">
                        <set attributeName="fill" to="#808080" begin="arrowDown.mouseover" end="arrowDown.mouseout"/>
                  </use>
                  <path fill="none" stroke="white" stroke-width="1.5" d="M0,-3.0v7 M-2.5,-0.5L0,-3.0L2.5,-0.5"/>
                </g>
                <g id="arrowLeft" xlink:href="#dirArrow" transform="rotate(270) translate(-36 17)" onmousedown="handlePan(-1,0)">
                  <use xlink:href="#rim" fill="#404040">
                        <set attributeName="fill" to="#808080" begin="arrowLeft.mouseover" end="arrowLeft.mouseout"/>
                  </use>
                  <path fill="none" stroke="white" stroke-width="1.5" d="M0,-3.0v7 M-2.5,-0.5L0,-3.0L2.5,-0.5"/>
                </g>
        </g>
        <svg viewBox="0 0 15 15" width="100%" height="30px" preserveAspectRatio="xMaxYMin meet">
         <g id="arrow_out" transform="scale(0.3 0.3)">
          <a xlink:href="structelc_1_1_a_p_is_1_1alloc_1_1source__location__info__t_a14576ef17c256c280d8fd991d99114df_icgraph_org.svg" target="_base">
           <rect id="button" ry="5" rx="5" y="6" x="6" height="38" width="38"
                fill="#f2f5e9" fill-opacity="0.5" stroke="#606060" stroke-width="1.0"/>
           <path id="arrow"
             d="M 11.500037,31.436501 C 11.940474,20.09759 22.043105,11.32322 32.158766,21.979434 L 37.068811,17.246167 C 37.068811,17.246167 37.088388,32 37.088388,32 L 22.160133,31.978069 C 22.160133,31.978069 26.997745,27.140456 26.997745,27.140456 C 18.528582,18.264221 13.291696,25.230495 11.500037,31.436501 z"
             style="fill:#404040;"/>
          </a>
         </g>
        </svg>
</svg>
