<?xml version="1.0" encoding="UTF-8" standalone="no"?>
<!DOCTYPE svg PUBLIC "-//W3C//DTD SVG 1.1//EN"
 "http://www.w3.org/Graphics/SVG/1.1/DTD/svg11.dtd">
<!-- Generated by graphviz version 6.0.1 (20220911.1526)
 -->
<!-- Title: elc::defs::base::array_like_n::array_end_by_zero_t::array_end_by_zero_t Pages: 1 -->
<svg width="303pt" height="67pt"
 viewBox="0.00 0.00 303.00 67.00" xmlns="http://www.w3.org/2000/svg" xmlns:xlink="http://www.w3.org/1999/xlink">
<g id="graph0" class="graph" transform="scale(1 1) rotate(0) translate(4 63)">
<title>elc::defs::base::array_like_n::array_end_by_zero_t::array_end_by_zero_t</title>
<!-- Node1 -->
<g id="node1" class="node">
<title>Node1</title>
<g id="a_node1"><a xlink:title=" ">
<polygon fill="#999999" stroke="#666666" points="146,-41 0,-41 0,0 146,0 146,-41"/>
<text text-anchor="start" x="8" y="-29" font-family="Helvetica,sans-Serif" font-size="10.00">elc::defs::base::array</text>
<text text-anchor="start" x="8" y="-18" font-family="Helvetica,sans-Serif" font-size="10.00">_like_n::array_end_by</text>
<text text-anchor="middle" x="73" y="-7" font-family="Helvetica,sans-Serif" font-size="10.00">_zero_t::array_end_by_zero_t</text>
</a>
</g>
</g>
<!-- Node2 -->
<g id="node2" class="node">
<title>Node2</title>
<g id="a_node2"><a xlink:href="structelc_1_1defs_1_1base_1_1array__like__n_1_1array__end__by__zero__t.html#a18656e916d751c67f1d649ae2023dea9" target="_top" xlink:title=" ">
<polygon fill="white" stroke="#666666" points="295,-41 182,-41 182,0 295,0 295,-41"/>
<text text-anchor="start" x="190" y="-29" font-family="Helvetica,sans-Serif" font-size="10.00">elc::defs::base::array</text>
<text text-anchor="start" x="190" y="-18" font-family="Helvetica,sans-Serif" font-size="10.00">_like_n::array_end_by</text>
<text text-anchor="middle" x="238.5" y="-7" font-family="Helvetica,sans-Serif" font-size="10.00">_zero_t::get_length_of</text>
</a>
</g>
</g>
<!-- Node1&#45;&gt;Node2 -->
<g id="edge1" class="edge">
<title>Node1&#45;&gt;Node2</title>
<path fill="none" stroke="#63b8ff" d="M146.19,-20.5C154.7,-20.5 163.36,-20.5 171.78,-20.5"/>
<polygon fill="#63b8ff" stroke="#63b8ff" points="171.9,-24 181.9,-20.5 171.9,-17 171.9,-24"/>
</g>
<!-- Node2&#45;&gt;Node2 -->
<g id="edge2" class="edge">
<title>Node2&#45;&gt;Node2</title>
<path fill="none" stroke="#63b8ff" d="M208.08,-41.1C204.76,-50.65 214.9,-59 238.5,-59 253.25,-59 262.74,-55.74 266.97,-50.96"/>
<polygon fill="#63b8ff" stroke="#63b8ff" points="270.42,-51.59 268.92,-41.1 263.55,-50.23 270.42,-51.59"/>
</g>
</g>
</svg>
