<?xml version="1.0" encoding="UTF-8" standalone="no"?>
<!DOCTYPE svg PUBLIC "-//W3C//DTD SVG 1.1//EN"
 "http://www.w3.org/Graphics/SVG/1.1/DTD/svg11.dtd">
<!-- Generated by graphviz version 6.0.1 (20220911.1526)
 -->
<!-- Title: elc::defs::namespace_n::namespace_t::inter_namespace Pages: 1 -->
<svg width="297pt" height="98pt"
 viewBox="0.00 0.00 297.00 97.50" xmlns="http://www.w3.org/2000/svg" xmlns:xlink="http://www.w3.org/1999/xlink">
<g id="graph0" class="graph" transform="scale(1 1) rotate(0) translate(4 93.5)">
<title>elc::defs::namespace_n::namespace_t::inter_namespace</title>
<!-- Node1 -->
<g id="node1" class="node">
<title>Node1</title>
<g id="a_node1"><a xlink:title=" ">
<polygon fill="#999999" stroke="#666666" points="116,-62.5 0,-62.5 0,-21.5 116,-21.5 116,-62.5"/>
<text text-anchor="start" x="8" y="-50.5" font-family="Helvetica,sans-Serif" font-size="10.00">elc::defs::namespace</text>
<text text-anchor="start" x="8" y="-39.5" font-family="Helvetica,sans-Serif" font-size="10.00">_n::namespace_t::inter</text>
<text text-anchor="middle" x="58" y="-28.5" font-family="Helvetica,sans-Serif" font-size="10.00">_namespace</text>
</a>
</g>
</g>
<!-- Node2 -->
<g id="node2" class="node">
<title>Node2</title>
<g id="a_node2"><a xlink:href="structelc_1_1defs_1_1namespace__n_1_1namespace__t.html#acc554c39ef032608ed7313d0979cd64b" target="_top" xlink:title=" ">
<polygon fill="white" stroke="#666666" points="276,-89.5 165,-89.5 165,-48.5 276,-48.5 276,-89.5"/>
<text text-anchor="start" x="173" y="-77.5" font-family="Helvetica,sans-Serif" font-size="10.00">elc::defs::namespace</text>
<text text-anchor="start" x="173" y="-66.5" font-family="Helvetica,sans-Serif" font-size="10.00">_n::namespace_t::get</text>
<text text-anchor="middle" x="220.5" y="-55.5" font-family="Helvetica,sans-Serif" font-size="10.00">_symbol</text>
</a>
</g>
</g>
<!-- Node1&#45;&gt;Node2 -->
<g id="edge1" class="edge">
<title>Node1&#45;&gt;Node2</title>
<path fill="none" stroke="#63b8ff" d="M116.04,-51.6C128.55,-53.7 141.89,-55.94 154.68,-58.1"/>
<polygon fill="#63b8ff" stroke="#63b8ff" points="154.36,-61.59 164.8,-59.8 155.52,-54.69 154.36,-61.59"/>
</g>
<!-- Node3 -->
<g id="node3" class="node">
<title>Node3</title>
<g id="a_node3"><a xlink:href="structelc_1_1defs_1_1memory_1_1ptr__n_1_1base__ptr__t.html#a145161e074a26342128088443eee94cf" target="_top" xlink:title=" ">
<polygon fill="white" stroke="#666666" points="289,-30 152,-30 152,0 289,0 289,-30"/>
<text text-anchor="start" x="160" y="-18" font-family="Helvetica,sans-Serif" font-size="10.00">elc::defs::memory::</text>
<text text-anchor="middle" x="220.5" y="-7" font-family="Helvetica,sans-Serif" font-size="10.00">ptr_n::base_ptr_t::operator=</text>
</a>
</g>
</g>
<!-- Node1&#45;&gt;Node3 -->
<g id="edge2" class="edge">
<title>Node1&#45;&gt;Node3</title>
<path fill="none" stroke="#63b8ff" d="M116.04,-32.4C124.48,-30.98 133.3,-29.5 142.08,-28.02"/>
<polygon fill="#63b8ff" stroke="#63b8ff" points="142.66,-31.48 151.94,-26.36 141.5,-24.57 142.66,-31.48"/>
</g>
</g>
</svg>
