<?xml version="1.0" encoding="UTF-8" standalone="no"?>
<!DOCTYPE svg PUBLIC "-//W3C//DTD SVG 1.1//EN"
 "http://www.w3.org/Graphics/SVG/1.1/DTD/svg11.dtd">
<!-- Generated by graphviz version 6.0.1 (20220911.1526)
 -->
<!-- Title: elc::defs::core::node_like Pages: 1 -->
<!--zoomable 242 -->
<svg id="main" version="1.1" xmlns="http://www.w3.org/2000/svg" xmlns:xlink="http://www.w3.org/1999/xlink" xml:space="preserve" onload="init(evt)">
<style type="text/css"><![CDATA[
.edge:hover path { stroke: red; }
.edge:hover polygon { stroke: red; fill: red; }
]]></style>
<script type="text/javascript"><![CDATA[
var edges = document.getElementsByTagName('g');
if (edges && edges.length) {
  for (var i=0;i<edges.length;i++) {
    if (edges[i].id.substr(0,4)=='edge') {
      edges[i].setAttribute('class','edge');
    }
  }
}
]]></script>
        <defs>
                <circle id="rim" cx="0" cy="0" r="7"/>
                <circle id="rim2" cx="0" cy="0" r="3.5"/>
                <g id="zoomPlus">
                        <use xlink:href="#rim" fill="#404040">
                                <set attributeName="fill" to="#808080" begin="zoomplus.mouseover" end="zoomplus.mouseout"/>
                        </use>
                        <path d="M-4,0h8M0,-4v8" fill="none" stroke="white" stroke-width="1.5" pointer-events="none"/>
                </g>
                <g id="zoomMin">
                        <use xlink:href="#rim" fill="#404040">
                                <set attributeName="fill" to="#808080" begin="zoomminus.mouseover" end="zoomminus.mouseout"/>
                        </use>
                        <path d="M-4,0h8" fill="none" stroke="white" stroke-width="1.5" pointer-events="none"/>
                </g>
                <g id="dirArrow">
                        <path fill="none" stroke="white" stroke-width="1.5" d="M0,-3.0v7 M-2.5,-0.5L0,-3.0L2.5,-0.5"/>
                </g>
               <g id="resetDef">
                       <use xlink:href="#rim2" fill="#404040">
                               <set attributeName="fill" to="#808080" begin="reset.mouseover" end="reset.mouseout"/>
                       </use>
               </g>
        </defs>

<script type="text/javascript">
var viewWidth = 661;
var viewHeight = 242;
var sectionId = 'dynsection-0';
</script>
<script xlink:href="svgpan.js"/>
<svg id="graph" class="graph">
<g id="viewport">
<title>elc::defs::core::node_like</title>
<!-- Node1 -->
<g id="node1" class="node">
<title>Node1</title>
<g id="a_node1"><a xlink:title=" ">
<polygon fill="#999999" stroke="#666666" points="310,-126 185,-126 185,-107 310,-107 310,-126"/>
<text text-anchor="middle" x="247.5" y="-114" font-family="Helvetica,sans-Serif" font-size="10.00">elc::defs::core::node_like</text>
</a>
</g>
</g>
<!-- Node3 -->
<g id="node3" class="node">
<title>Node3</title>
<g id="a_node3"><a xlink:href="structelc_1_1defs_1_1core_1_1base__binary__function__node.html" target="_top" xlink:title=" ">
<polygon fill="white" stroke="#666666" points="476.5,-227.5 363.5,-227.5 363.5,-197.5 476.5,-197.5 476.5,-227.5"/>
<text text-anchor="start" x="371.5" y="-215.5" font-family="Helvetica,sans-Serif" font-size="10.00">elc::defs::core::base</text>
<text text-anchor="middle" x="420" y="-204.5" font-family="Helvetica,sans-Serif" font-size="10.00">_binary_function_node</text>
</a>
</g>
</g>
<!-- Node1&#45;&gt;Node3 -->
<g id="edge2" class="edge">
<title>Node1&#45;&gt;Node3</title>
<path fill="none" stroke="#63b8ff" d="M266.88,-132.89C285.65,-148.92 316.17,-173.09 346,-188.5 352.4,-191.81 359.35,-194.79 366.33,-197.43"/>
<polygon fill="#63b8ff" stroke="#63b8ff" points="268.98,-130.08 259.14,-126.17 264.39,-135.36 268.98,-130.08"/>
</g>
<!-- Node4 -->
<g id="node4" class="node">
<title>Node4</title>
<g id="a_node4"><a xlink:href="structelc_1_1defs_1_1core_1_1base__constexpr__t.html" target="_top" xlink:title=" ">
<polygon fill="white" stroke="#666666" points="472.5,-179.5 367.5,-179.5 367.5,-149.5 472.5,-149.5 472.5,-179.5"/>
<text text-anchor="start" x="375.5" y="-167.5" font-family="Helvetica,sans-Serif" font-size="10.00">elc::defs::core::base</text>
<text text-anchor="middle" x="420" y="-156.5" font-family="Helvetica,sans-Serif" font-size="10.00">_constexpr_t</text>
</a>
</g>
</g>
<!-- Node1&#45;&gt;Node4 -->
<g id="edge3" class="edge">
<title>Node1&#45;&gt;Node4</title>
<path fill="none" stroke="#63b8ff" d="M292.4,-128.86C315.33,-135.31 343.53,-143.25 367.48,-150"/>
<polygon fill="#63b8ff" stroke="#63b8ff" points="293.17,-125.44 282.59,-126.1 291.27,-132.18 293.17,-125.44"/>
</g>
<!-- Node8 -->
<g id="node8" class="node">
<title>Node8</title>
<g id="a_node8"><a xlink:href="structelc_1_1defs_1_1core_1_1binary__node__base__t.html" target="_top" xlink:title=" ">
<polygon fill="white" stroke="#666666" points="475,-131.5 365,-131.5 365,-101.5 475,-101.5 475,-131.5"/>
<text text-anchor="start" x="373" y="-119.5" font-family="Helvetica,sans-Serif" font-size="10.00">elc::defs::core::binary</text>
<text text-anchor="middle" x="420" y="-108.5" font-family="Helvetica,sans-Serif" font-size="10.00">_node_base_t</text>
</a>
</g>
</g>
<!-- Node1&#45;&gt;Node8 -->
<g id="edge7" class="edge">
<title>Node1&#45;&gt;Node8</title>
<path fill="none" stroke="#63b8ff" d="M320.28,-116.5C335.21,-116.5 350.71,-116.5 364.88,-116.5"/>
<polygon fill="#63b8ff" stroke="#63b8ff" points="320.05,-113 310.05,-116.5 320.05,-120 320.05,-113"/>
</g>
<!-- Node10 -->
<g id="node10" class="node">
<title>Node10</title>
<g id="a_node10"><a xlink:href="structelc_1_1defs_1_1core_1_1common__node.html" target="_top" xlink:title=" ">
<polygon fill="white" stroke="#666666" points="494,-83 346,-83 346,-64 494,-64 494,-83"/>
<text text-anchor="middle" x="420" y="-71" font-family="Helvetica,sans-Serif" font-size="10.00">elc::defs::core::common_node</text>
</a>
</g>
</g>
<!-- Node1&#45;&gt;Node10 -->
<g id="edge9" class="edge">
<title>Node1&#45;&gt;Node10</title>
<path fill="none" stroke="#63b8ff" d="M296.3,-104.44C323.17,-97.67 356.23,-89.33 381.27,-83.02"/>
<polygon fill="#63b8ff" stroke="#63b8ff" points="295.18,-101.12 286.34,-106.96 296.89,-107.91 295.18,-101.12"/>
</g>
<!-- Node11 -->
<g id="node11" class="node">
<title>Node11</title>
<g id="a_node11"><a xlink:href="structelc_1_1defs_1_1core_1_1cons.html" target="_top" xlink:title=" ">
<polygon fill="white" stroke="#666666" points="472.5,-46 367.5,-46 367.5,-27 472.5,-27 472.5,-46"/>
<text text-anchor="middle" x="420" y="-34" font-family="Helvetica,sans-Serif" font-size="10.00">elc::defs::core::cons</text>
</a>
</g>
</g>
<!-- Node1&#45;&gt;Node11 -->
<g id="edge10" class="edge">
<title>Node1&#45;&gt;Node11</title>
<path fill="none" stroke="#63b8ff" d="M268.88,-100.74C287.88,-86.75 317.5,-66.69 346,-54.5 353.8,-51.16 362.35,-48.36 370.76,-46.04"/>
<polygon fill="#63b8ff" stroke="#63b8ff" points="266.6,-98.08 260.7,-106.88 270.8,-103.68 266.6,-98.08"/>
</g>
<!-- Node2 -->
<g id="node2" class="node">
<title>Node2</title>
<g id="a_node2"><a xlink:title=" ">
<polygon fill="white" stroke="#666666" points="149,-148 0,-148 0,-85 149,-85 149,-148"/>
<text text-anchor="start" x="8" y="-136" font-family="Helvetica,sans-Serif" font-size="10.00">type_info_t&lt; node_like</text>
<text text-anchor="middle" x="74.5" y="-125" font-family="Helvetica,sans-Serif" font-size="10.00"> &gt;:: template </text>
<text text-anchor="start" x="8" y="-114" font-family="Helvetica,sans-Serif" font-size="10.00">	with_common_attribute</text>
<text text-anchor="start" x="8" y="-103" font-family="Helvetica,sans-Serif" font-size="10.00">&lt; abstract_base, weak_ref</text>
<text text-anchor="middle" x="74.5" y="-92" font-family="Helvetica,sans-Serif" font-size="10.00">_able, replace_able, ref_able &gt;</text>
</a>
</g>
</g>
<!-- Node2&#45;&gt;Node1 -->
<g id="edge1" class="edge">
<title>Node2&#45;&gt;Node1</title>
<path fill="none" stroke="#63b8ff" d="M159.15,-116.5C167.81,-116.5 176.5,-116.5 184.86,-116.5"/>
<polygon fill="#63b8ff" stroke="#63b8ff" points="159.01,-113 149.01,-116.5 159.01,-120 159.01,-113"/>
</g>
<!-- Node5 -->
<g id="node5" class="node">
<title>Node5</title>
<g id="a_node5"><a xlink:href="structelc_1_1defs_1_1core_1_1nil__t.html" target="_top" xlink:title=" ">
<polygon fill="white" stroke="#666666" points="642.5,-234 540.5,-234 540.5,-215 642.5,-215 642.5,-234"/>
<text text-anchor="middle" x="591.5" y="-222" font-family="Helvetica,sans-Serif" font-size="10.00">elc::defs::core::nil_t</text>
</a>
</g>
</g>
<!-- Node4&#45;&gt;Node5 -->
<g id="edge4" class="edge">
<title>Node4&#45;&gt;Node5</title>
<path fill="none" stroke="#63b8ff" d="M479.54,-182.9C484.46,-184.71 489.34,-186.58 494,-188.5 510.54,-195.31 513.36,-199.92 530,-206.5 537.85,-209.6 546.45,-212.47 554.64,-214.96"/>
<polygon fill="#63b8ff" stroke="#63b8ff" points="480.65,-179.58 470.05,-179.53 478.3,-186.18 480.65,-179.58"/>
</g>
<!-- Node6 -->
<g id="node6" class="node">
<title>Node6</title>
<g id="a_node6"><a xlink:href="structelc_1_1defs_1_1core_1_1t__t.html" target="_top" xlink:title=" ">
<polygon fill="white" stroke="#666666" points="639,-197 544,-197 544,-178 639,-178 639,-197"/>
<text text-anchor="middle" x="591.5" y="-185" font-family="Helvetica,sans-Serif" font-size="10.00">elc::defs::core::t_t</text>
</a>
</g>
</g>
<!-- Node4&#45;&gt;Node6 -->
<g id="edge5" class="edge">
<title>Node4&#45;&gt;Node6</title>
<path fill="none" stroke="#63b8ff" d="M482.82,-172.89C503.01,-175.63 525.07,-178.62 543.93,-181.18"/>
<polygon fill="#63b8ff" stroke="#63b8ff" points="483.16,-169.4 472.78,-171.53 482.22,-176.34 483.16,-169.4"/>
</g>
<!-- Node7 -->
<g id="node7" class="node">
<title>Node7</title>
<g id="a_node7"><a xlink:href="structelc_1_1defs_1_1core_1_1void__t.html" target="_top" xlink:title=" ">
<polygon fill="white" stroke="#666666" points="646,-160 537,-160 537,-141 646,-141 646,-160"/>
<text text-anchor="middle" x="591.5" y="-148" font-family="Helvetica,sans-Serif" font-size="10.00">elc::defs::core::void_t</text>
</a>
</g>
</g>
<!-- Node4&#45;&gt;Node7 -->
<g id="edge6" class="edge">
<title>Node4&#45;&gt;Node7</title>
<path fill="none" stroke="#63b8ff" d="M483.01,-159.38C500.71,-157.92 519.84,-156.34 536.99,-154.92"/>
<polygon fill="#63b8ff" stroke="#63b8ff" points="482.45,-155.91 472.78,-160.22 483.03,-162.89 482.45,-155.91"/>
</g>
<!-- Node9 -->
<g id="node9" class="node">
<title>Node9</title>
<g id="a_node9"><a xlink:href="structelc_1_1defs_1_1core_1_1binary__node__t.html" target="_top" xlink:title=" ">
<polygon fill="white" stroke="#666666" points="646.5,-122.5 536.5,-122.5 536.5,-92.5 646.5,-92.5 646.5,-122.5"/>
<text text-anchor="start" x="544.5" y="-110.5" font-family="Helvetica,sans-Serif" font-size="10.00">elc::defs::core::binary</text>
<text text-anchor="middle" x="591.5" y="-99.5" font-family="Helvetica,sans-Serif" font-size="10.00">_node_t&lt; T &gt;</text>
</a>
</g>
</g>
<!-- Node8&#45;&gt;Node9 -->
<g id="edge8" class="edge">
<title>Node8&#45;&gt;Node9</title>
<path fill="none" stroke="#63b8ff" d="M485.39,-113.08C502.19,-112.19 520.12,-111.24 536.34,-110.38"/>
<polygon fill="#63b8ff" stroke="#63b8ff" points="484.9,-109.6 475.1,-113.63 485.27,-116.59 484.9,-109.6"/>
</g>
<!-- Node12 -->
<g id="node12" class="node">
<title>Node12</title>
<g id="a_node12"><a xlink:href="structelc_1_1defs_1_1core_1_1code__list.html" target="_top" xlink:title=" ">
<polygon fill="white" stroke="#666666" points="653,-56 530,-56 530,-37 653,-37 653,-56"/>
<text text-anchor="middle" x="591.5" y="-44" font-family="Helvetica,sans-Serif" font-size="10.00">elc::defs::core::code_list</text>
</a>
</g>
</g>
<!-- Node11&#45;&gt;Node12 -->
<g id="edge11" class="edge">
<title>Node11&#45;&gt;Node12</title>
<path fill="none" stroke="#63b8ff" d="M483.13,-40.17C498.36,-41.06 514.65,-42.03 529.82,-42.92"/>
<polygon fill="#63b8ff" stroke="#63b8ff" points="482.97,-36.65 472.78,-39.55 482.55,-43.64 482.97,-36.65"/>
</g>
<!-- Node13 -->
<g id="node13" class="node">
<title>Node13</title>
<g id="a_node13"><a xlink:href="structelc_1_1defs_1_1core_1_1expr.html" target="_top" xlink:title=" ">
<polygon fill="white" stroke="#666666" points="643,-19 540,-19 540,0 643,0 643,-19"/>
<text text-anchor="middle" x="591.5" y="-7" font-family="Helvetica,sans-Serif" font-size="10.00">elc::defs::core::expr</text>
</a>
</g>
</g>
<!-- Node11&#45;&gt;Node13 -->
<g id="edge12" class="edge">
<title>Node11&#45;&gt;Node13</title>
<path fill="none" stroke="#63b8ff" d="M482.73,-26.67C501.52,-23.67 521.95,-20.42 539.91,-17.56"/>
<polygon fill="#63b8ff" stroke="#63b8ff" points="482.1,-23.22 472.78,-28.25 483.2,-30.14 482.1,-23.22"/>
</g>
</g>
</svg>
        <g id="navigator" transform="translate(0 0)" fill="#404254">
                <rect fill="#f2f5e9" fill-opacity="0.5" stroke="#606060" stroke-width=".5" x="0" y="0" width="60" height="60"/>
                <use id="zoomplus" xlink:href="#zoomPlus" x="17" y="9" onmousedown="handleZoom(evt,'in')"/>
                <use id="zoomminus" xlink:href="#zoomMin" x="42" y="9" onmousedown="handleZoom(evt,'out')"/>
                <use id="reset" xlink:href="#resetDef" x="30" y="36" onmousedown="handleReset()"/>
                <g id="arrowUp" xlink:href="#dirArrow" transform="translate(30 24)" onmousedown="handlePan(0,-1)">
                  <use xlink:href="#rim" fill="#404040">
                        <set attributeName="fill" to="#808080" begin="arrowUp.mouseover" end="arrowUp.mouseout"/>
                  </use>
                  <path fill="none" stroke="white" stroke-width="1.5" d="M0,-3.0v7 M-2.5,-0.5L0,-3.0L2.5,-0.5"/>
                </g>
                <g id="arrowRight" xlink:href="#dirArrow" transform="rotate(90) translate(36 -43)" onmousedown="handlePan(1,0)">
                  <use xlink:href="#rim" fill="#404040">
                        <set attributeName="fill" to="#808080" begin="arrowRight.mouseover" end="arrowRight.mouseout"/>
                  </use>
                  <path fill="none" stroke="white" stroke-width="1.5" d="M0,-3.0v7 M-2.5,-0.5L0,-3.0L2.5,-0.5"/>
                </g>
                <g id="arrowDown" xlink:href="#dirArrow" transform="rotate(180) translate(-30 -48)" onmousedown="handlePan(0,1)">
                  <use xlink:href="#rim" fill="#404040">
                        <set attributeName="fill" to="#808080" begin="arrowDown.mouseover" end="arrowDown.mouseout"/>
                  </use>
                  <path fill="none" stroke="white" stroke-width="1.5" d="M0,-3.0v7 M-2.5,-0.5L0,-3.0L2.5,-0.5"/>
                </g>
                <g id="arrowLeft" xlink:href="#dirArrow" transform="rotate(270) translate(-36 17)" onmousedown="handlePan(-1,0)">
                  <use xlink:href="#rim" fill="#404040">
                        <set attributeName="fill" to="#808080" begin="arrowLeft.mouseover" end="arrowLeft.mouseout"/>
                  </use>
                  <path fill="none" stroke="white" stroke-width="1.5" d="M0,-3.0v7 M-2.5,-0.5L0,-3.0L2.5,-0.5"/>
                </g>
        </g>
        <svg viewBox="0 0 15 15" width="100%" height="30px" preserveAspectRatio="xMaxYMin meet">
         <g id="arrow_out" transform="scale(0.3 0.3)">
          <a xlink:href="structelc_1_1defs_1_1core_1_1node__like__inherit__graph_org.svg" target="_base">
           <rect id="button" ry="5" rx="5" y="6" x="6" height="38" width="38"
                fill="#f2f5e9" fill-opacity="0.5" stroke="#606060" stroke-width="1.0"/>
           <path id="arrow"
             d="M 11.500037,31.436501 C 11.940474,20.09759 22.043105,11.32322 32.158766,21.979434 L 37.068811,17.246167 C 37.068811,17.246167 37.088388,32 37.088388,32 L 22.160133,31.978069 C 22.160133,31.978069 26.997745,27.140456 26.997745,27.140456 C 18.528582,18.264221 13.291696,25.230495 11.500037,31.436501 z"
             style="fill:#404040;"/>
          </a>
         </g>
        </svg>
</svg>
