<?xml version="1.0" encoding="UTF-8" standalone="no"?>
<!DOCTYPE svg PUBLIC "-//W3C//DTD SVG 1.1//EN"
 "http://www.w3.org/Graphics/SVG/1.1/DTD/svg11.dtd">
<!-- Generated by graphviz version 6.0.1 (20220911.1526)
 -->
<!-- Title: elc::defs::core::expr Pages: 1 -->
<svg width="1209pt" height="228pt"
 viewBox="0.00 0.00 1209.00 227.50" xmlns="http://www.w3.org/2000/svg" xmlns:xlink="http://www.w3.org/1999/xlink">
<g id="graph0" class="graph" transform="scale(1 1) rotate(0) translate(4 223.5)">
<title>elc::defs::core::expr</title>
<!-- Node1 -->
<g id="node1" class="node">
<title>Node1</title>
<g id="a_node1"><a xlink:title=" ">
<polygon fill="#999999" stroke="#666666" points="1201,-135.5 1098,-135.5 1098,-116.5 1201,-116.5 1201,-135.5"/>
<text text-anchor="middle" x="1149.5" y="-123.5" font-family="Helvetica,sans-Serif" font-size="10.00">elc::defs::core::expr</text>
</a>
</g>
</g>
<!-- Node2 -->
<g id="node2" class="node">
<title>Node2</title>
<g id="a_node2"><a xlink:href="structelc_1_1defs_1_1core_1_1cons.html" target="_top" xlink:title=" ">
<polygon fill="white" stroke="#666666" points="1053.5,-160.5 948.5,-160.5 948.5,-141.5 1053.5,-141.5 1053.5,-160.5"/>
<text text-anchor="middle" x="1001" y="-148.5" font-family="Helvetica,sans-Serif" font-size="10.00">elc::defs::core::cons</text>
</a>
</g>
</g>
<!-- Node2&#45;&gt;Node1 -->
<g id="edge1" class="edge">
<title>Node2&#45;&gt;Node1</title>
<path fill="none" stroke="#63b8ff" d="M1063.55,-140.5C1074.96,-138.55 1086.77,-136.53 1097.81,-134.65"/>
<polygon fill="#63b8ff" stroke="#63b8ff" points="1062.92,-137.05 1053.65,-142.19 1064.1,-143.95 1062.92,-137.05"/>
</g>
<!-- Node3 -->
<g id="node3" class="node">
<title>Node3</title>
<g id="a_node3"><a xlink:href="structelc_1_1defs_1_1core_1_1node__like.html" target="_top" xlink:title=" ">
<polygon fill="white" stroke="#666666" points="883,-197.5 758,-197.5 758,-178.5 883,-178.5 883,-197.5"/>
<text text-anchor="middle" x="820.5" y="-185.5" font-family="Helvetica,sans-Serif" font-size="10.00">elc::defs::core::node_like</text>
</a>
</g>
</g>
<!-- Node3&#45;&gt;Node2 -->
<g id="edge2" class="edge">
<title>Node3&#45;&gt;Node2</title>
<path fill="none" stroke="#63b8ff" d="M877.39,-176.42C901.98,-171.32 930.52,-165.4 953.88,-160.56"/>
<polygon fill="#63b8ff" stroke="#63b8ff" points="876.55,-173.01 867.47,-178.47 877.97,-179.87 876.55,-173.01"/>
</g>
<!-- Node4 -->
<g id="node4" class="node">
<title>Node4</title>
<g id="a_node4"><a xlink:title=" ">
<polygon fill="white" stroke="#666666" points="679,-219.5 442,-219.5 442,-156.5 679,-156.5 679,-219.5"/>
<text text-anchor="start" x="450" y="-207.5" font-family="Helvetica,sans-Serif" font-size="10.00">type_info_t&lt; node_like</text>
<text text-anchor="middle" x="560.5" y="-196.5" font-family="Helvetica,sans-Serif" font-size="10.00"> &gt;:: template </text>
<text text-anchor="start" x="450" y="-185.5" font-family="Helvetica,sans-Serif" font-size="10.00">					with_common_attribute</text>
<text text-anchor="start" x="450" y="-174.5" font-family="Helvetica,sans-Serif" font-size="10.00">&lt; abstract_base, weak_ref</text>
<text text-anchor="middle" x="560.5" y="-163.5" font-family="Helvetica,sans-Serif" font-size="10.00">_able, replace_able, ref_able &gt;</text>
</a>
</g>
</g>
<!-- Node4&#45;&gt;Node3 -->
<g id="edge3" class="edge">
<title>Node4&#45;&gt;Node3</title>
<path fill="none" stroke="#63b8ff" d="M689.36,-188C713.17,-188 737.02,-188 757.69,-188"/>
<polygon fill="#63b8ff" stroke="#63b8ff" points="689.18,-184.5 679.18,-188 689.18,-191.5 689.18,-184.5"/>
</g>
<!-- Node5 -->
<g id="node5" class="node">
<title>Node5</title>
<g id="a_node5"><a xlink:title=" ">
<polygon fill="white" stroke="#666666" points="881.5,-160.5 759.5,-160.5 759.5,-141.5 881.5,-141.5 881.5,-160.5"/>
<text text-anchor="middle" x="820.5" y="-148.5" font-family="Helvetica,sans-Serif" font-size="10.00">instance_struct&lt; cons &gt;</text>
</a>
</g>
</g>
<!-- Node5&#45;&gt;Node2 -->
<g id="edge4" class="edge">
<title>Node5&#45;&gt;Node2</title>
<path fill="none" stroke="#63b8ff" d="M891.93,-151C910.73,-151 930.69,-151 948.27,-151"/>
<polygon fill="#63b8ff" stroke="#63b8ff" points="891.93,-147.5 881.93,-151 891.93,-154.5 891.93,-147.5"/>
</g>
<!-- Node6 -->
<g id="node6" class="node">
<title>Node6</title>
<g id="a_node6"><a xlink:href="structelc_1_1defs_1_1core_1_1value.html" target="_top" xlink:title=" ">
<polygon fill="white" stroke="#666666" points="873.5,-123.5 767.5,-123.5 767.5,-104.5 873.5,-104.5 873.5,-123.5"/>
<text text-anchor="middle" x="820.5" y="-111.5" font-family="Helvetica,sans-Serif" font-size="10.00">elc::defs::core::value</text>
</a>
</g>
</g>
<!-- Node6&#45;&gt;Node2 -->
<g id="edge5" class="edge">
<title>Node6&#45;&gt;Node2</title>
<path fill="none" stroke="#9a32cd" stroke-dasharray="5,2" d="M884.01,-117.7C897.04,-119.32 910.58,-121.65 923,-125 931.45,-127.28 932.8,-129.94 941,-133 949.03,-136 957.8,-138.88 966.07,-141.42"/>
<polygon fill="#9a32cd" stroke="#9a32cd" points="884.04,-114.18 873.71,-116.54 883.26,-121.13 884.04,-114.18"/>
<text text-anchor="middle" x="912" y="-139" font-family="Helvetica,sans-Serif" font-size="10.00"> _car</text>
<text text-anchor="middle" x="912" y="-128" font-family="Helvetica,sans-Serif" font-size="10.00">_cdr</text>
</g>
<!-- Node7 -->
<g id="node7" class="node">
<title>Node7</title>
<g id="a_node7"><a xlink:href="structelc_1_1defs_1_1base_1_1non__copy__assign__able.html" target="_top" xlink:title=" ">
<polygon fill="white" stroke="#666666" points="611.5,-134 509.5,-134 509.5,-104 611.5,-104 611.5,-134"/>
<text text-anchor="start" x="517.5" y="-122" font-family="Helvetica,sans-Serif" font-size="10.00">elc::defs::base::non</text>
<text text-anchor="middle" x="560.5" y="-111" font-family="Helvetica,sans-Serif" font-size="10.00">_copy_assign_able</text>
</a>
</g>
</g>
<!-- Node7&#45;&gt;Node6 -->
<g id="edge6" class="edge">
<title>Node7&#45;&gt;Node6</title>
<path fill="none" stroke="#63b8ff" d="M621.58,-117.84C665.76,-116.98 725.2,-115.83 767.38,-115.01"/>
<polygon fill="#63b8ff" stroke="#63b8ff" points="621.48,-114.34 611.55,-118.03 621.62,-121.34 621.48,-114.34"/>
</g>
<!-- Node8 -->
<g id="node8" class="node">
<title>Node8</title>
<g id="a_node8"><a xlink:href="structelc_1_1defs_1_1core_1_1value_1_1null__data__t.html" target="_top" xlink:title=" ">
<polygon fill="white" stroke="#666666" points="613.5,-86 507.5,-86 507.5,-56 613.5,-56 613.5,-86"/>
<text text-anchor="start" x="515.5" y="-74" font-family="Helvetica,sans-Serif" font-size="10.00">elc::defs::core::value</text>
<text text-anchor="middle" x="560.5" y="-63" font-family="Helvetica,sans-Serif" font-size="10.00">::null_data_t</text>
</a>
</g>
</g>
<!-- Node8&#45;&gt;Node6 -->
<g id="edge7" class="edge">
<title>Node8&#45;&gt;Node6</title>
<path fill="none" stroke="#9a32cd" stroke-dasharray="5,2" d="M623.74,-80.91C658.06,-86.42 701.4,-93.47 740,-100 748.84,-101.5 758.23,-103.12 767.35,-104.71"/>
<polygon fill="#9a32cd" stroke="#9a32cd" points="624.29,-77.45 613.86,-79.32 623.18,-84.36 624.29,-77.45"/>
<text text-anchor="middle" x="718.5" y="-103" font-family="Helvetica,sans-Serif" font-size="10.00"> null_data</text>
</g>
<!-- Node9 -->
<g id="node9" class="node">
<title>Node9</title>
<g id="a_node9"><a xlink:title=" ">
<polygon fill="white" stroke="#666666" points="405,-110 298,-110 298,-80 405,-80 405,-110"/>
<text text-anchor="start" x="306" y="-98" font-family="Helvetica,sans-Serif" font-size="10.00">instance_struct&lt; null</text>
<text text-anchor="middle" x="351.5" y="-87" font-family="Helvetica,sans-Serif" font-size="10.00">_data_t &gt;</text>
</a>
</g>
</g>
<!-- Node9&#45;&gt;Node8 -->
<g id="edge8" class="edge">
<title>Node9&#45;&gt;Node8</title>
<path fill="none" stroke="#63b8ff" d="M415.19,-87.73C444.67,-84.31 479.41,-80.29 507.41,-77.04"/>
<polygon fill="#63b8ff" stroke="#63b8ff" points="414.53,-84.28 405,-88.91 415.34,-91.24 414.53,-84.28"/>
</g>
<!-- Node10 -->
<g id="node10" class="node">
<title>Node10</title>
<g id="a_node10"><a xlink:href="structelc_1_1defs_1_1core_1_1value_1_1base__data__t.html" target="_top" xlink:title=" ">
<polygon fill="white" stroke="#666666" points="404.5,-62 298.5,-62 298.5,-32 404.5,-32 404.5,-62"/>
<text text-anchor="start" x="306.5" y="-50" font-family="Helvetica,sans-Serif" font-size="10.00">elc::defs::core::value</text>
<text text-anchor="middle" x="351.5" y="-39" font-family="Helvetica,sans-Serif" font-size="10.00">::base_data_t</text>
</a>
</g>
</g>
<!-- Node10&#45;&gt;Node8 -->
<g id="edge9" class="edge">
<title>Node10&#45;&gt;Node8</title>
<path fill="none" stroke="#63b8ff" d="M414.92,-54.24C444.41,-57.66 479.21,-61.69 507.28,-64.95"/>
<polygon fill="#63b8ff" stroke="#63b8ff" points="415.07,-50.73 404.73,-53.06 414.27,-57.68 415.07,-50.73"/>
</g>
<!-- Node11 -->
<g id="node11" class="node">
<title>Node11</title>
<g id="a_node11"><a xlink:title=" ">
<polygon fill="white" stroke="#666666" points="261,-111.5 0,-111.5 0,-48.5 261,-48.5 261,-111.5"/>
<text text-anchor="start" x="8" y="-99.5" font-family="Helvetica,sans-Serif" font-size="10.00">type_info_t&lt; base_data</text>
<text text-anchor="middle" x="130.5" y="-88.5" font-family="Helvetica,sans-Serif" font-size="10.00">_t &gt;:: template </text>
<text text-anchor="start" x="8" y="-77.5" font-family="Helvetica,sans-Serif" font-size="10.00">						with_common_attribute</text>
<text text-anchor="start" x="8" y="-66.5" font-family="Helvetica,sans-Serif" font-size="10.00">&lt; abstract_base, ref_able,</text>
<text text-anchor="middle" x="130.5" y="-55.5" font-family="Helvetica,sans-Serif" font-size="10.00"> never_in_array, replace_able &gt;</text>
</a>
</g>
</g>
<!-- Node11&#45;&gt;Node10 -->
<g id="edge10" class="edge">
<title>Node11&#45;&gt;Node10</title>
<path fill="none" stroke="#63b8ff" d="M271.16,-58.96C280.7,-57.52 289.91,-56.13 298.47,-54.84"/>
<polygon fill="#63b8ff" stroke="#63b8ff" points="270.48,-55.52 261.11,-60.47 271.52,-62.44 270.48,-55.52"/>
</g>
<!-- Node12 -->
<g id="node12" class="node">
<title>Node12</title>
<g id="a_node12"><a xlink:href="classelc_1_1defs_1_1base_1_1build__by__get__only.html" target="_top" xlink:title=" ">
<polygon fill="white" stroke="#666666" points="184,-30 77,-30 77,0 184,0 184,-30"/>
<text text-anchor="start" x="85" y="-18" font-family="Helvetica,sans-Serif" font-size="10.00">elc::defs::base::build</text>
<text text-anchor="middle" x="130.5" y="-7" font-family="Helvetica,sans-Serif" font-size="10.00">_by_get_only</text>
</a>
</g>
</g>
<!-- Node12&#45;&gt;Node10 -->
<g id="edge11" class="edge">
<title>Node12&#45;&gt;Node10</title>
<path fill="none" stroke="#63b8ff" d="M194.21,-24.16C227.13,-28.97 266.99,-34.8 298.22,-39.36"/>
<polygon fill="#63b8ff" stroke="#63b8ff" points="194.64,-20.69 184.23,-22.71 193.62,-27.61 194.64,-20.69"/>
</g>
<!-- Node13 -->
<g id="node13" class="node">
<title>Node13</title>
<g id="a_node13"><a xlink:title=" ">
<polygon fill="white" stroke="#666666" points="1061,-123.5 941,-123.5 941,-104.5 1061,-104.5 1061,-123.5"/>
<text text-anchor="middle" x="1001" y="-111.5" font-family="Helvetica,sans-Serif" font-size="10.00">instance_struct&lt; expr &gt;</text>
</a>
</g>
</g>
<!-- Node13&#45;&gt;Node1 -->
<g id="edge12" class="edge">
<title>Node13&#45;&gt;Node1</title>
<path fill="none" stroke="#63b8ff" d="M1071.16,-119.66C1080.06,-120.39 1089.05,-121.13 1097.59,-121.83"/>
<polygon fill="#63b8ff" stroke="#63b8ff" points="1071.42,-116.17 1061.16,-118.85 1070.85,-123.15 1071.42,-116.17"/>
</g>
</g>
</svg>
