<?xml version="1.0" encoding="UTF-8" standalone="no"?>
<!DOCTYPE svg PUBLIC "-//W3C//DTD SVG 1.1//EN"
 "http://www.w3.org/Graphics/SVG/1.1/DTD/svg11.dtd">
<!-- Generated by graphviz version 6.0.1 (20220911.1526)
 -->
<!-- Title: elc::defs::base::array_like_n::array_like_view_t::begin Pages: 1 -->
<svg width="295pt" height="506pt"
 viewBox="0.00 0.00 295.00 505.50" xmlns="http://www.w3.org/2000/svg" xmlns:xlink="http://www.w3.org/1999/xlink">
<g id="graph0" class="graph" transform="scale(1 1) rotate(0) translate(4 501.5)">
<title>elc::defs::base::array_like_n::array_like_view_t::begin</title>
<!-- Node1 -->
<g id="node1" class="node">
<title>Node1</title>
<g id="a_node1"><a xlink:title=" ">
<polygon fill="#999999" stroke="#666666" points="287,-251.5 168,-251.5 168,-210.5 287,-210.5 287,-251.5"/>
<text text-anchor="start" x="176" y="-239.5" font-family="Helvetica,sans-Serif" font-size="10.00">elc::defs::base::array</text>
<text text-anchor="start" x="176" y="-228.5" font-family="Helvetica,sans-Serif" font-size="10.00">_like_n::array_like_view</text>
<text text-anchor="middle" x="227.5" y="-217.5" font-family="Helvetica,sans-Serif" font-size="10.00">_t::begin</text>
</a>
</g>
</g>
<!-- Node2 -->
<g id="node2" class="node">
<title>Node2</title>
<g id="a_node2"><a xlink:href="namespaceelc_1_1defs_1_1base_1_1range__n.html#a1acc3f8449649b44d4ba4adc53be00e7" target="_top" xlink:title="若成功找到不匹配的数据项，返回其距离开头的步数，若未找到，返回npos">
<polygon fill="white" stroke="#666666" points="121,-479.5 11,-479.5 11,-438.5 121,-438.5 121,-479.5"/>
<text text-anchor="start" x="19" y="-467.5" font-family="Helvetica,sans-Serif" font-size="10.00">elc::defs::base::range</text>
<text text-anchor="start" x="19" y="-456.5" font-family="Helvetica,sans-Serif" font-size="10.00">_n::find_first_not_of</text>
<text text-anchor="middle" x="66" y="-445.5" font-family="Helvetica,sans-Serif" font-size="10.00">_size_t</text>
</a>
</g>
</g>
<!-- Node1&#45;&gt;Node2 -->
<g id="edge1" class="edge">
<title>Node1&#45;&gt;Node2</title>
<path fill="none" stroke="#63b8ff" d="M219.02,-261.46C207.18,-303.99 180.33,-381.29 132,-429 128.46,-432.49 124.44,-435.63 120.18,-438.43"/>
<polygon fill="#63b8ff" stroke="#63b8ff" points="222.44,-262.25 221.65,-251.69 215.68,-260.44 222.44,-262.25"/>
</g>
<!-- Node3 -->
<g id="node3" class="node">
<title>Node3</title>
<g id="a_node3"><a xlink:href="namespaceelc_1_1defs_1_1base_1_1range__n.html#a885b44667becc0b12424b80427b1fb33" target="_top" xlink:title="若成功找到匹配的数据项，返回其距离开头的步数，若未找到，返回npos">
<polygon fill="white" stroke="#666666" points="122.5,-402 9.5,-402 9.5,-372 122.5,-372 122.5,-402"/>
<text text-anchor="start" x="17.5" y="-390" font-family="Helvetica,sans-Serif" font-size="10.00">elc::defs::base::range</text>
<text text-anchor="middle" x="66" y="-379" font-family="Helvetica,sans-Serif" font-size="10.00">_n::find_first_of_size_t</text>
</a>
</g>
</g>
<!-- Node1&#45;&gt;Node3 -->
<g id="edge3" class="edge">
<title>Node1&#45;&gt;Node3</title>
<path fill="none" stroke="#63b8ff" d="M211.91,-260.89C196.02,-290.58 167.99,-335.55 132,-363 127.5,-366.43 122.47,-369.41 117.24,-371.99"/>
<polygon fill="#63b8ff" stroke="#63b8ff" points="215.12,-262.31 216.64,-251.82 208.91,-259.07 215.12,-262.31"/>
</g>
<!-- Node4 -->
<g id="node4" class="node">
<title>Node4</title>
<g id="a_node4"><a xlink:href="namespaceelc_1_1defs_1_1base_1_1range__n.html#a5a03c47024fc946bd206c626c755d01e" target="_top" xlink:title="若成功找到不匹配的数据项，返回其距离开头的步数，若未找到，返回npos">
<polygon fill="white" stroke="#666666" points="132,-336 0,-336 0,-306 132,-306 132,-336"/>
<text text-anchor="start" x="8" y="-324" font-family="Helvetica,sans-Serif" font-size="10.00">elc::defs::base::range</text>
<text text-anchor="middle" x="66" y="-313" font-family="Helvetica,sans-Serif" font-size="10.00">_n::find_last_not_of_size_t</text>
</a>
</g>
</g>
<!-- Node1&#45;&gt;Node4 -->
<g id="edge5" class="edge">
<title>Node1&#45;&gt;Node4</title>
<path fill="none" stroke="#63b8ff" d="M192.61,-257.85C175.17,-270.82 153.18,-285.93 132,-297 125.82,-300.23 119.1,-303.23 112.41,-305.94"/>
<polygon fill="#63b8ff" stroke="#63b8ff" points="194.9,-260.5 200.77,-251.68 190.68,-254.91 194.9,-260.5"/>
</g>
<!-- Node5 -->
<g id="node5" class="node">
<title>Node5</title>
<g id="a_node5"><a xlink:href="namespaceelc_1_1defs_1_1base_1_1range__n.html#a67bc8bf901f9fde202c8a61db93221c3" target="_top" xlink:title="若成功找到匹配的数据项，返回其距离开头的步数，若未找到，返回npos">
<polygon fill="white" stroke="#666666" points="122.5,-270 9.5,-270 9.5,-240 122.5,-240 122.5,-270"/>
<text text-anchor="start" x="17.5" y="-258" font-family="Helvetica,sans-Serif" font-size="10.00">elc::defs::base::range</text>
<text text-anchor="middle" x="66" y="-247" font-family="Helvetica,sans-Serif" font-size="10.00">_n::find_last_of_size_t</text>
</a>
</g>
</g>
<!-- Node1&#45;&gt;Node5 -->
<g id="edge7" class="edge">
<title>Node1&#45;&gt;Node5</title>
<path fill="none" stroke="#63b8ff" d="M157.42,-241.39C145.75,-243.15 133.78,-244.95 122.52,-246.65"/>
<polygon fill="#63b8ff" stroke="#63b8ff" points="158.19,-244.82 167.56,-239.87 157.15,-237.9 158.19,-244.82"/>
</g>
<!-- Node6 -->
<g id="node6" class="node">
<title>Node6</title>
<g id="a_node6"><a xlink:href="namespaceelc_1_1defs_1_1base_1_1range__n.html#a9cb7c2ca09bd752a8a3bd78f792bd259" target="_top" xlink:title="若成功找到匹配的数据串，返回其开头，若未找到，返回nullptr">
<polygon fill="white" stroke="#666666" points="121,-222 11,-222 11,-192 121,-192 121,-222"/>
<text text-anchor="start" x="19" y="-210" font-family="Helvetica,sans-Serif" font-size="10.00">elc::defs::base::range</text>
<text text-anchor="middle" x="66" y="-199" font-family="Helvetica,sans-Serif" font-size="10.00">_n::in_range</text>
</a>
</g>
</g>
<!-- Node1&#45;&gt;Node6 -->
<g id="edge9" class="edge">
<title>Node1&#45;&gt;Node6</title>
<path fill="none" stroke="#63b8ff" d="M157.47,-220.61C145.34,-218.79 132.87,-216.91 121.21,-215.16"/>
<polygon fill="#63b8ff" stroke="#63b8ff" points="157.15,-224.1 167.56,-222.13 158.19,-217.18 157.15,-224.1"/>
</g>
<!-- Node7 -->
<g id="node7" class="node">
<title>Node7</title>
<g id="a_node7"><a xlink:href="namespaceelc_1_1defs_1_1base_1_1range__n.html#a7de35b587745884ffb0468a9551ee579" target="_top" xlink:title="若成功找到匹配的数据串，返回其开头，若未找到，返回nullptr">
<polygon fill="white" stroke="#666666" points="128.5,-174 3.5,-174 3.5,-144 128.5,-144 128.5,-174"/>
<text text-anchor="start" x="11.5" y="-162" font-family="Helvetica,sans-Serif" font-size="10.00">elc::defs::base::range</text>
<text text-anchor="middle" x="66" y="-151" font-family="Helvetica,sans-Serif" font-size="10.00">_n::in_range_but_reverse</text>
</a>
</g>
</g>
<!-- Node1&#45;&gt;Node7 -->
<g id="edge10" class="edge">
<title>Node1&#45;&gt;Node7</title>
<path fill="none" stroke="#63b8ff" d="M179.31,-205.67C164.35,-198.01 147.64,-189.83 132,-183 124.94,-179.92 117.35,-176.88 109.94,-174.05"/>
<polygon fill="#63b8ff" stroke="#63b8ff" points="177.87,-208.87 188.36,-210.35 181.09,-202.65 177.87,-208.87"/>
</g>
<!-- Node8 -->
<g id="node8" class="node">
<title>Node8</title>
<g id="a_node8"><a xlink:href="namespaceelc_1_1defs_1_1base_1_1range__n.html#a75e2fce9974e6518db0bb9380f9c315a" target="_top" xlink:title="若成功找到匹配的数据项，返回其距离开头的步数，若未找到，返回npos">
<polygon fill="white" stroke="#666666" points="128.5,-107.5 3.5,-107.5 3.5,-66.5 128.5,-66.5 128.5,-107.5"/>
<text text-anchor="start" x="11.5" y="-95.5" font-family="Helvetica,sans-Serif" font-size="10.00">elc::defs::base::range</text>
<text text-anchor="start" x="11.5" y="-84.5" font-family="Helvetica,sans-Serif" font-size="10.00">_n::in_range_but_reverse</text>
<text text-anchor="middle" x="66" y="-73.5" font-family="Helvetica,sans-Serif" font-size="10.00">_size_t</text>
</a>
</g>
</g>
<!-- Node1&#45;&gt;Node8 -->
<g id="edge11" class="edge">
<title>Node1&#45;&gt;Node8</title>
<path fill="none" stroke="#63b8ff" d="M200.9,-202.73C182.48,-182.96 156.64,-156.38 132,-135 120.98,-125.44 108.19,-115.72 96.88,-107.56"/>
<polygon fill="#63b8ff" stroke="#63b8ff" points="198.47,-205.25 207.83,-210.21 203.61,-200.5 198.47,-205.25"/>
</g>
<!-- Node9 -->
<g id="node9" class="node">
<title>Node9</title>
<g id="a_node9"><a xlink:href="namespaceelc_1_1defs_1_1base_1_1range__n.html#acffb115b660e87c56a876ccc1ae04c39" target="_top" xlink:title="若成功找到匹配的数据项，返回其距离开头的步数，若未找到，返回npos">
<polygon fill="white" stroke="#666666" points="121,-30 11,-30 11,0 121,0 121,-30"/>
<text text-anchor="start" x="19" y="-18" font-family="Helvetica,sans-Serif" font-size="10.00">elc::defs::base::range</text>
<text text-anchor="middle" x="66" y="-7" font-family="Helvetica,sans-Serif" font-size="10.00">_n::in_range_size_t</text>
</a>
</g>
</g>
<!-- Node1&#45;&gt;Node9 -->
<g id="edge13" class="edge">
<title>Node1&#45;&gt;Node9</title>
<path fill="none" stroke="#63b8ff" d="M215.24,-200.65C200.44,-163.75 171.58,-101.07 132,-58 121.84,-46.94 108.27,-37.39 96.16,-30.11"/>
<polygon fill="#63b8ff" stroke="#63b8ff" points="212.13,-202.31 219.04,-210.34 218.65,-199.75 212.13,-202.31"/>
</g>
<!-- Node2&#45;&gt;Node2 -->
<g id="edge2" class="edge">
<title>Node2&#45;&gt;Node2</title>
<path fill="none" stroke="#63b8ff" d="M93.79,-489.46C89.65,-494.24 80.39,-497.5 66,-497.5 42.97,-497.5 33.08,-489.15 36.32,-479.6"/>
<polygon fill="#63b8ff" stroke="#63b8ff" points="97.23,-490.08 95.68,-479.6 90.36,-488.76 97.23,-490.08"/>
</g>
<!-- Node3&#45;&gt;Node3 -->
<g id="edge4" class="edge">
<title>Node3&#45;&gt;Node3</title>
<path fill="none" stroke="#63b8ff" d="M94.27,-412.6C90.41,-416.97 80.98,-420 66,-420 40.77,-420 31.3,-411.41 37.61,-402.28"/>
<polygon fill="#63b8ff" stroke="#63b8ff" points="97.77,-412.32 94.39,-402.28 90.77,-412.23 97.77,-412.32"/>
</g>
<!-- Node4&#45;&gt;Node4 -->
<g id="edge6" class="edge">
<title>Node4&#45;&gt;Node4</title>
<path fill="none" stroke="#63b8ff" d="M94.27,-346.6C90.41,-350.97 80.98,-354 66,-354 40.77,-354 31.3,-345.41 37.61,-336.28"/>
<polygon fill="#63b8ff" stroke="#63b8ff" points="97.77,-346.32 94.39,-336.28 90.77,-346.23 97.77,-346.32"/>
</g>
<!-- Node5&#45;&gt;Node5 -->
<g id="edge8" class="edge">
<title>Node5&#45;&gt;Node5</title>
<path fill="none" stroke="#63b8ff" d="M94.27,-280.6C90.41,-284.97 80.98,-288 66,-288 40.77,-288 31.3,-279.41 37.61,-270.28"/>
<polygon fill="#63b8ff" stroke="#63b8ff" points="97.77,-280.32 94.39,-270.28 90.77,-280.23 97.77,-280.32"/>
</g>
<!-- Node8&#45;&gt;Node8 -->
<g id="edge12" class="edge">
<title>Node8&#45;&gt;Node8</title>
<path fill="none" stroke="#63b8ff" d="M93.79,-117.46C89.65,-122.24 80.39,-125.5 66,-125.5 42.97,-125.5 33.08,-117.15 36.32,-107.6"/>
<polygon fill="#63b8ff" stroke="#63b8ff" points="97.23,-118.08 95.68,-107.6 90.36,-116.76 97.23,-118.08"/>
</g>
<!-- Node9&#45;&gt;Node9 -->
<g id="edge14" class="edge">
<title>Node9&#45;&gt;Node9</title>
<path fill="none" stroke="#63b8ff" d="M94.27,-40.6C90.41,-44.97 80.98,-48 66,-48 40.77,-48 31.3,-39.41 37.61,-30.28"/>
<polygon fill="#63b8ff" stroke="#63b8ff" points="97.77,-40.32 94.39,-30.28 90.77,-40.23 97.77,-40.32"/>
</g>
</g>
</svg>
