<?xml version="1.0" encoding="UTF-8" standalone="no"?>
<!DOCTYPE svg PUBLIC "-//W3C//DTD SVG 1.1//EN"
 "http://www.w3.org/Graphics/SVG/1.1/DTD/svg11.dtd">
<!-- Generated by graphviz version 6.0.1 (20220911.1526)
 -->
<!-- Title: elc::defs::base::type_info_t&lt; T &gt;::with_special_attribute&lt; special_attribute_names &gt;::and_common_attribute&lt; common_attribute_names &gt; Pages: 1 -->
<svg width="330pt" height="86pt"
 viewBox="0.00 0.00 330.00 86.00" xmlns="http://www.w3.org/2000/svg" xmlns:xlink="http://www.w3.org/1999/xlink">
<g id="graph0" class="graph" transform="scale(1 1) rotate(0) translate(4 82)">
<title>elc::defs::base::type_info_t&lt; T &gt;::with_special_attribute&lt; special_attribute_names &gt;::and_common_attribute&lt; common_attribute_names &gt;</title>
<!-- Node1 -->
<g id="node1" class="node">
<title>Node1</title>
<g id="a_node1"><a xlink:title=" ">
<polygon fill="#999999" stroke="#666666" points="322,-70.5 157,-70.5 157,-7.5 322,-7.5 322,-70.5"/>
<text text-anchor="start" x="165" y="-58.5" font-family="Helvetica,sans-Serif" font-size="10.00">elc::defs::base::type</text>
<text text-anchor="start" x="165" y="-47.5" font-family="Helvetica,sans-Serif" font-size="10.00">_info_t&lt; T &gt;::with_special</text>
<text text-anchor="start" x="165" y="-36.5" font-family="Helvetica,sans-Serif" font-size="10.00">_attribute&lt; special_attribute</text>
<text text-anchor="start" x="165" y="-25.5" font-family="Helvetica,sans-Serif" font-size="10.00">_names &gt;::and_common_attribute</text>
<text text-anchor="middle" x="239.5" y="-14.5" font-family="Helvetica,sans-Serif" font-size="10.00">&lt; common_attribute_names &gt;</text>
</a>
</g>
</g>
<!-- Node2 -->
<g id="node2" class="node">
<title>Node2</title>
<g id="a_node2"><a xlink:title=" ">
<polygon fill="white" stroke="#666666" points="121,-78 0,-78 0,-48 121,-48 121,-78"/>
<text text-anchor="start" x="8" y="-66" font-family="Helvetica,sans-Serif" font-size="10.00">special_attribute_pack</text>
<text text-anchor="middle" x="60.5" y="-55" font-family="Helvetica,sans-Serif" font-size="10.00">::template on_type&lt; T &gt;</text>
</a>
</g>
</g>
<!-- Node2&#45;&gt;Node1 -->
<g id="edge1" class="edge">
<title>Node2&#45;&gt;Node1</title>
<path fill="none" stroke="#63b8ff" d="M131.5,-53.51C139.86,-52.37 148.46,-51.21 156.98,-50.05"/>
<polygon fill="#63b8ff" stroke="#63b8ff" points="130.86,-50.06 121.42,-54.87 131.8,-57 130.86,-50.06"/>
</g>
<!-- Node3 -->
<g id="node3" class="node">
<title>Node3</title>
<g id="a_node3"><a xlink:title=" ">
<polygon fill="white" stroke="#666666" points="121,-30 0,-30 0,0 121,0 121,-30"/>
<text text-anchor="start" x="8" y="-18" font-family="Helvetica,sans-Serif" font-size="10.00">common_attribute_pack</text>
<text text-anchor="middle" x="60.5" y="-7" font-family="Helvetica,sans-Serif" font-size="10.00">::template on_type&lt; T &gt;</text>
</a>
</g>
</g>
<!-- Node3&#45;&gt;Node1 -->
<g id="edge2" class="edge">
<title>Node3&#45;&gt;Node1</title>
<path fill="none" stroke="#63b8ff" d="M131.5,-24.49C139.86,-25.63 148.46,-26.79 156.98,-27.95"/>
<polygon fill="#63b8ff" stroke="#63b8ff" points="131.8,-21 121.42,-23.13 130.86,-27.94 131.8,-21"/>
</g>
</g>
</svg>
