<?xml version="1.0" encoding="UTF-8" standalone="no"?>
<!DOCTYPE svg PUBLIC "-//W3C//DTD SVG 1.1//EN"
 "http://www.w3.org/Graphics/SVG/1.1/DTD/svg11.dtd">
<!-- Generated by graphviz version 6.0.1 (20220911.1526)
 -->
<!-- Title: elc::defs::core::code_list Pages: 1 -->
<!--zoomable 228 -->
<svg id="main" version="1.1" xmlns="http://www.w3.org/2000/svg" xmlns:xlink="http://www.w3.org/1999/xlink" xml:space="preserve" onload="init(evt)">
<style type="text/css"><![CDATA[
.edge:hover path { stroke: red; }
.edge:hover polygon { stroke: red; fill: red; }
]]></style>
<script type="text/javascript"><![CDATA[
var edges = document.getElementsByTagName('g');
if (edges && edges.length) {
  for (var i=0;i<edges.length;i++) {
    if (edges[i].id.substr(0,4)=='edge') {
      edges[i].setAttribute('class','edge');
    }
  }
}
]]></script>
        <defs>
                <circle id="rim" cx="0" cy="0" r="7"/>
                <circle id="rim2" cx="0" cy="0" r="3.5"/>
                <g id="zoomPlus">
                        <use xlink:href="#rim" fill="#404040">
                                <set attributeName="fill" to="#808080" begin="zoomplus.mouseover" end="zoomplus.mouseout"/>
                        </use>
                        <path d="M-4,0h8M0,-4v8" fill="none" stroke="white" stroke-width="1.5" pointer-events="none"/>
                </g>
                <g id="zoomMin">
                        <use xlink:href="#rim" fill="#404040">
                                <set attributeName="fill" to="#808080" begin="zoomminus.mouseover" end="zoomminus.mouseout"/>
                        </use>
                        <path d="M-4,0h8" fill="none" stroke="white" stroke-width="1.5" pointer-events="none"/>
                </g>
                <g id="dirArrow">
                        <path fill="none" stroke="white" stroke-width="1.5" d="M0,-3.0v7 M-2.5,-0.5L0,-3.0L2.5,-0.5"/>
                </g>
               <g id="resetDef">
                       <use xlink:href="#rim2" fill="#404040">
                               <set attributeName="fill" to="#808080" begin="reset.mouseover" end="reset.mouseout"/>
                       </use>
               </g>
        </defs>

<script type="text/javascript">
var viewWidth = 1222;
var viewHeight = 228;
var sectionId = 'dynsection-1';
</script>
<script xlink:href="svgpan.js"/>
<svg id="graph" class="graph">
<g id="viewport">
<title>elc::defs::core::code_list</title>
<!-- Node1 -->
<g id="node1" class="node">
<title>Node1</title>
<g id="a_node1"><a xlink:title=" ">
<polygon fill="#999999" stroke="#666666" points="1214,-129.5 1091,-129.5 1091,-110.5 1214,-110.5 1214,-129.5"/>
<text text-anchor="middle" x="1152.5" y="-117.5" font-family="Helvetica,sans-Serif" font-size="10.00">elc::defs::core::code_list</text>
</a>
</g>
</g>
<!-- Node2 -->
<g id="node2" class="node">
<title>Node2</title>
<g id="a_node2"><a xlink:href="structelc_1_1defs_1_1core_1_1cons.html" target="_top" xlink:title=" ">
<polygon fill="white" stroke="#666666" points="1050,-160.5 945,-160.5 945,-141.5 1050,-141.5 1050,-160.5"/>
<text text-anchor="middle" x="997.5" y="-148.5" font-family="Helvetica,sans-Serif" font-size="10.00">elc::defs::core::cons</text>
</a>
</g>
</g>
<!-- Node2&#45;&gt;Node1 -->
<g id="edge1" class="edge">
<title>Node2&#45;&gt;Node1</title>
<path fill="none" stroke="#63b8ff" d="M1055.51,-139.45C1071.65,-136.18 1089.03,-132.66 1104.5,-129.52"/>
<polygon fill="#63b8ff" stroke="#63b8ff" points="1054.76,-136.03 1045.65,-141.45 1056.15,-142.89 1054.76,-136.03"/>
</g>
<!-- Node3 -->
<g id="node3" class="node">
<title>Node3</title>
<g id="a_node3"><a xlink:href="structelc_1_1defs_1_1core_1_1node__like.html" target="_top" xlink:title=" ">
<polygon fill="white" stroke="#666666" points="883,-197.5 758,-197.5 758,-178.5 883,-178.5 883,-197.5"/>
<text text-anchor="middle" x="820.5" y="-185.5" font-family="Helvetica,sans-Serif" font-size="10.00">elc::defs::core::node_like</text>
</a>
</g>
</g>
<!-- Node3&#45;&gt;Node2 -->
<g id="edge2" class="edge">
<title>Node3&#45;&gt;Node2</title>
<path fill="none" stroke="#63b8ff" d="M876.61,-176.35C900.65,-171.27 928.49,-165.38 951.28,-160.56"/>
<polygon fill="#63b8ff" stroke="#63b8ff" points="875.63,-172.98 866.57,-178.47 877.07,-179.83 875.63,-172.98"/>
</g>
<!-- Node4 -->
<g id="node4" class="node">
<title>Node4</title>
<g id="a_node4"><a xlink:title=" ">
<polygon fill="white" stroke="#666666" points="679,-219.5 442,-219.5 442,-156.5 679,-156.5 679,-219.5"/>
<text text-anchor="start" x="450" y="-207.5" font-family="Helvetica,sans-Serif" font-size="10.00">type_info_t&lt; node_like</text>
<text text-anchor="middle" x="560.5" y="-196.5" font-family="Helvetica,sans-Serif" font-size="10.00"> &gt;:: template </text>
<text text-anchor="start" x="450" y="-185.5" font-family="Helvetica,sans-Serif" font-size="10.00">					with_common_attribute</text>
<text text-anchor="start" x="450" y="-174.5" font-family="Helvetica,sans-Serif" font-size="10.00">&lt; abstract_base, weak_ref</text>
<text text-anchor="middle" x="560.5" y="-163.5" font-family="Helvetica,sans-Serif" font-size="10.00">_able, replace_able, ref_able &gt;</text>
</a>
</g>
</g>
<!-- Node4&#45;&gt;Node3 -->
<g id="edge3" class="edge">
<title>Node4&#45;&gt;Node3</title>
<path fill="none" stroke="#63b8ff" d="M689.36,-188C713.17,-188 737.02,-188 757.69,-188"/>
<polygon fill="#63b8ff" stroke="#63b8ff" points="689.18,-184.5 679.18,-188 689.18,-191.5 689.18,-184.5"/>
</g>
<!-- Node5 -->
<g id="node5" class="node">
<title>Node5</title>
<g id="a_node5"><a xlink:title=" ">
<polygon fill="white" stroke="#666666" points="881.5,-160.5 759.5,-160.5 759.5,-141.5 881.5,-141.5 881.5,-160.5"/>
<text text-anchor="middle" x="820.5" y="-148.5" font-family="Helvetica,sans-Serif" font-size="10.00">instance_struct&lt; cons &gt;</text>
</a>
</g>
</g>
<!-- Node5&#45;&gt;Node2 -->
<g id="edge4" class="edge">
<title>Node5&#45;&gt;Node2</title>
<path fill="none" stroke="#63b8ff" d="M892,-151C909.69,-151 928.34,-151 944.91,-151"/>
<polygon fill="#63b8ff" stroke="#63b8ff" points="891.73,-147.5 881.73,-151 891.73,-154.5 891.73,-147.5"/>
</g>
<!-- Node6 -->
<g id="node6" class="node">
<title>Node6</title>
<g id="a_node6"><a xlink:href="structelc_1_1defs_1_1core_1_1value.html" target="_top" xlink:title=" ">
<polygon fill="white" stroke="#666666" points="873.5,-123.5 767.5,-123.5 767.5,-104.5 873.5,-104.5 873.5,-123.5"/>
<text text-anchor="middle" x="820.5" y="-111.5" font-family="Helvetica,sans-Serif" font-size="10.00">elc::defs::core::value</text>
</a>
</g>
</g>
<!-- Node6&#45;&gt;Node2 -->
<g id="edge5" class="edge">
<title>Node6&#45;&gt;Node2</title>
<path fill="none" stroke="#9a32cd" stroke-dasharray="5,2" d="M883.9,-118.15C896.93,-119.74 910.5,-121.95 923,-125 931.34,-127.04 932.94,-129.05 941,-132 949.7,-135.18 959.23,-138.5 967.9,-141.46"/>
<polygon fill="#9a32cd" stroke="#9a32cd" points="883.92,-114.63 873.59,-117 883.14,-121.59 883.92,-114.63"/>
<text text-anchor="middle" x="912" y="-139" font-family="Helvetica,sans-Serif" font-size="10.00"> _car</text>
<text text-anchor="middle" x="912" y="-128" font-family="Helvetica,sans-Serif" font-size="10.00">_cdr</text>
</g>
<!-- Node7 -->
<g id="node7" class="node">
<title>Node7</title>
<g id="a_node7"><a xlink:href="structelc_1_1defs_1_1base_1_1non__copy__assign__able.html" target="_top" xlink:title=" ">
<polygon fill="white" stroke="#666666" points="611.5,-134 509.5,-134 509.5,-104 611.5,-104 611.5,-134"/>
<text text-anchor="start" x="517.5" y="-122" font-family="Helvetica,sans-Serif" font-size="10.00">elc::defs::base::non</text>
<text text-anchor="middle" x="560.5" y="-111" font-family="Helvetica,sans-Serif" font-size="10.00">_copy_assign_able</text>
</a>
</g>
</g>
<!-- Node7&#45;&gt;Node6 -->
<g id="edge6" class="edge">
<title>Node7&#45;&gt;Node6</title>
<path fill="none" stroke="#63b8ff" d="M621.58,-117.84C665.76,-116.98 725.2,-115.83 767.38,-115.01"/>
<polygon fill="#63b8ff" stroke="#63b8ff" points="621.48,-114.34 611.55,-118.03 621.62,-121.34 621.48,-114.34"/>
</g>
<!-- Node8 -->
<g id="node8" class="node">
<title>Node8</title>
<g id="a_node8"><a xlink:href="structelc_1_1defs_1_1core_1_1value_1_1null__data__t.html" target="_top" xlink:title=" ">
<polygon fill="white" stroke="#666666" points="613.5,-86 507.5,-86 507.5,-56 613.5,-56 613.5,-86"/>
<text text-anchor="start" x="515.5" y="-74" font-family="Helvetica,sans-Serif" font-size="10.00">elc::defs::core::value</text>
<text text-anchor="middle" x="560.5" y="-63" font-family="Helvetica,sans-Serif" font-size="10.00">::null_data_t</text>
</a>
</g>
</g>
<!-- Node8&#45;&gt;Node6 -->
<g id="edge7" class="edge">
<title>Node8&#45;&gt;Node6</title>
<path fill="none" stroke="#9a32cd" stroke-dasharray="5,2" d="M623.74,-80.91C658.06,-86.42 701.4,-93.47 740,-100 748.84,-101.5 758.23,-103.12 767.35,-104.71"/>
<polygon fill="#9a32cd" stroke="#9a32cd" points="624.29,-77.45 613.86,-79.32 623.18,-84.36 624.29,-77.45"/>
<text text-anchor="middle" x="718.5" y="-103" font-family="Helvetica,sans-Serif" font-size="10.00"> null_data</text>
</g>
<!-- Node9 -->
<g id="node9" class="node">
<title>Node9</title>
<g id="a_node9"><a xlink:title=" ">
<polygon fill="white" stroke="#666666" points="405,-110 298,-110 298,-80 405,-80 405,-110"/>
<text text-anchor="start" x="306" y="-98" font-family="Helvetica,sans-Serif" font-size="10.00">instance_struct&lt; null</text>
<text text-anchor="middle" x="351.5" y="-87" font-family="Helvetica,sans-Serif" font-size="10.00">_data_t &gt;</text>
</a>
</g>
</g>
<!-- Node9&#45;&gt;Node8 -->
<g id="edge8" class="edge">
<title>Node9&#45;&gt;Node8</title>
<path fill="none" stroke="#63b8ff" d="M415.19,-87.73C444.67,-84.31 479.41,-80.29 507.41,-77.04"/>
<polygon fill="#63b8ff" stroke="#63b8ff" points="414.53,-84.28 405,-88.91 415.34,-91.24 414.53,-84.28"/>
</g>
<!-- Node10 -->
<g id="node10" class="node">
<title>Node10</title>
<g id="a_node10"><a xlink:href="structelc_1_1defs_1_1core_1_1value_1_1base__data__t.html" target="_top" xlink:title=" ">
<polygon fill="white" stroke="#666666" points="404.5,-62 298.5,-62 298.5,-32 404.5,-32 404.5,-62"/>
<text text-anchor="start" x="306.5" y="-50" font-family="Helvetica,sans-Serif" font-size="10.00">elc::defs::core::value</text>
<text text-anchor="middle" x="351.5" y="-39" font-family="Helvetica,sans-Serif" font-size="10.00">::base_data_t</text>
</a>
</g>
</g>
<!-- Node10&#45;&gt;Node8 -->
<g id="edge9" class="edge">
<title>Node10&#45;&gt;Node8</title>
<path fill="none" stroke="#63b8ff" d="M414.92,-54.24C444.41,-57.66 479.21,-61.69 507.28,-64.95"/>
<polygon fill="#63b8ff" stroke="#63b8ff" points="415.07,-50.73 404.73,-53.06 414.27,-57.68 415.07,-50.73"/>
</g>
<!-- Node11 -->
<g id="node11" class="node">
<title>Node11</title>
<g id="a_node11"><a xlink:title=" ">
<polygon fill="white" stroke="#666666" points="261,-111.5 0,-111.5 0,-48.5 261,-48.5 261,-111.5"/>
<text text-anchor="start" x="8" y="-99.5" font-family="Helvetica,sans-Serif" font-size="10.00">type_info_t&lt; base_data</text>
<text text-anchor="middle" x="130.5" y="-88.5" font-family="Helvetica,sans-Serif" font-size="10.00">_t &gt;:: template </text>
<text text-anchor="start" x="8" y="-77.5" font-family="Helvetica,sans-Serif" font-size="10.00">						with_common_attribute</text>
<text text-anchor="start" x="8" y="-66.5" font-family="Helvetica,sans-Serif" font-size="10.00">&lt; abstract_base, ref_able,</text>
<text text-anchor="middle" x="130.5" y="-55.5" font-family="Helvetica,sans-Serif" font-size="10.00"> never_in_array, replace_able &gt;</text>
</a>
</g>
</g>
<!-- Node11&#45;&gt;Node10 -->
<g id="edge10" class="edge">
<title>Node11&#45;&gt;Node10</title>
<path fill="none" stroke="#63b8ff" d="M271.16,-58.96C280.7,-57.52 289.91,-56.13 298.47,-54.84"/>
<polygon fill="#63b8ff" stroke="#63b8ff" points="270.48,-55.52 261.11,-60.47 271.52,-62.44 270.48,-55.52"/>
</g>
<!-- Node12 -->
<g id="node12" class="node">
<title>Node12</title>
<g id="a_node12"><a xlink:href="classelc_1_1defs_1_1base_1_1build__by__get__only.html" target="_top" xlink:title=" ">
<polygon fill="white" stroke="#666666" points="184,-30 77,-30 77,0 184,0 184,-30"/>
<text text-anchor="start" x="85" y="-18" font-family="Helvetica,sans-Serif" font-size="10.00">elc::defs::base::build</text>
<text text-anchor="middle" x="130.5" y="-7" font-family="Helvetica,sans-Serif" font-size="10.00">_by_get_only</text>
</a>
</g>
</g>
<!-- Node12&#45;&gt;Node10 -->
<g id="edge11" class="edge">
<title>Node12&#45;&gt;Node10</title>
<path fill="none" stroke="#63b8ff" d="M194.21,-24.16C227.13,-28.97 266.99,-34.8 298.22,-39.36"/>
<polygon fill="#63b8ff" stroke="#63b8ff" points="194.64,-20.69 184.23,-22.71 193.62,-27.61 194.64,-20.69"/>
</g>
<!-- Node13 -->
<g id="node13" class="node">
<title>Node13</title>
<g id="a_node13"><a xlink:title=" ">
<polygon fill="white" stroke="#666666" points="1054,-123 941,-123 941,-93 1054,-93 1054,-123"/>
<text text-anchor="start" x="949" y="-111" font-family="Helvetica,sans-Serif" font-size="10.00">instance_struct&lt; code</text>
<text text-anchor="middle" x="997.5" y="-100" font-family="Helvetica,sans-Serif" font-size="10.00">_list &gt;</text>
</a>
</g>
</g>
<!-- Node13&#45;&gt;Node1 -->
<g id="edge12" class="edge">
<title>Node13&#45;&gt;Node1</title>
<path fill="none" stroke="#63b8ff" d="M1064.41,-113.17C1073.23,-113.86 1082.24,-114.57 1090.97,-115.25"/>
<polygon fill="#63b8ff" stroke="#63b8ff" points="1064.41,-109.66 1054.17,-112.37 1063.87,-116.64 1064.41,-109.66"/>
</g>
</g>
</svg>
        <g id="navigator" transform="translate(0 0)" fill="#404254">
                <rect fill="#f2f5e9" fill-opacity="0.5" stroke="#606060" stroke-width=".5" x="0" y="0" width="60" height="60"/>
                <use id="zoomplus" xlink:href="#zoomPlus" x="17" y="9" onmousedown="handleZoom(evt,'in')"/>
                <use id="zoomminus" xlink:href="#zoomMin" x="42" y="9" onmousedown="handleZoom(evt,'out')"/>
                <use id="reset" xlink:href="#resetDef" x="30" y="36" onmousedown="handleReset()"/>
                <g id="arrowUp" xlink:href="#dirArrow" transform="translate(30 24)" onmousedown="handlePan(0,-1)">
                  <use xlink:href="#rim" fill="#404040">
                        <set attributeName="fill" to="#808080" begin="arrowUp.mouseover" end="arrowUp.mouseout"/>
                  </use>
                  <path fill="none" stroke="white" stroke-width="1.5" d="M0,-3.0v7 M-2.5,-0.5L0,-3.0L2.5,-0.5"/>
                </g>
                <g id="arrowRight" xlink:href="#dirArrow" transform="rotate(90) translate(36 -43)" onmousedown="handlePan(1,0)">
                  <use xlink:href="#rim" fill="#404040">
                        <set attributeName="fill" to="#808080" begin="arrowRight.mouseover" end="arrowRight.mouseout"/>
                  </use>
                  <path fill="none" stroke="white" stroke-width="1.5" d="M0,-3.0v7 M-2.5,-0.5L0,-3.0L2.5,-0.5"/>
                </g>
                <g id="arrowDown" xlink:href="#dirArrow" transform="rotate(180) translate(-30 -48)" onmousedown="handlePan(0,1)">
                  <use xlink:href="#rim" fill="#404040">
                        <set attributeName="fill" to="#808080" begin="arrowDown.mouseover" end="arrowDown.mouseout"/>
                  </use>
                  <path fill="none" stroke="white" stroke-width="1.5" d="M0,-3.0v7 M-2.5,-0.5L0,-3.0L2.5,-0.5"/>
                </g>
                <g id="arrowLeft" xlink:href="#dirArrow" transform="rotate(270) translate(-36 17)" onmousedown="handlePan(-1,0)">
                  <use xlink:href="#rim" fill="#404040">
                        <set attributeName="fill" to="#808080" begin="arrowLeft.mouseover" end="arrowLeft.mouseout"/>
                  </use>
                  <path fill="none" stroke="white" stroke-width="1.5" d="M0,-3.0v7 M-2.5,-0.5L0,-3.0L2.5,-0.5"/>
                </g>
        </g>
        <svg viewBox="0 0 15 15" width="100%" height="30px" preserveAspectRatio="xMaxYMin meet">
         <g id="arrow_out" transform="scale(0.3 0.3)">
          <a xlink:href="structelc_1_1defs_1_1core_1_1code__list__coll__graph_org.svg" target="_base">
           <rect id="button" ry="5" rx="5" y="6" x="6" height="38" width="38"
                fill="#f2f5e9" fill-opacity="0.5" stroke="#606060" stroke-width="1.0"/>
           <path id="arrow"
             d="M 11.500037,31.436501 C 11.940474,20.09759 22.043105,11.32322 32.158766,21.979434 L 37.068811,17.246167 C 37.068811,17.246167 37.088388,32 37.088388,32 L 22.160133,31.978069 C 22.160133,31.978069 26.997745,27.140456 26.997745,27.140456 C 18.528582,18.264221 13.291696,25.230495 11.500037,31.436501 z"
             style="fill:#404040;"/>
          </a>
         </g>
        </svg>
</svg>
