<?xml version="1.0" encoding="UTF-8" standalone="no"?>
<!DOCTYPE svg PUBLIC "-//W3C//DTD SVG 1.1//EN"
 "http://www.w3.org/Graphics/SVG/1.1/DTD/svg11.dtd">
<!-- Generated by graphviz version 6.0.1 (20220911.1526)
 -->
<!-- Title: elc::defs::core::binary_node_base_t Pages: 1 -->
<svg width="610pt" height="71pt"
 viewBox="0.00 0.00 610.00 71.00" xmlns="http://www.w3.org/2000/svg" xmlns:xlink="http://www.w3.org/1999/xlink">
<g id="graph0" class="graph" transform="scale(1 1) rotate(0) translate(4 67)">
<title>elc::defs::core::binary_node_base_t</title>
<!-- Node1 -->
<g id="node1" class="node">
<title>Node1</title>
<g id="a_node1"><a xlink:title=" ">
<polygon fill="#999999" stroke="#666666" points="456,-46.5 346,-46.5 346,-16.5 456,-16.5 456,-46.5"/>
<text text-anchor="start" x="354" y="-34.5" font-family="Helvetica,sans-Serif" font-size="10.00">elc::defs::core::binary</text>
<text text-anchor="middle" x="401" y="-23.5" font-family="Helvetica,sans-Serif" font-size="10.00">_node_base_t</text>
</a>
</g>
</g>
<!-- Node4 -->
<g id="node4" class="node">
<title>Node4</title>
<g id="a_node4"><a xlink:href="structelc_1_1defs_1_1core_1_1binary__node__t.html" target="_top" xlink:title=" ">
<polygon fill="white" stroke="#666666" points="602,-46.5 492,-46.5 492,-16.5 602,-16.5 602,-46.5"/>
<text text-anchor="start" x="500" y="-34.5" font-family="Helvetica,sans-Serif" font-size="10.00">elc::defs::core::binary</text>
<text text-anchor="middle" x="547" y="-23.5" font-family="Helvetica,sans-Serif" font-size="10.00">_node_t&lt; T &gt;</text>
</a>
</g>
</g>
<!-- Node1&#45;&gt;Node4 -->
<g id="edge3" class="edge">
<title>Node1&#45;&gt;Node4</title>
<path fill="none" stroke="#63b8ff" d="M466.27,-31.5C474.75,-31.5 483.38,-31.5 491.67,-31.5"/>
<polygon fill="#63b8ff" stroke="#63b8ff" points="466.03,-28 456.03,-31.5 466.03,-35 466.03,-28"/>
</g>
<!-- Node2 -->
<g id="node2" class="node">
<title>Node2</title>
<g id="a_node2"><a xlink:href="structelc_1_1defs_1_1core_1_1node__like.html" target="_top" xlink:title=" ">
<polygon fill="white" stroke="#666666" points="310,-41 185,-41 185,-22 310,-22 310,-41"/>
<text text-anchor="middle" x="247.5" y="-29" font-family="Helvetica,sans-Serif" font-size="10.00">elc::defs::core::node_like</text>
</a>
</g>
</g>
<!-- Node2&#45;&gt;Node1 -->
<g id="edge1" class="edge">
<title>Node2&#45;&gt;Node1</title>
<path fill="none" stroke="#63b8ff" d="M320.16,-31.5C328.76,-31.5 337.44,-31.5 345.73,-31.5"/>
<polygon fill="#63b8ff" stroke="#63b8ff" points="320.12,-28 310.12,-31.5 320.12,-35 320.12,-28"/>
</g>
<!-- Node3 -->
<g id="node3" class="node">
<title>Node3</title>
<g id="a_node3"><a xlink:title=" ">
<polygon fill="white" stroke="#666666" points="149,-63 0,-63 0,0 149,0 149,-63"/>
<text text-anchor="start" x="8" y="-51" font-family="Helvetica,sans-Serif" font-size="10.00">type_info_t&lt; node_like</text>
<text text-anchor="middle" x="74.5" y="-40" font-family="Helvetica,sans-Serif" font-size="10.00"> &gt;:: template </text>
<text text-anchor="start" x="8" y="-29" font-family="Helvetica,sans-Serif" font-size="10.00">	with_common_attribute</text>
<text text-anchor="start" x="8" y="-18" font-family="Helvetica,sans-Serif" font-size="10.00">&lt; abstract_base, weak_ref</text>
<text text-anchor="middle" x="74.5" y="-7" font-family="Helvetica,sans-Serif" font-size="10.00">_able, replace_able, ref_able &gt;</text>
</a>
</g>
</g>
<!-- Node3&#45;&gt;Node2 -->
<g id="edge2" class="edge">
<title>Node3&#45;&gt;Node2</title>
<path fill="none" stroke="#63b8ff" d="M159.15,-31.5C167.81,-31.5 176.5,-31.5 184.86,-31.5"/>
<polygon fill="#63b8ff" stroke="#63b8ff" points="159.01,-28 149.01,-31.5 159.01,-35 159.01,-28"/>
</g>
</g>
</svg>
