<?xml version="1.0" encoding="UTF-8" standalone="no"?>
<!DOCTYPE svg PUBLIC "-//W3C//DTD SVG 1.1//EN"
 "http://www.w3.org/Graphics/SVG/1.1/DTD/svg11.dtd">
<!-- Generated by graphviz version 6.0.1 (20220911.1526)
 -->
<!-- Title: elc::defs::memory::ptr_n::base_ptr_t::operator&#45;&gt; Pages: 1 -->
<svg width="574pt" height="460pt"
 viewBox="0.00 0.00 574.00 460.00" xmlns="http://www.w3.org/2000/svg" xmlns:xlink="http://www.w3.org/1999/xlink">
<g id="graph0" class="graph" transform="scale(1 1) rotate(0) translate(4 456)">
<title>elc::defs::memory::ptr_n::base_ptr_t::operator&#45;&gt;</title>
<!-- Node1 -->
<g id="node1" class="node">
<title>Node1</title>
<g id="a_node1"><a xlink:title=" ">
<polygon fill="#999999" stroke="#666666" points="566,-246 426,-246 426,-216 566,-216 566,-246"/>
<text text-anchor="start" x="434" y="-234" font-family="Helvetica,sans-Serif" font-size="10.00">elc::defs::memory::</text>
<text text-anchor="middle" x="496" y="-223" font-family="Helvetica,sans-Serif" font-size="10.00">ptr_n::base_ptr_t::operator&#45;&gt;</text>
</a>
</g>
</g>
<!-- Node2 -->
<g id="node2" class="node">
<title>Node2</title>
<g id="a_node2"><a xlink:href="structelc_1_1defs_1_1core_1_1expr.html#a4b7b1c90a3b464d7bfa4a23a794d9cad" target="_top" xlink:title=" ">
<polygon fill="white" stroke="#666666" points="388.5,-452 285.5,-452 285.5,-422 388.5,-422 388.5,-452"/>
<text text-anchor="start" x="293.5" y="-440" font-family="Helvetica,sans-Serif" font-size="10.00">elc::defs::core::expr</text>
<text text-anchor="middle" x="337" y="-429" font-family="Helvetica,sans-Serif" font-size="10.00">::be_eval</text>
</a>
</g>
</g>
<!-- Node1&#45;&gt;Node2 -->
<g id="edge1" class="edge">
<title>Node1&#45;&gt;Node2</title>
<path fill="none" stroke="#63b8ff" d="M486.24,-256.1C471.7,-294.48 439.25,-368.04 390,-413 386.33,-416.35 382.11,-419.31 377.69,-421.9"/>
<polygon fill="#63b8ff" stroke="#63b8ff" points="489.69,-256.85 489.86,-246.26 483.12,-254.43 489.69,-256.85"/>
</g>
<!-- Node3 -->
<g id="node3" class="node">
<title>Node3</title>
<g id="a_node3"><a xlink:href="structelc_1_1defs_1_1core_1_1node__like.html#afd70fdf080337dbc9411c1bbeb4fb2d3" target="_top" xlink:title=" ">
<polygon fill="white" stroke="#666666" points="389.5,-404 284.5,-404 284.5,-374 389.5,-374 389.5,-404"/>
<text text-anchor="start" x="292.5" y="-392" font-family="Helvetica,sans-Serif" font-size="10.00">elc::defs::core::node</text>
<text text-anchor="middle" x="337" y="-381" font-family="Helvetica,sans-Serif" font-size="10.00">_like::eq</text>
</a>
</g>
</g>
<!-- Node1&#45;&gt;Node3 -->
<g id="edge2" class="edge">
<title>Node1&#45;&gt;Node3</title>
<path fill="none" stroke="#63b8ff" d="M481.21,-254.91C463.34,-284.13 429.74,-333.56 390,-365 385.79,-368.33 381.04,-371.32 376.17,-373.98"/>
<polygon fill="#63b8ff" stroke="#63b8ff" points="484.3,-256.56 486.44,-246.18 478.3,-252.96 484.3,-256.56"/>
</g>
<!-- Node5 -->
<g id="node5" class="node">
<title>Node5</title>
<g id="a_node5"><a xlink:href="structelc_1_1defs_1_1core_1_1node__like.html#afda73891c973d0df83eaff26c96ce7c6" target="_top" xlink:title=" ">
<polygon fill="white" stroke="#666666" points="389.5,-356 284.5,-356 284.5,-326 389.5,-326 389.5,-356"/>
<text text-anchor="start" x="292.5" y="-344" font-family="Helvetica,sans-Serif" font-size="10.00">elc::defs::core::node</text>
<text text-anchor="middle" x="337" y="-333" font-family="Helvetica,sans-Serif" font-size="10.00">_like::equal</text>
</a>
</g>
</g>
<!-- Node1&#45;&gt;Node5 -->
<g id="edge4" class="edge">
<title>Node1&#45;&gt;Node5</title>
<path fill="none" stroke="#63b8ff" d="M471.7,-253.02C451.25,-271.61 420.15,-298.13 390,-317 384.94,-320.17 379.4,-323.17 373.88,-325.9"/>
<polygon fill="#63b8ff" stroke="#63b8ff" points="474.26,-255.42 479.26,-246.08 469.53,-250.27 474.26,-255.42"/>
</g>
<!-- Node7 -->
<g id="node7" class="node">
<title>Node7</title>
<g id="a_node7"><a xlink:href="namespaceelc_1_1defs_1_1core.html#a25facafc70fea8b2815220792440c9aa" target="_top" xlink:title=" ">
<polygon fill="white" stroke="#666666" points="387.5,-307.5 286.5,-307.5 286.5,-288.5 387.5,-288.5 387.5,-307.5"/>
<text text-anchor="middle" x="337" y="-295.5" font-family="Helvetica,sans-Serif" font-size="10.00">elc::defs::core::eval</text>
</a>
</g>
</g>
<!-- Node1&#45;&gt;Node7 -->
<g id="edge6" class="edge">
<title>Node1&#45;&gt;Node7</title>
<path fill="none" stroke="#63b8ff" d="M454.44,-250.44C435.09,-259.48 411.51,-270.17 390,-279 382.09,-282.25 373.39,-285.53 365.41,-288.44"/>
<polygon fill="#63b8ff" stroke="#63b8ff" points="456.02,-253.57 463.58,-246.15 453.04,-247.23 456.02,-253.57"/>
</g>
<!-- Node8 -->
<g id="node8" class="node">
<title>Node8</title>
<g id="a_node8"><a xlink:href="structelc_1_1defs_1_1core_1_1value.html#a345c944e2a8058f5adbfc9187b4aea5d" target="_top" xlink:title=" ">
<polygon fill="white" stroke="#666666" points="390,-270 284,-270 284,-240 390,-240 390,-270"/>
<text text-anchor="start" x="292" y="-258" font-family="Helvetica,sans-Serif" font-size="10.00">elc::defs::core::value</text>
<text text-anchor="middle" x="337" y="-247" font-family="Helvetica,sans-Serif" font-size="10.00">::operator bool</text>
</a>
</g>
</g>
<!-- Node1&#45;&gt;Node8 -->
<g id="edge7" class="edge">
<title>Node1&#45;&gt;Node8</title>
<path fill="none" stroke="#63b8ff" d="M415.66,-243.13C407.1,-244.44 398.56,-245.74 390.44,-246.98"/>
<polygon fill="#63b8ff" stroke="#63b8ff" points="416.32,-246.57 425.68,-241.6 415.27,-239.65 416.32,-246.57"/>
</g>
<!-- Node9 -->
<g id="node9" class="node">
<title>Node9</title>
<g id="a_node9"><a xlink:href="structelc_1_1defs_1_1core_1_1value.html#a0eac49dca48f54d2cd4579e66bbd63b1" target="_top" xlink:title=" ">
<polygon fill="white" stroke="#666666" points="390,-222 284,-222 284,-192 390,-192 390,-222"/>
<text text-anchor="start" x="292" y="-210" font-family="Helvetica,sans-Serif" font-size="10.00">elc::defs::core::value</text>
<text text-anchor="middle" x="337" y="-199" font-family="Helvetica,sans-Serif" font-size="10.00">::operator const_ptr</text>
</a>
</g>
</g>
<!-- Node1&#45;&gt;Node9 -->
<g id="edge8" class="edge">
<title>Node1&#45;&gt;Node9</title>
<path fill="none" stroke="#63b8ff" d="M415.66,-218.87C407.1,-217.56 398.56,-216.26 390.44,-215.02"/>
<polygon fill="#63b8ff" stroke="#63b8ff" points="415.27,-222.35 425.68,-220.4 416.32,-215.43 415.27,-222.35"/>
</g>
<!-- Node11 -->
<g id="node11" class="node">
<title>Node11</title>
<g id="a_node11"><a xlink:href="structelc_1_1defs_1_1core_1_1value.html#a7fc91a401233272a670ebbeca186adfc" target="_top" xlink:title=" ">
<polygon fill="white" stroke="#666666" points="390,-174 284,-174 284,-144 390,-144 390,-174"/>
<text text-anchor="start" x="292" y="-162" font-family="Helvetica,sans-Serif" font-size="10.00">elc::defs::core::value</text>
<text text-anchor="middle" x="337" y="-151" font-family="Helvetica,sans-Serif" font-size="10.00">::operator ptr</text>
</a>
</g>
</g>
<!-- Node1&#45;&gt;Node11 -->
<g id="edge10" class="edge">
<title>Node1&#45;&gt;Node11</title>
<path fill="none" stroke="#63b8ff" d="M452.93,-211.71C427.19,-199.9 394.72,-185.01 370.87,-174.07"/>
<polygon fill="#63b8ff" stroke="#63b8ff" points="451.54,-214.92 462.09,-215.91 454.46,-208.56 451.54,-214.92"/>
</g>
<!-- Node15 -->
<g id="node15" class="node">
<title>Node15</title>
<g id="a_node15"><a xlink:href="structelc_1_1defs_1_1core_1_1value.html#a53e21a4941385d5c0998575d990a5cda" target="_top" xlink:title=" ">
<polygon fill="white" stroke="#666666" points="390,-126 284,-126 284,-96 390,-96 390,-126"/>
<text text-anchor="start" x="292" y="-114" font-family="Helvetica,sans-Serif" font-size="10.00">elc::defs::core::value</text>
<text text-anchor="middle" x="337" y="-103" font-family="Helvetica,sans-Serif" font-size="10.00">::for_delete_t *</text>
</a>
</g>
</g>
<!-- Node1&#45;&gt;Node15 -->
<g id="edge14" class="edge">
<title>Node1&#45;&gt;Node15</title>
<path fill="none" stroke="#63b8ff" d="M474.17,-208.29C454.09,-187.33 422.1,-156.33 390,-135 385.2,-131.81 379.9,-128.83 374.58,-126.13"/>
<polygon fill="#63b8ff" stroke="#63b8ff" points="471.84,-210.92 481.25,-215.78 476.93,-206.11 471.84,-210.92"/>
</g>
<!-- Node16 -->
<g id="node16" class="node">
<title>Node16</title>
<g id="a_node16"><a xlink:href="structelc_1_1defs_1_1core_1_1value.html#a667afdba83fa1014fdf6877e0ea47c4d" target="_top" xlink:title=" ">
<polygon fill="white" stroke="#666666" points="390,-78 284,-78 284,-48 390,-48 390,-78"/>
<text text-anchor="start" x="292" y="-66" font-family="Helvetica,sans-Serif" font-size="10.00">elc::defs::core::value</text>
<text text-anchor="middle" x="337" y="-55" font-family="Helvetica,sans-Serif" font-size="10.00">::operator=</text>
</a>
</g>
</g>
<!-- Node1&#45;&gt;Node16 -->
<g id="edge15" class="edge">
<title>Node1&#45;&gt;Node16</title>
<path fill="none" stroke="#63b8ff" d="M482.4,-206.65C465.18,-175.39 431.64,-121.13 390,-87 385.92,-83.66 381.31,-80.67 376.55,-78.04"/>
<polygon fill="#63b8ff" stroke="#63b8ff" points="479.38,-208.42 487.21,-215.56 485.54,-205.1 479.38,-208.42"/>
</g>
<!-- Node18 -->
<g id="node18" class="node">
<title>Node18</title>
<g id="a_node18"><a xlink:href="structelc_1_1defs_1_1core_1_1value.html#afed324cc0fea4de52f599d568e8568ea" target="_top" xlink:title=" ">
<polygon fill="white" stroke="#666666" points="390,-30 284,-30 284,0 390,0 390,-30"/>
<text text-anchor="start" x="292" y="-18" font-family="Helvetica,sans-Serif" font-size="10.00">elc::defs::core::value</text>
<text text-anchor="middle" x="337" y="-7" font-family="Helvetica,sans-Serif" font-size="10.00">::un_ref</text>
</a>
</g>
</g>
<!-- Node1&#45;&gt;Node18 -->
<g id="edge17" class="edge">
<title>Node1&#45;&gt;Node18</title>
<path fill="none" stroke="#63b8ff" d="M487.2,-206.24C473.47,-166.25 441.48,-87.09 390,-39 386.37,-35.61 382.17,-32.62 377.77,-30.02"/>
<polygon fill="#63b8ff" stroke="#63b8ff" points="483.96,-207.59 490.44,-215.97 490.6,-205.37 483.96,-207.59"/>
</g>
<!-- Node4 -->
<g id="node4" class="node">
<title>Node4</title>
<g id="a_node4"><a xlink:href="namespaceelc_1_1defs_1_1core.html#aba39fcb2f4726ec735963b8db35baf00" target="_top" xlink:title=" ">
<polygon fill="white" stroke="#666666" points="244,-404 146,-404 146,-374 244,-374 244,-404"/>
<text text-anchor="start" x="154" y="-392" font-family="Helvetica,sans-Serif" font-size="10.00">elc::defs::core::the</text>
<text text-anchor="middle" x="195" y="-381" font-family="Helvetica,sans-Serif" font-size="10.00">_pointer_equal</text>
</a>
</g>
</g>
<!-- Node3&#45;&gt;Node4 -->
<g id="edge3" class="edge">
<title>Node3&#45;&gt;Node4</title>
<path fill="none" stroke="#63b8ff" d="M274,-389C264.03,-389 253.85,-389 244.27,-389"/>
<polygon fill="#63b8ff" stroke="#63b8ff" points="274.27,-392.5 284.27,-389 274.27,-385.5 274.27,-392.5"/>
</g>
<!-- Node6 -->
<g id="node6" class="node">
<title>Node6</title>
<g id="a_node6"><a xlink:href="structelc_1_1defs_1_1core_1_1node__like.html#aaa373989c3cd8435f802ed2d1fa5e18b" target="_top" xlink:title=" ">
<polygon fill="white" stroke="#666666" points="247.5,-356 142.5,-356 142.5,-326 247.5,-326 247.5,-356"/>
<text text-anchor="start" x="150.5" y="-344" font-family="Helvetica,sans-Serif" font-size="10.00">elc::defs::core::node</text>
<text text-anchor="middle" x="195" y="-333" font-family="Helvetica,sans-Serif" font-size="10.00">_like::operator==</text>
</a>
</g>
</g>
<!-- Node5&#45;&gt;Node6 -->
<g id="edge5" class="edge">
<title>Node5&#45;&gt;Node6</title>
<path fill="none" stroke="#63b8ff" d="M274,-341C265.15,-341 256.14,-341 247.52,-341"/>
<polygon fill="#63b8ff" stroke="#63b8ff" points="274.27,-344.5 284.27,-341 274.27,-337.5 274.27,-344.5"/>
</g>
<!-- Node10 -->
<g id="node10" class="node">
<title>Node10</title>
<g id="a_node10"><a xlink:href="structelc_1_1defs_1_1core_1_1value.html#a44499d0148e9cef5142a11819e04d50b" target="_top" xlink:title=" ">
<polygon fill="white" stroke="#666666" points="248,-222 142,-222 142,-192 248,-192 248,-222"/>
<text text-anchor="start" x="150" y="-210" font-family="Helvetica,sans-Serif" font-size="10.00">elc::defs::core::value</text>
<text text-anchor="middle" x="195" y="-199" font-family="Helvetica,sans-Serif" font-size="10.00">::operator&amp;</text>
</a>
</g>
</g>
<!-- Node9&#45;&gt;Node10 -->
<g id="edge9" class="edge">
<title>Node9&#45;&gt;Node10</title>
<path fill="none" stroke="#63b8ff" d="M273.61,-207C265.12,-207 256.47,-207 248.17,-207"/>
<polygon fill="#63b8ff" stroke="#63b8ff" points="273.87,-210.5 283.87,-207 273.87,-203.5 273.87,-210.5"/>
</g>
<!-- Node12 -->
<g id="node12" class="node">
<title>Node12</title>
<g id="a_node12"><a xlink:href="structelc_1_1defs_1_1core_1_1value.html#ab5fb050cbffc44b68278d440175013ae" target="_top" xlink:title=" ">
<polygon fill="white" stroke="#666666" points="248,-174 142,-174 142,-144 248,-144 248,-174"/>
<text text-anchor="start" x="150" y="-162" font-family="Helvetica,sans-Serif" font-size="10.00">elc::defs::core::value</text>
<text text-anchor="middle" x="195" y="-151" font-family="Helvetica,sans-Serif" font-size="10.00">::operator&amp;</text>
</a>
</g>
</g>
<!-- Node11&#45;&gt;Node12 -->
<g id="edge11" class="edge">
<title>Node11&#45;&gt;Node12</title>
<path fill="none" stroke="#63b8ff" d="M273.61,-159C265.12,-159 256.47,-159 248.17,-159"/>
<polygon fill="#63b8ff" stroke="#63b8ff" points="273.87,-162.5 283.87,-159 273.87,-155.5 273.87,-162.5"/>
</g>
<!-- Node13 -->
<g id="node13" class="node">
<title>Node13</title>
<g id="a_node13"><a xlink:href="structelc_1_1defs_1_1core_1_1value.html#a064266fb65d89dbaede26b072f4f09e9" target="_top" xlink:title=" ">
<polygon fill="white" stroke="#666666" points="106,-198 0,-198 0,-168 106,-168 106,-198"/>
<text text-anchor="start" x="8" y="-186" font-family="Helvetica,sans-Serif" font-size="10.00">elc::defs::core::value</text>
<text text-anchor="middle" x="53" y="-175" font-family="Helvetica,sans-Serif" font-size="10.00">::operator()</text>
</a>
</g>
</g>
<!-- Node12&#45;&gt;Node13 -->
<g id="edge12" class="edge">
<title>Node12&#45;&gt;Node13</title>
<path fill="none" stroke="#63b8ff" d="M131.89,-169.65C123.31,-171.12 114.56,-172.62 106.17,-174.06"/>
<polygon fill="#63b8ff" stroke="#63b8ff" points="132.6,-173.08 141.87,-167.94 131.42,-166.18 132.6,-173.08"/>
</g>
<!-- Node14 -->
<g id="node14" class="node">
<title>Node14</title>
<g id="a_node14"><a xlink:href="structelc_1_1defs_1_1core_1_1value.html#a4236d768c466220881619212d9779fa1" target="_top" xlink:title=" ">
<polygon fill="white" stroke="#666666" points="106,-150 0,-150 0,-120 106,-120 106,-150"/>
<text text-anchor="start" x="8" y="-138" font-family="Helvetica,sans-Serif" font-size="10.00">elc::defs::core::value</text>
<text text-anchor="middle" x="53" y="-127" font-family="Helvetica,sans-Serif" font-size="10.00">::operator[]</text>
</a>
</g>
</g>
<!-- Node12&#45;&gt;Node14 -->
<g id="edge13" class="edge">
<title>Node12&#45;&gt;Node14</title>
<path fill="none" stroke="#63b8ff" d="M131.89,-148.35C123.31,-146.88 114.56,-145.38 106.17,-143.94"/>
<polygon fill="#63b8ff" stroke="#63b8ff" points="131.42,-151.82 141.87,-150.06 132.6,-144.92 131.42,-151.82"/>
</g>
<!-- Node17 -->
<g id="node17" class="node">
<title>Node17</title>
<g id="a_node17"><a xlink:href="structelc_1_1defs_1_1core_1_1cons.html#a09ec9ab991adfbcfb4c4506dac002c40" target="_top" xlink:title=" ">
<polygon fill="white" stroke="#666666" points="247.5,-78 142.5,-78 142.5,-48 247.5,-48 247.5,-78"/>
<text text-anchor="start" x="150.5" y="-66" font-family="Helvetica,sans-Serif" font-size="10.00">elc::defs::core::cons</text>
<text text-anchor="middle" x="195" y="-55" font-family="Helvetica,sans-Serif" font-size="10.00">::cons</text>
</a>
</g>
</g>
<!-- Node16&#45;&gt;Node17 -->
<g id="edge16" class="edge">
<title>Node16&#45;&gt;Node17</title>
<path fill="none" stroke="#63b8ff" d="M273.76,-63C265.05,-63 256.19,-63 247.71,-63"/>
<polygon fill="#63b8ff" stroke="#63b8ff" points="273.87,-66.5 283.87,-63 273.87,-59.5 273.87,-66.5"/>
</g>
</g>
</svg>
