<?xml version="1.0" encoding="UTF-8" standalone="no"?>
<!DOCTYPE svg PUBLIC "-//W3C//DTD SVG 1.1//EN"
 "http://www.w3.org/Graphics/SVG/1.1/DTD/svg11.dtd">
<!-- Generated by graphviz version 6.0.1 (20220911.1526)
 -->
<!-- Title: elc::defs::string_n::string_data_n::constexpr_string_data_t&lt; char_T &gt; Pages: 1 -->
<svg width="809pt" height="303pt"
 viewBox="0.00 0.00 809.00 302.50" xmlns="http://www.w3.org/2000/svg" xmlns:xlink="http://www.w3.org/1999/xlink">
<g id="graph0" class="graph" transform="scale(1 1) rotate(0) translate(4 298.5)">
<title>elc::defs::string_n::string_data_n::constexpr_string_data_t&lt; char_T &gt;</title>
<!-- Node1 -->
<g id="node1" class="node">
<title>Node1</title>
<g id="a_node1"><a xlink:title=" ">
<polygon fill="#999999" stroke="#666666" points="801,-140 671,-140 671,-99 801,-99 801,-140"/>
<text text-anchor="start" x="679" y="-128" font-family="Helvetica,sans-Serif" font-size="10.00">elc::defs::string_n</text>
<text text-anchor="start" x="679" y="-117" font-family="Helvetica,sans-Serif" font-size="10.00">::string_data_n::constexpr</text>
<text text-anchor="middle" x="736" y="-106" font-family="Helvetica,sans-Serif" font-size="10.00">_string_data_t&lt; char_T &gt;</text>
</a>
</g>
</g>
<!-- Node2 -->
<g id="node2" class="node">
<title>Node2</title>
<g id="a_node2"><a xlink:href="structelc_1_1defs_1_1string__n_1_1string__data__n_1_1base__string__data__t.html" target="_top" xlink:title=" ">
<polygon fill="white" stroke="#666666" points="512,-208 387,-208 387,-167 512,-167 512,-208"/>
<text text-anchor="start" x="395" y="-196" font-family="Helvetica,sans-Serif" font-size="10.00">elc::defs::string_n</text>
<text text-anchor="start" x="395" y="-185" font-family="Helvetica,sans-Serif" font-size="10.00">::string_data_n::base</text>
<text text-anchor="middle" x="449.5" y="-174" font-family="Helvetica,sans-Serif" font-size="10.00">_string_data_t&lt; char_T &gt;</text>
</a>
</g>
</g>
<!-- Node2&#45;&gt;Node1 -->
<g id="edge1" class="edge">
<title>Node2&#45;&gt;Node1</title>
<path fill="none" stroke="#63b8ff" d="M522.25,-170.61C560.99,-161.46 609.63,-149.93 653,-139.5 658.84,-138.1 664.92,-136.63 671,-135.15"/>
<polygon fill="#63b8ff" stroke="#63b8ff" points="521.04,-167.3 512.12,-173 522.65,-174.11 521.04,-167.3"/>
</g>
<!-- Node3 -->
<g id="node3" class="node">
<title>Node3</title>
<g id="a_node3"><a xlink:title=" ">
<polygon fill="white" stroke="#666666" points="285,-294.5 0,-294.5 0,-220.5 285,-220.5 285,-294.5"/>
<text text-anchor="start" x="8" y="-282.5" font-family="Helvetica,sans-Serif" font-size="10.00">type_info_t&lt; base_string</text>
<text text-anchor="start" x="8" y="-271.5" font-family="Helvetica,sans-Serif" font-size="10.00">_data_t&lt; char_T &gt; &gt;:: template</text>
<text text-anchor="middle" x="142.5" y="-260.5" font-family="Helvetica,sans-Serif" font-size="10.00"> </text>
<text text-anchor="start" x="8" y="-249.5" font-family="Helvetica,sans-Serif" font-size="10.00">							with_common_attribute</text>
<text text-anchor="start" x="8" y="-238.5" font-family="Helvetica,sans-Serif" font-size="10.00">&lt; abstract_base, never_in_array,</text>
<text text-anchor="middle" x="142.5" y="-227.5" font-family="Helvetica,sans-Serif" font-size="10.00"> replace_able, ref_able &gt;</text>
</a>
</g>
</g>
<!-- Node3&#45;&gt;Node2 -->
<g id="edge2" class="edge">
<title>Node3&#45;&gt;Node2</title>
<path fill="none" stroke="#63b8ff" d="M295.32,-222.66C327.67,-215.23 360.07,-207.8 386.68,-201.69"/>
<polygon fill="#63b8ff" stroke="#63b8ff" points="294.25,-219.31 285.29,-224.96 295.81,-226.13 294.25,-219.31"/>
</g>
<!-- Node4 -->
<g id="node4" class="node">
<title>Node4</title>
<g id="a_node4"><a xlink:href="classelc_1_1defs_1_1base_1_1build__by__get__only.html" target="_top" xlink:title=" ">
<polygon fill="white" stroke="#666666" points="196,-202.5 89,-202.5 89,-172.5 196,-172.5 196,-202.5"/>
<text text-anchor="start" x="97" y="-190.5" font-family="Helvetica,sans-Serif" font-size="10.00">elc::defs::base::build</text>
<text text-anchor="middle" x="142.5" y="-179.5" font-family="Helvetica,sans-Serif" font-size="10.00">_by_get_only</text>
</a>
</g>
</g>
<!-- Node4&#45;&gt;Node2 -->
<g id="edge3" class="edge">
<title>Node4&#45;&gt;Node2</title>
<path fill="none" stroke="#63b8ff" d="M206.54,-187.5C259.41,-187.5 334.47,-187.5 386.92,-187.5"/>
<polygon fill="#63b8ff" stroke="#63b8ff" points="206.28,-184 196.28,-187.5 206.28,-191 206.28,-184"/>
</g>
<!-- Node5 -->
<g id="node5" class="node">
<title>Node5</title>
<g id="a_node5"><a xlink:href="structelc_1_1defs_1_1base_1_1hash__n_1_1hash__value__t.html" target="_top" xlink:title=" ">
<polygon fill="white" stroke="#666666" points="196,-154.5 89,-154.5 89,-124.5 196,-124.5 196,-154.5"/>
<text text-anchor="start" x="97" y="-142.5" font-family="Helvetica,sans-Serif" font-size="10.00">elc::defs::base::hash</text>
<text text-anchor="middle" x="142.5" y="-131.5" font-family="Helvetica,sans-Serif" font-size="10.00">_n::hash_value_t</text>
</a>
</g>
</g>
<!-- Node5&#45;&gt;Node2 -->
<g id="edge4" class="edge">
<title>Node5&#45;&gt;Node2</title>
<path fill="none" stroke="#9a32cd" stroke-dasharray="5,2" d="M206.15,-148.41C250.32,-154.81 310.84,-163.81 364,-172.5 371.35,-173.7 379.06,-175.01 386.69,-176.33"/>
<polygon fill="#9a32cd" stroke="#9a32cd" points="206.53,-144.93 196.13,-146.97 205.53,-151.86 206.53,-144.93"/>
<text text-anchor="middle" x="333.5" y="-175.5" font-family="Helvetica,sans-Serif" font-size="10.00"> _hash_cache</text>
</g>
<!-- Node6 -->
<g id="node6" class="node">
<title>Node6</title>
<g id="a_node6"><a xlink:title=" ">
<polygon fill="white" stroke="#666666" points="517,-148.5 382,-148.5 382,-118.5 517,-118.5 517,-148.5"/>
<text text-anchor="start" x="390" y="-136.5" font-family="Helvetica,sans-Serif" font-size="10.00">instance_struct&lt; constexpr</text>
<text text-anchor="middle" x="449.5" y="-125.5" font-family="Helvetica,sans-Serif" font-size="10.00">_string_data_t&lt; char_T &gt; &gt;</text>
</a>
</g>
</g>
<!-- Node6&#45;&gt;Node1 -->
<g id="edge5" class="edge">
<title>Node6&#45;&gt;Node1</title>
<path fill="none" stroke="#63b8ff" d="M527.47,-129.71C572.31,-127.51 628.19,-124.76 670.67,-122.67"/>
<polygon fill="#63b8ff" stroke="#63b8ff" points="527.02,-126.23 517.2,-130.22 527.36,-133.22 527.02,-126.23"/>
</g>
<!-- Node7 -->
<g id="node7" class="node">
<title>Node7</title>
<g id="a_node7"><a xlink:href="structelc_1_1defs_1_1base_1_1range__n_1_1match__pattern.html" target="_top" xlink:title=" ">
<polygon fill="white" stroke="#666666" points="513.5,-100 385.5,-100 385.5,-59 513.5,-59 513.5,-100"/>
<text text-anchor="start" x="393.5" y="-88" font-family="Helvetica,sans-Serif" font-size="10.00">elc::defs::base::range</text>
<text text-anchor="start" x="393.5" y="-77" font-family="Helvetica,sans-Serif" font-size="10.00">_n::match_pattern&lt; const</text>
<text text-anchor="middle" x="449.5" y="-66" font-family="Helvetica,sans-Serif" font-size="10.00"> char_T &gt;</text>
</a>
</g>
</g>
<!-- Node7&#45;&gt;Node1 -->
<g id="edge6" class="edge">
<title>Node7&#45;&gt;Node1</title>
<path fill="none" stroke="#9a32cd" stroke-dasharray="5,2" d="M523.72,-89.79C569.12,-96.18 626.9,-104.3 670.56,-110.44"/>
<polygon fill="#9a32cd" stroke="#9a32cd" points="524.03,-86.3 513.64,-88.38 523.06,-93.24 524.03,-86.3"/>
<text text-anchor="middle" x="594" y="-110.5" font-family="Helvetica,sans-Serif" font-size="10.00"> _p_match_pattern</text>
</g>
<!-- Node8 -->
<g id="node8" class="node">
<title>Node8</title>
<g id="a_node8"><a xlink:href="structelc_1_1defs_1_1base_1_1array__like__n_1_1array__like__view__t.html" target="_top" xlink:title=" ">
<polygon fill="white" stroke="#666666" points="202,-68 83,-68 83,-27 202,-27 202,-68"/>
<text text-anchor="start" x="91" y="-56" font-family="Helvetica,sans-Serif" font-size="10.00">elc::defs::base::array</text>
<text text-anchor="start" x="91" y="-45" font-family="Helvetica,sans-Serif" font-size="10.00">_like_n::array_like_view</text>
<text text-anchor="middle" x="142.5" y="-34" font-family="Helvetica,sans-Serif" font-size="10.00">_t&lt; const char_T &gt;</text>
</a>
</g>
</g>
<!-- Node8&#45;&gt;Node7 -->
<g id="edge7" class="edge">
<title>Node8&#45;&gt;Node7</title>
<path fill="none" stroke="#9a32cd" stroke-dasharray="5,2" d="M212.43,-54.73C264.35,-60.18 334.97,-67.59 385.41,-72.88"/>
<polygon fill="#9a32cd" stroke="#9a32cd" points="212.62,-51.23 202.31,-53.67 211.89,-58.19 212.62,-51.23"/>
<text text-anchor="middle" x="333.5" y="-73.5" font-family="Helvetica,sans-Serif" font-size="10.00"> _pattern</text>
</g>
<!-- Node9 -->
<g id="node9" class="node">
<title>Node9</title>
<g id="a_node9"><a xlink:href="structelc_1_1defs_1_1base_1_1range__n_1_1reverse__match__pattern.html" target="_top" xlink:title=" ">
<polygon fill="white" stroke="#666666" points="515,-41 384,-41 384,0 515,0 515,-41"/>
<text text-anchor="start" x="392" y="-29" font-family="Helvetica,sans-Serif" font-size="10.00">elc::defs::base::range</text>
<text text-anchor="start" x="392" y="-18" font-family="Helvetica,sans-Serif" font-size="10.00">_n::reverse_match_pattern</text>
<text text-anchor="middle" x="449.5" y="-7" font-family="Helvetica,sans-Serif" font-size="10.00">&lt; const char_T &gt;</text>
</a>
</g>
</g>
<!-- Node8&#45;&gt;Node9 -->
<g id="edge9" class="edge">
<title>Node8&#45;&gt;Node9</title>
<path fill="none" stroke="#9a32cd" stroke-dasharray="5,2" d="M212.33,-41.41C263.71,-36.86 333.45,-30.69 383.81,-26.23"/>
<polygon fill="#9a32cd" stroke="#9a32cd" points="211.96,-37.93 202.31,-42.29 212.58,-44.9 211.96,-37.93"/>
<text text-anchor="middle" x="333.5" y="-36.5" font-family="Helvetica,sans-Serif" font-size="10.00"> _pattern</text>
</g>
<!-- Node9&#45;&gt;Node1 -->
<g id="edge8" class="edge">
<title>Node9&#45;&gt;Node1</title>
<path fill="none" stroke="#9a32cd" stroke-dasharray="5,2" d="M525.2,-37.11C563.97,-46.74 611.74,-60.19 653,-76.5 668.85,-82.76 685.63,-91.21 699.86,-98.96"/>
<polygon fill="#9a32cd" stroke="#9a32cd" points="525.58,-33.6 515.03,-34.62 523.91,-40.4 525.58,-33.6"/>
<text text-anchor="middle" x="594" y="-79.5" font-family="Helvetica,sans-Serif" font-size="10.00"> _p_reverse_match_pattern</text>
</g>
</g>
</svg>
