<?xml version="1.0" encoding="UTF-8" standalone="no"?>
<!DOCTYPE svg PUBLIC "-//W3C//DTD SVG 1.1//EN"
 "http://www.w3.org/Graphics/SVG/1.1/DTD/svg11.dtd">
<!-- Generated by graphviz version 6.0.1 (20220911.1526)
 -->
<!-- Title: elc::defs::memory::get_n::get_resize_t::insert_t::operator() Pages: 1 -->
<svg width="295pt" height="67pt"
 viewBox="0.00 0.00 295.00 67.00" xmlns="http://www.w3.org/2000/svg" xmlns:xlink="http://www.w3.org/1999/xlink">
<g id="graph0" class="graph" transform="scale(1 1) rotate(0) translate(4 63)">
<title>elc::defs::memory::get_n::get_resize_t::insert_t::operator()</title>
<!-- Node1 -->
<g id="node1" class="node">
<title>Node1</title>
<g id="a_node1"><a xlink:title=" ">
<polygon fill="#999999" stroke="#666666" points="102,-41 0,-41 0,0 102,0 102,-41"/>
<text text-anchor="start" x="8" y="-29" font-family="Helvetica,sans-Serif" font-size="10.00">elc::defs::memory::</text>
<text text-anchor="start" x="8" y="-18" font-family="Helvetica,sans-Serif" font-size="10.00">get_n::get_resize_t</text>
<text text-anchor="middle" x="51" y="-7" font-family="Helvetica,sans-Serif" font-size="10.00">::insert_t::operator()</text>
</a>
</g>
</g>
<!-- Node2 -->
<g id="node2" class="node">
<title>Node2</title>
<g id="a_node2"><a xlink:href="namespaceelc_1_1defs_1_1memory_1_1get__n.html#afe741c9105ddc611a7ca6dbf64758d0f" target="_top" xlink:title="在指定位置插入未初始化数据块并转移原有实例的生命周期，但并不构造新的实例">
<polygon fill="white" stroke="#666666" points="287,-41 138,-41 138,0 287,0 287,-41"/>
<text text-anchor="start" x="146" y="-29" font-family="Helvetica,sans-Serif" font-size="10.00">elc::defs::memory::</text>
<text text-anchor="start" x="146" y="-18" font-family="Helvetica,sans-Serif" font-size="10.00">get_n::alloc_size_grow</text>
<text text-anchor="middle" x="212.5" y="-7" font-family="Helvetica,sans-Serif" font-size="10.00">_with_insert_uninitialized_data</text>
</a>
</g>
</g>
<!-- Node1&#45;&gt;Node2 -->
<g id="edge1" class="edge">
<title>Node1&#45;&gt;Node2</title>
<path fill="none" stroke="#63b8ff" d="M102.03,-20.5C110.33,-20.5 119.12,-20.5 127.98,-20.5"/>
<polygon fill="#63b8ff" stroke="#63b8ff" points="127.99,-24 137.99,-20.5 127.99,-17 127.99,-24"/>
</g>
<!-- Node2&#45;&gt;Node2 -->
<g id="edge2" class="edge">
<title>Node2&#45;&gt;Node2</title>
<path fill="none" stroke="#63b8ff" d="M182.82,-41.1C179.58,-50.65 189.47,-59 212.5,-59 226.89,-59 236.15,-55.74 240.29,-50.96"/>
<polygon fill="#63b8ff" stroke="#63b8ff" points="243.73,-51.58 242.18,-41.1 236.86,-50.26 243.73,-51.58"/>
</g>
</g>
</svg>
