<?xml version="1.0" encoding="UTF-8" standalone="no"?>
<!DOCTYPE svg PUBLIC "-//W3C//DTD SVG 1.1//EN"
 "http://www.w3.org/Graphics/SVG/1.1/DTD/svg11.dtd">
<!-- Generated by graphviz version 6.0.1 (20220911.1526)
 -->
<!-- Title: elc::defs::base::attribute&lt; T, attribute_name &gt; Pages: 1 -->
<svg width="470pt" height="98pt"
 viewBox="0.00 0.00 470.00 97.50" xmlns="http://www.w3.org/2000/svg" xmlns:xlink="http://www.w3.org/1999/xlink">
<g id="graph0" class="graph" transform="scale(1 1) rotate(0) translate(4 93.5)">
<title>elc::defs::base::attribute&lt; T, attribute_name &gt;</title>
<!-- Node1 -->
<g id="node1" class="node">
<title>Node1</title>
<g id="a_node1"><a xlink:title=" ">
<polygon fill="#999999" stroke="#666666" points="122,-62.5 0,-62.5 0,-32.5 122,-32.5 122,-62.5"/>
<text text-anchor="start" x="8" y="-50.5" font-family="Helvetica,sans-Serif" font-size="10.00">elc::defs::base::attribute</text>
<text text-anchor="middle" x="61" y="-39.5" font-family="Helvetica,sans-Serif" font-size="10.00">&lt; T, attribute_name &gt;</text>
</a>
</g>
</g>
<!-- Node2 -->
<g id="node2" class="node">
<title>Node2</title>
<g id="a_node2"><a xlink:href="structelc_1_1defs_1_1base_1_1cons__t.html" target="_top" xlink:title=" ">
<polygon fill="white" stroke="#666666" points="283.5,-89.5 162.5,-89.5 162.5,-59.5 283.5,-59.5 283.5,-89.5"/>
<text text-anchor="start" x="170.5" y="-77.5" font-family="Helvetica,sans-Serif" font-size="10.00">elc::defs::base::cons</text>
<text text-anchor="middle" x="223" y="-66.5" font-family="Helvetica,sans-Serif" font-size="10.00">_t&lt; can_map_all&lt; T &gt; &gt;</text>
</a>
</g>
</g>
<!-- Node1&#45;&gt;Node2 -->
<g id="edge1" class="edge">
<title>Node1&#45;&gt;Node2</title>
<path fill="none" stroke="#63b8ff" d="M132.06,-59.32C142.19,-61.03 152.53,-62.78 162.43,-64.45"/>
<polygon fill="#63b8ff" stroke="#63b8ff" points="132.48,-55.84 122.03,-57.63 131.31,-62.75 132.48,-55.84"/>
</g>
<!-- Node4 -->
<g id="node4" class="node">
<title>Node4</title>
<g id="a_node4"><a xlink:href="structelc_1_1defs_1_1base_1_1cons__t.html" target="_top" xlink:title=" ">
<polygon fill="white" stroke="#666666" points="288,-41 158,-41 158,0 288,0 288,-41"/>
<text text-anchor="start" x="166" y="-29" font-family="Helvetica,sans-Serif" font-size="10.00">elc::defs::base::cons</text>
<text text-anchor="start" x="166" y="-18" font-family="Helvetica,sans-Serif" font-size="10.00">_t&lt; elc::defs::memory</text>
<text text-anchor="middle" x="223" y="-7" font-family="Helvetica,sans-Serif" font-size="10.00">::others_n::can_map_all &gt;</text>
</a>
</g>
</g>
<!-- Node1&#45;&gt;Node4 -->
<g id="edge3" class="edge">
<title>Node1&#45;&gt;Node4</title>
<path fill="none" stroke="#63b8ff" d="M132.03,-35.68C140.63,-34.23 149.38,-32.75 157.88,-31.32"/>
<polygon fill="#63b8ff" stroke="#63b8ff" points="131.31,-32.25 122.03,-37.37 132.48,-39.16 131.31,-32.25"/>
</g>
<!-- Node3 -->
<g id="node3" class="node">
<title>Node3</title>
<g id="a_node3"><a xlink:href="structelc_1_1defs_1_1memory_1_1others__n_1_1can__map__all.html" target="_top" xlink:title=" ">
<polygon fill="white" stroke="#666666" points="462,-89.5 324,-89.5 324,-59.5 462,-59.5 462,-89.5"/>
<text text-anchor="start" x="332" y="-77.5" font-family="Helvetica,sans-Serif" font-size="10.00">elc::defs::memory::</text>
<text text-anchor="middle" x="393" y="-66.5" font-family="Helvetica,sans-Serif" font-size="10.00">others_n::can_map_all&lt; T &gt;</text>
</a>
</g>
</g>
<!-- Node2&#45;&gt;Node3 -->
<g id="edge2" class="edge">
<title>Node2&#45;&gt;Node3</title>
<path fill="none" stroke="#63b8ff" d="M293.92,-74.5C303.83,-74.5 314.02,-74.5 323.9,-74.5"/>
<polygon fill="#63b8ff" stroke="#63b8ff" points="293.7,-71 283.7,-74.5 293.7,-78 293.7,-71"/>
</g>
</g>
</svg>
