<?xml version="1.0" encoding="UTF-8" standalone="no"?>
<!DOCTYPE svg PUBLIC "-//W3C//DTD SVG 1.1//EN"
 "http://www.w3.org/Graphics/SVG/1.1/DTD/svg11.dtd">
<!-- Generated by graphviz version 6.0.1 (20220911.1526)
 -->
<!-- Title: elc::defs::stream_n::data_ostream Pages: 1 -->
<svg width="254pt" height="302pt"
 viewBox="0.00 0.00 253.50 302.00" xmlns="http://www.w3.org/2000/svg" xmlns:xlink="http://www.w3.org/1999/xlink">
<g id="graph0" class="graph" transform="scale(1 1) rotate(0) translate(4 298)">
<title>elc::defs::stream_n::data_ostream</title>
<!-- Node1 -->
<g id="node1" class="node">
<title>Node1</title>
<g id="a_node1"><a xlink:title=" ">
<polygon fill="#999999" stroke="#666666" points="166,-162 66,-162 66,-132 166,-132 166,-162"/>
<text text-anchor="start" x="74" y="-150" font-family="Helvetica,sans-Serif" font-size="10.00">elc::defs::stream_n</text>
<text text-anchor="middle" x="116" y="-139" font-family="Helvetica,sans-Serif" font-size="10.00">::data_ostream</text>
</a>
</g>
</g>
<!-- Node4 -->
<g id="node4" class="node">
<title>Node4</title>
<g id="a_node4"><a xlink:href="structelc_1_1defs_1_1stream__n_1_1data__iostream.html" target="_top" xlink:title=" ">
<polygon fill="white" stroke="#666666" points="100,-96 0,-96 0,-66 100,-66 100,-96"/>
<text text-anchor="start" x="8" y="-84" font-family="Helvetica,sans-Serif" font-size="10.00">elc::defs::stream_n</text>
<text text-anchor="middle" x="50" y="-73" font-family="Helvetica,sans-Serif" font-size="10.00">::data_iostream</text>
</a>
</g>
</g>
<!-- Node1&#45;&gt;Node4 -->
<g id="edge3" class="edge">
<title>Node1&#45;&gt;Node4</title>
<path fill="none" stroke="#63b8ff" d="M93.98,-124.65C84.31,-115.27 73.23,-104.53 64.61,-96.16"/>
<polygon fill="#63b8ff" stroke="#63b8ff" points="91.74,-127.35 101.35,-131.8 96.61,-122.32 91.74,-127.35"/>
</g>
<!-- Node6 -->
<g id="node6" class="node">
<title>Node6</title>
<g id="a_node6"><a xlink:href="structelc_1_1defs_1_1stream__n_1_1noexcept__data__ostream.html" target="_top" xlink:title=" ">
<polygon fill="white" stroke="#666666" points="245.5,-96 118.5,-96 118.5,-66 245.5,-66 245.5,-96"/>
<text text-anchor="start" x="126.5" y="-84" font-family="Helvetica,sans-Serif" font-size="10.00">elc::defs::stream_n</text>
<text text-anchor="middle" x="182" y="-73" font-family="Helvetica,sans-Serif" font-size="10.00">::noexcept_data_ostream</text>
</a>
</g>
</g>
<!-- Node1&#45;&gt;Node6 -->
<g id="edge5" class="edge">
<title>Node1&#45;&gt;Node6</title>
<path fill="none" stroke="#63b8ff" d="M138.02,-124.65C147.69,-115.27 158.77,-104.53 167.39,-96.16"/>
<polygon fill="#63b8ff" stroke="#63b8ff" points="135.39,-122.32 130.65,-131.8 140.26,-127.35 135.39,-122.32"/>
</g>
<!-- Node2 -->
<g id="node2" class="node">
<title>Node2</title>
<g id="a_node2"><a xlink:href="structelc_1_1defs_1_1stream__n_1_1base__ostream.html" target="_top" xlink:title=" ">
<polygon fill="white" stroke="#666666" points="166,-228 66,-228 66,-198 166,-198 166,-228"/>
<text text-anchor="start" x="74" y="-216" font-family="Helvetica,sans-Serif" font-size="10.00">elc::defs::stream_n</text>
<text text-anchor="middle" x="116" y="-205" font-family="Helvetica,sans-Serif" font-size="10.00">::base_ostream</text>
</a>
</g>
</g>
<!-- Node2&#45;&gt;Node1 -->
<g id="edge1" class="edge">
<title>Node2&#45;&gt;Node1</title>
<path fill="none" stroke="#63b8ff" d="M116,-187.54C116,-178.96 116,-169.61 116,-162.16"/>
<polygon fill="#63b8ff" stroke="#63b8ff" points="112.5,-187.8 116,-197.8 119.5,-187.8 112.5,-187.8"/>
</g>
<!-- Node3 -->
<g id="node3" class="node">
<title>Node3</title>
<g id="a_node3"><a xlink:href="structelc_1_1defs_1_1stream__n_1_1base__stream.html" target="_top" xlink:title=" ">
<polygon fill="white" stroke="#666666" points="166,-294 66,-294 66,-264 166,-264 166,-294"/>
<text text-anchor="start" x="74" y="-282" font-family="Helvetica,sans-Serif" font-size="10.00">elc::defs::stream_n</text>
<text text-anchor="middle" x="116" y="-271" font-family="Helvetica,sans-Serif" font-size="10.00">::base_stream</text>
</a>
</g>
</g>
<!-- Node3&#45;&gt;Node2 -->
<g id="edge2" class="edge">
<title>Node3&#45;&gt;Node2</title>
<path fill="none" stroke="#63b8ff" d="M116,-253.54C116,-244.96 116,-235.61 116,-228.16"/>
<polygon fill="#63b8ff" stroke="#63b8ff" points="112.5,-253.8 116,-263.8 119.5,-253.8 112.5,-253.8"/>
</g>
<!-- Node5 -->
<g id="node5" class="node">
<title>Node5</title>
<g id="a_node5"><a xlink:href="structelc_1_1defs_1_1stream__n_1_1noexcept__data__iostream.html" target="_top" xlink:title=" ">
<polygon fill="white" stroke="#666666" points="180.5,-30 51.5,-30 51.5,0 180.5,0 180.5,-30"/>
<text text-anchor="start" x="59.5" y="-18" font-family="Helvetica,sans-Serif" font-size="10.00">elc::defs::stream_n</text>
<text text-anchor="middle" x="116" y="-7" font-family="Helvetica,sans-Serif" font-size="10.00">::noexcept_data_iostream</text>
</a>
</g>
</g>
<!-- Node4&#45;&gt;Node5 -->
<g id="edge4" class="edge">
<title>Node4&#45;&gt;Node5</title>
<path fill="none" stroke="#63b8ff" d="M72.02,-58.65C81.69,-49.27 92.77,-38.53 101.39,-30.16"/>
<polygon fill="#63b8ff" stroke="#63b8ff" points="69.39,-56.32 64.65,-65.8 74.26,-61.35 69.39,-56.32"/>
</g>
<!-- Node6&#45;&gt;Node5 -->
<g id="edge6" class="edge">
<title>Node6&#45;&gt;Node5</title>
<path fill="none" stroke="#63b8ff" d="M159.98,-58.65C150.31,-49.27 139.23,-38.53 130.61,-30.16"/>
<polygon fill="#63b8ff" stroke="#63b8ff" points="157.74,-61.35 167.35,-65.8 162.61,-56.32 157.74,-61.35"/>
</g>
</g>
</svg>
